{"asset":{"version":"2.0","generator":"babylon.js glTF exporter for 3dsmax 2022 v20240125.3"},"scene":0,"scenes":[{"nodes":[0]}],"nodes":[{"mesh":0,"name":"对象049"}],"meshes":[{"primitives":[{"attributes":{"POSITION":1,"NORMAL":2,"TEXCOORD_0":3},"indices":0,"material":0},{"attributes":{"POSITION":5,"NORMAL":6,"TEXCOORD_0":7},"indices":4,"material":1},{"attributes":{"POSITION":9,"NORMAL":10,"TEXCOORD_0":11},"indices":8,"material":2},{"attributes":{"POSITION":13,"NORMAL":14,"TEXCOORD_0":15},"indices":12,"material":3},{"attributes":{"POSITION":17,"NORMAL":18,"TEXCOORD_0":19},"indices":16,"material":4},{"attributes":{"POSITION":21,"NORMAL":22,"TEXCOORD_0":23},"indices":20,"material":5},{"attributes":{"POSITION":25,"NORMAL":26,"TEXCOORD_0":27},"indices":24,"material":6},{"attributes":{"POSITION":29,"NORMAL":30,"TEXCOORD_0":31},"indices":28,"material":7},{"attributes":{"POSITION":33,"NORMAL":34,"TEXCOORD_0":35},"indices":32,"material":8},{"attributes":{"POSITION":37,"NORMAL":38,"TEXCOORD_0":39},"indices":36,"material":9},{"attributes":{"POSITION":41,"NORMAL":42,"TEXCOORD_0":43},"indices":40,"material":10},{"attributes":{"POSITION":45,"NORMAL":46,"TEXCOORD_0":47},"indices":44,"material":11},{"attributes":{"POSITION":49,"NORMAL":50,"TEXCOORD_0":51},"indices":48,"material":12},{"attributes":{"POSITION":53,"NORMAL":54,"TEXCOORD_0":55},"indices":52,"material":13}],"name":"对象049"}],"accessors":[{"bufferView":0,"componentType":5123,"count":6,"type":"SCALAR","name":"accessorIndices"},{"bufferView":1,"componentType":5126,"count":4,"max":[12.1010132,-3.98871088,9.04907],"min":[12.1010132,-5.12140226,3.681643],"type":"VEC3","name":"accessorPositions"},{"bufferView":1,"byteOffset":48,"componentType":5126,"count":4,"type":"VEC3","name":"accessorNormals"},{"bufferView":2,"componentType":5126,"count":4,"type":"VEC2","name":"accessorUVs"},{"bufferView":0,"byteOffset":12,"componentType":5123,"count":24,"type":"SCALAR","name":"accessorIndices"},{"bufferView":1,"byteOffset":96,"componentType":5126,"count":16,"max":[12.0853558,25.7259865,10.1378174],"min":[-12.2888718,-20.2511749,0.0222355127],"type":"VEC3","name":"accessorPositions"},{"bufferView":1,"byteOffset":288,"componentType":5126,"count":16,"type":"VEC3","name":"accessorNormals"},{"bufferView":2,"byteOffset":32,"componentType":5126,"count":16,"type":"VEC2","name":"accessorUVs"},{"bufferView":0,"byteOffset":60,"componentType":5123,"count":162,"type":"SCALAR","name":"accessorIndices"},{"bufferView":1,"byteOffset":480,"componentType":5126,"count":81,"max":[12.0853891,26.1286125,10.5063648],"min":[-12.6953735,-33.47563,0.02222991],"type":"VEC3","name":"accessorPositions"},{"bufferView":1,"byteOffset":1452,"componentType":5126,"count":81,"type":"VEC3","name":"accessorNormals"},{"bufferView":2,"byteOffset":160,"componentType":5126,"count":81,"type":"VEC2","name":"accessorUVs"},{"bufferView":0,"byteOffset":384,"componentType":5123,"count":168,"type":"SCALAR","name":"accessorIndices"},{"bufferView":1,"byteOffset":2424,"componentType":5126,"count":112,"max":[11.7598419,25.7923088,12.6377277],"min":[-12.3698273,-33.1978,5.2712183],"type":"VEC3","name":"accessorPositions"},{"bufferView":1,"byteOffset":3768,"componentType":5126,"count":112,"type":"VEC3","name":"accessorNormals"},{"bufferView":2,"byteOffset":808,"componentType":5126,"count":112,"type":"VEC2","name":"accessorUVs"},{"bufferView":0,"byteOffset":720,"componentType":5123,"count":12,"type":"SCALAR","name":"accessorIndices"},{"bufferView":1,"byteOffset":5112,"componentType":5126,"count":8,"max":[12.0853891,26.1286125,10.5063648],"min":[-12.6953735,-33.47563,5.271227],"type":"VEC3","name":"accessorPositions"},{"bufferView":1,"byteOffset":5208,"componentType":5126,"count":8,"type":"VEC3","name":"accessorNormals"},{"bufferView":2,"byteOffset":1704,"componentType":5126,"count":8,"type":"VEC2","name":"accessorUVs"},{"bufferView":0,"byteOffset":744,"componentType":5123,"count":1404,"type":"SCALAR","name":"accessorIndices"},{"bufferView":1,"byteOffset":5304,"componentType":5126,"count":912,"max":[-2.56510067,24.5040779,16.3787365],"min":[-11.3504276,-19.0262375,13.2729244],"type":"VEC3","name":"accessorPositions"},{"bufferView":1,"byteOffset":16248,"componentType":5126,"count":912,"type":"VEC3","name":"accessorNormals"},{"bufferView":2,"byteOffset":1768,"componentType":5126,"count":912,"type":"VEC2","name":"accessorUVs"},{"bufferView":0,"byteOffset":3552,"componentType":5123,"count":24,"type":"SCALAR","name":"accessorIndices"},{"bufferView":1,"byteOffset":27192,"componentType":5126,"count":16,"max":[-7.38645363,6.28010845,15.374382],"min":[-10.4585333,-0.802252531,10.556057],"type":"VEC3","name":"accessorPositions"},{"bufferView":1,"byteOffset":27384,"componentType":5126,"count":16,"type":"VEC3","name":"accessorNormals"},{"bufferView":2,"byteOffset":9064,"componentType":5126,"count":16,"type":"VEC2","name":"accessorUVs"},{"bufferView":0,"byteOffset":3600,"componentType":5123,"count":1404,"type":"SCALAR","name":"accessorIndices"},{"bufferView":1,"byteOffset":27576,"componentType":5126,"count":746,"max":[2.30742431,25.1613312,15.374382],"min":[-10.4586163,-19.7899971,10.449873],"type":"VEC3","name":"accessorPositions"},{"bufferView":1,"byteOffset":36528,"componentType":5126,"count":746,"type":"VEC3","name":"accessorNormals"},{"bufferView":2,"byteOffset":9192,"componentType":5126,"count":746,"type":"VEC2","name":"accessorUVs"},{"bufferView":0,"byteOffset":6408,"componentType":5123,"count":1458,"type":"SCALAR","name":"accessorIndices"},{"bufferView":1,"byteOffset":45480,"componentType":5126,"count":1216,"max":[12.6953611,33.0683441,16.5494728],"min":[-11.2879124,-19.7862968,4.46871853],"type":"VEC3","name":"accessorPositions"},{"bufferView":1,"byteOffset":60072,"componentType":5126,"count":1216,"type":"VEC3","name":"accessorNormals"},{"bufferView":2,"byteOffset":15160,"componentType":5126,"count":1216,"type":"VEC2","name":"accessorUVs"},{"bufferView":0,"byteOffset":9324,"componentType":5123,"count":1146,"type":"SCALAR","name":"accessorIndices"},{"bufferView":1,"byteOffset":74664,"componentType":5126,"count":604,"max":[12.6953611,33.47566,8.057024],"min":[10.8714113,26.0423737,0.935073733],"type":"VEC3","name":"accessorPositions"},{"bufferView":1,"byteOffset":81912,"componentType":5126,"count":604,"type":"VEC3","name":"accessorNormals"},{"bufferView":2,"byteOffset":24888,"componentType":5126,"count":604,"type":"VEC2","name":"accessorUVs"},{"bufferView":0,"byteOffset":11616,"componentType":5123,"count":144,"type":"SCALAR","name":"accessorIndices"},{"bufferView":1,"byteOffset":89160,"componentType":5126,"count":96,"max":[12.088171,33.4721336,0.935076],"min":[11.4787006,26.04594,5.48362732E-06],"type":"VEC3","name":"accessorPositions"},{"bufferView":1,"byteOffset":90312,"componentType":5126,"count":96,"type":"VEC3","name":"accessorNormals"},{"bufferView":2,"byteOffset":29720,"componentType":5126,"count":96,"type":"VEC2","name":"accessorUVs"},{"bufferView":0,"byteOffset":11904,"componentType":5123,"count":108,"type":"SCALAR","name":"accessorIndices"},{"bufferView":1,"byteOffset":91464,"componentType":5126,"count":72,"max":[11.9002571,33.06837,4.95706749],"min":[11.6666069,26.44976,2.59311366],"type":"VEC3","name":"accessorPositions"},{"bufferView":1,"byteOffset":92328,"componentType":5126,"count":72,"type":"VEC3","name":"accessorNormals"},{"bufferView":2,"byteOffset":30488,"componentType":5126,"count":72,"type":"VEC2","name":"accessorUVs"},{"bufferView":0,"byteOffset":12120,"componentType":5123,"count":36,"type":"SCALAR","name":"accessorIndices"},{"bufferView":1,"byteOffset":93192,"componentType":5126,"count":24,"max":[11.8016424,33.06837,5.899657],"min":[11.76524,26.44976,4.08512259],"type":"VEC3","name":"accessorPositions"},{"bufferView":1,"byteOffset":93480,"componentType":5126,"count":24,"type":"VEC3","name":"accessorNormals"},{"bufferView":2,"byteOffset":31064,"componentType":5126,"count":24,"type":"VEC2","name":"accessorUVs"},{"bufferView":0,"byteOffset":12192,"componentType":5123,"count":6,"type":"SCALAR","name":"accessorIndices"},{"bufferView":1,"byteOffset":93768,"componentType":5126,"count":4,"max":[12.04696,30.6656914,4.85848141],"min":[11.9342527,28.8559875,4.056414],"type":"VEC3","name":"accessorPositions"},{"bufferView":1,"byteOffset":93816,"componentType":5126,"count":4,"type":"VEC3","name":"accessorNormals"},{"bufferView":2,"byteOffset":31256,"componentType":5126,"count":4,"type":"VEC2","name":"accessorUVs"}],"bufferViews":[{"buffer":0,"byteLength":12204,"name":"bufferViewScalar"},{"buffer":0,"byteOffset":12204,"byteLength":93864,"byteStride":12,"name":"bufferViewFloatVec3"},{"buffer":0,"byteOffset":106068,"byteLength":31288,"byteStride":8,"name":"bufferViewFloatVec2"}],"buffers":[{"uri":"sg_sxy_0.bin","byteLength":137356}],"materials":[{"pbrMetallicRoughness":{"baseColorTexture":{"index":0},"metallicFactor":0.0,"roughnessFactor":0.450053632},"name":"Material #47062"},{"pbrMetallicRoughness":{"baseColorTexture":{"index":1},"metallicFactor":0.0,"roughnessFactor":0.450053632},"name":"Material #46787"},{"pbrMetallicRoughness":{"baseColorTexture":{"index":2},"metallicFactor":0.0,"roughnessFactor":0.450053632},"name":"Material #46823"},{"pbrMetallicRoughness":{"baseColorTexture":{"index":3},"metallicFactor":0.0,"roughnessFactor":0.450053632},"name":"Material #46810"},{"pbrMetallicRoughness":{"baseColorTexture":{"index":4},"metallicFactor":0.0,"roughnessFactor":0.450053632},"name":"Material #47050"},{"pbrMetallicRoughness":{"baseColorTexture":{"index":5},"metallicFactor":0.0,"roughnessFactor":0.450053632},"doubleSided":true,"name":"Material #835"},{"pbrMetallicRoughness":{"baseColorTexture":{"index":6},"metallicFactor":0.0,"roughnessFactor":0.450053632},"name":"Material #836"},{"pbrMetallicRoughness":{"baseColorTexture":{"index":7},"metallicFactor":0.0,"roughnessFactor":0.450053632},"name":"Material #848"},{"pbrMetallicRoughness":{"baseColorTexture":{"index":8},"metallicFactor":0.0,"roughnessFactor":0.450053632},"name":"Material #883"},{"pbrMetallicRoughness":{"baseColorTexture":{"index":9},"metallicFactor":0.0,"roughnessFactor":0.450053632},"name":"Material #47212"},{"pbrMetallicRoughness":{"baseColorTexture":{"index":10},"metallicFactor":0.0,"roughnessFactor":0.450053632},"name":"Material #47213"},{"pbrMetallicRoughness":{"baseColorTexture":{"index":11},"metallicFactor":0.0,"roughnessFactor":0.450053632},"name":"Material #47226"},{"pbrMetallicRoughness":{"baseColorTexture":{"index":12},"metallicFactor":0.0,"roughnessFactor":0.450053632},"name":"Material #47238"},{"pbrMetallicRoughness":{"baseColorTexture":{"index":13},"metallicFactor":0.0,"roughnessFactor":0.450053632},"name":"Material #47366"}],"textures":[{"sampler":0,"source":0,"name":"sg_sxy_03.jpg"},{"sampler":0,"source":1,"name":"sg_sxy.png"},{"sampler":0,"source":2,"name":"sg_sxy_02.jpg"},{"sampler":0,"source":3,"name":"wcl_006.png"},{"sampler":0,"source":4,"name":"011.jpg"},{"sampler":0,"source":5,"name":"hyg_bgmgly_010.png"},{"sampler":0,"source":6,"name":"qls_yyt_002.png"},{"sampler":0,"source":7,"name":"qls_fgc_001.png"},{"sampler":0,"source":8,"name":"QDS_MF01.jpg"},{"sampler":0,"source":9,"name":"sg_sxy_6.jpg"},{"sampler":0,"source":10,"name":"sgy_4q_46.jpg"},{"sampler":0,"source":11,"name":"sg_sxy_05.png"},{"sampler":0,"source":12,"name":"sg_sxy_07.png"},{"sampler":0,"source":13,"name":"sg_sxy_04.jpg"}],"images":[{"uri":"sg_sxy_03.jpg"},{"uri":"sg_sxy.png"},{"uri":"sg_sxy_02.jpg"},{"uri":"wcl_006.png"},{"uri":"011.jpg"},{"uri":"hyg_bgmgly_010.png"},{"uri":"qls_yyt_002.png"},{"uri":"qls_fgc_001.png"},{"uri":"QDS_MF01.jpg"},{"uri":"sg_sxy_6.jpg"},{"uri":"sgy_4q_46.jpg"},{"uri":"sg_sxy_05.png"},{"uri":"sg_sxy_07.png"},{"uri":"sg_sxy_04.jpg"}],"samplers":[{"magFilter":9729,"minFilter":9987}]}