{
  "accessors" : [ {
    "bufferView" : 0,
    "byteOffset" : 0,
    "componentType" : 5123,
    "count" : 1026,
    "type" : "SCALAR",
    "max" : [ 773 ],
    "min" : [ 0 ]
  }, {
    "bufferView" : 1,
    "byteOffset" : 0,
    "componentType" : 5126,
    "count" : 774,
    "type" : "VEC3",
    "max" : [ 9.8269, 34.3374, 17.6801 ],
    "min" : [ -9.8269, -34.3374, 0.0 ]
  }, {
    "bufferView" : 2,
    "byteOffset" : 0,
    "componentType" : 5126,
    "count" : 774,
    "type" : "VEC2",
    "max" : [ 2.9682, 2.9682 ],
    "min" : [ -1.9682, -1.9682 ]
  }, {
    "bufferView" : 3,
    "byteOffset" : 0,
    "componentType" : 5126,
    "count" : 774,
    "type" : "VEC3",
    "max" : [ 1.0, 1.0, 1.0 ],
    "min" : [ -1.0, -1.0, -1.0 ]
  }, {
    "bufferView" : 4,
    "byteOffset" : 0,
    "componentType" : 5123,
    "count" : 84,
    "type" : "SCALAR",
    "max" : [ 41 ],
    "min" : [ 0 ]
  }, {
    "bufferView" : 5,
    "byteOffset" : 0,
    "componentType" : 5126,
    "count" : 42,
    "type" : "VEC3",
    "max" : [ 9.8269, 20.2972, 15.5107 ],
    "min" : [ -9.8269, 2.3338, 0.0 ]
  }, {
    "bufferView" : 6,
    "byteOffset" : 0,
    "componentType" : 5126,
    "count" : 42,
    "type" : "VEC2",
    "max" : [ 2.0119, 1.0 ],
    "min" : [ -1.072, 0.0 ]
  }, {
    "bufferView" : 7,
    "byteOffset" : 0,
    "componentType" : 5126,
    "count" : 42,
    "type" : "VEC3",
    "max" : [ 1.0, 1.0, 0.0 ],
    "min" : [ -1.0, -1.0, 0.0 ]
  } ],
  "asset" : {
    "generator" : "JglTF from https://github.com/javagl/JglTF",
    "version" : "2.0"
  },
  "buffers" : [ {
    "uri" : "buffer.bin",
    "byteLength" : 28332
  } ],
  "bufferViews" : [ {
    "buffer" : 0,
    "byteOffset" : 0,
    "byteLength" : 2052,
    "target" : 34963
  }, {
    "buffer" : 0,
    "byteOffset" : 2052,
    "byteLength" : 9288,
    "target" : 34962
  }, {
    "buffer" : 0,
    "byteOffset" : 11340,
    "byteLength" : 6192,
    "target" : 34962
  }, {
    "buffer" : 0,
    "byteOffset" : 17532,
    "byteLength" : 9288,
    "target" : 34962
  }, {
    "buffer" : 0,
    "byteOffset" : 26820,
    "byteLength" : 168,
    "target" : 34963
  }, {
    "buffer" : 0,
    "byteOffset" : 26988,
    "byteLength" : 504,
    "target" : 34962
  }, {
    "buffer" : 0,
    "byteOffset" : 27492,
    "byteLength" : 336,
    "target" : 34962
  }, {
    "buffer" : 0,
    "byteOffset" : 27828,
    "byteLength" : 504,
    "target" : 34962
  } ],
  "images" : [ {
    "uri" : "SGY_q1_059.jpg",
    "mimeType" : "image/jpeg"
  }, {
    "uri" : "DTZ_005.jpg",
    "mimeType" : "image/jpeg"
  } ],
  "materials" : [ {
    "pbrMetallicRoughness" : {
      "baseColorFactor" : [ 1.0, 1.0, 1.0, 1.0 ],
      "baseColorTexture" : {
        "index" : 0
      },
      "metallicFactor" : 0.0,
      "roughnessFactor" : 1.0
    },
    "alphaMode" : "OPAQUE",
    "doubleSided" : true
  }, {
    "pbrMetallicRoughness" : {
      "baseColorFactor" : [ 1.0, 1.0, 1.0, 1.0 ],
      "baseColorTexture" : {
        "index" : 1
      },
      "metallicFactor" : 0.0,
      "roughnessFactor" : 1.0
    },
    "alphaMode" : "OPAQUE",
    "doubleSided" : true
  } ],
  "meshes" : [ {
    "primitives" : [ {
      "attributes" : {
        "POSITION" : 1,
        "TEXCOORD_0" : 2,
        "NORMAL" : 3
      },
      "indices" : 0,
      "material" : 0,
      "mode" : 4
    }, {
      "attributes" : {
        "POSITION" : 5,
        "TEXCOORD_0" : 6,
        "NORMAL" : 7
      },
      "indices" : 4,
      "material" : 1,
      "mode" : 4
    } ]
  } ],
  "nodes" : [ {
    "mesh" : 0
  } ],
  "samplers" : [ { } ],
  "scene" : 0,
  "scenes" : [ {
    "nodes" : [ 0 ]
  } ],
  "textures" : [ {
    "sampler" : 0,
    "source" : 0
  }, {
    "sampler" : 0,
    "source" : 1
  } ]
}