{
  "accessors": [
    {
      "name": "Box032_1_0_positions",
      "componentType": 5126,
      "count": 20,
      "min": [
        -9,
        -22.5,
        0
      ],
      "max": [
        9,
        22.5,
        7.6585001945495605
      ],
      "type": "VEC3",
      "bufferView": 0,
      "byteOffset": 0
    },
    {
      "name": "Box032_1_0_normals",
      "componentType": 5126,
      "count": 20,
      "min": [
        -1,
        -1,
        -1
      ],
      "max": [
        1,
        1,
        0
      ],
      "type": "VEC3",
      "bufferView": 1,
      "byteOffset": 0
    },
    {
      "name": "Box032_1_0_texcoords",
      "componentType": 5126,
      "count": 20,
      "min": [
        -5.057700157165527,
        -3.0634000301361084
      ],
      "max": [
        6.057700157165527,
        6.057700157165527
      ],
      "type": "VEC2",
      "bufferView": 2,
      "byteOffset": 0
    },
    {
      "name": "Box032_1_0_indices",
      "componentType": 5123,
      "count": 30,
      "min": [
        0
      ],
      "max": [
        19
      ],
      "type": "SCALAR",
      "bufferView": 3,
      "byteOffset": 0
    },
    {
      "name": "Box032_1_1_positions",
      "componentType": 5126,
      "count": 4,
      "min": [
        -9,
        -22.5,
        7.6585001945495605
      ],
      "max": [
        9,
        22.5,
        7.6585001945495605
      ],
      "type": "VEC3",
      "bufferView": 0,
      "byteOffset": 240
    },
    {
      "name": "Box032_1_1_normals",
      "componentType": 5126,
      "count": 4,
      "min": [
        0,
        0,
        1
      ],
      "max": [
        0,
        0,
        1
      ],
      "type": "VEC3",
      "bufferView": 1,
      "byteOffset": 240
    },
    {
      "name": "Box032_1_1_texcoords",
      "componentType": 5126,
      "count": 4,
      "min": [
        -0.48579999804496765,
        -0.48579999804496765
      ],
      "max": [
        1.48580002784729,
        1.48580002784729
      ],
      "type": "VEC2",
      "bufferView": 2,
      "byteOffset": 160
    },
    {
      "name": "Box032_1_1_indices",
      "componentType": 5123,
      "count": 6,
      "min": [
        0
      ],
      "max": [
        3
      ],
      "type": "SCALAR",
      "bufferView": 3,
      "byteOffset": 60
    }
  ],
  "asset": {
    "generator": "obj2gltf",
    "version": "2.0"
  },
  "buffers": [
    {
      "name": "SG_jz10",
      "byteLength": 840,
      "uri": "data:application/octet-stream;base64,"
    }
  ],
  "bufferViews": [
    {
      "name": "bufferView_0",
      "buffer": 0,
      "byteLength": 288,
      "byteOffset": 0,
      "byteStride": 12,
      "target": 34962
    },
    {
      "name": "bufferView_1",
      "buffer": 0,
      "byteLength": 288,
      "byteOffset": 288,
      "byteStride": 12,
      "target": 34962
    },
    {
      "name": "bufferView_2",
      "buffer": 0,
      "byteLength": 192,
      "byteOffset": 576,
      "byteStride": 8,
      "target": 34962
    },
    {
      "name": "bufferView_3",
      "buffer": 0,
      "byteLength": 72,
      "byteOffset": 768,
      "target": 34963
    }
  ],
  "images": [
    {
      "name": "sgbq_0019",
      "uri": "sgbq_0019.jpg"
    },
    {
      "name": "011",
      "uri": "011.jpg"
    }
  ],
  "materials": [
    {
      "name": "Material__1562",
      "pbrMetallicRoughness": {
        "baseColorTexture": {
          "index": 0
        },
        "baseColorFactor": [
          1,
          1,
          1,
          1
        ],
        "metallicFactor": 0,
        "roughnessFactor": 0.99
      },
      "emissiveFactor": [
        0,
        0,
        0
      ],
      "alphaMode": "OPAQUE",
      "doubleSided": false
    },
    {
      "name": "Material__1525",
      "pbrMetallicRoughness": {
        "baseColorTexture": {
          "index": 1
        },
        "baseColorFactor": [
          1,
          1,
          1,
          1
        ],
        "metallicFactor": 0,
        "roughnessFactor": 0.99
      },
      "emissiveFactor": [
        0,
        0,
        0
      ],
      "alphaMode": "OPAQUE",
      "doubleSided": false
    }
  ],
  "meshes": [
    {
      "name": "Box032_1",
      "primitives": [
        {
          "attributes": {
            "POSITION": 0,
            "NORMAL": 1,
            "TEXCOORD_0": 2
          },
          "indices": 3,
          "material": 0,
          "mode": 4
        },
        {
          "attributes": {
            "POSITION": 4,
            "NORMAL": 5,
            "TEXCOORD_0": 6
          },
          "indices": 7,
          "material": 1,
          "mode": 4
        }
      ]
    }
  ],
  "nodes": [
    {
      "name": "Box032",
      "mesh": 0
    }
  ],
  "samplers": [
    {
      "wrapS": 10497,
      "wrapT": 10497
    }
  ],
  "scene": 0,
  "scenes": [
    {
      "nodes": [
        0
      ]
    }
  ],
  "textures": [
    {
      "name": "sgbq_0019",
      "sampler": 0,
      "source": 0
    },
    {
      "name": "011",
      "sampler": 0,
      "source": 1
    }
  ]
}
