{
  "accessors": [
    {
      "name": "Box001_1_0_positions",
      "componentType": 5126,
      "count": 757,
      "min": [
        -22.933500289916992,
        -8.429300308227539,
        0.02449999935925007
      ],
      "max": [
        22.933500289916992,
        8.429300308227539,
        10.889699935913086
      ],
      "type": "VEC3",
      "bufferView": 0,
      "byteOffset": 0
    },
    {
      "name": "Box001_1_0_normals",
      "componentType": 5126,
      "count": 757,
      "min": [
        -1,
        -1,
        -1
      ],
      "max": [
        1,
        1,
        1
      ],
      "type": "VEC3",
      "bufferView": 1,
      "byteOffset": 0
    },
    {
      "name": "Box001_1_0_texcoords",
      "componentType": 5126,
      "count": 757,
      "min": [
        -4.617800235748291,
        0.0017999999690800905
      ],
      "max": [
        5.617800235748291,
        1.2372000217437744
      ],
      "type": "VEC2",
      "bufferView": 2,
      "byteOffset": 0
    },
    {
      "name": "Box001_1_0_indices",
      "componentType": 5123,
      "count": 1278,
      "min": [
        0
      ],
      "max": [
        756
      ],
      "type": "SCALAR",
      "bufferView": 3,
      "byteOffset": 0
    },
    {
      "name": "Box001_1_1_positions",
      "componentType": 5126,
      "count": 178,
      "min": [
        -22.933500289916992,
        -8.429300308227539,
        0.02449999935925007
      ],
      "max": [
        22.933500289916992,
        5.570700168609619,
        4.693999767303467
      ],
      "type": "VEC3",
      "bufferView": 0,
      "byteOffset": 9084
    },
    {
      "name": "Box001_1_1_normals",
      "componentType": 5126,
      "count": 178,
      "min": [
        -1,
        -1,
        0
      ],
      "max": [
        1,
        1,
        0
      ],
      "type": "VEC3",
      "bufferView": 1,
      "byteOffset": 9084
    },
    {
      "name": "Box001_1_1_texcoords",
      "componentType": 5126,
      "count": 178,
      "min": [
        -4.596799850463867,
        0.2287999987602234
      ],
      "max": [
        5.069499969482422,
        1.152400016784668
      ],
      "type": "VEC2",
      "bufferView": 2,
      "byteOffset": 6056
    },
    {
      "name": "Box001_1_1_indices",
      "componentType": 5123,
      "count": 282,
      "min": [
        0
      ],
      "max": [
        177
      ],
      "type": "SCALAR",
      "bufferView": 3,
      "byteOffset": 2556
    },
    {
      "name": "Box001_1_2_positions",
      "componentType": 5126,
      "count": 28,
      "min": [
        -22.933500289916992,
        -3.9535999298095703,
        0.02449999935925007
      ],
      "max": [
        -20.066499710083008,
        5.570700168609619,
        4.693999767303467
      ],
      "type": "VEC3",
      "bufferView": 0,
      "byteOffset": 11220
    },
    {
      "name": "Box001_1_2_normals",
      "componentType": 5126,
      "count": 28,
      "min": [
        -1,
        -1,
        0
      ],
      "max": [
        0,
        1,
        0
      ],
      "type": "VEC3",
      "bufferView": 1,
      "byteOffset": 11220
    },
    {
      "name": "Box001_1_2_texcoords",
      "componentType": 5126,
      "count": 28,
      "min": [
        -0.2353000044822693,
        0.010200000368058681
      ],
      "max": [
        1.2352999448776245,
        1.3444000482559204
      ],
      "type": "VEC2",
      "bufferView": 2,
      "byteOffset": 7480
    },
    {
      "name": "Box001_1_2_indices",
      "componentType": 5123,
      "count": 42,
      "min": [
        0
      ],
      "max": [
        27
      ],
      "type": "SCALAR",
      "bufferView": 3,
      "byteOffset": 3120
    },
    {
      "name": "Box001_1_3_positions",
      "componentType": 5126,
      "count": 16,
      "min": [
        -7.882699966430664,
        7.561200141906738,
        0.02449999935925007
      ],
      "max": [
        10.766500473022461,
        7.561200141906738,
        3.639400005340576
      ],
      "type": "VEC3",
      "bufferView": 0,
      "byteOffset": 11556
    },
    {
      "name": "Box001_1_3_normals",
      "componentType": 5126,
      "count": 16,
      "min": [
        0,
        1,
        0
      ],
      "max": [
        0,
        1,
        0
      ],
      "type": "VEC3",
      "bufferView": 1,
      "byteOffset": 11556
    },
    {
      "name": "Box001_1_3_texcoords",
      "componentType": 5126,
      "count": 16,
      "min": [
        0,
        0.009999999776482582
      ],
      "max": [
        1.0199999809265137,
        1
      ],
      "type": "VEC2",
      "bufferView": 2,
      "byteOffset": 7704
    },
    {
      "name": "Box001_1_3_indices",
      "componentType": 5123,
      "count": 24,
      "min": [
        0
      ],
      "max": [
        15
      ],
      "type": "SCALAR",
      "bufferView": 3,
      "byteOffset": 3204
    },
    {
      "name": "Box001_1_4_positions",
      "componentType": 5126,
      "count": 156,
      "min": [
        -19.09160041809082,
        5.433899879455566,
        0
      ],
      "max": [
        -16.431299209594727,
        6.529099941253662,
        3.475800037384033
      ],
      "type": "VEC3",
      "bufferView": 0,
      "byteOffset": 11748
    },
    {
      "name": "Box001_1_4_normals",
      "componentType": 5126,
      "count": 156,
      "min": [
        -1,
        -0.22179831564426422,
        -1
      ],
      "max": [
        1,
        1,
        0.9780665040016174
      ],
      "type": "VEC3",
      "bufferView": 1,
      "byteOffset": 11748
    },
    {
      "name": "Box001_1_4_texcoords",
      "componentType": 5126,
      "count": 156,
      "min": [
        -0.010900000110268593,
        -0.148499995470047
      ],
      "max": [
        1.0109000205993652,
        1.1128000020980835
      ],
      "type": "VEC2",
      "bufferView": 2,
      "byteOffset": 7832
    },
    {
      "name": "Box001_1_4_indices",
      "componentType": 5123,
      "count": 270,
      "min": [
        0
      ],
      "max": [
        155
      ],
      "type": "SCALAR",
      "bufferView": 3,
      "byteOffset": 3252
    }
  ],
  "asset": {
    "generator": "obj2gltf",
    "version": "2.0"
  },
  "buffers": [
    {
      "name": "Q1",
      "byteLength": 40112,
      "uri": "data:application/octet-stream;base64,"
    }
  ],
  "bufferViews": [
    {
      "name": "bufferView_0",
      "buffer": 0,
      "byteLength": 13620,
      "byteOffset": 0,
      "byteStride": 12,
      "target": 34962
    },
    {
      "name": "bufferView_1",
      "buffer": 0,
      "byteLength": 13620,
      "byteOffset": 13620,
      "byteStride": 12,
      "target": 34962
    },
    {
      "name": "bufferView_2",
      "buffer": 0,
      "byteLength": 9080,
      "byteOffset": 27240,
      "byteStride": 8,
      "target": 34962
    },
    {
      "name": "bufferView_3",
      "buffer": 0,
      "byteLength": 3792,
      "byteOffset": 36320,
      "target": 34963
    }
  ],
  "images": [
    {
      "name": "SGY_q1_109",
      "uri": "SGY_q1_109.jpg"
    },
    {
      "name": "SGY_q1_110",
      "uri": "SGY_q1_110.jpg"
    },
    {
      "name": "SGY_q1_113",
      "uri": "SGY_q1_113.jpg"
    },
    {
      "name": "SGY_q1_111",
      "uri": "SGY_q1_111.jpg"
    },
    {
      "name": "SGY_q1_112",
      "uri": "SGY_q1_112.jpg"
    }
  ],
  "materials": [
    {
      "name": "Material__25",
      "pbrMetallicRoughness": {
        "baseColorTexture": {
          "index": 0
        },
        "baseColorFactor": [
          1,
          1,
          1,
          1
        ],
        "metallicFactor": 0,
        "roughnessFactor": 0.99
      },
      "emissiveFactor": [
        0,
        0,
        0
      ],
      "alphaMode": "OPAQUE",
      "doubleSided": false
    },
    {
      "name": "Material__37",
      "pbrMetallicRoughness": {
        "baseColorTexture": {
          "index": 1
        },
        "baseColorFactor": [
          1,
          1,
          1,
          1
        ],
        "metallicFactor": 0,
        "roughnessFactor": 0.99
      },
      "emissiveFactor": [
        0,
        0,
        0
      ],
      "alphaMode": "OPAQUE",
      "doubleSided": false
    },
    {
      "name": "Material__188",
      "pbrMetallicRoughness": {
        "baseColorTexture": {
          "index": 2
        },
        "baseColorFactor": [
          1,
          1,
          1,
          1
        ],
        "metallicFactor": 0,
        "roughnessFactor": 0.99
      },
      "emissiveFactor": [
        0,
        0,
        0
      ],
      "alphaMode": "OPAQUE",
      "doubleSided": false
    },
    {
      "name": "Material__141",
      "pbrMetallicRoughness": {
        "baseColorTexture": {
          "index": 3
        },
        "baseColorFactor": [
          1,
          1,
          1,
          1
        ],
        "metallicFactor": 0,
        "roughnessFactor": 0.99
      },
      "emissiveFactor": [
        0,
        0,
        0
      ],
      "alphaMode": "OPAQUE",
      "doubleSided": false
    },
    {
      "name": "Material__154",
      "pbrMetallicRoughness": {
        "baseColorTexture": {
          "index": 4
        },
        "baseColorFactor": [
          1,
          1,
          1,
          1
        ],
        "metallicFactor": 0,
        "roughnessFactor": 0.99
      },
      "emissiveFactor": [
        0,
        0,
        0
      ],
      "alphaMode": "OPAQUE",
      "doubleSided": false
    }
  ],
  "meshes": [
    {
      "name": "Box001_1",
      "primitives": [
        {
          "attributes": {
            "POSITION": 0,
            "NORMAL": 1,
            "TEXCOORD_0": 2
          },
          "indices": 3,
          "material": 0,
          "mode": 4
        },
        {
          "attributes": {
            "POSITION": 4,
            "NORMAL": 5,
            "TEXCOORD_0": 6
          },
          "indices": 7,
          "material": 1,
          "mode": 4
        },
        {
          "attributes": {
            "POSITION": 8,
            "NORMAL": 9,
            "TEXCOORD_0": 10
          },
          "indices": 11,
          "material": 2,
          "mode": 4
        },
        {
          "attributes": {
            "POSITION": 12,
            "NORMAL": 13,
            "TEXCOORD_0": 14
          },
          "indices": 15,
          "material": 3,
          "mode": 4
        },
        {
          "attributes": {
            "POSITION": 16,
            "NORMAL": 17,
            "TEXCOORD_0": 18
          },
          "indices": 19,
          "material": 4,
          "mode": 4
        }
      ]
    }
  ],
  "nodes": [
    {
      "name": "Box001",
      "mesh": 0
    }
  ],
  "samplers": [
    {
      "wrapS": 10497,
      "wrapT": 10497
    }
  ],
  "scene": 0,
  "scenes": [
    {
      "nodes": [
        0
      ]
    }
  ],
  "textures": [
    {
      "name": "SGY_q1_109",
      "sampler": 0,
      "source": 0
    },
    {
      "name": "SGY_q1_110",
      "sampler": 0,
      "source": 1
    },
    {
      "name": "SGY_q1_113",
      "sampler": 0,
      "source": 2
    },
    {
      "name": "SGY_q1_111",
      "sampler": 0,
      "source": 3
    },
    {
      "name": "SGY_q1_112",
      "sampler": 0,
      "source": 4
    }
  ]
}
