{"asset":{"version":"2.0","generator":"babylon.js glTF exporter for 3dsmax 2022 v20240125.3"},"scene":0,"scenes":[{"nodes":[0]}],"nodes":[{"mesh":0,"translation":[-1.90734863E-06,0.0,1.10499632E-05],"rotation":[4.371139E-08,-4.371139E-08,4.371139E-08,1.0],"name":"对象048"}],"meshes":[{"primitives":[{"attributes":{"POSITION":1,"NORMAL":2,"TEXCOORD_0":3},"indices":0,"material":0},{"attributes":{"POSITION":5,"NORMAL":6,"TEXCOORD_0":7},"indices":4,"material":1},{"attributes":{"POSITION":9,"NORMAL":10,"TEXCOORD_0":11},"indices":8,"material":2},{"attributes":{"POSITION":13,"NORMAL":14,"TEXCOORD_0":15},"indices":12,"material":3},{"attributes":{"POSITION":17,"NORMAL":18,"TEXCOORD_0":19},"indices":16,"material":4},{"attributes":{"POSITION":21,"NORMAL":22,"TEXCOORD_0":23},"indices":20,"material":5},{"attributes":{"POSITION":25,"NORMAL":26,"TEXCOORD_0":27},"indices":24,"material":6}],"name":"对象048"}],"accessors":[{"bufferView":0,"componentType":5123,"count":936,"type":"SCALAR","name":"accessorIndices"},{"bufferView":1,"componentType":5126,"count":624,"max":[12.9834957,19.12355,13.324276],"min":[-8.933722,-45.2181969,9.772102],"type":"VEC3","name":"accessorPositions"},{"bufferView":1,"byteOffset":7488,"componentType":5126,"count":624,"type":"VEC3","name":"accessorNormals"},{"bufferView":2,"componentType":5126,"count":624,"type":"VEC2","name":"accessorUVs"},{"bufferView":0,"byteOffset":1872,"componentType":5123,"count":168,"type":"SCALAR","name":"accessorIndices"},{"bufferView":1,"byteOffset":14976,"componentType":5126,"count":96,"max":[7.39782047,4.685133,18.0332413],"min":[-13.651392,-45.5597763,-2.32247148E-05],"type":"VEC3","name":"accessorPositions"},{"bufferView":1,"byteOffset":16128,"componentType":5126,"count":96,"type":"VEC3","name":"accessorNormals"},{"bufferView":2,"byteOffset":4992,"componentType":5126,"count":96,"type":"VEC2","name":"accessorUVs"},{"bufferView":0,"byteOffset":2208,"componentType":5123,"count":99,"type":"SCALAR","name":"accessorIndices"},{"bufferView":1,"byteOffset":17280,"componentType":5126,"count":65,"max":[7.3978157,45.5597839,10.8676319],"min":[-13.1171942,-45.5597763,-2.32247148E-05],"type":"VEC3","name":"accessorPositions"},{"bufferView":1,"byteOffset":18060,"componentType":5126,"count":65,"type":"VEC3","name":"accessorNormals"},{"bufferView":2,"byteOffset":5760,"componentType":5126,"count":65,"type":"VEC2","name":"accessorUVs"},{"bufferView":0,"byteOffset":2408,"componentType":5123,"count":57,"type":"SCALAR","name":"accessorIndices"},{"bufferView":1,"byteOffset":18840,"componentType":5126,"count":33,"max":[6.78034449,21.8678131,10.8676033],"min":[6.780332,-45.5597725,-1.94100139E-05],"type":"VEC3","name":"accessorPositions"},{"bufferView":1,"byteOffset":19236,"componentType":5126,"count":33,"type":"VEC3","name":"accessorNormals"},{"bufferView":2,"byteOffset":6280,"componentType":5126,"count":33,"type":"VEC2","name":"accessorUVs"},{"bufferView":0,"byteOffset":2524,"componentType":5123,"count":87,"type":"SCALAR","name":"accessorIndices"},{"bufferView":1,"byteOffset":19632,"componentType":5126,"count":50,"max":[13.6513834,45.5597839,18.0332413],"min":[-13.651392,-45.5597763,4.53575649E-06],"type":"VEC3","name":"accessorPositions"},{"bufferView":1,"byteOffset":20232,"componentType":5126,"count":50,"type":"VEC3","name":"accessorNormals"},{"bufferView":2,"byteOffset":6544,"componentType":5126,"count":50,"type":"VEC2","name":"accessorUVs"},{"bufferView":0,"byteOffset":2700,"componentType":5123,"count":33,"type":"SCALAR","name":"accessorIndices"},{"bufferView":1,"byteOffset":20832,"componentType":5126,"count":31,"max":[13.6513815,20.48713,10.1100674],"min":[6.780331,-35.61513,8.717458],"type":"VEC3","name":"accessorPositions"},{"bufferView":1,"byteOffset":21204,"componentType":5126,"count":31,"type":"VEC3","name":"accessorNormals"},{"bufferView":2,"byteOffset":6944,"componentType":5126,"count":31,"type":"VEC2","name":"accessorUVs"},{"bufferView":0,"byteOffset":2768,"componentType":5123,"count":48,"type":"SCALAR","name":"accessorIndices"},{"bufferView":1,"byteOffset":21576,"componentType":5126,"count":37,"max":[13.1003408,19.3174057,14.0432892],"min":[-9.126479,-45.3044624,9.950515],"type":"VEC3","name":"accessorPositions"},{"bufferView":1,"byteOffset":22020,"componentType":5126,"count":37,"type":"VEC3","name":"accessorNormals"},{"bufferView":2,"byteOffset":7192,"componentType":5126,"count":37,"type":"VEC2","name":"accessorUVs"}],"bufferViews":[{"buffer":0,"byteLength":2864,"name":"bufferViewScalar"},{"buffer":0,"byteOffset":2864,"byteLength":22464,"byteStride":12,"name":"bufferViewFloatVec3"},{"buffer":0,"byteOffset":25328,"byteLength":7488,"byteStride":8,"name":"bufferViewFloatVec2"}],"buffers":[{"uri":"sg_hcj.bin","byteLength":32816}],"materials":[{"pbrMetallicRoughness":{"baseColorTexture":{"index":0},"metallicFactor":0.0,"roughnessFactor":0.450053632},"name":"Material #405428038"},{"pbrMetallicRoughness":{"baseColorTexture":{"index":1},"metallicFactor":0.0,"roughnessFactor":0.450053632},"name":"Material #405428039"},{"pbrMetallicRoughness":{"baseColorTexture":{"index":2},"metallicFactor":0.0,"roughnessFactor":0.450053632},"name":"Material #405428040"},{"pbrMetallicRoughness":{"baseColorTexture":{"index":3},"metallicFactor":0.0,"roughnessFactor":0.450053632},"name":"Material #405428041"},{"pbrMetallicRoughness":{"baseColorTexture":{"index":4},"metallicFactor":0.0,"roughnessFactor":0.450053632},"name":"Material #405428199"},{"pbrMetallicRoughness":{"baseColorTexture":{"index":5},"metallicFactor":0.0,"roughnessFactor":0.450053632},"name":"Material #405428037"},{"pbrMetallicRoughness":{"baseColorTexture":{"index":6},"metallicFactor":0.0,"roughnessFactor":0.450053632},"name":"Material #405428043"}],"textures":[{"sampler":0,"source":0,"name":"sgy_3q_15.jpg"},{"sampler":0,"source":1,"name":"sgy_x_25.jpg"},{"sampler":0,"source":2,"name":"sgy_x_42.jpg"},{"sampler":0,"source":3,"name":"sgy_x_43.jpg"},{"sampler":0,"source":4,"name":"SGY_q1_081.jpg"},{"sampler":0,"source":5,"name":"sgy_3q_14.jpg"},{"sampler":0,"source":6,"name":"sgy_x_45.png"}],"images":[{"uri":"sgy_3q_15.jpg"},{"uri":"sgy_x_25.jpg"},{"uri":"sgy_x_42.jpg"},{"uri":"sgy_x_43.jpg"},{"uri":"SGY_q1_081.jpg"},{"uri":"sgy_3q_14.jpg"},{"uri":"sgy_x_45.png"}],"samplers":[{"magFilter":9729,"minFilter":9987}]}