{
  "accessors": [
    {
      "name": "Box052_1_0_positions",
      "componentType": 5126,
      "count": 343,
      "min": [
        -20.32659912109375,
        -27.604299545288086,
        0
      ],
      "max": [
        19.78529930114746,
        -2.9484000205993652,
        24.219100952148438
      ],
      "type": "VEC3",
      "bufferView": 0,
      "byteOffset": 0
    },
    {
      "name": "Box052_1_0_normals",
      "componentType": 5126,
      "count": 343,
      "min": [
        -1,
        -1,
        -1
      ],
      "max": [
        1,
        1,
        1
      ],
      "type": "VEC3",
      "bufferView": 1,
      "byteOffset": 0
    },
    {
      "name": "Box052_1_0_texcoords",
      "componentType": 5126,
      "count": 343,
      "min": [
        -0.7480999827384949,
        -0.8748000264167786
      ],
      "max": [
        1.7481000423431396,
        1.5119999647140503
      ],
      "type": "VEC2",
      "bufferView": 2,
      "byteOffset": 0
    },
    {
      "name": "Box052_1_0_indices",
      "componentType": 5123,
      "count": 705,
      "min": [
        0
      ],
      "max": [
        342
      ],
      "type": "SCALAR",
      "bufferView": 3,
      "byteOffset": 0
    },
    {
      "name": "Box052_1_1_positions",
      "componentType": 5126,
      "count": 8,
      "min": [
        -19.883899688720703,
        -17.442100524902344,
        12.182299613952637
      ],
      "max": [
        -19.883899688720703,
        -3.5769999027252197,
        17.905099868774414
      ],
      "type": "VEC3",
      "bufferView": 0,
      "byteOffset": 4116
    },
    {
      "name": "Box052_1_1_normals",
      "componentType": 5126,
      "count": 8,
      "min": [
        -1,
        0,
        0
      ],
      "max": [
        -1,
        0,
        0
      ],
      "type": "VEC3",
      "bufferView": 1,
      "byteOffset": 4116
    },
    {
      "name": "Box052_1_1_texcoords",
      "componentType": 5126,
      "count": 8,
      "min": [
        -0.7494999766349792,
        -3.0336999893188477
      ],
      "max": [
        1.0103000402450562,
        0.02239999920129776
      ],
      "type": "VEC2",
      "bufferView": 2,
      "byteOffset": 2744
    },
    {
      "name": "Box052_1_1_indices",
      "componentType": 5123,
      "count": 12,
      "min": [
        0
      ],
      "max": [
        7
      ],
      "type": "SCALAR",
      "bufferView": 3,
      "byteOffset": 1412
    },
    {
      "name": "Box052_1_2_positions",
      "componentType": 5126,
      "count": 61,
      "min": [
        -19.883899688720703,
        -17.808399200439453,
        11.73330020904541
      ],
      "max": [
        19.78529930114746,
        25.16309928894043,
        23.600299835205078
      ],
      "type": "VEC3",
      "bufferView": 0,
      "byteOffset": 4212
    },
    {
      "name": "Box052_1_2_normals",
      "componentType": 5126,
      "count": 61,
      "min": [
        -1,
        -1,
        0
      ],
      "max": [
        1,
        1,
        0
      ],
      "type": "VEC3",
      "bufferView": 1,
      "byteOffset": 4212
    },
    {
      "name": "Box052_1_2_texcoords",
      "componentType": 5126,
      "count": 61,
      "min": [
        -4.418300151824951,
        -1.434000015258789
      ],
      "max": [
        5.8007001876831055,
        2.797600030899048
      ],
      "type": "VEC2",
      "bufferView": 2,
      "byteOffset": 2808
    },
    {
      "name": "Box052_1_2_indices",
      "componentType": 5123,
      "count": 105,
      "min": [
        0
      ],
      "max": [
        60
      ],
      "type": "SCALAR",
      "bufferView": 3,
      "byteOffset": 1436
    },
    {
      "name": "Box052_1_3_positions",
      "componentType": 5126,
      "count": 216,
      "min": [
        -24.776100158691406,
        -20.206499099731445,
        3.8264000415802
      ],
      "max": [
        24.776100158691406,
        27.604299545288086,
        23.844200134277344
      ],
      "type": "VEC3",
      "bufferView": 0,
      "byteOffset": 4944
    },
    {
      "name": "Box052_1_3_normals",
      "componentType": 5126,
      "count": 216,
      "min": [
        -1,
        -1,
        -1
      ],
      "max": [
        1,
        1,
        1
      ],
      "type": "VEC3",
      "bufferView": 1,
      "byteOffset": 4944
    },
    {
      "name": "Box052_1_3_texcoords",
      "componentType": 5126,
      "count": 216,
      "min": [
        -2.238600015640259,
        -2.238600015640259
      ],
      "max": [
        3.238600015640259,
        3.238600015640259
      ],
      "type": "VEC2",
      "bufferView": 2,
      "byteOffset": 3296
    },
    {
      "name": "Box052_1_3_indices",
      "componentType": 5123,
      "count": 324,
      "min": [
        0
      ],
      "max": [
        215
      ],
      "type": "SCALAR",
      "bufferView": 3,
      "byteOffset": 1648
    },
    {
      "name": "Box052_1_4_positions",
      "componentType": 5126,
      "count": 55,
      "min": [
        -19.883899688720703,
        4.874499797821045,
        0
      ],
      "max": [
        19.78529930114746,
        25.16309928894043,
        14.711000442504883
      ],
      "type": "VEC3",
      "bufferView": 0,
      "byteOffset": 7536
    },
    {
      "name": "Box052_1_4_normals",
      "componentType": 5126,
      "count": 55,
      "min": [
        -1,
        -1,
        0
      ],
      "max": [
        1,
        1,
        0.9848499298095703
      ],
      "type": "VEC3",
      "bufferView": 1,
      "byteOffset": 7536
    },
    {
      "name": "Box052_1_4_texcoords",
      "componentType": 5126,
      "count": 55,
      "min": [
        -0.3379000127315521,
        0
      ],
      "max": [
        1.0225000381469727,
        1
      ],
      "type": "VEC2",
      "bufferView": 2,
      "byteOffset": 5024
    },
    {
      "name": "Box052_1_4_indices",
      "componentType": 5123,
      "count": 93,
      "min": [
        0
      ],
      "max": [
        54
      ],
      "type": "SCALAR",
      "bufferView": 3,
      "byteOffset": 2296
    },
    {
      "name": "Box052_1_5_positions",
      "componentType": 5126,
      "count": 13,
      "min": [
        -19.883899688720703,
        25.16309928894043,
        0
      ],
      "max": [
        19.78529930114746,
        25.16309928894043,
        11.73330020904541
      ],
      "type": "VEC3",
      "bufferView": 0,
      "byteOffset": 8196
    },
    {
      "name": "Box052_1_5_normals",
      "componentType": 5126,
      "count": 13,
      "min": [
        0,
        1,
        0
      ],
      "max": [
        0,
        1,
        0
      ],
      "type": "VEC3",
      "bufferView": 1,
      "byteOffset": 8196
    },
    {
      "name": "Box052_1_5_texcoords",
      "componentType": 5126,
      "count": 13,
      "min": [
        -4.21120023727417,
        -0.8014000058174133
      ],
      "max": [
        4.690100193023682,
        2.452199935913086
      ],
      "type": "VEC2",
      "bufferView": 2,
      "byteOffset": 5464
    },
    {
      "name": "Box052_1_5_indices",
      "componentType": 5123,
      "count": 21,
      "min": [
        0
      ],
      "max": [
        12
      ],
      "type": "SCALAR",
      "bufferView": 3,
      "byteOffset": 2484
    },
    {
      "name": "Box052_1_6_positions",
      "componentType": 5126,
      "count": 8,
      "min": [
        -19.883899688720703,
        -0.25130000710487366,
        0
      ],
      "max": [
        19.78529930114746,
        4.874499797821045,
        9.439299583435059
      ],
      "type": "VEC3",
      "bufferView": 0,
      "byteOffset": 8352
    },
    {
      "name": "Box052_1_6_normals",
      "componentType": 5126,
      "count": 8,
      "min": [
        0,
        -1,
        0
      ],
      "max": [
        0,
        0,
        1
      ],
      "type": "VEC3",
      "bufferView": 1,
      "byteOffset": 8352
    },
    {
      "name": "Box052_1_6_texcoords",
      "componentType": 5126,
      "count": 8,
      "min": [
        0,
        -0.17579999566078186
      ],
      "max": [
        1,
        1.5006999969482422
      ],
      "type": "VEC2",
      "bufferView": 2,
      "byteOffset": 5568
    },
    {
      "name": "Box052_1_6_indices",
      "componentType": 5123,
      "count": 12,
      "min": [
        0
      ],
      "max": [
        7
      ],
      "type": "SCALAR",
      "bufferView": 3,
      "byteOffset": 2528
    },
    {
      "name": "Box052_1_7_positions",
      "componentType": 5126,
      "count": 12,
      "min": [
        -19.883899688720703,
        -0.25130000710487366,
        0
      ],
      "max": [
        19.78529930114746,
        25.16309928894043,
        11.73330020904541
      ],
      "type": "VEC3",
      "bufferView": 0,
      "byteOffset": 8448
    },
    {
      "name": "Box052_1_7_normals",
      "componentType": 5126,
      "count": 12,
      "min": [
        -1,
        0,
        0
      ],
      "max": [
        1,
        1,
        0
      ],
      "type": "VEC3",
      "bufferView": 1,
      "byteOffset": 8448
    },
    {
      "name": "Box052_1_7_texcoords",
      "componentType": 5126,
      "count": 12,
      "min": [
        -2.2325000762939453,
        -0.8014000058174133
      ],
      "max": [
        3.722599983215332,
        2.452199935913086
      ],
      "type": "VEC2",
      "bufferView": 2,
      "byteOffset": 5632
    },
    {
      "name": "Box052_1_7_indices",
      "componentType": 5123,
      "count": 18,
      "min": [
        0
      ],
      "max": [
        11
      ],
      "type": "SCALAR",
      "bufferView": 3,
      "byteOffset": 2552
    }
  ],
  "asset": {
    "generator": "obj2gltf",
    "version": "2.0"
  },
  "buffers": [
    {
      "name": "2_jz06",
      "byteLength": 25500,
      "uri": "data:application/octet-stream;base64,"
    }
  ],
  "bufferViews": [
    {
      "name": "bufferView_0",
      "buffer": 0,
      "byteLength": 8592,
      "byteOffset": 0,
      "byteStride": 12,
      "target": 34962
    },
    {
      "name": "bufferView_1",
      "buffer": 0,
      "byteLength": 8592,
      "byteOffset": 8592,
      "byteStride": 12,
      "target": 34962
    },
    {
      "name": "bufferView_2",
      "buffer": 0,
      "byteLength": 5728,
      "byteOffset": 17184,
      "byteStride": 8,
      "target": 34962
    },
    {
      "name": "bufferView_3",
      "buffer": 0,
      "byteLength": 2588,
      "byteOffset": 22912,
      "target": 34963
    }
  ],
  "images": [
    {
      "name": "sgy_2q_05",
      "uri": "sgy_2q_05.jpg"
    },
    {
      "name": "sgy_2q_02",
      "uri": "sgy_2q_02.jpg"
    },
    {
      "name": "sgy_1q_19",
      "uri": "sgy_1q_19.jpg"
    },
    {
      "name": "sgy_1q_08",
      "uri": "sgy_1q_08.jpg"
    },
    {
      "name": "sgy_2q_13",
      "uri": "sgy_2q_13.jpg"
    },
    {
      "name": "sgy_2q_14",
      "uri": "sgy_2q_14.jpg"
    },
    {
      "name": "sgy_2q_12",
      "uri": "sgy_2q_12.jpg"
    },
    {
      "name": "sgy_2q_15",
      "uri": "sgy_2q_15.jpg"
    }
  ],
  "materials": [
    {
      "name": "Material__271",
      "pbrMetallicRoughness": {
        "baseColorTexture": {
          "index": 0
        },
        "baseColorFactor": [
          1,
          1,
          1,
          1
        ],
        "metallicFactor": 0,
        "roughnessFactor": 0.99
      },
      "emissiveFactor": [
        0,
        0,
        0
      ],
      "alphaMode": "OPAQUE",
      "doubleSided": false
    },
    {
      "name": "Material__242",
      "pbrMetallicRoughness": {
        "baseColorTexture": {
          "index": 1
        },
        "baseColorFactor": [
          1,
          1,
          1,
          1
        ],
        "metallicFactor": 0,
        "roughnessFactor": 0.99
      },
      "emissiveFactor": [
        0,
        0,
        0
      ],
      "alphaMode": "OPAQUE",
      "doubleSided": false
    },
    {
      "name": "Material__394",
      "pbrMetallicRoughness": {
        "baseColorTexture": {
          "index": 2
        },
        "baseColorFactor": [
          1,
          1,
          1,
          1
        ],
        "metallicFactor": 0,
        "roughnessFactor": 0.99
      },
      "emissiveFactor": [
        0,
        0,
        0
      ],
      "alphaMode": "OPAQUE",
      "doubleSided": false
    },
    {
      "name": "Material__2549",
      "pbrMetallicRoughness": {
        "baseColorTexture": {
          "index": 3
        },
        "baseColorFactor": [
          1,
          1,
          1,
          1
        ],
        "metallicFactor": 0,
        "roughnessFactor": 0.99
      },
      "emissiveFactor": [
        0,
        0,
        0
      ],
      "alphaMode": "OPAQUE",
      "doubleSided": false
    },
    {
      "name": "Material__256",
      "pbrMetallicRoughness": {
        "baseColorTexture": {
          "index": 4
        },
        "baseColorFactor": [
          1,
          1,
          1,
          1
        ],
        "metallicFactor": 0,
        "roughnessFactor": 0.99
      },
      "emissiveFactor": [
        0,
        0,
        0
      ],
      "alphaMode": "OPAQUE",
      "doubleSided": false
    },
    {
      "name": "Material__257",
      "pbrMetallicRoughness": {
        "baseColorTexture": {
          "index": 5
        },
        "baseColorFactor": [
          1,
          1,
          1,
          1
        ],
        "metallicFactor": 0,
        "roughnessFactor": 0.99
      },
      "emissiveFactor": [
        0,
        0,
        0
      ],
      "alphaMode": "OPAQUE",
      "doubleSided": false
    },
    {
      "name": "Material__255",
      "pbrMetallicRoughness": {
        "baseColorTexture": {
          "index": 6
        },
        "baseColorFactor": [
          1,
          1,
          1,
          1
        ],
        "metallicFactor": 0,
        "roughnessFactor": 0.99
      },
      "emissiveFactor": [
        0,
        0,
        0
      ],
      "alphaMode": "OPAQUE",
      "doubleSided": false
    },
    {
      "name": "Material__258",
      "pbrMetallicRoughness": {
        "baseColorTexture": {
          "index": 7
        },
        "baseColorFactor": [
          1,
          1,
          1,
          1
        ],
        "metallicFactor": 0,
        "roughnessFactor": 0.99
      },
      "emissiveFactor": [
        0,
        0,
        0
      ],
      "alphaMode": "OPAQUE",
      "doubleSided": false
    }
  ],
  "meshes": [
    {
      "name": "Box052_1",
      "primitives": [
        {
          "attributes": {
            "POSITION": 0,
            "NORMAL": 1,
            "TEXCOORD_0": 2
          },
          "indices": 3,
          "material": 0,
          "mode": 4
        },
        {
          "attributes": {
            "POSITION": 4,
            "NORMAL": 5,
            "TEXCOORD_0": 6
          },
          "indices": 7,
          "material": 1,
          "mode": 4
        },
        {
          "attributes": {
            "POSITION": 8,
            "NORMAL": 9,
            "TEXCOORD_0": 10
          },
          "indices": 11,
          "material": 2,
          "mode": 4
        },
        {
          "attributes": {
            "POSITION": 12,
            "NORMAL": 13,
            "TEXCOORD_0": 14
          },
          "indices": 15,
          "material": 3,
          "mode": 4
        },
        {
          "attributes": {
            "POSITION": 16,
            "NORMAL": 17,
            "TEXCOORD_0": 18
          },
          "indices": 19,
          "material": 4,
          "mode": 4
        },
        {
          "attributes": {
            "POSITION": 20,
            "NORMAL": 21,
            "TEXCOORD_0": 22
          },
          "indices": 23,
          "material": 5,
          "mode": 4
        },
        {
          "attributes": {
            "POSITION": 24,
            "NORMAL": 25,
            "TEXCOORD_0": 26
          },
          "indices": 27,
          "material": 6,
          "mode": 4
        },
        {
          "attributes": {
            "POSITION": 28,
            "NORMAL": 29,
            "TEXCOORD_0": 30
          },
          "indices": 31,
          "material": 7,
          "mode": 4
        }
      ]
    }
  ],
  "nodes": [
    {
      "name": "Box052",
      "mesh": 0
    }
  ],
  "samplers": [
    {
      "wrapS": 10497,
      "wrapT": 10497
    }
  ],
  "scene": 0,
  "scenes": [
    {
      "nodes": [
        0
      ]
    }
  ],
  "textures": [
    {
      "name": "sgy_2q_05",
      "sampler": 0,
      "source": 0
    },
    {
      "name": "sgy_2q_02",
      "sampler": 0,
      "source": 1
    },
    {
      "name": "sgy_1q_19",
      "sampler": 0,
      "source": 2
    },
    {
      "name": "sgy_1q_08",
      "sampler": 0,
      "source": 3
    },
    {
      "name": "sgy_2q_13",
      "sampler": 0,
      "source": 4
    },
    {
      "name": "sgy_2q_14",
      "sampler": 0,
      "source": 5
    },
    {
      "name": "sgy_2q_12",
      "sampler": 0,
      "source": 6
    },
    {
      "name": "sgy_2q_15",
      "sampler": 0,
      "source": 7
    }
  ]
}
