{
  "accessors": [
    {
      "name": "Object002_1_0_positions",
      "componentType": 5126,
      "count": 740,
      "min": [
        -48.5724983215332,
        -6.214099884033203,
        9.008600234985352
      ],
      "max": [
        48.5724983215332,
        6.214099884033203,
        23.152099609375
      ],
      "type": "VEC3",
      "bufferView": 0,
      "byteOffset": 0
    },
    {
      "name": "Object002_1_0_normals",
      "componentType": 5126,
      "count": 740,
      "min": [
        -0.9363627433776855,
        -0.8248559236526489,
        -0.9962102174758911
      ],
      "max": [
        0.9419695138931274,
        0.824299156665802,
        0.9849662780761719
      ],
      "type": "VEC3",
      "bufferView": 1,
      "byteOffset": 0
    },
    {
      "name": "Object002_1_0_texcoords",
      "componentType": 5126,
      "count": 740,
      "min": [
        -0.6409000158309937,
        0.10119999945163727
      ],
      "max": [
        5.373899936676025,
        0.8273000121116638
      ],
      "type": "VEC2",
      "bufferView": 2,
      "byteOffset": 0
    },
    {
      "name": "Object002_1_0_indices",
      "componentType": 5123,
      "count": 960,
      "min": [
        0
      ],
      "max": [
        739
      ],
      "type": "SCALAR",
      "bufferView": 3,
      "byteOffset": 0
    },
    {
      "name": "Object002_1_1_positions",
      "componentType": 5126,
      "count": 100,
      "min": [
        -46.30339813232422,
        -3.5055999755859375,
        8.006400108337402
      ],
      "max": [
        46.07310104370117,
        3.7634999752044678,
        18.036500930786133
      ],
      "type": "VEC3",
      "bufferView": 0,
      "byteOffset": 8880
    },
    {
      "name": "Object002_1_1_normals",
      "componentType": 5126,
      "count": 100,
      "min": [
        -0.9984138607978821,
        -0.9878681302070618,
        -1
      ],
      "max": [
        0.9984138607978821,
        0.9878681302070618,
        0
      ],
      "type": "VEC3",
      "bufferView": 1,
      "byteOffset": 8880
    },
    {
      "name": "Object002_1_1_texcoords",
      "componentType": 5126,
      "count": 100,
      "min": [
        -0.48080000281333923,
        0.8273000121116638
      ],
      "max": [
        0.9387999773025513,
        0.8273000121116638
      ],
      "type": "VEC2",
      "bufferView": 2,
      "byteOffset": 5920
    },
    {
      "name": "Object002_1_1_indices",
      "componentType": 5123,
      "count": 150,
      "min": [
        0
      ],
      "max": [
        99
      ],
      "type": "SCALAR",
      "bufferView": 3,
      "byteOffset": 1920
    },
    {
      "name": "Object002_1_2_positions",
      "componentType": 5126,
      "count": 176,
      "min": [
        -46.33209991455078,
        -3.4000000953674316,
        0
      ],
      "max": [
        45.92509841918945,
        3.621799945831299,
        15.966300010681152
      ],
      "type": "VEC3",
      "bufferView": 0,
      "byteOffset": 10080
    },
    {
      "name": "Object002_1_2_normals",
      "componentType": 5126,
      "count": 176,
      "min": [
        -1,
        -1,
        -1
      ],
      "max": [
        1,
        1,
        1
      ],
      "type": "VEC3",
      "bufferView": 1,
      "byteOffset": 10080
    },
    {
      "name": "Object002_1_2_texcoords",
      "componentType": 5126,
      "count": 176,
      "min": [
        0,
        0
      ],
      "max": [
        1,
        1
      ],
      "type": "VEC2",
      "bufferView": 2,
      "byteOffset": 6720
    },
    {
      "name": "Object002_1_2_indices",
      "componentType": 5123,
      "count": 276,
      "min": [
        0
      ],
      "max": [
        175
      ],
      "type": "SCALAR",
      "bufferView": 3,
      "byteOffset": 2220
    },
    {
      "name": "Object002_1_3_positions",
      "componentType": 5126,
      "count": 8,
      "min": [
        -14.77400016784668,
        -3.4000000953674316,
        0
      ],
      "max": [
        14.786100387573242,
        -3.4000000953674316,
        15.966300010681152
      ],
      "type": "VEC3",
      "bufferView": 0,
      "byteOffset": 12192
    },
    {
      "name": "Object002_1_3_normals",
      "componentType": 5126,
      "count": 8,
      "min": [
        0,
        -1,
        0
      ],
      "max": [
        0,
        -1,
        0
      ],
      "type": "VEC3",
      "bufferView": 1,
      "byteOffset": 12192
    },
    {
      "name": "Object002_1_3_texcoords",
      "componentType": 5126,
      "count": 8,
      "min": [
        0,
        0
      ],
      "max": [
        0.4918000102043152,
        1
      ],
      "type": "VEC2",
      "bufferView": 2,
      "byteOffset": 8128
    },
    {
      "name": "Object002_1_3_indices",
      "componentType": 5123,
      "count": 12,
      "min": [
        0
      ],
      "max": [
        7
      ],
      "type": "SCALAR",
      "bufferView": 3,
      "byteOffset": 2772
    }
  ],
  "asset": {
    "generator": "obj2gltf",
    "version": "2.0"
  },
  "buffers": [
    {
      "name": "dm",
      "byteLength": 35564,
      "uri": "data:application/octet-stream;base64,"
    }
  ],
  "bufferViews": [
    {
      "name": "bufferView_0",
      "buffer": 0,
      "byteLength": 12288,
      "byteOffset": 0,
      "byteStride": 12,
      "target": 34962
    },
    {
      "name": "bufferView_1",
      "buffer": 0,
      "byteLength": 12288,
      "byteOffset": 12288,
      "byteStride": 12,
      "target": 34962
    },
    {
      "name": "bufferView_2",
      "buffer": 0,
      "byteLength": 8192,
      "byteOffset": 24576,
      "byteStride": 8,
      "target": 34962
    },
    {
      "name": "bufferView_3",
      "buffer": 0,
      "byteLength": 2796,
      "byteOffset": 32768,
      "target": 34963
    }
  ],
  "images": [
    {
      "name": "SG_dm_w",
      "uri": "SG_dm_w.jpg"
    },
    {
      "name": "SG_dm_16",
      "uri": "SG_dm_16.jpg"
    },
    {
      "name": "SG_dm_020",
      "uri": "SG_dm_020.jpg"
    },
    {
      "name": "SG_dm_019",
      "uri": "SG_dm_019.jpg"
    }
  ],
  "materials": [
    {
      "name": "Material__227",
      "pbrMetallicRoughness": {
        "baseColorTexture": {
          "index": 0
        },
        "baseColorFactor": [
          1,
          1,
          1,
          1
        ],
        "metallicFactor": 0,
        "roughnessFactor": 0.99
      },
      "emissiveFactor": [
        0,
        0,
        0
      ],
      "alphaMode": "OPAQUE",
      "doubleSided": false
    },
    {
      "name": "Material__231",
      "pbrMetallicRoughness": {
        "baseColorTexture": {
          "index": 1
        },
        "baseColorFactor": [
          1,
          1,
          1,
          1
        ],
        "metallicFactor": 0,
        "roughnessFactor": 0.99
      },
      "emissiveFactor": [
        0,
        0,
        0
      ],
      "alphaMode": "OPAQUE",
      "doubleSided": false
    },
    {
      "name": "Material__228",
      "pbrMetallicRoughness": {
        "baseColorTexture": {
          "index": 2
        },
        "baseColorFactor": [
          1,
          1,
          1,
          1
        ],
        "metallicFactor": 0,
        "roughnessFactor": 0.99
      },
      "emissiveFactor": [
        0,
        0,
        0
      ],
      "alphaMode": "OPAQUE",
      "doubleSided": false
    },
    {
      "name": "Material__229",
      "pbrMetallicRoughness": {
        "baseColorTexture": {
          "index": 3
        },
        "baseColorFactor": [
          1,
          1,
          1,
          1
        ],
        "metallicFactor": 0,
        "roughnessFactor": 0.99
      },
      "emissiveFactor": [
        0,
        0,
        0
      ],
      "alphaMode": "OPAQUE",
      "doubleSided": false
    }
  ],
  "meshes": [
    {
      "name": "Object002_1",
      "primitives": [
        {
          "attributes": {
            "POSITION": 0,
            "NORMAL": 1,
            "TEXCOORD_0": 2
          },
          "indices": 3,
          "material": 0,
          "mode": 4
        },
        {
          "attributes": {
            "POSITION": 4,
            "NORMAL": 5,
            "TEXCOORD_0": 6
          },
          "indices": 7,
          "material": 1,
          "mode": 4
        },
        {
          "attributes": {
            "POSITION": 8,
            "NORMAL": 9,
            "TEXCOORD_0": 10
          },
          "indices": 11,
          "material": 2,
          "mode": 4
        },
        {
          "attributes": {
            "POSITION": 12,
            "NORMAL": 13,
            "TEXCOORD_0": 14
          },
          "indices": 15,
          "material": 3,
          "mode": 4
        }
      ]
    }
  ],
  "nodes": [
    {
      "name": "Object002",
      "mesh": 0
    }
  ],
  "samplers": [
    {
      "wrapS": 10497,
      "wrapT": 10497
    }
  ],
  "scene": 0,
  "scenes": [
    {
      "nodes": [
        0
      ]
    }
  ],
  "textures": [
    {
      "name": "SG_dm_w",
      "sampler": 0,
      "source": 0
    },
    {
      "name": "SG_dm_16",
      "sampler": 0,
      "source": 1
    },
    {
      "name": "SG_dm_020",
      "sampler": 0,
      "source": 2
    },
    {
      "name": "SG_dm_019",
      "sampler": 0,
      "source": 3
    }
  ]
}
