{
  "accessors": [
    {
      "name": "Box001_1_0_positions",
      "componentType": 5126,
      "count": 96,
      "min": [
        -26.970300674438477,
        -16.542600631713867,
        20.213699340820312
      ],
      "max": [
        47.82490158081055,
        29.950899124145508,
        41.56060028076172
      ],
      "type": "VEC3",
      "bufferView": 0,
      "byteOffset": 0
    },
    {
      "name": "Box001_1_0_normals",
      "componentType": 5126,
      "count": 96,
      "min": [
        -1,
        -1,
        0
      ],
      "max": [
        1,
        1,
        1
      ],
      "type": "VEC3",
      "bufferView": 1,
      "byteOffset": 0
    },
    {
      "name": "Box001_1_0_texcoords",
      "componentType": 5126,
      "count": 96,
      "min": [
        -0.7304999828338623,
        -0.9383000135421753
      ],
      "max": [
        1.7304999828338623,
        1.9383000135421753
      ],
      "type": "VEC2",
      "bufferView": 2,
      "byteOffset": 0
    },
    {
      "name": "Box001_1_0_indices",
      "componentType": 5123,
      "count": 162,
      "min": [
        0
      ],
      "max": [
        95
      ],
      "type": "SCALAR",
      "bufferView": 3,
      "byteOffset": 0
    },
    {
      "name": "Box001_1_1_positions",
      "componentType": 5126,
      "count": 12,
      "min": [
        -26.970300674438477,
        -10.755800247192383,
        0
      ],
      "max": [
        -2.017400026321411,
        29.950899124145508,
        41.56060028076172
      ],
      "type": "VEC3",
      "bufferView": 0,
      "byteOffset": 1152
    },
    {
      "name": "Box001_1_1_normals",
      "componentType": 5126,
      "count": 12,
      "min": [
        0,
        -1,
        0
      ],
      "max": [
        1,
        1,
        0
      ],
      "type": "VEC3",
      "bufferView": 1,
      "byteOffset": 1152
    },
    {
      "name": "Box001_1_1_texcoords",
      "componentType": 5126,
      "count": 12,
      "min": [
        -0.628600001335144,
        0
      ],
      "max": [
        3.4300999641418457,
        6.999300003051758
      ],
      "type": "VEC2",
      "bufferView": 2,
      "byteOffset": 768
    },
    {
      "name": "Box001_1_1_indices",
      "componentType": 5123,
      "count": 18,
      "min": [
        0
      ],
      "max": [
        11
      ],
      "type": "SCALAR",
      "bufferView": 3,
      "byteOffset": 324
    },
    {
      "name": "Box001_1_2_positions",
      "componentType": 5126,
      "count": 25,
      "min": [
        -41.15010070800781,
        -19.810300827026367,
        0
      ],
      "max": [
        -26.970300674438477,
        29.950899124145508,
        49.90549850463867
      ],
      "type": "VEC3",
      "bufferView": 0,
      "byteOffset": 1296
    },
    {
      "name": "Box001_1_2_normals",
      "componentType": 5126,
      "count": 25,
      "min": [
        -1,
        -0.9999995231628418,
        0
      ],
      "max": [
        1,
        1,
        0.0009999994654208422
      ],
      "type": "VEC3",
      "bufferView": 1,
      "byteOffset": 1296
    },
    {
      "name": "Box001_1_2_texcoords",
      "componentType": 5126,
      "count": 25,
      "min": [
        0.9639000296592712,
        -0.012000000104308128
      ],
      "max": [
        4.061100006103516,
        4.0381999015808105
      ],
      "type": "VEC2",
      "bufferView": 2,
      "byteOffset": 864
    },
    {
      "name": "Box001_1_2_indices",
      "componentType": 5123,
      "count": 39,
      "min": [
        0
      ],
      "max": [
        24
      ],
      "type": "SCALAR",
      "bufferView": 3,
      "byteOffset": 360
    },
    {
      "name": "Box001_1_3_positions",
      "componentType": 5126,
      "count": 42,
      "min": [
        -47.82490158081055,
        -19.759199142456055,
        48.25
      ],
      "max": [
        -26.970300674438477,
        29.950899124145508,
        49.90549850463867
      ],
      "type": "VEC3",
      "bufferView": 0,
      "byteOffset": 1596
    },
    {
      "name": "Box001_1_3_normals",
      "componentType": 5126,
      "count": 42,
      "min": [
        -1,
        -0.9999999403953552,
        -0.0003999999607913196
      ],
      "max": [
        1,
        0.9999999403953552,
        1
      ],
      "type": "VEC3",
      "bufferView": 1,
      "byteOffset": 1596
    },
    {
      "name": "Box001_1_3_texcoords",
      "componentType": 5126,
      "count": 42,
      "min": [
        -1.3792999982833862,
        -0.5963000059127808
      ],
      "max": [
        3.703900098800659,
        1.590399980545044
      ],
      "type": "VEC2",
      "bufferView": 2,
      "byteOffset": 1064
    },
    {
      "name": "Box001_1_3_indices",
      "componentType": 5123,
      "count": 90,
      "min": [
        0
      ],
      "max": [
        41
      ],
      "type": "SCALAR",
      "bufferView": 3,
      "byteOffset": 440
    },
    {
      "name": "Box001_1_4_positions",
      "componentType": 5126,
      "count": 14,
      "min": [
        -47.82490158081055,
        9.759400367736816,
        0
      ],
      "max": [
        -41.15010070800781,
        20.980600357055664,
        49.90549850463867
      ],
      "type": "VEC3",
      "bufferView": 0,
      "byteOffset": 2100
    },
    {
      "name": "Box001_1_4_normals",
      "componentType": 5126,
      "count": 14,
      "min": [
        -1,
        -1,
        -0.00019999999494757503
      ],
      "max": [
        0,
        0.9999995827674866,
        0.0008999996352940798
      ],
      "type": "VEC3",
      "bufferView": 1,
      "byteOffset": 2100
    },
    {
      "name": "Box001_1_4_texcoords",
      "componentType": 5126,
      "count": 14,
      "min": [
        0.6032999753952026,
        0
      ],
      "max": [
        1.9989999532699585,
        5.066999912261963
      ],
      "type": "VEC2",
      "bufferView": 2,
      "byteOffset": 1400
    },
    {
      "name": "Box001_1_4_indices",
      "componentType": 5123,
      "count": 18,
      "min": [
        0
      ],
      "max": [
        13
      ],
      "type": "SCALAR",
      "bufferView": 3,
      "byteOffset": 620
    },
    {
      "name": "Box001_1_5_positions",
      "componentType": 5126,
      "count": 66,
      "min": [
        -37.372100830078125,
        -29.950899124145508,
        0
      ],
      "max": [
        -7.418799877166748,
        -1.729699969291687,
        16.67490005493164
      ],
      "type": "VEC3",
      "bufferView": 0,
      "byteOffset": 2268
    },
    {
      "name": "Box001_1_5_normals",
      "componentType": 5126,
      "count": 66,
      "min": [
        -1,
        -1,
        -1
      ],
      "max": [
        1,
        0,
        1
      ],
      "type": "VEC3",
      "bufferView": 1,
      "byteOffset": 2268
    },
    {
      "name": "Box001_1_5_texcoords",
      "componentType": 5126,
      "count": 66,
      "min": [
        -0.11240000277757645,
        -0.009499999694526196
      ],
      "max": [
        2.6305999755859375,
        3.012200117111206
      ],
      "type": "VEC2",
      "bufferView": 2,
      "byteOffset": 1512
    },
    {
      "name": "Box001_1_5_indices",
      "componentType": 5123,
      "count": 126,
      "min": [
        0
      ],
      "max": [
        65
      ],
      "type": "SCALAR",
      "bufferView": 3,
      "byteOffset": 656
    },
    {
      "name": "Box001_1_6_positions",
      "componentType": 5126,
      "count": 16,
      "min": [
        0.1111999973654747,
        -16.542600631713867,
        0
      ],
      "max": [
        47.82490158081055,
        18.046499252319336,
        21.885799407958984
      ],
      "type": "VEC3",
      "bufferView": 0,
      "byteOffset": 3060
    },
    {
      "name": "Box001_1_6_normals",
      "componentType": 5126,
      "count": 16,
      "min": [
        -1,
        -1,
        0
      ],
      "max": [
        1,
        1,
        0
      ],
      "type": "VEC3",
      "bufferView": 1,
      "byteOffset": 3060
    },
    {
      "name": "Box001_1_6_texcoords",
      "componentType": 5126,
      "count": 16,
      "min": [
        0,
        0
      ],
      "max": [
        2.9786999225616455,
        3.027100086212158
      ],
      "type": "VEC2",
      "bufferView": 2,
      "byteOffset": 2040
    },
    {
      "name": "Box001_1_6_indices",
      "componentType": 5123,
      "count": 24,
      "min": [
        0
      ],
      "max": [
        15
      ],
      "type": "SCALAR",
      "bufferView": 3,
      "byteOffset": 908
    },
    {
      "name": "Box001_1_7_positions",
      "componentType": 5126,
      "count": 20,
      "min": [
        13.039799690246582,
        -10.428899765014648,
        19.944400787353516
      ],
      "max": [
        35.403499603271484,
        9.294699668884277,
        29.9325008392334
      ],
      "type": "VEC3",
      "bufferView": 0,
      "byteOffset": 3252
    },
    {
      "name": "Box001_1_7_normals",
      "componentType": 5126,
      "count": 20,
      "min": [
        -1,
        -1,
        -1
      ],
      "max": [
        1,
        1,
        0
      ],
      "type": "VEC3",
      "bufferView": 1,
      "byteOffset": 3252
    },
    {
      "name": "Box001_1_7_texcoords",
      "componentType": 5126,
      "count": 20,
      "min": [
        -0.06360000371932983,
        -0.10779999941587448
      ],
      "max": [
        1.0898000001907349,
        1.2955000400543213
      ],
      "type": "VEC2",
      "bufferView": 2,
      "byteOffset": 2168
    },
    {
      "name": "Box001_1_7_indices",
      "componentType": 5123,
      "count": 30,
      "min": [
        0
      ],
      "max": [
        19
      ],
      "type": "SCALAR",
      "bufferView": 3,
      "byteOffset": 956
    }
  ],
  "asset": {
    "generator": "obj2gltf",
    "version": "2.0"
  },
  "buffers": [
    {
      "name": "2_jz16",
      "byteLength": 10328,
      "uri": "data:application/octet-stream;base64,"
    }
  ],
  "bufferViews": [
    {
      "name": "bufferView_0",
      "buffer": 0,
      "byteLength": 3492,
      "byteOffset": 0,
      "byteStride": 12,
      "target": 34962
    },
    {
      "name": "bufferView_1",
      "buffer": 0,
      "byteLength": 3492,
      "byteOffset": 3492,
      "byteStride": 12,
      "target": 34962
    },
    {
      "name": "bufferView_2",
      "buffer": 0,
      "byteLength": 2328,
      "byteOffset": 6984,
      "byteStride": 8,
      "target": 34962
    },
    {
      "name": "bufferView_3",
      "buffer": 0,
      "byteLength": 1016,
      "byteOffset": 9312,
      "target": 34963
    }
  ],
  "images": [
    {
      "name": "SGY_Q1_005",
      "uri": "SGY_Q1_005.jpg"
    },
    {
      "name": "SGY_Q2_004",
      "uri": "SGY_Q2_004.jpg"
    },
    {
      "name": "SGY_Q2_005",
      "uri": "SGY_Q2_005.jpg"
    },
    {
      "name": "sgy_2q_09",
      "uri": "sgy_2q_09.jpg"
    },
    {
      "name": "SGY_Q1_006",
      "uri": "SGY_Q1_006.jpg"
    },
    {
      "name": "SGY_Q2_006",
      "uri": "SGY_Q2_006.jpg"
    },
    {
      "name": "SGY_Q1_001",
      "uri": "SGY_Q1_001.jpg"
    }
  ],
  "materials": [
    {
      "name": "Material__73",
      "pbrMetallicRoughness": {
        "baseColorTexture": {
          "index": 0
        },
        "baseColorFactor": [
          1,
          1,
          1,
          1
        ],
        "metallicFactor": 0,
        "roughnessFactor": 0.99
      },
      "emissiveFactor": [
        0,
        0,
        0
      ],
      "alphaMode": "OPAQUE",
      "doubleSided": false
    },
    {
      "name": "Material__25",
      "pbrMetallicRoughness": {
        "baseColorTexture": {
          "index": 1
        },
        "baseColorFactor": [
          1,
          1,
          1,
          1
        ],
        "metallicFactor": 0,
        "roughnessFactor": 0.99
      },
      "emissiveFactor": [
        0,
        0,
        0
      ],
      "alphaMode": "OPAQUE",
      "doubleSided": false
    },
    {
      "name": "Material__49",
      "pbrMetallicRoughness": {
        "baseColorTexture": {
          "index": 2
        },
        "baseColorFactor": [
          1,
          1,
          1,
          1
        ],
        "metallicFactor": 0,
        "roughnessFactor": 0.99
      },
      "emissiveFactor": [
        0,
        0,
        0
      ],
      "alphaMode": "OPAQUE",
      "doubleSided": false
    },
    {
      "name": "Material__85",
      "pbrMetallicRoughness": {
        "baseColorTexture": {
          "index": 3
        },
        "baseColorFactor": [
          1,
          1,
          1,
          1
        ],
        "metallicFactor": 0,
        "roughnessFactor": 0.99
      },
      "emissiveFactor": [
        0,
        0,
        0
      ],
      "alphaMode": "OPAQUE",
      "doubleSided": false
    },
    {
      "name": "Material__61",
      "pbrMetallicRoughness": {
        "baseColorTexture": {
          "index": 4
        },
        "baseColorFactor": [
          1,
          1,
          1,
          1
        ],
        "metallicFactor": 0,
        "roughnessFactor": 0.99
      },
      "emissiveFactor": [
        0,
        0,
        0
      ],
      "alphaMode": "OPAQUE",
      "doubleSided": false
    },
    {
      "name": "Material__97",
      "pbrMetallicRoughness": {
        "baseColorTexture": {
          "index": 5
        },
        "baseColorFactor": [
          1,
          1,
          1,
          1
        ],
        "metallicFactor": 0,
        "roughnessFactor": 0.99
      },
      "emissiveFactor": [
        0,
        0,
        0
      ],
      "alphaMode": "OPAQUE",
      "doubleSided": false
    },
    {
      "name": "Material__116",
      "pbrMetallicRoughness": {
        "baseColorTexture": {
          "index": 6
        },
        "baseColorFactor": [
          1,
          1,
          1,
          1
        ],
        "metallicFactor": 0,
        "roughnessFactor": 0.99
      },
      "emissiveFactor": [
        0,
        0,
        0
      ],
      "alphaMode": "OPAQUE",
      "doubleSided": false
    },
    {
      "name": "Material__128",
      "pbrMetallicRoughness": {
        "baseColorTexture": {
          "index": 6
        },
        "baseColorFactor": [
          1,
          1,
          1,
          1
        ],
        "metallicFactor": 0,
        "roughnessFactor": 0.99
      },
      "emissiveFactor": [
        0,
        0,
        0
      ],
      "alphaMode": "OPAQUE",
      "doubleSided": false
    }
  ],
  "meshes": [
    {
      "name": "Box001_1",
      "primitives": [
        {
          "attributes": {
            "POSITION": 0,
            "NORMAL": 1,
            "TEXCOORD_0": 2
          },
          "indices": 3,
          "material": 0,
          "mode": 4
        },
        {
          "attributes": {
            "POSITION": 4,
            "NORMAL": 5,
            "TEXCOORD_0": 6
          },
          "indices": 7,
          "material": 1,
          "mode": 4
        },
        {
          "attributes": {
            "POSITION": 8,
            "NORMAL": 9,
            "TEXCOORD_0": 10
          },
          "indices": 11,
          "material": 2,
          "mode": 4
        },
        {
          "attributes": {
            "POSITION": 12,
            "NORMAL": 13,
            "TEXCOORD_0": 14
          },
          "indices": 15,
          "material": 3,
          "mode": 4
        },
        {
          "attributes": {
            "POSITION": 16,
            "NORMAL": 17,
            "TEXCOORD_0": 18
          },
          "indices": 19,
          "material": 4,
          "mode": 4
        },
        {
          "attributes": {
            "POSITION": 20,
            "NORMAL": 21,
            "TEXCOORD_0": 22
          },
          "indices": 23,
          "material": 5,
          "mode": 4
        },
        {
          "attributes": {
            "POSITION": 24,
            "NORMAL": 25,
            "TEXCOORD_0": 26
          },
          "indices": 27,
          "material": 6,
          "mode": 4
        },
        {
          "attributes": {
            "POSITION": 28,
            "NORMAL": 29,
            "TEXCOORD_0": 30
          },
          "indices": 31,
          "material": 7,
          "mode": 4
        }
      ]
    }
  ],
  "nodes": [
    {
      "name": "Box001",
      "mesh": 0
    }
  ],
  "samplers": [
    {
      "wrapS": 10497,
      "wrapT": 10497
    }
  ],
  "scene": 0,
  "scenes": [
    {
      "nodes": [
        0
      ]
    }
  ],
  "textures": [
    {
      "name": "SGY_Q1_005",
      "sampler": 0,
      "source": 0
    },
    {
      "name": "SGY_Q2_004",
      "sampler": 0,
      "source": 1
    },
    {
      "name": "SGY_Q2_005",
      "sampler": 0,
      "source": 2
    },
    {
      "name": "sgy_2q_09",
      "sampler": 0,
      "source": 3
    },
    {
      "name": "SGY_Q1_006",
      "sampler": 0,
      "source": 4
    },
    {
      "name": "SGY_Q2_006",
      "sampler": 0,
      "source": 5
    },
    {
      "name": "SGY_Q1_001",
      "sampler": 0,
      "source": 6
    }
  ]
}
