{
  "accessors": [
    {
      "name": "Box003_1_0_positions",
      "componentType": 5126,
      "count": 64,
      "min": [
        -17.865800857543945,
        -38.328800201416016,
        0.33970001339912415
      ],
      "max": [
        20.730100631713867,
        9.812199592590332,
        4.668600082397461
      ],
      "type": "VEC3",
      "bufferView": 0,
      "byteOffset": 0
    },
    {
      "name": "Box003_1_0_normals",
      "componentType": 5126,
      "count": 64,
      "min": [
        -1,
        -1,
        -0.0011999760754406452
      ],
      "max": [
        0.007699716370552778,
        1,
        0.0037998599000275135
      ],
      "type": "VEC3",
      "bufferView": 1,
      "byteOffset": 0
    },
    {
      "name": "Box003_1_0_texcoords",
      "componentType": 5126,
      "count": 64,
      "min": [
        0,
        -0.006300000008195639
      ],
      "max": [
        1,
        1
      ],
      "type": "VEC2",
      "bufferView": 2,
      "byteOffset": 0
    },
    {
      "name": "Box003_1_0_indices",
      "componentType": 5123,
      "count": 96,
      "min": [
        0
      ],
      "max": [
        63
      ],
      "type": "SCALAR",
      "bufferView": 3,
      "byteOffset": 0
    },
    {
      "name": "Box003_1_1_positions",
      "componentType": 5126,
      "count": 174,
      "min": [
        -16.74679946899414,
        -41.59489822387695,
        0.019999999552965164
      ],
      "max": [
        24.020700454711914,
        30.66029930114746,
        4.42110013961792
      ],
      "type": "VEC3",
      "bufferView": 0,
      "byteOffset": 768
    },
    {
      "name": "Box003_1_1_normals",
      "componentType": 5126,
      "count": 174,
      "min": [
        0,
        -1,
        -0.9785296320915222
      ],
      "max": [
        1,
        0.9785296320915222,
        0.9785497784614563
      ],
      "type": "VEC3",
      "bufferView": 1,
      "byteOffset": 768
    },
    {
      "name": "Box003_1_1_texcoords",
      "componentType": 5126,
      "count": 174,
      "min": [
        -1.0463999509811401,
        0
      ],
      "max": [
        2.028599977493286,
        1
      ],
      "type": "VEC2",
      "bufferView": 2,
      "byteOffset": 512
    },
    {
      "name": "Box003_1_1_indices",
      "componentType": 5123,
      "count": 288,
      "min": [
        0
      ],
      "max": [
        173
      ],
      "type": "SCALAR",
      "bufferView": 3,
      "byteOffset": 192
    },
    {
      "name": "Box003_1_2_positions",
      "componentType": 5126,
      "count": 56,
      "min": [
        6.92579984664917,
        -7.087800025939941,
        4.9741997718811035
      ],
      "max": [
        23.925800323486328,
        9.912199974060059,
        5.99429988861084
      ],
      "type": "VEC3",
      "bufferView": 0,
      "byteOffset": 2856
    },
    {
      "name": "Box003_1_2_normals",
      "componentType": 5126,
      "count": 56,
      "min": [
        -1,
        -1,
        0
      ],
      "max": [
        1,
        1,
        0
      ],
      "type": "VEC3",
      "bufferView": 1,
      "byteOffset": 2856
    },
    {
      "name": "Box003_1_2_texcoords",
      "componentType": 5126,
      "count": 56,
      "min": [
        -2,
        0
      ],
      "max": [
        3,
        1
      ],
      "type": "VEC2",
      "bufferView": 2,
      "byteOffset": 1904
    },
    {
      "name": "Box003_1_2_indices",
      "componentType": 5123,
      "count": 84,
      "min": [
        0
      ],
      "max": [
        55
      ],
      "type": "SCALAR",
      "bufferView": 3,
      "byteOffset": 768
    },
    {
      "name": "Box003_1_3_positions",
      "componentType": 5126,
      "count": 1685,
      "min": [
        -24.43779945373535,
        -41.65489959716797,
        0
      ],
      "max": [
        24.43779945373535,
        24.144800186157227,
        20.891599655151367
      ],
      "type": "VEC3",
      "bufferView": 0,
      "byteOffset": 3528
    },
    {
      "name": "Box003_1_3_normals",
      "componentType": 5126,
      "count": 1685,
      "min": [
        -1,
        -1,
        -1
      ],
      "max": [
        1,
        1,
        1
      ],
      "type": "VEC3",
      "bufferView": 1,
      "byteOffset": 3528
    },
    {
      "name": "Box003_1_3_texcoords",
      "componentType": 5126,
      "count": 1685,
      "min": [
        -3.176500082015991,
        -1.1004999876022339
      ],
      "max": [
        4.176499843597412,
        1.2582000494003296
      ],
      "type": "VEC2",
      "bufferView": 2,
      "byteOffset": 2352
    },
    {
      "name": "Box003_1_3_indices",
      "componentType": 5123,
      "count": 3180,
      "min": [
        0
      ],
      "max": [
        1684
      ],
      "type": "SCALAR",
      "bufferView": 3,
      "byteOffset": 936
    },
    {
      "name": "Box003_1_4_positions",
      "componentType": 5126,
      "count": 1066,
      "min": [
        -18.55970001220703,
        -42.29880142211914,
        4.094699859619141
      ],
      "max": [
        20.7637996673584,
        9.912199974060059,
        10.38599967956543
      ],
      "type": "VEC3",
      "bufferView": 0,
      "byteOffset": 23748
    },
    {
      "name": "Box003_1_4_normals",
      "componentType": 5126,
      "count": 1066,
      "min": [
        -1,
        -1,
        -1
      ],
      "max": [
        1,
        1,
        1
      ],
      "type": "VEC3",
      "bufferView": 1,
      "byteOffset": 23748
    },
    {
      "name": "Box003_1_4_texcoords",
      "componentType": 5126,
      "count": 1066,
      "min": [
        -1.1375999450683594,
        -1.1469000577926636
      ],
      "max": [
        2.1375999450683594,
        2.146899938583374
      ],
      "type": "VEC2",
      "bufferView": 2,
      "byteOffset": 15832
    },
    {
      "name": "Box003_1_4_indices",
      "componentType": 5123,
      "count": 2184,
      "min": [
        0
      ],
      "max": [
        1065
      ],
      "type": "SCALAR",
      "bufferView": 3,
      "byteOffset": 7296
    },
    {
      "name": "Box003_1_5_positions",
      "componentType": 5126,
      "count": 414,
      "min": [
        -19.428300857543945,
        17.311100006103516,
        0
      ],
      "max": [
        -2.8266000747680664,
        42.29880142211914,
        13.953300476074219
      ],
      "type": "VEC3",
      "bufferView": 0,
      "byteOffset": 36540
    },
    {
      "name": "Box003_1_5_normals",
      "componentType": 5126,
      "count": 414,
      "min": [
        -1,
        -1,
        -1
      ],
      "max": [
        1,
        1,
        1
      ],
      "type": "VEC3",
      "bufferView": 1,
      "byteOffset": 36540
    },
    {
      "name": "Box003_1_5_texcoords",
      "componentType": 5126,
      "count": 414,
      "min": [
        -0.9825000166893005,
        0
      ],
      "max": [
        1.9706000089645386,
        1.00409996509552
      ],
      "type": "VEC2",
      "bufferView": 2,
      "byteOffset": 24360
    },
    {
      "name": "Box003_1_5_indices",
      "componentType": 5123,
      "count": 846,
      "min": [
        0
      ],
      "max": [
        413
      ],
      "type": "SCALAR",
      "bufferView": 3,
      "byteOffset": 11664
    },
    {
      "name": "Box003_1_6_positions",
      "componentType": 5126,
      "count": 102,
      "min": [
        -24.43779945373535,
        -4.61870002746582,
        0
      ],
      "max": [
        -4.428299903869629,
        24.144800186157227,
        20.891599655151367
      ],
      "type": "VEC3",
      "bufferView": 0,
      "byteOffset": 41508
    },
    {
      "name": "Box003_1_6_normals",
      "componentType": 5126,
      "count": 102,
      "min": [
        -1,
        -1,
        0
      ],
      "max": [
        1,
        1,
        1
      ],
      "type": "VEC3",
      "bufferView": 1,
      "byteOffset": 41508
    },
    {
      "name": "Box003_1_6_texcoords",
      "componentType": 5126,
      "count": 102,
      "min": [
        -0.09929999709129333,
        0
      ],
      "max": [
        1.0993000268936157,
        1
      ],
      "type": "VEC2",
      "bufferView": 2,
      "byteOffset": 27672
    },
    {
      "name": "Box003_1_6_indices",
      "componentType": 5123,
      "count": 174,
      "min": [
        0
      ],
      "max": [
        101
      ],
      "type": "SCALAR",
      "bufferView": 3,
      "byteOffset": 13356
    },
    {
      "name": "Box003_1_7_positions",
      "componentType": 5126,
      "count": 88,
      "min": [
        -24.43779945373535,
        -13.266900062561035,
        0
      ],
      "max": [
        -4.428299903869629,
        24.144800186157227,
        20.891599655151367
      ],
      "type": "VEC3",
      "bufferView": 0,
      "byteOffset": 42732
    },
    {
      "name": "Box003_1_7_normals",
      "componentType": 5126,
      "count": 88,
      "min": [
        -1,
        -1,
        0
      ],
      "max": [
        1,
        1,
        1
      ],
      "type": "VEC3",
      "bufferView": 1,
      "byteOffset": 42732
    },
    {
      "name": "Box003_1_7_texcoords",
      "componentType": 5126,
      "count": 88,
      "min": [
        -1.073699951171875,
        0
      ],
      "max": [
        1.0096999406814575,
        1
      ],
      "type": "VEC2",
      "bufferView": 2,
      "byteOffset": 28488
    },
    {
      "name": "Box003_1_7_indices",
      "componentType": 5123,
      "count": 168,
      "min": [
        0
      ],
      "max": [
        87
      ],
      "type": "SCALAR",
      "bufferView": 3,
      "byteOffset": 13704
    },
    {
      "name": "Box003_1_8_positions",
      "componentType": 5126,
      "count": 12,
      "min": [
        -19.28860092163086,
        17.029499053955078,
        13.73740005493164
      ],
      "max": [
        -4.5680999755859375,
        42.14889907836914,
        15.92609977722168
      ],
      "type": "VEC3",
      "bufferView": 0,
      "byteOffset": 43788
    },
    {
      "name": "Box003_1_8_normals",
      "componentType": 5126,
      "count": 12,
      "min": [
        -1,
        0,
        0
      ],
      "max": [
        1,
        1,
        0
      ],
      "type": "VEC3",
      "bufferView": 1,
      "byteOffset": 43788
    },
    {
      "name": "Box003_1_8_texcoords",
      "componentType": 5126,
      "count": 12,
      "min": [
        -3.0490000247955322,
        0.012000000104308128
      ],
      "max": [
        3.970099925994873,
        0.88919997215271
      ],
      "type": "VEC2",
      "bufferView": 2,
      "byteOffset": 29192
    },
    {
      "name": "Box003_1_8_indices",
      "componentType": 5123,
      "count": 18,
      "min": [
        0
      ],
      "max": [
        11
      ],
      "type": "SCALAR",
      "bufferView": 3,
      "byteOffset": 14040
    },
    {
      "name": "Box003_1_9_positions",
      "componentType": 5126,
      "count": 16,
      "min": [
        18.19260025024414,
        -31.616500854492188,
        0.6646999716758728
      ],
      "max": [
        18.19260025024414,
        -18.628799438476562,
        3.4309000968933105
      ],
      "type": "VEC3",
      "bufferView": 0,
      "byteOffset": 43932
    },
    {
      "name": "Box003_1_9_normals",
      "componentType": 5126,
      "count": 16,
      "min": [
        1,
        0,
        0
      ],
      "max": [
        1,
        0,
        0
      ],
      "type": "VEC3",
      "bufferView": 1,
      "byteOffset": 43932
    },
    {
      "name": "Box003_1_9_texcoords",
      "componentType": 5126,
      "count": 16,
      "min": [
        -0.005499999970197678,
        0
      ],
      "max": [
        1,
        1
      ],
      "type": "VEC2",
      "bufferView": 2,
      "byteOffset": 29288
    },
    {
      "name": "Box003_1_9_indices",
      "componentType": 5123,
      "count": 18,
      "min": [
        0
      ],
      "max": [
        15
      ],
      "type": "SCALAR",
      "bufferView": 3,
      "byteOffset": 14076
    },
    {
      "name": "Box003_1_10_positions",
      "componentType": 5126,
      "count": 104,
      "min": [
        -17.902299880981445,
        -41.86050033569336,
        4.92710018157959
      ],
      "max": [
        18.362600326538086,
        -17.802499771118164,
        10.38599967956543
      ],
      "type": "VEC3",
      "bufferView": 0,
      "byteOffset": 44124
    },
    {
      "name": "Box003_1_10_normals",
      "componentType": 5126,
      "count": 104,
      "min": [
        -0.26658910512924194,
        -0.8508195877075195,
        -0.6828977465629578
      ],
      "max": [
        0.26658910512924194,
        0.8508195877075195,
        0.9908599853515625
      ],
      "type": "VEC3",
      "bufferView": 1,
      "byteOffset": 44124
    },
    {
      "name": "Box003_1_10_texcoords",
      "componentType": 5126,
      "count": 104,
      "min": [
        0,
        0
      ],
      "max": [
        1,
        1
      ],
      "type": "VEC2",
      "bufferView": 2,
      "byteOffset": 29416
    },
    {
      "name": "Box003_1_10_indices",
      "componentType": 5123,
      "count": 240,
      "min": [
        0
      ],
      "max": [
        103
      ],
      "type": "SCALAR",
      "bufferView": 3,
      "byteOffset": 14112
    },
    {
      "name": "Box003_1_11_positions",
      "componentType": 5126,
      "count": 80,
      "min": [
        7.089700222015381,
        -6.967700004577637,
        6.406899929046631
      ],
      "max": [
        23.774900436401367,
        9.769499778747559,
        7.598400115966797
      ],
      "type": "VEC3",
      "bufferView": 0,
      "byteOffset": 45372
    },
    {
      "name": "Box003_1_11_normals",
      "componentType": 5126,
      "count": 80,
      "min": [
        -1,
        -1,
        0
      ],
      "max": [
        1,
        1,
        0
      ],
      "type": "VEC3",
      "bufferView": 1,
      "byteOffset": 45372
    },
    {
      "name": "Box003_1_11_texcoords",
      "componentType": 5126,
      "count": 80,
      "min": [
        0,
        0
      ],
      "max": [
        1,
        1
      ],
      "type": "VEC2",
      "bufferView": 2,
      "byteOffset": 30248
    },
    {
      "name": "Box003_1_11_indices",
      "componentType": 5123,
      "count": 120,
      "min": [
        0
      ],
      "max": [
        79
      ],
      "type": "SCALAR",
      "bufferView": 3,
      "byteOffset": 14592
    }
  ],
  "asset": {
    "generator": "obj2gltf",
    "version": "2.0"
  },
  "buffers": [
    {
      "name": "Q22",
      "byteLength": 138384,
      "uri": "data:application/octet-stream;base64,"
    }
  ],
  "bufferViews": [
    {
      "name": "bufferView_0",
      "buffer": 0,
      "byteLength": 46332,
      "byteOffset": 0,
      "byteStride": 12,
      "target": 34962
    },
    {
      "name": "bufferView_1",
      "buffer": 0,
      "byteLength": 46332,
      "byteOffset": 46332,
      "byteStride": 12,
      "target": 34962
    },
    {
      "name": "bufferView_2",
      "buffer": 0,
      "byteLength": 30888,
      "byteOffset": 92664,
      "byteStride": 8,
      "target": 34962
    },
    {
      "name": "bufferView_3",
      "buffer": 0,
      "byteLength": 14832,
      "byteOffset": 123552,
      "target": 34963
    }
  ],
  "images": [
    {
      "name": "SGY_Q5_008",
      "uri": "SGY_Q5_008.png"
    },
    {
      "name": "SGY_Q5_001",
      "uri": "SGY_Q5_001.png"
    },
    {
      "name": "SGY_Q5_024",
      "uri": "SGY_Q5_024.jpg"
    },
    {
      "name": "SGY_Q5_023",
      "uri": "SGY_Q5_023.jpg"
    },
    {
      "name": "SGY_Q5_010",
      "uri": "SGY_Q5_010.jpg"
    },
    {
      "name": "SGY_Q5_019",
      "uri": "SGY_Q5_019.jpg"
    },
    {
      "name": "SGY_Q5_022",
      "uri": "SGY_Q5_022.jpg"
    },
    {
      "name": "SGY_Q5_021",
      "uri": "SGY_Q5_021.jpg"
    },
    {
      "name": "SGY_Q5_006",
      "uri": "SGY_Q5_006.png"
    },
    {
      "name": "SGY_Q5_009",
      "uri": "SGY_Q5_009.png"
    },
    {
      "name": "SGY_Q5_012",
      "uri": "SGY_Q5_012.jpg"
    },
    {
      "name": "SGY_Q5_007",
      "uri": "SGY_Q5_007.png"
    }
  ],
  "materials": [
    {
      "name": "Material__422",
      "pbrMetallicRoughness": {
        "baseColorTexture": {
          "index": 0
        },
        "baseColorFactor": [
          1,
          1,
          1,
          1
        ],
        "metallicFactor": 0,
        "roughnessFactor": 0.99
      },
      "emissiveFactor": [
        0,
        0,
        0
      ],
      "alphaMode": "BLEND",
      "doubleSided": true
    },
    {
      "name": "Material__23",
      "pbrMetallicRoughness": {
        "baseColorTexture": {
          "index": 1
        },
        "baseColorFactor": [
          1,
          1,
          1,
          1
        ],
        "metallicFactor": 0,
        "roughnessFactor": 0.99
      },
      "emissiveFactor": [
        0,
        0,
        0
      ],
      "alphaMode": "OPAQUE",
      "doubleSided": false
    },
    {
      "name": "Material__353",
      "pbrMetallicRoughness": {
        "baseColorTexture": {
          "index": 2
        },
        "baseColorFactor": [
          1,
          1,
          1,
          1
        ],
        "metallicFactor": 0,
        "roughnessFactor": 0.99
      },
      "emissiveFactor": [
        0,
        0,
        0
      ],
      "alphaMode": "OPAQUE",
      "doubleSided": false
    },
    {
      "name": "Material__175",
      "pbrMetallicRoughness": {
        "baseColorTexture": {
          "index": 3
        },
        "baseColorFactor": [
          1,
          1,
          1,
          1
        ],
        "metallicFactor": 0,
        "roughnessFactor": 0.99
      },
      "emissiveFactor": [
        0,
        0,
        0
      ],
      "alphaMode": "OPAQUE",
      "doubleSided": false
    },
    {
      "name": "Material__569",
      "pbrMetallicRoughness": {
        "baseColorTexture": {
          "index": 4
        },
        "baseColorFactor": [
          1,
          1,
          1,
          1
        ],
        "metallicFactor": 0,
        "roughnessFactor": 0.99
      },
      "emissiveFactor": [
        0,
        0,
        0
      ],
      "alphaMode": "OPAQUE",
      "doubleSided": false
    },
    {
      "name": "Material__0",
      "pbrMetallicRoughness": {
        "baseColorTexture": {
          "index": 5
        },
        "baseColorFactor": [
          1,
          1,
          1,
          1
        ],
        "metallicFactor": 0,
        "roughnessFactor": 0.99
      },
      "emissiveFactor": [
        0,
        0,
        0
      ],
      "alphaMode": "OPAQUE",
      "doubleSided": false
    },
    {
      "name": "Material__58",
      "pbrMetallicRoughness": {
        "baseColorTexture": {
          "index": 6
        },
        "baseColorFactor": [
          1,
          1,
          1,
          1
        ],
        "metallicFactor": 0,
        "roughnessFactor": 0.99
      },
      "emissiveFactor": [
        0,
        0,
        0
      ],
      "alphaMode": "OPAQUE",
      "doubleSided": false
    },
    {
      "name": "Material__35",
      "pbrMetallicRoughness": {
        "baseColorTexture": {
          "index": 7
        },
        "baseColorFactor": [
          1,
          1,
          1,
          1
        ],
        "metallicFactor": 0,
        "roughnessFactor": 0.99
      },
      "emissiveFactor": [
        0,
        0,
        0
      ],
      "alphaMode": "OPAQUE",
      "doubleSided": false
    },
    {
      "name": "Material__139",
      "pbrMetallicRoughness": {
        "baseColorTexture": {
          "index": 8
        },
        "baseColorFactor": [
          1,
          1,
          1,
          1
        ],
        "metallicFactor": 0,
        "roughnessFactor": 0.99
      },
      "emissiveFactor": [
        0,
        0,
        0
      ],
      "alphaMode": "BLEND",
      "doubleSided": true
    },
    {
      "name": "Material__637",
      "pbrMetallicRoughness": {
        "baseColorTexture": {
          "index": 9
        },
        "baseColorFactor": [
          1,
          1,
          1,
          1
        ],
        "metallicFactor": 0,
        "roughnessFactor": 0.99
      },
      "emissiveFactor": [
        0,
        0,
        0
      ],
      "alphaMode": "BLEND",
      "doubleSided": true
    },
    {
      "name": "Material__523",
      "pbrMetallicRoughness": {
        "baseColorTexture": {
          "index": 10
        },
        "baseColorFactor": [
          1,
          1,
          1,
          1
        ],
        "metallicFactor": 0,
        "roughnessFactor": 0.99
      },
      "emissiveFactor": [
        0,
        0,
        0
      ],
      "alphaMode": "OPAQUE",
      "doubleSided": false
    },
    {
      "name": "Material__308",
      "pbrMetallicRoughness": {
        "baseColorTexture": {
          "index": 11
        },
        "baseColorFactor": [
          1,
          1,
          1,
          1
        ],
        "metallicFactor": 0,
        "roughnessFactor": 0.99
      },
      "emissiveFactor": [
        0,
        0,
        0
      ],
      "alphaMode": "BLEND",
      "doubleSided": true
    }
  ],
  "meshes": [
    {
      "name": "Box003_1",
      "primitives": [
        {
          "attributes": {
            "POSITION": 0,
            "NORMAL": 1,
            "TEXCOORD_0": 2
          },
          "indices": 3,
          "material": 0,
          "mode": 4
        },
        {
          "attributes": {
            "POSITION": 4,
            "NORMAL": 5,
            "TEXCOORD_0": 6
          },
          "indices": 7,
          "material": 1,
          "mode": 4
        },
        {
          "attributes": {
            "POSITION": 8,
            "NORMAL": 9,
            "TEXCOORD_0": 10
          },
          "indices": 11,
          "material": 2,
          "mode": 4
        },
        {
          "attributes": {
            "POSITION": 12,
            "NORMAL": 13,
            "TEXCOORD_0": 14
          },
          "indices": 15,
          "material": 3,
          "mode": 4
        },
        {
          "attributes": {
            "POSITION": 16,
            "NORMAL": 17,
            "TEXCOORD_0": 18
          },
          "indices": 19,
          "material": 4,
          "mode": 4
        },
        {
          "attributes": {
            "POSITION": 20,
            "NORMAL": 21,
            "TEXCOORD_0": 22
          },
          "indices": 23,
          "material": 5,
          "mode": 4
        },
        {
          "attributes": {
            "POSITION": 24,
            "NORMAL": 25,
            "TEXCOORD_0": 26
          },
          "indices": 27,
          "material": 6,
          "mode": 4
        },
        {
          "attributes": {
            "POSITION": 28,
            "NORMAL": 29,
            "TEXCOORD_0": 30
          },
          "indices": 31,
          "material": 7,
          "mode": 4
        },
        {
          "attributes": {
            "POSITION": 32,
            "NORMAL": 33,
            "TEXCOORD_0": 34
          },
          "indices": 35,
          "material": 8,
          "mode": 4
        },
        {
          "attributes": {
            "POSITION": 36,
            "NORMAL": 37,
            "TEXCOORD_0": 38
          },
          "indices": 39,
          "material": 9,
          "mode": 4
        },
        {
          "attributes": {
            "POSITION": 40,
            "NORMAL": 41,
            "TEXCOORD_0": 42
          },
          "indices": 43,
          "material": 10,
          "mode": 4
        },
        {
          "attributes": {
            "POSITION": 44,
            "NORMAL": 45,
            "TEXCOORD_0": 46
          },
          "indices": 47,
          "material": 11,
          "mode": 4
        }
      ]
    }
  ],
  "nodes": [
    {
      "name": "Box003",
      "mesh": 0
    }
  ],
  "samplers": [
    {
      "wrapS": 10497,
      "wrapT": 10497
    }
  ],
  "scene": 0,
  "scenes": [
    {
      "nodes": [
        0
      ]
    }
  ],
  "textures": [
    {
      "name": "SGY_Q5_008",
      "sampler": 0,
      "source": 0
    },
    {
      "name": "SGY_Q5_001",
      "sampler": 0,
      "source": 1
    },
    {
      "name": "SGY_Q5_024",
      "sampler": 0,
      "source": 2
    },
    {
      "name": "SGY_Q5_023",
      "sampler": 0,
      "source": 3
    },
    {
      "name": "SGY_Q5_010",
      "sampler": 0,
      "source": 4
    },
    {
      "name": "SGY_Q5_019",
      "sampler": 0,
      "source": 5
    },
    {
      "name": "SGY_Q5_022",
      "sampler": 0,
      "source": 6
    },
    {
      "name": "SGY_Q5_021",
      "sampler": 0,
      "source": 7
    },
    {
      "name": "SGY_Q5_006",
      "sampler": 0,
      "source": 8
    },
    {
      "name": "SGY_Q5_009",
      "sampler": 0,
      "source": 9
    },
    {
      "name": "SGY_Q5_012",
      "sampler": 0,
      "source": 10
    },
    {
      "name": "SGY_Q5_007",
      "sampler": 0,
      "source": 11
    }
  ]
}
