{"asset":{"version":"2.0","generator":"babylon.js glTF exporter for 3dsmax 2022 v20240125.3"},"scene":0,"scenes":[{"nodes":[0]}],"nodes":[{"mesh":0,"name":"Box005"}],"meshes":[{"primitives":[{"attributes":{"POSITION":1,"NORMAL":2,"TEXCOORD_0":3},"indices":0,"material":0},{"attributes":{"POSITION":5,"NORMAL":6,"TEXCOORD_0":7},"indices":4,"material":1},{"attributes":{"POSITION":9,"NORMAL":10,"TEXCOORD_0":11},"indices":8,"material":2},{"attributes":{"POSITION":13,"NORMAL":14,"TEXCOORD_0":15},"indices":12,"material":3},{"attributes":{"POSITION":17,"NORMAL":18,"TEXCOORD_0":19},"indices":16,"material":4},{"attributes":{"POSITION":21,"NORMAL":22,"TEXCOORD_0":23},"indices":20,"material":5}],"name":"Box005"}],"accessors":[{"bufferView":0,"componentType":5123,"count":282,"type":"SCALAR","name":"accessorIndices"},{"bufferView":1,"componentType":5126,"count":190,"max":[14.3858948,40.4446,31.7758923],"min":[-17.5802612,-40.44461,22.2589817],"type":"VEC3","name":"accessorPositions"},{"bufferView":1,"byteOffset":2280,"componentType":5126,"count":190,"type":"VEC3","name":"accessorNormals"},{"bufferView":2,"componentType":5126,"count":190,"type":"VEC2","name":"accessorUVs"},{"bufferView":0,"byteOffset":564,"componentType":5123,"count":348,"type":"SCALAR","name":"accessorIndices"},{"bufferView":1,"byteOffset":4560,"componentType":5126,"count":230,"max":[12.1144724,40.4446,43.00869],"min":[-13.1975412,-40.44461,0.0024692514],"type":"VEC3","name":"accessorPositions"},{"bufferView":1,"byteOffset":7320,"componentType":5126,"count":230,"type":"VEC3","name":"accessorNormals"},{"bufferView":2,"byteOffset":1520,"componentType":5126,"count":230,"type":"VEC2","name":"accessorUVs"},{"bufferView":0,"byteOffset":1260,"componentType":5123,"count":108,"type":"SCALAR","name":"accessorIndices"},{"bufferView":1,"byteOffset":10080,"componentType":5126,"count":72,"max":[12.1144714,40.444603,13.808217],"min":[-13.19754,-40.44461,0.00246781181],"type":"VEC3","name":"accessorPositions"},{"bufferView":1,"byteOffset":10944,"componentType":5126,"count":72,"type":"VEC3","name":"accessorNormals"},{"bufferView":2,"byteOffset":3360,"componentType":5126,"count":72,"type":"VEC2","name":"accessorUVs"},{"bufferView":0,"byteOffset":1476,"componentType":5123,"count":30,"type":"SCALAR","name":"accessorIndices"},{"bufferView":1,"byteOffset":11808,"componentType":5126,"count":20,"max":[12.1144714,30.2594528,44.2981262],"min":[-13.19754,-32.8498726,33.19768],"type":"VEC3","name":"accessorPositions"},{"bufferView":1,"byteOffset":12048,"componentType":5126,"count":20,"type":"VEC3","name":"accessorNormals"},{"bufferView":2,"byteOffset":3936,"componentType":5126,"count":20,"type":"VEC2","name":"accessorUVs"},{"bufferView":0,"byteOffset":1536,"componentType":5123,"count":1794,"type":"SCALAR","name":"accessorIndices"},{"bufferView":1,"byteOffset":12288,"componentType":5126,"count":683,"max":[14.3858948,40.444603,44.29813],"min":[-17.5802612,-40.44461,0.00246781181],"type":"VEC3","name":"accessorPositions"},{"bufferView":1,"byteOffset":20484,"componentType":5126,"count":683,"type":"VEC3","name":"accessorNormals"},{"bufferView":2,"byteOffset":4096,"componentType":5126,"count":683,"type":"VEC2","name":"accessorUVs"},{"bufferView":0,"byteOffset":5124,"componentType":5123,"count":840,"type":"SCALAR","name":"accessorIndices"},{"bufferView":1,"byteOffset":28680,"componentType":5126,"count":294,"max":[17.5802612,36.9856224,27.99077],"min":[14.0232687,-36.97806,-2.82691326E-05],"type":"VEC3","name":"accessorPositions"},{"bufferView":1,"byteOffset":32208,"componentType":5126,"count":294,"type":"VEC3","name":"accessorNormals"},{"bufferView":2,"byteOffset":9560,"componentType":5126,"count":294,"type":"VEC2","name":"accessorUVs"}],"bufferViews":[{"buffer":0,"byteLength":6804,"name":"bufferViewScalar"},{"buffer":0,"byteOffset":6804,"byteLength":35736,"byteStride":12,"name":"bufferViewFloatVec3"},{"buffer":0,"byteOffset":42540,"byteLength":11912,"byteStride":8,"name":"bufferViewFloatVec2"}],"buffers":[{"uri":"sgy_h2.bin","byteLength":54452}],"materials":[{"pbrMetallicRoughness":{"baseColorTexture":{"index":0},"metallicFactor":0.0,"roughnessFactor":0.450053632},"name":"Material #44460"},{"pbrMetallicRoughness":{"baseColorTexture":{"index":1},"metallicFactor":0.0,"roughnessFactor":0.450053632},"name":"Material #44486"},{"pbrMetallicRoughness":{"baseColorTexture":{"index":2},"metallicFactor":0.0,"roughnessFactor":0.450053632},"name":"Material #44546"},{"pbrMetallicRoughness":{"baseColorTexture":{"index":3},"metallicFactor":0.0,"roughnessFactor":0.450053632},"name":"Material #44602"},{"pbrMetallicRoughness":{"baseColorTexture":{"index":4},"metallicFactor":0.0,"roughnessFactor":0.450053632},"name":"Material #44718"},{"pbrMetallicRoughness":{"baseColorTexture":{"index":5},"metallicFactor":0.0,"roughnessFactor":0.450053632},"name":"Material #44509"}],"textures":[{"sampler":0,"source":0,"name":"sgy_4q_42.jpg"},{"sampler":0,"source":1,"name":"sgy_3q_43.jpg"},{"sampler":0,"source":2,"name":"xgy_x_010.jpg"},{"sampler":0,"source":3,"name":"SGY_q1_160.jpg"},{"sampler":0,"source":4,"name":"sgy_2q_09.jpg"},{"sampler":0,"source":5,"name":"006.jpg"}],"images":[{"uri":"sgy_4q_42.jpg"},{"uri":"sgy_3q_43.jpg"},{"uri":"xgy_x_010.jpg"},{"uri":"SGY_q1_160.jpg"},{"uri":"sgy_2q_09.jpg"},{"uri":"006.jpg"}],"samplers":[{"magFilter":9729,"minFilter":9987}]}