{"asset":{"version":"2.0","generator":"babylon.js glTF exporter for 3dsmax 2022 v20240125.3"},"scene":0,"scenes":[{"nodes":[0]}],"nodes":[{"mesh":0,"name":"Plane001"}],"meshes":[{"primitives":[{"attributes":{"POSITION":1,"NORMAL":2,"TEXCOORD_0":3},"indices":0,"material":0},{"attributes":{"POSITION":5,"NORMAL":6,"TEXCOORD_0":7},"indices":4,"material":1},{"attributes":{"POSITION":9,"NORMAL":10,"TEXCOORD_0":11},"indices":8,"material":2},{"attributes":{"POSITION":13,"NORMAL":14,"TEXCOORD_0":15},"indices":12,"material":3},{"attributes":{"POSITION":17,"NORMAL":18,"TEXCOORD_0":19},"indices":16,"material":4}],"name":"Plane001"}],"accessors":[{"bufferView":0,"componentType":5123,"count":264,"type":"SCALAR","name":"accessorIndices"},{"bufferView":1,"componentType":5126,"count":102,"max":[6.40667343,2.936408,3.336835],"min":[-6.676201,-2.853054,3.023529],"type":"VEC3","name":"accessorPositions"},{"bufferView":1,"byteOffset":1224,"componentType":5126,"count":102,"type":"VEC3","name":"accessorNormals"},{"bufferView":2,"componentType":5126,"count":102,"type":"VEC2","name":"accessorUVs"},{"bufferView":0,"byteOffset":528,"componentType":5123,"count":30,"type":"SCALAR","name":"accessorIndices"},{"bufferView":1,"byteOffset":2448,"componentType":5126,"count":20,"max":[7.003109,3.5,0.188793868],"min":[-7.003111,-3.5,-7.599592E-07],"type":"VEC3","name":"accessorPositions"},{"bufferView":1,"byteOffset":2688,"componentType":5126,"count":20,"type":"VEC3","name":"accessorNormals"},{"bufferView":2,"byteOffset":816,"componentType":5126,"count":20,"type":"VEC2","name":"accessorUVs"},{"bufferView":0,"byteOffset":588,"componentType":5123,"count":1065,"type":"SCALAR","name":"accessorIndices"},{"bufferView":1,"byteOffset":2928,"componentType":5126,"count":324,"max":[5.91482449,2.49972725,3.02353],"min":[-6.140833,-2.42745614,0.188792944],"type":"VEC3","name":"accessorPositions"},{"bufferView":1,"byteOffset":6816,"componentType":5126,"count":324,"type":"VEC3","name":"accessorNormals"},{"bufferView":2,"byteOffset":976,"componentType":5126,"count":324,"type":"VEC2","name":"accessorUVs"},{"bufferView":0,"byteOffset":2720,"componentType":5123,"count":18,"type":"SCALAR","name":"accessorIndices"},{"bufferView":1,"byteOffset":10704,"componentType":5126,"count":12,"max":[-1.38331747,-2.23013163,3.023529],"min":[-5.640833,-2.42745614,0.1887929],"type":"VEC3","name":"accessorPositions"},{"bufferView":1,"byteOffset":10848,"componentType":5126,"count":12,"type":"VEC3","name":"accessorNormals"},{"bufferView":2,"byteOffset":3568,"componentType":5126,"count":12,"type":"VEC2","name":"accessorUVs"},{"bufferView":0,"byteOffset":2756,"componentType":5123,"count":72,"type":"SCALAR","name":"accessorIndices"},{"bufferView":1,"byteOffset":10992,"componentType":5126,"count":40,"max":[5.91482449,2.499727,2.5907712],"min":[-6.140833,-0.522027135,0.188793212],"type":"VEC3","name":"accessorPositions"},{"bufferView":1,"byteOffset":11472,"componentType":5126,"count":40,"type":"VEC3","name":"accessorNormals"},{"bufferView":2,"byteOffset":3664,"componentType":5126,"count":40,"type":"VEC2","name":"accessorUVs"}],"bufferViews":[{"buffer":0,"byteLength":2900,"name":"bufferViewScalar"},{"buffer":0,"byteOffset":2900,"byteLength":11952,"byteStride":12,"name":"bufferViewFloatVec3"},{"buffer":0,"byteOffset":14852,"byteLength":3984,"byteStride":8,"name":"bufferViewFloatVec2"}],"buffers":[{"uri":"sgy_ydhj_06.bin","byteLength":18836}],"materials":[{"pbrMetallicRoughness":{"baseColorTexture":{"index":0},"metallicFactor":0.0,"roughnessFactor":0.450053632},"name":"Material #46507"},{"pbrMetallicRoughness":{"baseColorTexture":{"index":1},"metallicFactor":0.0,"roughnessFactor":0.450053632},"name":"Material #46577"},{"pbrMetallicRoughness":{"baseColorTexture":{"index":2},"metallicFactor":0.0,"roughnessFactor":0.450053632},"name":"Material #46651"},{"pbrMetallicRoughness":{"baseColorTexture":{"index":3},"metallicFactor":0.0,"roughnessFactor":0.450053632},"name":"Material #46652"},{"pbrMetallicRoughness":{"baseColorTexture":{"index":4},"metallicFactor":0.0,"roughnessFactor":0.450053632},"name":"Material #46664"}],"textures":[{"sampler":0,"source":0,"name":"sgy_3q_15.jpg"},{"sampler":0,"source":1,"name":"shhw_q_03.jpg"},{"sampler":0,"source":2,"name":"sgy_yd_11.jpg"},{"sampler":0,"source":3,"name":"sgy_yd_12.jpg"},{"sampler":0,"source":4,"name":"SGY_H11.jpg"}],"images":[{"uri":"sgy_3q_15.jpg"},{"uri":"shhw_q_03.jpg"},{"uri":"sgy_yd_11.jpg"},{"uri":"sgy_yd_12.jpg"},{"uri":"SGY_H11.jpg"}],"samplers":[{"magFilter":9729,"minFilter":9987}]}