{
  "accessors": [
    {
      "name": "Box002_1_0_positions",
      "componentType": 5126,
      "count": 112,
      "min": [
        -11.83650016784668,
        -421.9584045410156,
        0
      ],
      "max": [
        11.812800407409668,
        424.3843994140625,
        62.16019821166992
      ],
      "type": "VEC3",
      "bufferView": 0,
      "byteOffset": 0
    },
    {
      "name": "Box002_1_0_normals",
      "componentType": 5126,
      "count": 112,
      "min": [
        -1,
        -1,
        0
      ],
      "max": [
        1,
        1,
        0
      ],
      "type": "VEC3",
      "bufferView": 1,
      "byteOffset": 0
    },
    {
      "name": "Box002_1_0_texcoords",
      "componentType": 5126,
      "count": 112,
      "min": [
        -10.902700424194336,
        0
      ],
      "max": [
        18.004899978637695,
        1
      ],
      "type": "VEC2",
      "bufferView": 2,
      "byteOffset": 0
    },
    {
      "name": "Box002_1_0_indices",
      "componentType": 5123,
      "count": 168,
      "min": [
        0
      ],
      "max": [
        111
      ],
      "type": "SCALAR",
      "bufferView": 3,
      "byteOffset": 0
    },
    {
      "name": "Box002_1_1_positions",
      "componentType": 5126,
      "count": 34,
      "min": [
        -15.425200462341309,
        -434.6864929199219,
        38.558101654052734
      ],
      "max": [
        15.425200462341309,
        434.6864929199219,
        48.54600143432617
      ],
      "type": "VEC3",
      "bufferView": 0,
      "byteOffset": 1344
    },
    {
      "name": "Box002_1_1_normals",
      "componentType": 5126,
      "count": 34,
      "min": [
        -1,
        -1,
        -1
      ],
      "max": [
        1,
        1,
        0
      ],
      "type": "VEC3",
      "bufferView": 1,
      "byteOffset": 1344
    },
    {
      "name": "Box002_1_1_texcoords",
      "componentType": 5126,
      "count": 34,
      "min": [
        0,
        0
      ],
      "max": [
        1,
        0
      ],
      "type": "VEC2",
      "bufferView": 2,
      "byteOffset": 896
    },
    {
      "name": "Box002_1_1_indices",
      "componentType": 5123,
      "count": 54,
      "min": [
        0
      ],
      "max": [
        33
      ],
      "type": "SCALAR",
      "bufferView": 3,
      "byteOffset": 336
    },
    {
      "name": "Box002_1_2_positions",
      "componentType": 5126,
      "count": 12,
      "min": [
        -15.425200462341309,
        -434.6864929199219,
        39.73749923706055
      ],
      "max": [
        15.425200462341309,
        434.6864929199219,
        48.54600143432617
      ],
      "type": "VEC3",
      "bufferView": 0,
      "byteOffset": 1752
    },
    {
      "name": "Box002_1_2_normals",
      "componentType": 5126,
      "count": 12,
      "min": [
        -0.4958912432193756,
        0,
        0.8683846592903137
      ],
      "max": [
        0.4958912432193756,
        0,
        0.8683846592903137
      ],
      "type": "VEC3",
      "bufferView": 1,
      "byteOffset": 1752
    },
    {
      "name": "Box002_1_2_texcoords",
      "componentType": 5126,
      "count": 12,
      "min": [
        -0.0006000000284984708,
        -0.0006000000284984708
      ],
      "max": [
        14.577099800109863,
        0.9842000007629395
      ],
      "type": "VEC2",
      "bufferView": 2,
      "byteOffset": 1168
    },
    {
      "name": "Box002_1_2_indices",
      "componentType": 5123,
      "count": 12,
      "min": [
        0
      ],
      "max": [
        11
      ],
      "type": "SCALAR",
      "bufferView": 3,
      "byteOffset": 444
    },
    {
      "name": "Box002_1_3_positions",
      "componentType": 5126,
      "count": 204,
      "min": [
        -14.245499610900879,
        -424.2171936035156,
        61.870201110839844
      ],
      "max": [
        14.221799850463867,
        421.6228942871094,
        64.43060302734375
      ],
      "type": "VEC3",
      "bufferView": 0,
      "byteOffset": 1896
    },
    {
      "name": "Box002_1_3_normals",
      "componentType": 5126,
      "count": 204,
      "min": [
        -1,
        -1,
        -1
      ],
      "max": [
        1,
        1,
        1
      ],
      "type": "VEC3",
      "bufferView": 1,
      "byteOffset": 1896
    },
    {
      "name": "Box002_1_3_texcoords",
      "componentType": 5126,
      "count": 204,
      "min": [
        0,
        0
      ],
      "max": [
        1,
        0
      ],
      "type": "VEC2",
      "bufferView": 2,
      "byteOffset": 1264
    },
    {
      "name": "Box002_1_3_indices",
      "componentType": 5123,
      "count": 306,
      "min": [
        0
      ],
      "max": [
        203
      ],
      "type": "SCALAR",
      "bufferView": 3,
      "byteOffset": 468
    }
  ],
  "asset": {
    "generator": "obj2gltf",
    "version": "2.0"
  },
  "buffers": [
    {
      "name": "SG_cfz",
      "byteLength": 12664,
      "uri": "data:application/octet-stream;base64,"
    }
  ],
  "bufferViews": [
    {
      "name": "bufferView_0",
      "buffer": 0,
      "byteLength": 4344,
      "byteOffset": 0,
      "byteStride": 12,
      "target": 34962
    },
    {
      "name": "bufferView_1",
      "buffer": 0,
      "byteLength": 4344,
      "byteOffset": 4344,
      "byteStride": 12,
      "target": 34962
    },
    {
      "name": "bufferView_2",
      "buffer": 0,
      "byteLength": 2896,
      "byteOffset": 8688,
      "byteStride": 8,
      "target": 34962
    },
    {
      "name": "bufferView_3",
      "buffer": 0,
      "byteLength": 1080,
      "byteOffset": 11584,
      "target": 34963
    }
  ],
  "images": [
    {
      "name": "018",
      "uri": "018.jpg"
    },
    {
      "name": "008",
      "uri": "008.jpg"
    },
    {
      "name": "017",
      "uri": "017.jpg"
    }
  ],
  "materials": [
    {
      "name": "Material__60",
      "pbrMetallicRoughness": {
        "baseColorTexture": {
          "index": 0
        },
        "baseColorFactor": [
          1,
          1,
          1,
          1
        ],
        "metallicFactor": 0,
        "roughnessFactor": 0.99
      },
      "emissiveFactor": [
        0,
        0,
        0
      ],
      "alphaMode": "OPAQUE",
      "doubleSided": false
    },
    {
      "name": "Material__84",
      "pbrMetallicRoughness": {
        "baseColorTexture": {
          "index": 1
        },
        "baseColorFactor": [
          1,
          1,
          1,
          1
        ],
        "metallicFactor": 0,
        "roughnessFactor": 0.99
      },
      "emissiveFactor": [
        0,
        0,
        0
      ],
      "alphaMode": "OPAQUE",
      "doubleSided": false
    },
    {
      "name": "Material__25",
      "pbrMetallicRoughness": {
        "baseColorTexture": {
          "index": 2
        },
        "baseColorFactor": [
          1,
          1,
          1,
          1
        ],
        "metallicFactor": 0,
        "roughnessFactor": 0.99
      },
      "emissiveFactor": [
        0,
        0,
        0
      ],
      "alphaMode": "OPAQUE",
      "doubleSided": false
    },
    {
      "name": "Material__59",
      "pbrMetallicRoughness": {
        "baseColorTexture": {
          "index": 1
        },
        "baseColorFactor": [
          1,
          1,
          1,
          1
        ],
        "metallicFactor": 0,
        "roughnessFactor": 0.99
      },
      "emissiveFactor": [
        0,
        0,
        0
      ],
      "alphaMode": "OPAQUE",
      "doubleSided": false
    }
  ],
  "meshes": [
    {
      "name": "Box002_1",
      "primitives": [
        {
          "attributes": {
            "POSITION": 0,
            "NORMAL": 1,
            "TEXCOORD_0": 2
          },
          "indices": 3,
          "material": 0,
          "mode": 4
        },
        {
          "attributes": {
            "POSITION": 4,
            "NORMAL": 5,
            "TEXCOORD_0": 6
          },
          "indices": 7,
          "material": 1,
          "mode": 4
        },
        {
          "attributes": {
            "POSITION": 8,
            "NORMAL": 9,
            "TEXCOORD_0": 10
          },
          "indices": 11,
          "material": 2,
          "mode": 4
        },
        {
          "attributes": {
            "POSITION": 12,
            "NORMAL": 13,
            "TEXCOORD_0": 14
          },
          "indices": 15,
          "material": 3,
          "mode": 4
        }
      ]
    }
  ],
  "nodes": [
    {
      "name": "Box002",
      "mesh": 0
    }
  ],
  "samplers": [
    {
      "wrapS": 10497,
      "wrapT": 10497
    }
  ],
  "scene": 0,
  "scenes": [
    {
      "nodes": [
        0
      ]
    }
  ],
  "textures": [
    {
      "name": "018",
      "sampler": 0,
      "source": 0
    },
    {
      "name": "008",
      "sampler": 0,
      "source": 1
    },
    {
      "name": "017",
      "sampler": 0,
      "source": 2
    }
  ]
}
