{
  "accessors": [
    {
      "name": "Box001_1_0_positions",
      "componentType": 5126,
      "count": 16,
      "min": [
        -20.516700744628906,
        -7.698699951171875,
        11.26729965209961
      ],
      "max": [
        20.25119972229004,
        7.540900230407715,
        13.170900344848633
      ],
      "type": "VEC3",
      "bufferView": 0,
      "byteOffset": 0
    },
    {
      "name": "Box001_1_0_normals",
      "componentType": 5126,
      "count": 16,
      "min": [
        0,
        -0.24239444732666016,
        0.9701777696609497
      ],
      "max": [
        0,
        0.24239444732666016,
        1
      ],
      "type": "VEC3",
      "bufferView": 1,
      "byteOffset": 0
    },
    {
      "name": "Box001_1_0_texcoords",
      "componentType": 5126,
      "count": 16,
      "min": [
        -5.28439998626709,
        -5.28439998626709
      ],
      "max": [
        6.28439998626709,
        6.28439998626709
      ],
      "type": "VEC2",
      "bufferView": 2,
      "byteOffset": 0
    },
    {
      "name": "Box001_1_0_indices",
      "componentType": 5123,
      "count": 24,
      "min": [
        0
      ],
      "max": [
        15
      ],
      "type": "SCALAR",
      "bufferView": 3,
      "byteOffset": 0
    },
    {
      "name": "Box001_1_1_positions",
      "componentType": 5126,
      "count": 8,
      "min": [
        -20.13520050048828,
        -7.38129997253418,
        0
      ],
      "max": [
        10.210399627685547,
        7.223700046539307,
        10.88700008392334
      ],
      "type": "VEC3",
      "bufferView": 0,
      "byteOffset": 192
    },
    {
      "name": "Box001_1_1_normals",
      "componentType": 5126,
      "count": 8,
      "min": [
        0,
        -1,
        0
      ],
      "max": [
        0,
        1,
        0
      ],
      "type": "VEC3",
      "bufferView": 1,
      "byteOffset": 192
    },
    {
      "name": "Box001_1_1_texcoords",
      "componentType": 5126,
      "count": 8,
      "min": [
        -0.12039999663829803,
        -0.9031000137329102
      ],
      "max": [
        0.9897000193595886,
        2.087599992752075
      ],
      "type": "VEC2",
      "bufferView": 2,
      "byteOffset": 128
    },
    {
      "name": "Box001_1_1_indices",
      "componentType": 5123,
      "count": 12,
      "min": [
        0
      ],
      "max": [
        7
      ],
      "type": "SCALAR",
      "bufferView": 3,
      "byteOffset": 48
    },
    {
      "name": "Box001_1_2_positions",
      "componentType": 5126,
      "count": 12,
      "min": [
        -20.13520050048828,
        -7.38129997253418,
        10.88700008392334
      ],
      "max": [
        19.869800567626953,
        7.223700046539307,
        12.703900337219238
      ],
      "type": "VEC3",
      "bufferView": 0,
      "byteOffset": 288
    },
    {
      "name": "Box001_1_2_normals",
      "componentType": 5126,
      "count": 12,
      "min": [
        -1,
        0,
        0
      ],
      "max": [
        1,
        0,
        0
      ],
      "type": "VEC3",
      "bufferView": 1,
      "byteOffset": 288
    },
    {
      "name": "Box001_1_2_texcoords",
      "componentType": 5126,
      "count": 12,
      "min": [
        0.00570000009611249,
        0.01769999973475933
      ],
      "max": [
        0.9972000122070312,
        0.978600025177002
      ],
      "type": "VEC2",
      "bufferView": 2,
      "byteOffset": 192
    },
    {
      "name": "Box001_1_2_indices",
      "componentType": 5123,
      "count": 12,
      "min": [
        0
      ],
      "max": [
        11
      ],
      "type": "SCALAR",
      "bufferView": 3,
      "byteOffset": 72
    },
    {
      "name": "Box001_1_3_positions",
      "componentType": 5126,
      "count": 8,
      "min": [
        10.210399627685547,
        -7.38129997253418,
        0
      ],
      "max": [
        19.869800567626953,
        7.223700046539307,
        10.88700008392334
      ],
      "type": "VEC3",
      "bufferView": 0,
      "byteOffset": 432
    },
    {
      "name": "Box001_1_3_normals",
      "componentType": 5126,
      "count": 8,
      "min": [
        0,
        -1,
        0
      ],
      "max": [
        0,
        1,
        0
      ],
      "type": "VEC3",
      "bufferView": 1,
      "byteOffset": 432
    },
    {
      "name": "Box001_1_3_texcoords",
      "componentType": 5126,
      "count": 8,
      "min": [
        -0.9476000070571899,
        -0.891700029373169
      ],
      "max": [
        1.0023000240325928,
        2.1068999767303467
      ],
      "type": "VEC2",
      "bufferView": 2,
      "byteOffset": 288
    },
    {
      "name": "Box001_1_3_indices",
      "componentType": 5123,
      "count": 12,
      "min": [
        0
      ],
      "max": [
        7
      ],
      "type": "SCALAR",
      "bufferView": 3,
      "byteOffset": 96
    },
    {
      "name": "Box001_1_4_positions",
      "componentType": 5126,
      "count": 70,
      "min": [
        -20.516700744628906,
        -7.698699951171875,
        10.88700008392334
      ],
      "max": [
        20.25119972229004,
        7.540999889373779,
        13.170900344848633
      ],
      "type": "VEC3",
      "bufferView": 0,
      "byteOffset": 528
    },
    {
      "name": "Box001_1_4_normals",
      "componentType": 5126,
      "count": 70,
      "min": [
        -1,
        -1,
        -0.9805653095245361
      ],
      "max": [
        1,
        0.9999999403953552,
        0.0003999999607913196
      ],
      "type": "VEC3",
      "bufferView": 1,
      "byteOffset": 528
    },
    {
      "name": "Box001_1_4_texcoords",
      "componentType": 5126,
      "count": 70,
      "min": [
        0,
        0
      ],
      "max": [
        1,
        0.04659999907016754
      ],
      "type": "VEC2",
      "bufferView": 2,
      "byteOffset": 352
    },
    {
      "name": "Box001_1_4_indices",
      "componentType": 5123,
      "count": 96,
      "min": [
        0
      ],
      "max": [
        69
      ],
      "type": "SCALAR",
      "bufferView": 3,
      "byteOffset": 120
    },
    {
      "name": "Box001_1_5_positions",
      "componentType": 5126,
      "count": 12,
      "min": [
        -20.13520050048828,
        -7.38129997253418,
        0
      ],
      "max": [
        19.869800567626953,
        7.223700046539307,
        10.88700008392334
      ],
      "type": "VEC3",
      "bufferView": 0,
      "byteOffset": 1368
    },
    {
      "name": "Box001_1_5_normals",
      "componentType": 5126,
      "count": 12,
      "min": [
        -1,
        0,
        0
      ],
      "max": [
        1,
        0,
        0
      ],
      "type": "VEC3",
      "bufferView": 1,
      "byteOffset": 1368
    },
    {
      "name": "Box001_1_5_texcoords",
      "componentType": 5126,
      "count": 12,
      "min": [
        0.004399999976158142,
        -0.9046000242233276
      ],
      "max": [
        0.9469000101089478,
        2.09689998626709
      ],
      "type": "VEC2",
      "bufferView": 2,
      "byteOffset": 912
    },
    {
      "name": "Box001_1_5_indices",
      "componentType": 5123,
      "count": 24,
      "min": [
        0
      ],
      "max": [
        11
      ],
      "type": "SCALAR",
      "bufferView": 3,
      "byteOffset": 312
    },
    {
      "name": "Box001_1_6_positions",
      "componentType": 5126,
      "count": 118,
      "min": [
        -22.359899520874023,
        -9.276200294494629,
        0.00430000014603138
      ],
      "max": [
        22.359899520874023,
        9.276200294494629,
        3.688999891281128
      ],
      "type": "VEC3",
      "bufferView": 0,
      "byteOffset": 1512
    },
    {
      "name": "Box001_1_6_normals",
      "componentType": 5126,
      "count": 118,
      "min": [
        -1,
        -1,
        -1
      ],
      "max": [
        1,
        1,
        1
      ],
      "type": "VEC3",
      "bufferView": 1,
      "byteOffset": 1512
    },
    {
      "name": "Box001_1_6_texcoords",
      "componentType": 5126,
      "count": 118,
      "min": [
        0,
        0
      ],
      "max": [
        1,
        1
      ],
      "type": "VEC2",
      "bufferView": 2,
      "byteOffset": 1008
    },
    {
      "name": "Box001_1_6_indices",
      "componentType": 5123,
      "count": 174,
      "min": [
        0
      ],
      "max": [
        117
      ],
      "type": "SCALAR",
      "bufferView": 3,
      "byteOffset": 360
    },
    {
      "name": "Box001_1_7_positions",
      "componentType": 5126,
      "count": 28,
      "min": [
        -22.027099609375,
        -8.943499565124512,
        0
      ],
      "max": [
        22.027099609375,
        8.943499565124512,
        2.9491000175476074
      ],
      "type": "VEC3",
      "bufferView": 0,
      "byteOffset": 2928
    },
    {
      "name": "Box001_1_7_normals",
      "componentType": 5126,
      "count": 28,
      "min": [
        -1,
        -1,
        0
      ],
      "max": [
        1,
        1,
        0
      ],
      "type": "VEC3",
      "bufferView": 1,
      "byteOffset": 2928
    },
    {
      "name": "Box001_1_7_texcoords",
      "componentType": 5126,
      "count": 28,
      "min": [
        -4.215799808502197,
        0
      ],
      "max": [
        1,
        1
      ],
      "type": "VEC2",
      "bufferView": 2,
      "byteOffset": 1952
    },
    {
      "name": "Box001_1_7_indices",
      "componentType": 5123,
      "count": 42,
      "min": [
        0
      ],
      "max": [
        27
      ],
      "type": "SCALAR",
      "bufferView": 3,
      "byteOffset": 708
    }
  ],
  "asset": {
    "generator": "obj2gltf",
    "version": "2.0"
  },
  "buffers": [
    {
      "name": "Q1",
      "byteLength": 9496,
      "uri": "data:application/octet-stream;base64,"
    }
  ],
  "bufferViews": [
    {
      "name": "bufferView_0",
      "buffer": 0,
      "byteLength": 3264,
      "byteOffset": 0,
      "byteStride": 12,
      "target": 34962
    },
    {
      "name": "bufferView_1",
      "buffer": 0,
      "byteLength": 3264,
      "byteOffset": 3264,
      "byteStride": 12,
      "target": 34962
    },
    {
      "name": "bufferView_2",
      "buffer": 0,
      "byteLength": 2176,
      "byteOffset": 6528,
      "byteStride": 8,
      "target": 34962
    },
    {
      "name": "bufferView_3",
      "buffer": 0,
      "byteLength": 792,
      "byteOffset": 8704,
      "target": 34963
    }
  ],
  "images": [
    {
      "name": "SGY_Q1_015",
      "uri": "SGY_Q1_015.jpg"
    },
    {
      "name": "SGY_q1_036",
      "uri": "SGY_q1_036.jpg"
    },
    {
      "name": "SGY_q1_034",
      "uri": "SGY_q1_034.jpg"
    },
    {
      "name": "SGY_Q1_013",
      "uri": "SGY_Q1_013.jpg"
    },
    {
      "name": "SGY_Q1_016",
      "uri": "SGY_Q1_016.jpg"
    },
    {
      "name": "SGY_q1_033",
      "uri": "SGY_q1_033.jpg"
    },
    {
      "name": "SGY_q1_038",
      "uri": "SGY_q1_038.jpg"
    },
    {
      "name": "SGY_q1_037",
      "uri": "SGY_q1_037.jpg"
    }
  ],
  "materials": [
    {
      "name": "Material__488",
      "pbrMetallicRoughness": {
        "baseColorTexture": {
          "index": 0
        },
        "baseColorFactor": [
          1,
          1,
          1,
          1
        ],
        "metallicFactor": 0,
        "roughnessFactor": 0.99
      },
      "emissiveFactor": [
        0,
        0,
        0
      ],
      "alphaMode": "OPAQUE",
      "doubleSided": false
    },
    {
      "name": "Material__373",
      "pbrMetallicRoughness": {
        "baseColorTexture": {
          "index": 1
        },
        "baseColorFactor": [
          1,
          1,
          1,
          1
        ],
        "metallicFactor": 0,
        "roughnessFactor": 0.99
      },
      "emissiveFactor": [
        0,
        0,
        0
      ],
      "alphaMode": "OPAQUE",
      "doubleSided": false
    },
    {
      "name": "Material__305",
      "pbrMetallicRoughness": {
        "baseColorTexture": {
          "index": 2
        },
        "baseColorFactor": [
          1,
          1,
          1,
          1
        ],
        "metallicFactor": 0,
        "roughnessFactor": 0.99
      },
      "emissiveFactor": [
        0,
        0,
        0
      ],
      "alphaMode": "OPAQUE",
      "doubleSided": false
    },
    {
      "name": "Material__464",
      "pbrMetallicRoughness": {
        "baseColorTexture": {
          "index": 3
        },
        "baseColorFactor": [
          1,
          1,
          1,
          1
        ],
        "metallicFactor": 0,
        "roughnessFactor": 0.99
      },
      "emissiveFactor": [
        0,
        0,
        0
      ],
      "alphaMode": "OPAQUE",
      "doubleSided": false
    },
    {
      "name": "Material__476",
      "pbrMetallicRoughness": {
        "baseColorTexture": {
          "index": 4
        },
        "baseColorFactor": [
          1,
          1,
          1,
          1
        ],
        "metallicFactor": 0,
        "roughnessFactor": 0.99
      },
      "emissiveFactor": [
        0,
        0,
        0
      ],
      "alphaMode": "OPAQUE",
      "doubleSided": false
    },
    {
      "name": "Material__293",
      "pbrMetallicRoughness": {
        "baseColorTexture": {
          "index": 5
        },
        "baseColorFactor": [
          1,
          1,
          1,
          1
        ],
        "metallicFactor": 0,
        "roughnessFactor": 0.99
      },
      "emissiveFactor": [
        0,
        0,
        0
      ],
      "alphaMode": "OPAQUE",
      "doubleSided": false
    },
    {
      "name": "Material__501",
      "pbrMetallicRoughness": {
        "baseColorTexture": {
          "index": 6
        },
        "baseColorFactor": [
          1,
          1,
          1,
          1
        ],
        "metallicFactor": 0,
        "roughnessFactor": 0.99
      },
      "emissiveFactor": [
        0,
        0,
        0
      ],
      "alphaMode": "OPAQUE",
      "doubleSided": false
    },
    {
      "name": "Material__500",
      "pbrMetallicRoughness": {
        "baseColorTexture": {
          "index": 7
        },
        "baseColorFactor": [
          1,
          1,
          1,
          1
        ],
        "metallicFactor": 0,
        "roughnessFactor": 0.99
      },
      "emissiveFactor": [
        0,
        0,
        0
      ],
      "alphaMode": "OPAQUE",
      "doubleSided": false
    }
  ],
  "meshes": [
    {
      "name": "Box001_1",
      "primitives": [
        {
          "attributes": {
            "POSITION": 0,
            "NORMAL": 1,
            "TEXCOORD_0": 2
          },
          "indices": 3,
          "material": 0,
          "mode": 4
        },
        {
          "attributes": {
            "POSITION": 4,
            "NORMAL": 5,
            "TEXCOORD_0": 6
          },
          "indices": 7,
          "material": 1,
          "mode": 4
        },
        {
          "attributes": {
            "POSITION": 8,
            "NORMAL": 9,
            "TEXCOORD_0": 10
          },
          "indices": 11,
          "material": 2,
          "mode": 4
        },
        {
          "attributes": {
            "POSITION": 12,
            "NORMAL": 13,
            "TEXCOORD_0": 14
          },
          "indices": 15,
          "material": 3,
          "mode": 4
        },
        {
          "attributes": {
            "POSITION": 16,
            "NORMAL": 17,
            "TEXCOORD_0": 18
          },
          "indices": 19,
          "material": 4,
          "mode": 4
        },
        {
          "attributes": {
            "POSITION": 20,
            "NORMAL": 21,
            "TEXCOORD_0": 22
          },
          "indices": 23,
          "material": 5,
          "mode": 4
        },
        {
          "attributes": {
            "POSITION": 24,
            "NORMAL": 25,
            "TEXCOORD_0": 26
          },
          "indices": 27,
          "material": 6,
          "mode": 4
        },
        {
          "attributes": {
            "POSITION": 28,
            "NORMAL": 29,
            "TEXCOORD_0": 30
          },
          "indices": 31,
          "material": 7,
          "mode": 4
        }
      ]
    }
  ],
  "nodes": [
    {
      "name": "Box001",
      "mesh": 0
    }
  ],
  "samplers": [
    {
      "wrapS": 10497,
      "wrapT": 10497
    }
  ],
  "scene": 0,
  "scenes": [
    {
      "nodes": [
        0
      ]
    }
  ],
  "textures": [
    {
      "name": "SGY_Q1_015",
      "sampler": 0,
      "source": 0
    },
    {
      "name": "SGY_q1_036",
      "sampler": 0,
      "source": 1
    },
    {
      "name": "SGY_q1_034",
      "sampler": 0,
      "source": 2
    },
    {
      "name": "SGY_Q1_013",
      "sampler": 0,
      "source": 3
    },
    {
      "name": "SGY_Q1_016",
      "sampler": 0,
      "source": 4
    },
    {
      "name": "SGY_q1_033",
      "sampler": 0,
      "source": 5
    },
    {
      "name": "SGY_q1_038",
      "sampler": 0,
      "source": 6
    },
    {
      "name": "SGY_q1_037",
      "sampler": 0,
      "source": 7
    }
  ]
}
