{
  "accessors": [
    {
      "name": "polySurface59_1_0_positions",
      "componentType": 5126,
      "count": 88,
      "min": [
        -4.675429821014404,
        -2.193553924560547,
        0
      ],
      "max": [
        4.675429821014404,
        2.1836020946502686,
        1.4298679828643799
      ],
      "type": "VEC3",
      "bufferView": 0,
      "byteOffset": 0
    },
    {
      "name": "polySurface59_1_0_normals",
      "componentType": 5126,
      "count": 88,
      "min": [
        -0.9993322491645813,
        -0.9998131394386292,
        -0.046875983476638794
      ],
      "max": [
        0.9999943971633911,
        0.9986453056335449,
        0.9999997019767761
      ],
      "type": "VEC3",
      "bufferView": 1,
      "byteOffset": 0
    },
    {
      "name": "polySurface59_1_0_texcoords",
      "componentType": 5126,
      "count": 88,
      "min": [
        -0.02429099939763546,
        -0.7632449865341187
      ],
      "max": [
        1.0095189809799194,
        1
      ],
      "type": "VEC2",
      "bufferView": 2,
      "byteOffset": 0
    },
    {
      "name": "polySurface59_1_0_indices",
      "componentType": 5123,
      "count": 168,
      "min": [
        0
      ],
      "max": [
        87
      ],
      "type": "SCALAR",
      "bufferView": 3,
      "byteOffset": 0
    },
    {
      "name": "polySurface59_1_1_positions",
      "componentType": 5126,
      "count": 8,
      "min": [
        2.5062410831451416,
        -0.04435500130057335,
        0
      ],
      "max": [
        4.054478168487549,
        1.502223014831543,
        1.4250290393829346
      ],
      "type": "VEC3",
      "bufferView": 0,
      "byteOffset": 1056
    },
    {
      "name": "polySurface59_1_1_normals",
      "componentType": 5126,
      "count": 8,
      "min": [
        -0.8976477384567261,
        -0.9185687303543091,
        -0.046875983476638794
      ],
      "max": [
        -0.39247187972068787,
        -0.44014087319374084,
        -0.022460993379354477
      ],
      "type": "VEC3",
      "bufferView": 1,
      "byteOffset": 1056
    },
    {
      "name": "polySurface59_1_1_texcoords",
      "componentType": 5126,
      "count": 8,
      "min": [
        0.014658999629318714,
        -0.7632449865341187
      ],
      "max": [
        1.0113379955291748,
        -0.3256010115146637
      ],
      "type": "VEC2",
      "bufferView": 2,
      "byteOffset": 704
    },
    {
      "name": "polySurface59_1_1_indices",
      "componentType": 5123,
      "count": 12,
      "min": [
        0
      ],
      "max": [
        7
      ],
      "type": "SCALAR",
      "bufferView": 3,
      "byteOffset": 336
    },
    {
      "name": "polySurface59_1_2_positions",
      "componentType": 5126,
      "count": 48,
      "min": [
        -4.675429821014404,
        -2.193553924560547,
        0
      ],
      "max": [
        4.675429821014404,
        2.1836020946502686,
        1.4298679828643799
      ],
      "type": "VEC3",
      "bufferView": 0,
      "byteOffset": 1152
    },
    {
      "name": "polySurface59_1_2_normals",
      "componentType": 5126,
      "count": 48,
      "min": [
        -1,
        -1,
        -0.03271700441837311
      ],
      "max": [
        0.9993239641189575,
        1,
        0.02552301250398159
      ],
      "type": "VEC3",
      "bufferView": 1,
      "byteOffset": 1152
    },
    {
      "name": "polySurface59_1_2_texcoords",
      "componentType": 5126,
      "count": 48,
      "min": [
        -6.035656929016113,
        -0.495279997587204
      ],
      "max": [
        6.9977850914001465,
        1.5470900535583496
      ],
      "type": "VEC2",
      "bufferView": 2,
      "byteOffset": 768
    },
    {
      "name": "polySurface59_1_2_indices",
      "componentType": 5123,
      "count": 102,
      "min": [
        0
      ],
      "max": [
        47
      ],
      "type": "SCALAR",
      "bufferView": 3,
      "byteOffset": 360
    },
    {
      "name": "polySurface59_1_3_positions",
      "componentType": 5126,
      "count": 816,
      "min": [
        -4.597288131713867,
        -2.2199630737304688,
        0.8903800249099731
      ],
      "max": [
        4.583991050720215,
        2.109890937805176,
        2.4888970851898193
      ],
      "type": "VEC3",
      "bufferView": 0,
      "byteOffset": 1728
    },
    {
      "name": "polySurface59_1_3_normals",
      "componentType": 5126,
      "count": 816,
      "min": [
        -1,
        -1,
        -1
      ],
      "max": [
        1,
        1,
        1
      ],
      "type": "VEC3",
      "bufferView": 1,
      "byteOffset": 1728
    },
    {
      "name": "polySurface59_1_3_texcoords",
      "componentType": 5126,
      "count": 816,
      "min": [
        0,
        0.08602199703454971
      ],
      "max": [
        1,
        1
      ],
      "type": "VEC2",
      "bufferView": 2,
      "byteOffset": 1152
    },
    {
      "name": "polySurface59_1_3_indices",
      "componentType": 5123,
      "count": 1224,
      "min": [
        0
      ],
      "max": [
        815
      ],
      "type": "SCALAR",
      "bufferView": 3,
      "byteOffset": 564
    }
  ],
  "asset": {
    "generator": "obj2gltf",
    "version": "2.0"
  },
  "buffers": [
    {
      "name": "tc_01",
      "byteLength": 33732,
      "uri": "data:application/octet-stream;base64,"
    }
  ],
  "bufferViews": [
    {
      "name": "bufferView_0",
      "buffer": 0,
      "byteLength": 11520,
      "byteOffset": 0,
      "byteStride": 12,
      "target": 34962
    },
    {
      "name": "bufferView_1",
      "buffer": 0,
      "byteLength": 11520,
      "byteOffset": 11520,
      "byteStride": 12,
      "target": 34962
    },
    {
      "name": "bufferView_2",
      "buffer": 0,
      "byteLength": 7680,
      "byteOffset": 23040,
      "byteStride": 8,
      "target": 34962
    },
    {
      "name": "bufferView_3",
      "buffer": 0,
      "byteLength": 3012,
      "byteOffset": 30720,
      "target": 34963
    }
  ],
  "images": [
    {
      "name": "tcc_001",
      "uri": "tcc_001.jpg"
    },
    {
      "name": "tcc_004",
      "uri": "tcc_004.jpg"
    },
    {
      "name": "tcc_003",
      "uri": "tcc_003.jpg"
    },
    {
      "name": "tcc_002",
      "uri": "tcc_002.jpg"
    }
  ],
  "materials": [
    {
      "name": "lambert2SG",
      "pbrMetallicRoughness": {
        "baseColorTexture": {
          "index": 0
        },
        "baseColorFactor": [
          1,
          1,
          1,
          1
        ],
        "metallicFactor": 0,
        "roughnessFactor": 1
      },
      "emissiveFactor": [
        0,
        0,
        0
      ],
      "alphaMode": "OPAQUE",
      "doubleSided": false
    },
    {
      "name": "lambert5SG",
      "pbrMetallicRoughness": {
        "baseColorTexture": {
          "index": 1
        },
        "baseColorFactor": [
          1,
          1,
          1,
          1
        ],
        "metallicFactor": 0,
        "roughnessFactor": 1
      },
      "emissiveFactor": [
        0,
        0,
        0
      ],
      "alphaMode": "OPAQUE",
      "doubleSided": false
    },
    {
      "name": "lambert4SG",
      "pbrMetallicRoughness": {
        "baseColorTexture": {
          "index": 2
        },
        "baseColorFactor": [
          1,
          1,
          1,
          1
        ],
        "metallicFactor": 0,
        "roughnessFactor": 1
      },
      "emissiveFactor": [
        0,
        0,
        0
      ],
      "alphaMode": "OPAQUE",
      "doubleSided": false
    },
    {
      "name": "lambert3SG",
      "pbrMetallicRoughness": {
        "baseColorTexture": {
          "index": 3
        },
        "baseColorFactor": [
          1,
          1,
          1,
          1
        ],
        "metallicFactor": 0,
        "roughnessFactor": 1
      },
      "emissiveFactor": [
        0,
        0,
        0
      ],
      "alphaMode": "OPAQUE",
      "doubleSided": false
    }
  ],
  "meshes": [
    {
      "name": "polySurface59_1",
      "primitives": [
        {
          "attributes": {
            "POSITION": 0,
            "NORMAL": 1,
            "TEXCOORD_0": 2
          },
          "indices": 3,
          "material": 0,
          "mode": 4
        },
        {
          "attributes": {
            "POSITION": 4,
            "NORMAL": 5,
            "TEXCOORD_0": 6
          },
          "indices": 7,
          "material": 1,
          "mode": 4
        },
        {
          "attributes": {
            "POSITION": 8,
            "NORMAL": 9,
            "TEXCOORD_0": 10
          },
          "indices": 11,
          "material": 2,
          "mode": 4
        },
        {
          "attributes": {
            "POSITION": 12,
            "NORMAL": 13,
            "TEXCOORD_0": 14
          },
          "indices": 15,
          "material": 3,
          "mode": 4
        }
      ]
    }
  ],
  "nodes": [
    {
      "name": "polySurface59",
      "mesh": 0
    }
  ],
  "samplers": [
    {
      "wrapS": 10497,
      "wrapT": 10497
    }
  ],
  "scene": 0,
  "scenes": [
    {
      "nodes": [
        0
      ]
    }
  ],
  "textures": [
    {
      "name": "tcc_001",
      "sampler": 0,
      "source": 0
    },
    {
      "name": "tcc_004",
      "sampler": 0,
      "source": 1
    },
    {
      "name": "tcc_003",
      "sampler": 0,
      "source": 2
    },
    {
      "name": "tcc_002",
      "sampler": 0,
      "source": 3
    }
  ]
}
