{
  "accessors": [
    {
      "name": "____002_1_0_positions",
      "componentType": 5126,
      "count": 2796,
      "min": [
        -60.515098571777344,
        -10.5378999710083,
        0
      ],
      "max": [
        60.922000885009766,
        10.406900405883789,
        19.025699615478516
      ],
      "type": "VEC3",
      "bufferView": 0,
      "byteOffset": 0
    },
    {
      "name": "____002_1_0_normals",
      "componentType": 5126,
      "count": 2796,
      "min": [
        -1,
        -1,
        -1
      ],
      "max": [
        1,
        1,
        1
      ],
      "type": "VEC3",
      "bufferView": 1,
      "byteOffset": 0
    },
    {
      "name": "____002_1_0_texcoords",
      "componentType": 5126,
      "count": 2796,
      "min": [
        -2.9233999252319336,
        -2.9233999252319336
      ],
      "max": [
        3.9233999252319336,
        3.8745999336242676
      ],
      "type": "VEC2",
      "bufferView": 2,
      "byteOffset": 0
    },
    {
      "name": "____002_1_0_indices",
      "componentType": 5123,
      "count": 4230,
      "min": [
        0
      ],
      "max": [
        2795
      ],
      "type": "SCALAR",
      "bufferView": 3,
      "byteOffset": 0
    },
    {
      "name": "____002_1_1_positions",
      "componentType": 5126,
      "count": 24,
      "min": [
        -61.59370040893555,
        -11.077300071716309,
        0
      ],
      "max": [
        61.59370040893555,
        11.077300071716309,
        19.281299591064453
      ],
      "type": "VEC3",
      "bufferView": 0,
      "byteOffset": 33552
    },
    {
      "name": "____002_1_1_normals",
      "componentType": 5126,
      "count": 24,
      "min": [
        -1,
        -1,
        -1
      ],
      "max": [
        1,
        1,
        0
      ],
      "type": "VEC3",
      "bufferView": 1,
      "byteOffset": 33552
    },
    {
      "name": "____002_1_1_texcoords",
      "componentType": 5126,
      "count": 24,
      "min": [
        -10.85949993133545,
        -2.354599952697754
      ],
      "max": [
        11.85949993133545,
        3.354599952697754
      ],
      "type": "VEC2",
      "bufferView": 2,
      "byteOffset": 22368
    },
    {
      "name": "____002_1_1_indices",
      "componentType": 5123,
      "count": 48,
      "min": [
        0
      ],
      "max": [
        23
      ],
      "type": "SCALAR",
      "bufferView": 3,
      "byteOffset": 8460
    },
    {
      "name": "____002_1_2_positions",
      "componentType": 5126,
      "count": 25,
      "min": [
        -61.59370040893555,
        -11.077300071716309,
        19.281299591064453
      ],
      "max": [
        61.59370040893555,
        11.077300071716309,
        26.16309928894043
      ],
      "type": "VEC3",
      "bufferView": 0,
      "byteOffset": 33840
    },
    {
      "name": "____002_1_2_normals",
      "componentType": 5126,
      "count": 25,
      "min": [
        -1,
        -1,
        -1
      ],
      "max": [
        1,
        1,
        1
      ],
      "type": "VEC3",
      "bufferView": 1,
      "byteOffset": 33840
    },
    {
      "name": "____002_1_2_texcoords",
      "componentType": 5126,
      "count": 25,
      "min": [
        0.013199999928474426,
        -0.009399999864399433
      ],
      "max": [
        4.019899845123291,
        0.4645000100135803
      ],
      "type": "VEC2",
      "bufferView": 2,
      "byteOffset": 22560
    },
    {
      "name": "____002_1_2_indices",
      "componentType": 5123,
      "count": 36,
      "min": [
        0
      ],
      "max": [
        24
      ],
      "type": "SCALAR",
      "bufferView": 3,
      "byteOffset": 8556
    },
    {
      "name": "____002_1_3_positions",
      "componentType": 5126,
      "count": 32,
      "min": [
        -61.59370040893555,
        -11.077300071716309,
        24.9768009185791
      ],
      "max": [
        61.59370040893555,
        11.077300071716309,
        26.16309928894043
      ],
      "type": "VEC3",
      "bufferView": 0,
      "byteOffset": 34140
    },
    {
      "name": "____002_1_3_normals",
      "componentType": 5126,
      "count": 32,
      "min": [
        -1,
        -1,
        0
      ],
      "max": [
        1,
        1,
        1
      ],
      "type": "VEC3",
      "bufferView": 1,
      "byteOffset": 34140
    },
    {
      "name": "____002_1_3_texcoords",
      "componentType": 5126,
      "count": 32,
      "min": [
        -1.7431000471115112,
        -0.3601999878883362
      ],
      "max": [
        2.7430999279022217,
        1.360200047492981
      ],
      "type": "VEC2",
      "bufferView": 2,
      "byteOffset": 22760
    },
    {
      "name": "____002_1_3_indices",
      "componentType": 5123,
      "count": 54,
      "min": [
        0
      ],
      "max": [
        31
      ],
      "type": "SCALAR",
      "bufferView": 3,
      "byteOffset": 8628
    }
  ],
  "asset": {
    "generator": "obj2gltf",
    "version": "2.0"
  },
  "buffers": [
    {
      "name": "jz18",
      "byteLength": 100800,
      "uri": "data:application/octet-stream;base64,"
    }
  ],
  "bufferViews": [
    {
      "name": "bufferView_0",
      "buffer": 0,
      "byteLength": 34524,
      "byteOffset": 0,
      "byteStride": 12,
      "target": 34962
    },
    {
      "name": "bufferView_1",
      "buffer": 0,
      "byteLength": 34524,
      "byteOffset": 34524,
      "byteStride": 12,
      "target": 34962
    },
    {
      "name": "bufferView_2",
      "buffer": 0,
      "byteLength": 23016,
      "byteOffset": 69048,
      "byteStride": 8,
      "target": 34962
    },
    {
      "name": "bufferView_3",
      "buffer": 0,
      "byteLength": 8736,
      "byteOffset": 92064,
      "target": 34963
    }
  ],
  "images": [
    {
      "name": "011",
      "uri": "011.jpg"
    },
    {
      "name": "sgy_1q_19",
      "uri": "sgy_1q_19.jpg"
    },
    {
      "name": "SGY_Q1_002",
      "uri": "SGY_Q1_002.jpg"
    },
    {
      "name": "SGY_Q1_005",
      "uri": "SGY_Q1_005.jpg"
    }
  ],
  "materials": [
    {
      "name": "Material__70",
      "pbrMetallicRoughness": {
        "baseColorTexture": {
          "index": 0
        },
        "baseColorFactor": [
          1,
          1,
          1,
          1
        ],
        "metallicFactor": 0,
        "roughnessFactor": 0.99
      },
      "emissiveFactor": [
        0,
        0,
        0
      ],
      "alphaMode": "OPAQUE",
      "doubleSided": false
    },
    {
      "name": "Material__508",
      "pbrMetallicRoughness": {
        "baseColorTexture": {
          "index": 1
        },
        "baseColorFactor": [
          1,
          1,
          1,
          1
        ],
        "metallicFactor": 0,
        "roughnessFactor": 0.99
      },
      "emissiveFactor": [
        0,
        0,
        0
      ],
      "alphaMode": "OPAQUE",
      "doubleSided": false
    },
    {
      "name": "Material__35",
      "pbrMetallicRoughness": {
        "baseColorTexture": {
          "index": 2
        },
        "baseColorFactor": [
          1,
          1,
          1,
          1
        ],
        "metallicFactor": 0,
        "roughnessFactor": 0.99
      },
      "emissiveFactor": [
        0,
        0,
        0
      ],
      "alphaMode": "OPAQUE",
      "doubleSided": false
    },
    {
      "name": "Material__58",
      "pbrMetallicRoughness": {
        "baseColorTexture": {
          "index": 3
        },
        "baseColorFactor": [
          1,
          1,
          1,
          1
        ],
        "metallicFactor": 0,
        "roughnessFactor": 0.99
      },
      "emissiveFactor": [
        0,
        0,
        0
      ],
      "alphaMode": "OPAQUE",
      "doubleSided": false
    }
  ],
  "meshes": [
    {
      "name": "____002_1",
      "primitives": [
        {
          "attributes": {
            "POSITION": 0,
            "NORMAL": 1,
            "TEXCOORD_0": 2
          },
          "indices": 3,
          "material": 0,
          "mode": 4
        },
        {
          "attributes": {
            "POSITION": 4,
            "NORMAL": 5,
            "TEXCOORD_0": 6
          },
          "indices": 7,
          "material": 1,
          "mode": 4
        },
        {
          "attributes": {
            "POSITION": 8,
            "NORMAL": 9,
            "TEXCOORD_0": 10
          },
          "indices": 11,
          "material": 2,
          "mode": 4
        },
        {
          "attributes": {
            "POSITION": 12,
            "NORMAL": 13,
            "TEXCOORD_0": 14
          },
          "indices": 15,
          "material": 3,
          "mode": 4
        }
      ]
    }
  ],
  "nodes": [
    {
      "name": "____002",
      "mesh": 0
    }
  ],
  "samplers": [
    {
      "wrapS": 10497,
      "wrapT": 10497
    }
  ],
  "scene": 0,
  "scenes": [
    {
      "nodes": [
        0
      ]
    }
  ],
  "textures": [
    {
      "name": "011",
      "sampler": 0,
      "source": 0
    },
    {
      "name": "sgy_1q_19",
      "sampler": 0,
      "source": 1
    },
    {
      "name": "SGY_Q1_002",
      "sampler": 0,
      "source": 2
    },
    {
      "name": "SGY_Q1_005",
      "sampler": 0,
      "source": 3
    }
  ]
}
