{"asset":{"version":"2.0","generator":"babylon.js glTF exporter for 3dsmax 2022 v20240125.3"},"scene":0,"scenes":[{"nodes":[0]}],"nodes":[{"mesh":0,"name":"Box009"}],"meshes":[{"primitives":[{"attributes":{"POSITION":1,"NORMAL":2,"TEXCOORD_0":3},"indices":0,"material":0},{"attributes":{"POSITION":5,"NORMAL":6,"TEXCOORD_0":7},"indices":4,"material":1},{"attributes":{"POSITION":9,"NORMAL":10,"TEXCOORD_0":11},"indices":8,"material":2}],"name":"Box009"}],"accessors":[{"bufferView":0,"componentType":5123,"count":546,"type":"SCALAR","name":"accessorIndices"},{"bufferView":1,"componentType":5126,"count":266,"max":[6.96246147,3.66461086,6.958671],"min":[-7.34075546,-5.31138134,0.407928],"type":"VEC3","name":"accessorPositions"},{"bufferView":1,"byteOffset":3192,"componentType":5126,"count":266,"type":"VEC3","name":"accessorNormals"},{"bufferView":2,"componentType":5126,"count":266,"type":"VEC2","name":"accessorUVs"},{"bufferView":0,"byteOffset":1092,"componentType":5123,"count":30,"type":"SCALAR","name":"accessorIndices"},{"bufferView":1,"byteOffset":6384,"componentType":5126,"count":20,"max":[7.55028534,5.311382,0.40792942],"min":[-7.55028534,-4.867121,-9.536743E-07],"type":"VEC3","name":"accessorPositions"},{"bufferView":1,"byteOffset":6624,"componentType":5126,"count":20,"type":"VEC3","name":"accessorNormals"},{"bufferView":2,"byteOffset":2128,"componentType":5126,"count":20,"type":"VEC2","name":"accessorUVs"},{"bufferView":0,"byteOffset":1152,"componentType":5123,"count":24,"type":"SCALAR","name":"accessorIndices"},{"bufferView":1,"byteOffset":6864,"componentType":5126,"count":16,"max":[3.467537,1.40114629,6.69887972],"min":[-6.83950424,-4.63959646,0.407928],"type":"VEC3","name":"accessorPositions"},{"bufferView":1,"byteOffset":7056,"componentType":5126,"count":16,"type":"VEC3","name":"accessorNormals"},{"bufferView":2,"byteOffset":2288,"componentType":5126,"count":16,"type":"VEC2","name":"accessorUVs"}],"bufferViews":[{"buffer":0,"byteLength":1200,"name":"bufferViewScalar"},{"buffer":0,"byteOffset":1200,"byteLength":7248,"byteStride":12,"name":"bufferViewFloatVec3"},{"buffer":0,"byteOffset":8448,"byteLength":2416,"byteStride":8,"name":"bufferViewFloatVec2"}],"buffers":[{"uri":"sgy_ydhj_03.bin","byteLength":10864}],"materials":[{"pbrMetallicRoughness":{"baseColorTexture":{"index":0},"metallicFactor":0.0,"roughnessFactor":0.450053632},"name":"Material #46431"},{"pbrMetallicRoughness":{"baseColorTexture":{"index":1},"metallicFactor":0.0,"roughnessFactor":0.450053632},"name":"Material #46376"},{"pbrMetallicRoughness":{"baseColorTexture":{"index":2},"metallicFactor":0.0,"roughnessFactor":0.450053632},"name":"Material #46459"}],"textures":[{"sampler":0,"source":0,"name":"YDH_003.jpg"},{"sampler":0,"source":1,"name":"sgy_yd_02.jpg"},{"sampler":0,"source":2,"name":"shhw_G17.jpg"}],"images":[{"uri":"YDH_003.jpg"},{"uri":"sgy_yd_02.jpg"},{"uri":"shhw_G17.jpg"}],"samplers":[{"magFilter":9729,"minFilter":9987}]}