{
  "accessors": [
    {
      "name": "Box001_1_0_positions",
      "componentType": 5126,
      "count": 317,
      "min": [
        -24.845600128173828,
        -25.714000701904297,
        0
      ],
      "max": [
        20.593299865722656,
        25.712200164794922,
        25.81450080871582
      ],
      "type": "VEC3",
      "bufferView": 0,
      "byteOffset": 0
    },
    {
      "name": "Box001_1_0_normals",
      "componentType": 5126,
      "count": 317,
      "min": [
        -1,
        -1,
        -1
      ],
      "max": [
        1,
        1,
        1
      ],
      "type": "VEC3",
      "bufferView": 1,
      "byteOffset": 0
    },
    {
      "name": "Box001_1_0_texcoords",
      "componentType": 5126,
      "count": 317,
      "min": [
        -0.2833000123500824,
        -0.9445000290870667
      ],
      "max": [
        2.276700019836426,
        1.8078999519348145
      ],
      "type": "VEC2",
      "bufferView": 2,
      "byteOffset": 0
    },
    {
      "name": "Box001_1_0_indices",
      "componentType": 5123,
      "count": 534,
      "min": [
        0
      ],
      "max": [
        316
      ],
      "type": "SCALAR",
      "bufferView": 3,
      "byteOffset": 0
    },
    {
      "name": "Box001_1_1_positions",
      "componentType": 5126,
      "count": 8,
      "min": [
        -22.976499557495117,
        -1.1074999570846558,
        0
      ],
      "max": [
        6.127699851989746,
        -1.1074999570846558,
        6.2204999923706055
      ],
      "type": "VEC3",
      "bufferView": 0,
      "byteOffset": 3804
    },
    {
      "name": "Box001_1_1_normals",
      "componentType": 5126,
      "count": 8,
      "min": [
        0,
        -1,
        0
      ],
      "max": [
        0,
        -1,
        0
      ],
      "type": "VEC3",
      "bufferView": 1,
      "byteOffset": 3804
    },
    {
      "name": "Box001_1_1_texcoords",
      "componentType": 5126,
      "count": 8,
      "min": [
        -2.039099931716919,
        0.05950000137090683
      ],
      "max": [
        2.9930999279022217,
        1.7925000190734863
      ],
      "type": "VEC2",
      "bufferView": 2,
      "byteOffset": 2536
    },
    {
      "name": "Box001_1_1_indices",
      "componentType": 5123,
      "count": 12,
      "min": [
        0
      ],
      "max": [
        7
      ],
      "type": "SCALAR",
      "bufferView": 3,
      "byteOffset": 1068
    },
    {
      "name": "Box001_1_2_positions",
      "componentType": 5126,
      "count": 38,
      "min": [
        -22.976499557495117,
        -1.1074999570846558,
        0
      ],
      "max": [
        11.94849967956543,
        12.007800102233887,
        24.92180061340332
      ],
      "type": "VEC3",
      "bufferView": 0,
      "byteOffset": 3900
    },
    {
      "name": "Box001_1_2_normals",
      "componentType": 5126,
      "count": 38,
      "min": [
        -1,
        -1,
        0
      ],
      "max": [
        1,
        0,
        0.00019999999494757503
      ],
      "type": "VEC3",
      "bufferView": 1,
      "byteOffset": 3900
    },
    {
      "name": "Box001_1_2_texcoords",
      "componentType": 5126,
      "count": 38,
      "min": [
        -1.079200029373169,
        -2.109999895095825
      ],
      "max": [
        2.0708000659942627,
        2.5429999828338623
      ],
      "type": "VEC2",
      "bufferView": 2,
      "byteOffset": 2600
    },
    {
      "name": "Box001_1_2_indices",
      "componentType": 5123,
      "count": 54,
      "min": [
        0
      ],
      "max": [
        37
      ],
      "type": "SCALAR",
      "bufferView": 3,
      "byteOffset": 1092
    },
    {
      "name": "Box001_1_3_positions",
      "componentType": 5126,
      "count": 20,
      "min": [
        -22.976499557495117,
        5.355299949645996,
        0
      ],
      "max": [
        11.94849967956543,
        23.860700607299805,
        19.408300399780273
      ],
      "type": "VEC3",
      "bufferView": 0,
      "byteOffset": 4356
    },
    {
      "name": "Box001_1_3_normals",
      "componentType": 5126,
      "count": 20,
      "min": [
        -1,
        0,
        0
      ],
      "max": [
        0,
        1,
        0.00009999999747378752
      ],
      "type": "VEC3",
      "bufferView": 1,
      "byteOffset": 4356
    },
    {
      "name": "Box001_1_3_texcoords",
      "componentType": 5126,
      "count": 20,
      "min": [
        -3.1670000553131104,
        -2.0165998935699463
      ],
      "max": [
        4.569200038909912,
        2.680000066757202
      ],
      "type": "VEC2",
      "bufferView": 2,
      "byteOffset": 2904
    },
    {
      "name": "Box001_1_3_indices",
      "componentType": 5123,
      "count": 30,
      "min": [
        0
      ],
      "max": [
        19
      ],
      "type": "SCALAR",
      "bufferView": 3,
      "byteOffset": 1200
    },
    {
      "name": "Box001_1_4_positions",
      "componentType": 5126,
      "count": 20,
      "min": [
        -5.513999938964844,
        -1.1074999570846558,
        0
      ],
      "max": [
        11.948599815368652,
        25.713899612426758,
        24.92140007019043
      ],
      "type": "VEC3",
      "bufferView": 0,
      "byteOffset": 4596
    },
    {
      "name": "Box001_1_4_normals",
      "componentType": 5126,
      "count": 20,
      "min": [
        0,
        0,
        0
      ],
      "max": [
        1,
        1,
        0.00009999999747378752
      ],
      "type": "VEC3",
      "bufferView": 1,
      "byteOffset": 4596
    },
    {
      "name": "Box001_1_4_texcoords",
      "componentType": 5126,
      "count": 20,
      "min": [
        -1.041200041770935,
        -2.02620005607605
      ],
      "max": [
        4.06820011138916,
        2.0078001022338867
      ],
      "type": "VEC2",
      "bufferView": 2,
      "byteOffset": 3064
    },
    {
      "name": "Box001_1_4_indices",
      "componentType": 5123,
      "count": 30,
      "min": [
        0
      ],
      "max": [
        19
      ],
      "type": "SCALAR",
      "bufferView": 3,
      "byteOffset": 1260
    },
    {
      "name": "Box001_1_5_positions",
      "componentType": 5126,
      "count": 4,
      "min": [
        -5.513999938964844,
        -1.1074999570846558,
        6.2204999923706055
      ],
      "max": [
        6.127699851989746,
        -1.1074999570846558,
        19.408300399780273
      ],
      "type": "VEC3",
      "bufferView": 0,
      "byteOffset": 4836
    },
    {
      "name": "Box001_1_5_normals",
      "componentType": 5126,
      "count": 4,
      "min": [
        0,
        -1,
        0
      ],
      "max": [
        0,
        -1,
        0
      ],
      "type": "VEC3",
      "bufferView": 1,
      "byteOffset": 4836
    },
    {
      "name": "Box001_1_5_texcoords",
      "componentType": 5126,
      "count": 4,
      "min": [
        0.03840000182390213,
        -0.07020000368356705
      ],
      "max": [
        2.003000020980835,
        2.098299980163574
      ],
      "type": "VEC2",
      "bufferView": 2,
      "byteOffset": 3224
    },
    {
      "name": "Box001_1_5_indices",
      "componentType": 5123,
      "count": 6,
      "min": [
        0
      ],
      "max": [
        3
      ],
      "type": "SCALAR",
      "bufferView": 3,
      "byteOffset": 1320
    },
    {
      "name": "Box001_1_6_positions",
      "componentType": 5126,
      "count": 429,
      "min": [
        -23.01129913330078,
        -25.1919002532959,
        0
      ],
      "max": [
        24.37649917602539,
        25.714000701904297,
        25.81450080871582
      ],
      "type": "VEC3",
      "bufferView": 0,
      "byteOffset": 4884
    },
    {
      "name": "Box001_1_6_normals",
      "componentType": 5126,
      "count": 429,
      "min": [
        -1,
        -1,
        -1
      ],
      "max": [
        1,
        1,
        1
      ],
      "type": "VEC3",
      "bufferView": 1,
      "byteOffset": 4884
    },
    {
      "name": "Box001_1_6_texcoords",
      "componentType": 5126,
      "count": 429,
      "min": [
        -1.680899977684021,
        -2.564300060272217
      ],
      "max": [
        5.077300071716309,
        3.0297000408172607
      ],
      "type": "VEC2",
      "bufferView": 2,
      "byteOffset": 3256
    },
    {
      "name": "Box001_1_6_indices",
      "componentType": 5123,
      "count": 627,
      "min": [
        0
      ],
      "max": [
        428
      ],
      "type": "SCALAR",
      "bufferView": 3,
      "byteOffset": 1332
    },
    {
      "name": "Box001_1_7_positions",
      "componentType": 5126,
      "count": 98,
      "min": [
        -24.84670066833496,
        -1.8251999616622925,
        0
      ],
      "max": [
        20.593299865722656,
        25.714000701904297,
        25.81450080871582
      ],
      "type": "VEC3",
      "bufferView": 0,
      "byteOffset": 10032
    },
    {
      "name": "Box001_1_7_normals",
      "componentType": 5126,
      "count": 98,
      "min": [
        -1,
        -0.00019999999494757503,
        -1
      ],
      "max": [
        0,
        1,
        0
      ],
      "type": "VEC3",
      "bufferView": 1,
      "byteOffset": 10032
    },
    {
      "name": "Box001_1_7_texcoords",
      "componentType": 5126,
      "count": 98,
      "min": [
        0,
        0
      ],
      "max": [
        1,
        1
      ],
      "type": "VEC2",
      "bufferView": 2,
      "byteOffset": 6688
    },
    {
      "name": "Box001_1_7_indices",
      "componentType": 5123,
      "count": 135,
      "min": [
        0
      ],
      "max": [
        97
      ],
      "type": "SCALAR",
      "bufferView": 3,
      "byteOffset": 2588
    },
    {
      "name": "Box001_1_8_positions",
      "componentType": 5126,
      "count": 4,
      "min": [
        6.127699851989746,
        -1.1074999570846558,
        6.2204999923706055
      ],
      "max": [
        11.94849967956543,
        -1.1074999570846558,
        19.406299591064453
      ],
      "type": "VEC3",
      "bufferView": 0,
      "byteOffset": 11208
    },
    {
      "name": "Box001_1_8_normals",
      "componentType": 5126,
      "count": 4,
      "min": [
        0,
        -1,
        0
      ],
      "max": [
        0,
        -1,
        0
      ],
      "type": "VEC3",
      "bufferView": 1,
      "byteOffset": 11208
    },
    {
      "name": "Box001_1_8_texcoords",
      "componentType": 5126,
      "count": 4,
      "min": [
        0.019300000742077827,
        -0.06629999727010727
      ],
      "max": [
        1.0628999471664429,
        2.0606000423431396
      ],
      "type": "VEC2",
      "bufferView": 2,
      "byteOffset": 7472
    },
    {
      "name": "Box001_1_8_indices",
      "componentType": 5123,
      "count": 6,
      "min": [
        0
      ],
      "max": [
        3
      ],
      "type": "SCALAR",
      "bufferView": 3,
      "byteOffset": 2860
    },
    {
      "name": "Box001_1_9_positions",
      "componentType": 5126,
      "count": 400,
      "min": [
        13.177300453186035,
        3.4976999759674072,
        3.4091999530792236
      ],
      "max": [
        24.490100860595703,
        21.540300369262695,
        21.355600357055664
      ],
      "type": "VEC3",
      "bufferView": 0,
      "byteOffset": 11256
    },
    {
      "name": "Box001_1_9_normals",
      "componentType": 5126,
      "count": 400,
      "min": [
        -1,
        -1,
        -1
      ],
      "max": [
        1,
        1,
        1
      ],
      "type": "VEC3",
      "bufferView": 1,
      "byteOffset": 11256
    },
    {
      "name": "Box001_1_9_texcoords",
      "componentType": 5126,
      "count": 400,
      "min": [
        0,
        0
      ],
      "max": [
        1,
        1.0056999921798706
      ],
      "type": "VEC2",
      "bufferView": 2,
      "byteOffset": 7504
    },
    {
      "name": "Box001_1_9_indices",
      "componentType": 5123,
      "count": 600,
      "min": [
        0
      ],
      "max": [
        399
      ],
      "type": "SCALAR",
      "bufferView": 3,
      "byteOffset": 2872
    },
    {
      "name": "Box001_1_10_positions",
      "componentType": 5126,
      "count": 4,
      "min": [
        -5.803400039672852,
        -1.0591000318527222,
        2.4774999618530273
      ],
      "max": [
        0.11079999804496765,
        -1.0591000318527222,
        2.7753000259399414
      ],
      "type": "VEC3",
      "bufferView": 0,
      "byteOffset": 16056
    },
    {
      "name": "Box001_1_10_normals",
      "componentType": 5126,
      "count": 4,
      "min": [
        0,
        1,
        0
      ],
      "max": [
        0,
        1,
        0
      ],
      "type": "VEC3",
      "bufferView": 1,
      "byteOffset": 16056
    },
    {
      "name": "Box001_1_10_texcoords",
      "componentType": 5126,
      "count": 4,
      "min": [
        0.11379999667406082,
        0.07249999791383743
      ],
      "max": [
        0.18880000710487366,
        0.14749999344348907
      ],
      "type": "VEC2",
      "bufferView": 2,
      "byteOffset": 10704
    },
    {
      "name": "Box001_1_10_indices",
      "componentType": 5123,
      "count": 6,
      "min": [
        0
      ],
      "max": [
        3
      ],
      "type": "SCALAR",
      "bufferView": 3,
      "byteOffset": 4072
    },
    {
      "name": "Box001_1_11_positions",
      "componentType": 5126,
      "count": 4,
      "min": [
        13.172699928283691,
        -24.877099990844727,
        11.818900108337402
      ],
      "max": [
        18.887699127197266,
        -19.162099838256836,
        11.818900108337402
      ],
      "type": "VEC3",
      "bufferView": 0,
      "byteOffset": 16104
    },
    {
      "name": "Box001_1_11_normals",
      "componentType": 5126,
      "count": 4,
      "min": [
        0,
        0,
        -1
      ],
      "max": [
        0,
        0,
        -1
      ],
      "type": "VEC3",
      "bufferView": 1,
      "byteOffset": 16104
    },
    {
      "name": "Box001_1_11_texcoords",
      "componentType": 5126,
      "count": 4,
      "min": [
        0,
        0
      ],
      "max": [
        1,
        1
      ],
      "type": "VEC2",
      "bufferView": 2,
      "byteOffset": 10736
    },
    {
      "name": "Box001_1_11_indices",
      "componentType": 5123,
      "count": 6,
      "min": [
        0
      ],
      "max": [
        3
      ],
      "type": "SCALAR",
      "bufferView": 3,
      "byteOffset": 4084
    },
    {
      "name": "Box001_1_12_positions",
      "componentType": 5126,
      "count": 114,
      "min": [
        11.900799751281738,
        -24.877099990844727,
        0
      ],
      "max": [
        24.37649917602539,
        21.417499542236328,
        26.76810073852539
      ],
      "type": "VEC3",
      "bufferView": 0,
      "byteOffset": 16152
    },
    {
      "name": "Box001_1_12_normals",
      "componentType": 5126,
      "count": 114,
      "min": [
        -1,
        -1,
        0
      ],
      "max": [
        1,
        1,
        1
      ],
      "type": "VEC3",
      "bufferView": 1,
      "byteOffset": 16152
    },
    {
      "name": "Box001_1_12_texcoords",
      "componentType": 5126,
      "count": 114,
      "min": [
        -0.6035000085830688,
        -2.087599992752075
      ],
      "max": [
        2.8120999336242676,
        1.087399959564209
      ],
      "type": "VEC2",
      "bufferView": 2,
      "byteOffset": 10768
    },
    {
      "name": "Box001_1_12_indices",
      "componentType": 5123,
      "count": 168,
      "min": [
        0
      ],
      "max": [
        113
      ],
      "type": "SCALAR",
      "bufferView": 3,
      "byteOffset": 4096
    },
    {
      "name": "Box001_1_13_positions",
      "componentType": 5126,
      "count": 8,
      "min": [
        11.78950023651123,
        3.6273999214172363,
        4.759699821472168
      ],
      "max": [
        20.593299865722656,
        12.134900093078613,
        10.041899681091309
      ],
      "type": "VEC3",
      "bufferView": 0,
      "byteOffset": 17520
    },
    {
      "name": "Box001_1_13_normals",
      "componentType": 5126,
      "count": 8,
      "min": [
        0,
        -1,
        0
      ],
      "max": [
        1,
        0,
        0
      ],
      "type": "VEC3",
      "bufferView": 1,
      "byteOffset": 17520
    },
    {
      "name": "Box001_1_13_texcoords",
      "componentType": 5126,
      "count": 8,
      "min": [
        -0.02239999920129776,
        -0.08829999715089798
      ],
      "max": [
        1.0081000328063965,
        2.088900089263916
      ],
      "type": "VEC2",
      "bufferView": 2,
      "byteOffset": 11680
    },
    {
      "name": "Box001_1_13_indices",
      "componentType": 5123,
      "count": 12,
      "min": [
        0
      ],
      "max": [
        7
      ],
      "type": "SCALAR",
      "bufferView": 3,
      "byteOffset": 4432
    },
    {
      "name": "Box001_1_14_positions",
      "componentType": 5126,
      "count": 8,
      "min": [
        11.78950023651123,
        3.6273999214172363,
        0
      ],
      "max": [
        20.593299865722656,
        12.134900093078613,
        4.759699821472168
      ],
      "type": "VEC3",
      "bufferView": 0,
      "byteOffset": 17616
    },
    {
      "name": "Box001_1_14_normals",
      "componentType": 5126,
      "count": 8,
      "min": [
        0,
        -1,
        0
      ],
      "max": [
        1,
        0,
        0
      ],
      "type": "VEC3",
      "bufferView": 1,
      "byteOffset": 17616
    },
    {
      "name": "Box001_1_14_texcoords",
      "componentType": 5126,
      "count": 8,
      "min": [
        0,
        -0.029400000348687172
      ],
      "max": [
        1,
        1.0565999746322632
      ],
      "type": "VEC2",
      "bufferView": 2,
      "byteOffset": 11744
    },
    {
      "name": "Box001_1_14_indices",
      "componentType": 5123,
      "count": 12,
      "min": [
        0
      ],
      "max": [
        7
      ],
      "type": "SCALAR",
      "bufferView": 3,
      "byteOffset": 4456
    },
    {
      "name": "Box001_1_15_positions",
      "componentType": 5126,
      "count": 8,
      "min": [
        11.78950023651123,
        3.6273999214172363,
        10.041899681091309
      ],
      "max": [
        20.593299865722656,
        12.134900093078613,
        11.243800163269043
      ],
      "type": "VEC3",
      "bufferView": 0,
      "byteOffset": 17712
    },
    {
      "name": "Box001_1_15_normals",
      "componentType": 5126,
      "count": 8,
      "min": [
        0,
        -1,
        0
      ],
      "max": [
        1,
        0,
        0
      ],
      "type": "VEC3",
      "bufferView": 1,
      "byteOffset": 17712
    },
    {
      "name": "Box001_1_15_texcoords",
      "componentType": 5126,
      "count": 8,
      "min": [
        -5.092899799346924,
        0
      ],
      "max": [
        3.143899917602539,
        1
      ],
      "type": "VEC2",
      "bufferView": 2,
      "byteOffset": 11808
    },
    {
      "name": "Box001_1_15_indices",
      "componentType": 5123,
      "count": 12,
      "min": [
        0
      ],
      "max": [
        7
      ],
      "type": "SCALAR",
      "bufferView": 3,
      "byteOffset": 4480
    },
    {
      "name": "Box001_1_16_positions",
      "componentType": 5126,
      "count": 48,
      "min": [
        -24.84670066833496,
        12.007599830627441,
        8.029199600219727
      ],
      "max": [
        -5.513400077819824,
        25.713699340820312,
        25.79509925842285
      ],
      "type": "VEC3",
      "bufferView": 0,
      "byteOffset": 17808
    },
    {
      "name": "Box001_1_16_normals",
      "componentType": 5126,
      "count": 48,
      "min": [
        -1,
        -1,
        0
      ],
      "max": [
        0,
        1,
        0.00009999999747378752
      ],
      "type": "VEC3",
      "bufferView": 1,
      "byteOffset": 17808
    },
    {
      "name": "Box001_1_16_texcoords",
      "componentType": 5126,
      "count": 48,
      "min": [
        -4.066100120544434,
        -1.062399983406067
      ],
      "max": [
        2.0836000442504883,
        2.059499979019165
      ],
      "type": "VEC2",
      "bufferView": 2,
      "byteOffset": 11872
    },
    {
      "name": "Box001_1_16_indices",
      "componentType": 5123,
      "count": 72,
      "min": [
        0
      ],
      "max": [
        47
      ],
      "type": "SCALAR",
      "bufferView": 3,
      "byteOffset": 4504
    },
    {
      "name": "Box001_1_17_positions",
      "componentType": 5126,
      "count": 20,
      "min": [
        24.37649917602539,
        12.989100456237793,
        10.70989990234375
      ],
      "max": [
        24.84670066833496,
        20.428600311279297,
        25.179500579833984
      ],
      "type": "VEC3",
      "bufferView": 0,
      "byteOffset": 18384
    },
    {
      "name": "Box001_1_17_normals",
      "componentType": 5126,
      "count": 20,
      "min": [
        0,
        -1,
        -1
      ],
      "max": [
        1,
        1,
        1
      ],
      "type": "VEC3",
      "bufferView": 1,
      "byteOffset": 18384
    },
    {
      "name": "Box001_1_17_texcoords",
      "componentType": 5126,
      "count": 20,
      "min": [
        0.009800000116229057,
        0.0031999999191612005
      ],
      "max": [
        0.9901999831199646,
        0.9958000183105469
      ],
      "type": "VEC2",
      "bufferView": 2,
      "byteOffset": 12256
    },
    {
      "name": "Box001_1_17_indices",
      "componentType": 5123,
      "count": 30,
      "min": [
        0
      ],
      "max": [
        19
      ],
      "type": "SCALAR",
      "bufferView": 3,
      "byteOffset": 4648
    }
  ],
  "asset": {
    "generator": "obj2gltf",
    "version": "2.0"
  },
  "buffers": [
    {
      "name": "Q6",
      "byteLength": 54372,
      "uri": "data:application/octet-stream;base64,"
    }
  ],
  "bufferViews": [
    {
      "name": "bufferView_0",
      "buffer": 0,
      "byteLength": 18624,
      "byteOffset": 0,
      "byteStride": 12,
      "target": 34962
    },
    {
      "name": "bufferView_1",
      "buffer": 0,
      "byteLength": 18624,
      "byteOffset": 18624,
      "byteStride": 12,
      "target": 34962
    },
    {
      "name": "bufferView_2",
      "buffer": 0,
      "byteLength": 12416,
      "byteOffset": 37248,
      "byteStride": 8,
      "target": 34962
    },
    {
      "name": "bufferView_3",
      "buffer": 0,
      "byteLength": 4708,
      "byteOffset": 49664,
      "target": 34963
    }
  ],
  "images": [
    {
      "name": "SGY_q1_065",
      "uri": "SGY_q1_065.jpg"
    },
    {
      "name": "SGY_q1_069",
      "uri": "SGY_q1_069.jpg"
    },
    {
      "name": "SGY_q1_066",
      "uri": "SGY_q1_066.jpg"
    },
    {
      "name": "SGY_Q2_002",
      "uri": "SGY_Q2_002.jpg"
    },
    {
      "name": "SGY_q1_064",
      "uri": "SGY_q1_064.jpg"
    },
    {
      "name": "SGY_q1_067",
      "uri": "SGY_q1_067.jpg"
    },
    {
      "name": "SGY_q1_062",
      "uri": "SGY_q1_062.jpg"
    },
    {
      "name": "SGY_q1_068",
      "uri": "SGY_q1_068.jpg"
    },
    {
      "name": "SGY_q1_061",
      "uri": "SGY_q1_061.jpg"
    },
    {
      "name": "SGY_q1_060",
      "uri": "SGY_q1_060.jpg"
    },
    {
      "name": "SGY_q1_070",
      "uri": "SGY_q1_070.jpg"
    },
    {
      "name": "SGY_q1_071",
      "uri": "SGY_q1_071.jpg"
    },
    {
      "name": "SGY_q1_072",
      "uri": "SGY_q1_072.jpg"
    },
    {
      "name": "SGY_q1_063",
      "uri": "SGY_q1_063.jpg"
    },
    {
      "name": "SGY_q1_058",
      "uri": "SGY_q1_058.jpg"
    }
  ],
  "materials": [
    {
      "name": "Material__642",
      "pbrMetallicRoughness": {
        "baseColorTexture": {
          "index": 0
        },
        "baseColorFactor": [
          1,
          1,
          1,
          1
        ],
        "metallicFactor": 0,
        "roughnessFactor": 0.99
      },
      "emissiveFactor": [
        0,
        0,
        0
      ],
      "alphaMode": "OPAQUE",
      "doubleSided": false
    },
    {
      "name": "Material__863",
      "pbrMetallicRoughness": {
        "baseColorTexture": {
          "index": 1
        },
        "baseColorFactor": [
          1,
          1,
          1,
          1
        ],
        "metallicFactor": 0,
        "roughnessFactor": 0.99
      },
      "emissiveFactor": [
        0,
        0,
        0
      ],
      "alphaMode": "OPAQUE",
      "doubleSided": false
    },
    {
      "name": "Material__702",
      "pbrMetallicRoughness": {
        "baseColorTexture": {
          "index": 2
        },
        "baseColorFactor": [
          1,
          1,
          1,
          1
        ],
        "metallicFactor": 0,
        "roughnessFactor": 0.99
      },
      "emissiveFactor": [
        0,
        0,
        0
      ],
      "alphaMode": "OPAQUE",
      "doubleSided": false
    },
    {
      "name": "Material__416",
      "pbrMetallicRoughness": {
        "baseColorTexture": {
          "index": 3
        },
        "baseColorFactor": [
          1,
          1,
          1,
          1
        ],
        "metallicFactor": 0,
        "roughnessFactor": 0.99
      },
      "emissiveFactor": [
        0,
        0,
        0
      ],
      "alphaMode": "OPAQUE",
      "doubleSided": false
    },
    {
      "name": "Material__608",
      "pbrMetallicRoughness": {
        "baseColorTexture": {
          "index": 4
        },
        "baseColorFactor": [
          1,
          1,
          1,
          1
        ],
        "metallicFactor": 0,
        "roughnessFactor": 0.99
      },
      "emissiveFactor": [
        0,
        0,
        0
      ],
      "alphaMode": "OPAQUE",
      "doubleSided": false
    },
    {
      "name": "Material__783",
      "pbrMetallicRoughness": {
        "baseColorTexture": {
          "index": 5
        },
        "baseColorFactor": [
          1,
          1,
          1,
          1
        ],
        "metallicFactor": 0,
        "roughnessFactor": 0.99
      },
      "emissiveFactor": [
        0,
        0,
        0
      ],
      "alphaMode": "OPAQUE",
      "doubleSided": false
    },
    {
      "name": "Material__142",
      "pbrMetallicRoughness": {
        "baseColorTexture": {
          "index": 6
        },
        "baseColorFactor": [
          1,
          1,
          1,
          1
        ],
        "metallicFactor": 0,
        "roughnessFactor": 0.99
      },
      "emissiveFactor": [
        0,
        0,
        0
      ],
      "alphaMode": "OPAQUE",
      "doubleSided": false
    },
    {
      "name": "01___Default",
      "pbrMetallicRoughness": {
        "baseColorFactor": [
          0.5882,
          0.5882,
          0.5882,
          1
        ],
        "metallicFactor": 0,
        "roughnessFactor": 0.99
      },
      "emissiveFactor": [
        0,
        0,
        0
      ],
      "alphaMode": "OPAQUE",
      "doubleSided": false
    },
    {
      "name": "Material__840",
      "pbrMetallicRoughness": {
        "baseColorTexture": {
          "index": 7
        },
        "baseColorFactor": [
          1,
          1,
          1,
          1
        ],
        "metallicFactor": 0,
        "roughnessFactor": 0.99
      },
      "emissiveFactor": [
        0,
        0,
        0
      ],
      "alphaMode": "OPAQUE",
      "doubleSided": false
    },
    {
      "name": "Material__97",
      "pbrMetallicRoughness": {
        "baseColorTexture": {
          "index": 8
        },
        "baseColorFactor": [
          1,
          1,
          1,
          1
        ],
        "metallicFactor": 0,
        "roughnessFactor": 0.99
      },
      "emissiveFactor": [
        0,
        0,
        0
      ],
      "alphaMode": "OPAQUE",
      "doubleSided": false
    },
    {
      "name": "Material__881",
      "pbrMetallicRoughness": {
        "baseColorFactor": [
          0.588,
          0.588,
          0.588,
          1
        ],
        "metallicFactor": 0,
        "roughnessFactor": 0.99
      },
      "emissiveFactor": [
        0,
        0,
        0
      ],
      "alphaMode": "OPAQUE",
      "doubleSided": false
    },
    {
      "name": "16___Default",
      "pbrMetallicRoughness": {
        "baseColorFactor": [
          0.5882,
          0.5882,
          0.5882,
          1
        ],
        "metallicFactor": 0,
        "roughnessFactor": 0.99
      },
      "emissiveFactor": [
        0,
        0,
        0
      ],
      "alphaMode": "OPAQUE",
      "doubleSided": false
    },
    {
      "name": "Material__73",
      "pbrMetallicRoughness": {
        "baseColorTexture": {
          "index": 9
        },
        "baseColorFactor": [
          1,
          1,
          1,
          1
        ],
        "metallicFactor": 0,
        "roughnessFactor": 0.99
      },
      "emissiveFactor": [
        0,
        0,
        0
      ],
      "alphaMode": "OPAQUE",
      "doubleSided": false
    },
    {
      "name": "Material__898",
      "pbrMetallicRoughness": {
        "baseColorTexture": {
          "index": 10
        },
        "baseColorFactor": [
          1,
          1,
          1,
          1
        ],
        "metallicFactor": 0,
        "roughnessFactor": 0.99
      },
      "emissiveFactor": [
        0,
        0,
        0
      ],
      "alphaMode": "OPAQUE",
      "doubleSided": false
    },
    {
      "name": "Material__922",
      "pbrMetallicRoughness": {
        "baseColorTexture": {
          "index": 11
        },
        "baseColorFactor": [
          1,
          1,
          1,
          1
        ],
        "metallicFactor": 0,
        "roughnessFactor": 0.99
      },
      "emissiveFactor": [
        0,
        0,
        0
      ],
      "alphaMode": "OPAQUE",
      "doubleSided": false
    },
    {
      "name": "Material__945",
      "pbrMetallicRoughness": {
        "baseColorTexture": {
          "index": 12
        },
        "baseColorFactor": [
          1,
          1,
          1,
          1
        ],
        "metallicFactor": 0,
        "roughnessFactor": 0.99
      },
      "emissiveFactor": [
        0,
        0,
        0
      ],
      "alphaMode": "OPAQUE",
      "doubleSided": false
    },
    {
      "name": "Material__428",
      "pbrMetallicRoughness": {
        "baseColorTexture": {
          "index": 13
        },
        "baseColorFactor": [
          1,
          1,
          1,
          1
        ],
        "metallicFactor": 0,
        "roughnessFactor": 0.99
      },
      "emissiveFactor": [
        0,
        0,
        0
      ],
      "alphaMode": "OPAQUE",
      "doubleSided": false
    },
    {
      "name": "Material__25",
      "pbrMetallicRoughness": {
        "baseColorTexture": {
          "index": 14
        },
        "baseColorFactor": [
          1,
          1,
          1,
          1
        ],
        "metallicFactor": 0,
        "roughnessFactor": 0.99
      },
      "emissiveFactor": [
        0,
        0,
        0
      ],
      "alphaMode": "OPAQUE",
      "doubleSided": false
    }
  ],
  "meshes": [
    {
      "name": "Box001_1",
      "primitives": [
        {
          "attributes": {
            "POSITION": 0,
            "NORMAL": 1,
            "TEXCOORD_0": 2
          },
          "indices": 3,
          "material": 0,
          "mode": 4
        },
        {
          "attributes": {
            "POSITION": 4,
            "NORMAL": 5,
            "TEXCOORD_0": 6
          },
          "indices": 7,
          "material": 1,
          "mode": 4
        },
        {
          "attributes": {
            "POSITION": 8,
            "NORMAL": 9,
            "TEXCOORD_0": 10
          },
          "indices": 11,
          "material": 2,
          "mode": 4
        },
        {
          "attributes": {
            "POSITION": 12,
            "NORMAL": 13,
            "TEXCOORD_0": 14
          },
          "indices": 15,
          "material": 3,
          "mode": 4
        },
        {
          "attributes": {
            "POSITION": 16,
            "NORMAL": 17,
            "TEXCOORD_0": 18
          },
          "indices": 19,
          "material": 4,
          "mode": 4
        },
        {
          "attributes": {
            "POSITION": 20,
            "NORMAL": 21,
            "TEXCOORD_0": 22
          },
          "indices": 23,
          "material": 5,
          "mode": 4
        },
        {
          "attributes": {
            "POSITION": 24,
            "NORMAL": 25,
            "TEXCOORD_0": 26
          },
          "indices": 27,
          "material": 6,
          "mode": 4
        },
        {
          "attributes": {
            "POSITION": 28,
            "NORMAL": 29,
            "TEXCOORD_0": 30
          },
          "indices": 31,
          "material": 7,
          "mode": 4
        },
        {
          "attributes": {
            "POSITION": 32,
            "NORMAL": 33,
            "TEXCOORD_0": 34
          },
          "indices": 35,
          "material": 8,
          "mode": 4
        },
        {
          "attributes": {
            "POSITION": 36,
            "NORMAL": 37,
            "TEXCOORD_0": 38
          },
          "indices": 39,
          "material": 9,
          "mode": 4
        },
        {
          "attributes": {
            "POSITION": 40,
            "NORMAL": 41,
            "TEXCOORD_0": 42
          },
          "indices": 43,
          "material": 10,
          "mode": 4
        },
        {
          "attributes": {
            "POSITION": 44,
            "NORMAL": 45,
            "TEXCOORD_0": 46
          },
          "indices": 47,
          "material": 11,
          "mode": 4
        },
        {
          "attributes": {
            "POSITION": 48,
            "NORMAL": 49,
            "TEXCOORD_0": 50
          },
          "indices": 51,
          "material": 12,
          "mode": 4
        },
        {
          "attributes": {
            "POSITION": 52,
            "NORMAL": 53,
            "TEXCOORD_0": 54
          },
          "indices": 55,
          "material": 13,
          "mode": 4
        },
        {
          "attributes": {
            "POSITION": 56,
            "NORMAL": 57,
            "TEXCOORD_0": 58
          },
          "indices": 59,
          "material": 14,
          "mode": 4
        },
        {
          "attributes": {
            "POSITION": 60,
            "NORMAL": 61,
            "TEXCOORD_0": 62
          },
          "indices": 63,
          "material": 15,
          "mode": 4
        },
        {
          "attributes": {
            "POSITION": 64,
            "NORMAL": 65,
            "TEXCOORD_0": 66
          },
          "indices": 67,
          "material": 16,
          "mode": 4
        },
        {
          "attributes": {
            "POSITION": 68,
            "NORMAL": 69,
            "TEXCOORD_0": 70
          },
          "indices": 71,
          "material": 17,
          "mode": 4
        }
      ]
    }
  ],
  "nodes": [
    {
      "name": "Box001",
      "mesh": 0
    }
  ],
  "samplers": [
    {
      "wrapS": 10497,
      "wrapT": 10497
    }
  ],
  "scene": 0,
  "scenes": [
    {
      "nodes": [
        0
      ]
    }
  ],
  "textures": [
    {
      "name": "SGY_q1_065",
      "sampler": 0,
      "source": 0
    },
    {
      "name": "SGY_q1_069",
      "sampler": 0,
      "source": 1
    },
    {
      "name": "SGY_q1_066",
      "sampler": 0,
      "source": 2
    },
    {
      "name": "SGY_Q2_002",
      "sampler": 0,
      "source": 3
    },
    {
      "name": "SGY_q1_064",
      "sampler": 0,
      "source": 4
    },
    {
      "name": "SGY_q1_067",
      "sampler": 0,
      "source": 5
    },
    {
      "name": "SGY_q1_062",
      "sampler": 0,
      "source": 6
    },
    {
      "name": "SGY_q1_068",
      "sampler": 0,
      "source": 7
    },
    {
      "name": "SGY_q1_061",
      "sampler": 0,
      "source": 8
    },
    {
      "name": "SGY_q1_060",
      "sampler": 0,
      "source": 9
    },
    {
      "name": "SGY_q1_070",
      "sampler": 0,
      "source": 10
    },
    {
      "name": "SGY_q1_071",
      "sampler": 0,
      "source": 11
    },
    {
      "name": "SGY_q1_072",
      "sampler": 0,
      "source": 12
    },
    {
      "name": "SGY_q1_063",
      "sampler": 0,
      "source": 13
    },
    {
      "name": "SGY_q1_058",
      "sampler": 0,
      "source": 14
    }
  ]
}
