{
  "accessors": [
    {
      "name": "Box007_1_0_positions",
      "componentType": 5126,
      "count": 52,
      "min": [
        -30.770999908447266,
        -39.99140167236328,
        22.449800491333008
      ],
      "max": [
        29.684999465942383,
        39.606300354003906,
        26.627099990844727
      ],
      "type": "VEC3",
      "bufferView": 0,
      "byteOffset": 0
    },
    {
      "name": "Box007_1_0_normals",
      "componentType": 5126,
      "count": 52,
      "min": [
        -1,
        -1,
        -1
      ],
      "max": [
        1,
        1,
        1
      ],
      "type": "VEC3",
      "bufferView": 1,
      "byteOffset": 0
    },
    {
      "name": "Box007_1_0_texcoords",
      "componentType": 5126,
      "count": 52,
      "min": [
        -1.5845999717712402,
        -1.5845999717712402
      ],
      "max": [
        2.5845999717712402,
        2.5845999717712402
      ],
      "type": "VEC2",
      "bufferView": 2,
      "byteOffset": 0
    },
    {
      "name": "Box007_1_0_indices",
      "componentType": 5123,
      "count": 90,
      "min": [
        0
      ],
      "max": [
        51
      ],
      "type": "SCALAR",
      "bufferView": 3,
      "byteOffset": 0
    },
    {
      "name": "Box007_1_1_positions",
      "componentType": 5126,
      "count": 8,
      "min": [
        -26.150299072265625,
        -35.216800689697266,
        0
      ],
      "max": [
        26.150299072265625,
        35.216800689697266,
        24.604400634765625
      ],
      "type": "VEC3",
      "bufferView": 0,
      "byteOffset": 624
    },
    {
      "name": "Box007_1_1_normals",
      "componentType": 5126,
      "count": 8,
      "min": [
        0,
        -1,
        0
      ],
      "max": [
        0,
        1,
        0
      ],
      "type": "VEC3",
      "bufferView": 1,
      "byteOffset": 624
    },
    {
      "name": "Box007_1_1_texcoords",
      "componentType": 5126,
      "count": 8,
      "min": [
        -1.0823999643325806,
        -1.0580999851226807
      ],
      "max": [
        2.08240008354187,
        1.0351999998092651
      ],
      "type": "VEC2",
      "bufferView": 2,
      "byteOffset": 416
    },
    {
      "name": "Box007_1_1_indices",
      "componentType": 5123,
      "count": 12,
      "min": [
        0
      ],
      "max": [
        7
      ],
      "type": "SCALAR",
      "bufferView": 3,
      "byteOffset": 180
    },
    {
      "name": "Box007_1_2_positions",
      "componentType": 5126,
      "count": 8,
      "min": [
        -26.150299072265625,
        -35.216800689697266,
        0
      ],
      "max": [
        26.150299072265625,
        35.216800689697266,
        24.604400634765625
      ],
      "type": "VEC3",
      "bufferView": 0,
      "byteOffset": 720
    },
    {
      "name": "Box007_1_2_normals",
      "componentType": 5126,
      "count": 8,
      "min": [
        -1,
        0,
        0
      ],
      "max": [
        1,
        0,
        0
      ],
      "type": "VEC3",
      "bufferView": 1,
      "byteOffset": 720
    },
    {
      "name": "Box007_1_2_texcoords",
      "componentType": 5126,
      "count": 8,
      "min": [
        -0.9271000027656555,
        -0.04580000042915344
      ],
      "max": [
        1.9270999431610107,
        1.1535999774932861
      ],
      "type": "VEC2",
      "bufferView": 2,
      "byteOffset": 480
    },
    {
      "name": "Box007_1_2_indices",
      "componentType": 5123,
      "count": 12,
      "min": [
        0
      ],
      "max": [
        7
      ],
      "type": "SCALAR",
      "bufferView": 3,
      "byteOffset": 204
    }
  ],
  "asset": {
    "generator": "obj2gltf",
    "version": "2.0"
  },
  "buffers": [
    {
      "name": "SG_jz13",
      "byteLength": 2404,
      "uri": "data:application/octet-stream;base64,"
    }
  ],
  "bufferViews": [
    {
      "name": "bufferView_0",
      "buffer": 0,
      "byteLength": 816,
      "byteOffset": 0,
      "byteStride": 12,
      "target": 34962
    },
    {
      "name": "bufferView_1",
      "buffer": 0,
      "byteLength": 816,
      "byteOffset": 816,
      "byteStride": 12,
      "target": 34962
    },
    {
      "name": "bufferView_2",
      "buffer": 0,
      "byteLength": 544,
      "byteOffset": 1632,
      "byteStride": 8,
      "target": 34962
    },
    {
      "name": "bufferView_3",
      "buffer": 0,
      "byteLength": 228,
      "byteOffset": 2176,
      "target": 34963
    }
  ],
  "images": [
    {
      "name": "sggf_01",
      "uri": "sggf_01.jpg"
    },
    {
      "name": "sgbq_0025",
      "uri": "sgbq_0025.jpg"
    },
    {
      "name": "sgbq_0026",
      "uri": "sgbq_0026.jpg"
    }
  ],
  "materials": [
    {
      "name": "Material__538",
      "pbrMetallicRoughness": {
        "baseColorTexture": {
          "index": 0
        },
        "baseColorFactor": [
          1,
          1,
          1,
          1
        ],
        "metallicFactor": 0,
        "roughnessFactor": 0.99
      },
      "emissiveFactor": [
        0,
        0,
        0
      ],
      "alphaMode": "OPAQUE",
      "doubleSided": false
    },
    {
      "name": "Material__587",
      "pbrMetallicRoughness": {
        "baseColorTexture": {
          "index": 1
        },
        "baseColorFactor": [
          1,
          1,
          1,
          1
        ],
        "metallicFactor": 0,
        "roughnessFactor": 0.99
      },
      "emissiveFactor": [
        0,
        0,
        0
      ],
      "alphaMode": "OPAQUE",
      "doubleSided": false
    },
    {
      "name": "Material__586",
      "pbrMetallicRoughness": {
        "baseColorTexture": {
          "index": 2
        },
        "baseColorFactor": [
          1,
          1,
          1,
          1
        ],
        "metallicFactor": 0,
        "roughnessFactor": 0.99
      },
      "emissiveFactor": [
        0,
        0,
        0
      ],
      "alphaMode": "OPAQUE",
      "doubleSided": false
    }
  ],
  "meshes": [
    {
      "name": "Box007_1",
      "primitives": [
        {
          "attributes": {
            "POSITION": 0,
            "NORMAL": 1,
            "TEXCOORD_0": 2
          },
          "indices": 3,
          "material": 0,
          "mode": 4
        },
        {
          "attributes": {
            "POSITION": 4,
            "NORMAL": 5,
            "TEXCOORD_0": 6
          },
          "indices": 7,
          "material": 1,
          "mode": 4
        },
        {
          "attributes": {
            "POSITION": 8,
            "NORMAL": 9,
            "TEXCOORD_0": 10
          },
          "indices": 11,
          "material": 2,
          "mode": 4
        }
      ]
    }
  ],
  "nodes": [
    {
      "name": "Box007",
      "mesh": 0
    }
  ],
  "samplers": [
    {
      "wrapS": 10497,
      "wrapT": 10497
    }
  ],
  "scene": 0,
  "scenes": [
    {
      "nodes": [
        0
      ]
    }
  ],
  "textures": [
    {
      "name": "sggf_01",
      "sampler": 0,
      "source": 0
    },
    {
      "name": "sgbq_0025",
      "sampler": 0,
      "source": 1
    },
    {
      "name": "sgbq_0026",
      "sampler": 0,
      "source": 2
    }
  ]
}
