{
  "accessors": [
    {
      "name": "Box001_1_0_positions",
      "componentType": 5126,
      "count": 1172,
      "min": [
        -43.12670135498047,
        -3.5,
        0
      ],
      "max": [
        37,
        3.5,
        6.637599945068359
      ],
      "type": "VEC3",
      "bufferView": 0,
      "byteOffset": 0
    },
    {
      "name": "Box001_1_0_normals",
      "componentType": 5126,
      "count": 1172,
      "min": [
        -1,
        -1,
        -1
      ],
      "max": [
        1,
        1,
        1
      ],
      "type": "VEC3",
      "bufferView": 1,
      "byteOffset": 0
    },
    {
      "name": "Box001_1_0_texcoords",
      "componentType": 5126,
      "count": 1172,
      "min": [
        -3.6666998863220215,
        -0.29260000586509705
      ],
      "max": [
        4.6666998863220215,
        0.7809000015258789
      ],
      "type": "VEC2",
      "bufferView": 2,
      "byteOffset": 0
    },
    {
      "name": "Box001_1_0_indices",
      "componentType": 5123,
      "count": 1872,
      "min": [
        0
      ],
      "max": [
        1171
      ],
      "type": "SCALAR",
      "bufferView": 3,
      "byteOffset": 0
    },
    {
      "name": "Box001_1_1_positions",
      "componentType": 5126,
      "count": 1243,
      "min": [
        -44.959999084472656,
        -4.460000038146973,
        0
      ],
      "max": [
        44.959999084472656,
        4.460000038146973,
        17.07900047302246
      ],
      "type": "VEC3",
      "bufferView": 0,
      "byteOffset": 14064
    },
    {
      "name": "Box001_1_1_normals",
      "componentType": 5126,
      "count": 1243,
      "min": [
        -1,
        -1,
        -1
      ],
      "max": [
        1,
        1,
        1
      ],
      "type": "VEC3",
      "bufferView": 1,
      "byteOffset": 14064
    },
    {
      "name": "Box001_1_1_texcoords",
      "componentType": 5126,
      "count": 1243,
      "min": [
        0,
        0
      ],
      "max": [
        1,
        1
      ],
      "type": "VEC2",
      "bufferView": 2,
      "byteOffset": 9376
    },
    {
      "name": "Box001_1_1_indices",
      "componentType": 5123,
      "count": 2394,
      "min": [
        0
      ],
      "max": [
        1242
      ],
      "type": "SCALAR",
      "bufferView": 3,
      "byteOffset": 3744
    },
    {
      "name": "Box001_1_2_positions",
      "componentType": 5126,
      "count": 16,
      "min": [
        -43.870399475097656,
        -3.3482000827789307,
        6.432400226593018
      ],
      "max": [
        43.8661994934082,
        3.3410000801086426,
        7.945400238037109
      ],
      "type": "VEC3",
      "bufferView": 0,
      "byteOffset": 28980
    },
    {
      "name": "Box001_1_2_normals",
      "componentType": 5126,
      "count": 16,
      "min": [
        -1,
        -1,
        0
      ],
      "max": [
        1,
        1,
        0
      ],
      "type": "VEC3",
      "bufferView": 1,
      "byteOffset": 28980
    },
    {
      "name": "Box001_1_2_texcoords",
      "componentType": 5126,
      "count": 16,
      "min": [
        -49.499900817871094,
        -0.6654000282287598
      ],
      "max": [
        50.499900817871094,
        0.8901000022888184
      ],
      "type": "VEC2",
      "bufferView": 2,
      "byteOffset": 19320
    },
    {
      "name": "Box001_1_2_indices",
      "componentType": 5123,
      "count": 24,
      "min": [
        0
      ],
      "max": [
        15
      ],
      "type": "SCALAR",
      "bufferView": 3,
      "byteOffset": 8532
    }
  ],
  "asset": {
    "generator": "obj2gltf",
    "version": "2.0"
  },
  "buffers": [
    {
      "name": "Q7",
      "byteLength": 86372,
      "uri": "data:application/octet-stream;base64,"
    }
  ],
  "bufferViews": [
    {
      "name": "bufferView_0",
      "buffer": 0,
      "byteLength": 29172,
      "byteOffset": 0,
      "byteStride": 12,
      "target": 34962
    },
    {
      "name": "bufferView_1",
      "buffer": 0,
      "byteLength": 29172,
      "byteOffset": 29172,
      "byteStride": 12,
      "target": 34962
    },
    {
      "name": "bufferView_2",
      "buffer": 0,
      "byteLength": 19448,
      "byteOffset": 58344,
      "byteStride": 8,
      "target": 34962
    },
    {
      "name": "bufferView_3",
      "buffer": 0,
      "byteLength": 8580,
      "byteOffset": 77792,
      "target": 34963
    }
  ],
  "images": [
    {
      "name": "SGY_q1_059",
      "uri": "SGY_q1_059.jpg"
    },
    {
      "name": "SGY_q1_173",
      "uri": "SGY_q1_173.jpg"
    },
    {
      "name": "SGY_Q5_002",
      "uri": "SGY_Q5_002.png"
    }
  ],
  "materials": [
    {
      "name": "Material__72",
      "pbrMetallicRoughness": {
        "baseColorTexture": {
          "index": 0
        },
        "baseColorFactor": [
          1,
          1,
          1,
          1
        ],
        "metallicFactor": 0,
        "roughnessFactor": 0.99
      },
      "emissiveFactor": [
        0,
        0,
        0
      ],
      "alphaMode": "OPAQUE",
      "doubleSided": false
    },
    {
      "name": "Material__2",
      "pbrMetallicRoughness": {
        "baseColorTexture": {
          "index": 1
        },
        "baseColorFactor": [
          1,
          1,
          1,
          1
        ],
        "metallicFactor": 0,
        "roughnessFactor": 0.99
      },
      "emissiveFactor": [
        0,
        0,
        0
      ],
      "alphaMode": "OPAQUE",
      "doubleSided": false
    },
    {
      "name": "Material__1",
      "pbrMetallicRoughness": {
        "baseColorTexture": {
          "index": 2
        },
        "baseColorFactor": [
          1,
          1,
          1,
          1
        ],
        "metallicFactor": 0,
        "roughnessFactor": 0.99
      },
      "emissiveFactor": [
        0,
        0,
        0
      ],
      "alphaMode": "BLEND",
      "doubleSided": true
    }
  ],
  "meshes": [
    {
      "name": "Box001_1",
      "primitives": [
        {
          "attributes": {
            "POSITION": 0,
            "NORMAL": 1,
            "TEXCOORD_0": 2
          },
          "indices": 3,
          "material": 0,
          "mode": 4
        },
        {
          "attributes": {
            "POSITION": 4,
            "NORMAL": 5,
            "TEXCOORD_0": 6
          },
          "indices": 7,
          "material": 1,
          "mode": 4
        },
        {
          "attributes": {
            "POSITION": 8,
            "NORMAL": 9,
            "TEXCOORD_0": 10
          },
          "indices": 11,
          "material": 2,
          "mode": 4
        }
      ]
    }
  ],
  "nodes": [
    {
      "name": "Box001",
      "mesh": 0
    }
  ],
  "samplers": [
    {
      "wrapS": 10497,
      "wrapT": 10497
    }
  ],
  "scene": 0,
  "scenes": [
    {
      "nodes": [
        0
      ]
    }
  ],
  "textures": [
    {
      "name": "SGY_q1_059",
      "sampler": 0,
      "source": 0
    },
    {
      "name": "SGY_q1_173",
      "sampler": 0,
      "source": 1
    },
    {
      "name": "SGY_Q5_002",
      "sampler": 0,
      "source": 2
    }
  ]
}
