{
  "accessors": [
    {
      "name": "Object001_1_0_positions",
      "componentType": 5126,
      "count": 1531,
      "min": [
        -73.43090057373047,
        -11.109399795532227,
        0
      ],
      "max": [
        73.43090057373047,
        11.109399795532227,
        8.326499938964844
      ],
      "type": "VEC3",
      "bufferView": 0,
      "byteOffset": 0
    },
    {
      "name": "Object001_1_0_normals",
      "componentType": 5126,
      "count": 1531,
      "min": [
        -1,
        -1,
        -1
      ],
      "max": [
        1,
        1,
        1
      ],
      "type": "VEC3",
      "bufferView": 1,
      "byteOffset": 0
    },
    {
      "name": "Object001_1_0_texcoords",
      "componentType": 5126,
      "count": 1531,
      "min": [
        -49.50019836425781,
        -5.18179988861084
      ],
      "max": [
        50.50019836425781,
        6.18179988861084
      ],
      "type": "VEC2",
      "bufferView": 2,
      "byteOffset": 0
    },
    {
      "name": "Object001_1_0_indices",
      "componentType": 5123,
      "count": 3402,
      "min": [
        0
      ],
      "max": [
        1530
      ],
      "type": "SCALAR",
      "bufferView": 3,
      "byteOffset": 0
    },
    {
      "name": "Object001_1_1_positions",
      "componentType": 5126,
      "count": 64,
      "min": [
        5.788300037384033,
        7.109399795532227,
        3.3929998874664307
      ],
      "max": [
        23.749000549316406,
        11.109399795532227,
        7.907700061798096
      ],
      "type": "VEC3",
      "bufferView": 0,
      "byteOffset": 18372
    },
    {
      "name": "Object001_1_1_normals",
      "componentType": 5126,
      "count": 64,
      "min": [
        -0.9065022468566895,
        0,
        0.4222010374069214
      ],
      "max": [
        0.9065022468566895,
        0,
        0.9983107447624207
      ],
      "type": "VEC3",
      "bufferView": 1,
      "byteOffset": 18372
    },
    {
      "name": "Object001_1_1_texcoords",
      "componentType": 5126,
      "count": 64,
      "min": [
        -0.289000004529953,
        -0.7353000044822693
      ],
      "max": [
        0.9589999914169312,
        1.583400011062622
      ],
      "type": "VEC2",
      "bufferView": 2,
      "byteOffset": 12248
    },
    {
      "name": "Object001_1_1_indices",
      "componentType": 5123,
      "count": 96,
      "min": [
        0
      ],
      "max": [
        63
      ],
      "type": "SCALAR",
      "bufferView": 3,
      "byteOffset": 6804
    },
    {
      "name": "Object001_1_2_positions",
      "componentType": 5126,
      "count": 210,
      "min": [
        -73.38860321044922,
        -10.957200050354004,
        3.2458999156951904
      ],
      "max": [
        73.3947982788086,
        10.92650032043457,
        10.007100105285645
      ],
      "type": "VEC3",
      "bufferView": 0,
      "byteOffset": 19140
    },
    {
      "name": "Object001_1_2_normals",
      "componentType": 5126,
      "count": 210,
      "min": [
        -0.9999889731407166,
        -1,
        0
      ],
      "max": [
        0.9390377998352051,
        1,
        0
      ],
      "type": "VEC3",
      "bufferView": 1,
      "byteOffset": 19140
    },
    {
      "name": "Object001_1_2_texcoords",
      "componentType": 5126,
      "count": 210,
      "min": [
        -11.85770034790039,
        0.07329999655485153
      ],
      "max": [
        11.935700416564941,
        1.0500999689102173
      ],
      "type": "VEC2",
      "bufferView": 2,
      "byteOffset": 12760
    },
    {
      "name": "Object001_1_2_indices",
      "componentType": 5123,
      "count": 462,
      "min": [
        0
      ],
      "max": [
        209
      ],
      "type": "SCALAR",
      "bufferView": 3,
      "byteOffset": 6996
    }
  ],
  "asset": {
    "generator": "obj2gltf",
    "version": "2.0"
  },
  "buffers": [
    {
      "name": "Q11",
      "byteLength": 65680,
      "uri": "data:application/octet-stream;base64,"
    }
  ],
  "bufferViews": [
    {
      "name": "bufferView_0",
      "buffer": 0,
      "byteLength": 21660,
      "byteOffset": 0,
      "byteStride": 12,
      "target": 34962
    },
    {
      "name": "bufferView_1",
      "buffer": 0,
      "byteLength": 21660,
      "byteOffset": 21660,
      "byteStride": 12,
      "target": 34962
    },
    {
      "name": "bufferView_2",
      "buffer": 0,
      "byteLength": 14440,
      "byteOffset": 43320,
      "byteStride": 8,
      "target": 34962
    },
    {
      "name": "bufferView_3",
      "buffer": 0,
      "byteLength": 7920,
      "byteOffset": 57760,
      "target": 34963
    }
  ],
  "images": [
    {
      "name": "SGY_q1_059",
      "uri": "SGY_q1_059.jpg"
    },
    {
      "name": "SGY_q1_157",
      "uri": "SGY_q1_157.jpg"
    },
    {
      "name": "wcl_006",
      "uri": "wcl_006.png"
    }
  ],
  "materials": [
    {
      "name": "Material__13",
      "pbrMetallicRoughness": {
        "baseColorTexture": {
          "index": 0
        },
        "baseColorFactor": [
          1,
          1,
          1,
          1
        ],
        "metallicFactor": 0,
        "roughnessFactor": 0.99
      },
      "emissiveFactor": [
        0,
        0,
        0
      ],
      "alphaMode": "OPAQUE",
      "doubleSided": false
    },
    {
      "name": "Material__114",
      "pbrMetallicRoughness": {
        "baseColorTexture": {
          "index": 1
        },
        "baseColorFactor": [
          1,
          1,
          1,
          1
        ],
        "metallicFactor": 0,
        "roughnessFactor": 0.99
      },
      "emissiveFactor": [
        0,
        0,
        0
      ],
      "alphaMode": "OPAQUE",
      "doubleSided": false
    },
    {
      "name": "Material__0",
      "pbrMetallicRoughness": {
        "baseColorTexture": {
          "index": 2
        },
        "baseColorFactor": [
          1,
          1,
          1,
          1
        ],
        "metallicFactor": 0,
        "roughnessFactor": 0.99
      },
      "emissiveFactor": [
        0,
        0,
        0
      ],
      "alphaMode": "BLEND",
      "doubleSided": true
    }
  ],
  "meshes": [
    {
      "name": "Object001_1",
      "primitives": [
        {
          "attributes": {
            "POSITION": 0,
            "NORMAL": 1,
            "TEXCOORD_0": 2
          },
          "indices": 3,
          "material": 0,
          "mode": 4
        },
        {
          "attributes": {
            "POSITION": 4,
            "NORMAL": 5,
            "TEXCOORD_0": 6
          },
          "indices": 7,
          "material": 1,
          "mode": 4
        },
        {
          "attributes": {
            "POSITION": 8,
            "NORMAL": 9,
            "TEXCOORD_0": 10
          },
          "indices": 11,
          "material": 2,
          "mode": 4
        }
      ]
    }
  ],
  "nodes": [
    {
      "name": "Object001",
      "mesh": 0
    }
  ],
  "samplers": [
    {
      "wrapS": 10497,
      "wrapT": 10497
    }
  ],
  "scene": 0,
  "scenes": [
    {
      "nodes": [
        0
      ]
    }
  ],
  "textures": [
    {
      "name": "SGY_q1_059",
      "sampler": 0,
      "source": 0
    },
    {
      "name": "SGY_q1_157",
      "sampler": 0,
      "source": 1
    },
    {
      "name": "wcl_006",
      "sampler": 0,
      "source": 2
    }
  ]
}
