{
  "accessors": [
    {
      "name": "Object001_1_0_positions",
      "componentType": 5126,
      "count": 455,
      "min": [
        -14.416199684143066,
        -7.117400169372559,
        21.075000762939453
      ],
      "max": [
        55.68280029296875,
        7.7804999351501465,
        34.04679870605469
      ],
      "type": "VEC3",
      "bufferView": 0,
      "byteOffset": 0
    },
    {
      "name": "Object001_1_0_normals",
      "componentType": 5126,
      "count": 455,
      "min": [
        -0.9999991655349731,
        -1,
        -0.9999889731407166
      ],
      "max": [
        0.9999991655349731,
        1,
        0.9999889731407166
      ],
      "type": "VEC3",
      "bufferView": 1,
      "byteOffset": 0
    },
    {
      "name": "Object001_1_0_texcoords",
      "componentType": 5126,
      "count": 455,
      "min": [
        0.05739999935030937,
        -0.11230000108480453
      ],
      "max": [
        0.9426000118255615,
        1.5601999759674072
      ],
      "type": "VEC2",
      "bufferView": 2,
      "byteOffset": 0
    },
    {
      "name": "Object001_1_0_indices",
      "componentType": 5123,
      "count": 732,
      "min": [
        0
      ],
      "max": [
        454
      ],
      "type": "SCALAR",
      "bufferView": 3,
      "byteOffset": 0
    },
    {
      "name": "Object001_1_1_positions",
      "componentType": 5126,
      "count": 1302,
      "min": [
        -10.180100440979004,
        -10.574700355529785,
        0
      ],
      "max": [
        29.673900604248047,
        10.574799537658691,
        20.941499710083008
      ],
      "type": "VEC3",
      "bufferView": 0,
      "byteOffset": 5460
    },
    {
      "name": "Object001_1_1_normals",
      "componentType": 5126,
      "count": 1302,
      "min": [
        -0.9999971389770508,
        -1,
        -0.9999971389770508
      ],
      "max": [
        0.9999971389770508,
        1,
        0.9999971389770508
      ],
      "type": "VEC3",
      "bufferView": 1,
      "byteOffset": 5460
    },
    {
      "name": "Object001_1_1_texcoords",
      "componentType": 5126,
      "count": 1302,
      "min": [
        -2.9233999252319336,
        -2.919800043106079
      ],
      "max": [
        3.9233999252319336,
        3.9233999252319336
      ],
      "type": "VEC2",
      "bufferView": 2,
      "byteOffset": 3640
    },
    {
      "name": "Object001_1_1_indices",
      "componentType": 5123,
      "count": 1956,
      "min": [
        0
      ],
      "max": [
        1301
      ],
      "type": "SCALAR",
      "bufferView": 3,
      "byteOffset": 1464
    },
    {
      "name": "Object001_1_2_positions",
      "componentType": 5126,
      "count": 460,
      "min": [
        50.35380172729492,
        -3.046299934387207,
        0.050599999725818634
      ],
      "max": [
        57.510101318359375,
        4.597799777984619,
        23.62849998474121
      ],
      "type": "VEC3",
      "bufferView": 0,
      "byteOffset": 21084
    },
    {
      "name": "Object001_1_2_normals",
      "componentType": 5126,
      "count": 460,
      "min": [
        -1,
        -1,
        -1
      ],
      "max": [
        0.9999969005584717,
        1,
        0.9999971389770508
      ],
      "type": "VEC3",
      "bufferView": 1,
      "byteOffset": 21084
    },
    {
      "name": "Object001_1_2_texcoords",
      "componentType": 5126,
      "count": 460,
      "min": [
        -2.9233999252319336,
        -2.919800043106079
      ],
      "max": [
        3.9233999252319336,
        3.9233999252319336
      ],
      "type": "VEC2",
      "bufferView": 2,
      "byteOffset": 14056
    },
    {
      "name": "Object001_1_2_indices",
      "componentType": 5123,
      "count": 696,
      "min": [
        0
      ],
      "max": [
        459
      ],
      "type": "SCALAR",
      "bufferView": 3,
      "byteOffset": 5376
    },
    {
      "name": "Object001_1_3_positions",
      "componentType": 5126,
      "count": 130,
      "min": [
        -29.662900924682617,
        -2.027899980545044,
        15.40719985961914
      ],
      "max": [
        -13.997400283813477,
        2.782399892807007,
        29.94860076904297
      ],
      "type": "VEC3",
      "bufferView": 0,
      "byteOffset": 26604
    },
    {
      "name": "Object001_1_3_normals",
      "componentType": 5126,
      "count": 130,
      "min": [
        -0.9516271948814392,
        -0.9999990463256836,
        -0.950602114200592
      ],
      "max": [
        0.9516271948814392,
        0.9999990463256836,
        0.951286256313324
      ],
      "type": "VEC3",
      "bufferView": 1,
      "byteOffset": 26604
    },
    {
      "name": "Object001_1_3_texcoords",
      "componentType": 5126,
      "count": 130,
      "min": [
        -0.28349998593330383,
        0
      ],
      "max": [
        1.2834999561309814,
        1
      ],
      "type": "VEC2",
      "bufferView": 2,
      "byteOffset": 17736
    },
    {
      "name": "Object001_1_3_indices",
      "componentType": 5123,
      "count": 480,
      "min": [
        0
      ],
      "max": [
        129
      ],
      "type": "SCALAR",
      "bufferView": 3,
      "byteOffset": 6768
    },
    {
      "name": "Object001_1_4_positions",
      "componentType": 5126,
      "count": 72,
      "min": [
        -50.01890182495117,
        -2.347399950027466,
        -0.016899999231100082
      ],
      "max": [
        -24.134700775146484,
        3.1024999618530273,
        16.41710090637207
      ],
      "type": "VEC3",
      "bufferView": 0,
      "byteOffset": 28164
    },
    {
      "name": "Object001_1_4_normals",
      "componentType": 5126,
      "count": 72,
      "min": [
        -1,
        -1,
        -0.7341206073760986
      ],
      "max": [
        0.9999837279319763,
        1,
        0.9999986886978149
      ],
      "type": "VEC3",
      "bufferView": 1,
      "byteOffset": 28164
    },
    {
      "name": "Object001_1_4_texcoords",
      "componentType": 5126,
      "count": 72,
      "min": [
        -2.3984999656677246,
        -0.5942000150680542
      ],
      "max": [
        2.9981000423431396,
        3.0100998878479004
      ],
      "type": "VEC2",
      "bufferView": 2,
      "byteOffset": 18776
    },
    {
      "name": "Object001_1_4_indices",
      "componentType": 5123,
      "count": 138,
      "min": [
        0
      ],
      "max": [
        71
      ],
      "type": "SCALAR",
      "bufferView": 3,
      "byteOffset": 7728
    },
    {
      "name": "Object001_1_5_positions",
      "componentType": 5126,
      "count": 448,
      "min": [
        -57.472999572753906,
        -4.541299819946289,
        0
      ],
      "max": [
        -47.472999572753906,
        5.30679988861084,
        38.777099609375
      ],
      "type": "VEC3",
      "bufferView": 0,
      "byteOffset": 29028
    },
    {
      "name": "Object001_1_5_normals",
      "componentType": 5126,
      "count": 448,
      "min": [
        -0.984815776348114,
        -1,
        0
      ],
      "max": [
        0.984815776348114,
        1,
        1
      ],
      "type": "VEC3",
      "bufferView": 1,
      "byteOffset": 29028
    },
    {
      "name": "Object001_1_5_texcoords",
      "componentType": 5126,
      "count": 448,
      "min": [
        0.028200000524520874,
        0
      ],
      "max": [
        1.695199966430664,
        1
      ],
      "type": "VEC2",
      "bufferView": 2,
      "byteOffset": 19352
    },
    {
      "name": "Object001_1_5_indices",
      "componentType": 5123,
      "count": 804,
      "min": [
        0
      ],
      "max": [
        447
      ],
      "type": "SCALAR",
      "bufferView": 3,
      "byteOffset": 8004
    }
  ],
  "asset": {
    "generator": "obj2gltf",
    "version": "2.0"
  },
  "buffers": [
    {
      "name": "jz16",
      "byteLength": 101356,
      "uri": "data:application/octet-stream;base64,"
    }
  ],
  "bufferViews": [
    {
      "name": "bufferView_0",
      "buffer": 0,
      "byteLength": 34404,
      "byteOffset": 0,
      "byteStride": 12,
      "target": 34962
    },
    {
      "name": "bufferView_1",
      "buffer": 0,
      "byteLength": 34404,
      "byteOffset": 34404,
      "byteStride": 12,
      "target": 34962
    },
    {
      "name": "bufferView_2",
      "buffer": 0,
      "byteLength": 22936,
      "byteOffset": 68808,
      "byteStride": 8,
      "target": 34962
    },
    {
      "name": "bufferView_3",
      "buffer": 0,
      "byteLength": 9612,
      "byteOffset": 91744,
      "target": 34963
    }
  ],
  "images": [
    {
      "name": "SGY_Q1_029",
      "uri": "SGY_Q1_029.jpg"
    },
    {
      "name": "011",
      "uri": "011.jpg"
    },
    {
      "name": "SGY_Q1_030",
      "uri": "SGY_Q1_030.jpg"
    },
    {
      "name": "sgy_1q_30",
      "uri": "sgy_1q_30.jpg"
    },
    {
      "name": "sgy_1q_10",
      "uri": "sgy_1q_10.jpg"
    }
  ],
  "materials": [
    {
      "name": "Material__36",
      "pbrMetallicRoughness": {
        "baseColorTexture": {
          "index": 0
        },
        "baseColorFactor": [
          1,
          1,
          1,
          1
        ],
        "metallicFactor": 0,
        "roughnessFactor": 0.99
      },
      "emissiveFactor": [
        0,
        0,
        0
      ],
      "alphaMode": "OPAQUE",
      "doubleSided": false
    },
    {
      "name": "Material__35",
      "pbrMetallicRoughness": {
        "baseColorTexture": {
          "index": 1
        },
        "baseColorFactor": [
          1,
          1,
          1,
          1
        ],
        "metallicFactor": 0,
        "roughnessFactor": 0.99
      },
      "emissiveFactor": [
        0,
        0,
        0
      ],
      "alphaMode": "OPAQUE",
      "doubleSided": false
    },
    {
      "name": "Material__37",
      "pbrMetallicRoughness": {
        "baseColorTexture": {
          "index": 2
        },
        "baseColorFactor": [
          1,
          1,
          1,
          1
        ],
        "metallicFactor": 0,
        "roughnessFactor": 0.99
      },
      "emissiveFactor": [
        0,
        0,
        0
      ],
      "alphaMode": "OPAQUE",
      "doubleSided": false
    },
    {
      "name": "Material__339",
      "pbrMetallicRoughness": {
        "baseColorTexture": {
          "index": 1
        },
        "baseColorFactor": [
          1,
          1,
          1,
          1
        ],
        "metallicFactor": 0,
        "roughnessFactor": 0.99
      },
      "emissiveFactor": [
        0,
        0,
        0
      ],
      "alphaMode": "OPAQUE",
      "doubleSided": false
    },
    {
      "name": "Material__338",
      "pbrMetallicRoughness": {
        "baseColorTexture": {
          "index": 3
        },
        "baseColorFactor": [
          1,
          1,
          1,
          1
        ],
        "metallicFactor": 0,
        "roughnessFactor": 0.99
      },
      "emissiveFactor": [
        0,
        0,
        0
      ],
      "alphaMode": "OPAQUE",
      "doubleSided": false
    },
    {
      "name": "Material__340",
      "pbrMetallicRoughness": {
        "baseColorTexture": {
          "index": 4
        },
        "baseColorFactor": [
          1,
          1,
          1,
          1
        ],
        "metallicFactor": 0,
        "roughnessFactor": 0.99
      },
      "emissiveFactor": [
        0,
        0,
        0
      ],
      "alphaMode": "OPAQUE",
      "doubleSided": false
    }
  ],
  "meshes": [
    {
      "name": "Object001_1",
      "primitives": [
        {
          "attributes": {
            "POSITION": 0,
            "NORMAL": 1,
            "TEXCOORD_0": 2
          },
          "indices": 3,
          "material": 0,
          "mode": 4
        },
        {
          "attributes": {
            "POSITION": 4,
            "NORMAL": 5,
            "TEXCOORD_0": 6
          },
          "indices": 7,
          "material": 1,
          "mode": 4
        },
        {
          "attributes": {
            "POSITION": 8,
            "NORMAL": 9,
            "TEXCOORD_0": 10
          },
          "indices": 11,
          "material": 2,
          "mode": 4
        },
        {
          "attributes": {
            "POSITION": 12,
            "NORMAL": 13,
            "TEXCOORD_0": 14
          },
          "indices": 15,
          "material": 3,
          "mode": 4
        },
        {
          "attributes": {
            "POSITION": 16,
            "NORMAL": 17,
            "TEXCOORD_0": 18
          },
          "indices": 19,
          "material": 4,
          "mode": 4
        },
        {
          "attributes": {
            "POSITION": 20,
            "NORMAL": 21,
            "TEXCOORD_0": 22
          },
          "indices": 23,
          "material": 5,
          "mode": 4
        }
      ]
    }
  ],
  "nodes": [
    {
      "name": "Object001",
      "mesh": 0
    }
  ],
  "samplers": [
    {
      "wrapS": 10497,
      "wrapT": 10497
    }
  ],
  "scene": 0,
  "scenes": [
    {
      "nodes": [
        0
      ]
    }
  ],
  "textures": [
    {
      "name": "SGY_Q1_029",
      "sampler": 0,
      "source": 0
    },
    {
      "name": "011",
      "sampler": 0,
      "source": 1
    },
    {
      "name": "SGY_Q1_030",
      "sampler": 0,
      "source": 2
    },
    {
      "name": "sgy_1q_30",
      "sampler": 0,
      "source": 3
    },
    {
      "name": "sgy_1q_10",
      "sampler": 0,
      "source": 4
    }
  ]
}
