{"asset":{"version":"2.0","generator":"babylon.js glTF exporter for 3dsmax 2022 v20240125.3"},"scene":0,"scenes":[{"nodes":[0]}],"nodes":[{"mesh":0,"translation":[0.0,1.335144E-05,0.0],"name":"Box026"}],"meshes":[{"primitives":[{"attributes":{"POSITION":1,"NORMAL":2,"TEXCOORD_0":3},"indices":0,"material":0},{"attributes":{"POSITION":5,"NORMAL":6,"TEXCOORD_0":7},"indices":4,"material":1},{"attributes":{"POSITION":9,"NORMAL":10,"TEXCOORD_0":11},"indices":8,"material":2},{"attributes":{"POSITION":13,"NORMAL":14,"TEXCOORD_0":15},"indices":12,"material":3},{"attributes":{"POSITION":17,"NORMAL":18,"TEXCOORD_0":19},"indices":16,"material":4},{"attributes":{"POSITION":21,"NORMAL":22,"TEXCOORD_0":23},"indices":20,"material":5},{"attributes":{"POSITION":25,"NORMAL":26,"TEXCOORD_0":27},"indices":24,"material":6},{"attributes":{"POSITION":29,"NORMAL":30,"TEXCOORD_0":31},"indices":28,"material":7},{"attributes":{"POSITION":33,"NORMAL":34,"TEXCOORD_0":35},"indices":32,"material":8}],"name":"Box026"}],"accessors":[{"bufferView":0,"componentType":5123,"count":87,"type":"SCALAR","name":"accessorIndices"},{"bufferView":1,"componentType":5126,"count":49,"max":[22.799345,24.6026134,27.4006081],"min":[-41.27629,-24.6016712,23.0695019],"type":"VEC3","name":"accessorPositions"},{"bufferView":1,"byteOffset":588,"componentType":5126,"count":49,"type":"VEC3","name":"accessorNormals"},{"bufferView":2,"componentType":5126,"count":49,"type":"VEC2","name":"accessorUVs"},{"bufferView":0,"byteOffset":176,"componentType":5123,"count":78,"type":"SCALAR","name":"accessorIndices"},{"bufferView":1,"byteOffset":1176,"componentType":5126,"count":35,"max":[45.02736,24.6026173,41.2803955],"min":[22.7992077,-4.78377342,-7.882086E-07],"type":"VEC3","name":"accessorPositions"},{"bufferView":1,"byteOffset":1596,"componentType":5126,"count":35,"type":"VEC3","name":"accessorNormals"},{"bufferView":2,"byteOffset":392,"componentType":5126,"count":35,"type":"VEC2","name":"accessorUVs"},{"bufferView":0,"byteOffset":332,"componentType":5123,"count":792,"type":"SCALAR","name":"accessorIndices"},{"bufferView":1,"byteOffset":2016,"componentType":5126,"count":471,"max":[45.02736,-2.2837,41.2803879],"min":[-16.33899,-20.8464832,-1.393148E-05],"type":"VEC3","name":"accessorPositions"},{"bufferView":1,"byteOffset":7668,"componentType":5126,"count":471,"type":"VEC3","name":"accessorNormals"},{"bufferView":2,"byteOffset":672,"componentType":5126,"count":471,"type":"VEC2","name":"accessorUVs"},{"bufferView":0,"byteOffset":1916,"componentType":5123,"count":69,"type":"SCALAR","name":"accessorIndices"},{"bufferView":1,"byteOffset":13320,"componentType":5126,"count":31,"max":[45.02736,24.6026173,39.8768959],"min":[-29.5566273,-20.8464832,-8.19280649E-06],"type":"VEC3","name":"accessorPositions"},{"bufferView":1,"byteOffset":13692,"componentType":5126,"count":31,"type":"VEC3","name":"accessorNormals"},{"bufferView":2,"byteOffset":4440,"componentType":5126,"count":31,"type":"VEC2","name":"accessorUVs"},{"bufferView":0,"byteOffset":2056,"componentType":5123,"count":144,"type":"SCALAR","name":"accessorIndices"},{"bufferView":1,"byteOffset":14064,"componentType":5126,"count":84,"max":[-29.5565968,24.6026173,23.0695114],"min":[-41.27629,-24.6016712,-8.80460448E-06],"type":"VEC3","name":"accessorPositions"},{"bufferView":1,"byteOffset":15072,"componentType":5126,"count":84,"type":"VEC3","name":"accessorNormals"},{"bufferView":2,"byteOffset":4688,"componentType":5126,"count":84,"type":"VEC2","name":"accessorUVs"},{"bufferView":0,"byteOffset":2344,"componentType":5123,"count":1584,"type":"SCALAR","name":"accessorIndices"},{"bufferView":1,"byteOffset":16080,"componentType":5126,"count":791,"max":[43.8273544,24.60267,57.4079781],"min":[-44.2693939,-19.6464825,-1.393148E-05],"type":"VEC3","name":"accessorPositions"},{"bufferView":1,"byteOffset":25572,"componentType":5126,"count":791,"type":"VEC3","name":"accessorNormals"},{"bufferView":2,"byteOffset":5360,"componentType":5126,"count":791,"type":"VEC2","name":"accessorUVs"},{"bufferView":0,"byteOffset":5512,"componentType":5123,"count":24,"type":"SCALAR","name":"accessorIndices"},{"bufferView":1,"byteOffset":35064,"componentType":5126,"count":16,"max":[18.8802319,20.4390984,43.7238464],"min":[-45.02736,-11.3854895,29.9258156],"type":"VEC3","name":"accessorPositions"},{"bufferView":1,"byteOffset":35256,"componentType":5126,"count":16,"type":"VEC3","name":"accessorNormals"},{"bufferView":2,"byteOffset":11688,"componentType":5126,"count":16,"type":"VEC2","name":"accessorUVs"},{"bufferView":0,"byteOffset":5560,"componentType":5123,"count":444,"type":"SCALAR","name":"accessorIndices"},{"bufferView":1,"byteOffset":35448,"componentType":5126,"count":237,"max":[45.02736,24.6026134,41.5803947],"min":[-41.27629,-24.60267,24.4143085],"type":"VEC3","name":"accessorPositions"},{"bufferView":1,"byteOffset":38292,"componentType":5126,"count":237,"type":"VEC3","name":"accessorNormals"},{"bufferView":2,"byteOffset":11816,"componentType":5126,"count":237,"type":"VEC2","name":"accessorUVs"},{"bufferView":0,"byteOffset":6448,"componentType":5123,"count":432,"type":"SCALAR","name":"accessorIndices"},{"bufferView":1,"byteOffset":41136,"componentType":5126,"count":288,"max":[26.6263256,24.6026669,57.4079781],"min":[-37.2812653,-6.95549774,55.1604919],"type":"VEC3","name":"accessorPositions"},{"bufferView":1,"byteOffset":44592,"componentType":5126,"count":288,"type":"VEC3","name":"accessorNormals"},{"bufferView":2,"byteOffset":13712,"componentType":5126,"count":288,"type":"VEC2","name":"accessorUVs"}],"bufferViews":[{"buffer":0,"byteLength":7312,"name":"bufferViewScalar"},{"buffer":0,"byteOffset":7312,"byteLength":48048,"byteStride":12,"name":"bufferViewFloatVec3"},{"buffer":0,"byteOffset":55360,"byteLength":16016,"byteStride":8,"name":"bufferViewFloatVec2"}],"buffers":[{"uri":"sgy_034_2.bin","byteLength":71376}],"materials":[{"pbrMetallicRoughness":{"baseColorTexture":{"index":0},"metallicFactor":0.0,"roughnessFactor":0.450053632},"name":"Material #46518"},{"pbrMetallicRoughness":{"baseColorTexture":{"index":1},"metallicFactor":0.0,"roughnessFactor":0.450053632},"name":"Material #46362"},{"pbrMetallicRoughness":{"baseColorTexture":{"index":2},"metallicFactor":0.0,"roughnessFactor":0.450053632},"name":"Material #46495"},{"pbrMetallicRoughness":{"baseColorTexture":{"index":3},"metallicFactor":0.0,"roughnessFactor":0.450053632},"name":"Material #46374"},{"pbrMetallicRoughness":{"baseColorTexture":{"index":4},"metallicFactor":0.0,"roughnessFactor":0.450053632},"name":"Material #46388"},{"pbrMetallicRoughness":{"baseColorTexture":{"index":5},"metallicFactor":0.0,"roughnessFactor":0.450053632},"name":"Material #46435"},{"pbrMetallicRoughness":{"baseColorTexture":{"index":6},"metallicFactor":0.0,"roughnessFactor":0.450053632},"name":"Material #46460"},{"pbrMetallicRoughness":{"baseColorTexture":{"index":7},"metallicFactor":0.0,"roughnessFactor":0.450053632},"name":"Material #46636"},{"pbrMetallicRoughness":{"baseColorTexture":{"index":8},"metallicFactor":0.0,"roughnessFactor":0.450053632},"name":"Material #46751"}],"textures":[{"sampler":0,"source":0,"name":"SGY_q1_133.jpg"},{"sampler":0,"source":1,"name":"sgy_x_21.jpg"},{"sampler":0,"source":2,"name":"sgy_4q_25.jpg"},{"sampler":0,"source":3,"name":"sgy_x_22.jpg"},{"sampler":0,"source":4,"name":"xgy_x_005.jpg"},{"sampler":0,"source":5,"name":"xgy_x_013.jpg"},{"sampler":0,"source":6,"name":"sgy_4q_03.png"},{"sampler":0,"source":7,"name":"sgy_3q_39.jpg"},{"sampler":0,"source":8,"name":"sgy_3q_46.png"}],"images":[{"uri":"SGY_q1_133.jpg"},{"uri":"sgy_x_21.jpg"},{"uri":"sgy_4q_25.jpg"},{"uri":"sgy_x_22.jpg"},{"uri":"xgy_x_005.jpg"},{"uri":"xgy_x_013.jpg"},{"uri":"sgy_4q_03.png"},{"uri":"sgy_3q_39.jpg"},{"uri":"sgy_3q_46.png"}],"samplers":[{"magFilter":9729,"minFilter":9987}]}