{
  "accessors" : [ {
    "bufferView" : 0,
    "byteOffset" : 0,
    "componentType" : 5123,
    "count" : 30,
    "type" : "SCALAR",
    "max" : [ 26 ],
    "min" : [ 0 ]
  }, {
    "bufferView" : 1,
    "byteOffset" : 0,
    "componentType" : 5126,
    "count" : 27,
    "type" : "VEC3",
    "max" : [ 17.6444, 10.5533, 0.77 ],
    "min" : [ -17.6444, -10.5533, 0.0 ]
  }, {
    "bufferView" : 2,
    "byteOffset" : 0,
    "componentType" : 5126,
    "count" : 27,
    "type" : "VEC2",
    "max" : [ 5.6987, 3.3587 ],
    "min" : [ -4.6987, -2.3587 ]
  }, {
    "bufferView" : 3,
    "byteOffset" : 0,
    "componentType" : 5126,
    "count" : 27,
    "type" : "VEC3",
    "max" : [ 1.0, 1.0, 1.0 ],
    "min" : [ -1.0, -1.0, 0.0 ]
  }, {
    "bufferView" : 4,
    "byteOffset" : 0,
    "componentType" : 5123,
    "count" : 222,
    "type" : "SCALAR",
    "max" : [ 196 ],
    "min" : [ 0 ]
  }, {
    "bufferView" : 5,
    "byteOffset" : 0,
    "componentType" : 5126,
    "count" : 197,
    "type" : "VEC3",
    "max" : [ 17.1526, 9.94, 14.897 ],
    "min" : [ -17.1526, -10.5533, 0.77 ]
  }, {
    "bufferView" : 6,
    "byteOffset" : 0,
    "componentType" : 5126,
    "count" : 197,
    "type" : "VEC2",
    "max" : [ 1.6537, 1.8172 ],
    "min" : [ -0.6537, -0.81719995 ]
  }, {
    "bufferView" : 7,
    "byteOffset" : 0,
    "componentType" : 5126,
    "count" : 197,
    "type" : "VEC3",
    "max" : [ 1.0, 1.0, 1.0 ],
    "min" : [ -1.0, -1.0, -1.0 ]
  }, {
    "bufferView" : 8,
    "byteOffset" : 0,
    "componentType" : 5123,
    "count" : 138,
    "type" : "SCALAR",
    "max" : [ 113 ],
    "min" : [ 0 ]
  }, {
    "bufferView" : 9,
    "byteOffset" : 0,
    "componentType" : 5126,
    "count" : 114,
    "type" : "VEC3",
    "max" : [ 9.8848, -1.724, 7.77 ],
    "min" : [ -16.1051, -10.1441, 0.77 ]
  }, {
    "bufferView" : 10,
    "byteOffset" : 0,
    "componentType" : 5126,
    "count" : 114,
    "type" : "VEC2",
    "max" : [ 1.0, 1.0 ],
    "min" : [ -0.0, 0.0 ]
  }, {
    "bufferView" : 11,
    "byteOffset" : 0,
    "componentType" : 5126,
    "count" : 114,
    "type" : "VEC3",
    "max" : [ 1.0, 1.0, 0.0 ],
    "min" : [ -1.0, -1.0, -0.0 ]
  }, {
    "bufferView" : 12,
    "byteOffset" : 0,
    "componentType" : 5123,
    "count" : 72,
    "type" : "SCALAR",
    "max" : [ 64 ],
    "min" : [ 0 ]
  }, {
    "bufferView" : 13,
    "byteOffset" : 0,
    "componentType" : 5126,
    "count" : 65,
    "type" : "VEC3",
    "max" : [ 9.8848, -7.8677, 8.3726 ],
    "min" : [ 3.2949, -8.5185, 0.77 ]
  }, {
    "bufferView" : 14,
    "byteOffset" : 0,
    "componentType" : 5126,
    "count" : 65,
    "type" : "VEC2",
    "max" : [ 1.0, 1.0 ],
    "min" : [ -0.0, 0.0 ]
  }, {
    "bufferView" : 15,
    "byteOffset" : 0,
    "componentType" : 5126,
    "count" : 65,
    "type" : "VEC3",
    "max" : [ 1.0, 0.0, 1.0 ],
    "min" : [ -1.0, -1.0, -1.0 ]
  }, {
    "bufferView" : 16,
    "byteOffset" : 0,
    "componentType" : 5123,
    "count" : 12,
    "type" : "SCALAR",
    "max" : [ 9 ],
    "min" : [ 0 ]
  }, {
    "bufferView" : 17,
    "byteOffset" : 0,
    "componentType" : 5126,
    "count" : 10,
    "type" : "VEC3",
    "max" : [ 9.8848, -5.2544, 14.897 ],
    "min" : [ 3.2949, -7.8677, 14.6752 ]
  }, {
    "bufferView" : 18,
    "byteOffset" : 0,
    "componentType" : 5126,
    "count" : 10,
    "type" : "VEC2",
    "max" : [ 1.0, 1.0001 ],
    "min" : [ 0.0, 0.0 ]
  }, {
    "bufferView" : 19,
    "byteOffset" : 0,
    "componentType" : 5126,
    "count" : 10,
    "type" : "VEC3",
    "max" : [ 0.0, 0.8724634, 1.0 ],
    "min" : [ 0.0, 0.0, 0.4886795 ]
  }, {
    "bufferView" : 20,
    "byteOffset" : 0,
    "componentType" : 5123,
    "count" : 42,
    "type" : "SCALAR",
    "max" : [ 36 ],
    "min" : [ 0 ]
  }, {
    "bufferView" : 21,
    "byteOffset" : 0,
    "componentType" : 5126,
    "count" : 37,
    "type" : "VEC3",
    "max" : [ 9.8848, -1.724, 14.897 ],
    "min" : [ 3.2949, -7.8677, 8.3725 ]
  }, {
    "bufferView" : 22,
    "byteOffset" : 0,
    "componentType" : 5126,
    "count" : 37,
    "type" : "VEC2",
    "max" : [ 1.0, 1.0044 ],
    "min" : [ -0.0, 0.0 ]
  }, {
    "bufferView" : 23,
    "byteOffset" : 0,
    "componentType" : 5126,
    "count" : 37,
    "type" : "VEC3",
    "max" : [ 1.0, 1.0, 1.0 ],
    "min" : [ -1.0, -1.0, -0.0 ]
  }, {
    "bufferView" : 24,
    "byteOffset" : 0,
    "componentType" : 5123,
    "count" : 6,
    "type" : "SCALAR",
    "max" : [ 4 ],
    "min" : [ 0 ]
  }, {
    "bufferView" : 25,
    "byteOffset" : 0,
    "componentType" : 5126,
    "count" : 5,
    "type" : "VEC3",
    "max" : [ 3.2949, -1.724, 7.77 ],
    "min" : [ 3.2949, -7.8677, 1.9046 ]
  }, {
    "bufferView" : 26,
    "byteOffset" : 0,
    "componentType" : 5126,
    "count" : 5,
    "type" : "VEC2",
    "max" : [ 1.0, 1.0 ],
    "min" : [ 0.0, 0.0 ]
  }, {
    "bufferView" : 27,
    "byteOffset" : 0,
    "componentType" : 5126,
    "count" : 5,
    "type" : "VEC3",
    "max" : [ -1.0, 0.0, 0.0 ],
    "min" : [ -1.0, 0.0, 0.0 ]
  }, {
    "bufferView" : 28,
    "byteOffset" : 0,
    "componentType" : 5123,
    "count" : 6,
    "type" : "SCALAR",
    "max" : [ 5 ],
    "min" : [ 0 ]
  }, {
    "bufferView" : 29,
    "byteOffset" : 0,
    "componentType" : 5126,
    "count" : 6,
    "type" : "VEC3",
    "max" : [ 9.8848, -1.724, 7.77 ],
    "min" : [ 3.2949, -1.724, 1.9046 ]
  }, {
    "bufferView" : 30,
    "byteOffset" : 0,
    "componentType" : 5126,
    "count" : 6,
    "type" : "VEC2",
    "max" : [ 1.0, 1.0 ],
    "min" : [ 0.0, 0.0 ]
  }, {
    "bufferView" : 31,
    "byteOffset" : 0,
    "componentType" : 5126,
    "count" : 6,
    "type" : "VEC3",
    "max" : [ 0.0, 1.0, 0.0 ],
    "min" : [ 0.0, 1.0, -0.0 ]
  }, {
    "bufferView" : 32,
    "byteOffset" : 0,
    "componentType" : 5123,
    "count" : 18,
    "type" : "SCALAR",
    "max" : [ 15 ],
    "min" : [ 0 ]
  }, {
    "bufferView" : 33,
    "byteOffset" : 0,
    "componentType" : 5126,
    "count" : 16,
    "type" : "VEC3",
    "max" : [ 17.1526, 9.2875, 7.9782 ],
    "min" : [ -17.1526, 4.108, 7.77 ]
  }, {
    "bufferView" : 34,
    "byteOffset" : 0,
    "componentType" : 5126,
    "count" : 16,
    "type" : "VEC2",
    "max" : [ 1.0, 1.053 ],
    "min" : [ 0.0, -0.19280005 ]
  }, {
    "bufferView" : 35,
    "byteOffset" : 0,
    "componentType" : 5126,
    "count" : 16,
    "type" : "VEC3",
    "max" : [ 1.0, 0.0, 1.0 ],
    "min" : [ -1.0, 0.0, 0.0 ]
  }, {
    "bufferView" : 36,
    "byteOffset" : 0,
    "componentType" : 5123,
    "count" : 36,
    "type" : "SCALAR",
    "max" : [ 23 ],
    "min" : [ 0 ]
  }, {
    "bufferView" : 37,
    "byteOffset" : 0,
    "componentType" : 5126,
    "count" : 24,
    "type" : "VEC3",
    "max" : [ 16.4747, 9.3721, 7.77 ],
    "min" : [ -16.4747, -5.54, 0.77 ]
  }, {
    "bufferView" : 38,
    "byteOffset" : 0,
    "componentType" : 5126,
    "count" : 24,
    "type" : "VEC2",
    "max" : [ 4.0793, 1.0 ],
    "min" : [ -2.0804, 0.0 ]
  }, {
    "bufferView" : 39,
    "byteOffset" : 0,
    "componentType" : 5126,
    "count" : 24,
    "type" : "VEC3",
    "max" : [ 0.0, 1.0, 0.0 ],
    "min" : [ 0.0, -1.0, 0.0 ]
  } ],
  "asset" : {
    "generator" : "JglTF from https://github.com/javagl/JglTF",
    "version" : "2.0"
  },
  "buffers" : [ {
    "uri" : "buffer.bin",
    "byteLength" : 17196
  } ],
  "bufferViews" : [ {
    "buffer" : 0,
    "byteOffset" : 0,
    "byteLength" : 60,
    "target" : 34963
  }, {
    "buffer" : 0,
    "byteOffset" : 60,
    "byteLength" : 324,
    "target" : 34962
  }, {
    "buffer" : 0,
    "byteOffset" : 384,
    "byteLength" : 216,
    "target" : 34962
  }, {
    "buffer" : 0,
    "byteOffset" : 600,
    "byteLength" : 324,
    "target" : 34962
  }, {
    "buffer" : 0,
    "byteOffset" : 924,
    "byteLength" : 444,
    "target" : 34963
  }, {
    "buffer" : 0,
    "byteOffset" : 1368,
    "byteLength" : 2364,
    "target" : 34962
  }, {
    "buffer" : 0,
    "byteOffset" : 3732,
    "byteLength" : 1576,
    "target" : 34962
  }, {
    "buffer" : 0,
    "byteOffset" : 5308,
    "byteLength" : 2364,
    "target" : 34962
  }, {
    "buffer" : 0,
    "byteOffset" : 7672,
    "byteLength" : 276,
    "target" : 34963
  }, {
    "buffer" : 0,
    "byteOffset" : 7948,
    "byteLength" : 1368,
    "target" : 34962
  }, {
    "buffer" : 0,
    "byteOffset" : 9316,
    "byteLength" : 912,
    "target" : 34962
  }, {
    "buffer" : 0,
    "byteOffset" : 10228,
    "byteLength" : 1368,
    "target" : 34962
  }, {
    "buffer" : 0,
    "byteOffset" : 11596,
    "byteLength" : 144,
    "target" : 34963
  }, {
    "buffer" : 0,
    "byteOffset" : 11740,
    "byteLength" : 780,
    "target" : 34962
  }, {
    "buffer" : 0,
    "byteOffset" : 12520,
    "byteLength" : 520,
    "target" : 34962
  }, {
    "buffer" : 0,
    "byteOffset" : 13040,
    "byteLength" : 780,
    "target" : 34962
  }, {
    "buffer" : 0,
    "byteOffset" : 13820,
    "byteLength" : 24,
    "target" : 34963
  }, {
    "buffer" : 0,
    "byteOffset" : 13844,
    "byteLength" : 120,
    "target" : 34962
  }, {
    "buffer" : 0,
    "byteOffset" : 13964,
    "byteLength" : 80,
    "target" : 34962
  }, {
    "buffer" : 0,
    "byteOffset" : 14044,
    "byteLength" : 120,
    "target" : 34962
  }, {
    "buffer" : 0,
    "byteOffset" : 14164,
    "byteLength" : 84,
    "target" : 34963
  }, {
    "buffer" : 0,
    "byteOffset" : 14248,
    "byteLength" : 444,
    "target" : 34962
  }, {
    "buffer" : 0,
    "byteOffset" : 14692,
    "byteLength" : 296,
    "target" : 34962
  }, {
    "buffer" : 0,
    "byteOffset" : 14988,
    "byteLength" : 444,
    "target" : 34962
  }, {
    "buffer" : 0,
    "byteOffset" : 15432,
    "byteLength" : 12,
    "target" : 34963
  }, {
    "buffer" : 0,
    "byteOffset" : 15444,
    "byteLength" : 60,
    "target" : 34962
  }, {
    "buffer" : 0,
    "byteOffset" : 15504,
    "byteLength" : 40,
    "target" : 34962
  }, {
    "buffer" : 0,
    "byteOffset" : 15544,
    "byteLength" : 60,
    "target" : 34962
  }, {
    "buffer" : 0,
    "byteOffset" : 15604,
    "byteLength" : 12,
    "target" : 34963
  }, {
    "buffer" : 0,
    "byteOffset" : 15616,
    "byteLength" : 72,
    "target" : 34962
  }, {
    "buffer" : 0,
    "byteOffset" : 15688,
    "byteLength" : 48,
    "target" : 34962
  }, {
    "buffer" : 0,
    "byteOffset" : 15736,
    "byteLength" : 72,
    "target" : 34962
  }, {
    "buffer" : 0,
    "byteOffset" : 15808,
    "byteLength" : 36,
    "target" : 34963
  }, {
    "buffer" : 0,
    "byteOffset" : 15844,
    "byteLength" : 192,
    "target" : 34962
  }, {
    "buffer" : 0,
    "byteOffset" : 16036,
    "byteLength" : 128,
    "target" : 34962
  }, {
    "buffer" : 0,
    "byteOffset" : 16164,
    "byteLength" : 192,
    "target" : 34962
  }, {
    "buffer" : 0,
    "byteOffset" : 16356,
    "byteLength" : 72,
    "target" : 34963
  }, {
    "buffer" : 0,
    "byteOffset" : 16428,
    "byteLength" : 288,
    "target" : 34962
  }, {
    "buffer" : 0,
    "byteOffset" : 16716,
    "byteLength" : 192,
    "target" : 34962
  }, {
    "buffer" : 0,
    "byteOffset" : 16908,
    "byteLength" : 288,
    "target" : 34962
  } ],
  "images" : [ {
    "uri" : "SGY_q1_059.jpg",
    "mimeType" : "image/jpeg"
  }, {
    "uri" : "sgy_2q_26.jpg",
    "mimeType" : "image/jpeg"
  }, {
    "uri" : "YDH_006.jpg",
    "mimeType" : "image/jpeg"
  }, {
    "uri" : "YDH_004.jpg",
    "mimeType" : "image/jpeg"
  }, {
    "uri" : "SGY_q1_130.jpg",
    "mimeType" : "image/jpeg"
  }, {
    "uri" : "YDH_005.jpg",
    "mimeType" : "image/jpeg"
  }, {
    "uri" : "YDH_007.jpg",
    "mimeType" : "image/jpeg"
  }, {
    "uri" : "YDH_008.jpg",
    "mimeType" : "image/jpeg"
  }, {
    "uri" : "YDH_001.png",
    "mimeType" : "image/png"
  }, {
    "uri" : "YDH_002.png",
    "mimeType" : "image/png"
  } ],
  "materials" : [ {
    "pbrMetallicRoughness" : {
      "baseColorFactor" : [ 1.0, 1.0, 1.0, 1.0 ],
      "baseColorTexture" : {
        "index" : 0
      },
      "metallicFactor" : 0.0,
      "roughnessFactor" : 1.0
    },
    "alphaMode" : "OPAQUE",
    "doubleSided" : true
  }, {
    "pbrMetallicRoughness" : {
      "baseColorFactor" : [ 1.0, 1.0, 1.0, 1.0 ],
      "baseColorTexture" : {
        "index" : 1
      },
      "metallicFactor" : 0.0,
      "roughnessFactor" : 1.0
    },
    "alphaMode" : "OPAQUE",
    "doubleSided" : true
  }, {
    "pbrMetallicRoughness" : {
      "baseColorFactor" : [ 1.0, 1.0, 1.0, 1.0 ],
      "baseColorTexture" : {
        "index" : 2
      },
      "metallicFactor" : 0.0,
      "roughnessFactor" : 1.0
    },
    "alphaMode" : "OPAQUE",
    "doubleSided" : true
  }, {
    "pbrMetallicRoughness" : {
      "baseColorFactor" : [ 1.0, 1.0, 1.0, 1.0 ],
      "baseColorTexture" : {
        "index" : 3
      },
      "metallicFactor" : 0.0,
      "roughnessFactor" : 1.0
    },
    "alphaMode" : "OPAQUE",
    "doubleSided" : true
  }, {
    "pbrMetallicRoughness" : {
      "baseColorFactor" : [ 1.0, 1.0, 1.0, 1.0 ],
      "baseColorTexture" : {
        "index" : 4
      },
      "metallicFactor" : 0.0,
      "roughnessFactor" : 1.0
    },
    "alphaMode" : "OPAQUE",
    "doubleSided" : true
  }, {
    "pbrMetallicRoughness" : {
      "baseColorFactor" : [ 1.0, 1.0, 1.0, 1.0 ],
      "baseColorTexture" : {
        "index" : 5
      },
      "metallicFactor" : 0.0,
      "roughnessFactor" : 1.0
    },
    "alphaMode" : "OPAQUE",
    "doubleSided" : true
  }, {
    "pbrMetallicRoughness" : {
      "baseColorFactor" : [ 1.0, 1.0, 1.0, 1.0 ],
      "baseColorTexture" : {
        "index" : 6
      },
      "metallicFactor" : 0.0,
      "roughnessFactor" : 1.0
    },
    "alphaMode" : "OPAQUE",
    "doubleSided" : true
  }, {
    "pbrMetallicRoughness" : {
      "baseColorFactor" : [ 1.0, 1.0, 1.0, 1.0 ],
      "baseColorTexture" : {
        "index" : 7
      },
      "metallicFactor" : 0.0,
      "roughnessFactor" : 1.0
    },
    "alphaMode" : "OPAQUE",
    "doubleSided" : true
  }, {
    "pbrMetallicRoughness" : {
      "baseColorFactor" : [ 1.0, 1.0, 1.0, 1.0 ],
      "baseColorTexture" : {
        "index" : 8
      },
      "metallicFactor" : 0.0,
      "roughnessFactor" : 1.0
    },
    "alphaMode" : "OPAQUE",
    "doubleSided" : true
  }, {
    "pbrMetallicRoughness" : {
      "baseColorFactor" : [ 1.0, 1.0, 1.0, 1.0 ],
      "baseColorTexture" : {
        "index" : 9
      },
      "metallicFactor" : 0.0,
      "roughnessFactor" : 1.0
    },
    "alphaMode" : "OPAQUE",
    "doubleSided" : true
  } ],
  "meshes" : [ {
    "primitives" : [ {
      "attributes" : {
        "POSITION" : 1,
        "TEXCOORD_0" : 2,
        "NORMAL" : 3
      },
      "indices" : 0,
      "material" : 0,
      "mode" : 4
    }, {
      "attributes" : {
        "POSITION" : 5,
        "TEXCOORD_0" : 6,
        "NORMAL" : 7
      },
      "indices" : 4,
      "material" : 1,
      "mode" : 4
    }, {
      "attributes" : {
        "POSITION" : 9,
        "TEXCOORD_0" : 10,
        "NORMAL" : 11
      },
      "indices" : 8,
      "material" : 2,
      "mode" : 4
    }, {
      "attributes" : {
        "POSITION" : 13,
        "TEXCOORD_0" : 14,
        "NORMAL" : 15
      },
      "indices" : 12,
      "material" : 3,
      "mode" : 4
    }, {
      "attributes" : {
        "POSITION" : 17,
        "TEXCOORD_0" : 18,
        "NORMAL" : 19
      },
      "indices" : 16,
      "material" : 4,
      "mode" : 4
    }, {
      "attributes" : {
        "POSITION" : 21,
        "TEXCOORD_0" : 22,
        "NORMAL" : 23
      },
      "indices" : 20,
      "material" : 5,
      "mode" : 4
    }, {
      "attributes" : {
        "POSITION" : 25,
        "TEXCOORD_0" : 26,
        "NORMAL" : 27
      },
      "indices" : 24,
      "material" : 6,
      "mode" : 4
    }, {
      "attributes" : {
        "POSITION" : 29,
        "TEXCOORD_0" : 30,
        "NORMAL" : 31
      },
      "indices" : 28,
      "material" : 7,
      "mode" : 4
    }, {
      "attributes" : {
        "POSITION" : 33,
        "TEXCOORD_0" : 34,
        "NORMAL" : 35
      },
      "indices" : 32,
      "material" : 8,
      "mode" : 4
    }, {
      "attributes" : {
        "POSITION" : 37,
        "TEXCOORD_0" : 38,
        "NORMAL" : 39
      },
      "indices" : 36,
      "material" : 9,
      "mode" : 4
    } ]
  } ],
  "nodes" : [ {
    "mesh" : 0
  } ],
  "samplers" : [ { } ],
  "scene" : 0,
  "scenes" : [ {
    "nodes" : [ 0 ]
  } ],
  "textures" : [ {
    "sampler" : 0,
    "source" : 0
  }, {
    "sampler" : 0,
    "source" : 1
  }, {
    "sampler" : 0,
    "source" : 2
  }, {
    "sampler" : 0,
    "source" : 3
  }, {
    "sampler" : 0,
    "source" : 4
  }, {
    "sampler" : 0,
    "source" : 5
  }, {
    "sampler" : 0,
    "source" : 6
  }, {
    "sampler" : 0,
    "source" : 7
  }, {
    "sampler" : 0,
    "source" : 8
  }, {
    "sampler" : 0,
    "source" : 9
  } ]
}