{
  "accessors": [
    {
      "name": "Box001_1_0_positions",
      "componentType": 5126,
      "count": 224,
      "min": [
        -18.593399047851562,
        -25.610200881958008,
        9.14330005645752
      ],
      "max": [
        35.00450134277344,
        2.3898000717163086,
        38.852298736572266
      ],
      "type": "VEC3",
      "bufferView": 0,
      "byteOffset": 0
    },
    {
      "name": "Box001_1_0_normals",
      "componentType": 5126,
      "count": 224,
      "min": [
        -1,
        -1,
        0
      ],
      "max": [
        1,
        1,
        0
      ],
      "type": "VEC3",
      "bufferView": 1,
      "byteOffset": 0
    },
    {
      "name": "Box001_1_0_texcoords",
      "componentType": 5126,
      "count": 224,
      "min": [
        -2.007699966430664,
        -0.4514000117778778
      ],
      "max": [
        3.007699966430664,
        0.7239999771118164
      ],
      "type": "VEC2",
      "bufferView": 2,
      "byteOffset": 0
    },
    {
      "name": "Box001_1_0_indices",
      "componentType": 5123,
      "count": 336,
      "min": [
        0
      ],
      "max": [
        223
      ],
      "type": "SCALAR",
      "bufferView": 3,
      "byteOffset": 0
    },
    {
      "name": "Box001_1_1_positions",
      "componentType": 5126,
      "count": 1007,
      "min": [
        -23.93440055847168,
        -29.091899871826172,
        0
      ],
      "max": [
        41.747798919677734,
        7.9120001792907715,
        40.56880187988281
      ],
      "type": "VEC3",
      "bufferView": 0,
      "byteOffset": 2688
    },
    {
      "name": "Box001_1_1_normals",
      "componentType": 5126,
      "count": 1007,
      "min": [
        -1,
        -1,
        -1
      ],
      "max": [
        1,
        1,
        1
      ],
      "type": "VEC3",
      "bufferView": 1,
      "byteOffset": 2688
    },
    {
      "name": "Box001_1_1_texcoords",
      "componentType": 5126,
      "count": 1007,
      "min": [
        -0.125,
        0
      ],
      "max": [
        1,
        1
      ],
      "type": "VEC2",
      "bufferView": 2,
      "byteOffset": 1792
    },
    {
      "name": "Box001_1_1_indices",
      "componentType": 5123,
      "count": 1680,
      "min": [
        0
      ],
      "max": [
        1006
      ],
      "type": "SCALAR",
      "bufferView": 3,
      "byteOffset": 672
    },
    {
      "name": "Box001_1_2_positions",
      "componentType": 5126,
      "count": 24,
      "min": [
        -18.593399047851562,
        -25.610200881958008,
        0
      ],
      "max": [
        24.837099075317383,
        2.3898000717163086,
        7.420300006866455
      ],
      "type": "VEC3",
      "bufferView": 0,
      "byteOffset": 14772
    },
    {
      "name": "Box001_1_2_normals",
      "componentType": 5126,
      "count": 24,
      "min": [
        0,
        -1,
        0
      ],
      "max": [
        0,
        1,
        0
      ],
      "type": "VEC3",
      "bufferView": 1,
      "byteOffset": 14772
    },
    {
      "name": "Box001_1_2_texcoords",
      "componentType": 5126,
      "count": 24,
      "min": [
        0,
        -0.14329999685287476
      ],
      "max": [
        1,
        1.0124000310897827
      ],
      "type": "VEC2",
      "bufferView": 2,
      "byteOffset": 9848
    },
    {
      "name": "Box001_1_2_indices",
      "componentType": 5123,
      "count": 36,
      "min": [
        0
      ],
      "max": [
        23
      ],
      "type": "SCALAR",
      "bufferView": 3,
      "byteOffset": 4032
    },
    {
      "name": "Box001_1_3_positions",
      "componentType": 5126,
      "count": 4,
      "min": [
        -18.593399047851562,
        -25.610200881958008,
        0
      ],
      "max": [
        -18.593399047851562,
        2.3898000717163086,
        6.52869987487793
      ],
      "type": "VEC3",
      "bufferView": 0,
      "byteOffset": 15060
    },
    {
      "name": "Box001_1_3_normals",
      "componentType": 5126,
      "count": 4,
      "min": [
        -1,
        0,
        0
      ],
      "max": [
        -1,
        0,
        0
      ],
      "type": "VEC3",
      "bufferView": 1,
      "byteOffset": 15060
    },
    {
      "name": "Box001_1_3_texcoords",
      "componentType": 5126,
      "count": 4,
      "min": [
        -0.4577000141143799,
        -0.006500000134110451
      ],
      "max": [
        1.5729999542236328,
        0.9824000000953674
      ],
      "type": "VEC2",
      "bufferView": 2,
      "byteOffset": 10040
    },
    {
      "name": "Box001_1_3_indices",
      "componentType": 5123,
      "count": 6,
      "min": [
        0
      ],
      "max": [
        3
      ],
      "type": "SCALAR",
      "bufferView": 3,
      "byteOffset": 4104
    }
  ],
  "asset": {
    "generator": "obj2gltf",
    "version": "2.0"
  },
  "buffers": [
    {
      "name": "Q6",
      "byteLength": 44404,
      "uri": "data:application/octet-stream;base64,"
    }
  ],
  "bufferViews": [
    {
      "name": "bufferView_0",
      "buffer": 0,
      "byteLength": 15108,
      "byteOffset": 0,
      "byteStride": 12,
      "target": 34962
    },
    {
      "name": "bufferView_1",
      "buffer": 0,
      "byteLength": 15108,
      "byteOffset": 15108,
      "byteStride": 12,
      "target": 34962
    },
    {
      "name": "bufferView_2",
      "buffer": 0,
      "byteLength": 10072,
      "byteOffset": 30216,
      "byteStride": 8,
      "target": 34962
    },
    {
      "name": "bufferView_3",
      "buffer": 0,
      "byteLength": 4116,
      "byteOffset": 40288,
      "target": 34963
    }
  ],
  "images": [
    {
      "name": "SGY_q1_074",
      "uri": "SGY_q1_074.jpg"
    },
    {
      "name": "SGY_q1_128",
      "uri": "SGY_q1_128.jpg"
    },
    {
      "name": "SGY_q1_143",
      "uri": "SGY_q1_143.jpg"
    },
    {
      "name": "SGY_q1_144",
      "uri": "SGY_q1_144.jpg"
    }
  ],
  "materials": [
    {
      "name": "Material__48",
      "pbrMetallicRoughness": {
        "baseColorTexture": {
          "index": 0
        },
        "baseColorFactor": [
          1,
          1,
          1,
          1
        ],
        "metallicFactor": 0,
        "roughnessFactor": 0.99
      },
      "emissiveFactor": [
        0,
        0,
        0
      ],
      "alphaMode": "OPAQUE",
      "doubleSided": false
    },
    {
      "name": "Material__25",
      "pbrMetallicRoughness": {
        "baseColorTexture": {
          "index": 1
        },
        "baseColorFactor": [
          1,
          1,
          1,
          1
        ],
        "metallicFactor": 0,
        "roughnessFactor": 0.99
      },
      "emissiveFactor": [
        0,
        0,
        0
      ],
      "alphaMode": "OPAQUE",
      "doubleSided": false
    },
    {
      "name": "Material__83",
      "pbrMetallicRoughness": {
        "baseColorTexture": {
          "index": 2
        },
        "baseColorFactor": [
          1,
          1,
          1,
          1
        ],
        "metallicFactor": 0,
        "roughnessFactor": 0.99
      },
      "emissiveFactor": [
        0,
        0,
        0
      ],
      "alphaMode": "OPAQUE",
      "doubleSided": false
    },
    {
      "name": "Material__96",
      "pbrMetallicRoughness": {
        "baseColorTexture": {
          "index": 3
        },
        "baseColorFactor": [
          1,
          1,
          1,
          1
        ],
        "metallicFactor": 0,
        "roughnessFactor": 0.99
      },
      "emissiveFactor": [
        0,
        0,
        0
      ],
      "alphaMode": "OPAQUE",
      "doubleSided": false
    }
  ],
  "meshes": [
    {
      "name": "Box001_1",
      "primitives": [
        {
          "attributes": {
            "POSITION": 0,
            "NORMAL": 1,
            "TEXCOORD_0": 2
          },
          "indices": 3,
          "material": 0,
          "mode": 4
        },
        {
          "attributes": {
            "POSITION": 4,
            "NORMAL": 5,
            "TEXCOORD_0": 6
          },
          "indices": 7,
          "material": 1,
          "mode": 4
        },
        {
          "attributes": {
            "POSITION": 8,
            "NORMAL": 9,
            "TEXCOORD_0": 10
          },
          "indices": 11,
          "material": 2,
          "mode": 4
        },
        {
          "attributes": {
            "POSITION": 12,
            "NORMAL": 13,
            "TEXCOORD_0": 14
          },
          "indices": 15,
          "material": 3,
          "mode": 4
        }
      ]
    }
  ],
  "nodes": [
    {
      "name": "Box001",
      "mesh": 0
    }
  ],
  "samplers": [
    {
      "wrapS": 10497,
      "wrapT": 10497
    }
  ],
  "scene": 0,
  "scenes": [
    {
      "nodes": [
        0
      ]
    }
  ],
  "textures": [
    {
      "name": "SGY_q1_074",
      "sampler": 0,
      "source": 0
    },
    {
      "name": "SGY_q1_128",
      "sampler": 0,
      "source": 1
    },
    {
      "name": "SGY_q1_143",
      "sampler": 0,
      "source": 2
    },
    {
      "name": "SGY_q1_144",
      "sampler": 0,
      "source": 3
    }
  ]
}
