{
  "accessors": [
    {
      "name": "Box008_1_0_positions",
      "componentType": 5126,
      "count": 263,
      "min": [
        -27.74720001220703,
        -24.04450035095215,
        0
      ],
      "max": [
        26.103500366210938,
        22.479000091552734,
        9.354599952697754
      ],
      "type": "VEC3",
      "bufferView": 0,
      "byteOffset": 0
    },
    {
      "name": "Box008_1_0_normals",
      "componentType": 5126,
      "count": 263,
      "min": [
        -1,
        -1,
        -1
      ],
      "max": [
        1,
        1,
        1
      ],
      "type": "VEC3",
      "bufferView": 1,
      "byteOffset": 0
    },
    {
      "name": "Box008_1_0_texcoords",
      "componentType": 5126,
      "count": 263,
      "min": [
        -0.8646000027656555,
        0.42500001192092896
      ],
      "max": [
        1.8645999431610107,
        1.6744999885559082
      ],
      "type": "VEC2",
      "bufferView": 2,
      "byteOffset": 0
    },
    {
      "name": "Box008_1_0_indices",
      "componentType": 5123,
      "count": 603,
      "min": [
        0
      ],
      "max": [
        262
      ],
      "type": "SCALAR",
      "bufferView": 3,
      "byteOffset": 0
    },
    {
      "name": "Box008_1_1_positions",
      "componentType": 5126,
      "count": 178,
      "min": [
        -27.74720001220703,
        -24.04450035095215,
        0
      ],
      "max": [
        28.19729995727539,
        24.61440086364746,
        24.543500900268555
      ],
      "type": "VEC3",
      "bufferView": 0,
      "byteOffset": 3156
    },
    {
      "name": "Box008_1_1_normals",
      "componentType": 5126,
      "count": 178,
      "min": [
        -1,
        -1,
        0
      ],
      "max": [
        1,
        1,
        1
      ],
      "type": "VEC3",
      "bufferView": 1,
      "byteOffset": 3156
    },
    {
      "name": "Box008_1_1_texcoords",
      "componentType": 5126,
      "count": 178,
      "min": [
        -2.1803998947143555,
        -2.20169997215271
      ],
      "max": [
        2.009500026702881,
        3.396699905395508
      ],
      "type": "VEC2",
      "bufferView": 2,
      "byteOffset": 2104
    },
    {
      "name": "Box008_1_1_indices",
      "componentType": 5123,
      "count": 276,
      "min": [
        0
      ],
      "max": [
        177
      ],
      "type": "SCALAR",
      "bufferView": 3,
      "byteOffset": 1208
    },
    {
      "name": "Box008_1_2_positions",
      "componentType": 5126,
      "count": 486,
      "min": [
        -27.74720001220703,
        -24.04450035095215,
        9.354599952697754
      ],
      "max": [
        28.19729995727539,
        23.51569938659668,
        24.543500900268555
      ],
      "type": "VEC3",
      "bufferView": 0,
      "byteOffset": 5292
    },
    {
      "name": "Box008_1_2_normals",
      "componentType": 5126,
      "count": 486,
      "min": [
        -1,
        -1,
        -1
      ],
      "max": [
        1,
        1,
        1
      ],
      "type": "VEC3",
      "bufferView": 1,
      "byteOffset": 5292
    },
    {
      "name": "Box008_1_2_texcoords",
      "componentType": 5126,
      "count": 486,
      "min": [
        -0.8646000027656555,
        -0.703499972820282
      ],
      "max": [
        1.8645999431610107,
        1.6744999885559082
      ],
      "type": "VEC2",
      "bufferView": 2,
      "byteOffset": 3528
    },
    {
      "name": "Box008_1_2_indices",
      "componentType": 5123,
      "count": 840,
      "min": [
        0
      ],
      "max": [
        485
      ],
      "type": "SCALAR",
      "bufferView": 3,
      "byteOffset": 1760
    },
    {
      "name": "Box008_1_3_positions",
      "componentType": 5126,
      "count": 141,
      "min": [
        -26.74720001220703,
        -24.61440086364746,
        -0.11969999969005585
      ],
      "max": [
        28.19729995727539,
        24.61440086364746,
        24.543500900268555
      ],
      "type": "VEC3",
      "bufferView": 0,
      "byteOffset": 11124
    },
    {
      "name": "Box008_1_3_normals",
      "componentType": 5126,
      "count": 141,
      "min": [
        -1,
        -1,
        -1
      ],
      "max": [
        1,
        1,
        1
      ],
      "type": "VEC3",
      "bufferView": 1,
      "byteOffset": 11124
    },
    {
      "name": "Box008_1_3_texcoords",
      "componentType": 5126,
      "count": 141,
      "min": [
        -0.19140000641345978,
        -0.19140000641345978
      ],
      "max": [
        1.1914000511169434,
        1.1914000511169434
      ],
      "type": "VEC2",
      "bufferView": 2,
      "byteOffset": 7416
    },
    {
      "name": "Box008_1_3_indices",
      "componentType": 5123,
      "count": 303,
      "min": [
        0
      ],
      "max": [
        140
      ],
      "type": "SCALAR",
      "bufferView": 3,
      "byteOffset": 3440
    },
    {
      "name": "Box008_1_4_positions",
      "componentType": 5126,
      "count": 954,
      "min": [
        -28.197200775146484,
        -24.61440086364746,
        0
      ],
      "max": [
        26.553499221801758,
        22.929100036621094,
        13.566800117492676
      ],
      "type": "VEC3",
      "bufferView": 0,
      "byteOffset": 12816
    },
    {
      "name": "Box008_1_4_normals",
      "componentType": 5126,
      "count": 954,
      "min": [
        -1,
        -1,
        -1
      ],
      "max": [
        1,
        1,
        1
      ],
      "type": "VEC3",
      "bufferView": 1,
      "byteOffset": 12816
    },
    {
      "name": "Box008_1_4_texcoords",
      "componentType": 5126,
      "count": 954,
      "min": [
        -0.7161999940872192,
        0.003800000064074993
      ],
      "max": [
        1.7759000062942505,
        1.3604999780654907
      ],
      "type": "VEC2",
      "bufferView": 2,
      "byteOffset": 8544
    },
    {
      "name": "Box008_1_4_indices",
      "componentType": 5123,
      "count": 1638,
      "min": [
        0
      ],
      "max": [
        953
      ],
      "type": "SCALAR",
      "bufferView": 3,
      "byteOffset": 4048
    }
  ],
  "asset": {
    "generator": "obj2gltf",
    "version": "2.0"
  },
  "buffers": [
    {
      "name": "4_jz07",
      "byteLength": 72028,
      "uri": "data:application/octet-stream;base64,"
    }
  ],
  "bufferViews": [
    {
      "name": "bufferView_0",
      "buffer": 0,
      "byteLength": 24264,
      "byteOffset": 0,
      "byteStride": 12,
      "target": 34962
    },
    {
      "name": "bufferView_1",
      "buffer": 0,
      "byteLength": 24264,
      "byteOffset": 24264,
      "byteStride": 12,
      "target": 34962
    },
    {
      "name": "bufferView_2",
      "buffer": 0,
      "byteLength": 16176,
      "byteOffset": 48528,
      "byteStride": 8,
      "target": 34962
    },
    {
      "name": "bufferView_3",
      "buffer": 0,
      "byteLength": 7324,
      "byteOffset": 64704,
      "target": 34963
    }
  ],
  "images": [
    {
      "name": "sgy_4q_39",
      "uri": "sgy_4q_39.jpg"
    },
    {
      "name": "sgy_4q_42",
      "uri": "sgy_4q_42.jpg"
    },
    {
      "name": "sgy_4q_40",
      "uri": "sgy_4q_40.jpg"
    },
    {
      "name": "011",
      "uri": "011.jpg"
    },
    {
      "name": "sgy_4q_35",
      "uri": "sgy_4q_35.jpg"
    }
  ],
  "materials": [
    {
      "name": "Material__8982",
      "pbrMetallicRoughness": {
        "baseColorTexture": {
          "index": 0
        },
        "baseColorFactor": [
          1,
          1,
          1,
          1
        ],
        "metallicFactor": 0,
        "roughnessFactor": 0.99
      },
      "emissiveFactor": [
        0,
        0,
        0
      ],
      "alphaMode": "OPAQUE",
      "doubleSided": false
    },
    {
      "name": "Material__9042",
      "pbrMetallicRoughness": {
        "baseColorTexture": {
          "index": 1
        },
        "baseColorFactor": [
          1,
          1,
          1,
          1
        ],
        "metallicFactor": 0,
        "roughnessFactor": 0.99
      },
      "emissiveFactor": [
        0,
        0,
        0
      ],
      "alphaMode": "OPAQUE",
      "doubleSided": false
    },
    {
      "name": "Material__8983",
      "pbrMetallicRoughness": {
        "baseColorTexture": {
          "index": 2
        },
        "baseColorFactor": [
          1,
          1,
          1,
          1
        ],
        "metallicFactor": 0,
        "roughnessFactor": 0.99
      },
      "emissiveFactor": [
        0,
        0,
        0
      ],
      "alphaMode": "OPAQUE",
      "doubleSided": false
    },
    {
      "name": "Material__9054",
      "pbrMetallicRoughness": {
        "baseColorTexture": {
          "index": 3
        },
        "baseColorFactor": [
          1,
          1,
          1,
          1
        ],
        "metallicFactor": 0,
        "roughnessFactor": 0.99
      },
      "emissiveFactor": [
        0,
        0,
        0
      ],
      "alphaMode": "OPAQUE",
      "doubleSided": false
    },
    {
      "name": "Material__9157",
      "pbrMetallicRoughness": {
        "baseColorTexture": {
          "index": 4
        },
        "baseColorFactor": [
          1,
          1,
          1,
          1
        ],
        "metallicFactor": 0,
        "roughnessFactor": 0.99
      },
      "emissiveFactor": [
        0,
        0,
        0
      ],
      "alphaMode": "OPAQUE",
      "doubleSided": false
    }
  ],
  "meshes": [
    {
      "name": "Box008_1",
      "primitives": [
        {
          "attributes": {
            "POSITION": 0,
            "NORMAL": 1,
            "TEXCOORD_0": 2
          },
          "indices": 3,
          "material": 0,
          "mode": 4
        },
        {
          "attributes": {
            "POSITION": 4,
            "NORMAL": 5,
            "TEXCOORD_0": 6
          },
          "indices": 7,
          "material": 1,
          "mode": 4
        },
        {
          "attributes": {
            "POSITION": 8,
            "NORMAL": 9,
            "TEXCOORD_0": 10
          },
          "indices": 11,
          "material": 2,
          "mode": 4
        },
        {
          "attributes": {
            "POSITION": 12,
            "NORMAL": 13,
            "TEXCOORD_0": 14
          },
          "indices": 15,
          "material": 3,
          "mode": 4
        },
        {
          "attributes": {
            "POSITION": 16,
            "NORMAL": 17,
            "TEXCOORD_0": 18
          },
          "indices": 19,
          "material": 4,
          "mode": 4
        }
      ]
    }
  ],
  "nodes": [
    {
      "name": "Box008",
      "mesh": 0
    }
  ],
  "samplers": [
    {
      "wrapS": 10497,
      "wrapT": 10497
    }
  ],
  "scene": 0,
  "scenes": [
    {
      "nodes": [
        0
      ]
    }
  ],
  "textures": [
    {
      "name": "sgy_4q_39",
      "sampler": 0,
      "source": 0
    },
    {
      "name": "sgy_4q_42",
      "sampler": 0,
      "source": 1
    },
    {
      "name": "sgy_4q_40",
      "sampler": 0,
      "source": 2
    },
    {
      "name": "011",
      "sampler": 0,
      "source": 3
    },
    {
      "name": "sgy_4q_35",
      "sampler": 0,
      "source": 4
    }
  ]
}
