{"asset":{"version":"2.0","generator":"babylon.js glTF exporter for 3dsmax 2022 v20240125.3"},"scene":0,"scenes":[{"nodes":[0]}],"nodes":[{"mesh":0,"name":"huitugou_2195_113"}],"meshes":[{"primitives":[{"attributes":{"POSITION":1,"NORMAL":2,"TEXCOORD_0":3},"indices":0,"material":0},{"attributes":{"POSITION":5,"NORMAL":6,"TEXCOORD_0":7},"indices":4,"material":1}],"name":"huitugou_2195_113"}],"accessors":[{"bufferView":0,"componentType":5123,"count":96,"type":"SCALAR","name":"accessorIndices"},{"bufferView":1,"componentType":5126,"count":36,"max":[0.4933842,0.4933827,17.1164017],"min":[-0.4933842,-0.49338606,0.0],"type":"VEC3","name":"accessorPositions"},{"bufferView":1,"byteOffset":432,"componentType":5126,"count":36,"type":"VEC3","name":"accessorNormals"},{"bufferView":2,"componentType":5126,"count":36,"type":"VEC2","name":"accessorUVs"},{"bufferView":0,"byteOffset":192,"componentType":5123,"count":210,"type":"SCALAR","name":"accessorIndices"},{"bufferView":1,"byteOffset":864,"componentType":5126,"count":81,"max":[7.96518564,7.9651804,18.8403187],"min":[-7.96518564,-7.9651885,5.43596268],"type":"VEC3","name":"accessorPositions"},{"bufferView":1,"byteOffset":1836,"componentType":5126,"count":81,"type":"VEC3","name":"accessorNormals"},{"bufferView":2,"byteOffset":288,"componentType":5126,"count":81,"type":"VEC2","name":"accessorUVs"}],"bufferViews":[{"buffer":0,"byteLength":612,"name":"bufferViewScalar"},{"buffer":0,"byteOffset":612,"byteLength":2808,"byteStride":12,"name":"bufferViewFloatVec3"},{"buffer":0,"byteOffset":3420,"byteLength":936,"byteStride":8,"name":"bufferViewFloatVec2"}],"buffers":[{"uri":"xss_x10.bin","byteLength":4356}],"materials":[{"pbrMetallicRoughness":{"baseColorTexture":{"index":0},"metallicFactor":0.0,"roughnessFactor":0.450053632},"name":"Material #43650"},{"pbrMetallicRoughness":{"baseColorTexture":{"index":1},"metallicFactor":0.0,"roughnessFactor":0.450053632},"name":"Material #43792"}],"textures":[{"sampler":0,"source":0,"name":"xss_003.jpg"},{"sampler":0,"source":1,"name":"xss_012.png"}],"images":[{"uri":"xss_003.jpg"},{"uri":"xss_012.png"}],"samplers":[{"magFilter":9729,"minFilter":9987}]}