{
  "accessors": [
    {
      "name": "Box001_1_0_positions",
      "componentType": 5126,
      "count": 4,
      "min": [
        10.643699645996094,
        -5.618899822235107,
        -0.014000000432133675
      ],
      "max": [
        17.90920066833496,
        -5.618899822235107,
        4.979700088500977
      ],
      "type": "VEC3",
      "bufferView": 0,
      "byteOffset": 0
    },
    {
      "name": "Box001_1_0_normals",
      "componentType": 5126,
      "count": 4,
      "min": [
        0,
        -1,
        0
      ],
      "max": [
        0,
        -1,
        0
      ],
      "type": "VEC3",
      "bufferView": 1,
      "byteOffset": 0
    },
    {
      "name": "Box001_1_0_texcoords",
      "componentType": 5126,
      "count": 4,
      "min": [
        2.006200075149536,
        0.12759999930858612
      ],
      "max": [
        3.0318000316619873,
        1.0839999914169312
      ],
      "type": "VEC2",
      "bufferView": 2,
      "byteOffset": 0
    },
    {
      "name": "Box001_1_0_indices",
      "componentType": 5123,
      "count": 6,
      "min": [
        0
      ],
      "max": [
        3
      ],
      "type": "SCALAR",
      "bufferView": 3,
      "byteOffset": 0
    },
    {
      "name": "Box001_1_1_positions",
      "componentType": 5126,
      "count": 86,
      "min": [
        -18.291000366210938,
        -5.83650016784668,
        4.979700088500977
      ],
      "max": [
        18.401199340820312,
        5.394700050354004,
        17.168899536132812
      ],
      "type": "VEC3",
      "bufferView": 0,
      "byteOffset": 48
    },
    {
      "name": "Box001_1_1_normals",
      "componentType": 5126,
      "count": 86,
      "min": [
        -1,
        -0.9998948574066162,
        -0.9268192648887634
      ],
      "max": [
        1,
        1,
        0.021499330177903175
      ],
      "type": "VEC3",
      "bufferView": 1,
      "byteOffset": 48
    },
    {
      "name": "Box001_1_1_texcoords",
      "componentType": 5126,
      "count": 86,
      "min": [
        -0.9617999792098999,
        -1.9895999431610107
      ],
      "max": [
        3.0318000316619873,
        0.9840999841690063
      ],
      "type": "VEC2",
      "bufferView": 2,
      "byteOffset": 32
    },
    {
      "name": "Box001_1_1_indices",
      "componentType": 5123,
      "count": 138,
      "min": [
        0
      ],
      "max": [
        85
      ],
      "type": "SCALAR",
      "bufferView": 3,
      "byteOffset": 12
    },
    {
      "name": "Box001_1_2_positions",
      "componentType": 5126,
      "count": 4,
      "min": [
        -17.798999786376953,
        5.17609977722168,
        -0.014000000432133675
      ],
      "max": [
        -10.509099960327148,
        5.17609977722168,
        4.979700088500977
      ],
      "type": "VEC3",
      "bufferView": 0,
      "byteOffset": 1080
    },
    {
      "name": "Box001_1_2_normals",
      "componentType": 5126,
      "count": 4,
      "min": [
        0,
        1,
        0
      ],
      "max": [
        0,
        1,
        0
      ],
      "type": "VEC3",
      "bufferView": 1,
      "byteOffset": 1080
    },
    {
      "name": "Box001_1_2_texcoords",
      "componentType": 5126,
      "count": 4,
      "min": [
        -0.3231000006198883,
        0.000699999975040555
      ],
      "max": [
        0.7056999802589417,
        1.0844999551773071
      ],
      "type": "VEC2",
      "bufferView": 2,
      "byteOffset": 720
    },
    {
      "name": "Box001_1_2_indices",
      "componentType": 5123,
      "count": 6,
      "min": [
        0
      ],
      "max": [
        3
      ],
      "type": "SCALAR",
      "bufferView": 3,
      "byteOffset": 288
    },
    {
      "name": "Box001_1_3_positions",
      "componentType": 5126,
      "count": 24,
      "min": [
        -18.291000366210938,
        -5.829599857330322,
        14.520000457763672
      ],
      "max": [
        18.401199340820312,
        5.385900020599365,
        17.168899536132812
      ],
      "type": "VEC3",
      "bufferView": 0,
      "byteOffset": 1128
    },
    {
      "name": "Box001_1_3_normals",
      "componentType": 5126,
      "count": 24,
      "min": [
        0,
        -0.42718344926834106,
        0.9041467308998108
      ],
      "max": [
        0,
        0.4272220730781555,
        0.904242217540741
      ],
      "type": "VEC3",
      "bufferView": 1,
      "byteOffset": 1128
    },
    {
      "name": "Box001_1_3_texcoords",
      "componentType": 5126,
      "count": 24,
      "min": [
        -0.5070000290870667,
        -0.05000000074505806
      ],
      "max": [
        1.5069999694824219,
        1.9671000242233276
      ],
      "type": "VEC2",
      "bufferView": 2,
      "byteOffset": 752
    },
    {
      "name": "Box001_1_3_indices",
      "componentType": 5123,
      "count": 36,
      "min": [
        0
      ],
      "max": [
        23
      ],
      "type": "SCALAR",
      "bufferView": 3,
      "byteOffset": 300
    },
    {
      "name": "Box001_1_4_positions",
      "componentType": 5126,
      "count": 24,
      "min": [
        -17.798999786376953,
        -5.618899822235107,
        -0.014000000432133675
      ],
      "max": [
        17.90920066833496,
        5.17609977722168,
        14.149399757385254
      ],
      "type": "VEC3",
      "bufferView": 0,
      "byteOffset": 1416
    },
    {
      "name": "Box001_1_4_normals",
      "componentType": 5126,
      "count": 24,
      "min": [
        -1,
        0,
        0
      ],
      "max": [
        1,
        0,
        0
      ],
      "type": "VEC3",
      "bufferView": 1,
      "byteOffset": 1416
    },
    {
      "name": "Box001_1_4_texcoords",
      "componentType": 5126,
      "count": 24,
      "min": [
        -0.2921000123023987,
        -0.00139999995008111
      ],
      "max": [
        0.7473999857902527,
        3.1119000911712646
      ],
      "type": "VEC2",
      "bufferView": 2,
      "byteOffset": 944
    },
    {
      "name": "Box001_1_4_indices",
      "componentType": 5123,
      "count": 48,
      "min": [
        0
      ],
      "max": [
        23
      ],
      "type": "SCALAR",
      "bufferView": 3,
      "byteOffset": 372
    },
    {
      "name": "Box001_1_5_positions",
      "componentType": 5126,
      "count": 30,
      "min": [
        -17.798999786376953,
        -5.618899822235107,
        -0.014000000432133675
      ],
      "max": [
        17.90920066833496,
        5.17609977722168,
        14.149399757385254
      ],
      "type": "VEC3",
      "bufferView": 0,
      "byteOffset": 1704
    },
    {
      "name": "Box001_1_5_normals",
      "componentType": 5126,
      "count": 30,
      "min": [
        0,
        -1,
        0
      ],
      "max": [
        0,
        1,
        0
      ],
      "type": "VEC3",
      "bufferView": 1,
      "byteOffset": 1704
    },
    {
      "name": "Box001_1_5_texcoords",
      "componentType": 5126,
      "count": 30,
      "min": [
        -2.008699893951416,
        -1.99590003490448
      ],
      "max": [
        3.0318000316619873,
        1.0844999551773071
      ],
      "type": "VEC2",
      "bufferView": 2,
      "byteOffset": 1136
    },
    {
      "name": "Box001_1_5_indices",
      "componentType": 5123,
      "count": 48,
      "min": [
        0
      ],
      "max": [
        29
      ],
      "type": "SCALAR",
      "bufferView": 3,
      "byteOffset": 468
    },
    {
      "name": "Box001_1_6_positions",
      "componentType": 5126,
      "count": 4,
      "min": [
        -17.798999786376953,
        -5.618899822235107,
        -0.014000000432133675
      ],
      "max": [
        -10.509099960327148,
        -5.618899822235107,
        4.979700088500977
      ],
      "type": "VEC3",
      "bufferView": 0,
      "byteOffset": 2064
    },
    {
      "name": "Box001_1_6_normals",
      "componentType": 5126,
      "count": 4,
      "min": [
        0,
        -1,
        0
      ],
      "max": [
        0,
        -1,
        0
      ],
      "type": "VEC3",
      "bufferView": 1,
      "byteOffset": 2064
    },
    {
      "name": "Box001_1_6_texcoords",
      "componentType": 5126,
      "count": 4,
      "min": [
        -2.008699893951416,
        0.15629999339580536
      ],
      "max": [
        -0.9797000288963318,
        1.0839999914169312
      ],
      "type": "VEC2",
      "bufferView": 2,
      "byteOffset": 1376
    },
    {
      "name": "Box001_1_6_indices",
      "componentType": 5123,
      "count": 6,
      "min": [
        0
      ],
      "max": [
        3
      ],
      "type": "SCALAR",
      "bufferView": 3,
      "byteOffset": 564
    },
    {
      "name": "Box001_1_7_positions",
      "componentType": 5126,
      "count": 40,
      "min": [
        -17.247900009155273,
        -7.057499885559082,
        3.5078999996185303
      ],
      "max": [
        17.19969940185547,
        6.095600128173828,
        5.342899799346924
      ],
      "type": "VEC3",
      "bufferView": 0,
      "byteOffset": 2112
    },
    {
      "name": "Box001_1_7_normals",
      "componentType": 5126,
      "count": 40,
      "min": [
        0,
        0,
        -1
      ],
      "max": [
        0,
        0,
        1
      ],
      "type": "VEC3",
      "bufferView": 1,
      "byteOffset": 2112
    },
    {
      "name": "Box001_1_7_texcoords",
      "componentType": 5126,
      "count": 40,
      "min": [
        0,
        0
      ],
      "max": [
        1,
        1
      ],
      "type": "VEC2",
      "bufferView": 2,
      "byteOffset": 1408
    },
    {
      "name": "Box001_1_7_indices",
      "componentType": 5123,
      "count": 60,
      "min": [
        0
      ],
      "max": [
        39
      ],
      "type": "SCALAR",
      "bufferView": 3,
      "byteOffset": 576
    },
    {
      "name": "Box001_1_8_positions",
      "componentType": 5126,
      "count": 224,
      "min": [
        -17.247900009155273,
        -7.057499885559082,
        3.5078999996185303
      ],
      "max": [
        17.19969940185547,
        6.095600128173828,
        13.71310043334961
      ],
      "type": "VEC3",
      "bufferView": 0,
      "byteOffset": 2592
    },
    {
      "name": "Box001_1_8_normals",
      "componentType": 5126,
      "count": 224,
      "min": [
        -1,
        -1,
        -1
      ],
      "max": [
        1,
        1,
        1
      ],
      "type": "VEC3",
      "bufferView": 1,
      "byteOffset": 2592
    },
    {
      "name": "Box001_1_8_texcoords",
      "componentType": 5126,
      "count": 224,
      "min": [
        0,
        0
      ],
      "max": [
        1,
        1
      ],
      "type": "VEC2",
      "bufferView": 2,
      "byteOffset": 1728
    },
    {
      "name": "Box001_1_8_indices",
      "componentType": 5123,
      "count": 336,
      "min": [
        0
      ],
      "max": [
        223
      ],
      "type": "SCALAR",
      "bufferView": 3,
      "byteOffset": 696
    },
    {
      "name": "Box001_1_9_positions",
      "componentType": 5126,
      "count": 72,
      "min": [
        -16.72209930419922,
        -5.698400020599365,
        12.261899948120117
      ],
      "max": [
        16.70050048828125,
        5.236199855804443,
        13.71310043334961
      ],
      "type": "VEC3",
      "bufferView": 0,
      "byteOffset": 5280
    },
    {
      "name": "Box001_1_9_normals",
      "componentType": 5126,
      "count": 72,
      "min": [
        0,
        -1,
        0
      ],
      "max": [
        0,
        1,
        0
      ],
      "type": "VEC3",
      "bufferView": 1,
      "byteOffset": 5280
    },
    {
      "name": "Box001_1_9_texcoords",
      "componentType": 5126,
      "count": 72,
      "min": [
        0.01360000018030405,
        0
      ],
      "max": [
        3.5272998809814453,
        1
      ],
      "type": "VEC2",
      "bufferView": 2,
      "byteOffset": 3520
    },
    {
      "name": "Box001_1_9_indices",
      "componentType": 5123,
      "count": 108,
      "min": [
        0
      ],
      "max": [
        71
      ],
      "type": "SCALAR",
      "bufferView": 3,
      "byteOffset": 1368
    }
  ],
  "asset": {
    "generator": "obj2gltf",
    "version": "2.0"
  },
  "buffers": [
    {
      "name": "Q5",
      "byteLength": 17968,
      "uri": "data:application/octet-stream;base64,"
    }
  ],
  "bufferViews": [
    {
      "name": "bufferView_0",
      "buffer": 0,
      "byteLength": 6144,
      "byteOffset": 0,
      "byteStride": 12,
      "target": 34962
    },
    {
      "name": "bufferView_1",
      "buffer": 0,
      "byteLength": 6144,
      "byteOffset": 6144,
      "byteStride": 12,
      "target": 34962
    },
    {
      "name": "bufferView_2",
      "buffer": 0,
      "byteLength": 4096,
      "byteOffset": 12288,
      "byteStride": 8,
      "target": 34962
    },
    {
      "name": "bufferView_3",
      "buffer": 0,
      "byteLength": 1584,
      "byteOffset": 16384,
      "target": 34963
    }
  ],
  "images": [
    {
      "name": "SGY_q1_057",
      "uri": "SGY_q1_057.jpg"
    },
    {
      "name": "SGY_q1_051",
      "uri": "SGY_q1_051.jpg"
    },
    {
      "name": "SGY_q1_054",
      "uri": "SGY_q1_054.jpg"
    },
    {
      "name": "SGY_Q1_015",
      "uri": "SGY_Q1_015.jpg"
    },
    {
      "name": "SGY_q1_052",
      "uri": "SGY_q1_052.jpg"
    },
    {
      "name": "SGY_q1_053",
      "uri": "SGY_q1_053.jpg"
    },
    {
      "name": "SGY_q1_055",
      "uri": "SGY_q1_055.jpg"
    },
    {
      "name": "SGY_q1_048",
      "uri": "SGY_q1_048.jpg"
    },
    {
      "name": "SGY_q1_047",
      "uri": "SGY_q1_047.jpg"
    },
    {
      "name": "SGY_q1_056",
      "uri": "SGY_q1_056.jpg"
    }
  ],
  "materials": [
    {
      "name": "Material__262",
      "pbrMetallicRoughness": {
        "baseColorTexture": {
          "index": 0
        },
        "baseColorFactor": [
          1,
          1,
          1,
          1
        ],
        "metallicFactor": 0,
        "roughnessFactor": 0.99
      },
      "emissiveFactor": [
        0,
        0,
        0
      ],
      "alphaMode": "OPAQUE",
      "doubleSided": false
    },
    {
      "name": "Material__61",
      "pbrMetallicRoughness": {
        "baseColorTexture": {
          "index": 1
        },
        "baseColorFactor": [
          1,
          1,
          1,
          1
        ],
        "metallicFactor": 0,
        "roughnessFactor": 0.99
      },
      "emissiveFactor": [
        0,
        0,
        0
      ],
      "alphaMode": "OPAQUE",
      "doubleSided": false
    },
    {
      "name": "Material__169",
      "pbrMetallicRoughness": {
        "baseColorTexture": {
          "index": 2
        },
        "baseColorFactor": [
          1,
          1,
          1,
          1
        ],
        "metallicFactor": 0,
        "roughnessFactor": 0.99
      },
      "emissiveFactor": [
        0,
        0,
        0
      ],
      "alphaMode": "OPAQUE",
      "doubleSided": false
    },
    {
      "name": "Material__25",
      "pbrMetallicRoughness": {
        "baseColorTexture": {
          "index": 3
        },
        "baseColorFactor": [
          1,
          1,
          1,
          1
        ],
        "metallicFactor": 0,
        "roughnessFactor": 0.99
      },
      "emissiveFactor": [
        0,
        0,
        0
      ],
      "alphaMode": "OPAQUE",
      "doubleSided": false
    },
    {
      "name": "Material__74",
      "pbrMetallicRoughness": {
        "baseColorTexture": {
          "index": 4
        },
        "baseColorFactor": [
          1,
          1,
          1,
          1
        ],
        "metallicFactor": 0,
        "roughnessFactor": 0.99
      },
      "emissiveFactor": [
        0,
        0,
        0
      ],
      "alphaMode": "OPAQUE",
      "doubleSided": false
    },
    {
      "name": "Material__109",
      "pbrMetallicRoughness": {
        "baseColorTexture": {
          "index": 5
        },
        "baseColorFactor": [
          1,
          1,
          1,
          1
        ],
        "metallicFactor": 0,
        "roughnessFactor": 0.99
      },
      "emissiveFactor": [
        0,
        0,
        0
      ],
      "alphaMode": "OPAQUE",
      "doubleSided": false
    },
    {
      "name": "Material__226",
      "pbrMetallicRoughness": {
        "baseColorTexture": {
          "index": 6
        },
        "baseColorFactor": [
          1,
          1,
          1,
          1
        ],
        "metallicFactor": 0,
        "roughnessFactor": 0.99
      },
      "emissiveFactor": [
        0,
        0,
        0
      ],
      "alphaMode": "OPAQUE",
      "doubleSided": false
    },
    {
      "name": "Material__146",
      "pbrMetallicRoughness": {
        "baseColorTexture": {
          "index": 7
        },
        "baseColorFactor": [
          1,
          1,
          1,
          1
        ],
        "metallicFactor": 0,
        "roughnessFactor": 0.99
      },
      "emissiveFactor": [
        0,
        0,
        0
      ],
      "alphaMode": "OPAQUE",
      "doubleSided": false
    },
    {
      "name": "Material__134",
      "pbrMetallicRoughness": {
        "baseColorTexture": {
          "index": 8
        },
        "baseColorFactor": [
          1,
          1,
          1,
          1
        ],
        "metallicFactor": 0,
        "roughnessFactor": 0.99
      },
      "emissiveFactor": [
        0,
        0,
        0
      ],
      "alphaMode": "OPAQUE",
      "doubleSided": false
    },
    {
      "name": "Material__250",
      "pbrMetallicRoughness": {
        "baseColorTexture": {
          "index": 9
        },
        "baseColorFactor": [
          1,
          1,
          1,
          1
        ],
        "metallicFactor": 0,
        "roughnessFactor": 0.99
      },
      "emissiveFactor": [
        0,
        0,
        0
      ],
      "alphaMode": "OPAQUE",
      "doubleSided": false
    }
  ],
  "meshes": [
    {
      "name": "Box001_1",
      "primitives": [
        {
          "attributes": {
            "POSITION": 0,
            "NORMAL": 1,
            "TEXCOORD_0": 2
          },
          "indices": 3,
          "material": 0,
          "mode": 4
        },
        {
          "attributes": {
            "POSITION": 4,
            "NORMAL": 5,
            "TEXCOORD_0": 6
          },
          "indices": 7,
          "material": 1,
          "mode": 4
        },
        {
          "attributes": {
            "POSITION": 8,
            "NORMAL": 9,
            "TEXCOORD_0": 10
          },
          "indices": 11,
          "material": 2,
          "mode": 4
        },
        {
          "attributes": {
            "POSITION": 12,
            "NORMAL": 13,
            "TEXCOORD_0": 14
          },
          "indices": 15,
          "material": 3,
          "mode": 4
        },
        {
          "attributes": {
            "POSITION": 16,
            "NORMAL": 17,
            "TEXCOORD_0": 18
          },
          "indices": 19,
          "material": 4,
          "mode": 4
        },
        {
          "attributes": {
            "POSITION": 20,
            "NORMAL": 21,
            "TEXCOORD_0": 22
          },
          "indices": 23,
          "material": 5,
          "mode": 4
        },
        {
          "attributes": {
            "POSITION": 24,
            "NORMAL": 25,
            "TEXCOORD_0": 26
          },
          "indices": 27,
          "material": 6,
          "mode": 4
        },
        {
          "attributes": {
            "POSITION": 28,
            "NORMAL": 29,
            "TEXCOORD_0": 30
          },
          "indices": 31,
          "material": 7,
          "mode": 4
        },
        {
          "attributes": {
            "POSITION": 32,
            "NORMAL": 33,
            "TEXCOORD_0": 34
          },
          "indices": 35,
          "material": 8,
          "mode": 4
        },
        {
          "attributes": {
            "POSITION": 36,
            "NORMAL": 37,
            "TEXCOORD_0": 38
          },
          "indices": 39,
          "material": 9,
          "mode": 4
        }
      ]
    }
  ],
  "nodes": [
    {
      "name": "Box001",
      "mesh": 0
    }
  ],
  "samplers": [
    {
      "wrapS": 10497,
      "wrapT": 10497
    }
  ],
  "scene": 0,
  "scenes": [
    {
      "nodes": [
        0
      ]
    }
  ],
  "textures": [
    {
      "name": "SGY_q1_057",
      "sampler": 0,
      "source": 0
    },
    {
      "name": "SGY_q1_051",
      "sampler": 0,
      "source": 1
    },
    {
      "name": "SGY_q1_054",
      "sampler": 0,
      "source": 2
    },
    {
      "name": "SGY_Q1_015",
      "sampler": 0,
      "source": 3
    },
    {
      "name": "SGY_q1_052",
      "sampler": 0,
      "source": 4
    },
    {
      "name": "SGY_q1_053",
      "sampler": 0,
      "source": 5
    },
    {
      "name": "SGY_q1_055",
      "sampler": 0,
      "source": 6
    },
    {
      "name": "SGY_q1_048",
      "sampler": 0,
      "source": 7
    },
    {
      "name": "SGY_q1_047",
      "sampler": 0,
      "source": 8
    },
    {
      "name": "SGY_q1_056",
      "sampler": 0,
      "source": 9
    }
  ]
}
