{
  "accessors": [
    {
      "name": "Box061_1_0_positions",
      "componentType": 5126,
      "count": 1990,
      "min": [
        -12.098099708557129,
        -42.12120056152344,
        4.018799781799316
      ],
      "max": [
        11.46150016784668,
        67.27429962158203,
        11.560600280761719
      ],
      "type": "VEC3",
      "bufferView": 0,
      "byteOffset": 0
    },
    {
      "name": "Box061_1_0_normals",
      "componentType": 5126,
      "count": 1990,
      "min": [
        -1,
        -1,
        -0.9234994649887085
      ],
      "max": [
        1,
        1,
        0.9443685412406921
      ],
      "type": "VEC3",
      "bufferView": 1,
      "byteOffset": 0
    },
    {
      "name": "Box061_1_0_texcoords",
      "componentType": 5126,
      "count": 1990,
      "min": [
        0,
        -1.8674999475479126
      ],
      "max": [
        1.5607999563217163,
        1
      ],
      "type": "VEC2",
      "bufferView": 2,
      "byteOffset": 0
    },
    {
      "name": "Box061_1_0_indices",
      "componentType": 5123,
      "count": 3210,
      "min": [
        0
      ],
      "max": [
        1989
      ],
      "type": "SCALAR",
      "bufferView": 3,
      "byteOffset": 0
    },
    {
      "name": "Box061_1_1_positions",
      "componentType": 5126,
      "count": 432,
      "min": [
        -9.881199836730957,
        -45.367401123046875,
        0
      ],
      "max": [
        -9.560400009155273,
        23.702999114990234,
        4.006700038909912
      ],
      "type": "VEC3",
      "bufferView": 0,
      "byteOffset": 23880
    },
    {
      "name": "Box061_1_1_normals",
      "componentType": 5126,
      "count": 432,
      "min": [
        -1,
        -1,
        0
      ],
      "max": [
        1,
        1,
        0
      ],
      "type": "VEC3",
      "bufferView": 1,
      "byteOffset": 23880
    },
    {
      "name": "Box061_1_1_texcoords",
      "componentType": 5126,
      "count": 432,
      "min": [
        -17.341899871826172,
        -0.5141000151634216
      ],
      "max": [
        18.341899871826172,
        1.5140999555587769
      ],
      "type": "VEC2",
      "bufferView": 2,
      "byteOffset": 15920
    },
    {
      "name": "Box061_1_1_indices",
      "componentType": 5123,
      "count": 648,
      "min": [
        0
      ],
      "max": [
        431
      ],
      "type": "SCALAR",
      "bufferView": 3,
      "byteOffset": 6420
    },
    {
      "name": "Box061_1_2_positions",
      "componentType": 5126,
      "count": 38,
      "min": [
        -10.08180046081543,
        -45.38650131225586,
        4
      ],
      "max": [
        9.41819953918457,
        72.47949981689453,
        8.598799705505371
      ],
      "type": "VEC3",
      "bufferView": 0,
      "byteOffset": 29064
    },
    {
      "name": "Box061_1_2_normals",
      "componentType": 5126,
      "count": 38,
      "min": [
        -1,
        0,
        0
      ],
      "max": [
        1,
        0,
        0
      ],
      "type": "VEC3",
      "bufferView": 1,
      "byteOffset": 29064
    },
    {
      "name": "Box061_1_2_texcoords",
      "componentType": 5126,
      "count": 38,
      "min": [
        -15.63599967956543,
        0
      ],
      "max": [
        30,
        1
      ],
      "type": "VEC2",
      "bufferView": 2,
      "byteOffset": 19376
    },
    {
      "name": "Box061_1_2_indices",
      "componentType": 5123,
      "count": 60,
      "min": [
        0
      ],
      "max": [
        37
      ],
      "type": "SCALAR",
      "bufferView": 3,
      "byteOffset": 7716
    },
    {
      "name": "Box061_1_3_positions",
      "componentType": 5126,
      "count": 366,
      "min": [
        -10.08180046081543,
        -72.47949981689453,
        4
      ],
      "max": [
        12.098099708557129,
        72.47949981689453,
        14.760299682617188
      ],
      "type": "VEC3",
      "bufferView": 0,
      "byteOffset": 29520
    },
    {
      "name": "Box061_1_3_normals",
      "componentType": 5126,
      "count": 366,
      "min": [
        -1,
        -1,
        -1
      ],
      "max": [
        1,
        1,
        1
      ],
      "type": "VEC3",
      "bufferView": 1,
      "byteOffset": 29520
    },
    {
      "name": "Box061_1_3_texcoords",
      "componentType": 5126,
      "count": 366,
      "min": [
        -2.4695000648498535,
        -13.561100006103516
      ],
      "max": [
        22,
        14.561100006103516
      ],
      "type": "VEC2",
      "bufferView": 2,
      "byteOffset": 19680
    },
    {
      "name": "Box061_1_3_indices",
      "componentType": 5123,
      "count": 657,
      "min": [
        0
      ],
      "max": [
        365
      ],
      "type": "SCALAR",
      "bufferView": 3,
      "byteOffset": 7836
    },
    {
      "name": "Box061_1_4_positions",
      "componentType": 5126,
      "count": 8,
      "min": [
        -10.08180046081543,
        -45.38650131225586,
        4
      ],
      "max": [
        9.41819953918457,
        -45.38650131225586,
        8.598799705505371
      ],
      "type": "VEC3",
      "bufferView": 0,
      "byteOffset": 33912
    },
    {
      "name": "Box061_1_4_normals",
      "componentType": 5126,
      "count": 8,
      "min": [
        0,
        -1,
        0
      ],
      "max": [
        0,
        -1,
        0
      ],
      "type": "VEC3",
      "bufferView": 1,
      "byteOffset": 33912
    },
    {
      "name": "Box061_1_4_texcoords",
      "componentType": 5126,
      "count": 8,
      "min": [
        -1.0735000371932983,
        0
      ],
      "max": [
        7.116600036621094,
        1
      ],
      "type": "VEC2",
      "bufferView": 2,
      "byteOffset": 22608
    },
    {
      "name": "Box061_1_4_indices",
      "componentType": 5123,
      "count": 12,
      "min": [
        0
      ],
      "max": [
        7
      ],
      "type": "SCALAR",
      "bufferView": 3,
      "byteOffset": 9152
    },
    {
      "name": "Box061_1_5_positions",
      "componentType": 5126,
      "count": 4,
      "min": [
        -8.026700019836426,
        -45.38650131225586,
        0
      ],
      "max": [
        -8.026700019836426,
        23.68939971923828,
        4
      ],
      "type": "VEC3",
      "bufferView": 0,
      "byteOffset": 34008
    },
    {
      "name": "Box061_1_5_normals",
      "componentType": 5126,
      "count": 4,
      "min": [
        -1,
        0,
        0
      ],
      "max": [
        -1,
        0,
        0
      ],
      "type": "VEC3",
      "bufferView": 1,
      "byteOffset": 34008
    },
    {
      "name": "Box061_1_5_texcoords",
      "componentType": 5126,
      "count": 4,
      "min": [
        -0.8682000041007996,
        0
      ],
      "max": [
        27.131799697875977,
        1
      ],
      "type": "VEC2",
      "bufferView": 2,
      "byteOffset": 22672
    },
    {
      "name": "Box061_1_5_indices",
      "componentType": 5123,
      "count": 6,
      "min": [
        0
      ],
      "max": [
        3
      ],
      "type": "SCALAR",
      "bufferView": 3,
      "byteOffset": 9176
    },
    {
      "name": "Box061_1_6_positions",
      "componentType": 5126,
      "count": 67,
      "min": [
        -10.08180046081543,
        -71.94419860839844,
        0
      ],
      "max": [
        12.098099708557129,
        72.47949981689453,
        4
      ],
      "type": "VEC3",
      "bufferView": 0,
      "byteOffset": 34056
    },
    {
      "name": "Box061_1_6_normals",
      "componentType": 5126,
      "count": 67,
      "min": [
        -1,
        -1,
        0
      ],
      "max": [
        1,
        1,
        0
      ],
      "type": "VEC3",
      "bufferView": 1,
      "byteOffset": 34056
    },
    {
      "name": "Box061_1_6_texcoords",
      "componentType": 5126,
      "count": 67,
      "min": [
        0,
        0
      ],
      "max": [
        22,
        1
      ],
      "type": "VEC2",
      "bufferView": 2,
      "byteOffset": 22704
    },
    {
      "name": "Box061_1_6_indices",
      "componentType": 5123,
      "count": 105,
      "min": [
        0
      ],
      "max": [
        66
      ],
      "type": "SCALAR",
      "bufferView": 3,
      "byteOffset": 9188
    },
    {
      "name": "Box061_1_7_positions",
      "componentType": 5126,
      "count": 4,
      "min": [
        -10.08180046081543,
        72.47949981689453,
        4
      ],
      "max": [
        9.41819953918457,
        72.47949981689453,
        8.598799705505371
      ],
      "type": "VEC3",
      "bufferView": 0,
      "byteOffset": 34860
    },
    {
      "name": "Box061_1_7_normals",
      "componentType": 5126,
      "count": 4,
      "min": [
        0,
        1,
        0
      ],
      "max": [
        0,
        1,
        0
      ],
      "type": "VEC3",
      "bufferView": 1,
      "byteOffset": 34860
    },
    {
      "name": "Box061_1_7_texcoords",
      "componentType": 5126,
      "count": 4,
      "min": [
        -4.631400108337402,
        0
      ],
      "max": [
        2.295099973678589,
        1
      ],
      "type": "VEC2",
      "bufferView": 2,
      "byteOffset": 23240
    },
    {
      "name": "Box061_1_7_indices",
      "componentType": 5123,
      "count": 6,
      "min": [
        0
      ],
      "max": [
        3
      ],
      "type": "SCALAR",
      "bufferView": 3,
      "byteOffset": 9400
    },
    {
      "name": "Box061_1_8_positions",
      "componentType": 5126,
      "count": 61,
      "min": [
        -10.08180046081543,
        -71.94419860839844,
        0
      ],
      "max": [
        9.41819953918457,
        23.68939971923828,
        4
      ],
      "type": "VEC3",
      "bufferView": 0,
      "byteOffset": 34908
    },
    {
      "name": "Box061_1_8_normals",
      "componentType": 5126,
      "count": 61,
      "min": [
        -1,
        -1,
        0
      ],
      "max": [
        1,
        1,
        0
      ],
      "type": "VEC3",
      "bufferView": 1,
      "byteOffset": 34908
    },
    {
      "name": "Box061_1_8_texcoords",
      "componentType": 5126,
      "count": 61,
      "min": [
        -2.1856000423431396,
        0
      ],
      "max": [
        4.284599781036377,
        1
      ],
      "type": "VEC2",
      "bufferView": 2,
      "byteOffset": 23272
    },
    {
      "name": "Box061_1_8_indices",
      "componentType": 5123,
      "count": 99,
      "min": [
        0
      ],
      "max": [
        60
      ],
      "type": "SCALAR",
      "bufferView": 3,
      "byteOffset": 9412
    },
    {
      "name": "Box061_1_9_positions",
      "componentType": 5126,
      "count": 171,
      "min": [
        -10.08180046081543,
        -71.94419860839844,
        3.6350998878479004
      ],
      "max": [
        11.18649959564209,
        58.43830108642578,
        33.82600021362305
      ],
      "type": "VEC3",
      "bufferView": 0,
      "byteOffset": 35640
    },
    {
      "name": "Box061_1_9_normals",
      "componentType": 5126,
      "count": 171,
      "min": [
        -0.025199556723237038,
        -0.016399404034018517,
        -1
      ],
      "max": [
        0.025199556723237038,
        0.016399404034018517,
        1
      ],
      "type": "VEC3",
      "bufferView": 1,
      "byteOffset": 35640
    },
    {
      "name": "Box061_1_9_texcoords",
      "componentType": 5126,
      "count": 171,
      "min": [
        -0.6826000213623047,
        -1.819599986076355
      ],
      "max": [
        1.8659000396728516,
        2.819499969482422
      ],
      "type": "VEC2",
      "bufferView": 2,
      "byteOffset": 23760
    },
    {
      "name": "Box061_1_9_indices",
      "componentType": 5123,
      "count": 267,
      "min": [
        0
      ],
      "max": [
        170
      ],
      "type": "SCALAR",
      "bufferView": 3,
      "byteOffset": 9612
    },
    {
      "name": "Box061_1_10_positions",
      "componentType": 5126,
      "count": 1451,
      "min": [
        -6.263400077819824,
        -72.47949981689453,
        0
      ],
      "max": [
        9.346699714660645,
        57.274200439453125,
        30.108600616455078
      ],
      "type": "VEC3",
      "bufferView": 0,
      "byteOffset": 37692
    },
    {
      "name": "Box061_1_10_normals",
      "componentType": 5126,
      "count": 1451,
      "min": [
        -1,
        -1,
        -1
      ],
      "max": [
        1,
        1,
        1
      ],
      "type": "VEC3",
      "bufferView": 1,
      "byteOffset": 37692
    },
    {
      "name": "Box061_1_10_texcoords",
      "componentType": 5126,
      "count": 1451,
      "min": [
        -0.3675999939441681,
        -1.2855000495910645
      ],
      "max": [
        1.3676999807357788,
        2.2855000495910645
      ],
      "type": "VEC2",
      "bufferView": 2,
      "byteOffset": 25128
    },
    {
      "name": "Box061_1_10_indices",
      "componentType": 5123,
      "count": 3126,
      "min": [
        0
      ],
      "max": [
        1450
      ],
      "type": "SCALAR",
      "bufferView": 3,
      "byteOffset": 10148
    },
    {
      "name": "Box061_1_11_positions",
      "componentType": 5126,
      "count": 48,
      "min": [
        -4.156799793243408,
        -72.01069641113281,
        13.300600051879883
      ],
      "max": [
        11.18649959564209,
        45.73720169067383,
        32.34659957885742
      ],
      "type": "VEC3",
      "bufferView": 0,
      "byteOffset": 55104
    },
    {
      "name": "Box061_1_11_normals",
      "componentType": 5126,
      "count": 48,
      "min": [
        0,
        -1,
        0
      ],
      "max": [
        1,
        1,
        0
      ],
      "type": "VEC3",
      "bufferView": 1,
      "byteOffset": 55104
    },
    {
      "name": "Box061_1_11_texcoords",
      "componentType": 5126,
      "count": 48,
      "min": [
        0,
        0
      ],
      "max": [
        1,
        1
      ],
      "type": "VEC2",
      "bufferView": 2,
      "byteOffset": 36736
    },
    {
      "name": "Box061_1_11_indices",
      "componentType": 5123,
      "count": 60,
      "min": [
        0
      ],
      "max": [
        47
      ],
      "type": "SCALAR",
      "bufferView": 3,
      "byteOffset": 16400
    },
    {
      "name": "Box061_1_12_positions",
      "componentType": 5126,
      "count": 268,
      "min": [
        -10.030699729919434,
        31.931499481201172,
        8.598799705505371
      ],
      "max": [
        11.18649959564209,
        56.59920120239258,
        33.82600021362305
      ],
      "type": "VEC3",
      "bufferView": 0,
      "byteOffset": 55680
    },
    {
      "name": "Box061_1_12_normals",
      "componentType": 5126,
      "count": 268,
      "min": [
        -1,
        -1,
        -1
      ],
      "max": [
        1,
        1,
        1
      ],
      "type": "VEC3",
      "bufferView": 1,
      "byteOffset": 55680
    },
    {
      "name": "Box061_1_12_texcoords",
      "componentType": 5126,
      "count": 268,
      "min": [
        -0.27720001339912415,
        -0.11869999766349792
      ],
      "max": [
        1.1820000410079956,
        1.1820000410079956
      ],
      "type": "VEC2",
      "bufferView": 2,
      "byteOffset": 37120
    },
    {
      "name": "Box061_1_12_indices",
      "componentType": 5123,
      "count": 402,
      "min": [
        0
      ],
      "max": [
        267
      ],
      "type": "SCALAR",
      "bufferView": 3,
      "byteOffset": 16520
    },
    {
      "name": "Box061_1_13_positions",
      "componentType": 5126,
      "count": 100,
      "min": [
        -3.6914000511169434,
        34.550498962402344,
        14.062000274658203
      ],
      "max": [
        8.700200080871582,
        54.05759811401367,
        30.129199981689453
      ],
      "type": "VEC3",
      "bufferView": 0,
      "byteOffset": 58896
    },
    {
      "name": "Box061_1_13_normals",
      "componentType": 5126,
      "count": 100,
      "min": [
        -0.9957593679428101,
        -0.5366878509521484,
        0
      ],
      "max": [
        0.9957593679428101,
        0.5366878509521484,
        0
      ],
      "type": "VEC3",
      "bufferView": 1,
      "byteOffset": 58896
    },
    {
      "name": "Box061_1_13_texcoords",
      "componentType": 5126,
      "count": 100,
      "min": [
        0,
        0
      ],
      "max": [
        1,
        1
      ],
      "type": "VEC2",
      "bufferView": 2,
      "byteOffset": 39264
    },
    {
      "name": "Box061_1_13_indices",
      "componentType": 5123,
      "count": 144,
      "min": [
        0
      ],
      "max": [
        99
      ],
      "type": "SCALAR",
      "bufferView": 3,
      "byteOffset": 17324
    },
    {
      "name": "Box061_1_14_positions",
      "componentType": 5126,
      "count": 424,
      "min": [
        -5.069799900054932,
        30.492799758911133,
        33.747398376464844
      ],
      "max": [
        10.103899955749512,
        58.43830108642578,
        34.40959930419922
      ],
      "type": "VEC3",
      "bufferView": 0,
      "byteOffset": 60096
    },
    {
      "name": "Box061_1_14_normals",
      "componentType": 5126,
      "count": 424,
      "min": [
        -1,
        -0.9934115409851074,
        0
      ],
      "max": [
        1,
        0.9934115409851074,
        1
      ],
      "type": "VEC3",
      "bufferView": 1,
      "byteOffset": 60096
    },
    {
      "name": "Box061_1_14_texcoords",
      "componentType": 5126,
      "count": 424,
      "min": [
        -14.918700218200684,
        -2.440700054168701
      ],
      "max": [
        15.918800354003906,
        3.440700054168701
      ],
      "type": "VEC2",
      "bufferView": 2,
      "byteOffset": 40064
    },
    {
      "name": "Box061_1_14_indices",
      "componentType": 5123,
      "count": 624,
      "min": [
        0
      ],
      "max": [
        423
      ],
      "type": "SCALAR",
      "bufferView": 3,
      "byteOffset": 17612
    },
    {
      "name": "Box061_1_15_positions",
      "componentType": 5126,
      "count": 80,
      "min": [
        -3.617799997329712,
        31.65690040588379,
        30.108600616455078
      ],
      "max": [
        8.651900291442871,
        57.274200439453125,
        33.82600021362305
      ],
      "type": "VEC3",
      "bufferView": 0,
      "byteOffset": 65184
    },
    {
      "name": "Box061_1_15_normals",
      "componentType": 5126,
      "count": 80,
      "min": [
        -0.8437808752059937,
        -0.9934115409851074,
        0
      ],
      "max": [
        0.8437808752059937,
        0.9934115409851074,
        0
      ],
      "type": "VEC3",
      "bufferView": 1,
      "byteOffset": 65184
    },
    {
      "name": "Box061_1_15_texcoords",
      "componentType": 5126,
      "count": 80,
      "min": [
        0,
        -0.005799999926239252
      ],
      "max": [
        1,
        0.37139999866485596
      ],
      "type": "VEC2",
      "bufferView": 2,
      "byteOffset": 43456
    },
    {
      "name": "Box061_1_15_indices",
      "componentType": 5123,
      "count": 120,
      "min": [
        0
      ],
      "max": [
        79
      ],
      "type": "SCALAR",
      "bufferView": 3,
      "byteOffset": 18860
    },
    {
      "name": "Box061_1_16_positions",
      "componentType": 5126,
      "count": 24,
      "min": [
        -4.513899803161621,
        31.931499481201172,
        8.598799705505371
      ],
      "max": [
        9.469300270080566,
        56.59920120239258,
        14.15429973602295
      ],
      "type": "VEC3",
      "bufferView": 0,
      "byteOffset": 66144
    },
    {
      "name": "Box061_1_16_normals",
      "componentType": 5126,
      "count": 24,
      "min": [
        -1,
        0,
        0
      ],
      "max": [
        1,
        0,
        0
      ],
      "type": "VEC3",
      "bufferView": 1,
      "byteOffset": 66144
    },
    {
      "name": "Box061_1_16_texcoords",
      "componentType": 5126,
      "count": 24,
      "min": [
        -0.11869999766349792,
        0.4156000018119812
      ],
      "max": [
        1.1820000410079956,
        1.0094000101089478
      ],
      "type": "VEC2",
      "bufferView": 2,
      "byteOffset": 44096
    },
    {
      "name": "Box061_1_16_indices",
      "componentType": 5123,
      "count": 36,
      "min": [
        0
      ],
      "max": [
        23
      ],
      "type": "SCALAR",
      "bufferView": 3,
      "byteOffset": 19100
    },
    {
      "name": "Box061_1_17_positions",
      "componentType": 5126,
      "count": 40,
      "min": [
        -4.516499996185303,
        31.931499481201172,
        8.598799705505371
      ],
      "max": [
        9.469300270080566,
        56.59920120239258,
        14.15429973602295
      ],
      "type": "VEC3",
      "bufferView": 0,
      "byteOffset": 66432
    },
    {
      "name": "Box061_1_17_normals",
      "componentType": 5126,
      "count": 40,
      "min": [
        0,
        -1,
        0
      ],
      "max": [
        0,
        1,
        0
      ],
      "type": "VEC3",
      "bufferView": 1,
      "byteOffset": 66432
    },
    {
      "name": "Box061_1_17_texcoords",
      "componentType": 5126,
      "count": 40,
      "min": [
        -0.5435000061988831,
        0.4081000089645386
      ],
      "max": [
        3920.732666015625,
        1
      ],
      "type": "VEC2",
      "bufferView": 2,
      "byteOffset": 44288
    },
    {
      "name": "Box061_1_17_indices",
      "componentType": 5123,
      "count": 60,
      "min": [
        0
      ],
      "max": [
        39
      ],
      "type": "SCALAR",
      "bufferView": 3,
      "byteOffset": 19172
    },
    {
      "name": "Box061_1_18_positions",
      "componentType": 5126,
      "count": 10,
      "min": [
        -10.030699729919434,
        49.41339874267578,
        8.598799705505371
      ],
      "max": [
        -4.513899803161621,
        49.41339874267578,
        14.15429973602295
      ],
      "type": "VEC3",
      "bufferView": 0,
      "byteOffset": 66912
    },
    {
      "name": "Box061_1_18_normals",
      "componentType": 5126,
      "count": 10,
      "min": [
        0,
        -1,
        0
      ],
      "max": [
        0,
        -1,
        0
      ],
      "type": "VEC3",
      "bufferView": 1,
      "byteOffset": 66912
    },
    {
      "name": "Box061_1_18_texcoords",
      "componentType": 5126,
      "count": 10,
      "min": [
        0,
        0.7849000096321106
      ],
      "max": [
        1,
        1
      ],
      "type": "VEC2",
      "bufferView": 2,
      "byteOffset": 44608
    },
    {
      "name": "Box061_1_18_indices",
      "componentType": 5123,
      "count": 12,
      "min": [
        0
      ],
      "max": [
        9
      ],
      "type": "SCALAR",
      "bufferView": 3,
      "byteOffset": 19292
    }
  ],
  "asset": {
    "generator": "obj2gltf",
    "version": "2.0"
  },
  "buffers": [
    {
      "name": "SG_mx03",
      "byteLength": 198068,
      "uri": "data:application/octet-stream;base64,"
    }
  ],
  "bufferViews": [
    {
      "name": "bufferView_0",
      "buffer": 0,
      "byteLength": 67032,
      "byteOffset": 0,
      "byteStride": 12,
      "target": 34962
    },
    {
      "name": "bufferView_1",
      "buffer": 0,
      "byteLength": 67032,
      "byteOffset": 67032,
      "byteStride": 12,
      "target": 34962
    },
    {
      "name": "bufferView_2",
      "buffer": 0,
      "byteLength": 44688,
      "byteOffset": 134064,
      "byteStride": 8,
      "target": 34962
    },
    {
      "name": "bufferView_3",
      "buffer": 0,
      "byteLength": 19316,
      "byteOffset": 178752,
      "target": 34963
    }
  ],
  "images": [
    {
      "name": "0011",
      "uri": "0011.jpg"
    },
    {
      "name": "008",
      "uri": "008.jpg"
    },
    {
      "name": "002",
      "uri": "002.jpg"
    },
    {
      "name": "015",
      "uri": "015.jpg"
    },
    {
      "name": "0003",
      "uri": "0003.jpg"
    },
    {
      "name": "012",
      "uri": "012.jpg"
    },
    {
      "name": "011",
      "uri": "011.jpg"
    },
    {
      "name": "009",
      "uri": "009.jpg"
    },
    {
      "name": "006",
      "uri": "006.jpg"
    },
    {
      "name": "007",
      "uri": "007.jpg"
    },
    {
      "name": "004",
      "uri": "004.jpg"
    },
    {
      "name": "005",
      "uri": "005.jpg"
    }
  ],
  "materials": [
    {
      "name": "Material__596",
      "pbrMetallicRoughness": {
        "baseColorTexture": {
          "index": 0
        },
        "baseColorFactor": [
          1,
          1,
          1,
          1
        ],
        "metallicFactor": 0,
        "roughnessFactor": 0.99
      },
      "emissiveFactor": [
        0,
        0,
        0
      ],
      "alphaMode": "OPAQUE",
      "doubleSided": false
    },
    {
      "name": "Material__595",
      "pbrMetallicRoughness": {
        "baseColorTexture": {
          "index": 1
        },
        "baseColorFactor": [
          1,
          1,
          1,
          1
        ],
        "metallicFactor": 0,
        "roughnessFactor": 0.99
      },
      "emissiveFactor": [
        0,
        0,
        0
      ],
      "alphaMode": "OPAQUE",
      "doubleSided": false
    },
    {
      "name": "03___Default",
      "pbrMetallicRoughness": {
        "baseColorTexture": {
          "index": 2
        },
        "baseColorFactor": [
          1,
          1,
          1,
          1
        ],
        "metallicFactor": 0,
        "roughnessFactor": 0.99
      },
      "emissiveFactor": [
        0,
        0,
        0
      ],
      "alphaMode": "OPAQUE",
      "doubleSided": false
    },
    {
      "name": "Material__625",
      "pbrMetallicRoughness": {
        "baseColorTexture": {
          "index": 1
        },
        "baseColorFactor": [
          1,
          1,
          1,
          1
        ],
        "metallicFactor": 0,
        "roughnessFactor": 0.99
      },
      "emissiveFactor": [
        0,
        0,
        0
      ],
      "alphaMode": "OPAQUE",
      "doubleSided": false
    },
    {
      "name": "Material__921",
      "pbrMetallicRoughness": {
        "baseColorTexture": {
          "index": 2
        },
        "baseColorFactor": [
          1,
          1,
          1,
          1
        ],
        "metallicFactor": 0,
        "roughnessFactor": 0.99
      },
      "emissiveFactor": [
        0,
        0,
        0
      ],
      "alphaMode": "OPAQUE",
      "doubleSided": false
    },
    {
      "name": "17___Default",
      "pbrMetallicRoughness": {
        "baseColorTexture": {
          "index": 3
        },
        "baseColorFactor": [
          1,
          1,
          1,
          1
        ],
        "metallicFactor": 0,
        "roughnessFactor": 0.99
      },
      "emissiveFactor": [
        0,
        0,
        0
      ],
      "alphaMode": "OPAQUE",
      "doubleSided": false
    },
    {
      "name": "05___Default",
      "pbrMetallicRoughness": {
        "baseColorTexture": {
          "index": 4
        },
        "baseColorFactor": [
          1,
          1,
          1,
          1
        ],
        "metallicFactor": 0,
        "roughnessFactor": 0.99
      },
      "emissiveFactor": [
        0,
        0,
        0
      ],
      "alphaMode": "OPAQUE",
      "doubleSided": false
    },
    {
      "name": "Material__903",
      "pbrMetallicRoughness": {
        "baseColorTexture": {
          "index": 2
        },
        "baseColorFactor": [
          1,
          1,
          1,
          1
        ],
        "metallicFactor": 0,
        "roughnessFactor": 0.99
      },
      "emissiveFactor": [
        0,
        0,
        0
      ],
      "alphaMode": "OPAQUE",
      "doubleSided": false
    },
    {
      "name": "16___Default",
      "pbrMetallicRoughness": {
        "baseColorTexture": {
          "index": 5
        },
        "baseColorFactor": [
          1,
          1,
          1,
          1
        ],
        "metallicFactor": 0,
        "roughnessFactor": 0.99
      },
      "emissiveFactor": [
        0,
        0,
        0
      ],
      "alphaMode": "OPAQUE",
      "doubleSided": false
    },
    {
      "name": "14___Default",
      "pbrMetallicRoughness": {
        "baseColorTexture": {
          "index": 6
        },
        "baseColorFactor": [
          1,
          1,
          1,
          1
        ],
        "metallicFactor": 0,
        "roughnessFactor": 0.99
      },
      "emissiveFactor": [
        0,
        0,
        0
      ],
      "alphaMode": "OPAQUE",
      "doubleSided": false
    },
    {
      "name": "11___Default",
      "pbrMetallicRoughness": {
        "baseColorTexture": {
          "index": 1
        },
        "baseColorFactor": [
          1,
          1,
          1,
          1
        ],
        "metallicFactor": 0,
        "roughnessFactor": 0.99
      },
      "emissiveFactor": [
        0,
        0,
        0
      ],
      "alphaMode": "OPAQUE",
      "doubleSided": false
    },
    {
      "name": "13___Default",
      "pbrMetallicRoughness": {
        "baseColorTexture": {
          "index": 7
        },
        "baseColorFactor": [
          1,
          1,
          1,
          1
        ],
        "metallicFactor": 0,
        "roughnessFactor": 0.99
      },
      "emissiveFactor": [
        0,
        0,
        0
      ],
      "alphaMode": "OPAQUE",
      "doubleSided": false
    },
    {
      "name": "09___Default",
      "pbrMetallicRoughness": {
        "baseColorTexture": {
          "index": 8
        },
        "baseColorFactor": [
          1,
          1,
          1,
          1
        ],
        "metallicFactor": 0,
        "roughnessFactor": 0.99
      },
      "emissiveFactor": [
        0,
        0,
        0
      ],
      "alphaMode": "OPAQUE",
      "doubleSided": false
    },
    {
      "name": "Material__957",
      "pbrMetallicRoughness": {
        "baseColorTexture": {
          "index": 9
        },
        "baseColorFactor": [
          1,
          1,
          1,
          1
        ],
        "metallicFactor": 0,
        "roughnessFactor": 0.99
      },
      "emissiveFactor": [
        0,
        0,
        0
      ],
      "alphaMode": "OPAQUE",
      "doubleSided": false
    },
    {
      "name": "Material__916",
      "pbrMetallicRoughness": {
        "baseColorTexture": {
          "index": 1
        },
        "baseColorFactor": [
          1,
          1,
          1,
          1
        ],
        "metallicFactor": 0,
        "roughnessFactor": 0.99
      },
      "emissiveFactor": [
        0,
        0,
        0
      ],
      "alphaMode": "OPAQUE",
      "doubleSided": false
    },
    {
      "name": "Material__945",
      "pbrMetallicRoughness": {
        "baseColorTexture": {
          "index": 10
        },
        "baseColorFactor": [
          1,
          1,
          1,
          1
        ],
        "metallicFactor": 0,
        "roughnessFactor": 0.99
      },
      "emissiveFactor": [
        0,
        0,
        0
      ],
      "alphaMode": "OPAQUE",
      "doubleSided": false
    },
    {
      "name": "08___Default",
      "pbrMetallicRoughness": {
        "baseColorTexture": {
          "index": 11
        },
        "baseColorFactor": [
          1,
          1,
          1,
          1
        ],
        "metallicFactor": 0,
        "roughnessFactor": 0.99
      },
      "emissiveFactor": [
        0,
        0,
        0
      ],
      "alphaMode": "OPAQUE",
      "doubleSided": false
    },
    {
      "name": "07___Default",
      "pbrMetallicRoughness": {
        "baseColorTexture": {
          "index": 10
        },
        "baseColorFactor": [
          1,
          1,
          1,
          1
        ],
        "metallicFactor": 0,
        "roughnessFactor": 0.99
      },
      "emissiveFactor": [
        0,
        0,
        0
      ],
      "alphaMode": "OPAQUE",
      "doubleSided": false
    },
    {
      "name": "10___Default",
      "pbrMetallicRoughness": {
        "baseColorTexture": {
          "index": 9
        },
        "baseColorFactor": [
          1,
          1,
          1,
          1
        ],
        "metallicFactor": 0,
        "roughnessFactor": 0.99
      },
      "emissiveFactor": [
        0,
        0,
        0
      ],
      "alphaMode": "OPAQUE",
      "doubleSided": false
    }
  ],
  "meshes": [
    {
      "name": "Box061_1",
      "primitives": [
        {
          "attributes": {
            "POSITION": 0,
            "NORMAL": 1,
            "TEXCOORD_0": 2
          },
          "indices": 3,
          "material": 0,
          "mode": 4
        },
        {
          "attributes": {
            "POSITION": 4,
            "NORMAL": 5,
            "TEXCOORD_0": 6
          },
          "indices": 7,
          "material": 1,
          "mode": 4
        },
        {
          "attributes": {
            "POSITION": 8,
            "NORMAL": 9,
            "TEXCOORD_0": 10
          },
          "indices": 11,
          "material": 2,
          "mode": 4
        },
        {
          "attributes": {
            "POSITION": 12,
            "NORMAL": 13,
            "TEXCOORD_0": 14
          },
          "indices": 15,
          "material": 3,
          "mode": 4
        },
        {
          "attributes": {
            "POSITION": 16,
            "NORMAL": 17,
            "TEXCOORD_0": 18
          },
          "indices": 19,
          "material": 4,
          "mode": 4
        },
        {
          "attributes": {
            "POSITION": 20,
            "NORMAL": 21,
            "TEXCOORD_0": 22
          },
          "indices": 23,
          "material": 5,
          "mode": 4
        },
        {
          "attributes": {
            "POSITION": 24,
            "NORMAL": 25,
            "TEXCOORD_0": 26
          },
          "indices": 27,
          "material": 6,
          "mode": 4
        },
        {
          "attributes": {
            "POSITION": 28,
            "NORMAL": 29,
            "TEXCOORD_0": 30
          },
          "indices": 31,
          "material": 7,
          "mode": 4
        },
        {
          "attributes": {
            "POSITION": 32,
            "NORMAL": 33,
            "TEXCOORD_0": 34
          },
          "indices": 35,
          "material": 8,
          "mode": 4
        },
        {
          "attributes": {
            "POSITION": 36,
            "NORMAL": 37,
            "TEXCOORD_0": 38
          },
          "indices": 39,
          "material": 9,
          "mode": 4
        },
        {
          "attributes": {
            "POSITION": 40,
            "NORMAL": 41,
            "TEXCOORD_0": 42
          },
          "indices": 43,
          "material": 10,
          "mode": 4
        },
        {
          "attributes": {
            "POSITION": 44,
            "NORMAL": 45,
            "TEXCOORD_0": 46
          },
          "indices": 47,
          "material": 11,
          "mode": 4
        },
        {
          "attributes": {
            "POSITION": 48,
            "NORMAL": 49,
            "TEXCOORD_0": 50
          },
          "indices": 51,
          "material": 12,
          "mode": 4
        },
        {
          "attributes": {
            "POSITION": 52,
            "NORMAL": 53,
            "TEXCOORD_0": 54
          },
          "indices": 55,
          "material": 13,
          "mode": 4
        },
        {
          "attributes": {
            "POSITION": 56,
            "NORMAL": 57,
            "TEXCOORD_0": 58
          },
          "indices": 59,
          "material": 14,
          "mode": 4
        },
        {
          "attributes": {
            "POSITION": 60,
            "NORMAL": 61,
            "TEXCOORD_0": 62
          },
          "indices": 63,
          "material": 15,
          "mode": 4
        },
        {
          "attributes": {
            "POSITION": 64,
            "NORMAL": 65,
            "TEXCOORD_0": 66
          },
          "indices": 67,
          "material": 16,
          "mode": 4
        },
        {
          "attributes": {
            "POSITION": 68,
            "NORMAL": 69,
            "TEXCOORD_0": 70
          },
          "indices": 71,
          "material": 17,
          "mode": 4
        },
        {
          "attributes": {
            "POSITION": 72,
            "NORMAL": 73,
            "TEXCOORD_0": 74
          },
          "indices": 75,
          "material": 18,
          "mode": 4
        }
      ]
    }
  ],
  "nodes": [
    {
      "name": "Box061",
      "mesh": 0
    }
  ],
  "samplers": [
    {
      "wrapS": 10497,
      "wrapT": 10497
    }
  ],
  "scene": 0,
  "scenes": [
    {
      "nodes": [
        0
      ]
    }
  ],
  "textures": [
    {
      "name": "0011",
      "sampler": 0,
      "source": 0
    },
    {
      "name": "008",
      "sampler": 0,
      "source": 1
    },
    {
      "name": "002",
      "sampler": 0,
      "source": 2
    },
    {
      "name": "015",
      "sampler": 0,
      "source": 3
    },
    {
      "name": "0003",
      "sampler": 0,
      "source": 4
    },
    {
      "name": "012",
      "sampler": 0,
      "source": 5
    },
    {
      "name": "011",
      "sampler": 0,
      "source": 6
    },
    {
      "name": "009",
      "sampler": 0,
      "source": 7
    },
    {
      "name": "006",
      "sampler": 0,
      "source": 8
    },
    {
      "name": "007",
      "sampler": 0,
      "source": 9
    },
    {
      "name": "004",
      "sampler": 0,
      "source": 10
    },
    {
      "name": "005",
      "sampler": 0,
      "source": 11
    }
  ]
}
