{
  "accessors": [
    {
      "name": "Box001_1_0_positions",
      "componentType": 5126,
      "count": 42,
      "min": [
        -30.777599334716797,
        -13.103099822998047,
        0
      ],
      "max": [
        27.36750030517578,
        22.180599212646484,
        13.121700286865234
      ],
      "type": "VEC3",
      "bufferView": 0,
      "byteOffset": 0
    },
    {
      "name": "Box001_1_0_normals",
      "componentType": 5126,
      "count": 42,
      "min": [
        0,
        -1,
        0
      ],
      "max": [
        1,
        1,
        1
      ],
      "type": "VEC3",
      "bufferView": 1,
      "byteOffset": 0
    },
    {
      "name": "Box001_1_0_texcoords",
      "componentType": 5126,
      "count": 42,
      "min": [
        -5.076900005340576,
        -0.15870000422000885
      ],
      "max": [
        5.981100082397461,
        2.0754001140594482
      ],
      "type": "VEC2",
      "bufferView": 2,
      "byteOffset": 0
    },
    {
      "name": "Box001_1_0_indices",
      "componentType": 5123,
      "count": 66,
      "min": [
        0
      ],
      "max": [
        41
      ],
      "type": "SCALAR",
      "bufferView": 3,
      "byteOffset": 0
    },
    {
      "name": "Box001_1_1_positions",
      "componentType": 5126,
      "count": 6,
      "min": [
        27.36750030517578,
        -6.479700088500977,
        0
      ],
      "max": [
        27.36750030517578,
        16.644500732421875,
        5.929599761962891
      ],
      "type": "VEC3",
      "bufferView": 0,
      "byteOffset": 504
    },
    {
      "name": "Box001_1_1_normals",
      "componentType": 5126,
      "count": 6,
      "min": [
        1,
        0,
        0
      ],
      "max": [
        1,
        0,
        0
      ],
      "type": "VEC3",
      "bufferView": 1,
      "byteOffset": 504
    },
    {
      "name": "Box001_1_1_texcoords",
      "componentType": 5126,
      "count": 6,
      "min": [
        -0.19859999418258667,
        -3.4992001056671143
      ],
      "max": [
        6.238399982452393,
        1
      ],
      "type": "VEC2",
      "bufferView": 2,
      "byteOffset": 336
    },
    {
      "name": "Box001_1_1_indices",
      "componentType": 5123,
      "count": 12,
      "min": [
        0
      ],
      "max": [
        5
      ],
      "type": "SCALAR",
      "bufferView": 3,
      "byteOffset": 132
    },
    {
      "name": "Box001_1_2_positions",
      "componentType": 5126,
      "count": 119,
      "min": [
        -30.777599334716797,
        -27.81909942626953,
        -0.01489999983459711
      ],
      "max": [
        30.777599334716797,
        27.81909942626953,
        13.121700286865234
      ],
      "type": "VEC3",
      "bufferView": 0,
      "byteOffset": 576
    },
    {
      "name": "Box001_1_2_normals",
      "componentType": 5126,
      "count": 119,
      "min": [
        -1,
        -1,
        -1
      ],
      "max": [
        1,
        1,
        1
      ],
      "type": "VEC3",
      "bufferView": 1,
      "byteOffset": 576
    },
    {
      "name": "Box001_1_2_texcoords",
      "componentType": 5126,
      "count": 119,
      "min": [
        -0.8870999813079834,
        -1.764299988746643
      ],
      "max": [
        4.76639986038208,
        1.8870999813079834
      ],
      "type": "VEC2",
      "bufferView": 2,
      "byteOffset": 384
    },
    {
      "name": "Box001_1_2_indices",
      "componentType": 5123,
      "count": 225,
      "min": [
        0
      ],
      "max": [
        118
      ],
      "type": "SCALAR",
      "bufferView": 3,
      "byteOffset": 156
    },
    {
      "name": "Box001_1_3_positions",
      "componentType": 5126,
      "count": 54,
      "min": [
        -30.777599334716797,
        -46.30889892578125,
        0
      ],
      "max": [
        27.36750030517578,
        27.81909942626953,
        8.598699569702148
      ],
      "type": "VEC3",
      "bufferView": 0,
      "byteOffset": 2004
    },
    {
      "name": "Box001_1_3_normals",
      "componentType": 5126,
      "count": 54,
      "min": [
        -1,
        -1,
        -1
      ],
      "max": [
        1,
        1,
        0
      ],
      "type": "VEC3",
      "bufferView": 1,
      "byteOffset": 2004
    },
    {
      "name": "Box001_1_3_texcoords",
      "componentType": 5126,
      "count": 54,
      "min": [
        -2.026099920272827,
        0
      ],
      "max": [
        5.019100189208984,
        3.008699893951416
      ],
      "type": "VEC2",
      "bufferView": 2,
      "byteOffset": 1336
    },
    {
      "name": "Box001_1_3_indices",
      "componentType": 5123,
      "count": 84,
      "min": [
        0
      ],
      "max": [
        53
      ],
      "type": "SCALAR",
      "bufferView": 3,
      "byteOffset": 608
    },
    {
      "name": "Box001_1_4_positions",
      "componentType": 5126,
      "count": 1950,
      "min": [
        30.397300720214844,
        -0.8895999789237976,
        6.18310022354126
      ],
      "max": [
        30.602800369262695,
        10.697600364685059,
        8.98330020904541
      ],
      "type": "VEC3",
      "bufferView": 0,
      "byteOffset": 2652
    },
    {
      "name": "Box001_1_4_normals",
      "componentType": 5126,
      "count": 1950,
      "min": [
        0,
        -1,
        -1
      ],
      "max": [
        1,
        1,
        1
      ],
      "type": "VEC3",
      "bufferView": 1,
      "byteOffset": 2652
    },
    {
      "name": "Box001_1_4_texcoords",
      "componentType": 5126,
      "count": 1950,
      "min": [
        -187.6999969482422,
        -62.599998474121094
      ],
      "max": [
        187.6999969482422,
        11.5
      ],
      "type": "VEC2",
      "bufferView": 2,
      "byteOffset": 1768
    },
    {
      "name": "Box001_1_4_indices",
      "componentType": 5123,
      "count": 3486,
      "min": [
        0
      ],
      "max": [
        1949
      ],
      "type": "SCALAR",
      "bufferView": 3,
      "byteOffset": 776
    },
    {
      "name": "Box001_1_5_positions",
      "componentType": 5126,
      "count": 4,
      "min": [
        -30.777599334716797,
        -46.30889892578125,
        8.598699569702148
      ],
      "max": [
        -11.9753999710083,
        -27.81909942626953,
        8.598699569702148
      ],
      "type": "VEC3",
      "bufferView": 0,
      "byteOffset": 26052
    },
    {
      "name": "Box001_1_5_normals",
      "componentType": 5126,
      "count": 4,
      "min": [
        0,
        0,
        1
      ],
      "max": [
        0,
        0,
        1
      ],
      "type": "VEC3",
      "bufferView": 1,
      "byteOffset": 26052
    },
    {
      "name": "Box001_1_5_texcoords",
      "componentType": 5126,
      "count": 4,
      "min": [
        0.08569999784231186,
        -0.1615000069141388
      ],
      "max": [
        0.9143000245094299,
        1.1614999771118164
      ],
      "type": "VEC2",
      "bufferView": 2,
      "byteOffset": 17368
    },
    {
      "name": "Box001_1_5_indices",
      "componentType": 5123,
      "count": 6,
      "min": [
        0
      ],
      "max": [
        3
      ],
      "type": "SCALAR",
      "bufferView": 3,
      "byteOffset": 7748
    }
  ],
  "asset": {
    "generator": "obj2gltf",
    "version": "2.0"
  },
  "buffers": [
    {
      "name": "SG_st",
      "byteLength": 77360,
      "uri": "data:application/octet-stream;base64,"
    }
  ],
  "bufferViews": [
    {
      "name": "bufferView_0",
      "buffer": 0,
      "byteLength": 26100,
      "byteOffset": 0,
      "byteStride": 12,
      "target": 34962
    },
    {
      "name": "bufferView_1",
      "buffer": 0,
      "byteLength": 26100,
      "byteOffset": 26100,
      "byteStride": 12,
      "target": 34962
    },
    {
      "name": "bufferView_2",
      "buffer": 0,
      "byteLength": 17400,
      "byteOffset": 52200,
      "byteStride": 8,
      "target": 34962
    },
    {
      "name": "bufferView_3",
      "buffer": 0,
      "byteLength": 7760,
      "byteOffset": 69600,
      "target": 34963
    }
  ],
  "images": [
    {
      "name": "0100",
      "uri": "0100.jpg"
    },
    {
      "name": "SG_dl01",
      "uri": "SG_dl01.jpg"
    },
    {
      "name": "0102",
      "uri": "0102.jpg"
    },
    {
      "name": "0101",
      "uri": "0101.jpg"
    },
    {
      "name": "sgbq_008",
      "uri": "sgbq_008.jpg"
    }
  ],
  "materials": [
    {
      "name": "Material__38",
      "pbrMetallicRoughness": {
        "baseColorTexture": {
          "index": 0
        },
        "baseColorFactor": [
          1,
          1,
          1,
          1
        ],
        "metallicFactor": 0,
        "roughnessFactor": 0.99
      },
      "emissiveFactor": [
        0,
        0,
        0
      ],
      "alphaMode": "OPAQUE",
      "doubleSided": false
    },
    {
      "name": "Material__74",
      "pbrMetallicRoughness": {
        "baseColorTexture": {
          "index": 1
        },
        "baseColorFactor": [
          1,
          1,
          1,
          1
        ],
        "metallicFactor": 0,
        "roughnessFactor": 0.99
      },
      "emissiveFactor": [
        0,
        0,
        0
      ],
      "alphaMode": "OPAQUE",
      "doubleSided": false
    },
    {
      "name": "Material__39",
      "pbrMetallicRoughness": {
        "baseColorTexture": {
          "index": 2
        },
        "baseColorFactor": [
          1,
          1,
          1,
          1
        ],
        "metallicFactor": 0,
        "roughnessFactor": 0.99
      },
      "emissiveFactor": [
        0,
        0,
        0
      ],
      "alphaMode": "OPAQUE",
      "doubleSided": false
    },
    {
      "name": "Material__37",
      "pbrMetallicRoughness": {
        "baseColorTexture": {
          "index": 3
        },
        "baseColorFactor": [
          1,
          1,
          1,
          1
        ],
        "metallicFactor": 0,
        "roughnessFactor": 0.99
      },
      "emissiveFactor": [
        0,
        0,
        0
      ],
      "alphaMode": "OPAQUE",
      "doubleSided": false
    },
    {
      "name": "Material__1574",
      "pbrMetallicRoughness": {
        "baseColorTexture": {
          "index": 4
        },
        "baseColorFactor": [
          1,
          1,
          1,
          1
        ],
        "metallicFactor": 0,
        "roughnessFactor": 0.99
      },
      "emissiveFactor": [
        0,
        0,
        0
      ],
      "alphaMode": "OPAQUE",
      "doubleSided": false
    },
    {
      "name": "Material__1668",
      "pbrMetallicRoughness": {
        "baseColorTexture": {
          "index": 2
        },
        "baseColorFactor": [
          1,
          1,
          1,
          1
        ],
        "metallicFactor": 0,
        "roughnessFactor": 0.99
      },
      "emissiveFactor": [
        0,
        0,
        0
      ],
      "alphaMode": "OPAQUE",
      "doubleSided": false
    }
  ],
  "meshes": [
    {
      "name": "Box001_1",
      "primitives": [
        {
          "attributes": {
            "POSITION": 0,
            "NORMAL": 1,
            "TEXCOORD_0": 2
          },
          "indices": 3,
          "material": 0,
          "mode": 4
        },
        {
          "attributes": {
            "POSITION": 4,
            "NORMAL": 5,
            "TEXCOORD_0": 6
          },
          "indices": 7,
          "material": 1,
          "mode": 4
        },
        {
          "attributes": {
            "POSITION": 8,
            "NORMAL": 9,
            "TEXCOORD_0": 10
          },
          "indices": 11,
          "material": 2,
          "mode": 4
        },
        {
          "attributes": {
            "POSITION": 12,
            "NORMAL": 13,
            "TEXCOORD_0": 14
          },
          "indices": 15,
          "material": 3,
          "mode": 4
        },
        {
          "attributes": {
            "POSITION": 16,
            "NORMAL": 17,
            "TEXCOORD_0": 18
          },
          "indices": 19,
          "material": 4,
          "mode": 4
        },
        {
          "attributes": {
            "POSITION": 20,
            "NORMAL": 21,
            "TEXCOORD_0": 22
          },
          "indices": 23,
          "material": 5,
          "mode": 4
        }
      ]
    }
  ],
  "nodes": [
    {
      "name": "Box001",
      "mesh": 0
    }
  ],
  "samplers": [
    {
      "wrapS": 10497,
      "wrapT": 10497
    }
  ],
  "scene": 0,
  "scenes": [
    {
      "nodes": [
        0
      ]
    }
  ],
  "textures": [
    {
      "name": "0100",
      "sampler": 0,
      "source": 0
    },
    {
      "name": "SG_dl01",
      "sampler": 0,
      "source": 1
    },
    {
      "name": "0102",
      "sampler": 0,
      "source": 2
    },
    {
      "name": "0101",
      "sampler": 0,
      "source": 3
    },
    {
      "name": "sgbq_008",
      "sampler": 0,
      "source": 4
    }
  ]
}
