{"asset":{"version":"2.0","generator":"babylon.js glTF exporter for 3dsmax 2022 v20240125.3"},"scene":0,"scenes":[{"nodes":[0]}],"nodes":[{"mesh":0,"name":"Box001"}],"meshes":[{"primitives":[{"attributes":{"POSITION":1,"NORMAL":2,"TEXCOORD_0":3},"indices":0,"material":0},{"attributes":{"POSITION":5,"NORMAL":6,"TEXCOORD_0":7},"indices":4,"material":1},{"attributes":{"POSITION":9,"NORMAL":10,"TEXCOORD_0":11},"indices":8,"material":2}],"name":"Box001"}],"accessors":[{"bufferView":0,"componentType":5123,"count":192,"type":"SCALAR","name":"accessorIndices"},{"bufferView":1,"componentType":5126,"count":89,"max":[35.852684,19.0302162,19.4020939],"min":[-35.852684,-19.0302181,-3.10041582E-06],"type":"VEC3","name":"accessorPositions"},{"bufferView":1,"byteOffset":1068,"componentType":5126,"count":89,"type":"VEC3","name":"accessorNormals"},{"bufferView":2,"componentType":5126,"count":89,"type":"VEC2","name":"accessorUVs"},{"bufferView":0,"byteOffset":384,"componentType":5123,"count":36,"type":"SCALAR","name":"accessorIndices"},{"bufferView":1,"byteOffset":2136,"componentType":5126,"count":20,"max":[35.852684,19.0302162,19.4020939],"min":[-35.852684,-19.0302181,-3.10041582E-06],"type":"VEC3","name":"accessorPositions"},{"bufferView":1,"byteOffset":2376,"componentType":5126,"count":20,"type":"VEC3","name":"accessorNormals"},{"bufferView":2,"byteOffset":712,"componentType":5126,"count":20,"type":"VEC2","name":"accessorUVs"},{"bufferView":0,"byteOffset":456,"componentType":5123,"count":24,"type":"SCALAR","name":"accessorIndices"},{"bufferView":1,"byteOffset":2616,"componentType":5126,"count":12,"max":[34.8223953,16.7876549,17.6642818],"min":[-34.8223953,-17.99993,11.9295006],"type":"VEC3","name":"accessorPositions"},{"bufferView":1,"byteOffset":2760,"componentType":5126,"count":12,"type":"VEC3","name":"accessorNormals"},{"bufferView":2,"byteOffset":872,"componentType":5126,"count":12,"type":"VEC2","name":"accessorUVs"}],"bufferViews":[{"buffer":0,"byteLength":504,"name":"bufferViewScalar"},{"buffer":0,"byteOffset":504,"byteLength":2904,"byteStride":12,"name":"bufferViewFloatVec3"},{"buffer":0,"byteOffset":3408,"byteLength":968,"byteStride":8,"name":"bufferViewFloatVec2"}],"buffers":[{"uri":"sgy_jt_01.bin","byteLength":4376}],"materials":[{"pbrMetallicRoughness":{"baseColorTexture":{"index":0},"metallicFactor":0.0,"roughnessFactor":0.450053632},"name":"Material #2"},{"pbrMetallicRoughness":{"baseColorTexture":{"index":0},"metallicFactor":0.0,"roughnessFactor":0.450053632},"name":"Material #3"},{"pbrMetallicRoughness":{"baseColorTexture":{"index":1},"metallicFactor":0.0,"roughnessFactor":0.450053632},"name":"Material #28"}],"textures":[{"sampler":0,"source":0,"name":"SG_JT_0008.jpg"},{"sampler":0,"source":1,"name":"SG_JT_0009.jpg"}],"images":[{"uri":"SG_JT_0008.jpg"},{"uri":"SG_JT_0009.jpg"}],"samplers":[{"magFilter":9729,"minFilter":9987}]}