{
  "accessors": [
    {
      "name": "Object001_1_0_positions",
      "componentType": 5126,
      "count": 1857,
      "min": [
        -73.43090057373047,
        -11.109399795532227,
        0
      ],
      "max": [
        73.43090057373047,
        11.109399795532227,
        8.326499938964844
      ],
      "type": "VEC3",
      "bufferView": 0,
      "byteOffset": 0
    },
    {
      "name": "Object001_1_0_normals",
      "componentType": 5126,
      "count": 1857,
      "min": [
        -0.9813159704208374,
        -1,
        -0.8614810109138489
      ],
      "max": [
        0.828417181968689,
        1,
        0.8614810109138489
      ],
      "type": "VEC3",
      "bufferView": 1,
      "byteOffset": 0
    },
    {
      "name": "Object001_1_0_texcoords",
      "componentType": 5126,
      "count": 1857,
      "min": [
        -49.50019836425781,
        -5.18179988861084
      ],
      "max": [
        50.50019836425781,
        6.18179988861084
      ],
      "type": "VEC2",
      "bufferView": 2,
      "byteOffset": 0
    },
    {
      "name": "Object001_1_0_indices",
      "componentType": 5123,
      "count": 3402,
      "min": [
        0
      ],
      "max": [
        1856
      ],
      "type": "SCALAR",
      "bufferView": 3,
      "byteOffset": 0
    },
    {
      "name": "Object001_1_1_positions",
      "componentType": 5126,
      "count": 64,
      "min": [
        5.788300037384033,
        7.109399795532227,
        3.3929998874664307
      ],
      "max": [
        23.749000549316406,
        11.109399795532227,
        7.907700061798096
      ],
      "type": "VEC3",
      "bufferView": 0,
      "byteOffset": 22284
    },
    {
      "name": "Object001_1_1_normals",
      "componentType": 5126,
      "count": 64,
      "min": [
        -0.6209313273429871,
        -0.7721934914588928,
        0.38951966166496277
      ],
      "max": [
        0.6209313273429871,
        0.7721934914588928,
        0.6975681781768799
      ],
      "type": "VEC3",
      "bufferView": 1,
      "byteOffset": 22284
    },
    {
      "name": "Object001_1_1_texcoords",
      "componentType": 5126,
      "count": 64,
      "min": [
        -0.289000004529953,
        -0.7353000044822693
      ],
      "max": [
        0.9589999914169312,
        1.583400011062622
      ],
      "type": "VEC2",
      "bufferView": 2,
      "byteOffset": 14856
    },
    {
      "name": "Object001_1_1_indices",
      "componentType": 5123,
      "count": 96,
      "min": [
        0
      ],
      "max": [
        63
      ],
      "type": "SCALAR",
      "bufferView": 3,
      "byteOffset": 6804
    },
    {
      "name": "Object001_1_2_positions",
      "componentType": 5126,
      "count": 156,
      "min": [
        -73.43090057373047,
        -11.109399795532227,
        0
      ],
      "max": [
        73.43090057373047,
        11.109399795532227,
        0
      ],
      "type": "VEC3",
      "bufferView": 0,
      "byteOffset": 23052
    },
    {
      "name": "Object001_1_2_normals",
      "componentType": 5126,
      "count": 156,
      "min": [
        -0.6725850701332092,
        -0.8944271802902222,
        -0.8614810109138489
      ],
      "max": [
        0.6251944899559021,
        0.8944271802902222,
        -0.4472135901451111
      ],
      "type": "VEC3",
      "bufferView": 1,
      "byteOffset": 23052
    },
    {
      "name": "Object001_1_2_texcoords",
      "componentType": 5126,
      "count": 156,
      "min": [
        0,
        0
      ],
      "max": [
        0,
        1
      ],
      "type": "VEC2",
      "bufferView": 2,
      "byteOffset": 15368
    },
    {
      "name": "Object001_1_2_indices",
      "componentType": 5123,
      "count": 234,
      "min": [
        0
      ],
      "max": [
        155
      ],
      "type": "SCALAR",
      "bufferView": 3,
      "byteOffset": 6996
    },
    {
      "name": "Object001_1_3_positions",
      "componentType": 5126,
      "count": 200,
      "min": [
        -73.38860321044922,
        -10.957200050354004,
        3.2458999156951904
      ],
      "max": [
        73.3947982788086,
        10.92650032043457,
        10.007100105285645
      ],
      "type": "VEC3",
      "bufferView": 0,
      "byteOffset": 24924
    },
    {
      "name": "Object001_1_3_normals",
      "componentType": 5126,
      "count": 200,
      "min": [
        -0.9813951253890991,
        -1,
        0
      ],
      "max": [
        0.8261892795562744,
        1,
        0
      ],
      "type": "VEC3",
      "bufferView": 1,
      "byteOffset": 24924
    },
    {
      "name": "Object001_1_3_texcoords",
      "componentType": 5126,
      "count": 200,
      "min": [
        -11.85770034790039,
        0.07329999655485153
      ],
      "max": [
        11.935700416564941,
        1.0500999689102173
      ],
      "type": "VEC2",
      "bufferView": 2,
      "byteOffset": 16616
    },
    {
      "name": "Object001_1_3_indices",
      "componentType": 5123,
      "count": 462,
      "min": [
        0
      ],
      "max": [
        199
      ],
      "type": "SCALAR",
      "bufferView": 3,
      "byteOffset": 7464
    }
  ],
  "asset": {
    "generator": "obj2gltf",
    "version": "2.0"
  },
  "buffers": [
    {
      "name": "Q11",
      "byteLength": 81252,
      "uri": "data:application/octet-stream;base64,"
    }
  ],
  "bufferViews": [
    {
      "name": "bufferView_0",
      "buffer": 0,
      "byteLength": 27324,
      "byteOffset": 0,
      "byteStride": 12,
      "target": 34962
    },
    {
      "name": "bufferView_1",
      "buffer": 0,
      "byteLength": 27324,
      "byteOffset": 27324,
      "byteStride": 12,
      "target": 34962
    },
    {
      "name": "bufferView_2",
      "buffer": 0,
      "byteLength": 18216,
      "byteOffset": 54648,
      "byteStride": 8,
      "target": 34962
    },
    {
      "name": "bufferView_3",
      "buffer": 0,
      "byteLength": 8388,
      "byteOffset": 72864,
      "target": 34963
    }
  ],
  "images": [
    {
      "name": "SGY_q1_059",
      "uri": "SGY_q1_059.jpg"
    },
    {
      "name": "SGY_q1_157",
      "uri": "SGY_q1_157.jpg"
    },
    {
      "name": "wcl_006",
      "uri": "wcl_006.png"
    }
  ],
  "materials": [
    {
      "name": "Material__13",
      "pbrMetallicRoughness": {
        "baseColorTexture": {
          "index": 0
        },
        "baseColorFactor": [
          1,
          1,
          1,
          1
        ],
        "metallicFactor": 0,
        "roughnessFactor": 0.99
      },
      "emissiveFactor": [
        0,
        0,
        0
      ],
      "alphaMode": "OPAQUE",
      "doubleSided": false
    },
    {
      "name": "Material__114",
      "pbrMetallicRoughness": {
        "baseColorTexture": {
          "index": 1
        },
        "baseColorFactor": [
          1,
          1,
          1,
          1
        ],
        "metallicFactor": 0,
        "roughnessFactor": 0.99
      },
      "emissiveFactor": [
        0,
        0,
        0
      ],
      "alphaMode": "OPAQUE",
      "doubleSided": false
    },
    {
      "name": "01___Default",
      "pbrMetallicRoughness": {
        "baseColorFactor": [
          0.5882,
          0.5882,
          0.5882,
          1
        ],
        "metallicFactor": 0,
        "roughnessFactor": 0.99
      },
      "emissiveFactor": [
        0,
        0,
        0
      ],
      "alphaMode": "OPAQUE",
      "doubleSided": false
    },
    {
      "name": "Material__0",
      "pbrMetallicRoughness": {
        "baseColorTexture": {
          "index": 2
        },
        "baseColorFactor": [
          1,
          1,
          1,
          1
        ],
        "metallicFactor": 0,
        "roughnessFactor": 0.99
      },
      "emissiveFactor": [
        0,
        0,
        0
      ],
      "alphaMode": "BLEND",
      "doubleSided": true
    }
  ],
  "meshes": [
    {
      "name": "Object001_1",
      "primitives": [
        {
          "attributes": {
            "POSITION": 0,
            "NORMAL": 1,
            "TEXCOORD_0": 2
          },
          "indices": 3,
          "material": 0,
          "mode": 4
        },
        {
          "attributes": {
            "POSITION": 4,
            "NORMAL": 5,
            "TEXCOORD_0": 6
          },
          "indices": 7,
          "material": 1,
          "mode": 4
        },
        {
          "attributes": {
            "POSITION": 8,
            "NORMAL": 9,
            "TEXCOORD_0": 10
          },
          "indices": 11,
          "material": 2,
          "mode": 4
        },
        {
          "attributes": {
            "POSITION": 12,
            "NORMAL": 13,
            "TEXCOORD_0": 14
          },
          "indices": 15,
          "material": 3,
          "mode": 4
        }
      ]
    }
  ],
  "nodes": [
    {
      "name": "Object001",
      "mesh": 0
    }
  ],
  "samplers": [
    {
      "wrapS": 10497,
      "wrapT": 10497
    }
  ],
  "scene": 0,
  "scenes": [
    {
      "nodes": [
        0
      ]
    }
  ],
  "textures": [
    {
      "name": "SGY_q1_059",
      "sampler": 0,
      "source": 0
    },
    {
      "name": "SGY_q1_157",
      "sampler": 0,
      "source": 1
    },
    {
      "name": "wcl_006",
      "sampler": 0,
      "source": 2
    }
  ]
}
