{
  "accessors": [
    {
      "name": "Box001_1_0_positions",
      "componentType": 5126,
      "count": 1693,
      "min": [
        -4.498799800872803,
        -22.72480010986328,
        -0.06679999828338623
      ],
      "max": [
        56.80780029296875,
        36.87620162963867,
        21.426700592041016
      ],
      "type": "VEC3",
      "bufferView": 0,
      "byteOffset": 0
    },
    {
      "name": "Box001_1_0_normals",
      "componentType": 5126,
      "count": 1693,
      "min": [
        -1,
        -1,
        -1
      ],
      "max": [
        1,
        1,
        1
      ],
      "type": "VEC3",
      "bufferView": 1,
      "byteOffset": 0
    },
    {
      "name": "Box001_1_0_texcoords",
      "componentType": 5126,
      "count": 1693,
      "min": [
        -1.0307999849319458,
        -0.6552000045776367
      ],
      "max": [
        3.786600112915039,
        1.6974999904632568
      ],
      "type": "VEC2",
      "bufferView": 2,
      "byteOffset": 0
    },
    {
      "name": "Box001_1_0_indices",
      "componentType": 5123,
      "count": 2742,
      "min": [
        0
      ],
      "max": [
        1692
      ],
      "type": "SCALAR",
      "bufferView": 3,
      "byteOffset": 0
    },
    {
      "name": "Box001_1_1_positions",
      "componentType": 5126,
      "count": 569,
      "min": [
        -44.68479919433594,
        -42.482398986816406,
        0
      ],
      "max": [
        43.60820007324219,
        38.03129959106445,
        38.163700103759766
      ],
      "type": "VEC3",
      "bufferView": 0,
      "byteOffset": 20316
    },
    {
      "name": "Box001_1_1_normals",
      "componentType": 5126,
      "count": 569,
      "min": [
        -1,
        -1,
        -0.001699997577816248
      ],
      "max": [
        1,
        1,
        0.0017999970586970448
      ],
      "type": "VEC3",
      "bufferView": 1,
      "byteOffset": 20316
    },
    {
      "name": "Box001_1_1_texcoords",
      "componentType": 5126,
      "count": 569,
      "min": [
        -9.5,
        -1.8628000020980835
      ],
      "max": [
        10.5,
        2.0404000282287598
      ],
      "type": "VEC2",
      "bufferView": 2,
      "byteOffset": 13544
    },
    {
      "name": "Box001_1_1_indices",
      "componentType": 5123,
      "count": 858,
      "min": [
        0
      ],
      "max": [
        568
      ],
      "type": "SCALAR",
      "bufferView": 3,
      "byteOffset": 5484
    },
    {
      "name": "Box001_1_2_positions",
      "componentType": 5126,
      "count": 408,
      "min": [
        -4.566999912261963,
        -23.966999053955078,
        -0.004399999976158142
      ],
      "max": [
        56.80780029296875,
        36.96260070800781,
        5.680300235748291
      ],
      "type": "VEC3",
      "bufferView": 0,
      "byteOffset": 27144
    },
    {
      "name": "Box001_1_2_normals",
      "componentType": 5126,
      "count": 408,
      "min": [
        -1,
        -1,
        -0.0012999989558011293
      ],
      "max": [
        1,
        1,
        1
      ],
      "type": "VEC3",
      "bufferView": 1,
      "byteOffset": 27144
    },
    {
      "name": "Box001_1_2_texcoords",
      "componentType": 5126,
      "count": 408,
      "min": [
        -4.137599945068359,
        -1.4230999946594238
      ],
      "max": [
        5.137599945068359,
        2.423099994659424
      ],
      "type": "VEC2",
      "bufferView": 2,
      "byteOffset": 18096
    },
    {
      "name": "Box001_1_2_indices",
      "componentType": 5123,
      "count": 675,
      "min": [
        0
      ],
      "max": [
        407
      ],
      "type": "SCALAR",
      "bufferView": 3,
      "byteOffset": 7200
    },
    {
      "name": "Box001_1_3_positions",
      "componentType": 5126,
      "count": 8,
      "min": [
        3.299799919128418,
        -17.170799255371094,
        0
      ],
      "max": [
        10.896300315856934,
        -17.17060089111328,
        4.25029993057251
      ],
      "type": "VEC3",
      "bufferView": 0,
      "byteOffset": 32040
    },
    {
      "name": "Box001_1_3_normals",
      "componentType": 5126,
      "count": 8,
      "min": [
        0,
        -1,
        0
      ],
      "max": [
        0,
        -1,
        0
      ],
      "type": "VEC3",
      "bufferView": 1,
      "byteOffset": 32040
    },
    {
      "name": "Box001_1_3_texcoords",
      "componentType": 5126,
      "count": 8,
      "min": [
        0,
        -0.09359999746084213
      ],
      "max": [
        1,
        0.744700014591217
      ],
      "type": "VEC2",
      "bufferView": 2,
      "byteOffset": 21360
    },
    {
      "name": "Box001_1_3_indices",
      "componentType": 5123,
      "count": 12,
      "min": [
        0
      ],
      "max": [
        7
      ],
      "type": "SCALAR",
      "bufferView": 3,
      "byteOffset": 8552
    },
    {
      "name": "Box001_1_4_positions",
      "componentType": 5126,
      "count": 70,
      "min": [
        -48.03229904174805,
        -22.2362003326416,
        -0.022099999710917473
      ],
      "max": [
        48.177398681640625,
        43.44919967651367,
        4.9166998863220215
      ],
      "type": "VEC3",
      "bufferView": 0,
      "byteOffset": 32136
    },
    {
      "name": "Box001_1_4_normals",
      "componentType": 5126,
      "count": 70,
      "min": [
        -1,
        -1,
        -0.00009999999747378752
      ],
      "max": [
        1,
        1,
        0
      ],
      "type": "VEC3",
      "bufferView": 1,
      "byteOffset": 32136
    },
    {
      "name": "Box001_1_4_texcoords",
      "componentType": 5126,
      "count": 70,
      "min": [
        -2.265899896621704,
        -0.15569999814033508
      ],
      "max": [
        2.0188000202178955,
        1
      ],
      "type": "VEC2",
      "bufferView": 2,
      "byteOffset": 21424
    },
    {
      "name": "Box001_1_4_indices",
      "componentType": 5123,
      "count": 102,
      "min": [
        0
      ],
      "max": [
        69
      ],
      "type": "SCALAR",
      "bufferView": 3,
      "byteOffset": 8576
    },
    {
      "name": "Box001_1_5_positions",
      "componentType": 5126,
      "count": 1084,
      "min": [
        -56.80780029296875,
        -23.26799964904785,
        0
      ],
      "max": [
        25.2903995513916,
        34.737998962402344,
        19.21619987487793
      ],
      "type": "VEC3",
      "bufferView": 0,
      "byteOffset": 32976
    },
    {
      "name": "Box001_1_5_normals",
      "componentType": 5126,
      "count": 1084,
      "min": [
        -1,
        -1,
        -1
      ],
      "max": [
        1,
        1,
        1
      ],
      "type": "VEC3",
      "bufferView": 1,
      "byteOffset": 32976
    },
    {
      "name": "Box001_1_5_texcoords",
      "componentType": 5126,
      "count": 1084,
      "min": [
        -0.5626000165939331,
        0
      ],
      "max": [
        1.562600016593933,
        1
      ],
      "type": "VEC2",
      "bufferView": 2,
      "byteOffset": 21984
    },
    {
      "name": "Box001_1_5_indices",
      "componentType": 5123,
      "count": 2478,
      "min": [
        0
      ],
      "max": [
        1083
      ],
      "type": "SCALAR",
      "bufferView": 3,
      "byteOffset": 8780
    },
    {
      "name": "Box001_1_6_positions",
      "componentType": 5126,
      "count": 400,
      "min": [
        -48.03229904174805,
        -25.010400772094727,
        -0.019899999722838402
      ],
      "max": [
        54.00040054321289,
        38.68280029296875,
        15.974599838256836
      ],
      "type": "VEC3",
      "bufferView": 0,
      "byteOffset": 45984
    },
    {
      "name": "Box001_1_6_normals",
      "componentType": 5126,
      "count": 400,
      "min": [
        -1,
        -1,
        -1
      ],
      "max": [
        1,
        1,
        1
      ],
      "type": "VEC3",
      "bufferView": 1,
      "byteOffset": 45984
    },
    {
      "name": "Box001_1_6_texcoords",
      "componentType": 5126,
      "count": 400,
      "min": [
        -0.4869999885559082,
        0
      ],
      "max": [
        1.4869999885559082,
        1.0104000568389893
      ],
      "type": "VEC2",
      "bufferView": 2,
      "byteOffset": 30656
    },
    {
      "name": "Box001_1_6_indices",
      "componentType": 5123,
      "count": 714,
      "min": [
        0
      ],
      "max": [
        399
      ],
      "type": "SCALAR",
      "bufferView": 3,
      "byteOffset": 13736
    },
    {
      "name": "Box001_1_7_positions",
      "componentType": 5126,
      "count": 20,
      "min": [
        -40.48500061035156,
        -37.49549865722656,
        0
      ],
      "max": [
        52.872398376464844,
        12.527700424194336,
        9.2746000289917
      ],
      "type": "VEC3",
      "bufferView": 0,
      "byteOffset": 50784
    },
    {
      "name": "Box001_1_7_normals",
      "componentType": 5126,
      "count": 20,
      "min": [
        -1,
        -1,
        0
      ],
      "max": [
        1,
        0,
        0
      ],
      "type": "VEC3",
      "bufferView": 1,
      "byteOffset": 50784
    },
    {
      "name": "Box001_1_7_texcoords",
      "componentType": 5126,
      "count": 20,
      "min": [
        0,
        0.007600000128149986
      ],
      "max": [
        1,
        0.9983000159263611
      ],
      "type": "VEC2",
      "bufferView": 2,
      "byteOffset": 33856
    },
    {
      "name": "Box001_1_7_indices",
      "componentType": 5123,
      "count": 30,
      "min": [
        0
      ],
      "max": [
        19
      ],
      "type": "SCALAR",
      "bufferView": 3,
      "byteOffset": 15164
    },
    {
      "name": "Box001_1_8_positions",
      "componentType": 5126,
      "count": 22,
      "min": [
        -41.89649963378906,
        -24.437299728393555,
        4.697500228881836
      ],
      "max": [
        52.872398376464844,
        34.356998443603516,
        13.250800132751465
      ],
      "type": "VEC3",
      "bufferView": 0,
      "byteOffset": 51024
    },
    {
      "name": "Box001_1_8_normals",
      "componentType": 5126,
      "count": 22,
      "min": [
        -1,
        -1,
        0
      ],
      "max": [
        1,
        0,
        0
      ],
      "type": "VEC3",
      "bufferView": 1,
      "byteOffset": 51024
    },
    {
      "name": "Box001_1_8_texcoords",
      "componentType": 5126,
      "count": 22,
      "min": [
        0,
        0
      ],
      "max": [
        1,
        1
      ],
      "type": "VEC2",
      "bufferView": 2,
      "byteOffset": 34016
    },
    {
      "name": "Box001_1_8_indices",
      "componentType": 5123,
      "count": 36,
      "min": [
        0
      ],
      "max": [
        21
      ],
      "type": "SCALAR",
      "bufferView": 3,
      "byteOffset": 15224
    },
    {
      "name": "Box001_1_9_positions",
      "componentType": 5126,
      "count": 28,
      "min": [
        36.078399658203125,
        -22.405099868774414,
        0
      ],
      "max": [
        56.80780029296875,
        -17.702699661254883,
        5.024799823760986
      ],
      "type": "VEC3",
      "bufferView": 0,
      "byteOffset": 51288
    },
    {
      "name": "Box001_1_9_normals",
      "componentType": 5126,
      "count": 28,
      "min": [
        0,
        -0.0010999379446730018,
        0.6551779508590698
      ],
      "max": [
        0.7554745674133301,
        0,
        1
      ],
      "type": "VEC3",
      "bufferView": 1,
      "byteOffset": 51288
    },
    {
      "name": "Box001_1_9_texcoords",
      "componentType": 5126,
      "count": 28,
      "min": [
        0.2493000030517578,
        0.15469999611377716
      ],
      "max": [
        0.9423999786376953,
        1.1749999523162842
      ],
      "type": "VEC2",
      "bufferView": 2,
      "byteOffset": 34192
    },
    {
      "name": "Box001_1_9_indices",
      "componentType": 5123,
      "count": 42,
      "min": [
        0
      ],
      "max": [
        27
      ],
      "type": "SCALAR",
      "bufferView": 3,
      "byteOffset": 15296
    },
    {
      "name": "Box001_1_10_positions",
      "componentType": 5126,
      "count": 574,
      "min": [
        -56.80780029296875,
        -43.88600158691406,
        0
      ],
      "max": [
        56.80780029296875,
        43.432098388671875,
        39.2041015625
      ],
      "type": "VEC3",
      "bufferView": 0,
      "byteOffset": 51624
    },
    {
      "name": "Box001_1_10_normals",
      "componentType": 5126,
      "count": 574,
      "min": [
        -1,
        -1,
        -1
      ],
      "max": [
        1,
        1,
        1
      ],
      "type": "VEC3",
      "bufferView": 1,
      "byteOffset": 51624
    },
    {
      "name": "Box001_1_10_texcoords",
      "componentType": 5126,
      "count": 574,
      "min": [
        -0.9175999760627747,
        -1.0740000009536743
      ],
      "max": [
        2.8687000274658203,
        2.8687000274658203
      ],
      "type": "VEC2",
      "bufferView": 2,
      "byteOffset": 34416
    },
    {
      "name": "Box001_1_10_indices",
      "componentType": 5123,
      "count": 1080,
      "min": [
        0
      ],
      "max": [
        573
      ],
      "type": "SCALAR",
      "bufferView": 3,
      "byteOffset": 15380
    },
    {
      "name": "Box001_1_11_positions",
      "componentType": 5126,
      "count": 16,
      "min": [
        -51.9286003112793,
        -23.966999053955078,
        0
      ],
      "max": [
        48.94029998779297,
        -11.540399551391602,
        4.0696001052856445
      ],
      "type": "VEC3",
      "bufferView": 0,
      "byteOffset": 58512
    },
    {
      "name": "Box001_1_11_normals",
      "componentType": 5126,
      "count": 16,
      "min": [
        -1,
        -1,
        0
      ],
      "max": [
        1,
        0,
        0
      ],
      "type": "VEC3",
      "bufferView": 1,
      "byteOffset": 58512
    },
    {
      "name": "Box001_1_11_texcoords",
      "componentType": 5126,
      "count": 16,
      "min": [
        0,
        -6.642099857330322
      ],
      "max": [
        1,
        6.25
      ],
      "type": "VEC2",
      "bufferView": 2,
      "byteOffset": 39008
    },
    {
      "name": "Box001_1_11_indices",
      "componentType": 5123,
      "count": 24,
      "min": [
        0
      ],
      "max": [
        15
      ],
      "type": "SCALAR",
      "bufferView": 3,
      "byteOffset": 17540
    },
    {
      "name": "Box001_1_12_positions",
      "componentType": 5126,
      "count": 161,
      "min": [
        -41.594600677490234,
        -38.60240173339844,
        0
      ],
      "max": [
        -17.116300582885742,
        -11.194899559020996,
        6.395999908447266
      ],
      "type": "VEC3",
      "bufferView": 0,
      "byteOffset": 58704
    },
    {
      "name": "Box001_1_12_normals",
      "componentType": 5126,
      "count": 161,
      "min": [
        -0.9999999403953552,
        -1,
        0
      ],
      "max": [
        0.9999999403953552,
        1,
        1
      ],
      "type": "VEC3",
      "bufferView": 1,
      "byteOffset": 58704
    },
    {
      "name": "Box001_1_12_texcoords",
      "componentType": 5126,
      "count": 161,
      "min": [
        -1.8687000274658203,
        -1.722599983215332
      ],
      "max": [
        2.722599983215332,
        2.722599983215332
      ],
      "type": "VEC2",
      "bufferView": 2,
      "byteOffset": 39136
    },
    {
      "name": "Box001_1_12_indices",
      "componentType": 5123,
      "count": 258,
      "min": [
        0
      ],
      "max": [
        160
      ],
      "type": "SCALAR",
      "bufferView": 3,
      "byteOffset": 17588
    },
    {
      "name": "Box001_1_13_positions",
      "componentType": 5126,
      "count": 247,
      "min": [
        -56.80780029296875,
        -11.942700386047363,
        9.101300239562988
      ],
      "max": [
        -2.507499933242798,
        43.88600158691406,
        26.199199676513672
      ],
      "type": "VEC3",
      "bufferView": 0,
      "byteOffset": 60636
    },
    {
      "name": "Box001_1_13_normals",
      "componentType": 5126,
      "count": 247,
      "min": [
        -1,
        -1,
        -0.9475876688957214
      ],
      "max": [
        1,
        1,
        1
      ],
      "type": "VEC3",
      "bufferView": 1,
      "byteOffset": 60636
    },
    {
      "name": "Box001_1_13_texcoords",
      "componentType": 5126,
      "count": 247,
      "min": [
        -3.7871999740600586,
        0
      ],
      "max": [
        4.787099838256836,
        4.787199974060059
      ],
      "type": "VEC2",
      "bufferView": 2,
      "byteOffset": 40424
    },
    {
      "name": "Box001_1_13_indices",
      "componentType": 5123,
      "count": 360,
      "min": [
        0
      ],
      "max": [
        246
      ],
      "type": "SCALAR",
      "bufferView": 3,
      "byteOffset": 18104
    },
    {
      "name": "Box001_1_14_positions",
      "componentType": 5126,
      "count": 48,
      "min": [
        -56.07229995727539,
        -11.402899742126465,
        0
      ],
      "max": [
        -3.1424999237060547,
        5.318900108337402,
        13.483200073242188
      ],
      "type": "VEC3",
      "bufferView": 0,
      "byteOffset": 63600
    },
    {
      "name": "Box001_1_14_normals",
      "componentType": 5126,
      "count": 48,
      "min": [
        0,
        -1,
        0
      ],
      "max": [
        0,
        1,
        0
      ],
      "type": "VEC3",
      "bufferView": 1,
      "byteOffset": 63600
    },
    {
      "name": "Box001_1_14_texcoords",
      "componentType": 5126,
      "count": 48,
      "min": [
        -4.176599979400635,
        0.04619999974966049
      ],
      "max": [
        5.1834001541137695,
        1.8641999959945679
      ],
      "type": "VEC2",
      "bufferView": 2,
      "byteOffset": 42400
    },
    {
      "name": "Box001_1_14_indices",
      "componentType": 5123,
      "count": 72,
      "min": [
        0
      ],
      "max": [
        47
      ],
      "type": "SCALAR",
      "bufferView": 3,
      "byteOffset": 18824
    },
    {
      "name": "Box001_1_15_positions",
      "componentType": 5126,
      "count": 52,
      "min": [
        -56.07229995727539,
        -11.402899742126465,
        13.483200073242188
      ],
      "max": [
        -3.1424999237060547,
        5.318900108337402,
        25.201799392700195
      ],
      "type": "VEC3",
      "bufferView": 0,
      "byteOffset": 64176
    },
    {
      "name": "Box001_1_15_normals",
      "componentType": 5126,
      "count": 52,
      "min": [
        -1,
        -1,
        0
      ],
      "max": [
        1,
        1,
        0
      ],
      "type": "VEC3",
      "bufferView": 1,
      "byteOffset": 64176
    },
    {
      "name": "Box001_1_15_texcoords",
      "componentType": 5126,
      "count": 52,
      "min": [
        -1.9010000228881836,
        -0.326200008392334
      ],
      "max": [
        2.9010000228881836,
        0.8169999718666077
      ],
      "type": "VEC2",
      "bufferView": 2,
      "byteOffset": 42784
    },
    {
      "name": "Box001_1_15_indices",
      "componentType": 5123,
      "count": 72,
      "min": [
        0
      ],
      "max": [
        51
      ],
      "type": "SCALAR",
      "bufferView": 3,
      "byteOffset": 18968
    },
    {
      "name": "Box001_1_16_positions",
      "componentType": 5126,
      "count": 40,
      "min": [
        -56.07229995727539,
        -11.402899742126465,
        0
      ],
      "max": [
        -3.1424999237060547,
        5.318900108337402,
        13.483200073242188
      ],
      "type": "VEC3",
      "bufferView": 0,
      "byteOffset": 64800
    },
    {
      "name": "Box001_1_16_normals",
      "componentType": 5126,
      "count": 40,
      "min": [
        -1,
        0,
        0
      ],
      "max": [
        1,
        0,
        0
      ],
      "type": "VEC3",
      "bufferView": 1,
      "byteOffset": 64800
    },
    {
      "name": "Box001_1_16_texcoords",
      "componentType": 5126,
      "count": 40,
      "min": [
        -1.1611000299453735,
        0.0026000000070780516
      ],
      "max": [
        2.161099910736084,
        1.875100016593933
      ],
      "type": "VEC2",
      "bufferView": 2,
      "byteOffset": 43200
    },
    {
      "name": "Box001_1_16_indices",
      "componentType": 5123,
      "count": 72,
      "min": [
        0
      ],
      "max": [
        39
      ],
      "type": "SCALAR",
      "bufferView": 3,
      "byteOffset": 19112
    },
    {
      "name": "Box001_1_17_positions",
      "componentType": 5126,
      "count": 24,
      "min": [
        -56.07229995727539,
        -11.402899742126465,
        13.483200073242188
      ],
      "max": [
        -3.1424999237060547,
        5.318900108337402,
        18.30120086669922
      ],
      "type": "VEC3",
      "bufferView": 0,
      "byteOffset": 65280
    },
    {
      "name": "Box001_1_17_normals",
      "componentType": 5126,
      "count": 24,
      "min": [
        0,
        -1,
        0
      ],
      "max": [
        0,
        1,
        0
      ],
      "type": "VEC3",
      "bufferView": 1,
      "byteOffset": 65280
    },
    {
      "name": "Box001_1_17_texcoords",
      "componentType": 5126,
      "count": 24,
      "min": [
        -4.153600215911865,
        0.07569999992847443
      ],
      "max": [
        5.153600215911865,
        0.6729000210762024
      ],
      "type": "VEC2",
      "bufferView": 2,
      "byteOffset": 43520
    },
    {
      "name": "Box001_1_17_indices",
      "componentType": 5123,
      "count": 36,
      "min": [
        0
      ],
      "max": [
        23
      ],
      "type": "SCALAR",
      "bufferView": 3,
      "byteOffset": 19256
    },
    {
      "name": "Box001_1_18_positions",
      "componentType": 5126,
      "count": 34,
      "min": [
        -56.07229995727539,
        4.585100173950195,
        0
      ],
      "max": [
        -3.1424999237060547,
        5.318900108337402,
        6.315000057220459
      ],
      "type": "VEC3",
      "bufferView": 0,
      "byteOffset": 65568
    },
    {
      "name": "Box001_1_18_normals",
      "componentType": 5126,
      "count": 34,
      "min": [
        -0.9876785278320312,
        0.15649659931659698,
        -0.9778944849967957
      ],
      "max": [
        0.9876785278320312,
        1,
        0
      ],
      "type": "VEC3",
      "bufferView": 1,
      "byteOffset": 65568
    },
    {
      "name": "Box001_1_18_texcoords",
      "componentType": 5126,
      "count": 34,
      "min": [
        -2.138200044631958,
        0.15289999544620514
      ],
      "max": [
        3.464200019836426,
        0.847100019454956
      ],
      "type": "VEC2",
      "bufferView": 2,
      "byteOffset": 43712
    },
    {
      "name": "Box001_1_18_indices",
      "componentType": 5123,
      "count": 54,
      "min": [
        0
      ],
      "max": [
        33
      ],
      "type": "SCALAR",
      "bufferView": 3,
      "byteOffset": 19328
    },
    {
      "name": "Box001_1_19_positions",
      "componentType": 5126,
      "count": 109,
      "min": [
        -41.89649963378906,
        21.74449920654297,
        -0.00009999999747378752
      ],
      "max": [
        -10.068300247192383,
        43.422298431396484,
        12.235099792480469
      ],
      "type": "VEC3",
      "bufferView": 0,
      "byteOffset": 65976
    },
    {
      "name": "Box001_1_19_normals",
      "componentType": 5126,
      "count": 109,
      "min": [
        -1,
        -1,
        -1
      ],
      "max": [
        1,
        1,
        0
      ],
      "type": "VEC3",
      "bufferView": 1,
      "byteOffset": 65976
    },
    {
      "name": "Box001_1_19_texcoords",
      "componentType": 5126,
      "count": 109,
      "min": [
        -1.6754000186920166,
        -0.3564999997615814
      ],
      "max": [
        2.6754000186920166,
        1.1455999612808228
      ],
      "type": "VEC2",
      "bufferView": 2,
      "byteOffset": 43984
    },
    {
      "name": "Box001_1_19_indices",
      "componentType": 5123,
      "count": 180,
      "min": [
        0
      ],
      "max": [
        108
      ],
      "type": "SCALAR",
      "bufferView": 3,
      "byteOffset": 19436
    },
    {
      "name": "Box001_1_20_positions",
      "componentType": 5126,
      "count": 12,
      "min": [
        -41.89649963378906,
        21.74449920654297,
        -0.00009999999747378752
      ],
      "max": [
        -18.104900360107422,
        34.356998443603516,
        9.918899536132812
      ],
      "type": "VEC3",
      "bufferView": 0,
      "byteOffset": 67284
    },
    {
      "name": "Box001_1_20_normals",
      "componentType": 5126,
      "count": 12,
      "min": [
        -1,
        -0.36119604110717773,
        -0.9999102354049683
      ],
      "max": [
        0.00039999562432058156,
        0.36119604110717773,
        0
      ],
      "type": "VEC3",
      "bufferView": 1,
      "byteOffset": 67284
    },
    {
      "name": "Box001_1_20_texcoords",
      "componentType": 5126,
      "count": 12,
      "min": [
        -0.039400000125169754,
        -0.23499999940395355
      ],
      "max": [
        1.0002000331878662,
        1.0082999467849731
      ],
      "type": "VEC2",
      "bufferView": 2,
      "byteOffset": 44856
    },
    {
      "name": "Box001_1_20_indices",
      "componentType": 5123,
      "count": 24,
      "min": [
        0
      ],
      "max": [
        11
      ],
      "type": "SCALAR",
      "bufferView": 3,
      "byteOffset": 19796
    },
    {
      "name": "Box001_1_21_positions",
      "componentType": 5126,
      "count": 8,
      "min": [
        -41.28269958496094,
        34.27909851074219,
        0
      ],
      "max": [
        -41.28269958496094,
        43.432098388671875,
        10.91100025177002
      ],
      "type": "VEC3",
      "bufferView": 0,
      "byteOffset": 67428
    },
    {
      "name": "Box001_1_21_normals",
      "componentType": 5126,
      "count": 8,
      "min": [
        -1,
        0,
        0
      ],
      "max": [
        -1,
        0,
        0
      ],
      "type": "VEC3",
      "bufferView": 1,
      "byteOffset": 67428
    },
    {
      "name": "Box001_1_21_texcoords",
      "componentType": 5126,
      "count": 8,
      "min": [
        0,
        -0.007000000216066837
      ],
      "max": [
        1,
        0.995199978351593
      ],
      "type": "VEC2",
      "bufferView": 2,
      "byteOffset": 44952
    },
    {
      "name": "Box001_1_21_indices",
      "componentType": 5123,
      "count": 12,
      "min": [
        0
      ],
      "max": [
        7
      ],
      "type": "SCALAR",
      "bufferView": 3,
      "byteOffset": 19844
    },
    {
      "name": "Box001_1_22_positions",
      "componentType": 5126,
      "count": 395,
      "min": [
        -55.52130126953125,
        22.046600341796875,
        7.572400093078613
      ],
      "max": [
        -41.04710006713867,
        34.03850173950195,
        12.26669979095459
      ],
      "type": "VEC3",
      "bufferView": 0,
      "byteOffset": 67524
    },
    {
      "name": "Box001_1_22_normals",
      "componentType": 5126,
      "count": 395,
      "min": [
        -1,
        -1,
        -1
      ],
      "max": [
        0,
        1,
        1
      ],
      "type": "VEC3",
      "bufferView": 1,
      "byteOffset": 67524
    },
    {
      "name": "Box001_1_22_texcoords",
      "componentType": 5126,
      "count": 395,
      "min": [
        0,
        0
      ],
      "max": [
        1,
        1
      ],
      "type": "VEC2",
      "bufferView": 2,
      "byteOffset": 45016
    },
    {
      "name": "Box001_1_22_indices",
      "componentType": 5123,
      "count": 888,
      "min": [
        0
      ],
      "max": [
        394
      ],
      "type": "SCALAR",
      "bufferView": 3,
      "byteOffset": 19868
    },
    {
      "name": "Box001_1_23_positions",
      "componentType": 5126,
      "count": 4,
      "min": [
        48.177398681640625,
        -15.428999900817871,
        -0.022099999710917473
      ],
      "max": [
        48.177398681640625,
        -1.4601999521255493,
        4.00600004196167
      ],
      "type": "VEC3",
      "bufferView": 0,
      "byteOffset": 72264
    },
    {
      "name": "Box001_1_23_normals",
      "componentType": 5126,
      "count": 4,
      "min": [
        1,
        0,
        0
      ],
      "max": [
        1,
        0,
        0
      ],
      "type": "VEC3",
      "bufferView": 1,
      "byteOffset": 72264
    },
    {
      "name": "Box001_1_23_texcoords",
      "componentType": 5126,
      "count": 4,
      "min": [
        0,
        0
      ],
      "max": [
        1,
        1
      ],
      "type": "VEC2",
      "bufferView": 2,
      "byteOffset": 48176
    },
    {
      "name": "Box001_1_23_indices",
      "componentType": 5123,
      "count": 6,
      "min": [
        0
      ],
      "max": [
        3
      ],
      "type": "SCALAR",
      "bufferView": 3,
      "byteOffset": 21644
    },
    {
      "name": "Box001_1_24_positions",
      "componentType": 5126,
      "count": 4,
      "min": [
        -18.2898006439209,
        33.52429962158203,
        -0.00009999999747378752
      ],
      "max": [
        -13.948200225830078,
        33.52429962158203,
        6.681300163269043
      ],
      "type": "VEC3",
      "bufferView": 0,
      "byteOffset": 72312
    },
    {
      "name": "Box001_1_24_normals",
      "componentType": 5126,
      "count": 4,
      "min": [
        0,
        1,
        0
      ],
      "max": [
        0,
        1,
        0
      ],
      "type": "VEC3",
      "bufferView": 1,
      "byteOffset": 72312
    },
    {
      "name": "Box001_1_24_texcoords",
      "componentType": 5126,
      "count": 4,
      "min": [
        0,
        0
      ],
      "max": [
        1,
        1
      ],
      "type": "VEC2",
      "bufferView": 2,
      "byteOffset": 48208
    },
    {
      "name": "Box001_1_24_indices",
      "componentType": 5123,
      "count": 6,
      "min": [
        0
      ],
      "max": [
        3
      ],
      "type": "SCALAR",
      "bufferView": 3,
      "byteOffset": 21656
    },
    {
      "name": "Box001_1_25_positions",
      "componentType": 5126,
      "count": 4,
      "min": [
        -52.72489929199219,
        4.59499979019165,
        -0.017899999395012856
      ],
      "max": [
        -49.224300384521484,
        4.59499979019165,
        4.622200012207031
      ],
      "type": "VEC3",
      "bufferView": 0,
      "byteOffset": 72360
    },
    {
      "name": "Box001_1_25_normals",
      "componentType": 5126,
      "count": 4,
      "min": [
        0,
        1,
        0
      ],
      "max": [
        0,
        1,
        0
      ],
      "type": "VEC3",
      "bufferView": 1,
      "byteOffset": 72360
    },
    {
      "name": "Box001_1_25_texcoords",
      "componentType": 5126,
      "count": 4,
      "min": [
        0.0035000001080334187,
        0.004999999888241291
      ],
      "max": [
        2.0230000019073486,
        0.9950000047683716
      ],
      "type": "VEC2",
      "bufferView": 2,
      "byteOffset": 48240
    },
    {
      "name": "Box001_1_25_indices",
      "componentType": 5123,
      "count": 6,
      "min": [
        0
      ],
      "max": [
        3
      ],
      "type": "SCALAR",
      "bufferView": 3,
      "byteOffset": 21668
    },
    {
      "name": "Box001_1_26_positions",
      "componentType": 5126,
      "count": 4,
      "min": [
        37.316898345947266,
        -22.24250030517578,
        2.7630999088287354
      ],
      "max": [
        39.379398345947266,
        -22.24250030517578,
        3.6208999156951904
      ],
      "type": "VEC3",
      "bufferView": 0,
      "byteOffset": 72408
    },
    {
      "name": "Box001_1_26_normals",
      "componentType": 5126,
      "count": 4,
      "min": [
        0,
        -1,
        0
      ],
      "max": [
        0,
        -1,
        0
      ],
      "type": "VEC3",
      "bufferView": 1,
      "byteOffset": 72408
    },
    {
      "name": "Box001_1_26_texcoords",
      "componentType": 5126,
      "count": 4,
      "min": [
        0,
        0
      ],
      "max": [
        1,
        1
      ],
      "type": "VEC2",
      "bufferView": 2,
      "byteOffset": 48272
    },
    {
      "name": "Box001_1_26_indices",
      "componentType": 5123,
      "count": 6,
      "min": [
        0
      ],
      "max": [
        3
      ],
      "type": "SCALAR",
      "bufferView": 3,
      "byteOffset": 21680
    },
    {
      "name": "Box001_1_27_positions",
      "componentType": 5126,
      "count": 4,
      "min": [
        40.4817008972168,
        -22.24250030517578,
        2.7630999088287354
      ],
      "max": [
        42.5443000793457,
        -22.24250030517578,
        3.6208999156951904
      ],
      "type": "VEC3",
      "bufferView": 0,
      "byteOffset": 72456
    },
    {
      "name": "Box001_1_27_normals",
      "componentType": 5126,
      "count": 4,
      "min": [
        0,
        -1,
        0
      ],
      "max": [
        0,
        -1,
        0
      ],
      "type": "VEC3",
      "bufferView": 1,
      "byteOffset": 72456
    },
    {
      "name": "Box001_1_27_texcoords",
      "componentType": 5126,
      "count": 4,
      "min": [
        0,
        0
      ],
      "max": [
        1,
        1
      ],
      "type": "VEC2",
      "bufferView": 2,
      "byteOffset": 48304
    },
    {
      "name": "Box001_1_27_indices",
      "componentType": 5123,
      "count": 6,
      "min": [
        0
      ],
      "max": [
        3
      ],
      "type": "SCALAR",
      "bufferView": 3,
      "byteOffset": 21692
    },
    {
      "name": "Box001_1_28_positions",
      "componentType": 5126,
      "count": 4,
      "min": [
        43.824798583984375,
        -22.24250030517578,
        2.7630999088287354
      ],
      "max": [
        45.88750076293945,
        -22.24250030517578,
        3.6208999156951904
      ],
      "type": "VEC3",
      "bufferView": 0,
      "byteOffset": 72504
    },
    {
      "name": "Box001_1_28_normals",
      "componentType": 5126,
      "count": 4,
      "min": [
        0,
        -1,
        0
      ],
      "max": [
        0,
        -1,
        0
      ],
      "type": "VEC3",
      "bufferView": 1,
      "byteOffset": 72504
    },
    {
      "name": "Box001_1_28_texcoords",
      "componentType": 5126,
      "count": 4,
      "min": [
        0,
        0
      ],
      "max": [
        1,
        1
      ],
      "type": "VEC2",
      "bufferView": 2,
      "byteOffset": 48336
    },
    {
      "name": "Box001_1_28_indices",
      "componentType": 5123,
      "count": 6,
      "min": [
        0
      ],
      "max": [
        3
      ],
      "type": "SCALAR",
      "bufferView": 3,
      "byteOffset": 21704
    }
  ],
  "asset": {
    "generator": "obj2gltf",
    "version": "2.0"
  },
  "buffers": [
    {
      "name": "Q10",
      "byteLength": 215188,
      "uri": "data:application/octet-stream;base64,"
    }
  ],
  "bufferViews": [
    {
      "name": "bufferView_0",
      "buffer": 0,
      "byteLength": 72552,
      "byteOffset": 0,
      "byteStride": 12,
      "target": 34962
    },
    {
      "name": "bufferView_1",
      "buffer": 0,
      "byteLength": 72552,
      "byteOffset": 72552,
      "byteStride": 12,
      "target": 34962
    },
    {
      "name": "bufferView_2",
      "buffer": 0,
      "byteLength": 48368,
      "byteOffset": 145104,
      "byteStride": 8,
      "target": 34962
    },
    {
      "name": "bufferView_3",
      "buffer": 0,
      "byteLength": 21716,
      "byteOffset": 193472,
      "target": 34963
    }
  ],
  "images": [
    {
      "name": "SGY_q1_089",
      "uri": "SGY_q1_089.jpg"
    },
    {
      "name": "SGY_q1_096",
      "uri": "SGY_q1_096.jpg"
    },
    {
      "name": "SGY_q1_104",
      "uri": "SGY_q1_104.jpg"
    },
    {
      "name": "sgy_2q_03",
      "uri": "sgy_2q_03.jpg"
    },
    {
      "name": "SGY_q1_094",
      "uri": "SGY_q1_094.jpg"
    },
    {
      "name": "SGY_q1_059",
      "uri": "SGY_q1_059.jpg"
    },
    {
      "name": "SGY_q1_078",
      "uri": "SGY_q1_078.jpg"
    },
    {
      "name": "SGY_Q1_004",
      "uri": "SGY_Q1_004.jpg"
    },
    {
      "name": "SGY_q1_090",
      "uri": "SGY_q1_090.jpg"
    },
    {
      "name": "SGY_Q1_032",
      "uri": "SGY_Q1_032.jpg"
    },
    {
      "name": "SGY_q1_103",
      "uri": "SGY_q1_103.jpg"
    },
    {
      "name": "SGY_Q1_003",
      "uri": "SGY_Q1_003.jpg"
    },
    {
      "name": "SGY_Q1_015",
      "uri": "SGY_Q1_015.jpg"
    },
    {
      "name": "SGY_q1_098",
      "uri": "SGY_q1_098.jpg"
    },
    {
      "name": "SGY_q1_100",
      "uri": "SGY_q1_100.jpg"
    },
    {
      "name": "SGY_q1_097",
      "uri": "SGY_q1_097.jpg"
    },
    {
      "name": "SGY_q1_101",
      "uri": "SGY_q1_101.jpg"
    },
    {
      "name": "SGY_q1_099",
      "uri": "SGY_q1_099.jpg"
    },
    {
      "name": "SGY_q1_081",
      "uri": "SGY_q1_081.jpg"
    },
    {
      "name": "SGY_q1_091",
      "uri": "SGY_q1_091.jpg"
    },
    {
      "name": "SGY_q1_093",
      "uri": "SGY_q1_093.jpg"
    },
    {
      "name": "SGY_q1_092",
      "uri": "SGY_q1_092.jpg"
    },
    {
      "name": "SGY_q1_108",
      "uri": "SGY_q1_108.jpg"
    },
    {
      "name": "SGY_q1_095",
      "uri": "SGY_q1_095.jpg"
    },
    {
      "name": "SGY_q1_102",
      "uri": "SGY_q1_102.jpg"
    },
    {
      "name": "SGY_q1_105",
      "uri": "SGY_q1_105.jpg"
    },
    {
      "name": "SGY_q1_106",
      "uri": "SGY_q1_106.jpg"
    },
    {
      "name": "SGY_q1_107",
      "uri": "SGY_q1_107.jpg"
    }
  ],
  "materials": [
    {
      "name": "Q10_Material__01",
      "pbrMetallicRoughness": {
        "baseColorTexture": {
          "index": 0
        },
        "baseColorFactor": [
          1,
          1,
          1,
          1
        ],
        "metallicFactor": 0,
        "roughnessFactor": 0.99
      },
      "emissiveFactor": [
        0,
        0,
        0
      ],
      "alphaMode": "OPAQUE",
      "doubleSided": false
    },
    {
      "name": "Q10_Material__422",
      "pbrMetallicRoughness": {
        "baseColorTexture": {
          "index": 1
        },
        "baseColorFactor": [
          1,
          1,
          1,
          1
        ],
        "metallicFactor": 0,
        "roughnessFactor": 0.99
      },
      "emissiveFactor": [
        0,
        0,
        0
      ],
      "alphaMode": "OPAQUE",
      "doubleSided": false
    },
    {
      "name": "Q10_Material__908",
      "pbrMetallicRoughness": {
        "baseColorTexture": {
          "index": 2
        },
        "baseColorFactor": [
          1,
          1,
          1,
          1
        ],
        "metallicFactor": 0,
        "roughnessFactor": 0.99
      },
      "emissiveFactor": [
        0,
        0,
        0
      ],
      "alphaMode": "OPAQUE",
      "doubleSided": false
    },
    {
      "name": "Q10_Material__1325",
      "pbrMetallicRoughness": {
        "baseColorTexture": {
          "index": 3
        },
        "baseColorFactor": [
          1,
          1,
          1,
          1
        ],
        "metallicFactor": 0,
        "roughnessFactor": 0.99
      },
      "emissiveFactor": [
        0,
        0,
        0
      ],
      "alphaMode": "OPAQUE",
      "doubleSided": false
    },
    {
      "name": "Q10_Material__294",
      "pbrMetallicRoughness": {
        "baseColorTexture": {
          "index": 4
        },
        "baseColorFactor": [
          1,
          1,
          1,
          1
        ],
        "metallicFactor": 0,
        "roughnessFactor": 0.99
      },
      "emissiveFactor": [
        0,
        0,
        0
      ],
      "alphaMode": "OPAQUE",
      "doubleSided": false
    },
    {
      "name": "Q10_Material__25",
      "pbrMetallicRoughness": {
        "baseColorTexture": {
          "index": 5
        },
        "baseColorFactor": [
          1,
          1,
          1,
          1
        ],
        "metallicFactor": 0,
        "roughnessFactor": 0.99
      },
      "emissiveFactor": [
        0,
        0,
        0
      ],
      "alphaMode": "OPAQUE",
      "doubleSided": false
    },
    {
      "name": "Q10_Material__387",
      "pbrMetallicRoughness": {
        "baseColorTexture": {
          "index": 6
        },
        "baseColorFactor": [
          1,
          1,
          1,
          1
        ],
        "metallicFactor": 0,
        "roughnessFactor": 0.99
      },
      "emissiveFactor": [
        0,
        0,
        0
      ],
      "alphaMode": "OPAQUE",
      "doubleSided": false
    },
    {
      "name": "Q10_Material__782",
      "pbrMetallicRoughness": {
        "baseColorTexture": {
          "index": 7
        },
        "baseColorFactor": [
          1,
          1,
          1,
          1
        ],
        "metallicFactor": 0,
        "roughnessFactor": 0.99
      },
      "emissiveFactor": [
        0,
        0,
        0
      ],
      "alphaMode": "OPAQUE",
      "doubleSided": false
    },
    {
      "name": "Q10_Material__48",
      "pbrMetallicRoughness": {
        "baseColorTexture": {
          "index": 8
        },
        "baseColorFactor": [
          1,
          1,
          1,
          1
        ],
        "metallicFactor": 0,
        "roughnessFactor": 0.99
      },
      "emissiveFactor": [
        0,
        0,
        0
      ],
      "alphaMode": "OPAQUE",
      "doubleSided": false
    },
    {
      "name": "Q10_Material__862",
      "pbrMetallicRoughness": {
        "baseColorTexture": {
          "index": 9
        },
        "baseColorFactor": [
          1,
          1,
          1,
          1
        ],
        "metallicFactor": 0,
        "roughnessFactor": 0.99
      },
      "emissiveFactor": [
        0,
        0,
        0
      ],
      "alphaMode": "OPAQUE",
      "doubleSided": false
    },
    {
      "name": "Q10_Material__0",
      "pbrMetallicRoughness": {
        "baseColorTexture": {
          "index": 0
        },
        "baseColorFactor": [
          1,
          1,
          1,
          1
        ],
        "metallicFactor": 0,
        "roughnessFactor": 0.99
      },
      "emissiveFactor": [
        0,
        0,
        0
      ],
      "alphaMode": "OPAQUE",
      "doubleSided": false
    },
    {
      "name": "Q10_Material__712",
      "pbrMetallicRoughness": {
        "baseColorTexture": {
          "index": 10
        },
        "baseColorFactor": [
          1,
          1,
          1,
          1
        ],
        "metallicFactor": 0,
        "roughnessFactor": 0.99
      },
      "emissiveFactor": [
        0,
        0,
        0
      ],
      "alphaMode": "OPAQUE",
      "doubleSided": false
    },
    {
      "name": "Q10_Material__724",
      "pbrMetallicRoughness": {
        "baseColorTexture": {
          "index": 11
        },
        "baseColorFactor": [
          1,
          1,
          1,
          1
        ],
        "metallicFactor": 0,
        "roughnessFactor": 0.99
      },
      "emissiveFactor": [
        0,
        0,
        0
      ],
      "alphaMode": "OPAQUE",
      "doubleSided": false
    },
    {
      "name": "Q10_Material__118",
      "pbrMetallicRoughness": {
        "baseColorTexture": {
          "index": 12
        },
        "baseColorFactor": [
          1,
          1,
          1,
          1
        ],
        "metallicFactor": 0,
        "roughnessFactor": 0.99
      },
      "emissiveFactor": [
        0,
        0,
        0
      ],
      "alphaMode": "OPAQUE",
      "doubleSided": false
    },
    {
      "name": "Q10_Material__525",
      "pbrMetallicRoughness": {
        "baseColorTexture": {
          "index": 13
        },
        "baseColorFactor": [
          1,
          1,
          1,
          1
        ],
        "metallicFactor": 0,
        "roughnessFactor": 0.99
      },
      "emissiveFactor": [
        0,
        0,
        0
      ],
      "alphaMode": "OPAQUE",
      "doubleSided": false
    },
    {
      "name": "Q10_Material__551",
      "pbrMetallicRoughness": {
        "baseColorTexture": {
          "index": 14
        },
        "baseColorFactor": [
          1,
          1,
          1,
          1
        ],
        "metallicFactor": 0,
        "roughnessFactor": 0.99
      },
      "emissiveFactor": [
        0,
        0,
        0
      ],
      "alphaMode": "OPAQUE",
      "doubleSided": false
    },
    {
      "name": "Q10_Material__502",
      "pbrMetallicRoughness": {
        "baseColorTexture": {
          "index": 15
        },
        "baseColorFactor": [
          1,
          1,
          1,
          1
        ],
        "metallicFactor": 0,
        "roughnessFactor": 0.99
      },
      "emissiveFactor": [
        0,
        0,
        0
      ],
      "alphaMode": "OPAQUE",
      "doubleSided": false
    },
    {
      "name": "Q10_Material__586",
      "pbrMetallicRoughness": {
        "baseColorTexture": {
          "index": 16
        },
        "baseColorFactor": [
          1,
          1,
          1,
          1
        ],
        "metallicFactor": 0,
        "roughnessFactor": 0.99
      },
      "emissiveFactor": [
        0,
        0,
        0
      ],
      "alphaMode": "OPAQUE",
      "doubleSided": false
    },
    {
      "name": "Q10_Material__538",
      "pbrMetallicRoughness": {
        "baseColorTexture": {
          "index": 17
        },
        "baseColorFactor": [
          1,
          1,
          1,
          1
        ],
        "metallicFactor": 0,
        "roughnessFactor": 0.99
      },
      "emissiveFactor": [
        0,
        0,
        0
      ],
      "alphaMode": "OPAQUE",
      "doubleSided": false
    },
    {
      "name": "Q10_Material__236",
      "pbrMetallicRoughness": {
        "baseColorTexture": {
          "index": 18
        },
        "baseColorFactor": [
          1,
          1,
          1,
          1
        ],
        "metallicFactor": 0,
        "roughnessFactor": 0.99
      },
      "emissiveFactor": [
        0,
        0,
        0
      ],
      "alphaMode": "OPAQUE",
      "doubleSided": false
    },
    {
      "name": "Q10_Material__60",
      "pbrMetallicRoughness": {
        "baseColorTexture": {
          "index": 19
        },
        "baseColorFactor": [
          1,
          1,
          1,
          1
        ],
        "metallicFactor": 0,
        "roughnessFactor": 0.99
      },
      "emissiveFactor": [
        0,
        0,
        0
      ],
      "alphaMode": "OPAQUE",
      "doubleSided": false
    },
    {
      "name": "Q10_Material__211",
      "pbrMetallicRoughness": {
        "baseColorTexture": {
          "index": 20
        },
        "baseColorFactor": [
          1,
          1,
          1,
          1
        ],
        "metallicFactor": 0,
        "roughnessFactor": 0.99
      },
      "emissiveFactor": [
        0,
        0,
        0
      ],
      "alphaMode": "OPAQUE",
      "doubleSided": false
    },
    {
      "name": "Q10_Material__131",
      "pbrMetallicRoughness": {
        "baseColorTexture": {
          "index": 21
        },
        "baseColorFactor": [
          1,
          1,
          1,
          1
        ],
        "metallicFactor": 0,
        "roughnessFactor": 0.99
      },
      "emissiveFactor": [
        0,
        0,
        0
      ],
      "alphaMode": "OPAQUE",
      "doubleSided": false
    },
    {
      "name": "Q10_Material__1371",
      "pbrMetallicRoughness": {
        "baseColorTexture": {
          "index": 22
        },
        "baseColorFactor": [
          1,
          1,
          1,
          1
        ],
        "metallicFactor": 0,
        "roughnessFactor": 0.99
      },
      "emissiveFactor": [
        0,
        0,
        0
      ],
      "alphaMode": "OPAQUE",
      "doubleSided": false
    },
    {
      "name": "Q10_Material__317",
      "pbrMetallicRoughness": {
        "baseColorTexture": {
          "index": 23
        },
        "baseColorFactor": [
          1,
          1,
          1,
          1
        ],
        "metallicFactor": 0,
        "roughnessFactor": 0.99
      },
      "emissiveFactor": [
        0,
        0,
        0
      ],
      "alphaMode": "OPAQUE",
      "doubleSided": false
    },
    {
      "name": "Q10_Material__689",
      "pbrMetallicRoughness": {
        "baseColorTexture": {
          "index": 24
        },
        "baseColorFactor": [
          1,
          1,
          1,
          1
        ],
        "metallicFactor": 0,
        "roughnessFactor": 0.99
      },
      "emissiveFactor": [
        0,
        0,
        0
      ],
      "alphaMode": "OPAQUE",
      "doubleSided": false
    },
    {
      "name": "Q10_Material__944",
      "pbrMetallicRoughness": {
        "baseColorTexture": {
          "index": 25
        },
        "baseColorFactor": [
          1,
          1,
          1,
          1
        ],
        "metallicFactor": 0,
        "roughnessFactor": 0.99
      },
      "emissiveFactor": [
        0,
        0,
        0
      ],
      "alphaMode": "OPAQUE",
      "doubleSided": false
    },
    {
      "name": "Q10_Material__956",
      "pbrMetallicRoughness": {
        "baseColorTexture": {
          "index": 26
        },
        "baseColorFactor": [
          1,
          1,
          1,
          1
        ],
        "metallicFactor": 0,
        "roughnessFactor": 0.99
      },
      "emissiveFactor": [
        0,
        0,
        0
      ],
      "alphaMode": "OPAQUE",
      "doubleSided": false
    },
    {
      "name": "Q10_Material__968",
      "pbrMetallicRoughness": {
        "baseColorTexture": {
          "index": 27
        },
        "baseColorFactor": [
          1,
          1,
          1,
          1
        ],
        "metallicFactor": 0,
        "roughnessFactor": 0.99
      },
      "emissiveFactor": [
        0,
        0,
        0
      ],
      "alphaMode": "OPAQUE",
      "doubleSided": false
    }
  ],
  "meshes": [
    {
      "name": "Box001_1",
      "primitives": [
        {
          "attributes": {
            "POSITION": 0,
            "NORMAL": 1,
            "TEXCOORD_0": 2
          },
          "indices": 3,
          "material": 0,
          "mode": 4
        },
        {
          "attributes": {
            "POSITION": 4,
            "NORMAL": 5,
            "TEXCOORD_0": 6
          },
          "indices": 7,
          "material": 1,
          "mode": 4
        },
        {
          "attributes": {
            "POSITION": 8,
            "NORMAL": 9,
            "TEXCOORD_0": 10
          },
          "indices": 11,
          "material": 2,
          "mode": 4
        },
        {
          "attributes": {
            "POSITION": 12,
            "NORMAL": 13,
            "TEXCOORD_0": 14
          },
          "indices": 15,
          "material": 3,
          "mode": 4
        },
        {
          "attributes": {
            "POSITION": 16,
            "NORMAL": 17,
            "TEXCOORD_0": 18
          },
          "indices": 19,
          "material": 4,
          "mode": 4
        },
        {
          "attributes": {
            "POSITION": 20,
            "NORMAL": 21,
            "TEXCOORD_0": 22
          },
          "indices": 23,
          "material": 5,
          "mode": 4
        },
        {
          "attributes": {
            "POSITION": 24,
            "NORMAL": 25,
            "TEXCOORD_0": 26
          },
          "indices": 27,
          "material": 6,
          "mode": 4
        },
        {
          "attributes": {
            "POSITION": 28,
            "NORMAL": 29,
            "TEXCOORD_0": 30
          },
          "indices": 31,
          "material": 7,
          "mode": 4
        },
        {
          "attributes": {
            "POSITION": 32,
            "NORMAL": 33,
            "TEXCOORD_0": 34
          },
          "indices": 35,
          "material": 8,
          "mode": 4
        },
        {
          "attributes": {
            "POSITION": 36,
            "NORMAL": 37,
            "TEXCOORD_0": 38
          },
          "indices": 39,
          "material": 9,
          "mode": 4
        },
        {
          "attributes": {
            "POSITION": 40,
            "NORMAL": 41,
            "TEXCOORD_0": 42
          },
          "indices": 43,
          "material": 10,
          "mode": 4
        },
        {
          "attributes": {
            "POSITION": 44,
            "NORMAL": 45,
            "TEXCOORD_0": 46
          },
          "indices": 47,
          "material": 11,
          "mode": 4
        },
        {
          "attributes": {
            "POSITION": 48,
            "NORMAL": 49,
            "TEXCOORD_0": 50
          },
          "indices": 51,
          "material": 12,
          "mode": 4
        },
        {
          "attributes": {
            "POSITION": 52,
            "NORMAL": 53,
            "TEXCOORD_0": 54
          },
          "indices": 55,
          "material": 13,
          "mode": 4
        },
        {
          "attributes": {
            "POSITION": 56,
            "NORMAL": 57,
            "TEXCOORD_0": 58
          },
          "indices": 59,
          "material": 14,
          "mode": 4
        },
        {
          "attributes": {
            "POSITION": 60,
            "NORMAL": 61,
            "TEXCOORD_0": 62
          },
          "indices": 63,
          "material": 15,
          "mode": 4
        },
        {
          "attributes": {
            "POSITION": 64,
            "NORMAL": 65,
            "TEXCOORD_0": 66
          },
          "indices": 67,
          "material": 16,
          "mode": 4
        },
        {
          "attributes": {
            "POSITION": 68,
            "NORMAL": 69,
            "TEXCOORD_0": 70
          },
          "indices": 71,
          "material": 17,
          "mode": 4
        },
        {
          "attributes": {
            "POSITION": 72,
            "NORMAL": 73,
            "TEXCOORD_0": 74
          },
          "indices": 75,
          "material": 18,
          "mode": 4
        },
        {
          "attributes": {
            "POSITION": 76,
            "NORMAL": 77,
            "TEXCOORD_0": 78
          },
          "indices": 79,
          "material": 19,
          "mode": 4
        },
        {
          "attributes": {
            "POSITION": 80,
            "NORMAL": 81,
            "TEXCOORD_0": 82
          },
          "indices": 83,
          "material": 20,
          "mode": 4
        },
        {
          "attributes": {
            "POSITION": 84,
            "NORMAL": 85,
            "TEXCOORD_0": 86
          },
          "indices": 87,
          "material": 21,
          "mode": 4
        },
        {
          "attributes": {
            "POSITION": 88,
            "NORMAL": 89,
            "TEXCOORD_0": 90
          },
          "indices": 91,
          "material": 22,
          "mode": 4
        },
        {
          "attributes": {
            "POSITION": 92,
            "NORMAL": 93,
            "TEXCOORD_0": 94
          },
          "indices": 95,
          "material": 23,
          "mode": 4
        },
        {
          "attributes": {
            "POSITION": 96,
            "NORMAL": 97,
            "TEXCOORD_0": 98
          },
          "indices": 99,
          "material": 24,
          "mode": 4
        },
        {
          "attributes": {
            "POSITION": 100,
            "NORMAL": 101,
            "TEXCOORD_0": 102
          },
          "indices": 103,
          "material": 25,
          "mode": 4
        },
        {
          "attributes": {
            "POSITION": 104,
            "NORMAL": 105,
            "TEXCOORD_0": 106
          },
          "indices": 107,
          "material": 26,
          "mode": 4
        },
        {
          "attributes": {
            "POSITION": 108,
            "NORMAL": 109,
            "TEXCOORD_0": 110
          },
          "indices": 111,
          "material": 27,
          "mode": 4
        },
        {
          "attributes": {
            "POSITION": 112,
            "NORMAL": 113,
            "TEXCOORD_0": 114
          },
          "indices": 115,
          "material": 28,
          "mode": 4
        }
      ]
    }
  ],
  "nodes": [
    {
      "name": "Box001",
      "mesh": 0
    }
  ],
  "samplers": [
    {
      "wrapS": 10497,
      "wrapT": 10497
    }
  ],
  "scene": 0,
  "scenes": [
    {
      "nodes": [
        0
      ]
    }
  ],
  "textures": [
    {
      "name": "SGY_q1_089",
      "sampler": 0,
      "source": 0
    },
    {
      "name": "SGY_q1_096",
      "sampler": 0,
      "source": 1
    },
    {
      "name": "SGY_q1_104",
      "sampler": 0,
      "source": 2
    },
    {
      "name": "sgy_2q_03",
      "sampler": 0,
      "source": 3
    },
    {
      "name": "SGY_q1_094",
      "sampler": 0,
      "source": 4
    },
    {
      "name": "SGY_q1_059",
      "sampler": 0,
      "source": 5
    },
    {
      "name": "SGY_q1_078",
      "sampler": 0,
      "source": 6
    },
    {
      "name": "SGY_Q1_004",
      "sampler": 0,
      "source": 7
    },
    {
      "name": "SGY_q1_090",
      "sampler": 0,
      "source": 8
    },
    {
      "name": "SGY_Q1_032",
      "sampler": 0,
      "source": 9
    },
    {
      "name": "SGY_q1_103",
      "sampler": 0,
      "source": 10
    },
    {
      "name": "SGY_Q1_003",
      "sampler": 0,
      "source": 11
    },
    {
      "name": "SGY_Q1_015",
      "sampler": 0,
      "source": 12
    },
    {
      "name": "SGY_q1_098",
      "sampler": 0,
      "source": 13
    },
    {
      "name": "SGY_q1_100",
      "sampler": 0,
      "source": 14
    },
    {
      "name": "SGY_q1_097",
      "sampler": 0,
      "source": 15
    },
    {
      "name": "SGY_q1_101",
      "sampler": 0,
      "source": 16
    },
    {
      "name": "SGY_q1_099",
      "sampler": 0,
      "source": 17
    },
    {
      "name": "SGY_q1_081",
      "sampler": 0,
      "source": 18
    },
    {
      "name": "SGY_q1_091",
      "sampler": 0,
      "source": 19
    },
    {
      "name": "SGY_q1_093",
      "sampler": 0,
      "source": 20
    },
    {
      "name": "SGY_q1_092",
      "sampler": 0,
      "source": 21
    },
    {
      "name": "SGY_q1_108",
      "sampler": 0,
      "source": 22
    },
    {
      "name": "SGY_q1_095",
      "sampler": 0,
      "source": 23
    },
    {
      "name": "SGY_q1_102",
      "sampler": 0,
      "source": 24
    },
    {
      "name": "SGY_q1_105",
      "sampler": 0,
      "source": 25
    },
    {
      "name": "SGY_q1_106",
      "sampler": 0,
      "source": 26
    },
    {
      "name": "SGY_q1_107",
      "sampler": 0,
      "source": 27
    }
  ]
}
