{
  "accessors": [
    {
      "name": "Box015_1_0_positions",
      "componentType": 5126,
      "count": 676,
      "min": [
        -50.97460174560547,
        -40.78889846801758,
        0
      ],
      "max": [
        50.200401306152344,
        41.629600524902344,
        42.84769821166992
      ],
      "type": "VEC3",
      "bufferView": 0,
      "byteOffset": 0
    },
    {
      "name": "Box015_1_0_normals",
      "componentType": 5126,
      "count": 676,
      "min": [
        -1,
        -1,
        0
      ],
      "max": [
        1,
        1,
        1
      ],
      "type": "VEC3",
      "bufferView": 1,
      "byteOffset": 0
    },
    {
      "name": "Box015_1_0_texcoords",
      "componentType": 5126,
      "count": 676,
      "min": [
        -2.878499984741211,
        -5.527400016784668
      ],
      "max": [
        3.878499984741211,
        4.021900177001953
      ],
      "type": "VEC2",
      "bufferView": 2,
      "byteOffset": 0
    },
    {
      "name": "Box015_1_0_indices",
      "componentType": 5123,
      "count": 1305,
      "min": [
        0
      ],
      "max": [
        675
      ],
      "type": "SCALAR",
      "bufferView": 3,
      "byteOffset": 0
    },
    {
      "name": "Box015_1_1_positions",
      "componentType": 5126,
      "count": 106,
      "min": [
        -46.695499420166016,
        -40.78889846801758,
        0
      ],
      "max": [
        50.150001525878906,
        31.678199768066406,
        40.96229934692383
      ],
      "type": "VEC3",
      "bufferView": 0,
      "byteOffset": 8112
    },
    {
      "name": "Box015_1_1_normals",
      "componentType": 5126,
      "count": 106,
      "min": [
        -1,
        -1,
        0
      ],
      "max": [
        1,
        1,
        0
      ],
      "type": "VEC3",
      "bufferView": 1,
      "byteOffset": 8112
    },
    {
      "name": "Box015_1_1_texcoords",
      "componentType": 5126,
      "count": 106,
      "min": [
        -2.0920000076293945,
        -3.8903000354766846
      ],
      "max": [
        2.7469000816345215,
        4.970900058746338
      ],
      "type": "VEC2",
      "bufferView": 2,
      "byteOffset": 5408
    },
    {
      "name": "Box015_1_1_indices",
      "componentType": 5123,
      "count": 168,
      "min": [
        0
      ],
      "max": [
        105
      ],
      "type": "SCALAR",
      "bufferView": 3,
      "byteOffset": 2612
    },
    {
      "name": "Box015_1_2_positions",
      "componentType": 5126,
      "count": 32,
      "min": [
        -50.97460174560547,
        -35.3931999206543,
        0
      ],
      "max": [
        50.200401306152344,
        39.35490036010742,
        42.46480178833008
      ],
      "type": "VEC3",
      "bufferView": 0,
      "byteOffset": 9384
    },
    {
      "name": "Box015_1_2_normals",
      "componentType": 5126,
      "count": 32,
      "min": [
        -1,
        0,
        0
      ],
      "max": [
        1,
        0,
        0
      ],
      "type": "VEC3",
      "bufferView": 1,
      "byteOffset": 9384
    },
    {
      "name": "Box015_1_2_texcoords",
      "componentType": 5126,
      "count": 32,
      "min": [
        -0.1632000058889389,
        -2.0845000743865967
      ],
      "max": [
        1.031599998474121,
        2.8708999156951904
      ],
      "type": "VEC2",
      "bufferView": 2,
      "byteOffset": 6256
    },
    {
      "name": "Box015_1_2_indices",
      "componentType": 5123,
      "count": 48,
      "min": [
        0
      ],
      "max": [
        31
      ],
      "type": "SCALAR",
      "bufferView": 3,
      "byteOffset": 2948
    },
    {
      "name": "Box015_1_3_positions",
      "componentType": 5126,
      "count": 25,
      "min": [
        -46.695499420166016,
        -39.29010009765625,
        0
      ],
      "max": [
        50.200401306152344,
        41.629600524902344,
        37.81119918823242
      ],
      "type": "VEC3",
      "bufferView": 0,
      "byteOffset": 9768
    },
    {
      "name": "Box015_1_3_normals",
      "componentType": 5126,
      "count": 25,
      "min": [
        -0.0008999996352940798,
        -1,
        0
      ],
      "max": [
        0,
        1,
        0
      ],
      "type": "VEC3",
      "bufferView": 1,
      "byteOffset": 9768
    },
    {
      "name": "Box015_1_3_texcoords",
      "componentType": 5126,
      "count": 25,
      "min": [
        -3.1280999183654785,
        -1.5566999912261963
      ],
      "max": [
        3.0002999305725098,
        2.8708999156951904
      ],
      "type": "VEC2",
      "bufferView": 2,
      "byteOffset": 6512
    },
    {
      "name": "Box015_1_3_indices",
      "componentType": 5123,
      "count": 39,
      "min": [
        0
      ],
      "max": [
        24
      ],
      "type": "SCALAR",
      "bufferView": 3,
      "byteOffset": 3044
    },
    {
      "name": "Box015_1_4_positions",
      "componentType": 5126,
      "count": 4,
      "min": [
        23.5039005279541,
        -38.88909912109375,
        0
      ],
      "max": [
        27.41360092163086,
        -38.88909912109375,
        34.315101623535156
      ],
      "type": "VEC3",
      "bufferView": 0,
      "byteOffset": 10068
    },
    {
      "name": "Box015_1_4_normals",
      "componentType": 5126,
      "count": 4,
      "min": [
        0,
        -1,
        0
      ],
      "max": [
        0,
        -1,
        0
      ],
      "type": "VEC3",
      "bufferView": 1,
      "byteOffset": 10068
    },
    {
      "name": "Box015_1_4_texcoords",
      "componentType": 5126,
      "count": 4,
      "min": [
        -0.05420000106096268,
        -3.1098999977111816
      ],
      "max": [
        1.0542000532150269,
        4.0345001220703125
      ],
      "type": "VEC2",
      "bufferView": 2,
      "byteOffset": 6712
    },
    {
      "name": "Box015_1_4_indices",
      "componentType": 5123,
      "count": 6,
      "min": [
        0
      ],
      "max": [
        3
      ],
      "type": "SCALAR",
      "bufferView": 3,
      "byteOffset": 3124
    },
    {
      "name": "Box015_1_5_positions",
      "componentType": 5126,
      "count": 8,
      "min": [
        -7.819300174713135,
        -38.88909912109375,
        0
      ],
      "max": [
        0.3885999917984009,
        -28.190200805664062,
        34.315101623535156
      ],
      "type": "VEC3",
      "bufferView": 0,
      "byteOffset": 10116
    },
    {
      "name": "Box015_1_5_normals",
      "componentType": 5126,
      "count": 8,
      "min": [
        -1,
        -1,
        0
      ],
      "max": [
        0,
        0,
        0
      ],
      "type": "VEC3",
      "bufferView": 1,
      "byteOffset": 10116
    },
    {
      "name": "Box015_1_5_texcoords",
      "componentType": 5126,
      "count": 8,
      "min": [
        -3.439500093460083,
        -4.893899917602539
      ],
      "max": [
        0.9954000115394592,
        4.01200008392334
      ],
      "type": "VEC2",
      "bufferView": 2,
      "byteOffset": 6744
    },
    {
      "name": "Box015_1_5_indices",
      "componentType": 5123,
      "count": 12,
      "min": [
        0
      ],
      "max": [
        7
      ],
      "type": "SCALAR",
      "bufferView": 3,
      "byteOffset": 3136
    },
    {
      "name": "Box015_1_6_positions",
      "componentType": 5126,
      "count": 22,
      "min": [
        38.596500396728516,
        -41.629600524902344,
        0
      ],
      "max": [
        50.97460174560547,
        -32.20370101928711,
        34.315101623535156
      ],
      "type": "VEC3",
      "bufferView": 0,
      "byteOffset": 10212
    },
    {
      "name": "Box015_1_6_normals",
      "componentType": 5126,
      "count": 22,
      "min": [
        -1,
        -1,
        0
      ],
      "max": [
        1,
        1,
        1
      ],
      "type": "VEC3",
      "bufferView": 1,
      "byteOffset": 10212
    },
    {
      "name": "Box015_1_6_texcoords",
      "componentType": 5126,
      "count": 22,
      "min": [
        -0.4140999913215637,
        -2.005000114440918
      ],
      "max": [
        1,
        3.005000114440918
      ],
      "type": "VEC2",
      "bufferView": 2,
      "byteOffset": 6808
    },
    {
      "name": "Box015_1_6_indices",
      "componentType": 5123,
      "count": 36,
      "min": [
        0
      ],
      "max": [
        21
      ],
      "type": "SCALAR",
      "bufferView": 3,
      "byteOffset": 3160
    },
    {
      "name": "Box015_1_7_positions",
      "componentType": 5126,
      "count": 4,
      "min": [
        38.4468994140625,
        35.882598876953125,
        15.47029972076416
      ],
      "max": [
        38.4468994140625,
        39.25510025024414,
        41.50170135498047
      ],
      "type": "VEC3",
      "bufferView": 0,
      "byteOffset": 10476
    },
    {
      "name": "Box015_1_7_normals",
      "componentType": 5126,
      "count": 4,
      "min": [
        1,
        0,
        0
      ],
      "max": [
        1,
        0,
        0
      ],
      "type": "VEC3",
      "bufferView": 1,
      "byteOffset": 10476
    },
    {
      "name": "Box015_1_7_texcoords",
      "componentType": 5126,
      "count": 4,
      "min": [
        0,
        0
      ],
      "max": [
        1,
        1
      ],
      "type": "VEC2",
      "bufferView": 2,
      "byteOffset": 6984
    },
    {
      "name": "Box015_1_7_indices",
      "componentType": 5123,
      "count": 6,
      "min": [
        0
      ],
      "max": [
        3
      ],
      "type": "SCALAR",
      "bufferView": 3,
      "byteOffset": 3232
    },
    {
      "name": "Box015_1_8_positions",
      "componentType": 5126,
      "count": 18,
      "min": [
        5.231400012969971,
        27.558799743652344,
        39.96689987182617
      ],
      "max": [
        33.9452018737793,
        41.349098205566406,
        41.15760040283203
      ],
      "type": "VEC3",
      "bufferView": 0,
      "byteOffset": 10524
    },
    {
      "name": "Box015_1_8_normals",
      "componentType": 5126,
      "count": 18,
      "min": [
        -1,
        -1,
        0
      ],
      "max": [
        1,
        1,
        0
      ],
      "type": "VEC3",
      "bufferView": 1,
      "byteOffset": 10524
    },
    {
      "name": "Box015_1_8_texcoords",
      "componentType": 5126,
      "count": 18,
      "min": [
        -10.14330005645752,
        0
      ],
      "max": [
        11.14330005645752,
        1
      ],
      "type": "VEC2",
      "bufferView": 2,
      "byteOffset": 7016
    },
    {
      "name": "Box015_1_8_indices",
      "componentType": 5123,
      "count": 30,
      "min": [
        0
      ],
      "max": [
        17
      ],
      "type": "SCALAR",
      "bufferView": 3,
      "byteOffset": 3244
    },
    {
      "name": "Box015_1_9_positions",
      "componentType": 5126,
      "count": 4,
      "min": [
        8.6427001953125,
        41.48939895629883,
        39.7234992980957
      ],
      "max": [
        28.770599365234375,
        41.48939895629883,
        43.077701568603516
      ],
      "type": "VEC3",
      "bufferView": 0,
      "byteOffset": 10740
    },
    {
      "name": "Box015_1_9_normals",
      "componentType": 5126,
      "count": 4,
      "min": [
        0,
        1,
        0
      ],
      "max": [
        0,
        1,
        0
      ],
      "type": "VEC3",
      "bufferView": 1,
      "byteOffset": 10740
    },
    {
      "name": "Box015_1_9_texcoords",
      "componentType": 5126,
      "count": 4,
      "min": [
        0,
        0
      ],
      "max": [
        1,
        1
      ],
      "type": "VEC2",
      "bufferView": 2,
      "byteOffset": 7160
    },
    {
      "name": "Box015_1_9_indices",
      "componentType": 5123,
      "count": 6,
      "min": [
        0
      ],
      "max": [
        3
      ],
      "type": "SCALAR",
      "bufferView": 3,
      "byteOffset": 3304
    }
  ],
  "asset": {
    "generator": "obj2gltf",
    "version": "2.0"
  },
  "buffers": [
    {
      "name": "3_jz12",
      "byteLength": 32084,
      "uri": "data:application/octet-stream;base64,"
    }
  ],
  "bufferViews": [
    {
      "name": "bufferView_0",
      "buffer": 0,
      "byteLength": 10788,
      "byteOffset": 0,
      "byteStride": 12,
      "target": 34962
    },
    {
      "name": "bufferView_1",
      "buffer": 0,
      "byteLength": 10788,
      "byteOffset": 10788,
      "byteStride": 12,
      "target": 34962
    },
    {
      "name": "bufferView_2",
      "buffer": 0,
      "byteLength": 7192,
      "byteOffset": 21576,
      "byteStride": 8,
      "target": 34962
    },
    {
      "name": "bufferView_3",
      "buffer": 0,
      "byteLength": 3316,
      "byteOffset": 28768,
      "target": 34963
    }
  ],
  "images": [
    {
      "name": "sgy_3q_19",
      "uri": "sgy_3q_19.jpg"
    },
    {
      "name": "sgy_3q_20",
      "uri": "sgy_3q_20.jpg"
    },
    {
      "name": "sgy_3q_18",
      "uri": "sgy_3q_18.jpg"
    },
    {
      "name": "sgy_3q_17",
      "uri": "sgy_3q_17.jpg"
    },
    {
      "name": "sgy_2q_31",
      "uri": "sgy_2q_31.jpg"
    },
    {
      "name": "sgy_3q_21",
      "uri": "sgy_3q_21.jpg"
    },
    {
      "name": "sgy_2q_35",
      "uri": "sgy_2q_35.jpg"
    },
    {
      "name": "sgy_3q_22",
      "uri": "sgy_3q_22.png"
    },
    {
      "name": "sgy_3q_24",
      "uri": "sgy_3q_24.png"
    },
    {
      "name": "sgy_3q_23",
      "uri": "sgy_3q_23.png"
    }
  ],
  "materials": [
    {
      "name": "Material__1915",
      "pbrMetallicRoughness": {
        "baseColorTexture": {
          "index": 0
        },
        "baseColorFactor": [
          1,
          1,
          1,
          1
        ],
        "metallicFactor": 0,
        "roughnessFactor": 0.99
      },
      "emissiveFactor": [
        0,
        0,
        0
      ],
      "alphaMode": "OPAQUE",
      "doubleSided": false
    },
    {
      "name": "Material__1996",
      "pbrMetallicRoughness": {
        "baseColorTexture": {
          "index": 1
        },
        "baseColorFactor": [
          1,
          1,
          1,
          1
        ],
        "metallicFactor": 0,
        "roughnessFactor": 0.99
      },
      "emissiveFactor": [
        0,
        0,
        0
      ],
      "alphaMode": "OPAQUE",
      "doubleSided": false
    },
    {
      "name": "Material__1868",
      "pbrMetallicRoughness": {
        "baseColorTexture": {
          "index": 2
        },
        "baseColorFactor": [
          1,
          1,
          1,
          1
        ],
        "metallicFactor": 0,
        "roughnessFactor": 0.99
      },
      "emissiveFactor": [
        0,
        0,
        0
      ],
      "alphaMode": "OPAQUE",
      "doubleSided": false
    },
    {
      "name": "Material__1844",
      "pbrMetallicRoughness": {
        "baseColorTexture": {
          "index": 3
        },
        "baseColorFactor": [
          1,
          1,
          1,
          1
        ],
        "metallicFactor": 0,
        "roughnessFactor": 0.99
      },
      "emissiveFactor": [
        0,
        0,
        0
      ],
      "alphaMode": "OPAQUE",
      "doubleSided": false
    },
    {
      "name": "Material__2044",
      "pbrMetallicRoughness": {
        "baseColorTexture": {
          "index": 4
        },
        "baseColorFactor": [
          1,
          1,
          1,
          1
        ],
        "metallicFactor": 0,
        "roughnessFactor": 0.99
      },
      "emissiveFactor": [
        0,
        0,
        0
      ],
      "alphaMode": "OPAQUE",
      "doubleSided": false
    },
    {
      "name": "Material__2031",
      "pbrMetallicRoughness": {
        "baseColorTexture": {
          "index": 5
        },
        "baseColorFactor": [
          1,
          1,
          1,
          1
        ],
        "metallicFactor": 0,
        "roughnessFactor": 0.99
      },
      "emissiveFactor": [
        0,
        0,
        0
      ],
      "alphaMode": "OPAQUE",
      "doubleSided": false
    },
    {
      "name": "Material__1961",
      "pbrMetallicRoughness": {
        "baseColorTexture": {
          "index": 6
        },
        "baseColorFactor": [
          1,
          1,
          1,
          1
        ],
        "metallicFactor": 0,
        "roughnessFactor": 0.99
      },
      "emissiveFactor": [
        0,
        0,
        0
      ],
      "alphaMode": "OPAQUE",
      "doubleSided": false
    },
    {
      "name": "Material__2500",
      "pbrMetallicRoughness": {
        "baseColorTexture": {
          "index": 7
        },
        "baseColorFactor": [
          1,
          1,
          1,
          1
        ],
        "metallicFactor": 0,
        "roughnessFactor": 0.99
      },
      "emissiveFactor": [
        0,
        0,
        0
      ],
      "alphaMode": "BLEND",
      "doubleSided": true
    },
    {
      "name": "Material__2526",
      "pbrMetallicRoughness": {
        "baseColorTexture": {
          "index": 8
        },
        "baseColorFactor": [
          1,
          1,
          1,
          1
        ],
        "metallicFactor": 0,
        "roughnessFactor": 0.99
      },
      "emissiveFactor": [
        0,
        0,
        0
      ],
      "alphaMode": "BLEND",
      "doubleSided": true
    },
    {
      "name": "Material__2513",
      "pbrMetallicRoughness": {
        "baseColorTexture": {
          "index": 9
        },
        "baseColorFactor": [
          1,
          1,
          1,
          1
        ],
        "metallicFactor": 0,
        "roughnessFactor": 0.99
      },
      "emissiveFactor": [
        0,
        0,
        0
      ],
      "alphaMode": "BLEND",
      "doubleSided": true
    }
  ],
  "meshes": [
    {
      "name": "Box015_1",
      "primitives": [
        {
          "attributes": {
            "POSITION": 0,
            "NORMAL": 1,
            "TEXCOORD_0": 2
          },
          "indices": 3,
          "material": 0,
          "mode": 4
        },
        {
          "attributes": {
            "POSITION": 4,
            "NORMAL": 5,
            "TEXCOORD_0": 6
          },
          "indices": 7,
          "material": 1,
          "mode": 4
        },
        {
          "attributes": {
            "POSITION": 8,
            "NORMAL": 9,
            "TEXCOORD_0": 10
          },
          "indices": 11,
          "material": 2,
          "mode": 4
        },
        {
          "attributes": {
            "POSITION": 12,
            "NORMAL": 13,
            "TEXCOORD_0": 14
          },
          "indices": 15,
          "material": 3,
          "mode": 4
        },
        {
          "attributes": {
            "POSITION": 16,
            "NORMAL": 17,
            "TEXCOORD_0": 18
          },
          "indices": 19,
          "material": 4,
          "mode": 4
        },
        {
          "attributes": {
            "POSITION": 20,
            "NORMAL": 21,
            "TEXCOORD_0": 22
          },
          "indices": 23,
          "material": 5,
          "mode": 4
        },
        {
          "attributes": {
            "POSITION": 24,
            "NORMAL": 25,
            "TEXCOORD_0": 26
          },
          "indices": 27,
          "material": 6,
          "mode": 4
        },
        {
          "attributes": {
            "POSITION": 28,
            "NORMAL": 29,
            "TEXCOORD_0": 30
          },
          "indices": 31,
          "material": 7,
          "mode": 4
        },
        {
          "attributes": {
            "POSITION": 32,
            "NORMAL": 33,
            "TEXCOORD_0": 34
          },
          "indices": 35,
          "material": 8,
          "mode": 4
        },
        {
          "attributes": {
            "POSITION": 36,
            "NORMAL": 37,
            "TEXCOORD_0": 38
          },
          "indices": 39,
          "material": 9,
          "mode": 4
        }
      ]
    }
  ],
  "nodes": [
    {
      "name": "Box015",
      "mesh": 0
    }
  ],
  "samplers": [
    {
      "wrapS": 10497,
      "wrapT": 10497
    }
  ],
  "scene": 0,
  "scenes": [
    {
      "nodes": [
        0
      ]
    }
  ],
  "textures": [
    {
      "name": "sgy_3q_19",
      "sampler": 0,
      "source": 0
    },
    {
      "name": "sgy_3q_20",
      "sampler": 0,
      "source": 1
    },
    {
      "name": "sgy_3q_18",
      "sampler": 0,
      "source": 2
    },
    {
      "name": "sgy_3q_17",
      "sampler": 0,
      "source": 3
    },
    {
      "name": "sgy_2q_31",
      "sampler": 0,
      "source": 4
    },
    {
      "name": "sgy_3q_21",
      "sampler": 0,
      "source": 5
    },
    {
      "name": "sgy_2q_35",
      "sampler": 0,
      "source": 6
    },
    {
      "name": "sgy_3q_22",
      "sampler": 0,
      "source": 7
    },
    {
      "name": "sgy_3q_24",
      "sampler": 0,
      "source": 8
    },
    {
      "name": "sgy_3q_23",
      "sampler": 0,
      "source": 9
    }
  ]
}
