{
  "accessors": [
    {
      "name": "polySurface96_1_0_positions",
      "componentType": 5126,
      "count": 808,
      "min": [
        -35.21139907836914,
        -16.438100814819336,
        0
      ],
      "max": [
        35.45399856567383,
        20.63050079345703,
        15.823699951171875
      ],
      "type": "VEC3",
      "bufferView": 0,
      "byteOffset": 0
    },
    {
      "name": "polySurface96_1_0_normals",
      "componentType": 5126,
      "count": 808,
      "min": [
        -1,
        -1,
        -1
      ],
      "max": [
        1,
        1,
        1
      ],
      "type": "VEC3",
      "bufferView": 1,
      "byteOffset": 0
    },
    {
      "name": "polySurface96_1_0_texcoords",
      "componentType": 5126,
      "count": 808,
      "min": [
        0.125,
        -0.7620000243186951
      ],
      "max": [
        2.388200044631958,
        1
      ],
      "type": "VEC2",
      "bufferView": 2,
      "byteOffset": 0
    },
    {
      "name": "polySurface96_1_0_indices",
      "componentType": 5123,
      "count": 1548,
      "min": [
        0
      ],
      "max": [
        807
      ],
      "type": "SCALAR",
      "bufferView": 3,
      "byteOffset": 0
    },
    {
      "name": "polySurface96_1_1_positions",
      "componentType": 5126,
      "count": 8,
      "min": [
        -22.82390022277832,
        -20.05419921875,
        4.749199867248535
      ],
      "max": [
        0.5972999930381775,
        -6.785900115966797,
        8.990500450134277
      ],
      "type": "VEC3",
      "bufferView": 0,
      "byteOffset": 9696
    },
    {
      "name": "polySurface96_1_1_normals",
      "componentType": 5126,
      "count": 8,
      "min": [
        0,
        -1,
        0
      ],
      "max": [
        1,
        0,
        0
      ],
      "type": "VEC3",
      "bufferView": 1,
      "byteOffset": 9696
    },
    {
      "name": "polySurface96_1_1_texcoords",
      "componentType": 5126,
      "count": 8,
      "min": [
        0.004999999888241291,
        0.19050000607967377
      ],
      "max": [
        0.9958999752998352,
        0.5982000231742859
      ],
      "type": "VEC2",
      "bufferView": 2,
      "byteOffset": 6464
    },
    {
      "name": "polySurface96_1_1_indices",
      "componentType": 5123,
      "count": 12,
      "min": [
        0
      ],
      "max": [
        7
      ],
      "type": "SCALAR",
      "bufferView": 3,
      "byteOffset": 3096
    },
    {
      "name": "polySurface96_1_2_positions",
      "componentType": 5126,
      "count": 255,
      "min": [
        -33.604000091552734,
        -19.13960075378418,
        0
      ],
      "max": [
        4.339200019836426,
        18.386600494384766,
        17.976200103759766
      ],
      "type": "VEC3",
      "bufferView": 0,
      "byteOffset": 9792
    },
    {
      "name": "polySurface96_1_2_normals",
      "componentType": 5126,
      "count": 255,
      "min": [
        -1,
        -1,
        0
      ],
      "max": [
        1,
        1,
        0.003499978454783559
      ],
      "type": "VEC3",
      "bufferView": 1,
      "byteOffset": 9792
    },
    {
      "name": "polySurface96_1_2_texcoords",
      "componentType": 5126,
      "count": 255,
      "min": [
        -2.7298998832702637,
        -5.836299896240234
      ],
      "max": [
        5.583600044250488,
        2.9858999252319336
      ],
      "type": "VEC2",
      "bufferView": 2,
      "byteOffset": 6528
    },
    {
      "name": "polySurface96_1_2_indices",
      "componentType": 5123,
      "count": 399,
      "min": [
        0
      ],
      "max": [
        254
      ],
      "type": "SCALAR",
      "bufferView": 3,
      "byteOffset": 3120
    },
    {
      "name": "polySurface96_1_3_positions",
      "componentType": 5126,
      "count": 8,
      "min": [
        5.5746002197265625,
        8.504199981689453,
        7.030600070953369
      ],
      "max": [
        35.09149932861328,
        14.387299537658691,
        9.67199993133545
      ],
      "type": "VEC3",
      "bufferView": 0,
      "byteOffset": 12852
    },
    {
      "name": "polySurface96_1_3_normals",
      "componentType": 5126,
      "count": 8,
      "min": [
        0,
        1,
        0
      ],
      "max": [
        0,
        1,
        0
      ],
      "type": "VEC3",
      "bufferView": 1,
      "byteOffset": 12852
    },
    {
      "name": "polySurface96_1_3_texcoords",
      "componentType": 5126,
      "count": 8,
      "min": [
        -3.836400032043457,
        0.00559999980032444
      ],
      "max": [
        4.836400032043457,
        1.011199951171875
      ],
      "type": "VEC2",
      "bufferView": 2,
      "byteOffset": 8568
    },
    {
      "name": "polySurface96_1_3_indices",
      "componentType": 5123,
      "count": 12,
      "min": [
        0
      ],
      "max": [
        7
      ],
      "type": "SCALAR",
      "bufferView": 3,
      "byteOffset": 3920
    },
    {
      "name": "polySurface96_1_4_positions",
      "componentType": 5126,
      "count": 25,
      "min": [
        -33.604000091552734,
        -18.599300384521484,
        4.295100212097168
      ],
      "max": [
        -6.03879976272583,
        -3.8993000984191895,
        15.456999778747559
      ],
      "type": "VEC3",
      "bufferView": 0,
      "byteOffset": 12948
    },
    {
      "name": "polySurface96_1_4_normals",
      "componentType": 5126,
      "count": 25,
      "min": [
        -1,
        -1,
        0
      ],
      "max": [
        0,
        0,
        0
      ],
      "type": "VEC3",
      "bufferView": 1,
      "byteOffset": 12948
    },
    {
      "name": "polySurface96_1_4_texcoords",
      "componentType": 5126,
      "count": 25,
      "min": [
        -2.0174999237060547,
        -0.0017999999690800905
      ],
      "max": [
        3.0315001010894775,
        5
      ],
      "type": "VEC2",
      "bufferView": 2,
      "byteOffset": 8632
    },
    {
      "name": "polySurface96_1_4_indices",
      "componentType": 5123,
      "count": 39,
      "min": [
        0
      ],
      "max": [
        24
      ],
      "type": "SCALAR",
      "bufferView": 3,
      "byteOffset": 3944
    },
    {
      "name": "polySurface96_1_5_positions",
      "componentType": 5126,
      "count": 244,
      "min": [
        -33.604000091552734,
        -19.138900756835938,
        0
      ],
      "max": [
        4.339200019836426,
        18.386600494384766,
        15.456999778747559
      ],
      "type": "VEC3",
      "bufferView": 0,
      "byteOffset": 13248
    },
    {
      "name": "polySurface96_1_5_normals",
      "componentType": 5126,
      "count": 244,
      "min": [
        -1,
        -1,
        -1
      ],
      "max": [
        1,
        1,
        0.003499978454783559
      ],
      "type": "VEC3",
      "bufferView": 1,
      "byteOffset": 13248
    },
    {
      "name": "polySurface96_1_5_texcoords",
      "componentType": 5126,
      "count": 244,
      "min": [
        -7.393799781799316,
        -5.791600227355957
      ],
      "max": [
        8.904000282287598,
        8.757599830627441
      ],
      "type": "VEC2",
      "bufferView": 2,
      "byteOffset": 8832
    },
    {
      "name": "polySurface96_1_5_indices",
      "componentType": 5123,
      "count": 414,
      "min": [
        0
      ],
      "max": [
        243
      ],
      "type": "SCALAR",
      "bufferView": 3,
      "byteOffset": 4024
    },
    {
      "name": "polySurface96_1_6_positions",
      "componentType": 5126,
      "count": 36,
      "min": [
        -31.44099998474121,
        -3.8993000984191895,
        0
      ],
      "max": [
        4.339200019836426,
        17.886600494384766,
        15.456999778747559
      ],
      "type": "VEC3",
      "bufferView": 0,
      "byteOffset": 16176
    },
    {
      "name": "polySurface96_1_6_normals",
      "componentType": 5126,
      "count": 36,
      "min": [
        -1,
        0,
        0
      ],
      "max": [
        1,
        1,
        0
      ],
      "type": "VEC3",
      "bufferView": 1,
      "byteOffset": 16176
    },
    {
      "name": "polySurface96_1_6_texcoords",
      "componentType": 5126,
      "count": 36,
      "min": [
        -4.004000186920166,
        -8.008299827575684
      ],
      "max": [
        7.9496002197265625,
        0.9154999852180481
      ],
      "type": "VEC2",
      "bufferView": 2,
      "byteOffset": 10784
    },
    {
      "name": "polySurface96_1_6_indices",
      "componentType": 5123,
      "count": 54,
      "min": [
        0
      ],
      "max": [
        35
      ],
      "type": "SCALAR",
      "bufferView": 3,
      "byteOffset": 4852
    },
    {
      "name": "polySurface96_1_7_positions",
      "componentType": 5126,
      "count": 4,
      "min": [
        0.5056999921798706,
        -19.138900756835938,
        1.3339999914169312
      ],
      "max": [
        0.5056999921798706,
        -13.883299827575684,
        3.515399932861328
      ],
      "type": "VEC3",
      "bufferView": 0,
      "byteOffset": 16608
    },
    {
      "name": "polySurface96_1_7_normals",
      "componentType": 5126,
      "count": 4,
      "min": [
        1,
        0,
        0
      ],
      "max": [
        1,
        0,
        0
      ],
      "type": "VEC3",
      "bufferView": 1,
      "byteOffset": 16608
    },
    {
      "name": "polySurface96_1_7_texcoords",
      "componentType": 5126,
      "count": 4,
      "min": [
        7.095200061798096,
        -1.9111000299453735
      ],
      "max": [
        8.888899803161621,
        -1.1136000156402588
      ],
      "type": "VEC2",
      "bufferView": 2,
      "byteOffset": 11072
    },
    {
      "name": "polySurface96_1_7_indices",
      "componentType": 5123,
      "count": 6,
      "min": [
        0
      ],
      "max": [
        3
      ],
      "type": "SCALAR",
      "bufferView": 3,
      "byteOffset": 4960
    },
    {
      "name": "polySurface96_1_8_positions",
      "componentType": 5126,
      "count": 7,
      "min": [
        -1.3801000118255615,
        -10.55459976196289,
        0.04170000180602074
      ],
      "max": [
        -1.3801000118255615,
        -4.457799911499023,
        6.7631001472473145
      ],
      "type": "VEC3",
      "bufferView": 0,
      "byteOffset": 16656
    },
    {
      "name": "polySurface96_1_8_normals",
      "componentType": 5126,
      "count": 7,
      "min": [
        1,
        0,
        0
      ],
      "max": [
        1,
        0,
        0
      ],
      "type": "VEC3",
      "bufferView": 1,
      "byteOffset": 16656
    },
    {
      "name": "polySurface96_1_8_texcoords",
      "componentType": 5126,
      "count": 7,
      "min": [
        2.0120999813079834,
        -2.011199951171875
      ],
      "max": [
        3.009999990463257,
        -0.978600025177002
      ],
      "type": "VEC2",
      "bufferView": 2,
      "byteOffset": 11104
    },
    {
      "name": "polySurface96_1_8_indices",
      "componentType": 5123,
      "count": 15,
      "min": [
        0
      ],
      "max": [
        6
      ],
      "type": "SCALAR",
      "bufferView": 3,
      "byteOffset": 4972
    },
    {
      "name": "polySurface96_1_9_positions",
      "componentType": 5126,
      "count": 88,
      "min": [
        -33.604000091552734,
        -19.138900756835938,
        0
      ],
      "max": [
        -6.03879976272583,
        -3.8993000984191895,
        4.295100212097168
      ],
      "type": "VEC3",
      "bufferView": 0,
      "byteOffset": 16740
    },
    {
      "name": "polySurface96_1_9_normals",
      "componentType": 5126,
      "count": 88,
      "min": [
        -1,
        -1,
        0
      ],
      "max": [
        1,
        0.0032999820541590452,
        0
      ],
      "type": "VEC3",
      "bufferView": 1,
      "byteOffset": 16740
    },
    {
      "name": "polySurface96_1_9_texcoords",
      "componentType": 5126,
      "count": 88,
      "min": [
        -2.500499963760376,
        0.9937000274658203
      ],
      "max": [
        2.595900058746338,
        5.997499942779541
      ],
      "type": "VEC2",
      "bufferView": 2,
      "byteOffset": 11160
    },
    {
      "name": "polySurface96_1_9_indices",
      "componentType": 5123,
      "count": 132,
      "min": [
        0
      ],
      "max": [
        87
      ],
      "type": "SCALAR",
      "bufferView": 3,
      "byteOffset": 5004
    },
    {
      "name": "polySurface96_1_10_positions",
      "componentType": 5126,
      "count": 4,
      "min": [
        -1.3801000118255615,
        -13.883299827575684,
        0.04170000180602074
      ],
      "max": [
        -1.3801000118255615,
        -11.421299934387207,
        4.678999900817871
      ],
      "type": "VEC3",
      "bufferView": 0,
      "byteOffset": 17796
    },
    {
      "name": "polySurface96_1_10_normals",
      "componentType": 5126,
      "count": 4,
      "min": [
        1,
        0,
        0
      ],
      "max": [
        1,
        0,
        0
      ],
      "type": "VEC3",
      "bufferView": 1,
      "byteOffset": 17796
    },
    {
      "name": "polySurface96_1_10_texcoords",
      "componentType": 5126,
      "count": 4,
      "min": [
        0.1906999945640564,
        -1.8759000301361084
      ],
      "max": [
        0.838699996471405,
        -1.0044000148773193
      ],
      "type": "VEC2",
      "bufferView": 2,
      "byteOffset": 11864
    },
    {
      "name": "polySurface96_1_10_indices",
      "componentType": 5123,
      "count": 6,
      "min": [
        0
      ],
      "max": [
        3
      ],
      "type": "SCALAR",
      "bufferView": 3,
      "byteOffset": 5268
    },
    {
      "name": "polySurface96_1_11_positions",
      "componentType": 5126,
      "count": 4,
      "min": [
        0.5056999921798706,
        -19.138900756835938,
        8.991600036621094
      ],
      "max": [
        0.5056999921798706,
        -3.8993000984191895,
        12.365599632263184
      ],
      "type": "VEC3",
      "bufferView": 0,
      "byteOffset": 17844
    },
    {
      "name": "polySurface96_1_11_normals",
      "componentType": 5126,
      "count": 4,
      "min": [
        1,
        0,
        0
      ],
      "max": [
        1,
        0,
        0
      ],
      "type": "VEC3",
      "bufferView": 1,
      "byteOffset": 17844
    },
    {
      "name": "polySurface96_1_11_texcoords",
      "componentType": 5126,
      "count": 4,
      "min": [
        -2.144700050354004,
        -4.262400150299072
      ],
      "max": [
        3.144700050354004,
        -2.9488000869750977
      ],
      "type": "VEC2",
      "bufferView": 2,
      "byteOffset": 11896
    },
    {
      "name": "polySurface96_1_11_indices",
      "componentType": 5123,
      "count": 6,
      "min": [
        0
      ],
      "max": [
        3
      ],
      "type": "SCALAR",
      "bufferView": 3,
      "byteOffset": 5280
    },
    {
      "name": "polySurface96_1_12_positions",
      "componentType": 5126,
      "count": 4,
      "min": [
        5.5746002197265625,
        5.687600135803223,
        15.615599632263184
      ],
      "max": [
        35.09149932861328,
        17.373899459838867,
        15.615599632263184
      ],
      "type": "VEC3",
      "bufferView": 0,
      "byteOffset": 17892
    },
    {
      "name": "polySurface96_1_12_normals",
      "componentType": 5126,
      "count": 4,
      "min": [
        0,
        0,
        1
      ],
      "max": [
        0,
        0,
        1
      ],
      "type": "VEC3",
      "bufferView": 1,
      "byteOffset": 17892
    },
    {
      "name": "polySurface96_1_12_texcoords",
      "componentType": 5126,
      "count": 4,
      "min": [
        2.4177000522613525,
        -2.1909000873565674
      ],
      "max": [
        5.027100086212158,
        3.4409000873565674
      ],
      "type": "VEC2",
      "bufferView": 2,
      "byteOffset": 11928
    },
    {
      "name": "polySurface96_1_12_indices",
      "componentType": 5123,
      "count": 6,
      "min": [
        0
      ],
      "max": [
        3
      ],
      "type": "SCALAR",
      "bufferView": 3,
      "byteOffset": 5292
    },
    {
      "name": "polySurface96_1_13_positions",
      "componentType": 5126,
      "count": 4,
      "min": [
        -22.604000091552734,
        7.157899856567383,
        7.695499897003174
      ],
      "max": [
        -22.604000091552734,
        8.780599594116211,
        14.900300025939941
      ],
      "type": "VEC3",
      "bufferView": 0,
      "byteOffset": 17940
    },
    {
      "name": "polySurface96_1_13_normals",
      "componentType": 5126,
      "count": 4,
      "min": [
        -1,
        0,
        0
      ],
      "max": [
        -1,
        0,
        0
      ],
      "type": "VEC3",
      "bufferView": 1,
      "byteOffset": 17940
    },
    {
      "name": "polySurface96_1_13_texcoords",
      "componentType": 5126,
      "count": 4,
      "min": [
        0.013399999588727951,
        -0.01940000057220459
      ],
      "max": [
        0.9883000254631042,
        0.960099995136261
      ],
      "type": "VEC2",
      "bufferView": 2,
      "byteOffset": 11960
    },
    {
      "name": "polySurface96_1_13_indices",
      "componentType": 5123,
      "count": 6,
      "min": [
        0
      ],
      "max": [
        3
      ],
      "type": "SCALAR",
      "bufferView": 3,
      "byteOffset": 5304
    },
    {
      "name": "polySurface96_1_14_positions",
      "componentType": 5126,
      "count": 104,
      "min": [
        -34.03810119628906,
        -19.553699493408203,
        12.086799621582031
      ],
      "max": [
        4.897500038146973,
        18.508499145507812,
        18.208499908447266
      ],
      "type": "VEC3",
      "bufferView": 0,
      "byteOffset": 17988
    },
    {
      "name": "polySurface96_1_14_normals",
      "componentType": 5126,
      "count": 104,
      "min": [
        -1,
        -1,
        -1
      ],
      "max": [
        1,
        1,
        1
      ],
      "type": "VEC3",
      "bufferView": 1,
      "byteOffset": 17988
    },
    {
      "name": "polySurface96_1_14_texcoords",
      "componentType": 5126,
      "count": 104,
      "min": [
        -11.701700210571289,
        0
      ],
      "max": [
        12.623600006103516,
        2.970599889755249
      ],
      "type": "VEC2",
      "bufferView": 2,
      "byteOffset": 11992
    },
    {
      "name": "polySurface96_1_14_indices",
      "componentType": 5123,
      "count": 162,
      "min": [
        0
      ],
      "max": [
        103
      ],
      "type": "SCALAR",
      "bufferView": 3,
      "byteOffset": 5316
    },
    {
      "name": "polySurface96_1_15_positions",
      "componentType": 5126,
      "count": 49,
      "min": [
        -21.865299224853516,
        -3.2151999473571777,
        0
      ],
      "max": [
        4.315999984741211,
        5.190100193023682,
        14.024999618530273
      ],
      "type": "VEC3",
      "bufferView": 0,
      "byteOffset": 19236
    },
    {
      "name": "polySurface96_1_15_normals",
      "componentType": 5126,
      "count": 49,
      "min": [
        0,
        -1,
        0
      ],
      "max": [
        1,
        0,
        0
      ],
      "type": "VEC3",
      "bufferView": 1,
      "byteOffset": 19236
    },
    {
      "name": "polySurface96_1_15_texcoords",
      "componentType": 5126,
      "count": 49,
      "min": [
        2.8703999519348145,
        -0.0005000000237487257
      ],
      "max": [
        5.708199977874756,
        1.132099986076355
      ],
      "type": "VEC2",
      "bufferView": 2,
      "byteOffset": 12824
    },
    {
      "name": "polySurface96_1_15_indices",
      "componentType": 5123,
      "count": 114,
      "min": [
        0
      ],
      "max": [
        48
      ],
      "type": "SCALAR",
      "bufferView": 3,
      "byteOffset": 5640
    },
    {
      "name": "polySurface96_1_16_positions",
      "componentType": 5126,
      "count": 8,
      "min": [
        -21.865299224853516,
        -3.2151999473571777,
        0
      ],
      "max": [
        -21.865299224853516,
        5.190100193023682,
        14.024999618530273
      ],
      "type": "VEC3",
      "bufferView": 0,
      "byteOffset": 19824
    },
    {
      "name": "polySurface96_1_16_normals",
      "componentType": 5126,
      "count": 8,
      "min": [
        -1,
        0,
        0
      ],
      "max": [
        -1,
        0,
        0
      ],
      "type": "VEC3",
      "bufferView": 1,
      "byteOffset": 19824
    },
    {
      "name": "polySurface96_1_16_texcoords",
      "componentType": 5126,
      "count": 8,
      "min": [
        -0.0414000004529953,
        -1.021299958229065
      ],
      "max": [
        0.9624999761581421,
        1.9699000120162964
      ],
      "type": "VEC2",
      "bufferView": 2,
      "byteOffset": 13216
    },
    {
      "name": "polySurface96_1_16_indices",
      "componentType": 5123,
      "count": 12,
      "min": [
        0
      ],
      "max": [
        7
      ],
      "type": "SCALAR",
      "bufferView": 3,
      "byteOffset": 5868
    },
    {
      "name": "polySurface96_1_17_positions",
      "componentType": 5126,
      "count": 4,
      "min": [
        4.315999984741211,
        0.9908999800682068,
        0.3456999957561493
      ],
      "max": [
        4.315999984741211,
        2.6184000968933105,
        14.024999618530273
      ],
      "type": "VEC3",
      "bufferView": 0,
      "byteOffset": 19920
    },
    {
      "name": "polySurface96_1_17_normals",
      "componentType": 5126,
      "count": 4,
      "min": [
        1,
        0,
        0
      ],
      "max": [
        1,
        0,
        0
      ],
      "type": "VEC3",
      "bufferView": 1,
      "byteOffset": 19920
    },
    {
      "name": "polySurface96_1_17_texcoords",
      "componentType": 5126,
      "count": 4,
      "min": [
        3.9403998851776123,
        -0.613099992275238
      ],
      "max": [
        5.0903000831604,
        1.5504000186920166
      ],
      "type": "VEC2",
      "bufferView": 2,
      "byteOffset": 13280
    },
    {
      "name": "polySurface96_1_17_indices",
      "componentType": 5123,
      "count": 6,
      "min": [
        0
      ],
      "max": [
        3
      ],
      "type": "SCALAR",
      "bufferView": 3,
      "byteOffset": 5892
    },
    {
      "name": "polySurface96_1_18_positions",
      "componentType": 5126,
      "count": 12,
      "min": [
        0.5180000066757202,
        -3.2151999473571777,
        0.680899977684021
      ],
      "max": [
        2.749000072479248,
        -3.2151999473571777,
        12.097100257873535
      ],
      "type": "VEC3",
      "bufferView": 0,
      "byteOffset": 19968
    },
    {
      "name": "polySurface96_1_18_normals",
      "componentType": 5126,
      "count": 12,
      "min": [
        0,
        -1,
        0
      ],
      "max": [
        0,
        -1,
        0
      ],
      "type": "VEC3",
      "bufferView": 1,
      "byteOffset": 19968
    },
    {
      "name": "polySurface96_1_18_texcoords",
      "componentType": 5126,
      "count": 12,
      "min": [
        5.980100154876709,
        -2.0195999145507812
      ],
      "max": [
        7.0152997970581055,
        3.0067999362945557
      ],
      "type": "VEC2",
      "bufferView": 2,
      "byteOffset": 13312
    },
    {
      "name": "polySurface96_1_18_indices",
      "componentType": 5123,
      "count": 18,
      "min": [
        0
      ],
      "max": [
        11
      ],
      "type": "SCALAR",
      "bufferView": 3,
      "byteOffset": 5904
    },
    {
      "name": "polySurface96_1_19_positions",
      "componentType": 5126,
      "count": 4,
      "min": [
        -24.70439910888672,
        16.93269920349121,
        0.2547999918460846
      ],
      "max": [
        -24.70439910888672,
        19.442800521850586,
        5.777500152587891
      ],
      "type": "VEC3",
      "bufferView": 0,
      "byteOffset": 20112
    },
    {
      "name": "polySurface96_1_19_normals",
      "componentType": 5126,
      "count": 4,
      "min": [
        -1,
        0,
        0
      ],
      "max": [
        -1,
        0,
        0
      ],
      "type": "VEC3",
      "bufferView": 1,
      "byteOffset": 20112
    },
    {
      "name": "polySurface96_1_19_texcoords",
      "componentType": 5126,
      "count": 4,
      "min": [
        -0.023399999365210533,
        -0.010999999940395355
      ],
      "max": [
        1.0052000284194946,
        1.0176000595092773
      ],
      "type": "VEC2",
      "bufferView": 2,
      "byteOffset": 13408
    },
    {
      "name": "polySurface96_1_19_indices",
      "componentType": 5123,
      "count": 6,
      "min": [
        0
      ],
      "max": [
        3
      ],
      "type": "SCALAR",
      "bufferView": 3,
      "byteOffset": 5940
    },
    {
      "name": "polySurface96_1_20_positions",
      "componentType": 5126,
      "count": 4,
      "min": [
        -3.625,
        17.98740005493164,
        11.079899787902832
      ],
      "max": [
        2.9233999252319336,
        17.98740005493164,
        14.48069953918457
      ],
      "type": "VEC3",
      "bufferView": 0,
      "byteOffset": 20160
    },
    {
      "name": "polySurface96_1_20_normals",
      "componentType": 5126,
      "count": 4,
      "min": [
        0,
        1,
        0
      ],
      "max": [
        0,
        1,
        0
      ],
      "type": "VEC3",
      "bufferView": 1,
      "byteOffset": 20160
    },
    {
      "name": "polySurface96_1_20_texcoords",
      "componentType": 5126,
      "count": 4,
      "min": [
        -0.012600000016391277,
        -0.024399999529123306
      ],
      "max": [
        1.0026999711990356,
        1.024399995803833
      ],
      "type": "VEC2",
      "bufferView": 2,
      "byteOffset": 13440
    },
    {
      "name": "polySurface96_1_20_indices",
      "componentType": 5123,
      "count": 6,
      "min": [
        0
      ],
      "max": [
        3
      ],
      "type": "SCALAR",
      "bufferView": 3,
      "byteOffset": 5952
    },
    {
      "name": "polySurface96_1_21_positions",
      "componentType": 5126,
      "count": 40,
      "min": [
        -35.45399856567383,
        -20.63050079345703,
        3.892699956893921
      ],
      "max": [
        -6.087600231170654,
        -5.162099838256836,
        4.747600078582764
      ],
      "type": "VEC3",
      "bufferView": 0,
      "byteOffset": 20208
    },
    {
      "name": "polySurface96_1_21_normals",
      "componentType": 5126,
      "count": 40,
      "min": [
        -1,
        -1,
        -1
      ],
      "max": [
        1,
        1,
        1
      ],
      "type": "VEC3",
      "bufferView": 1,
      "byteOffset": 20208
    },
    {
      "name": "polySurface96_1_21_texcoords",
      "componentType": 5126,
      "count": 40,
      "min": [
        -3.061500072479248,
        0.03620000183582306
      ],
      "max": [
        4.058800220489502,
        3.0048000812530518
      ],
      "type": "VEC2",
      "bufferView": 2,
      "byteOffset": 13472
    },
    {
      "name": "polySurface96_1_21_indices",
      "componentType": 5123,
      "count": 60,
      "min": [
        0
      ],
      "max": [
        39
      ],
      "type": "SCALAR",
      "bufferView": 3,
      "byteOffset": 5964
    },
    {
      "name": "polySurface96_1_22_positions",
      "componentType": 5126,
      "count": 16,
      "min": [
        -11.369000434875488,
        17.886600494384766,
        0
      ],
      "max": [
        2.768399953842163,
        17.886600494384766,
        14.39490032196045
      ],
      "type": "VEC3",
      "bufferView": 0,
      "byteOffset": 20688
    },
    {
      "name": "polySurface96_1_22_normals",
      "componentType": 5126,
      "count": 16,
      "min": [
        0,
        1,
        0
      ],
      "max": [
        0,
        1,
        0
      ],
      "type": "VEC3",
      "bufferView": 1,
      "byteOffset": 20688
    },
    {
      "name": "polySurface96_1_22_texcoords",
      "componentType": 5126,
      "count": 16,
      "min": [
        -1.9098000526428223,
        -1.1102999448776245
      ],
      "max": [
        -0.08100000023841858,
        1.07669997215271
      ],
      "type": "VEC2",
      "bufferView": 2,
      "byteOffset": 13792
    },
    {
      "name": "polySurface96_1_22_indices",
      "componentType": 5123,
      "count": 24,
      "min": [
        0
      ],
      "max": [
        15
      ],
      "type": "SCALAR",
      "bufferView": 3,
      "byteOffset": 6084
    },
    {
      "name": "polySurface96_1_23_positions",
      "componentType": 5126,
      "count": 9,
      "min": [
        -22.207700729370117,
        9.160599708557129,
        0
      ],
      "max": [
        -12.939800262451172,
        17.886600494384766,
        6.041399955749512
      ],
      "type": "VEC3",
      "bufferView": 0,
      "byteOffset": 20880
    },
    {
      "name": "polySurface96_1_23_normals",
      "componentType": 5126,
      "count": 9,
      "min": [
        -1,
        0,
        0
      ],
      "max": [
        0,
        1,
        0
      ],
      "type": "VEC3",
      "bufferView": 1,
      "byteOffset": 20880
    },
    {
      "name": "polySurface96_1_23_texcoords",
      "componentType": 5126,
      "count": 9,
      "min": [
        0.8917999863624573,
        -0.7620000243186951
      ],
      "max": [
        2.1106998920440674,
        0.9922000169754028
      ],
      "type": "VEC2",
      "bufferView": 2,
      "byteOffset": 13920
    },
    {
      "name": "polySurface96_1_23_indices",
      "componentType": 5123,
      "count": 15,
      "min": [
        0
      ],
      "max": [
        8
      ],
      "type": "SCALAR",
      "bufferView": 3,
      "byteOffset": 6132
    }
  ],
  "asset": {
    "generator": "obj2gltf",
    "version": "2.0"
  },
  "buffers": [
    {
      "name": "obj",
      "byteLength": 62132,
      "uri": "data:application/octet-stream;base64,"
    }
  ],
  "bufferViews": [
    {
      "name": "bufferView_0",
      "buffer": 0,
      "byteLength": 20988,
      "byteOffset": 0,
      "byteStride": 12,
      "target": 34962
    },
    {
      "name": "bufferView_1",
      "buffer": 0,
      "byteLength": 20988,
      "byteOffset": 20988,
      "byteStride": 12,
      "target": 34962
    },
    {
      "name": "bufferView_2",
      "buffer": 0,
      "byteLength": 13992,
      "byteOffset": 41976,
      "byteStride": 8,
      "target": 34962
    },
    {
      "name": "bufferView_3",
      "buffer": 0,
      "byteLength": 6164,
      "byteOffset": 55968,
      "target": 34963
    }
  ],
  "images": [
    {
      "name": "yyf_016",
      "uri": "yyf_016.jpg"
    },
    {
      "name": "yyf_004",
      "uri": "yyf_004.png"
    },
    {
      "name": "yyf_001",
      "uri": "yyf_001.jpg"
    },
    {
      "name": "yyf_022",
      "uri": "yyf_022.png"
    },
    {
      "name": "yyf_002",
      "uri": "yyf_002.jpg"
    },
    {
      "name": "yyf_007",
      "uri": "yyf_007.jpg"
    },
    {
      "name": "yyf_013",
      "uri": "yyf_013.jpg"
    },
    {
      "name": "yyf_010",
      "uri": "yyf_010.jpg"
    },
    {
      "name": "yyf_006",
      "uri": "yyf_006.jpg"
    },
    {
      "name": "yyf_012",
      "uri": "yyf_012.jpg"
    },
    {
      "name": "yyf_011",
      "uri": "yyf_011.jpg"
    },
    {
      "name": "yyf_009",
      "uri": "yyf_009.jpg"
    },
    {
      "name": "yyf_021",
      "uri": "yyf_021.png"
    },
    {
      "name": "yyf_027",
      "uri": "yyf_027.png"
    },
    {
      "name": "yyf_005",
      "uri": "yyf_005.jpg"
    },
    {
      "name": "yyf_025",
      "uri": "yyf_025.jpg"
    },
    {
      "name": "yyf_018",
      "uri": "yyf_018.jpg"
    },
    {
      "name": "yyf_024",
      "uri": "yyf_024.jpg"
    },
    {
      "name": "yyf_026",
      "uri": "yyf_026.jpg"
    },
    {
      "name": "yyf_019",
      "uri": "yyf_019.jpg"
    },
    {
      "name": "yyf_014",
      "uri": "yyf_014.jpg"
    },
    {
      "name": "yyf_003",
      "uri": "yyf_003.jpg"
    },
    {
      "name": "yyf_015",
      "uri": "yyf_015.jpg"
    },
    {
      "name": "yyf_020",
      "uri": "yyf_020.jpg"
    }
  ],
  "materials": [
    {
      "name": "lambert19SG",
      "pbrMetallicRoughness": {
        "baseColorTexture": {
          "index": 0
        },
        "baseColorFactor": [
          1,
          1,
          1,
          1
        ],
        "metallicFactor": 0,
        "roughnessFactor": 0.97
      },
      "emissiveFactor": [
        0,
        0,
        0
      ],
      "alphaMode": "OPAQUE",
      "doubleSided": false
    },
    {
      "name": "Material__49",
      "pbrMetallicRoughness": {
        "baseColorTexture": {
          "index": 1
        },
        "baseColorFactor": [
          1,
          1,
          1,
          1
        ],
        "metallicFactor": 0,
        "roughnessFactor": 0.99
      },
      "emissiveFactor": [
        0,
        0,
        0
      ],
      "alphaMode": "BLEND",
      "doubleSided": true
    },
    {
      "name": "lambert5SG",
      "pbrMetallicRoughness": {
        "baseColorTexture": {
          "index": 2
        },
        "baseColorFactor": [
          1,
          1,
          1,
          1
        ],
        "metallicFactor": 0,
        "roughnessFactor": 0.97
      },
      "emissiveFactor": [
        0,
        0,
        0
      ],
      "alphaMode": "OPAQUE",
      "doubleSided": false
    },
    {
      "name": "Material__50",
      "pbrMetallicRoughness": {
        "baseColorTexture": {
          "index": 3
        },
        "baseColorFactor": [
          1,
          1,
          1,
          1
        ],
        "metallicFactor": 0,
        "roughnessFactor": 0.99
      },
      "emissiveFactor": [
        0,
        0,
        0
      ],
      "alphaMode": "BLEND",
      "doubleSided": true
    },
    {
      "name": "lambert3SG",
      "pbrMetallicRoughness": {
        "baseColorTexture": {
          "index": 4
        },
        "baseColorFactor": [
          1,
          1,
          1,
          1
        ],
        "metallicFactor": 0,
        "roughnessFactor": 0.97
      },
      "emissiveFactor": [
        0,
        0,
        0
      ],
      "alphaMode": "OPAQUE",
      "doubleSided": false
    },
    {
      "name": "lambert9SG",
      "pbrMetallicRoughness": {
        "baseColorTexture": {
          "index": 5
        },
        "baseColorFactor": [
          1,
          1,
          1,
          1
        ],
        "metallicFactor": 0,
        "roughnessFactor": 0.97
      },
      "emissiveFactor": [
        0,
        0,
        0
      ],
      "alphaMode": "OPAQUE",
      "doubleSided": false
    },
    {
      "name": "lambert14SG",
      "pbrMetallicRoughness": {
        "baseColorTexture": {
          "index": 6
        },
        "baseColorFactor": [
          1,
          1,
          1,
          1
        ],
        "metallicFactor": 0,
        "roughnessFactor": 0.97
      },
      "emissiveFactor": [
        0,
        0,
        0
      ],
      "alphaMode": "OPAQUE",
      "doubleSided": false
    },
    {
      "name": "lambert11SG",
      "pbrMetallicRoughness": {
        "baseColorTexture": {
          "index": 7
        },
        "baseColorFactor": [
          1,
          1,
          1,
          1
        ],
        "metallicFactor": 0,
        "roughnessFactor": 0.97
      },
      "emissiveFactor": [
        0,
        0,
        0
      ],
      "alphaMode": "OPAQUE",
      "doubleSided": false
    },
    {
      "name": "lambert8SG",
      "pbrMetallicRoughness": {
        "baseColorTexture": {
          "index": 8
        },
        "baseColorFactor": [
          1,
          1,
          1,
          1
        ],
        "metallicFactor": 0,
        "roughnessFactor": 0.97
      },
      "emissiveFactor": [
        0,
        0,
        0
      ],
      "alphaMode": "OPAQUE",
      "doubleSided": false
    },
    {
      "name": "lambert13SG",
      "pbrMetallicRoughness": {
        "baseColorTexture": {
          "index": 9
        },
        "baseColorFactor": [
          1,
          1,
          1,
          1
        ],
        "metallicFactor": 0,
        "roughnessFactor": 0.97
      },
      "emissiveFactor": [
        0,
        0,
        0
      ],
      "alphaMode": "OPAQUE",
      "doubleSided": false
    },
    {
      "name": "lambert12SG",
      "pbrMetallicRoughness": {
        "baseColorTexture": {
          "index": 10
        },
        "baseColorFactor": [
          1,
          1,
          1,
          1
        ],
        "metallicFactor": 0,
        "roughnessFactor": 0.97
      },
      "emissiveFactor": [
        0,
        0,
        0
      ],
      "alphaMode": "OPAQUE",
      "doubleSided": false
    },
    {
      "name": "lambert10SG",
      "pbrMetallicRoughness": {
        "baseColorTexture": {
          "index": 11
        },
        "baseColorFactor": [
          1,
          1,
          1,
          1
        ],
        "metallicFactor": 0,
        "roughnessFactor": 0.97
      },
      "emissiveFactor": [
        0,
        0,
        0
      ],
      "alphaMode": "OPAQUE",
      "doubleSided": false
    },
    {
      "name": "Material__52",
      "pbrMetallicRoughness": {
        "baseColorTexture": {
          "index": 12
        },
        "baseColorFactor": [
          1,
          1,
          1,
          1
        ],
        "metallicFactor": 0,
        "roughnessFactor": 0.99
      },
      "emissiveFactor": [
        0,
        0,
        0
      ],
      "alphaMode": "BLEND",
      "doubleSided": true
    },
    {
      "name": "Material__51",
      "pbrMetallicRoughness": {
        "baseColorTexture": {
          "index": 13
        },
        "baseColorFactor": [
          1,
          1,
          1,
          1
        ],
        "metallicFactor": 0,
        "roughnessFactor": 0.99
      },
      "emissiveFactor": [
        0,
        0,
        0
      ],
      "alphaMode": "BLEND",
      "doubleSided": true
    },
    {
      "name": "lambert7SG",
      "pbrMetallicRoughness": {
        "baseColorTexture": {
          "index": 14
        },
        "baseColorFactor": [
          1,
          1,
          1,
          1
        ],
        "metallicFactor": 0,
        "roughnessFactor": 0.97
      },
      "emissiveFactor": [
        0,
        0,
        0
      ],
      "alphaMode": "OPAQUE",
      "doubleSided": false
    },
    {
      "name": "lambert25SG",
      "pbrMetallicRoughness": {
        "baseColorTexture": {
          "index": 15
        },
        "baseColorFactor": [
          1,
          1,
          1,
          1
        ],
        "metallicFactor": 0,
        "roughnessFactor": 0.97
      },
      "emissiveFactor": [
        0,
        0,
        0
      ],
      "alphaMode": "OPAQUE",
      "doubleSided": false
    },
    {
      "name": "lambert20SG",
      "pbrMetallicRoughness": {
        "baseColorTexture": {
          "index": 16
        },
        "baseColorFactor": [
          1,
          1,
          1,
          1
        ],
        "metallicFactor": 0,
        "roughnessFactor": 0.97
      },
      "emissiveFactor": [
        0,
        0,
        0
      ],
      "alphaMode": "OPAQUE",
      "doubleSided": false
    },
    {
      "name": "lambert26SG",
      "pbrMetallicRoughness": {
        "baseColorTexture": {
          "index": 17
        },
        "baseColorFactor": [
          1,
          1,
          1,
          1
        ],
        "metallicFactor": 0,
        "roughnessFactor": 0.97
      },
      "emissiveFactor": [
        0,
        0,
        0
      ],
      "alphaMode": "OPAQUE",
      "doubleSided": false
    },
    {
      "name": "lambert27SG",
      "pbrMetallicRoughness": {
        "baseColorTexture": {
          "index": 18
        },
        "baseColorFactor": [
          1,
          1,
          1,
          1
        ],
        "metallicFactor": 0,
        "roughnessFactor": 0.97
      },
      "emissiveFactor": [
        0,
        0,
        0
      ],
      "alphaMode": "OPAQUE",
      "doubleSided": false
    },
    {
      "name": "lambert21SG",
      "pbrMetallicRoughness": {
        "baseColorTexture": {
          "index": 19
        },
        "baseColorFactor": [
          1,
          1,
          1,
          1
        ],
        "metallicFactor": 0,
        "roughnessFactor": 0.97
      },
      "emissiveFactor": [
        0,
        0,
        0
      ],
      "alphaMode": "OPAQUE",
      "doubleSided": false
    },
    {
      "name": "lambert16SG",
      "pbrMetallicRoughness": {
        "baseColorTexture": {
          "index": 20
        },
        "baseColorFactor": [
          1,
          1,
          1,
          1
        ],
        "metallicFactor": 0,
        "roughnessFactor": 0.97
      },
      "emissiveFactor": [
        0,
        0,
        0
      ],
      "alphaMode": "OPAQUE",
      "doubleSided": false
    },
    {
      "name": "lambert2SG",
      "pbrMetallicRoughness": {
        "baseColorTexture": {
          "index": 21
        },
        "baseColorFactor": [
          1,
          1,
          1,
          1
        ],
        "metallicFactor": 0,
        "roughnessFactor": 0.97
      },
      "emissiveFactor": [
        0,
        0,
        0
      ],
      "alphaMode": "OPAQUE",
      "doubleSided": false
    },
    {
      "name": "lambert17SG",
      "pbrMetallicRoughness": {
        "baseColorTexture": {
          "index": 22
        },
        "baseColorFactor": [
          1,
          1,
          1,
          1
        ],
        "metallicFactor": 0,
        "roughnessFactor": 0.97
      },
      "emissiveFactor": [
        0,
        0,
        0
      ],
      "alphaMode": "OPAQUE",
      "doubleSided": false
    },
    {
      "name": "lambert22SG",
      "pbrMetallicRoughness": {
        "baseColorTexture": {
          "index": 23
        },
        "baseColorFactor": [
          1,
          1,
          1,
          1
        ],
        "metallicFactor": 0,
        "roughnessFactor": 0.97
      },
      "emissiveFactor": [
        0,
        0,
        0
      ],
      "alphaMode": "OPAQUE",
      "doubleSided": false
    }
  ],
  "meshes": [
    {
      "name": "polySurface96_1",
      "primitives": [
        {
          "attributes": {
            "POSITION": 0,
            "NORMAL": 1,
            "TEXCOORD_0": 2
          },
          "indices": 3,
          "material": 0,
          "mode": 4
        },
        {
          "attributes": {
            "POSITION": 4,
            "NORMAL": 5,
            "TEXCOORD_0": 6
          },
          "indices": 7,
          "material": 1,
          "mode": 4
        },
        {
          "attributes": {
            "POSITION": 8,
            "NORMAL": 9,
            "TEXCOORD_0": 10
          },
          "indices": 11,
          "material": 2,
          "mode": 4
        },
        {
          "attributes": {
            "POSITION": 12,
            "NORMAL": 13,
            "TEXCOORD_0": 14
          },
          "indices": 15,
          "material": 3,
          "mode": 4
        },
        {
          "attributes": {
            "POSITION": 16,
            "NORMAL": 17,
            "TEXCOORD_0": 18
          },
          "indices": 19,
          "material": 4,
          "mode": 4
        },
        {
          "attributes": {
            "POSITION": 20,
            "NORMAL": 21,
            "TEXCOORD_0": 22
          },
          "indices": 23,
          "material": 5,
          "mode": 4
        },
        {
          "attributes": {
            "POSITION": 24,
            "NORMAL": 25,
            "TEXCOORD_0": 26
          },
          "indices": 27,
          "material": 6,
          "mode": 4
        },
        {
          "attributes": {
            "POSITION": 28,
            "NORMAL": 29,
            "TEXCOORD_0": 30
          },
          "indices": 31,
          "material": 7,
          "mode": 4
        },
        {
          "attributes": {
            "POSITION": 32,
            "NORMAL": 33,
            "TEXCOORD_0": 34
          },
          "indices": 35,
          "material": 8,
          "mode": 4
        },
        {
          "attributes": {
            "POSITION": 36,
            "NORMAL": 37,
            "TEXCOORD_0": 38
          },
          "indices": 39,
          "material": 9,
          "mode": 4
        },
        {
          "attributes": {
            "POSITION": 40,
            "NORMAL": 41,
            "TEXCOORD_0": 42
          },
          "indices": 43,
          "material": 10,
          "mode": 4
        },
        {
          "attributes": {
            "POSITION": 44,
            "NORMAL": 45,
            "TEXCOORD_0": 46
          },
          "indices": 47,
          "material": 11,
          "mode": 4
        },
        {
          "attributes": {
            "POSITION": 48,
            "NORMAL": 49,
            "TEXCOORD_0": 50
          },
          "indices": 51,
          "material": 12,
          "mode": 4
        },
        {
          "attributes": {
            "POSITION": 52,
            "NORMAL": 53,
            "TEXCOORD_0": 54
          },
          "indices": 55,
          "material": 13,
          "mode": 4
        },
        {
          "attributes": {
            "POSITION": 56,
            "NORMAL": 57,
            "TEXCOORD_0": 58
          },
          "indices": 59,
          "material": 14,
          "mode": 4
        },
        {
          "attributes": {
            "POSITION": 60,
            "NORMAL": 61,
            "TEXCOORD_0": 62
          },
          "indices": 63,
          "material": 15,
          "mode": 4
        },
        {
          "attributes": {
            "POSITION": 64,
            "NORMAL": 65,
            "TEXCOORD_0": 66
          },
          "indices": 67,
          "material": 16,
          "mode": 4
        },
        {
          "attributes": {
            "POSITION": 68,
            "NORMAL": 69,
            "TEXCOORD_0": 70
          },
          "indices": 71,
          "material": 17,
          "mode": 4
        },
        {
          "attributes": {
            "POSITION": 72,
            "NORMAL": 73,
            "TEXCOORD_0": 74
          },
          "indices": 75,
          "material": 18,
          "mode": 4
        },
        {
          "attributes": {
            "POSITION": 76,
            "NORMAL": 77,
            "TEXCOORD_0": 78
          },
          "indices": 79,
          "material": 19,
          "mode": 4
        },
        {
          "attributes": {
            "POSITION": 80,
            "NORMAL": 81,
            "TEXCOORD_0": 82
          },
          "indices": 83,
          "material": 20,
          "mode": 4
        },
        {
          "attributes": {
            "POSITION": 84,
            "NORMAL": 85,
            "TEXCOORD_0": 86
          },
          "indices": 87,
          "material": 21,
          "mode": 4
        },
        {
          "attributes": {
            "POSITION": 88,
            "NORMAL": 89,
            "TEXCOORD_0": 90
          },
          "indices": 91,
          "material": 22,
          "mode": 4
        },
        {
          "attributes": {
            "POSITION": 92,
            "NORMAL": 93,
            "TEXCOORD_0": 94
          },
          "indices": 95,
          "material": 23,
          "mode": 4
        }
      ]
    }
  ],
  "nodes": [
    {
      "name": "polySurface96",
      "mesh": 0
    }
  ],
  "samplers": [
    {
      "wrapS": 10497,
      "wrapT": 10497
    }
  ],
  "scene": 0,
  "scenes": [
    {
      "nodes": [
        0
      ]
    }
  ],
  "textures": [
    {
      "name": "yyf_016",
      "sampler": 0,
      "source": 0
    },
    {
      "name": "yyf_004",
      "sampler": 0,
      "source": 1
    },
    {
      "name": "yyf_001",
      "sampler": 0,
      "source": 2
    },
    {
      "name": "yyf_022",
      "sampler": 0,
      "source": 3
    },
    {
      "name": "yyf_002",
      "sampler": 0,
      "source": 4
    },
    {
      "name": "yyf_007",
      "sampler": 0,
      "source": 5
    },
    {
      "name": "yyf_013",
      "sampler": 0,
      "source": 6
    },
    {
      "name": "yyf_010",
      "sampler": 0,
      "source": 7
    },
    {
      "name": "yyf_006",
      "sampler": 0,
      "source": 8
    },
    {
      "name": "yyf_012",
      "sampler": 0,
      "source": 9
    },
    {
      "name": "yyf_011",
      "sampler": 0,
      "source": 10
    },
    {
      "name": "yyf_009",
      "sampler": 0,
      "source": 11
    },
    {
      "name": "yyf_021",
      "sampler": 0,
      "source": 12
    },
    {
      "name": "yyf_027",
      "sampler": 0,
      "source": 13
    },
    {
      "name": "yyf_005",
      "sampler": 0,
      "source": 14
    },
    {
      "name": "yyf_025",
      "sampler": 0,
      "source": 15
    },
    {
      "name": "yyf_018",
      "sampler": 0,
      "source": 16
    },
    {
      "name": "yyf_024",
      "sampler": 0,
      "source": 17
    },
    {
      "name": "yyf_026",
      "sampler": 0,
      "source": 18
    },
    {
      "name": "yyf_019",
      "sampler": 0,
      "source": 19
    },
    {
      "name": "yyf_014",
      "sampler": 0,
      "source": 20
    },
    {
      "name": "yyf_003",
      "sampler": 0,
      "source": 21
    },
    {
      "name": "yyf_015",
      "sampler": 0,
      "source": 22
    },
    {
      "name": "yyf_020",
      "sampler": 0,
      "source": 23
    }
  ]
}
