{"asset":{"version":"2.0","generator":"babylon.js glTF exporter for 3dsmax 2022 v20240125.3"},"scene":0,"scenes":[{"nodes":[0]}],"nodes":[{"mesh":0,"translation":[0.0,1.335144E-05,0.0],"name":"Box002"}],"meshes":[{"primitives":[{"attributes":{"POSITION":1,"NORMAL":2,"TEXCOORD_0":3},"indices":0,"material":0},{"attributes":{"POSITION":5,"NORMAL":6,"TEXCOORD_0":7},"indices":4,"material":1},{"attributes":{"POSITION":9,"NORMAL":10,"TEXCOORD_0":11},"indices":8,"material":2},{"attributes":{"POSITION":13,"NORMAL":14,"TEXCOORD_0":15},"indices":12,"material":3}],"name":"Box002"}],"accessors":[{"bufferView":0,"componentType":5123,"count":468,"type":"SCALAR","name":"accessorIndices"},{"bufferView":1,"componentType":5126,"count":353,"max":[61.77037,51.5270462,8.51773548],"min":[24.2473431,-51.5270462,-0.04134582],"type":"VEC3","name":"accessorPositions"},{"bufferView":1,"byteOffset":4236,"componentType":5126,"count":353,"type":"VEC3","name":"accessorNormals"},{"bufferView":2,"componentType":5126,"count":353,"type":"VEC2","name":"accessorUVs"},{"bufferView":0,"byteOffset":936,"componentType":5123,"count":36,"type":"SCALAR","name":"accessorIndices"},{"bufferView":1,"byteOffset":8472,"componentType":5126,"count":34,"max":[50.4909554,48.2081223,3.45651746],"min":[29.6094379,-25.7359924,-0.0004869825],"type":"VEC3","name":"accessorPositions"},{"bufferView":1,"byteOffset":8880,"componentType":5126,"count":34,"type":"VEC3","name":"accessorNormals"},{"bufferView":2,"byteOffset":2824,"componentType":5126,"count":34,"type":"VEC2","name":"accessorUVs"},{"bufferView":0,"byteOffset":1008,"componentType":5123,"count":60,"type":"SCALAR","name":"accessorIndices"},{"bufferView":1,"byteOffset":9288,"componentType":5126,"count":44,"max":[32.96907,14.4343185,0.352050334],"min":[-61.7272034,-14.1015444,-4.351139E-06],"type":"VEC3","name":"accessorPositions"},{"bufferView":1,"byteOffset":9816,"componentType":5126,"count":44,"type":"VEC3","name":"accessorNormals"},{"bufferView":2,"byteOffset":3096,"componentType":5126,"count":44,"type":"VEC2","name":"accessorUVs"},{"bufferView":0,"byteOffset":1128,"componentType":5123,"count":72,"type":"SCALAR","name":"accessorIndices"},{"bufferView":1,"byteOffset":10344,"componentType":5126,"count":48,"max":[32.8414536,-0.0329062343,1.72217965],"min":[6.62031031,-13.4139071,0.3520451],"type":"VEC3","name":"accessorPositions"},{"bufferView":1,"byteOffset":10920,"componentType":5126,"count":48,"type":"VEC3","name":"accessorNormals"},{"bufferView":2,"byteOffset":3448,"componentType":5126,"count":48,"type":"VEC2","name":"accessorUVs"}],"bufferViews":[{"buffer":0,"byteLength":1272,"name":"bufferViewScalar"},{"buffer":0,"byteOffset":1272,"byteLength":11496,"byteStride":12,"name":"bufferViewFloatVec3"},{"buffer":0,"byteOffset":12768,"byteLength":3832,"byteStride":8,"name":"bufferViewFloatVec2"}],"buffers":[{"uri":"sgy_xc_01.bin","byteLength":16600}],"materials":[{"pbrMetallicRoughness":{"baseColorTexture":{"index":0},"metallicFactor":0.0,"roughnessFactor":0.450053632},"name":"Material #46765"},{"pbrMetallicRoughness":{"baseColorTexture":{"index":1},"metallicFactor":0.0,"roughnessFactor":0.450053632},"name":"Material #46766"},{"pbrMetallicRoughness":{"baseColorTexture":{"index":2},"metallicFactor":0.0,"roughnessFactor":0.450053632},"name":"Material #46801"},{"pbrMetallicRoughness":{"baseColorTexture":{"index":3},"metallicFactor":0.0,"roughnessFactor":0.450053632},"name":"Material #46789"}],"textures":[{"sampler":0,"source":0,"name":"sgy_2q_01.jpg"},{"sampler":0,"source":1,"name":"sgy_2q_02.jpg"},{"sampler":0,"source":2,"name":"SGY_Q1_005.jpg"},{"sampler":0,"source":3,"name":"sgy_x_002.png"}],"images":[{"uri":"sgy_2q_01.jpg"},{"uri":"sgy_2q_02.jpg"},{"uri":"SGY_Q1_005.jpg"},{"uri":"sgy_x_002.png"}],"samplers":[{"magFilter":9729,"minFilter":9987}]}