{
  "accessors": [
    {
      "name": "Box002_1_0_positions",
      "componentType": 5126,
      "count": 476,
      "min": [
        -20.338199615478516,
        -17.462499618530273,
        0.06289999932050705
      ],
      "max": [
        19.666799545288086,
        17.462499618530273,
        25.377199172973633
      ],
      "type": "VEC3",
      "bufferView": 0,
      "byteOffset": 0
    },
    {
      "name": "Box002_1_0_normals",
      "componentType": 5126,
      "count": 476,
      "min": [
        -1,
        -1,
        -1
      ],
      "max": [
        1,
        1,
        1
      ],
      "type": "VEC3",
      "bufferView": 1,
      "byteOffset": 0
    },
    {
      "name": "Box002_1_0_texcoords",
      "componentType": 5126,
      "count": 476,
      "min": [
        0,
        0
      ],
      "max": [
        1,
        1
      ],
      "type": "VEC2",
      "bufferView": 2,
      "byteOffset": 0
    },
    {
      "name": "Box002_1_0_indices",
      "componentType": 5123,
      "count": 666,
      "min": [
        0
      ],
      "max": [
        475
      ],
      "type": "SCALAR",
      "bufferView": 3,
      "byteOffset": 0
    },
    {
      "name": "Box002_1_1_positions",
      "componentType": 5126,
      "count": 4,
      "min": [
        16.168899536132812,
        -6.589799880981445,
        0.06289999932050705
      ],
      "max": [
        16.168899536132812,
        6.589799880981445,
        23.38640022277832
      ],
      "type": "VEC3",
      "bufferView": 0,
      "byteOffset": 5712
    },
    {
      "name": "Box002_1_1_normals",
      "componentType": 5126,
      "count": 4,
      "min": [
        1,
        0,
        0
      ],
      "max": [
        1,
        0,
        0
      ],
      "type": "VEC3",
      "bufferView": 1,
      "byteOffset": 5712
    },
    {
      "name": "Box002_1_1_texcoords",
      "componentType": 5126,
      "count": 4,
      "min": [
        -0.6409000158309937,
        -2.1570000648498535
      ],
      "max": [
        1.6409000158309937,
        2.3803999423980713
      ],
      "type": "VEC2",
      "bufferView": 2,
      "byteOffset": 3808
    },
    {
      "name": "Box002_1_1_indices",
      "componentType": 5123,
      "count": 6,
      "min": [
        0
      ],
      "max": [
        3
      ],
      "type": "SCALAR",
      "bufferView": 3,
      "byteOffset": 1332
    },
    {
      "name": "Box002_1_2_positions",
      "componentType": 5126,
      "count": 58,
      "min": [
        -20.338199615478516,
        -17.462499618530273,
        7.357500076293945
      ],
      "max": [
        19.666799545288086,
        14.118800163269043,
        25.377199172973633
      ],
      "type": "VEC3",
      "bufferView": 0,
      "byteOffset": 5760
    },
    {
      "name": "Box002_1_2_normals",
      "componentType": 5126,
      "count": 58,
      "min": [
        -1,
        -1,
        0
      ],
      "max": [
        1,
        1,
        0.00029999998514540493
      ],
      "type": "VEC3",
      "bufferView": 1,
      "byteOffset": 5760
    },
    {
      "name": "Box002_1_2_texcoords",
      "componentType": 5126,
      "count": 58,
      "min": [
        -1.4975999593734741,
        -0.01360000018030405
      ],
      "max": [
        1.0017000436782837,
        1.0026999711990356
      ],
      "type": "VEC2",
      "bufferView": 2,
      "byteOffset": 3840
    },
    {
      "name": "Box002_1_2_indices",
      "componentType": 5123,
      "count": 90,
      "min": [
        0
      ],
      "max": [
        57
      ],
      "type": "SCALAR",
      "bufferView": 3,
      "byteOffset": 1344
    },
    {
      "name": "Box002_1_3_positions",
      "componentType": 5126,
      "count": 64,
      "min": [
        -20.338199615478516,
        -17.462499618530273,
        0.07190000265836716
      ],
      "max": [
        19.666799545288086,
        17.462499618530273,
        7.354899883270264
      ],
      "type": "VEC3",
      "bufferView": 0,
      "byteOffset": 6456
    },
    {
      "name": "Box002_1_3_normals",
      "componentType": 5126,
      "count": 64,
      "min": [
        -1,
        -1,
        0
      ],
      "max": [
        1,
        1,
        0
      ],
      "type": "VEC3",
      "bufferView": 1,
      "byteOffset": 6456
    },
    {
      "name": "Box002_1_3_texcoords",
      "componentType": 5126,
      "count": 64,
      "min": [
        -2.247499942779541,
        -0.5242999792098999
      ],
      "max": [
        3.148900032043457,
        1.263800024986267
      ],
      "type": "VEC2",
      "bufferView": 2,
      "byteOffset": 4304
    },
    {
      "name": "Box002_1_3_indices",
      "componentType": 5123,
      "count": 84,
      "min": [
        0
      ],
      "max": [
        63
      ],
      "type": "SCALAR",
      "bufferView": 3,
      "byteOffset": 1524
    },
    {
      "name": "Box002_1_4_positions",
      "componentType": 5126,
      "count": 26,
      "min": [
        -19.55190086364746,
        -16.67620086669922,
        0.07190000265836716
      ],
      "max": [
        18.88050079345703,
        16.365299224853516,
        5.047900199890137
      ],
      "type": "VEC3",
      "bufferView": 0,
      "byteOffset": 7224
    },
    {
      "name": "Box002_1_4_normals",
      "componentType": 5126,
      "count": 26,
      "min": [
        -1,
        -1,
        0
      ],
      "max": [
        1,
        1,
        0
      ],
      "type": "VEC3",
      "bufferView": 1,
      "byteOffset": 7224
    },
    {
      "name": "Box002_1_4_texcoords",
      "componentType": 5126,
      "count": 26,
      "min": [
        -0.0010000000474974513,
        -0.01810000091791153
      ],
      "max": [
        3.1324000358581543,
        1.00600004196167
      ],
      "type": "VEC2",
      "bufferView": 2,
      "byteOffset": 4816
    },
    {
      "name": "Box002_1_4_indices",
      "componentType": 5123,
      "count": 30,
      "min": [
        0
      ],
      "max": [
        25
      ],
      "type": "SCALAR",
      "bufferView": 3,
      "byteOffset": 1692
    },
    {
      "name": "Box002_1_5_positions",
      "componentType": 5126,
      "count": 12,
      "min": [
        -20.338199615478516,
        -17.462499618530273,
        0.07190000265836716
      ],
      "max": [
        -19.55190086364746,
        -7.6697001457214355,
        4.982500076293945
      ],
      "type": "VEC3",
      "bufferView": 0,
      "byteOffset": 7536
    },
    {
      "name": "Box002_1_5_normals",
      "componentType": 5126,
      "count": 12,
      "min": [
        0,
        -1,
        -1
      ],
      "max": [
        0,
        0,
        0
      ],
      "type": "VEC3",
      "bufferView": 1,
      "byteOffset": 7536
    },
    {
      "name": "Box002_1_5_texcoords",
      "componentType": 5126,
      "count": 12,
      "min": [
        0.0019000000320374966,
        0.006000000052154064
      ],
      "max": [
        0.9991999864578247,
        0.9672999978065491
      ],
      "type": "VEC2",
      "bufferView": 2,
      "byteOffset": 5024
    },
    {
      "name": "Box002_1_5_indices",
      "componentType": 5123,
      "count": 12,
      "min": [
        0
      ],
      "max": [
        11
      ],
      "type": "SCALAR",
      "bufferView": 3,
      "byteOffset": 1752
    },
    {
      "name": "Box002_1_6_positions",
      "componentType": 5126,
      "count": 16,
      "min": [
        -20.338199615478516,
        4.145599842071533,
        10.489800453186035
      ],
      "max": [
        19.666799545288086,
        17.462499618530273,
        25.377199172973633
      ],
      "type": "VEC3",
      "bufferView": 0,
      "byteOffset": 7680
    },
    {
      "name": "Box002_1_6_normals",
      "componentType": 5126,
      "count": 16,
      "min": [
        0,
        -1,
        0
      ],
      "max": [
        0,
        1,
        0
      ],
      "type": "VEC3",
      "bufferView": 1,
      "byteOffset": 7680
    },
    {
      "name": "Box002_1_6_texcoords",
      "componentType": 5126,
      "count": 16,
      "min": [
        -0.16820000112056732,
        -0.009100000374019146
      ],
      "max": [
        0.5873000025749207,
        1.027500033378601
      ],
      "type": "VEC2",
      "bufferView": 2,
      "byteOffset": 5120
    },
    {
      "name": "Box002_1_6_indices",
      "componentType": 5123,
      "count": 24,
      "min": [
        0
      ],
      "max": [
        15
      ],
      "type": "SCALAR",
      "bufferView": 3,
      "byteOffset": 1776
    },
    {
      "name": "Box002_1_7_positions",
      "componentType": 5126,
      "count": 8,
      "min": [
        -19.969100952148438,
        5.412399768829346,
        11.756600379943848
      ],
      "max": [
        19.29759979248047,
        16.19569969177246,
        24.11039924621582
      ],
      "type": "VEC3",
      "bufferView": 0,
      "byteOffset": 7872
    },
    {
      "name": "Box002_1_7_normals",
      "componentType": 5126,
      "count": 8,
      "min": [
        -1,
        0,
        0
      ],
      "max": [
        1,
        0,
        0
      ],
      "type": "VEC3",
      "bufferView": 1,
      "byteOffset": 7872
    },
    {
      "name": "Box002_1_7_texcoords",
      "componentType": 5126,
      "count": 8,
      "min": [
        0.003599999938160181,
        -0.00839999970048666
      ],
      "max": [
        1.3631000518798828,
        1.3073999881744385
      ],
      "type": "VEC2",
      "bufferView": 2,
      "byteOffset": 5248
    },
    {
      "name": "Box002_1_7_indices",
      "componentType": 5123,
      "count": 12,
      "min": [
        0
      ],
      "max": [
        7
      ],
      "type": "SCALAR",
      "bufferView": 3,
      "byteOffset": 1824
    },
    {
      "name": "Box002_1_8_positions",
      "componentType": 5126,
      "count": 12,
      "min": [
        -18.67930030822754,
        7.416600227355957,
        0.07190000265836716
      ],
      "max": [
        1.3449000120162964,
        14.118599891662598,
        5.047900199890137
      ],
      "type": "VEC3",
      "bufferView": 0,
      "byteOffset": 7968
    },
    {
      "name": "Box002_1_8_normals",
      "componentType": 5126,
      "count": 12,
      "min": [
        -1,
        0,
        0
      ],
      "max": [
        0,
        1,
        0
      ],
      "type": "VEC3",
      "bufferView": 1,
      "byteOffset": 7968
    },
    {
      "name": "Box002_1_8_texcoords",
      "componentType": 5126,
      "count": 12,
      "min": [
        0.0005000000237487257,
        0.01140000019222498
      ],
      "max": [
        1.0003999471664429,
        0.5048999786376953
      ],
      "type": "VEC2",
      "bufferView": 2,
      "byteOffset": 5312
    },
    {
      "name": "Box002_1_8_indices",
      "componentType": 5123,
      "count": 12,
      "min": [
        0
      ],
      "max": [
        11
      ],
      "type": "SCALAR",
      "bufferView": 3,
      "byteOffset": 1848
    },
    {
      "name": "Box002_1_9_positions",
      "componentType": 5126,
      "count": 244,
      "min": [
        -19.58340072631836,
        -4.138500213623047,
        0.044599998742341995
      ],
      "max": [
        -15.756699562072754,
        4.227799892425537,
        23.215200424194336
      ],
      "type": "VEC3",
      "bufferView": 0,
      "byteOffset": 8112
    },
    {
      "name": "Box002_1_9_normals",
      "componentType": 5126,
      "count": 244,
      "min": [
        0,
        -0.5007839798927307,
        -1
      ],
      "max": [
        0.0006999995675869286,
        0.5007839798927307,
        1
      ],
      "type": "VEC3",
      "bufferView": 1,
      "byteOffset": 8112
    },
    {
      "name": "Box002_1_9_texcoords",
      "componentType": 5126,
      "count": 244,
      "min": [
        0,
        0
      ],
      "max": [
        1,
        1
      ],
      "type": "VEC2",
      "bufferView": 2,
      "byteOffset": 5408
    },
    {
      "name": "Box002_1_9_indices",
      "componentType": 5123,
      "count": 324,
      "min": [
        0
      ],
      "max": [
        243
      ],
      "type": "SCALAR",
      "bufferView": 3,
      "byteOffset": 1872
    },
    {
      "name": "Box002_1_10_positions",
      "componentType": 5126,
      "count": 260,
      "min": [
        -19.58340072631836,
        -4.138500213623047,
        0.044599998742341995
      ],
      "max": [
        -15.756699562072754,
        4.227799892425537,
        23.215200424194336
      ],
      "type": "VEC3",
      "bufferView": 0,
      "byteOffset": 11040
    },
    {
      "name": "Box002_1_10_normals",
      "componentType": 5126,
      "count": 260,
      "min": [
        -1,
        -1,
        -0.0009999994654208422
      ],
      "max": [
        1,
        1,
        0.0009999992325901985
      ],
      "type": "VEC3",
      "bufferView": 1,
      "byteOffset": 11040
    },
    {
      "name": "Box002_1_10_texcoords",
      "componentType": 5126,
      "count": 260,
      "min": [
        -0.0003000000142492354,
        0
      ],
      "max": [
        1.2071000337600708,
        1.0003999471664429
      ],
      "type": "VEC2",
      "bufferView": 2,
      "byteOffset": 7360
    },
    {
      "name": "Box002_1_10_indices",
      "componentType": 5123,
      "count": 336,
      "min": [
        0
      ],
      "max": [
        259
      ],
      "type": "SCALAR",
      "bufferView": 3,
      "byteOffset": 2520
    }
  ],
  "asset": {
    "generator": "obj2gltf",
    "version": "2.0"
  },
  "buffers": [
    {
      "name": "Q3",
      "byteLength": 40952,
      "uri": "data:application/octet-stream;base64,"
    }
  ],
  "bufferViews": [
    {
      "name": "bufferView_0",
      "buffer": 0,
      "byteLength": 14160,
      "byteOffset": 0,
      "byteStride": 12,
      "target": 34962
    },
    {
      "name": "bufferView_1",
      "buffer": 0,
      "byteLength": 14160,
      "byteOffset": 14160,
      "byteStride": 12,
      "target": 34962
    },
    {
      "name": "bufferView_2",
      "buffer": 0,
      "byteLength": 9440,
      "byteOffset": 28320,
      "byteStride": 8,
      "target": 34962
    },
    {
      "name": "bufferView_3",
      "buffer": 0,
      "byteLength": 3192,
      "byteOffset": 37760,
      "target": 34963
    }
  ],
  "images": [
    {
      "name": "SGY_q1_041",
      "uri": "SGY_q1_041.jpg"
    },
    {
      "name": "SGY_q1_044",
      "uri": "SGY_q1_044.jpg"
    },
    {
      "name": "SGY_q1_042",
      "uri": "SGY_q1_042.jpg"
    },
    {
      "name": "SGY_q1_045",
      "uri": "SGY_q1_045.jpg"
    },
    {
      "name": "SGY_Q1_017",
      "uri": "SGY_Q1_017.jpg"
    },
    {
      "name": "SGY_q1_046",
      "uri": "SGY_q1_046.jpg"
    },
    {
      "name": "SGY_q1_040",
      "uri": "SGY_q1_040.jpg"
    },
    {
      "name": "SGY_Q1_002",
      "uri": "SGY_Q1_002.jpg"
    },
    {
      "name": "SGY_Q1_004",
      "uri": "SGY_Q1_004.jpg"
    },
    {
      "name": "SGY_q1_048",
      "uri": "SGY_q1_048.jpg"
    },
    {
      "name": "SGY_Q1_009",
      "uri": "SGY_Q1_009.png"
    }
  ],
  "materials": [
    {
      "name": "Material__71",
      "pbrMetallicRoughness": {
        "baseColorTexture": {
          "index": 0
        },
        "baseColorFactor": [
          1,
          1,
          1,
          1
        ],
        "metallicFactor": 0,
        "roughnessFactor": 0.99
      },
      "emissiveFactor": [
        0,
        0,
        0
      ],
      "alphaMode": "OPAQUE",
      "doubleSided": false
    },
    {
      "name": "Material__199",
      "pbrMetallicRoughness": {
        "baseColorTexture": {
          "index": 1
        },
        "baseColorFactor": [
          1,
          1,
          1,
          1
        ],
        "metallicFactor": 0,
        "roughnessFactor": 0.99
      },
      "emissiveFactor": [
        0,
        0,
        0
      ],
      "alphaMode": "OPAQUE",
      "doubleSided": false
    },
    {
      "name": "Material__176",
      "pbrMetallicRoughness": {
        "baseColorTexture": {
          "index": 2
        },
        "baseColorFactor": [
          1,
          1,
          1,
          1
        ],
        "metallicFactor": 0,
        "roughnessFactor": 0.99
      },
      "emissiveFactor": [
        0,
        0,
        0
      ],
      "alphaMode": "OPAQUE",
      "doubleSided": false
    },
    {
      "name": "Material__290",
      "pbrMetallicRoughness": {
        "baseColorTexture": {
          "index": 3
        },
        "baseColorFactor": [
          1,
          1,
          1,
          1
        ],
        "metallicFactor": 0,
        "roughnessFactor": 0.99
      },
      "emissiveFactor": [
        0,
        0,
        0
      ],
      "alphaMode": "OPAQUE",
      "doubleSided": false
    },
    {
      "name": "Material__371",
      "pbrMetallicRoughness": {
        "baseColorTexture": {
          "index": 4
        },
        "baseColorFactor": [
          1,
          1,
          1,
          1
        ],
        "metallicFactor": 0,
        "roughnessFactor": 0.99
      },
      "emissiveFactor": [
        0,
        0,
        0
      ],
      "alphaMode": "OPAQUE",
      "doubleSided": false
    },
    {
      "name": "Material__464",
      "pbrMetallicRoughness": {
        "baseColorTexture": {
          "index": 5
        },
        "baseColorFactor": [
          1,
          1,
          1,
          1
        ],
        "metallicFactor": 0,
        "roughnessFactor": 0.99
      },
      "emissiveFactor": [
        0,
        0,
        0
      ],
      "alphaMode": "OPAQUE",
      "doubleSided": false
    },
    {
      "name": "Material__59",
      "pbrMetallicRoughness": {
        "baseColorTexture": {
          "index": 6
        },
        "baseColorFactor": [
          1,
          1,
          1,
          1
        ],
        "metallicFactor": 0,
        "roughnessFactor": 0.99
      },
      "emissiveFactor": [
        0,
        0,
        0
      ],
      "alphaMode": "OPAQUE",
      "doubleSided": false
    },
    {
      "name": "Material__95",
      "pbrMetallicRoughness": {
        "baseColorTexture": {
          "index": 7
        },
        "baseColorFactor": [
          1,
          1,
          1,
          1
        ],
        "metallicFactor": 0,
        "roughnessFactor": 0.99
      },
      "emissiveFactor": [
        0,
        0,
        0
      ],
      "alphaMode": "OPAQUE",
      "doubleSided": false
    },
    {
      "name": "Material__394",
      "pbrMetallicRoughness": {
        "baseColorTexture": {
          "index": 8
        },
        "baseColorFactor": [
          1,
          1,
          1,
          1
        ],
        "metallicFactor": 0,
        "roughnessFactor": 0.99
      },
      "emissiveFactor": [
        0,
        0,
        0
      ],
      "alphaMode": "OPAQUE",
      "doubleSided": false
    },
    {
      "name": "Material__645",
      "pbrMetallicRoughness": {
        "baseColorTexture": {
          "index": 9
        },
        "baseColorFactor": [
          1,
          1,
          1,
          1
        ],
        "metallicFactor": 0,
        "roughnessFactor": 0.99
      },
      "emissiveFactor": [
        0,
        0,
        0
      ],
      "alphaMode": "OPAQUE",
      "doubleSided": false
    },
    {
      "name": "Material__589",
      "pbrMetallicRoughness": {
        "baseColorTexture": {
          "index": 10
        },
        "baseColorFactor": [
          1,
          1,
          1,
          1
        ],
        "metallicFactor": 0,
        "roughnessFactor": 0.99
      },
      "emissiveFactor": [
        0,
        0,
        0
      ],
      "alphaMode": "OPAQUE",
      "doubleSided": false
    }
  ],
  "meshes": [
    {
      "name": "Box002_1",
      "primitives": [
        {
          "attributes": {
            "POSITION": 0,
            "NORMAL": 1,
            "TEXCOORD_0": 2
          },
          "indices": 3,
          "material": 0,
          "mode": 4
        },
        {
          "attributes": {
            "POSITION": 4,
            "NORMAL": 5,
            "TEXCOORD_0": 6
          },
          "indices": 7,
          "material": 1,
          "mode": 4
        },
        {
          "attributes": {
            "POSITION": 8,
            "NORMAL": 9,
            "TEXCOORD_0": 10
          },
          "indices": 11,
          "material": 2,
          "mode": 4
        },
        {
          "attributes": {
            "POSITION": 12,
            "NORMAL": 13,
            "TEXCOORD_0": 14
          },
          "indices": 15,
          "material": 3,
          "mode": 4
        },
        {
          "attributes": {
            "POSITION": 16,
            "NORMAL": 17,
            "TEXCOORD_0": 18
          },
          "indices": 19,
          "material": 4,
          "mode": 4
        },
        {
          "attributes": {
            "POSITION": 20,
            "NORMAL": 21,
            "TEXCOORD_0": 22
          },
          "indices": 23,
          "material": 5,
          "mode": 4
        },
        {
          "attributes": {
            "POSITION": 24,
            "NORMAL": 25,
            "TEXCOORD_0": 26
          },
          "indices": 27,
          "material": 6,
          "mode": 4
        },
        {
          "attributes": {
            "POSITION": 28,
            "NORMAL": 29,
            "TEXCOORD_0": 30
          },
          "indices": 31,
          "material": 7,
          "mode": 4
        },
        {
          "attributes": {
            "POSITION": 32,
            "NORMAL": 33,
            "TEXCOORD_0": 34
          },
          "indices": 35,
          "material": 8,
          "mode": 4
        },
        {
          "attributes": {
            "POSITION": 36,
            "NORMAL": 37,
            "TEXCOORD_0": 38
          },
          "indices": 39,
          "material": 9,
          "mode": 4
        },
        {
          "attributes": {
            "POSITION": 40,
            "NORMAL": 41,
            "TEXCOORD_0": 42
          },
          "indices": 43,
          "material": 10,
          "mode": 4
        }
      ]
    }
  ],
  "nodes": [
    {
      "name": "Box002",
      "mesh": 0
    }
  ],
  "samplers": [
    {
      "wrapS": 10497,
      "wrapT": 10497
    }
  ],
  "scene": 0,
  "scenes": [
    {
      "nodes": [
        0
      ]
    }
  ],
  "textures": [
    {
      "name": "SGY_q1_041",
      "sampler": 0,
      "source": 0
    },
    {
      "name": "SGY_q1_044",
      "sampler": 0,
      "source": 1
    },
    {
      "name": "SGY_q1_042",
      "sampler": 0,
      "source": 2
    },
    {
      "name": "SGY_q1_045",
      "sampler": 0,
      "source": 3
    },
    {
      "name": "SGY_Q1_017",
      "sampler": 0,
      "source": 4
    },
    {
      "name": "SGY_q1_046",
      "sampler": 0,
      "source": 5
    },
    {
      "name": "SGY_q1_040",
      "sampler": 0,
      "source": 6
    },
    {
      "name": "SGY_Q1_002",
      "sampler": 0,
      "source": 7
    },
    {
      "name": "SGY_Q1_004",
      "sampler": 0,
      "source": 8
    },
    {
      "name": "SGY_q1_048",
      "sampler": 0,
      "source": 9
    },
    {
      "name": "SGY_Q1_009",
      "sampler": 0,
      "source": 10
    }
  ]
}
