{"asset":{"version":"2.0","generator":"babylon.js glTF exporter for 3dsmax 2022 v20240125.3"},"scene":0,"scenes":[{"nodes":[0]}],"nodes":[{"mesh":0,"name":"Box001"}],"meshes":[{"primitives":[{"attributes":{"POSITION":1,"NORMAL":2,"TEXCOORD_0":3},"indices":0,"material":0},{"attributes":{"POSITION":5,"NORMAL":6,"TEXCOORD_0":7},"indices":4,"material":1},{"attributes":{"POSITION":9,"NORMAL":10,"TEXCOORD_0":11},"indices":8,"material":2},{"attributes":{"POSITION":13,"NORMAL":14,"TEXCOORD_0":15},"indices":12,"material":3},{"attributes":{"POSITION":17,"NORMAL":18,"TEXCOORD_0":19},"indices":16,"material":4},{"attributes":{"POSITION":21,"NORMAL":22,"TEXCOORD_0":23},"indices":20,"material":5},{"attributes":{"POSITION":25,"NORMAL":26,"TEXCOORD_0":27},"indices":24,"material":6},{"attributes":{"POSITION":29,"NORMAL":30,"TEXCOORD_0":31},"indices":28,"material":7},{"attributes":{"POSITION":33,"NORMAL":34,"TEXCOORD_0":35},"indices":32,"material":8},{"attributes":{"POSITION":37,"NORMAL":38,"TEXCOORD_0":39},"indices":36,"material":9},{"attributes":{"POSITION":41,"NORMAL":42,"TEXCOORD_0":43},"indices":40,"material":10},{"attributes":{"POSITION":45,"NORMAL":46,"TEXCOORD_0":47},"indices":44,"material":11},{"attributes":{"POSITION":49,"NORMAL":50,"TEXCOORD_0":51},"indices":48,"material":12},{"attributes":{"POSITION":53,"NORMAL":54,"TEXCOORD_0":55},"indices":52,"material":13},{"attributes":{"POSITION":57,"NORMAL":58,"TEXCOORD_0":59},"indices":56,"material":14},{"attributes":{"POSITION":61,"NORMAL":62,"TEXCOORD_0":63},"indices":60,"material":15},{"attributes":{"POSITION":65,"NORMAL":66,"TEXCOORD_0":67},"indices":64,"material":16},{"attributes":{"POSITION":69,"NORMAL":70,"TEXCOORD_0":71},"indices":68,"material":17}],"name":"Box001"}],"accessors":[{"bufferView":0,"componentType":5123,"count":273,"type":"SCALAR","name":"accessorIndices"},{"bufferView":1,"componentType":5126,"count":168,"max":[32.3948059,81.2564545,31.2879848],"min":[-33.6268539,-75.6478,5.61063766],"type":"VEC3","name":"accessorPositions"},{"bufferView":1,"byteOffset":2016,"componentType":5126,"count":168,"type":"VEC3","name":"accessorNormals"},{"bufferView":2,"componentType":5126,"count":168,"type":"VEC2","name":"accessorUVs"},{"bufferView":0,"byteOffset":548,"componentType":5123,"count":144,"type":"SCALAR","name":"accessorIndices"},{"bufferView":1,"byteOffset":4032,"componentType":5126,"count":96,"max":[32.3948059,81.2564545,12.4348412],"min":[-33.6268539,-81.65767,-1.23977661E-05],"type":"VEC3","name":"accessorPositions"},{"bufferView":1,"byteOffset":5184,"componentType":5126,"count":96,"type":"VEC3","name":"accessorNormals"},{"bufferView":2,"byteOffset":1344,"componentType":5126,"count":96,"type":"VEC2","name":"accessorUVs"},{"bufferView":0,"byteOffset":836,"componentType":5123,"count":102,"type":"SCALAR","name":"accessorIndices"},{"bufferView":1,"byteOffset":6336,"componentType":5126,"count":46,"max":[32.3948059,81.2564545,18.1104736],"min":[-33.6268539,-46.06894,5.61064053],"type":"VEC3","name":"accessorPositions"},{"bufferView":1,"byteOffset":6888,"componentType":5126,"count":46,"type":"VEC3","name":"accessorNormals"},{"bufferView":2,"byteOffset":2112,"componentType":5126,"count":46,"type":"VEC2","name":"accessorUVs"},{"bufferView":0,"byteOffset":1040,"componentType":5123,"count":6,"type":"SCALAR","name":"accessorIndices"},{"bufferView":1,"byteOffset":7440,"componentType":5126,"count":4,"max":[32.3948059,81.2564545,5.61066151],"min":[1.91417122,81.2564545,1.45435333E-05],"type":"VEC3","name":"accessorPositions"},{"bufferView":1,"byteOffset":7488,"componentType":5126,"count":4,"type":"VEC3","name":"accessorNormals"},{"bufferView":2,"byteOffset":2480,"componentType":5126,"count":4,"type":"VEC2","name":"accessorUVs"},{"bufferView":0,"byteOffset":1052,"componentType":5123,"count":18,"type":"SCALAR","name":"accessorIndices"},{"bufferView":1,"byteOffset":7536,"componentType":5126,"count":12,"max":[-30.1929588,42.8584938,5.610655],"min":[-30.4075775,-55.4392433,-7.62939453E-06],"type":"VEC3","name":"accessorPositions"},{"bufferView":1,"byteOffset":7680,"componentType":5126,"count":12,"type":"VEC3","name":"accessorNormals"},{"bufferView":2,"byteOffset":2512,"componentType":5126,"count":12,"type":"VEC2","name":"accessorUVs"},{"bufferView":0,"byteOffset":1088,"componentType":5123,"count":18,"type":"SCALAR","name":"accessorIndices"},{"bufferView":1,"byteOffset":7824,"componentType":5126,"count":8,"max":[32.3948059,81.2564545,5.61066151],"min":[32.3948059,-64.8095551,-9.059906E-06],"type":"VEC3","name":"accessorPositions"},{"bufferView":1,"byteOffset":7920,"componentType":5126,"count":8,"type":"VEC3","name":"accessorNormals"},{"bufferView":2,"byteOffset":2608,"componentType":5126,"count":8,"type":"VEC2","name":"accessorUVs"},{"bufferView":0,"byteOffset":1124,"componentType":5123,"count":60,"type":"SCALAR","name":"accessorIndices"},{"bufferView":1,"byteOffset":8016,"componentType":5126,"count":28,"max":[-23.3374748,-64.8095551,25.8162537],"min":[-33.6268539,-75.6478,-1.09672546E-05],"type":"VEC3","name":"accessorPositions"},{"bufferView":1,"byteOffset":8352,"componentType":5126,"count":28,"type":"VEC3","name":"accessorNormals"},{"bufferView":2,"byteOffset":2672,"componentType":5126,"count":28,"type":"VEC2","name":"accessorUVs"},{"bufferView":0,"byteOffset":1244,"componentType":5123,"count":24,"type":"SCALAR","name":"accessorIndices"},{"bufferView":1,"byteOffset":8688,"componentType":5126,"count":16,"max":[-23.3374748,-64.80956,31.2879848],"min":[-33.6268539,-75.6478,25.8162518],"type":"VEC3","name":"accessorPositions"},{"bufferView":1,"byteOffset":8880,"componentType":5126,"count":16,"type":"VEC3","name":"accessorNormals"},{"bufferView":2,"byteOffset":2896,"componentType":5126,"count":16,"type":"VEC2","name":"accessorUVs"},{"bufferView":0,"byteOffset":1292,"componentType":5123,"count":27,"type":"SCALAR","name":"accessorIndices"},{"bufferView":1,"byteOffset":9072,"componentType":5126,"count":11,"max":[-19.0735836,-75.6478,21.4747314],"min":[-23.3374748,-75.6478,-1.12056732E-05],"type":"VEC3","name":"accessorPositions"},{"bufferView":1,"byteOffset":9204,"componentType":5126,"count":11,"type":"VEC3","name":"accessorNormals"},{"bufferView":2,"byteOffset":3024,"componentType":5126,"count":11,"type":"VEC2","name":"accessorUVs"},{"bufferView":0,"byteOffset":1348,"componentType":5123,"count":45,"type":"SCALAR","name":"accessorIndices"},{"bufferView":1,"byteOffset":9336,"componentType":5126,"count":23,"max":[24.2384243,-75.6478,21.4747314],"min":[-19.0763264,-75.6478,-1.12056732E-05],"type":"VEC3","name":"accessorPositions"},{"bufferView":1,"byteOffset":9612,"componentType":5126,"count":23,"type":"VEC3","name":"accessorNormals"},{"bufferView":2,"byteOffset":3112,"componentType":5126,"count":23,"type":"VEC2","name":"accessorUVs"},{"bufferView":0,"byteOffset":1440,"componentType":5123,"count":24,"type":"SCALAR","name":"accessorIndices"},{"bufferView":1,"byteOffset":9888,"componentType":5126,"count":10,"max":[32.3948059,-75.6478,21.4747314],"min":[24.2339058,-75.6478,5.61063766],"type":"VEC3","name":"accessorPositions"},{"bufferView":1,"byteOffset":10008,"componentType":5126,"count":10,"type":"VEC3","name":"accessorNormals"},{"bufferView":2,"byteOffset":3296,"componentType":5126,"count":10,"type":"VEC2","name":"accessorUVs"},{"bufferView":0,"byteOffset":1488,"componentType":5123,"count":6,"type":"SCALAR","name":"accessorIndices"},{"bufferView":1,"byteOffset":10128,"componentType":5126,"count":4,"max":[6.75412655,-81.65767,5.61063766],"min":[-2.1630373,-81.65767,-1.23977661E-05],"type":"VEC3","name":"accessorPositions"},{"bufferView":1,"byteOffset":10176,"componentType":5126,"count":4,"type":"VEC3","name":"accessorNormals"},{"bufferView":2,"byteOffset":3376,"componentType":5126,"count":4,"type":"VEC2","name":"accessorUVs"},{"bufferView":0,"byteOffset":1500,"componentType":5123,"count":114,"type":"SCALAR","name":"accessorIndices"},{"bufferView":1,"byteOffset":10224,"componentType":5126,"count":47,"max":[34.0044441,-46.06893,21.47473],"min":[-33.6268539,-75.6478,5.61063766],"type":"VEC3","name":"accessorPositions"},{"bufferView":1,"byteOffset":10788,"componentType":5126,"count":47,"type":"VEC3","name":"accessorNormals"},{"bufferView":2,"byteOffset":3408,"componentType":5126,"count":47,"type":"VEC2","name":"accessorUVs"},{"bufferView":0,"byteOffset":1728,"componentType":5123,"count":12,"type":"SCALAR","name":"accessorIndices"},{"bufferView":1,"byteOffset":11352,"componentType":5126,"count":6,"max":[34.0044441,-55.43925,19.8930626],"min":[34.0044441,-64.80956,12.4348173],"type":"VEC3","name":"accessorPositions"},{"bufferView":1,"byteOffset":11424,"componentType":5126,"count":6,"type":"VEC3","name":"accessorNormals"},{"bufferView":2,"byteOffset":3784,"componentType":5126,"count":6,"type":"VEC2","name":"accessorUVs"},{"bufferView":0,"byteOffset":1752,"componentType":5123,"count":15,"type":"SCALAR","name":"accessorIndices"},{"bufferView":1,"byteOffset":11496,"componentType":5126,"count":9,"max":[6.75412655,81.2564545,12.434844],"min":[-13.6524391,-81.65767,5.61063766],"type":"VEC3","name":"accessorPositions"},{"bufferView":1,"byteOffset":11604,"componentType":5126,"count":9,"type":"VEC3","name":"accessorNormals"},{"bufferView":2,"byteOffset":3832,"componentType":5126,"count":9,"type":"VEC2","name":"accessorUVs"},{"bufferView":0,"byteOffset":1784,"componentType":5123,"count":24,"type":"SCALAR","name":"accessorIndices"},{"bufferView":1,"byteOffset":11712,"componentType":5126,"count":16,"max":[32.3948059,81.2564545,21.4747257],"min":[-33.6268539,-46.06894,1.43051147E-05],"type":"VEC3","name":"accessorPositions"},{"bufferView":1,"byteOffset":11904,"componentType":5126,"count":16,"type":"VEC3","name":"accessorNormals"},{"bufferView":2,"byteOffset":3904,"componentType":5126,"count":16,"type":"VEC2","name":"accessorUVs"},{"bufferView":0,"byteOffset":1832,"componentType":5123,"count":6,"type":"SCALAR","name":"accessorIndices"},{"bufferView":1,"byteOffset":12096,"componentType":5126,"count":4,"max":[1.91417313,76.96408,5.61066055],"min":[-12.4576435,76.96408,1.38282776E-05],"type":"VEC3","name":"accessorPositions"},{"bufferView":1,"byteOffset":12144,"componentType":5126,"count":4,"type":"VEC3","name":"accessorNormals"},{"bufferView":2,"byteOffset":4032,"componentType":5126,"count":4,"type":"VEC2","name":"accessorUVs"},{"bufferView":0,"byteOffset":1844,"componentType":5123,"count":5814,"type":"SCALAR","name":"accessorIndices"},{"bufferView":1,"byteOffset":12192,"componentType":5126,"count":3302,"max":[29.3717365,81.65767,19.59128],"min":[-34.0044441,-76.06586,6.957815],"type":"VEC3","name":"accessorPositions"},{"bufferView":1,"byteOffset":51816,"componentType":5126,"count":3302,"type":"VEC3","name":"accessorNormals"},{"bufferView":2,"byteOffset":4064,"componentType":5126,"count":3302,"type":"VEC2","name":"accessorUVs"}],"bufferViews":[{"buffer":0,"byteLength":13472,"name":"bufferViewScalar"},{"buffer":0,"byteOffset":13472,"byteLength":91440,"byteStride":12,"name":"bufferViewFloatVec3"},{"buffer":0,"byteOffset":104912,"byteLength":30480,"byteStride":8,"name":"bufferViewFloatVec2"}],"buffers":[{"uri":"j_3hg.bin","byteLength":135392}],"materials":[{"pbrMetallicRoughness":{"baseColorTexture":{"index":0},"metallicFactor":0.0,"roughnessFactor":0.450053632},"name":"Material #742"},{"pbrMetallicRoughness":{"baseColorTexture":{"index":1},"metallicFactor":0.0,"roughnessFactor":0.450053632},"name":"Material #60"},{"pbrMetallicRoughness":{"baseColorTexture":{"index":2},"metallicFactor":0.0,"roughnessFactor":0.450053632},"name":"Material #37"},{"pbrMetallicRoughness":{"baseColorTexture":{"index":3},"metallicFactor":0.0,"roughnessFactor":0.450053632},"name":"Material #514"},{"pbrMetallicRoughness":{"baseColorTexture":{"index":4},"metallicFactor":0.0,"roughnessFactor":0.450053632},"name":"Material #83"},{"pbrMetallicRoughness":{"baseColorTexture":{"index":3},"metallicFactor":0.0,"roughnessFactor":0.450053632},"name":"Material #479"},{"pbrMetallicRoughness":{"baseColorTexture":{"index":5},"metallicFactor":0.0,"roughnessFactor":0.450053632},"name":"Material #120"},{"pbrMetallicRoughness":{"baseColorTexture":{"index":6},"metallicFactor":0.0,"roughnessFactor":0.450053632},"name":"Material #156"},{"pbrMetallicRoughness":{"baseColorTexture":{"index":7},"metallicFactor":0.0,"roughnessFactor":0.450053632},"name":"Material #169"},{"pbrMetallicRoughness":{"baseColorTexture":{"index":8},"metallicFactor":0.0,"roughnessFactor":0.450053632},"name":"Material #182"},{"pbrMetallicRoughness":{"baseColorTexture":{"index":9},"metallicFactor":0.0,"roughnessFactor":0.450053632},"name":"Material #209"},{"pbrMetallicRoughness":{"baseColorTexture":{"index":10},"metallicFactor":0.0,"roughnessFactor":0.450053632},"name":"Material #239"},{"pbrMetallicRoughness":{"baseColorTexture":{"index":11},"metallicFactor":0.0,"roughnessFactor":0.450053632},"name":"Material #394"},{"pbrMetallicRoughness":{"baseColorTexture":{"index":12},"metallicFactor":0.0,"roughnessFactor":0.450053632},"name":"Material #427"},{"pbrMetallicRoughness":{"baseColorTexture":{"index":11},"metallicFactor":0.0,"roughnessFactor":0.450053632},"name":"Material #550"},{"pbrMetallicRoughness":{"baseColorTexture":{"index":13},"metallicFactor":0.0,"roughnessFactor":0.450053632},"name":"Material #345"},{"pbrMetallicRoughness":{"baseColorTexture":{"index":10},"metallicFactor":0.0,"roughnessFactor":0.450053632},"name":"Material #661"},{"pbrMetallicRoughness":{"baseColorTexture":{"index":14},"metallicFactor":0.0,"roughnessFactor":0.450053632},"name":"Material #238"}],"textures":[{"sampler":0,"source":0,"name":"sg_2_017.jpg"},{"sampler":0,"source":1,"name":"sg_2_003.jpg"},{"sampler":0,"source":2,"name":"sg_2_002.jpg"},{"sampler":0,"source":3,"name":"sg_2_015.jpg"},{"sampler":0,"source":4,"name":"sg_2_004.jpg"},{"sampler":0,"source":5,"name":"sg_2_006.jpg"},{"sampler":0,"source":6,"name":"SGY_A009.jpg"},{"sampler":0,"source":7,"name":"sg_2_007.jpg"},{"sampler":0,"source":8,"name":"sg_2_008.jpg"},{"sampler":0,"source":9,"name":"sg_2_009.jpg"},{"sampler":0,"source":10,"name":"sg_2_011.jpg"},{"sampler":0,"source":11,"name":"sg_2_014.jpg"},{"sampler":0,"source":12,"name":"sg_2_013.jpg"},{"sampler":0,"source":13,"name":"sg_2_012.jpg"},{"sampler":0,"source":14,"name":"sg_2_010.jpg"}],"images":[{"uri":"sg_2_017.jpg"},{"uri":"sg_2_003.jpg"},{"uri":"sg_2_002.jpg"},{"uri":"sg_2_015.jpg"},{"uri":"sg_2_004.jpg"},{"uri":"sg_2_006.jpg"},{"uri":"SGY_A009.jpg"},{"uri":"sg_2_007.jpg"},{"uri":"sg_2_008.jpg"},{"uri":"sg_2_009.jpg"},{"uri":"sg_2_011.jpg"},{"uri":"sg_2_014.jpg"},{"uri":"sg_2_013.jpg"},{"uri":"sg_2_012.jpg"},{"uri":"sg_2_010.jpg"}],"samplers":[{"magFilter":9729,"minFilter":9987}]}