{
  "accessors": [
    {
      "name": "Cylinder006_1_0_positions",
      "componentType": 5126,
      "count": 468,
      "min": [
        -168.92379760742188,
        -27.759300231933594,
        0
      ],
      "max": [
        168.92379760742188,
        27.759300231933594,
        108.84030151367188
      ],
      "type": "VEC3",
      "bufferView": 0,
      "byteOffset": 0
    },
    {
      "name": "Cylinder006_1_0_normals",
      "componentType": 5126,
      "count": 468,
      "min": [
        -1,
        -1,
        -1
      ],
      "max": [
        1,
        1,
        1
      ],
      "type": "VEC3",
      "bufferView": 1,
      "byteOffset": 0
    },
    {
      "name": "Cylinder006_1_0_texcoords",
      "componentType": 5126,
      "count": 468,
      "min": [
        0,
        0
      ],
      "max": [
        1.0277999639511108,
        1
      ],
      "type": "VEC2",
      "bufferView": 2,
      "byteOffset": 0
    },
    {
      "name": "Cylinder006_1_0_indices",
      "componentType": 5123,
      "count": 1620,
      "min": [
        0
      ],
      "max": [
        467
      ],
      "type": "SCALAR",
      "bufferView": 3,
      "byteOffset": 0
    },
    {
      "name": "Cylinder006_1_1_positions",
      "componentType": 5126,
      "count": 25,
      "min": [
        -169.36050415039062,
        -23.16550064086914,
        57.769901275634766
      ],
      "max": [
        -169.36050415039062,
        22.520999908447266,
        103.4563980102539
      ],
      "type": "VEC3",
      "bufferView": 0,
      "byteOffset": 5616
    },
    {
      "name": "Cylinder006_1_1_normals",
      "componentType": 5126,
      "count": 25,
      "min": [
        -1,
        0,
        0
      ],
      "max": [
        -1,
        0,
        0
      ],
      "type": "VEC3",
      "bufferView": 1,
      "byteOffset": 5616
    },
    {
      "name": "Cylinder006_1_1_texcoords",
      "componentType": 5126,
      "count": 25,
      "min": [
        0,
        0
      ],
      "max": [
        1,
        1
      ],
      "type": "VEC2",
      "bufferView": 2,
      "byteOffset": 3744
    },
    {
      "name": "Cylinder006_1_1_indices",
      "componentType": 5123,
      "count": 96,
      "min": [
        0
      ],
      "max": [
        24
      ],
      "type": "SCALAR",
      "bufferView": 3,
      "byteOffset": 3240
    }
  ],
  "asset": {
    "generator": "obj2gltf",
    "version": "2.0"
  },
  "buffers": [
    {
      "name": "04logo",
      "byteLength": 19208,
      "uri": "data:application/octet-stream;base64,"
    }
  ],
  "bufferViews": [
    {
      "name": "bufferView_0",
      "buffer": 0,
      "byteLength": 5916,
      "byteOffset": 0,
      "byteStride": 12,
      "target": 34962
    },
    {
      "name": "bufferView_1",
      "buffer": 0,
      "byteLength": 5916,
      "byteOffset": 5916,
      "byteStride": 12,
      "target": 34962
    },
    {
      "name": "bufferView_2",
      "buffer": 0,
      "byteLength": 3944,
      "byteOffset": 11832,
      "byteStride": 8,
      "target": 34962
    },
    {
      "name": "bufferView_3",
      "buffer": 0,
      "byteLength": 3432,
      "byteOffset": 15776,
      "target": 34963
    }
  ],
  "images": [
    {
      "name": "SG_003",
      "uri": "SG_003.jpg"
    },
    {
      "name": "00111",
      "uri": "00111.png"
    }
  ],
  "materials": [
    {
      "name": "SG04_Material__78",
      "pbrMetallicRoughness": {
        "baseColorTexture": {
          "index": 0
        },
        "baseColorFactor": [
          1,
          1,
          1,
          1
        ],
        "metallicFactor": 0,
        "roughnessFactor": 0.99
      },
      "emissiveFactor": [
        0,
        0,
        0
      ],
      "alphaMode": "OPAQUE",
      "doubleSided": false
    },
    {
      "name": "Material__38",
      "pbrMetallicRoughness": {
        "baseColorTexture": {
          "index": 1
        },
        "baseColorFactor": [
          1,
          1,
          1,
          1
        ],
        "metallicFactor": 0,
        "roughnessFactor": 0.99
      },
      "emissiveFactor": [
        0,
        0,
        0
      ],
      "alphaMode": "BLEND",
      "doubleSided": true
    }
  ],
  "meshes": [
    {
      "name": "Cylinder006_1",
      "primitives": [
        {
          "attributes": {
            "POSITION": 0,
            "NORMAL": 1,
            "TEXCOORD_0": 2
          },
          "indices": 3,
          "material": 0,
          "mode": 4
        },
        {
          "attributes": {
            "POSITION": 4,
            "NORMAL": 5,
            "TEXCOORD_0": 6
          },
          "indices": 7,
          "material": 1,
          "mode": 4
        }
      ]
    }
  ],
  "nodes": [
    {
      "name": "Cylinder006",
      "mesh": 0
    }
  ],
  "samplers": [
    {
      "wrapS": 10497,
      "wrapT": 10497
    }
  ],
  "scene": 0,
  "scenes": [
    {
      "nodes": [
        0
      ]
    }
  ],
  "textures": [
    {
      "name": "SG_003",
      "sampler": 0,
      "source": 0
    },
    {
      "name": "00111",
      "sampler": 0,
      "source": 1
    }
  ]
}
