{
  "accessors": [
    {
      "name": "Cylinder007_1_0_positions",
      "componentType": 5126,
      "count": 56,
      "min": [
        2.1823999881744385,
        -16.493600845336914,
        -0.0031999999191612005
      ],
      "max": [
        4.946400165557861,
        16.873699188232422,
        6.1605000495910645
      ],
      "type": "VEC3",
      "bufferView": 0,
      "byteOffset": 0
    },
    {
      "name": "Cylinder007_1_0_normals",
      "componentType": 5126,
      "count": 56,
      "min": [
        0.5000110268592834,
        -0.866019070148468,
        0
      ],
      "max": [
        1,
        0.866019070148468,
        0
      ],
      "type": "VEC3",
      "bufferView": 1,
      "byteOffset": 0
    },
    {
      "name": "Cylinder007_1_0_texcoords",
      "componentType": 5126,
      "count": 56,
      "min": [
        0,
        0
      ],
      "max": [
        2.001499891281128,
        1
      ],
      "type": "VEC2",
      "bufferView": 2,
      "byteOffset": 0
    },
    {
      "name": "Cylinder007_1_0_indices",
      "componentType": 5123,
      "count": 144,
      "min": [
        0
      ],
      "max": [
        55
      ],
      "type": "SCALAR",
      "bufferView": 3,
      "byteOffset": 0
    },
    {
      "name": "Cylinder007_1_1_positions",
      "componentType": 5126,
      "count": 40,
      "min": [
        -5.29010009765625,
        -17.940399169921875,
        6.462500095367432
      ],
      "max": [
        5.29010009765625,
        17.940399169921875,
        6.997099876403809
      ],
      "type": "VEC3",
      "bufferView": 0,
      "byteOffset": 672
    },
    {
      "name": "Cylinder007_1_1_normals",
      "componentType": 5126,
      "count": 40,
      "min": [
        -1,
        -1,
        0
      ],
      "max": [
        1,
        1,
        1
      ],
      "type": "VEC3",
      "bufferView": 1,
      "byteOffset": 672
    },
    {
      "name": "Cylinder007_1_1_texcoords",
      "componentType": 5126,
      "count": 40,
      "min": [
        0,
        -1.9510999917984009
      ],
      "max": [
        1,
        1
      ],
      "type": "VEC2",
      "bufferView": 2,
      "byteOffset": 448
    },
    {
      "name": "Cylinder007_1_1_indices",
      "componentType": 5123,
      "count": 84,
      "min": [
        0
      ],
      "max": [
        39
      ],
      "type": "SCALAR",
      "bufferView": 3,
      "byteOffset": 288
    },
    {
      "name": "Cylinder007_1_2_positions",
      "componentType": 5126,
      "count": 34,
      "min": [
        -5.29010009765625,
        -17.940399169921875,
        0
      ],
      "max": [
        5.29010009765625,
        17.940399169921875,
        6.997099876403809
      ],
      "type": "VEC3",
      "bufferView": 0,
      "byteOffset": 1152
    },
    {
      "name": "Cylinder007_1_2_normals",
      "componentType": 5126,
      "count": 34,
      "min": [
        -1,
        -1,
        -1
      ],
      "max": [
        1,
        1,
        0
      ],
      "type": "VEC3",
      "bufferView": 1,
      "byteOffset": 1152
    },
    {
      "name": "Cylinder007_1_2_texcoords",
      "componentType": 5126,
      "count": 34,
      "min": [
        0,
        -0.026599999517202377
      ],
      "max": [
        4.633500099182129,
        1
      ],
      "type": "VEC2",
      "bufferView": 2,
      "byteOffset": 768
    },
    {
      "name": "Cylinder007_1_2_indices",
      "componentType": 5123,
      "count": 54,
      "min": [
        0
      ],
      "max": [
        33
      ],
      "type": "SCALAR",
      "bufferView": 3,
      "byteOffset": 456
    },
    {
      "name": "Cylinder007_1_3_positions",
      "componentType": 5126,
      "count": 240,
      "min": [
        4.745800018310547,
        -13.106399536132812,
        6.980299949645996
      ],
      "max": [
        4.946400165557861,
        12.063300132751465,
        8.291999816894531
      ],
      "type": "VEC3",
      "bufferView": 0,
      "byteOffset": 1560
    },
    {
      "name": "Cylinder007_1_3_normals",
      "componentType": 5126,
      "count": 240,
      "min": [
        -1,
        -0.9999088644981384,
        -1
      ],
      "max": [
        1,
        1,
        1
      ],
      "type": "VEC3",
      "bufferView": 1,
      "byteOffset": 1560
    },
    {
      "name": "Cylinder007_1_3_texcoords",
      "componentType": 5126,
      "count": 240,
      "min": [
        0.010099999606609344,
        0.010200000368058681
      ],
      "max": [
        0.9868000149726868,
        0.28349998593330383
      ],
      "type": "VEC2",
      "bufferView": 2,
      "byteOffset": 1040
    },
    {
      "name": "Cylinder007_1_3_indices",
      "componentType": 5123,
      "count": 408,
      "min": [
        0
      ],
      "max": [
        239
      ],
      "type": "SCALAR",
      "bufferView": 3,
      "byteOffset": 564
    }
  ],
  "asset": {
    "generator": "obj2gltf",
    "version": "2.0"
  },
  "buffers": [
    {
      "name": "3_jz02",
      "byteLength": 13220,
      "uri": "data:application/octet-stream;base64,"
    }
  ],
  "bufferViews": [
    {
      "name": "bufferView_0",
      "buffer": 0,
      "byteLength": 4440,
      "byteOffset": 0,
      "byteStride": 12,
      "target": 34962
    },
    {
      "name": "bufferView_1",
      "buffer": 0,
      "byteLength": 4440,
      "byteOffset": 4440,
      "byteStride": 12,
      "target": 34962
    },
    {
      "name": "bufferView_2",
      "buffer": 0,
      "byteLength": 2960,
      "byteOffset": 8880,
      "byteStride": 8,
      "target": 34962
    },
    {
      "name": "bufferView_3",
      "buffer": 0,
      "byteLength": 1380,
      "byteOffset": 11840,
      "target": 34963
    }
  ],
  "images": [
    {
      "name": "SGY_Q1_009",
      "uri": "SGY_Q1_009.jpg"
    },
    {
      "name": "SGY_Q1_010",
      "uri": "SGY_Q1_010.jpg"
    },
    {
      "name": "SGY_Q1_008",
      "uri": "SGY_Q1_008.jpg"
    },
    {
      "name": "SGY_Q1_011",
      "uri": "SGY_Q1_011.jpg"
    }
  ],
  "materials": [
    {
      "name": "Material__26",
      "pbrMetallicRoughness": {
        "baseColorTexture": {
          "index": 0
        },
        "baseColorFactor": [
          1,
          1,
          1,
          1
        ],
        "metallicFactor": 0,
        "roughnessFactor": 0.99
      },
      "emissiveFactor": [
        0,
        0,
        0
      ],
      "alphaMode": "OPAQUE",
      "doubleSided": false
    },
    {
      "name": "Material__27",
      "pbrMetallicRoughness": {
        "baseColorTexture": {
          "index": 1
        },
        "baseColorFactor": [
          1,
          1,
          1,
          1
        ],
        "metallicFactor": 0,
        "roughnessFactor": 0.99
      },
      "emissiveFactor": [
        0,
        0,
        0
      ],
      "alphaMode": "OPAQUE",
      "doubleSided": false
    },
    {
      "name": "Material__25",
      "pbrMetallicRoughness": {
        "baseColorTexture": {
          "index": 2
        },
        "baseColorFactor": [
          1,
          1,
          1,
          1
        ],
        "metallicFactor": 0,
        "roughnessFactor": 0.99
      },
      "emissiveFactor": [
        0,
        0,
        0
      ],
      "alphaMode": "OPAQUE",
      "doubleSided": false
    },
    {
      "name": "Material__52",
      "pbrMetallicRoughness": {
        "baseColorTexture": {
          "index": 3
        },
        "baseColorFactor": [
          1,
          1,
          1,
          1
        ],
        "metallicFactor": 0,
        "roughnessFactor": 0.99
      },
      "emissiveFactor": [
        0,
        0,
        0
      ],
      "alphaMode": "OPAQUE",
      "doubleSided": false
    }
  ],
  "meshes": [
    {
      "name": "Cylinder007_1",
      "primitives": [
        {
          "attributes": {
            "POSITION": 0,
            "NORMAL": 1,
            "TEXCOORD_0": 2
          },
          "indices": 3,
          "material": 0,
          "mode": 4
        },
        {
          "attributes": {
            "POSITION": 4,
            "NORMAL": 5,
            "TEXCOORD_0": 6
          },
          "indices": 7,
          "material": 1,
          "mode": 4
        },
        {
          "attributes": {
            "POSITION": 8,
            "NORMAL": 9,
            "TEXCOORD_0": 10
          },
          "indices": 11,
          "material": 2,
          "mode": 4
        },
        {
          "attributes": {
            "POSITION": 12,
            "NORMAL": 13,
            "TEXCOORD_0": 14
          },
          "indices": 15,
          "material": 3,
          "mode": 4
        }
      ]
    }
  ],
  "nodes": [
    {
      "name": "Cylinder007",
      "mesh": 0
    }
  ],
  "samplers": [
    {
      "wrapS": 10497,
      "wrapT": 10497
    }
  ],
  "scene": 0,
  "scenes": [
    {
      "nodes": [
        0
      ]
    }
  ],
  "textures": [
    {
      "name": "SGY_Q1_009",
      "sampler": 0,
      "source": 0
    },
    {
      "name": "SGY_Q1_010",
      "sampler": 0,
      "source": 1
    },
    {
      "name": "SGY_Q1_008",
      "sampler": 0,
      "source": 2
    },
    {
      "name": "SGY_Q1_011",
      "sampler": 0,
      "source": 3
    }
  ]
}
