{"asset":{"version":"2.0","generator":"babylon.js glTF exporter for 3dsmax 2022 v20240125.3"},"scene":0,"scenes":[{"nodes":[0]}],"nodes":[{"mesh":0,"name":"Cylinder001"}],"meshes":[{"primitives":[{"attributes":{"POSITION":1,"NORMAL":2,"TEXCOORD_0":3},"indices":0,"material":0},{"attributes":{"POSITION":5,"NORMAL":6,"TEXCOORD_0":7},"indices":4,"material":1},{"attributes":{"POSITION":9,"NORMAL":10,"TEXCOORD_0":11},"indices":8,"material":2},{"attributes":{"POSITION":13,"NORMAL":14,"TEXCOORD_0":15},"indices":12,"material":3}],"name":"Cylinder001"}],"accessors":[{"bufferView":0,"componentType":5123,"count":114,"type":"SCALAR","name":"accessorIndices"},{"bufferView":1,"componentType":5126,"count":72,"max":[5.0,5.0,0.1765548],"min":[-5.0,-5.00000048,-5.96046448E-07],"type":"VEC3","name":"accessorPositions"},{"bufferView":1,"byteOffset":864,"componentType":5126,"count":72,"type":"VEC3","name":"accessorNormals"},{"bufferView":2,"componentType":5126,"count":72,"type":"VEC2","name":"accessorUVs"},{"bufferView":0,"byteOffset":228,"componentType":5123,"count":672,"type":"SCALAR","name":"accessorIndices"},{"bufferView":1,"byteOffset":1728,"componentType":5126,"count":418,"max":[4.267767,4.267767,10.3247242],"min":[-4.267767,-4.267767,0.176552713],"type":"VEC3","name":"accessorPositions"},{"bufferView":1,"byteOffset":6744,"componentType":5126,"count":418,"type":"VEC3","name":"accessorNormals"},{"bufferView":2,"byteOffset":576,"componentType":5126,"count":418,"type":"VEC2","name":"accessorUVs"},{"bufferView":0,"byteOffset":1572,"componentType":5123,"count":915,"type":"SCALAR","name":"accessorIndices"},{"bufferView":1,"byteOffset":11760,"componentType":5126,"count":441,"max":[4.267767,4.267767,10.3247242],"min":[-4.267767,-4.267768,0.176552713],"type":"VEC3","name":"accessorPositions"},{"bufferView":1,"byteOffset":17052,"componentType":5126,"count":441,"type":"VEC3","name":"accessorNormals"},{"bufferView":2,"byteOffset":3920,"componentType":5126,"count":441,"type":"VEC2","name":"accessorUVs"},{"bufferView":0,"byteOffset":3404,"componentType":5123,"count":432,"type":"SCALAR","name":"accessorIndices"},{"bufferView":1,"byteOffset":22344,"componentType":5126,"count":288,"max":[2.98277664,2.98277664,9.500201],"min":[-2.98277736,-2.9827776,4.57311249],"type":"VEC3","name":"accessorPositions"},{"bufferView":1,"byteOffset":25800,"componentType":5126,"count":288,"type":"VEC3","name":"accessorNormals"},{"bufferView":2,"byteOffset":7448,"componentType":5126,"count":288,"type":"VEC2","name":"accessorUVs"}],"bufferViews":[{"buffer":0,"byteLength":4268,"name":"bufferViewScalar"},{"buffer":0,"byteOffset":4268,"byteLength":29256,"byteStride":12,"name":"bufferViewFloatVec3"},{"buffer":0,"byteOffset":33524,"byteLength":9752,"byteStride":8,"name":"bufferViewFloatVec2"}],"buffers":[{"uri":"sgy_ydhj_05.bin","byteLength":43276}],"materials":[{"pbrMetallicRoughness":{"baseColorTexture":{"index":0},"metallicFactor":0.0,"roughnessFactor":0.450053632},"name":"Material #46577"},{"pbrMetallicRoughness":{"baseColorTexture":{"index":1},"metallicFactor":0.0,"roughnessFactor":0.450053632},"name":"Material #46543"},{"pbrMetallicRoughness":{"baseColorTexture":{"index":2},"metallicFactor":0.0,"roughnessFactor":0.450053632},"name":"Material #46531"},{"pbrMetallicRoughness":{"baseColorTexture":{"index":3},"metallicFactor":0.0,"roughnessFactor":0.450053632},"name":"Material #46589"}],"textures":[{"sampler":0,"source":0,"name":"shhw_q_03.jpg"},{"sampler":0,"source":1,"name":"sgy_yd_09.png"},{"sampler":0,"source":2,"name":"sgy_yd_08.png"},{"sampler":0,"source":3,"name":"sgy_yd_10.png"}],"images":[{"uri":"shhw_q_03.jpg"},{"uri":"sgy_yd_09.png"},{"uri":"sgy_yd_08.png"},{"uri":"sgy_yd_10.png"}],"samplers":[{"magFilter":9729,"minFilter":9987}]}