{"asset":{"version":"2.0","generator":"babylon.js glTF exporter for 3dsmax 2022 v20240125.3"},"scene":0,"scenes":[{"nodes":[0]}],"nodes":[{"mesh":0,"translation":[0.0,2.56299973E-06,0.0],"name":"Box028"}],"meshes":[{"primitives":[{"attributes":{"POSITION":1,"NORMAL":2,"TEXCOORD_0":3},"indices":0,"material":0},{"attributes":{"POSITION":5,"NORMAL":6,"TEXCOORD_0":7},"indices":4,"material":1},{"attributes":{"POSITION":9,"NORMAL":10,"TEXCOORD_0":11},"indices":8,"material":2},{"attributes":{"POSITION":13,"NORMAL":14,"TEXCOORD_0":15},"indices":12,"material":3},{"attributes":{"POSITION":17,"NORMAL":18,"TEXCOORD_0":19},"indices":16,"material":4},{"attributes":{"POSITION":21,"NORMAL":22,"TEXCOORD_0":23},"indices":20,"material":5},{"attributes":{"POSITION":25,"NORMAL":26,"TEXCOORD_0":27},"indices":24,"material":6},{"attributes":{"POSITION":29,"NORMAL":30,"TEXCOORD_0":31},"indices":28,"material":7},{"attributes":{"POSITION":33,"NORMAL":34,"TEXCOORD_0":35},"indices":32,"material":8},{"attributes":{"POSITION":37,"NORMAL":38,"TEXCOORD_0":39},"indices":36,"material":9},{"attributes":{"POSITION":41,"NORMAL":42,"TEXCOORD_0":43},"indices":40,"material":10}],"name":"Box028"}],"accessors":[{"bufferView":0,"componentType":5123,"count":39,"type":"SCALAR","name":"accessorIndices"},{"bufferView":1,"componentType":5126,"count":23,"max":[9.585147,56.1795158,33.84891],"min":[-8.958413,-45.32781,33.8489],"type":"VEC3","name":"accessorPositions"},{"bufferView":1,"byteOffset":276,"componentType":5126,"count":23,"type":"VEC3","name":"accessorNormals"},{"bufferView":2,"componentType":5126,"count":23,"type":"VEC2","name":"accessorUVs"},{"bufferView":0,"byteOffset":80,"componentType":5123,"count":12,"type":"SCALAR","name":"accessorIndices"},{"bufferView":1,"byteOffset":552,"componentType":5126,"count":8,"max":[10.4071045,-57.4547424,26.96347],"min":[-10.4584122,-57.47562,-1.38730593E-05],"type":"VEC3","name":"accessorPositions"},{"bufferView":1,"byteOffset":648,"componentType":5126,"count":8,"type":"VEC3","name":"accessorNormals"},{"bufferView":2,"byteOffset":184,"componentType":5126,"count":8,"type":"VEC2","name":"accessorUVs"},{"bufferView":0,"byteOffset":104,"componentType":5123,"count":36,"type":"SCALAR","name":"accessorIndices"},{"bufferView":1,"byteOffset":744,"componentType":5126,"count":26,"max":[9.24115,55.67955,33.8489151],"min":[-8.95841,-44.827858,27.58906],"type":"VEC3","name":"accessorPositions"},{"bufferView":1,"byteOffset":1056,"componentType":5126,"count":26,"type":"VEC3","name":"accessorNormals"},{"bufferView":2,"byteOffset":248,"componentType":5126,"count":26,"type":"VEC2","name":"accessorUVs"},{"bufferView":0,"byteOffset":176,"componentType":5123,"count":951,"type":"SCALAR","name":"accessorIndices"},{"bufferView":1,"byteOffset":1368,"componentType":5126,"count":569,"max":[12.5853148,59.5429535,34.4713936],"min":[-12.5852966,-59.5429268,8.244003],"type":"VEC3","name":"accessorPositions"},{"bufferView":1,"byteOffset":8196,"componentType":5126,"count":569,"type":"VEC3","name":"accessorNormals"},{"bufferView":2,"byteOffset":456,"componentType":5126,"count":569,"type":"VEC2","name":"accessorUVs"},{"bufferView":0,"byteOffset":2080,"componentType":5123,"count":144,"type":"SCALAR","name":"accessorIndices"},{"bufferView":1,"byteOffset":15024,"componentType":5126,"count":110,"max":[4.586733,55.67955,33.8489265],"min":[-8.958435,-44.827858,27.58906],"type":"VEC3","name":"accessorPositions"},{"bufferView":1,"byteOffset":16344,"componentType":5126,"count":110,"type":"VEC3","name":"accessorNormals"},{"bufferView":2,"byteOffset":5008,"componentType":5126,"count":110,"type":"VEC2","name":"accessorUVs"},{"bufferView":0,"byteOffset":2368,"componentType":5123,"count":18,"type":"SCALAR","name":"accessorIndices"},{"bufferView":1,"byteOffset":17664,"componentType":5126,"count":12,"max":[9.901794,56.9295044,27.5890675],"min":[-9.901795,-46.8278275,8.869553],"type":"VEC3","name":"accessorPositions"},{"bufferView":1,"byteOffset":17808,"componentType":5126,"count":12,"type":"VEC3","name":"accessorNormals"},{"bufferView":2,"byteOffset":5888,"componentType":5126,"count":12,"type":"VEC2","name":"accessorUVs"},{"bufferView":0,"byteOffset":2404,"componentType":5123,"count":6,"type":"SCALAR","name":"accessorIndices"},{"bufferView":1,"byteOffset":17952,"componentType":5126,"count":4,"max":[10.4071045,-46.82785,26.9634724],"min":[-10.4584122,-46.8278542,-1.023097E-05],"type":"VEC3","name":"accessorPositions"},{"bufferView":1,"byteOffset":18000,"componentType":5126,"count":4,"type":"VEC3","name":"accessorNormals"},{"bufferView":2,"byteOffset":5984,"componentType":5126,"count":4,"type":"VEC2","name":"accessorUVs"},{"bufferView":0,"byteOffset":2416,"componentType":5123,"count":30,"type":"SCALAR","name":"accessorIndices"},{"bufferView":1,"byteOffset":18048,"componentType":5126,"count":18,"max":[10.4071045,-46.82785,26.9634724],"min":[-10.4584122,-57.47562,-1.38730593E-05],"type":"VEC3","name":"accessorPositions"},{"bufferView":1,"byteOffset":18264,"componentType":5126,"count":18,"type":"VEC3","name":"accessorNormals"},{"bufferView":2,"byteOffset":6016,"componentType":5126,"count":18,"type":"VEC2","name":"accessorUVs"},{"bufferView":0,"byteOffset":2476,"componentType":5123,"count":132,"type":"SCALAR","name":"accessorIndices"},{"bufferView":1,"byteOffset":18480,"componentType":5126,"count":50,"max":[10.4071045,57.6795349,8.244021],"min":[-10.4584122,-46.82785,-1.023097E-05],"type":"VEC3","name":"accessorPositions"},{"bufferView":1,"byteOffset":19080,"componentType":5126,"count":50,"type":"VEC3","name":"accessorNormals"},{"bufferView":2,"byteOffset":6160,"componentType":5126,"count":50,"type":"VEC2","name":"accessorUVs"},{"bufferView":0,"byteOffset":2740,"componentType":5123,"count":120,"type":"SCALAR","name":"accessorIndices"},{"bufferView":1,"byteOffset":19680,"componentType":5126,"count":431,"max":[12.5853138,59.5429535,33.8489265],"min":[-12.5852966,-57.47562,-1.38730593E-05],"type":"VEC3","name":"accessorPositions"},{"bufferView":1,"byteOffset":24852,"componentType":5126,"count":431,"type":"VEC3","name":"accessorNormals"},{"bufferView":2,"byteOffset":6560,"componentType":5126,"count":431,"type":"VEC2","name":"accessorUVs"},{"bufferView":0,"byteOffset":2980,"componentType":5123,"count":414,"type":"SCALAR","name":"accessorIndices"},{"bufferView":1,"byteOffset":30024,"componentType":5126,"count":278,"max":[12.2694778,59.22453,29.43142],"min":[-12.31362,-58.98439,8.869547],"type":"VEC3","name":"accessorPositions"},{"bufferView":1,"byteOffset":33360,"componentType":5126,"count":278,"type":"VEC3","name":"accessorNormals"},{"bufferView":2,"byteOffset":10008,"componentType":5126,"count":278,"type":"VEC2","name":"accessorUVs"}],"bufferViews":[{"buffer":0,"byteLength":3808,"name":"bufferViewScalar"},{"buffer":0,"byteOffset":3808,"byteLength":36696,"byteStride":12,"name":"bufferViewFloatVec3"},{"buffer":0,"byteOffset":40504,"byteLength":12232,"byteStride":8,"name":"bufferViewFloatVec2"}],"buffers":[{"uri":"sgy_xw_01.bin","byteLength":52736}],"materials":[{"pbrMetallicRoughness":{"baseColorTexture":{"index":0},"metallicFactor":0.0,"roughnessFactor":0.450053632},"name":"Material #46068"},{"pbrMetallicRoughness":{"baseColorTexture":{"index":1},"metallicFactor":0.0,"roughnessFactor":0.450053632},"name":"Material #45985"},{"pbrMetallicRoughness":{"baseColorTexture":{"index":2},"metallicFactor":0.0,"roughnessFactor":0.450053632},"name":"Material #46080"},{"pbrMetallicRoughness":{"baseColorTexture":{"index":3},"metallicFactor":0.0,"roughnessFactor":0.450053632},"name":"Material #46010"},{"pbrMetallicRoughness":{"baseColorTexture":{"index":4},"metallicFactor":0.0,"roughnessFactor":0.450053632},"name":"Material #46092"},{"pbrMetallicRoughness":{"baseColorTexture":{"index":5},"metallicFactor":0.0,"roughnessFactor":0.450053632},"name":"Material #46127"},{"pbrMetallicRoughness":{"baseColorTexture":{"index":6},"metallicFactor":0.0,"roughnessFactor":0.450053632},"name":"Material #45997"},{"pbrMetallicRoughness":{"baseColorTexture":{"index":7},"metallicFactor":0.0,"roughnessFactor":0.450053632},"name":"Material #46022"},{"pbrMetallicRoughness":{"baseColorTexture":{"index":8},"metallicFactor":0.0,"roughnessFactor":0.450053632},"name":"Material #46214"},{"pbrMetallicRoughness":{"baseColorTexture":{"index":9},"metallicFactor":0.0,"roughnessFactor":0.450053632},"name":"Material #46238"},{"pbrMetallicRoughness":{"baseColorTexture":{"index":10},"metallicFactor":0.0,"roughnessFactor":0.450053632},"name":"Material #46163"}],"textures":[{"sampler":0,"source":0,"name":"sgy_xw_006.png"},{"sampler":0,"source":1,"name":"sgy_xw_001.png"},{"sampler":0,"source":2,"name":"sgy_xw_007.png"},{"sampler":0,"source":3,"name":"xgy_xw_004.jpg"},{"sampler":0,"source":4,"name":"sgy_xw_008.png"},{"sampler":0,"source":5,"name":"011.jpg"},{"sampler":0,"source":6,"name":"xgy_xw_002.jpg"},{"sampler":0,"source":7,"name":"sgy_xw_005.png"},{"sampler":0,"source":8,"name":"SGY_q1_142.jpg"},{"sampler":0,"source":9,"name":"xgy_xw_003.jpg"},{"sampler":0,"source":10,"name":"sgy_3q_40.png"}],"images":[{"uri":"sgy_xw_006.png"},{"uri":"sgy_xw_001.png"},{"uri":"sgy_xw_007.png"},{"uri":"xgy_xw_004.jpg"},{"uri":"sgy_xw_008.png"},{"uri":"011.jpg"},{"uri":"xgy_xw_002.jpg"},{"uri":"sgy_xw_005.png"},{"uri":"SGY_q1_142.jpg"},{"uri":"xgy_xw_003.jpg"},{"uri":"sgy_3q_40.png"}],"samplers":[{"magFilter":9729,"minFilter":9987}]}