{
  "accessors": [
    {
      "name": "Box009_1_0_positions",
      "componentType": 5126,
      "count": 245,
      "min": [
        -35,
        -8.74530029296875,
        0
      ],
      "max": [
        35,
        11.517999649047852,
        31.820899963378906
      ],
      "type": "VEC3",
      "bufferView": 0,
      "byteOffset": 0
    },
    {
      "name": "Box009_1_0_normals",
      "componentType": 5126,
      "count": 245,
      "min": [
        -1,
        -1,
        -1
      ],
      "max": [
        1,
        1,
        1
      ],
      "type": "VEC3",
      "bufferView": 1,
      "byteOffset": 0
    },
    {
      "name": "Box009_1_0_texcoords",
      "componentType": 5126,
      "count": 245,
      "min": [
        -1.69760000705719,
        -3.0046000480651855
      ],
      "max": [
        2.6975998878479004,
        3.359600067138672
      ],
      "type": "VEC2",
      "bufferView": 2,
      "byteOffset": 0
    },
    {
      "name": "Box009_1_0_indices",
      "componentType": 5123,
      "count": 432,
      "min": [
        0
      ],
      "max": [
        244
      ],
      "type": "SCALAR",
      "bufferView": 3,
      "byteOffset": 0
    },
    {
      "name": "Box009_1_1_positions",
      "componentType": 5126,
      "count": 8,
      "min": [
        -35,
        2.654400110244751,
        0.5
      ],
      "max": [
        35,
        4.381700038909912,
        24.799100875854492
      ],
      "type": "VEC3",
      "bufferView": 0,
      "byteOffset": 2940
    },
    {
      "name": "Box009_1_1_normals",
      "componentType": 5126,
      "count": 8,
      "min": [
        -1,
        0,
        0
      ],
      "max": [
        1,
        0,
        0
      ],
      "type": "VEC3",
      "bufferView": 1,
      "byteOffset": 2940
    },
    {
      "name": "Box009_1_1_texcoords",
      "componentType": 5126,
      "count": 8,
      "min": [
        0.08479999750852585,
        -1.6028000116348267
      ],
      "max": [
        0.44339999556541443,
        3.2571001052856445
      ],
      "type": "VEC2",
      "bufferView": 2,
      "byteOffset": 1960
    },
    {
      "name": "Box009_1_1_indices",
      "componentType": 5123,
      "count": 12,
      "min": [
        0
      ],
      "max": [
        7
      ],
      "type": "SCALAR",
      "bufferView": 3,
      "byteOffset": 864
    },
    {
      "name": "Box009_1_2_positions",
      "componentType": 5126,
      "count": 27,
      "min": [
        -34.519798278808594,
        -4.48199987411499,
        0
      ],
      "max": [
        34.51969909667969,
        11.517999649047852,
        29.704200744628906
      ],
      "type": "VEC3",
      "bufferView": 0,
      "byteOffset": 3036
    },
    {
      "name": "Box009_1_2_normals",
      "componentType": 5126,
      "count": 27,
      "min": [
        0,
        -1,
        0
      ],
      "max": [
        0,
        1,
        0
      ],
      "type": "VEC3",
      "bufferView": 1,
      "byteOffset": 3036
    },
    {
      "name": "Box009_1_2_texcoords",
      "componentType": 5126,
      "count": 27,
      "min": [
        -8.082799911499023,
        -0.9851999878883362
      ],
      "max": [
        9.779899597167969,
        1.985200047492981
      ],
      "type": "VEC2",
      "bufferView": 2,
      "byteOffset": 2024
    },
    {
      "name": "Box009_1_2_indices",
      "componentType": 5123,
      "count": 48,
      "min": [
        0
      ],
      "max": [
        26
      ],
      "type": "SCALAR",
      "bufferView": 3,
      "byteOffset": 888
    },
    {
      "name": "Box009_1_3_positions",
      "componentType": 5126,
      "count": 952,
      "min": [
        -38.227500915527344,
        -10.199000358581543,
        0
      ],
      "max": [
        38.227500915527344,
        12.017999649047852,
        31.820899963378906
      ],
      "type": "VEC3",
      "bufferView": 0,
      "byteOffset": 3360
    },
    {
      "name": "Box009_1_3_normals",
      "componentType": 5126,
      "count": 952,
      "min": [
        -1,
        -1,
        -1
      ],
      "max": [
        1,
        1,
        1
      ],
      "type": "VEC3",
      "bufferView": 1,
      "byteOffset": 3360
    },
    {
      "name": "Box009_1_3_texcoords",
      "componentType": 5126,
      "count": 952,
      "min": [
        0,
        0
      ],
      "max": [
        1,
        1
      ],
      "type": "VEC2",
      "bufferView": 2,
      "byteOffset": 2240
    },
    {
      "name": "Box009_1_3_indices",
      "componentType": 5123,
      "count": 1506,
      "min": [
        0
      ],
      "max": [
        951
      ],
      "type": "SCALAR",
      "bufferView": 3,
      "byteOffset": 984
    },
    {
      "name": "Box009_1_4_positions",
      "componentType": 5126,
      "count": 581,
      "min": [
        -35.70000076293945,
        -12.218000411987305,
        25.61870002746582
      ],
      "max": [
        35.70000076293945,
        12.218000411987305,
        38.82270050048828
      ],
      "type": "VEC3",
      "bufferView": 0,
      "byteOffset": 14784
    },
    {
      "name": "Box009_1_4_normals",
      "componentType": 5126,
      "count": 581,
      "min": [
        -1,
        -1,
        -0.9455363750457764
      ],
      "max": [
        1,
        1,
        1
      ],
      "type": "VEC3",
      "bufferView": 1,
      "byteOffset": 14784
    },
    {
      "name": "Box009_1_4_texcoords",
      "componentType": 5126,
      "count": 581,
      "min": [
        -8.158900260925293,
        0
      ],
      "max": [
        6.177700042724609,
        1.080199956893921
      ],
      "type": "VEC2",
      "bufferView": 2,
      "byteOffset": 9856
    },
    {
      "name": "Box009_1_4_indices",
      "componentType": 5123,
      "count": 810,
      "min": [
        0
      ],
      "max": [
        580
      ],
      "type": "SCALAR",
      "bufferView": 3,
      "byteOffset": 3996
    },
    {
      "name": "Box009_1_5_positions",
      "componentType": 5126,
      "count": 23,
      "min": [
        -32.99129867553711,
        -2.451200008392334,
        23.968000411987305
      ],
      "max": [
        32.99129867553711,
        9.531100273132324,
        28.606599807739258
      ],
      "type": "VEC3",
      "bufferView": 0,
      "byteOffset": 21756
    },
    {
      "name": "Box009_1_5_normals",
      "componentType": 5126,
      "count": 23,
      "min": [
        -0.47759050130844116,
        -0.8785825371742249,
        0
      ],
      "max": [
        0.00039999932050704956,
        0,
        1
      ],
      "type": "VEC3",
      "bufferView": 1,
      "byteOffset": 21756
    },
    {
      "name": "Box009_1_5_texcoords",
      "componentType": 5126,
      "count": 23,
      "min": [
        -0.23849999904632568,
        0.2815000116825104
      ],
      "max": [
        1.2384999990463257,
        0.718500018119812
      ],
      "type": "VEC2",
      "bufferView": 2,
      "byteOffset": 14504
    },
    {
      "name": "Box009_1_5_indices",
      "componentType": 5123,
      "count": 30,
      "min": [
        0
      ],
      "max": [
        22
      ],
      "type": "SCALAR",
      "bufferView": 3,
      "byteOffset": 5616
    },
    {
      "name": "Box009_1_6_positions",
      "componentType": 5126,
      "count": 16,
      "min": [
        -35,
        -3.9820001125335693,
        0.5
      ],
      "max": [
        35,
        11.017999649047852,
        24.799100875854492
      ],
      "type": "VEC3",
      "bufferView": 0,
      "byteOffset": 22032
    },
    {
      "name": "Box009_1_6_normals",
      "componentType": 5126,
      "count": 16,
      "min": [
        -1,
        0,
        0
      ],
      "max": [
        1,
        0,
        0
      ],
      "type": "VEC3",
      "bufferView": 1,
      "byteOffset": 22032
    },
    {
      "name": "Box009_1_6_texcoords",
      "componentType": 5126,
      "count": 16,
      "min": [
        -1.2293000221252441,
        -1.6028000116348267
      ],
      "max": [
        2.229300022125244,
        3.2571001052856445
      ],
      "type": "VEC2",
      "bufferView": 2,
      "byteOffset": 14688
    },
    {
      "name": "Box009_1_6_indices",
      "componentType": 5123,
      "count": 24,
      "min": [
        0
      ],
      "max": [
        15
      ],
      "type": "SCALAR",
      "bufferView": 3,
      "byteOffset": 5676
    },
    {
      "name": "Box009_1_7_positions",
      "componentType": 5126,
      "count": 50,
      "min": [
        -7.281599998474121,
        -8.41469955444336,
        0
      ],
      "max": [
        7.281599998474121,
        -8.41469955444336,
        31.820899963378906
      ],
      "type": "VEC3",
      "bufferView": 0,
      "byteOffset": 22224
    },
    {
      "name": "Box009_1_7_normals",
      "componentType": 5126,
      "count": 50,
      "min": [
        0,
        -1,
        0
      ],
      "max": [
        0,
        -1,
        0
      ],
      "type": "VEC3",
      "bufferView": 1,
      "byteOffset": 22224
    },
    {
      "name": "Box009_1_7_texcoords",
      "componentType": 5126,
      "count": 50,
      "min": [
        0.028300000354647636,
        -2.2255001068115234
      ],
      "max": [
        0.9717000126838684,
        3.9960999488830566
      ],
      "type": "VEC2",
      "bufferView": 2,
      "byteOffset": 14816
    },
    {
      "name": "Box009_1_7_indices",
      "componentType": 5123,
      "count": 90,
      "min": [
        0
      ],
      "max": [
        49
      ],
      "type": "SCALAR",
      "bufferView": 3,
      "byteOffset": 5724
    },
    {
      "name": "Box009_1_8_positions",
      "componentType": 5126,
      "count": 46,
      "min": [
        -7.356200218200684,
        -5.872300148010254,
        36.013099670410156
      ],
      "max": [
        7.356200218200684,
        -1.0204999446868896,
        38.070499420166016
      ],
      "type": "VEC3",
      "bufferView": 0,
      "byteOffset": 22824
    },
    {
      "name": "Box009_1_8_normals",
      "componentType": 5126,
      "count": 46,
      "min": [
        -0.9880867600440979,
        -0.03810151293873787,
        0.15379996597766876
      ],
      "max": [
        0.9880867600440979,
        0.032900985330343246,
        0.3758002817630768
      ],
      "type": "VEC3",
      "bufferView": 1,
      "byteOffset": 22824
    },
    {
      "name": "Box009_1_8_texcoords",
      "componentType": 5126,
      "count": 46,
      "min": [
        0.017899999395012856,
        -0.002099999925121665
      ],
      "max": [
        0.9966999888420105,
        0.9667999744415283
      ],
      "type": "VEC2",
      "bufferView": 2,
      "byteOffset": 15216
    },
    {
      "name": "Box009_1_8_indices",
      "componentType": 5123,
      "count": 48,
      "min": [
        0
      ],
      "max": [
        45
      ],
      "type": "SCALAR",
      "bufferView": 3,
      "byteOffset": 5904
    },
    {
      "name": "Box009_1_9_positions",
      "componentType": 5126,
      "count": 6,
      "min": [
        -7.21619987487793,
        -4.454599857330322,
        36.3583984375
      ],
      "max": [
        7.224599838256836,
        -2.438199996948242,
        37.37289810180664
      ],
      "type": "VEC3",
      "bufferView": 0,
      "byteOffset": 23376
    },
    {
      "name": "Box009_1_9_normals",
      "componentType": 5126,
      "count": 6,
      "min": [
        -0.9843180179595947,
        0,
        0.1764032244682312
      ],
      "max": [
        0.9828710556030273,
        0,
        0.18429456651210785
      ],
      "type": "VEC3",
      "bufferView": 1,
      "byteOffset": 23376
    },
    {
      "name": "Box009_1_9_texcoords",
      "componentType": 5126,
      "count": 6,
      "min": [
        1.5714999437332153,
        -0.42329999804496765
      ],
      "max": [
        2.2088000774383545,
        -0.296099990606308
      ],
      "type": "VEC2",
      "bufferView": 2,
      "byteOffset": 15584
    },
    {
      "name": "Box009_1_9_indices",
      "componentType": 5123,
      "count": 6,
      "min": [
        0
      ],
      "max": [
        5
      ],
      "type": "SCALAR",
      "bufferView": 3,
      "byteOffset": 6000
    },
    {
      "name": "Box009_1_10_positions",
      "componentType": 5126,
      "count": 12,
      "min": [
        -9.124300003051758,
        -10.199000358581543,
        25.791200637817383
      ],
      "max": [
        9.124300003051758,
        -2.0820000171661377,
        26.827499389648438
      ],
      "type": "VEC3",
      "bufferView": 0,
      "byteOffset": 23448
    },
    {
      "name": "Box009_1_10_normals",
      "componentType": 5126,
      "count": 12,
      "min": [
        -1,
        -1,
        0
      ],
      "max": [
        1,
        0,
        0
      ],
      "type": "VEC3",
      "bufferView": 1,
      "byteOffset": 23448
    },
    {
      "name": "Box009_1_10_texcoords",
      "componentType": 5126,
      "count": 12,
      "min": [
        -5.997900009155273,
        0
      ],
      "max": [
        7.168799877166748,
        1
      ],
      "type": "VEC2",
      "bufferView": 2,
      "byteOffset": 15632
    },
    {
      "name": "Box009_1_10_indices",
      "componentType": 5123,
      "count": 18,
      "min": [
        0
      ],
      "max": [
        11
      ],
      "type": "SCALAR",
      "bufferView": 3,
      "byteOffset": 6012
    },
    {
      "name": "Box009_1_11_positions",
      "componentType": 5126,
      "count": 560,
      "min": [
        -7.581600189208984,
        -8.714699745178223,
        23.987300872802734
      ],
      "max": [
        7.581500053405762,
        1.8219000101089478,
        32.3760986328125
      ],
      "type": "VEC3",
      "bufferView": 0,
      "byteOffset": 23592
    },
    {
      "name": "Box009_1_11_normals",
      "componentType": 5126,
      "count": 560,
      "min": [
        -1,
        -1,
        -1
      ],
      "max": [
        1,
        1,
        1
      ],
      "type": "VEC3",
      "bufferView": 1,
      "byteOffset": 23592
    },
    {
      "name": "Box009_1_11_texcoords",
      "componentType": 5126,
      "count": 560,
      "min": [
        0,
        0
      ],
      "max": [
        1,
        1
      ],
      "type": "VEC2",
      "bufferView": 2,
      "byteOffset": 15728
    },
    {
      "name": "Box009_1_11_indices",
      "componentType": 5123,
      "count": 1320,
      "min": [
        0
      ],
      "max": [
        559
      ],
      "type": "SCALAR",
      "bufferView": 3,
      "byteOffset": 6048
    },
    {
      "name": "Box009_1_12_positions",
      "componentType": 5126,
      "count": 142,
      "min": [
        -38.227500915527344,
        4.239099979400635,
        0
      ],
      "max": [
        38.227500915527344,
        8.337699890136719,
        20.175100326538086
      ],
      "type": "VEC3",
      "bufferView": 0,
      "byteOffset": 30312
    },
    {
      "name": "Box009_1_12_normals",
      "componentType": 5126,
      "count": 142,
      "min": [
        0,
        -0.5219757556915283,
        -0.8777044415473938
      ],
      "max": [
        0,
        0.5219757556915283,
        0.8777044415473938
      ],
      "type": "VEC3",
      "bufferView": 1,
      "byteOffset": 30312
    },
    {
      "name": "Box009_1_12_texcoords",
      "componentType": 5126,
      "count": 142,
      "min": [
        0.7149999737739563,
        -0.7493000030517578
      ],
      "max": [
        1.8446999788284302,
        0.8683000206947327
      ],
      "type": "VEC2",
      "bufferView": 2,
      "byteOffset": 20208
    },
    {
      "name": "Box009_1_12_indices",
      "componentType": 5123,
      "count": 192,
      "min": [
        0
      ],
      "max": [
        141
      ],
      "type": "SCALAR",
      "bufferView": 3,
      "byteOffset": 8688
    },
    {
      "name": "Box009_1_13_positions",
      "componentType": 5126,
      "count": 408,
      "min": [
        -38.1515007019043,
        2.654400110244751,
        0.38109999895095825
      ],
      "max": [
        38.1515007019043,
        9.922300338745117,
        21.739299774169922
      ],
      "type": "VEC3",
      "bufferView": 0,
      "byteOffset": 32016
    },
    {
      "name": "Box009_1_13_normals",
      "componentType": 5126,
      "count": 408,
      "min": [
        -1,
        -1,
        0
      ],
      "max": [
        1,
        1,
        0
      ],
      "type": "VEC3",
      "bufferView": 1,
      "byteOffset": 32016
    },
    {
      "name": "Box009_1_13_texcoords",
      "componentType": 5126,
      "count": 408,
      "min": [
        -2.1946001052856445,
        0.0020000000949949026
      ],
      "max": [
        5.028600215911865,
        0.6751000285148621
      ],
      "type": "VEC2",
      "bufferView": 2,
      "byteOffset": 21344
    },
    {
      "name": "Box009_1_13_indices",
      "componentType": 5123,
      "count": 516,
      "min": [
        0
      ],
      "max": [
        407
      ],
      "type": "SCALAR",
      "bufferView": 3,
      "byteOffset": 9072
    }
  ],
  "asset": {
    "generator": "obj2gltf",
    "version": "2.0"
  },
  "buffers": [
    {
      "name": "4_jz08",
      "byteLength": 108536,
      "uri": "data:application/octet-stream;base64,"
    }
  ],
  "bufferViews": [
    {
      "name": "bufferView_0",
      "buffer": 0,
      "byteLength": 36912,
      "byteOffset": 0,
      "byteStride": 12,
      "target": 34962
    },
    {
      "name": "bufferView_1",
      "buffer": 0,
      "byteLength": 36912,
      "byteOffset": 36912,
      "byteStride": 12,
      "target": 34962
    },
    {
      "name": "bufferView_2",
      "buffer": 0,
      "byteLength": 24608,
      "byteOffset": 73824,
      "byteStride": 8,
      "target": 34962
    },
    {
      "name": "bufferView_3",
      "buffer": 0,
      "byteLength": 10104,
      "byteOffset": 98432,
      "target": 34963
    }
  ],
  "images": [
    {
      "name": "sgy_4q_46",
      "uri": "sgy_4q_46.jpg"
    },
    {
      "name": "sgy_4q_49",
      "uri": "sgy_4q_49.jpg"
    },
    {
      "name": "sgy_4q_43",
      "uri": "sgy_4q_43.jpg"
    },
    {
      "name": "sgy_3q_15",
      "uri": "sgy_3q_15.jpg"
    },
    {
      "name": "xct_05",
      "uri": "xct_05.jpg"
    },
    {
      "name": "011",
      "uri": "011.jpg"
    },
    {
      "name": "sgy_4q_45",
      "uri": "sgy_4q_45.jpg"
    },
    {
      "name": "sgy_4q_47",
      "uri": "sgy_4q_47.jpg"
    },
    {
      "name": "sgy_4q_50",
      "uri": "sgy_4q_50.png"
    },
    {
      "name": "bt_003",
      "uri": "bt_003.jpg"
    },
    {
      "name": "wcl_006",
      "uri": "wcl_006.png"
    },
    {
      "name": "sgy_4q_44",
      "uri": "sgy_4q_44.jpg"
    },
    {
      "name": "sgy_4q_02",
      "uri": "sgy_4q_02.png"
    },
    {
      "name": "sgy_4q_48",
      "uri": "sgy_4q_48.png"
    }
  ],
  "materials": [
    {
      "name": "Material__9996",
      "pbrMetallicRoughness": {
        "baseColorTexture": {
          "index": 0
        },
        "baseColorFactor": [
          1,
          1,
          1,
          1
        ],
        "metallicFactor": 0,
        "roughnessFactor": 0.99
      },
      "emissiveFactor": [
        0,
        0,
        0
      ],
      "alphaMode": "OPAQUE",
      "doubleSided": false
    },
    {
      "name": "Material__9999",
      "pbrMetallicRoughness": {
        "baseColorTexture": {
          "index": 1
        },
        "baseColorFactor": [
          1,
          1,
          1,
          1
        ],
        "metallicFactor": 0,
        "roughnessFactor": 0.99
      },
      "emissiveFactor": [
        0,
        0,
        0
      ],
      "alphaMode": "OPAQUE",
      "doubleSided": false
    },
    {
      "name": "Material__9993",
      "pbrMetallicRoughness": {
        "baseColorTexture": {
          "index": 2
        },
        "baseColorFactor": [
          1,
          1,
          1,
          1
        ],
        "metallicFactor": 0,
        "roughnessFactor": 0.99
      },
      "emissiveFactor": [
        0,
        0,
        0
      ],
      "alphaMode": "OPAQUE",
      "doubleSided": false
    },
    {
      "name": "Material__9992",
      "pbrMetallicRoughness": {
        "baseColorTexture": {
          "index": 3
        },
        "baseColorFactor": [
          1,
          1,
          1,
          1
        ],
        "metallicFactor": 0,
        "roughnessFactor": 0.99
      },
      "emissiveFactor": [
        0,
        0,
        0
      ],
      "alphaMode": "OPAQUE",
      "doubleSided": false
    },
    {
      "name": "Material__10001",
      "pbrMetallicRoughness": {
        "baseColorTexture": {
          "index": 4
        },
        "baseColorFactor": [
          1,
          1,
          1,
          1
        ],
        "metallicFactor": 0,
        "roughnessFactor": 0.99
      },
      "emissiveFactor": [
        0,
        0,
        0
      ],
      "alphaMode": "OPAQUE",
      "doubleSided": false
    },
    {
      "name": "Material__9989",
      "pbrMetallicRoughness": {
        "baseColorTexture": {
          "index": 5
        },
        "baseColorFactor": [
          1,
          1,
          1,
          1
        ],
        "metallicFactor": 0,
        "roughnessFactor": 0.99
      },
      "emissiveFactor": [
        0,
        0,
        0
      ],
      "alphaMode": "OPAQUE",
      "doubleSided": false
    },
    {
      "name": "Material__9995",
      "pbrMetallicRoughness": {
        "baseColorTexture": {
          "index": 6
        },
        "baseColorFactor": [
          1,
          1,
          1,
          1
        ],
        "metallicFactor": 0,
        "roughnessFactor": 0.99
      },
      "emissiveFactor": [
        0,
        0,
        0
      ],
      "alphaMode": "OPAQUE",
      "doubleSided": false
    },
    {
      "name": "Material__9997",
      "pbrMetallicRoughness": {
        "baseColorTexture": {
          "index": 7
        },
        "baseColorFactor": [
          1,
          1,
          1,
          1
        ],
        "metallicFactor": 0,
        "roughnessFactor": 0.99
      },
      "emissiveFactor": [
        0,
        0,
        0
      ],
      "alphaMode": "OPAQUE",
      "doubleSided": false
    },
    {
      "name": "Material__10002",
      "pbrMetallicRoughness": {
        "baseColorTexture": {
          "index": 8
        },
        "baseColorFactor": [
          1,
          1,
          1,
          1
        ],
        "metallicFactor": 0,
        "roughnessFactor": 0.99
      },
      "emissiveFactor": [
        0,
        0,
        0
      ],
      "alphaMode": "OPAQUE",
      "doubleSided": false
    },
    {
      "name": "Material__9990",
      "pbrMetallicRoughness": {
        "baseColorTexture": {
          "index": 9
        },
        "baseColorFactor": [
          1,
          1,
          1,
          1
        ],
        "metallicFactor": 0,
        "roughnessFactor": 0.99
      },
      "emissiveFactor": [
        0,
        0,
        0
      ],
      "alphaMode": "OPAQUE",
      "doubleSided": false
    },
    {
      "name": "Material__10000",
      "pbrMetallicRoughness": {
        "baseColorTexture": {
          "index": 10
        },
        "baseColorFactor": [
          1,
          1,
          1,
          1
        ],
        "metallicFactor": 0,
        "roughnessFactor": 0.99
      },
      "emissiveFactor": [
        0,
        0,
        0
      ],
      "alphaMode": "BLEND",
      "doubleSided": true
    },
    {
      "name": "Material__9994",
      "pbrMetallicRoughness": {
        "baseColorTexture": {
          "index": 11
        },
        "baseColorFactor": [
          1,
          1,
          1,
          1
        ],
        "metallicFactor": 0,
        "roughnessFactor": 0.99
      },
      "emissiveFactor": [
        0,
        0,
        0
      ],
      "alphaMode": "OPAQUE",
      "doubleSided": false
    },
    {
      "name": "Material__9991",
      "pbrMetallicRoughness": {
        "baseColorTexture": {
          "index": 12
        },
        "baseColorFactor": [
          1,
          1,
          1,
          1
        ],
        "metallicFactor": 0,
        "roughnessFactor": 0.99
      },
      "emissiveFactor": [
        0,
        0,
        0
      ],
      "alphaMode": "BLEND",
      "doubleSided": true
    },
    {
      "name": "Material__9998",
      "pbrMetallicRoughness": {
        "baseColorTexture": {
          "index": 13
        },
        "baseColorFactor": [
          1,
          1,
          1,
          1
        ],
        "metallicFactor": 0,
        "roughnessFactor": 0.99
      },
      "emissiveFactor": [
        0,
        0,
        0
      ],
      "alphaMode": "BLEND",
      "doubleSided": true
    }
  ],
  "meshes": [
    {
      "name": "Box009_1",
      "primitives": [
        {
          "attributes": {
            "POSITION": 0,
            "NORMAL": 1,
            "TEXCOORD_0": 2
          },
          "indices": 3,
          "material": 0,
          "mode": 4
        },
        {
          "attributes": {
            "POSITION": 4,
            "NORMAL": 5,
            "TEXCOORD_0": 6
          },
          "indices": 7,
          "material": 1,
          "mode": 4
        },
        {
          "attributes": {
            "POSITION": 8,
            "NORMAL": 9,
            "TEXCOORD_0": 10
          },
          "indices": 11,
          "material": 2,
          "mode": 4
        },
        {
          "attributes": {
            "POSITION": 12,
            "NORMAL": 13,
            "TEXCOORD_0": 14
          },
          "indices": 15,
          "material": 3,
          "mode": 4
        },
        {
          "attributes": {
            "POSITION": 16,
            "NORMAL": 17,
            "TEXCOORD_0": 18
          },
          "indices": 19,
          "material": 4,
          "mode": 4
        },
        {
          "attributes": {
            "POSITION": 20,
            "NORMAL": 21,
            "TEXCOORD_0": 22
          },
          "indices": 23,
          "material": 5,
          "mode": 4
        },
        {
          "attributes": {
            "POSITION": 24,
            "NORMAL": 25,
            "TEXCOORD_0": 26
          },
          "indices": 27,
          "material": 6,
          "mode": 4
        },
        {
          "attributes": {
            "POSITION": 28,
            "NORMAL": 29,
            "TEXCOORD_0": 30
          },
          "indices": 31,
          "material": 7,
          "mode": 4
        },
        {
          "attributes": {
            "POSITION": 32,
            "NORMAL": 33,
            "TEXCOORD_0": 34
          },
          "indices": 35,
          "material": 8,
          "mode": 4
        },
        {
          "attributes": {
            "POSITION": 36,
            "NORMAL": 37,
            "TEXCOORD_0": 38
          },
          "indices": 39,
          "material": 9,
          "mode": 4
        },
        {
          "attributes": {
            "POSITION": 40,
            "NORMAL": 41,
            "TEXCOORD_0": 42
          },
          "indices": 43,
          "material": 10,
          "mode": 4
        },
        {
          "attributes": {
            "POSITION": 44,
            "NORMAL": 45,
            "TEXCOORD_0": 46
          },
          "indices": 47,
          "material": 11,
          "mode": 4
        },
        {
          "attributes": {
            "POSITION": 48,
            "NORMAL": 49,
            "TEXCOORD_0": 50
          },
          "indices": 51,
          "material": 12,
          "mode": 4
        },
        {
          "attributes": {
            "POSITION": 52,
            "NORMAL": 53,
            "TEXCOORD_0": 54
          },
          "indices": 55,
          "material": 13,
          "mode": 4
        }
      ]
    }
  ],
  "nodes": [
    {
      "name": "Box009",
      "mesh": 0
    }
  ],
  "samplers": [
    {
      "wrapS": 10497,
      "wrapT": 10497
    }
  ],
  "scene": 0,
  "scenes": [
    {
      "nodes": [
        0
      ]
    }
  ],
  "textures": [
    {
      "name": "sgy_4q_46",
      "sampler": 0,
      "source": 0
    },
    {
      "name": "sgy_4q_49",
      "sampler": 0,
      "source": 1
    },
    {
      "name": "sgy_4q_43",
      "sampler": 0,
      "source": 2
    },
    {
      "name": "sgy_3q_15",
      "sampler": 0,
      "source": 3
    },
    {
      "name": "xct_05",
      "sampler": 0,
      "source": 4
    },
    {
      "name": "011",
      "sampler": 0,
      "source": 5
    },
    {
      "name": "sgy_4q_45",
      "sampler": 0,
      "source": 6
    },
    {
      "name": "sgy_4q_47",
      "sampler": 0,
      "source": 7
    },
    {
      "name": "sgy_4q_50",
      "sampler": 0,
      "source": 8
    },
    {
      "name": "bt_003",
      "sampler": 0,
      "source": 9
    },
    {
      "name": "wcl_006",
      "sampler": 0,
      "source": 10
    },
    {
      "name": "sgy_4q_44",
      "sampler": 0,
      "source": 11
    },
    {
      "name": "sgy_4q_02",
      "sampler": 0,
      "source": 12
    },
    {
      "name": "sgy_4q_48",
      "sampler": 0,
      "source": 13
    }
  ]
}
