{
  "accessors": [
    {
      "name": "Plane001_1_0_positions",
      "componentType": 5126,
      "count": 2484,
      "min": [
        -10.860199928283691,
        -7.835100173950195,
        46.70069885253906
      ],
      "max": [
        11.219200134277344,
        9.483200073242188,
        97.46060180664062
      ],
      "type": "VEC3",
      "bufferView": 0,
      "byteOffset": 0
    },
    {
      "name": "Plane001_1_0_normals",
      "componentType": 5126,
      "count": 2484,
      "min": [
        -1,
        -1,
        -1
      ],
      "max": [
        1,
        1,
        1
      ],
      "type": "VEC3",
      "bufferView": 1,
      "byteOffset": 0
    },
    {
      "name": "Plane001_1_0_texcoords",
      "componentType": 5126,
      "count": 2484,
      "min": [
        -23.557600021362305,
        -32.5453987121582
      ],
      "max": [
        9.590100288391113,
        48.86819839477539
      ],
      "type": "VEC2",
      "bufferView": 2,
      "byteOffset": 0
    },
    {
      "name": "Plane001_1_0_indices",
      "componentType": 5123,
      "count": 5208,
      "min": [
        0
      ],
      "max": [
        2483
      ],
      "type": "SCALAR",
      "bufferView": 3,
      "byteOffset": 0
    },
    {
      "name": "Plane001_1_1_positions",
      "componentType": 5126,
      "count": 1903,
      "min": [
        -38.227901458740234,
        -38.227901458740234,
        6.9583001136779785
      ],
      "max": [
        38.227901458740234,
        38.227901458740234,
        46.918800354003906
      ],
      "type": "VEC3",
      "bufferView": 0,
      "byteOffset": 29808
    },
    {
      "name": "Plane001_1_1_normals",
      "componentType": 5126,
      "count": 1903,
      "min": [
        -1,
        -1,
        -1
      ],
      "max": [
        1,
        1,
        1
      ],
      "type": "VEC3",
      "bufferView": 1,
      "byteOffset": 29808
    },
    {
      "name": "Plane001_1_1_texcoords",
      "componentType": 5126,
      "count": 1903,
      "min": [
        -0.949999988079071,
        -0.16670000553131104
      ],
      "max": [
        1.149999976158142,
        1.166700005531311
      ],
      "type": "VEC2",
      "bufferView": 2,
      "byteOffset": 19872
    },
    {
      "name": "Plane001_1_1_indices",
      "componentType": 5123,
      "count": 4188,
      "min": [
        0
      ],
      "max": [
        1902
      ],
      "type": "SCALAR",
      "bufferView": 3,
      "byteOffset": 10416
    },
    {
      "name": "Plane001_1_2_positions",
      "componentType": 5126,
      "count": 24,
      "min": [
        -1.7825000286102295,
        -10.293299674987793,
        46.70759963989258
      ],
      "max": [
        2.206899881362915,
        -6.303899765014648,
        76.64330291748047
      ],
      "type": "VEC3",
      "bufferView": 0,
      "byteOffset": 52644
    },
    {
      "name": "Plane001_1_2_normals",
      "componentType": 5126,
      "count": 24,
      "min": [
        -1,
        -1,
        -1
      ],
      "max": [
        1,
        1,
        1
      ],
      "type": "VEC3",
      "bufferView": 1,
      "byteOffset": 52644
    },
    {
      "name": "Plane001_1_2_texcoords",
      "componentType": 5126,
      "count": 24,
      "min": [
        0,
        -0.5343000292778015
      ],
      "max": [
        1,
        10.561100006103516
      ],
      "type": "VEC2",
      "bufferView": 2,
      "byteOffset": 35096
    },
    {
      "name": "Plane001_1_2_indices",
      "componentType": 5123,
      "count": 36,
      "min": [
        0
      ],
      "max": [
        23
      ],
      "type": "SCALAR",
      "bufferView": 3,
      "byteOffset": 18792
    }
  ],
  "asset": {
    "generator": "obj2gltf",
    "version": "2.0"
  },
  "buffers": [
    {
      "name": "build10",
      "byteLength": 160016,
      "uri": "data:application/octet-stream;base64,"
    }
  ],
  "bufferViews": [
    {
      "name": "bufferView_0",
      "buffer": 0,
      "byteLength": 52932,
      "byteOffset": 0,
      "byteStride": 12,
      "target": 34962
    },
    {
      "name": "bufferView_1",
      "buffer": 0,
      "byteLength": 52932,
      "byteOffset": 52932,
      "byteStride": 12,
      "target": 34962
    },
    {
      "name": "bufferView_2",
      "buffer": 0,
      "byteLength": 35288,
      "byteOffset": 105864,
      "byteStride": 8,
      "target": 34962
    },
    {
      "name": "bufferView_3",
      "buffer": 0,
      "byteLength": 18864,
      "byteOffset": 141152,
      "target": 34963
    }
  ],
  "images": [
    {
      "name": "006",
      "uri": "006.jpg"
    },
    {
      "name": "SG_dl01",
      "uri": "SG_dl01.jpg"
    }
  ],
  "materials": [
    {
      "name": "Material__3",
      "pbrMetallicRoughness": {
        "baseColorTexture": {
          "index": 0
        },
        "baseColorFactor": [
          1,
          1,
          1,
          1
        ],
        "metallicFactor": 0,
        "roughnessFactor": 0.99
      },
      "emissiveFactor": [
        0,
        0,
        0
      ],
      "alphaMode": "OPAQUE",
      "doubleSided": false
    },
    {
      "name": "Material__2",
      "pbrMetallicRoughness": {
        "baseColorTexture": {
          "index": 0
        },
        "baseColorFactor": [
          1,
          1,
          1,
          1
        ],
        "metallicFactor": 0,
        "roughnessFactor": 0.99
      },
      "emissiveFactor": [
        0,
        0,
        0
      ],
      "alphaMode": "OPAQUE",
      "doubleSided": false
    },
    {
      "name": "Material__25",
      "pbrMetallicRoughness": {
        "baseColorTexture": {
          "index": 1
        },
        "baseColorFactor": [
          1,
          1,
          1,
          1
        ],
        "metallicFactor": 0,
        "roughnessFactor": 0.99
      },
      "emissiveFactor": [
        0,
        0,
        0
      ],
      "alphaMode": "OPAQUE",
      "doubleSided": false
    }
  ],
  "meshes": [
    {
      "name": "Plane001_1",
      "primitives": [
        {
          "attributes": {
            "POSITION": 0,
            "NORMAL": 1,
            "TEXCOORD_0": 2
          },
          "indices": 3,
          "material": 0,
          "mode": 4
        },
        {
          "attributes": {
            "POSITION": 4,
            "NORMAL": 5,
            "TEXCOORD_0": 6
          },
          "indices": 7,
          "material": 1,
          "mode": 4
        },
        {
          "attributes": {
            "POSITION": 8,
            "NORMAL": 9,
            "TEXCOORD_0": 10
          },
          "indices": 11,
          "material": 2,
          "mode": 4
        }
      ]
    }
  ],
  "nodes": [
    {
      "name": "Plane001",
      "mesh": 0
    }
  ],
  "samplers": [
    {
      "wrapS": 10497,
      "wrapT": 10497
    }
  ],
  "scene": 0,
  "scenes": [
    {
      "nodes": [
        0
      ]
    }
  ],
  "textures": [
    {
      "name": "006",
      "sampler": 0,
      "source": 0
    },
    {
      "name": "SG_dl01",
      "sampler": 0,
      "source": 1
    }
  ]
}
