{
  "accessors": [
    {
      "name": "Box060_1_0_positions",
      "componentType": 5126,
      "count": 68,
      "min": [
        -17.032800674438477,
        -13.061200141906738,
        36.75320053100586
      ],
      "max": [
        17.032800674438477,
        13.061200141906738,
        44.661800384521484
      ],
      "type": "VEC3",
      "bufferView": 0,
      "byteOffset": 0
    },
    {
      "name": "Box060_1_0_normals",
      "componentType": 5126,
      "count": 68,
      "min": [
        -1,
        -1,
        0
      ],
      "max": [
        1,
        1,
        1
      ],
      "type": "VEC3",
      "bufferView": 1,
      "byteOffset": 0
    },
    {
      "name": "Box060_1_0_texcoords",
      "componentType": 5126,
      "count": 68,
      "min": [
        0,
        -1.9362000226974487
      ],
      "max": [
        1,
        2.936199903488159
      ],
      "type": "VEC2",
      "bufferView": 2,
      "byteOffset": 0
    },
    {
      "name": "Box060_1_0_indices",
      "componentType": 5123,
      "count": 138,
      "min": [
        0
      ],
      "max": [
        67
      ],
      "type": "SCALAR",
      "bufferView": 3,
      "byteOffset": 0
    },
    {
      "name": "Box060_1_1_positions",
      "componentType": 5126,
      "count": 9,
      "min": [
        -10.785400390625,
        -13.061200141906738,
        0
      ],
      "max": [
        17.032800674438477,
        -8.973799705505371,
        38.03839874267578
      ],
      "type": "VEC3",
      "bufferView": 0,
      "byteOffset": 816
    },
    {
      "name": "Box060_1_1_normals",
      "componentType": 5126,
      "count": 9,
      "min": [
        -1,
        -1,
        0
      ],
      "max": [
        0,
        0,
        0
      ],
      "type": "VEC3",
      "bufferView": 1,
      "byteOffset": 816
    },
    {
      "name": "Box060_1_1_texcoords",
      "componentType": 5126,
      "count": 9,
      "min": [
        -0.004900000058114529,
        -0.005400000140070915
      ],
      "max": [
        3.063800096511841,
        4.546800136566162
      ],
      "type": "VEC2",
      "bufferView": 2,
      "byteOffset": 544
    },
    {
      "name": "Box060_1_1_indices",
      "componentType": 5123,
      "count": 15,
      "min": [
        0
      ],
      "max": [
        8
      ],
      "type": "SCALAR",
      "bufferView": 3,
      "byteOffset": 276
    },
    {
      "name": "Box060_1_2_positions",
      "componentType": 5126,
      "count": 8,
      "min": [
        -10.785400390625,
        -13.061200141906738,
        0
      ],
      "max": [
        17.032800674438477,
        13.061200141906738,
        38.03839874267578
      ],
      "type": "VEC3",
      "bufferView": 0,
      "byteOffset": 924
    },
    {
      "name": "Box060_1_2_normals",
      "componentType": 5126,
      "count": 8,
      "min": [
        0,
        0,
        0
      ],
      "max": [
        1,
        1,
        0
      ],
      "type": "VEC3",
      "bufferView": 1,
      "byteOffset": 924
    },
    {
      "name": "Box060_1_2_texcoords",
      "componentType": 5126,
      "count": 8,
      "min": [
        0,
        0.0019000000320374966
      ],
      "max": [
        4.006999969482422,
        7.013400077819824
      ],
      "type": "VEC2",
      "bufferView": 2,
      "byteOffset": 616
    },
    {
      "name": "Box060_1_2_indices",
      "componentType": 5123,
      "count": 12,
      "min": [
        0
      ],
      "max": [
        7
      ],
      "type": "SCALAR",
      "bufferView": 3,
      "byteOffset": 308
    },
    {
      "name": "Box060_1_3_positions",
      "componentType": 5126,
      "count": 12,
      "min": [
        -17.032800674438477,
        -8.973799705505371,
        0
      ],
      "max": [
        -10.785400390625,
        13.061200141906738,
        38.03839874267578
      ],
      "type": "VEC3",
      "bufferView": 0,
      "byteOffset": 1020
    },
    {
      "name": "Box060_1_3_normals",
      "componentType": 5126,
      "count": 12,
      "min": [
        -1,
        -1,
        0
      ],
      "max": [
        0,
        1,
        0
      ],
      "type": "VEC3",
      "bufferView": 1,
      "byteOffset": 1020
    },
    {
      "name": "Box060_1_3_texcoords",
      "componentType": 5126,
      "count": 12,
      "min": [
        1.9731999635696411,
        -0.09549999982118607
      ],
      "max": [
        3.01990008354187,
        7.015200138092041
      ],
      "type": "VEC2",
      "bufferView": 2,
      "byteOffset": 680
    },
    {
      "name": "Box060_1_3_indices",
      "componentType": 5123,
      "count": 18,
      "min": [
        0
      ],
      "max": [
        11
      ],
      "type": "SCALAR",
      "bufferView": 3,
      "byteOffset": 332
    },
    {
      "name": "Box060_1_4_positions",
      "componentType": 5126,
      "count": 16,
      "min": [
        -17.032800674438477,
        -8.973799705505371,
        38.03839874267578
      ],
      "max": [
        -10.785400390625,
        13.061200141906738,
        44.661800384521484
      ],
      "type": "VEC3",
      "bufferView": 0,
      "byteOffset": 1164
    },
    {
      "name": "Box060_1_4_normals",
      "componentType": 5126,
      "count": 16,
      "min": [
        -1,
        -1,
        0
      ],
      "max": [
        1,
        1,
        0
      ],
      "type": "VEC3",
      "bufferView": 1,
      "byteOffset": 1164
    },
    {
      "name": "Box060_1_4_texcoords",
      "componentType": 5126,
      "count": 16,
      "min": [
        0,
        0
      ],
      "max": [
        1.2222000360488892,
        1
      ],
      "type": "VEC2",
      "bufferView": 2,
      "byteOffset": 776
    },
    {
      "name": "Box060_1_4_indices",
      "componentType": 5123,
      "count": 24,
      "min": [
        0
      ],
      "max": [
        15
      ],
      "type": "SCALAR",
      "bufferView": 3,
      "byteOffset": 368
    }
  ],
  "asset": {
    "generator": "obj2gltf",
    "version": "2.0"
  },
  "buffers": [
    {
      "name": "2_jz14",
      "byteLength": 4032,
      "uri": "data:application/octet-stream;base64,"
    }
  ],
  "bufferViews": [
    {
      "name": "bufferView_0",
      "buffer": 0,
      "byteLength": 1356,
      "byteOffset": 0,
      "byteStride": 12,
      "target": 34962
    },
    {
      "name": "bufferView_1",
      "buffer": 0,
      "byteLength": 1356,
      "byteOffset": 1356,
      "byteStride": 12,
      "target": 34962
    },
    {
      "name": "bufferView_2",
      "buffer": 0,
      "byteLength": 904,
      "byteOffset": 2712,
      "byteStride": 8,
      "target": 34962
    },
    {
      "name": "bufferView_3",
      "buffer": 0,
      "byteLength": 416,
      "byteOffset": 3616,
      "target": 34963
    }
  ],
  "images": [
    {
      "name": "SGY_Q1_005",
      "uri": "SGY_Q1_005.jpg"
    },
    {
      "name": "SGY_Q2_005",
      "uri": "SGY_Q2_005.jpg"
    },
    {
      "name": "SGY_Q1_001",
      "uri": "SGY_Q1_001.jpg"
    },
    {
      "name": "SGY_Q2_007",
      "uri": "SGY_Q2_007.jpg"
    },
    {
      "name": "SGY_Q2_008",
      "uri": "SGY_Q2_008.jpg"
    }
  ],
  "materials": [
    {
      "name": "Material__3465",
      "pbrMetallicRoughness": {
        "baseColorTexture": {
          "index": 0
        },
        "baseColorFactor": [
          1,
          1,
          1,
          1
        ],
        "metallicFactor": 0,
        "roughnessFactor": 0.99
      },
      "emissiveFactor": [
        0,
        0,
        0
      ],
      "alphaMode": "OPAQUE",
      "doubleSided": false
    },
    {
      "name": "Material__3467",
      "pbrMetallicRoughness": {
        "baseColorTexture": {
          "index": 1
        },
        "baseColorFactor": [
          1,
          1,
          1,
          1
        ],
        "metallicFactor": 0,
        "roughnessFactor": 0.99
      },
      "emissiveFactor": [
        0,
        0,
        0
      ],
      "alphaMode": "OPAQUE",
      "doubleSided": false
    },
    {
      "name": "Material__3580",
      "pbrMetallicRoughness": {
        "baseColorTexture": {
          "index": 2
        },
        "baseColorFactor": [
          1,
          1,
          1,
          1
        ],
        "metallicFactor": 0,
        "roughnessFactor": 0.99
      },
      "emissiveFactor": [
        0,
        0,
        0
      ],
      "alphaMode": "OPAQUE",
      "doubleSided": false
    },
    {
      "name": "Material__3468",
      "pbrMetallicRoughness": {
        "baseColorTexture": {
          "index": 3
        },
        "baseColorFactor": [
          1,
          1,
          1,
          1
        ],
        "metallicFactor": 0,
        "roughnessFactor": 0.99
      },
      "emissiveFactor": [
        0,
        0,
        0
      ],
      "alphaMode": "OPAQUE",
      "doubleSided": false
    },
    {
      "name": "Material__3469",
      "pbrMetallicRoughness": {
        "baseColorTexture": {
          "index": 4
        },
        "baseColorFactor": [
          1,
          1,
          1,
          1
        ],
        "metallicFactor": 0,
        "roughnessFactor": 0.99
      },
      "emissiveFactor": [
        0,
        0,
        0
      ],
      "alphaMode": "OPAQUE",
      "doubleSided": false
    }
  ],
  "meshes": [
    {
      "name": "Box060_1",
      "primitives": [
        {
          "attributes": {
            "POSITION": 0,
            "NORMAL": 1,
            "TEXCOORD_0": 2
          },
          "indices": 3,
          "material": 0,
          "mode": 4
        },
        {
          "attributes": {
            "POSITION": 4,
            "NORMAL": 5,
            "TEXCOORD_0": 6
          },
          "indices": 7,
          "material": 1,
          "mode": 4
        },
        {
          "attributes": {
            "POSITION": 8,
            "NORMAL": 9,
            "TEXCOORD_0": 10
          },
          "indices": 11,
          "material": 2,
          "mode": 4
        },
        {
          "attributes": {
            "POSITION": 12,
            "NORMAL": 13,
            "TEXCOORD_0": 14
          },
          "indices": 15,
          "material": 3,
          "mode": 4
        },
        {
          "attributes": {
            "POSITION": 16,
            "NORMAL": 17,
            "TEXCOORD_0": 18
          },
          "indices": 19,
          "material": 4,
          "mode": 4
        }
      ]
    }
  ],
  "nodes": [
    {
      "name": "Box060",
      "mesh": 0
    }
  ],
  "samplers": [
    {
      "wrapS": 10497,
      "wrapT": 10497
    }
  ],
  "scene": 0,
  "scenes": [
    {
      "nodes": [
        0
      ]
    }
  ],
  "textures": [
    {
      "name": "SGY_Q1_005",
      "sampler": 0,
      "source": 0
    },
    {
      "name": "SGY_Q2_005",
      "sampler": 0,
      "source": 1
    },
    {
      "name": "SGY_Q1_001",
      "sampler": 0,
      "source": 2
    },
    {
      "name": "SGY_Q2_007",
      "sampler": 0,
      "source": 3
    },
    {
      "name": "SGY_Q2_008",
      "sampler": 0,
      "source": 4
    }
  ]
}
