{
  "accessors": [
    {
      "name": "Box002_1_0_positions",
      "componentType": 5126,
      "count": 96,
      "min": [
        -26.718700408935547,
        -24.874799728393555,
        25.084299087524414
      ],
      "max": [
        27.37809944152832,
        24.864999771118164,
        29.087099075317383
      ],
      "type": "VEC3",
      "bufferView": 0,
      "byteOffset": 0
    },
    {
      "name": "Box002_1_0_normals",
      "componentType": 5126,
      "count": 96,
      "min": [
        -0.44088268280029297,
        0,
        0.8975647687911987
      ],
      "max": [
        0.3475813865661621,
        0,
        0.968352198600769
      ],
      "type": "VEC3",
      "bufferView": 1,
      "byteOffset": 0
    },
    {
      "name": "Box002_1_0_texcoords",
      "componentType": 5126,
      "count": 96,
      "min": [
        -5.055600166320801,
        -3.0868000984191895
      ],
      "max": [
        6.055600166320801,
        4.0868000984191895
      ],
      "type": "VEC2",
      "bufferView": 2,
      "byteOffset": 0
    },
    {
      "name": "Box002_1_0_indices",
      "componentType": 5123,
      "count": 144,
      "min": [
        0
      ],
      "max": [
        95
      ],
      "type": "SCALAR",
      "bufferView": 3,
      "byteOffset": 0
    },
    {
      "name": "Box002_1_1_positions",
      "componentType": 5126,
      "count": 70,
      "min": [
        -25.42009925842285,
        -21.885099411010742,
        7.371399879455566
      ],
      "max": [
        26.743000030517578,
        22.555400848388672,
        28.218000411987305
      ],
      "type": "VEC3",
      "bufferView": 0,
      "byteOffset": 1152
    },
    {
      "name": "Box002_1_1_normals",
      "componentType": 5126,
      "count": 70,
      "min": [
        -1,
        -1,
        0
      ],
      "max": [
        1,
        1,
        0
      ],
      "type": "VEC3",
      "bufferView": 1,
      "byteOffset": 1152
    },
    {
      "name": "Box002_1_1_texcoords",
      "componentType": 5126,
      "count": 70,
      "min": [
        -3.2392001152038574,
        -0.6656000018119812
      ],
      "max": [
        3.4274001121520996,
        1.7733999490737915
      ],
      "type": "VEC2",
      "bufferView": 2,
      "byteOffset": 768
    },
    {
      "name": "Box002_1_1_indices",
      "componentType": 5123,
      "count": 102,
      "min": [
        0
      ],
      "max": [
        69
      ],
      "type": "SCALAR",
      "bufferView": 3,
      "byteOffset": 288
    },
    {
      "name": "Box002_1_2_positions",
      "componentType": 5126,
      "count": 60,
      "min": [
        -25.485000610351562,
        -23.379899978637695,
        7.371399879455566
      ],
      "max": [
        26.55769920349121,
        23.409900665283203,
        27.362199783325195
      ],
      "type": "VEC3",
      "bufferView": 0,
      "byteOffset": 1992
    },
    {
      "name": "Box002_1_2_normals",
      "componentType": 5126,
      "count": 60,
      "min": [
        -1,
        -1,
        -0.002899987855926156
      ],
      "max": [
        1,
        1,
        0.0003999999607913196
      ],
      "type": "VEC3",
      "bufferView": 1,
      "byteOffset": 1992
    },
    {
      "name": "Box002_1_2_texcoords",
      "componentType": 5126,
      "count": 60,
      "min": [
        -3.727299928665161,
        -1.1008000373840332
      ],
      "max": [
        4.996300220489502,
        2.3331000804901123
      ],
      "type": "VEC2",
      "bufferView": 2,
      "byteOffset": 1328
    },
    {
      "name": "Box002_1_2_indices",
      "componentType": 5123,
      "count": 90,
      "min": [
        0
      ],
      "max": [
        59
      ],
      "type": "SCALAR",
      "bufferView": 3,
      "byteOffset": 492
    },
    {
      "name": "Box002_1_3_positions",
      "componentType": 5126,
      "count": 936,
      "min": [
        -26.718700408935547,
        -24.874799728393555,
        6.536600112915039
      ],
      "max": [
        28.01729965209961,
        24.874799728393555,
        29.087099075317383
      ],
      "type": "VEC3",
      "bufferView": 0,
      "byteOffset": 2712
    },
    {
      "name": "Box002_1_3_normals",
      "componentType": 5126,
      "count": 936,
      "min": [
        -1,
        -1,
        -1
      ],
      "max": [
        1,
        1,
        1
      ],
      "type": "VEC3",
      "bufferView": 1,
      "byteOffset": 2712
    },
    {
      "name": "Box002_1_3_texcoords",
      "componentType": 5126,
      "count": 936,
      "min": [
        -2.1526999473571777,
        -2.5350000858306885
      ],
      "max": [
        4.394800186157227,
        12779519
      ],
      "type": "VEC2",
      "bufferView": 2,
      "byteOffset": 1808
    },
    {
      "name": "Box002_1_3_indices",
      "componentType": 5123,
      "count": 1464,
      "min": [
        0
      ],
      "max": [
        935
      ],
      "type": "SCALAR",
      "bufferView": 3,
      "byteOffset": 672
    },
    {
      "name": "Box002_1_4_positions",
      "componentType": 5126,
      "count": 20,
      "min": [
        4.508200168609619,
        -19.117900848388672,
        12.637999534606934
      ],
      "max": [
        5.071400165557861,
        -12.679900169372559,
        23.114599227905273
      ],
      "type": "VEC3",
      "bufferView": 0,
      "byteOffset": 13944
    },
    {
      "name": "Box002_1_4_normals",
      "componentType": 5126,
      "count": 20,
      "min": [
        0.02859974093735218,
        -0.9995909333229065,
        -0.9989182353019714
      ],
      "max": [
        1,
        0.9995909333229065,
        0.9989182353019714
      ],
      "type": "VEC3",
      "bufferView": 1,
      "byteOffset": 13944
    },
    {
      "name": "Box002_1_4_texcoords",
      "componentType": 5126,
      "count": 20,
      "min": [
        0,
        0
      ],
      "max": [
        0.9879999756813049,
        0.9977999925613403
      ],
      "type": "VEC2",
      "bufferView": 2,
      "byteOffset": 9296
    },
    {
      "name": "Box002_1_4_indices",
      "componentType": 5123,
      "count": 30,
      "min": [
        0
      ],
      "max": [
        19
      ],
      "type": "SCALAR",
      "bufferView": 3,
      "byteOffset": 3600
    },
    {
      "name": "Box002_1_5_positions",
      "componentType": 5126,
      "count": 26,
      "min": [
        -28.01729965209961,
        -4.871799945831299,
        6.551000118255615
      ],
      "max": [
        12.371000289916992,
        9.043800354003906,
        23.8523006439209
      ],
      "type": "VEC3",
      "bufferView": 0,
      "byteOffset": 14184
    },
    {
      "name": "Box002_1_5_normals",
      "componentType": 5126,
      "count": 26,
      "min": [
        -1,
        -1,
        -1
      ],
      "max": [
        0,
        1,
        1
      ],
      "type": "VEC3",
      "bufferView": 1,
      "byteOffset": 14184
    },
    {
      "name": "Box002_1_5_texcoords",
      "componentType": 5126,
      "count": 26,
      "min": [
        -0.7706999778747559,
        0
      ],
      "max": [
        1,
        7052917
      ],
      "type": "VEC2",
      "bufferView": 2,
      "byteOffset": 9456
    },
    {
      "name": "Box002_1_5_indices",
      "componentType": 5123,
      "count": 36,
      "min": [
        0
      ],
      "max": [
        25
      ],
      "type": "SCALAR",
      "bufferView": 3,
      "byteOffset": 3660
    },
    {
      "name": "Box002_1_6_positions",
      "componentType": 5126,
      "count": 8,
      "min": [
        27.88990020751953,
        -8.854299545288086,
        9.67080020904541
      ],
      "max": [
        27.88990020751953,
        -3.2434000968933105,
        22.025699615478516
      ],
      "type": "VEC3",
      "bufferView": 0,
      "byteOffset": 14496
    },
    {
      "name": "Box002_1_6_normals",
      "componentType": 5126,
      "count": 8,
      "min": [
        1,
        0,
        0
      ],
      "max": [
        1,
        0,
        0
      ],
      "type": "VEC3",
      "bufferView": 1,
      "byteOffset": 14496
    },
    {
      "name": "Box002_1_6_texcoords",
      "componentType": 5126,
      "count": 8,
      "min": [
        0.0024999999441206455,
        -1.007599949836731
      ],
      "max": [
        0.7746999859809875,
        2.001800060272217
      ],
      "type": "VEC2",
      "bufferView": 2,
      "byteOffset": 9664
    },
    {
      "name": "Box002_1_6_indices",
      "componentType": 5123,
      "count": 12,
      "min": [
        0
      ],
      "max": [
        7
      ],
      "type": "SCALAR",
      "bufferView": 3,
      "byteOffset": 3732
    },
    {
      "name": "Box002_1_7_positions",
      "componentType": 5126,
      "count": 32,
      "min": [
        27.37809944152832,
        0.4830000102519989,
        8.000100135803223
      ],
      "max": [
        28.013200759887695,
        7.7505998611450195,
        23.677799224853516
      ],
      "type": "VEC3",
      "bufferView": 0,
      "byteOffset": 14592
    },
    {
      "name": "Box002_1_7_normals",
      "componentType": 5126,
      "count": 32,
      "min": [
        0.11929505318403244,
        -0.9928588271141052,
        -0.9668643474578857
      ],
      "max": [
        1,
        0.9928588271141052,
        0.9691462516784668
      ],
      "type": "VEC3",
      "bufferView": 1,
      "byteOffset": 14592
    },
    {
      "name": "Box002_1_7_texcoords",
      "componentType": 5126,
      "count": 32,
      "min": [
        0,
        0
      ],
      "max": [
        1,
        1
      ],
      "type": "VEC2",
      "bufferView": 2,
      "byteOffset": 9728
    },
    {
      "name": "Box002_1_7_indices",
      "componentType": 5123,
      "count": 48,
      "min": [
        0
      ],
      "max": [
        31
      ],
      "type": "SCALAR",
      "bufferView": 3,
      "byteOffset": 3756
    },
    {
      "name": "Box002_1_8_positions",
      "componentType": 5126,
      "count": 30,
      "min": [
        -23.3080997467041,
        -21.37310028076172,
        0
      ],
      "max": [
        23.803300857543945,
        20.849899291992188,
        6.942800045013428
      ],
      "type": "VEC3",
      "bufferView": 0,
      "byteOffset": 14976
    },
    {
      "name": "Box002_1_8_normals",
      "componentType": 5126,
      "count": 30,
      "min": [
        -0.9999999403953552,
        -1,
        0
      ],
      "max": [
        1,
        1,
        0.0008999996352940798
      ],
      "type": "VEC3",
      "bufferView": 1,
      "byteOffset": 14976
    },
    {
      "name": "Box002_1_8_texcoords",
      "componentType": 5126,
      "count": 30,
      "min": [
        -0.28200000524520874,
        -0.2485000044107437
      ],
      "max": [
        1.281999945640564,
        1
      ],
      "type": "VEC2",
      "bufferView": 2,
      "byteOffset": 9984
    },
    {
      "name": "Box002_1_8_indices",
      "componentType": 5123,
      "count": 42,
      "min": [
        0
      ],
      "max": [
        29
      ],
      "type": "SCALAR",
      "bufferView": 3,
      "byteOffset": 3852
    },
    {
      "name": "Box002_1_9_positions",
      "componentType": 5126,
      "count": 173,
      "min": [
        -25.821699142456055,
        -24.01740074157715,
        0
      ],
      "max": [
        27.4060001373291,
        23.501399993896484,
        7.900000095367432
      ],
      "type": "VEC3",
      "bufferView": 0,
      "byteOffset": 15336
    },
    {
      "name": "Box002_1_9_normals",
      "componentType": 5126,
      "count": 173,
      "min": [
        -1,
        -1,
        -0.00009999999747378752
      ],
      "max": [
        1,
        1,
        0.0008999996352940798
      ],
      "type": "VEC3",
      "bufferView": 1,
      "byteOffset": 15336
    },
    {
      "name": "Box002_1_9_texcoords",
      "componentType": 5126,
      "count": 173,
      "min": [
        -3.3461999893188477,
        0
      ],
      "max": [
        4.346199989318848,
        1
      ],
      "type": "VEC2",
      "bufferView": 2,
      "byteOffset": 10224
    },
    {
      "name": "Box002_1_9_indices",
      "componentType": 5123,
      "count": 246,
      "min": [
        0
      ],
      "max": [
        172
      ],
      "type": "SCALAR",
      "bufferView": 3,
      "byteOffset": 3936
    },
    {
      "name": "Box002_1_10_positions",
      "componentType": 5126,
      "count": 36,
      "min": [
        -25.481300354003906,
        -24.01740074157715,
        0.0003000000142492354
      ],
      "max": [
        20.67840003967285,
        20.849899291992188,
        6.942800045013428
      ],
      "type": "VEC3",
      "bufferView": 0,
      "byteOffset": 17412
    },
    {
      "name": "Box002_1_10_normals",
      "componentType": 5126,
      "count": 36,
      "min": [
        -1,
        -1,
        0
      ],
      "max": [
        1,
        1,
        0.00009999999747378752
      ],
      "type": "VEC3",
      "bufferView": 1,
      "byteOffset": 17412
    },
    {
      "name": "Box002_1_10_texcoords",
      "componentType": 5126,
      "count": 36,
      "min": [
        -1.1090999841690063,
        -1.2218999862670898
      ],
      "max": [
        1.1799999475479126,
        2.031899929046631
      ],
      "type": "VEC2",
      "bufferView": 2,
      "byteOffset": 11608
    },
    {
      "name": "Box002_1_10_indices",
      "componentType": 5123,
      "count": 48,
      "min": [
        0
      ],
      "max": [
        35
      ],
      "type": "SCALAR",
      "bufferView": 3,
      "byteOffset": 4428
    },
    {
      "name": "Box002_1_11_positions",
      "componentType": 5126,
      "count": 36,
      "min": [
        -25.31399917602539,
        -18.1560001373291,
        7.651000022888184
      ],
      "max": [
        27.0177001953125,
        18.299100875854492,
        9.53909969329834
      ],
      "type": "VEC3",
      "bufferView": 0,
      "byteOffset": 17844
    },
    {
      "name": "Box002_1_11_normals",
      "componentType": 5126,
      "count": 36,
      "min": [
        -0.9999998211860657,
        -1,
        0
      ],
      "max": [
        0.9999998211860657,
        1,
        0
      ],
      "type": "VEC3",
      "bufferView": 1,
      "byteOffset": 17844
    },
    {
      "name": "Box002_1_11_texcoords",
      "componentType": 5126,
      "count": 36,
      "min": [
        -2.226099967956543,
        0.2029999941587448
      ],
      "max": [
        3.044600009918213,
        0.9477999806404114
      ],
      "type": "VEC2",
      "bufferView": 2,
      "byteOffset": 11896
    },
    {
      "name": "Box002_1_11_indices",
      "componentType": 5123,
      "count": 48,
      "min": [
        0
      ],
      "max": [
        35
      ],
      "type": "SCALAR",
      "bufferView": 3,
      "byteOffset": 4524
    },
    {
      "name": "Box002_1_12_positions",
      "componentType": 5126,
      "count": 214,
      "min": [
        -26.045799255371094,
        -18.58810043334961,
        7.773399829864502
      ],
      "max": [
        27.57740020751953,
        18.731199264526367,
        8.083999633789062
      ],
      "type": "VEC3",
      "bufferView": 0,
      "byteOffset": 18276
    },
    {
      "name": "Box002_1_12_normals",
      "componentType": 5126,
      "count": 214,
      "min": [
        -1,
        -1,
        -1
      ],
      "max": [
        1,
        1,
        1
      ],
      "type": "VEC3",
      "bufferView": 1,
      "byteOffset": 18276
    },
    {
      "name": "Box002_1_12_texcoords",
      "componentType": 5126,
      "count": 214,
      "min": [
        0,
        0
      ],
      "max": [
        1,
        1
      ],
      "type": "VEC2",
      "bufferView": 2,
      "byteOffset": 12184
    },
    {
      "name": "Box002_1_12_indices",
      "componentType": 5123,
      "count": 300,
      "min": [
        0
      ],
      "max": [
        213
      ],
      "type": "SCALAR",
      "bufferView": 3,
      "byteOffset": 4620
    }
  ],
  "asset": {
    "generator": "obj2gltf",
    "version": "2.0"
  },
  "buffers": [
    {
      "name": "Q7",
      "byteLength": 60804,
      "uri": "data:application/octet-stream;base64,"
    }
  ],
  "bufferViews": [
    {
      "name": "bufferView_0",
      "buffer": 0,
      "byteLength": 20844,
      "byteOffset": 0,
      "byteStride": 12,
      "target": 34962
    },
    {
      "name": "bufferView_1",
      "buffer": 0,
      "byteLength": 20844,
      "byteOffset": 20844,
      "byteStride": 12,
      "target": 34962
    },
    {
      "name": "bufferView_2",
      "buffer": 0,
      "byteLength": 13896,
      "byteOffset": 41688,
      "byteStride": 8,
      "target": 34962
    },
    {
      "name": "bufferView_3",
      "buffer": 0,
      "byteLength": 5220,
      "byteOffset": 55584,
      "target": 34963
    }
  ],
  "images": [
    {
      "name": "SGY_Q1_018",
      "uri": "SGY_Q1_018.jpg"
    },
    {
      "name": "SGY_q1_074",
      "uri": "SGY_q1_074.jpg"
    },
    {
      "name": "SGY_q1_075",
      "uri": "SGY_q1_075.jpg"
    },
    {
      "name": "SGY_q1_078",
      "uri": "SGY_q1_078.jpg"
    },
    {
      "name": "SGY_q1_076",
      "uri": "SGY_q1_076.jpg"
    },
    {
      "name": "SGY_q1_073",
      "uri": "SGY_q1_073.jpg"
    },
    {
      "name": "SGY_q1_080",
      "uri": "SGY_q1_080.jpg"
    },
    {
      "name": "SGY_q1_079",
      "uri": "SGY_q1_079.jpg"
    },
    {
      "name": "SGY_Q1_017",
      "uri": "SGY_Q1_017.jpg"
    },
    {
      "name": "SGY_q1_081",
      "uri": "SGY_q1_081.jpg"
    },
    {
      "name": "sgy_2q_34",
      "uri": "sgy_2q_34.jpg"
    },
    {
      "name": "SGY_q1_059",
      "uri": "SGY_q1_059.jpg"
    }
  ],
  "materials": [
    {
      "name": "Material__60",
      "pbrMetallicRoughness": {
        "baseColorTexture": {
          "index": 0
        },
        "baseColorFactor": [
          1,
          1,
          1,
          1
        ],
        "metallicFactor": 0,
        "roughnessFactor": 0.99
      },
      "emissiveFactor": [
        0,
        0,
        0
      ],
      "alphaMode": "OPAQUE",
      "doubleSided": false
    },
    {
      "name": "Material__23",
      "pbrMetallicRoughness": {
        "baseColorTexture": {
          "index": 1
        },
        "baseColorFactor": [
          1,
          1,
          1,
          1
        ],
        "metallicFactor": 0,
        "roughnessFactor": 0.99
      },
      "emissiveFactor": [
        0,
        0,
        0
      ],
      "alphaMode": "OPAQUE",
      "doubleSided": false
    },
    {
      "name": "Material__138",
      "pbrMetallicRoughness": {
        "baseColorTexture": {
          "index": 2
        },
        "baseColorFactor": [
          1,
          1,
          1,
          1
        ],
        "metallicFactor": 0,
        "roughnessFactor": 0.99
      },
      "emissiveFactor": [
        0,
        0,
        0
      ],
      "alphaMode": "OPAQUE",
      "doubleSided": false
    },
    {
      "name": "Material__297",
      "pbrMetallicRoughness": {
        "baseColorTexture": {
          "index": 3
        },
        "baseColorFactor": [
          1,
          1,
          1,
          1
        ],
        "metallicFactor": 0,
        "roughnessFactor": 0.99
      },
      "emissiveFactor": [
        0,
        0,
        0
      ],
      "alphaMode": "OPAQUE",
      "doubleSided": false
    },
    {
      "name": "Material__185",
      "pbrMetallicRoughness": {
        "baseColorTexture": {
          "index": 4
        },
        "baseColorFactor": [
          1,
          1,
          1,
          1
        ],
        "metallicFactor": 0,
        "roughnessFactor": 0.99
      },
      "emissiveFactor": [
        0,
        0,
        0
      ],
      "alphaMode": "OPAQUE",
      "doubleSided": false
    },
    {
      "name": "Material__0",
      "pbrMetallicRoughness": {
        "baseColorTexture": {
          "index": 5
        },
        "baseColorFactor": [
          1,
          1,
          1,
          1
        ],
        "metallicFactor": 0,
        "roughnessFactor": 0.99
      },
      "emissiveFactor": [
        0,
        0,
        0
      ],
      "alphaMode": "OPAQUE",
      "doubleSided": false
    },
    {
      "name": "Material__498",
      "pbrMetallicRoughness": {
        "baseColorTexture": {
          "index": 6
        },
        "baseColorFactor": [
          1,
          1,
          1,
          1
        ],
        "metallicFactor": 0,
        "roughnessFactor": 0.99
      },
      "emissiveFactor": [
        0,
        0,
        0
      ],
      "alphaMode": "OPAQUE",
      "doubleSided": false
    },
    {
      "name": "Material__475",
      "pbrMetallicRoughness": {
        "baseColorTexture": {
          "index": 7
        },
        "baseColorFactor": [
          1,
          1,
          1,
          1
        ],
        "metallicFactor": 0,
        "roughnessFactor": 0.99
      },
      "emissiveFactor": [
        0,
        0,
        0
      ],
      "alphaMode": "OPAQUE",
      "doubleSided": false
    },
    {
      "name": "Material__640",
      "pbrMetallicRoughness": {
        "baseColorTexture": {
          "index": 8
        },
        "baseColorFactor": [
          1,
          1,
          1,
          1
        ],
        "metallicFactor": 0,
        "roughnessFactor": 0.99
      },
      "emissiveFactor": [
        0,
        0,
        0
      ],
      "alphaMode": "OPAQUE",
      "doubleSided": false
    },
    {
      "name": "Material__535",
      "pbrMetallicRoughness": {
        "baseColorTexture": {
          "index": 9
        },
        "baseColorFactor": [
          1,
          1,
          1,
          1
        ],
        "metallicFactor": 0,
        "roughnessFactor": 0.99
      },
      "emissiveFactor": [
        0,
        0,
        0
      ],
      "alphaMode": "OPAQUE",
      "doubleSided": false
    },
    {
      "name": "Material__653",
      "pbrMetallicRoughness": {
        "baseColorTexture": {
          "index": 0
        },
        "baseColorFactor": [
          1,
          1,
          1,
          1
        ],
        "metallicFactor": 0,
        "roughnessFactor": 0.972944
      },
      "emissiveFactor": [
        0,
        0,
        0
      ],
      "alphaMode": "OPAQUE",
      "doubleSided": false
    },
    {
      "name": "Material__606",
      "pbrMetallicRoughness": {
        "baseColorTexture": {
          "index": 10
        },
        "baseColorFactor": [
          1,
          1,
          1,
          1
        ],
        "metallicFactor": 0,
        "roughnessFactor": 0.99
      },
      "emissiveFactor": [
        0,
        0,
        0
      ],
      "alphaMode": "BLEND",
      "doubleSided": true
    },
    {
      "name": "Material__594",
      "pbrMetallicRoughness": {
        "baseColorTexture": {
          "index": 11
        },
        "baseColorFactor": [
          1,
          1,
          1,
          1
        ],
        "metallicFactor": 0,
        "roughnessFactor": 0.99
      },
      "emissiveFactor": [
        0,
        0,
        0
      ],
      "alphaMode": "OPAQUE",
      "doubleSided": false
    }
  ],
  "meshes": [
    {
      "name": "Box002_1",
      "primitives": [
        {
          "attributes": {
            "POSITION": 0,
            "NORMAL": 1,
            "TEXCOORD_0": 2
          },
          "indices": 3,
          "material": 0,
          "mode": 4
        },
        {
          "attributes": {
            "POSITION": 4,
            "NORMAL": 5,
            "TEXCOORD_0": 6
          },
          "indices": 7,
          "material": 1,
          "mode": 4
        },
        {
          "attributes": {
            "POSITION": 8,
            "NORMAL": 9,
            "TEXCOORD_0": 10
          },
          "indices": 11,
          "material": 2,
          "mode": 4
        },
        {
          "attributes": {
            "POSITION": 12,
            "NORMAL": 13,
            "TEXCOORD_0": 14
          },
          "indices": 15,
          "material": 3,
          "mode": 4
        },
        {
          "attributes": {
            "POSITION": 16,
            "NORMAL": 17,
            "TEXCOORD_0": 18
          },
          "indices": 19,
          "material": 4,
          "mode": 4
        },
        {
          "attributes": {
            "POSITION": 20,
            "NORMAL": 21,
            "TEXCOORD_0": 22
          },
          "indices": 23,
          "material": 5,
          "mode": 4
        },
        {
          "attributes": {
            "POSITION": 24,
            "NORMAL": 25,
            "TEXCOORD_0": 26
          },
          "indices": 27,
          "material": 6,
          "mode": 4
        },
        {
          "attributes": {
            "POSITION": 28,
            "NORMAL": 29,
            "TEXCOORD_0": 30
          },
          "indices": 31,
          "material": 7,
          "mode": 4
        },
        {
          "attributes": {
            "POSITION": 32,
            "NORMAL": 33,
            "TEXCOORD_0": 34
          },
          "indices": 35,
          "material": 8,
          "mode": 4
        },
        {
          "attributes": {
            "POSITION": 36,
            "NORMAL": 37,
            "TEXCOORD_0": 38
          },
          "indices": 39,
          "material": 9,
          "mode": 4
        },
        {
          "attributes": {
            "POSITION": 40,
            "NORMAL": 41,
            "TEXCOORD_0": 42
          },
          "indices": 43,
          "material": 10,
          "mode": 4
        },
        {
          "attributes": {
            "POSITION": 44,
            "NORMAL": 45,
            "TEXCOORD_0": 46
          },
          "indices": 47,
          "material": 11,
          "mode": 4
        },
        {
          "attributes": {
            "POSITION": 48,
            "NORMAL": 49,
            "TEXCOORD_0": 50
          },
          "indices": 51,
          "material": 12,
          "mode": 4
        }
      ]
    }
  ],
  "nodes": [
    {
      "name": "Box002",
      "mesh": 0
    }
  ],
  "samplers": [
    {
      "wrapS": 10497,
      "wrapT": 10497
    }
  ],
  "scene": 0,
  "scenes": [
    {
      "nodes": [
        0
      ]
    }
  ],
  "textures": [
    {
      "name": "SGY_Q1_018",
      "sampler": 0,
      "source": 0
    },
    {
      "name": "SGY_q1_074",
      "sampler": 0,
      "source": 1
    },
    {
      "name": "SGY_q1_075",
      "sampler": 0,
      "source": 2
    },
    {
      "name": "SGY_q1_078",
      "sampler": 0,
      "source": 3
    },
    {
      "name": "SGY_q1_076",
      "sampler": 0,
      "source": 4
    },
    {
      "name": "SGY_q1_073",
      "sampler": 0,
      "source": 5
    },
    {
      "name": "SGY_q1_080",
      "sampler": 0,
      "source": 6
    },
    {
      "name": "SGY_q1_079",
      "sampler": 0,
      "source": 7
    },
    {
      "name": "SGY_Q1_017",
      "sampler": 0,
      "source": 8
    },
    {
      "name": "SGY_q1_081",
      "sampler": 0,
      "source": 9
    },
    {
      "name": "sgy_2q_34",
      "sampler": 0,
      "source": 10
    },
    {
      "name": "SGY_q1_059",
      "sampler": 0,
      "source": 11
    }
  ]
}
