{
  "accessors": [
    {
      "name": "Box022_1_0_positions",
      "componentType": 5126,
      "count": 446,
      "min": [
        -24.881900787353516,
        -30.29210090637207,
        -0.004699999932199717
      ],
      "max": [
        38.6432991027832,
        30.467199325561523,
        16.360599517822266
      ],
      "type": "VEC3",
      "bufferView": 0,
      "byteOffset": 0
    },
    {
      "name": "Box022_1_0_normals",
      "componentType": 5126,
      "count": 446,
      "min": [
        -1,
        -1,
        -1
      ],
      "max": [
        1,
        1,
        1
      ],
      "type": "VEC3",
      "bufferView": 1,
      "byteOffset": 0
    },
    {
      "name": "Box022_1_0_texcoords",
      "componentType": 5126,
      "count": 446,
      "min": [
        -5.537499904632568,
        -0.8393999934196472
      ],
      "max": [
        6.537499904632568,
        9.513699531555176
      ],
      "type": "VEC2",
      "bufferView": 2,
      "byteOffset": 0
    },
    {
      "name": "Box022_1_0_indices",
      "componentType": 5123,
      "count": 696,
      "min": [
        0
      ],
      "max": [
        445
      ],
      "type": "SCALAR",
      "bufferView": 3,
      "byteOffset": 0
    },
    {
      "name": "Box022_1_1_positions",
      "componentType": 5126,
      "count": 68,
      "min": [
        -23.620399475097656,
        -8.17549991607666,
        -0.004699999932199717
      ],
      "max": [
        31.936100006103516,
        29.205699920654297,
        6.1219000816345215
      ],
      "type": "VEC3",
      "bufferView": 0,
      "byteOffset": 5352
    },
    {
      "name": "Box022_1_1_normals",
      "componentType": 5126,
      "count": 68,
      "min": [
        -1,
        -1,
        -1
      ],
      "max": [
        1,
        1,
        1
      ],
      "type": "VEC3",
      "bufferView": 1,
      "byteOffset": 5352
    },
    {
      "name": "Box022_1_1_texcoords",
      "componentType": 5126,
      "count": 68,
      "min": [
        -3.743299961090088,
        0
      ],
      "max": [
        4.679999828338623,
        1.0009000301361084
      ],
      "type": "VEC2",
      "bufferView": 2,
      "byteOffset": 3568
    },
    {
      "name": "Box022_1_1_indices",
      "componentType": 5123,
      "count": 114,
      "min": [
        0
      ],
      "max": [
        67
      ],
      "type": "SCALAR",
      "bufferView": 3,
      "byteOffset": 1392
    },
    {
      "name": "Box022_1_2_positions",
      "componentType": 5126,
      "count": 69,
      "min": [
        -24.881900787353516,
        -10.566800117492676,
        6.1219000816345215
      ],
      "max": [
        31.936100006103516,
        30.467199325561523,
        16.360599517822266
      ],
      "type": "VEC3",
      "bufferView": 0,
      "byteOffset": 6168
    },
    {
      "name": "Box022_1_2_normals",
      "componentType": 5126,
      "count": 69,
      "min": [
        -1,
        0,
        0
      ],
      "max": [
        1,
        1,
        0
      ],
      "type": "VEC3",
      "bufferView": 1,
      "byteOffset": 6168
    },
    {
      "name": "Box022_1_2_texcoords",
      "componentType": 5126,
      "count": 69,
      "min": [
        -0.06930000334978104,
        0
      ],
      "max": [
        1.2015000581741333,
        1
      ],
      "type": "VEC2",
      "bufferView": 2,
      "byteOffset": 4112
    },
    {
      "name": "Box022_1_2_indices",
      "componentType": 5123,
      "count": 111,
      "min": [
        0
      ],
      "max": [
        68
      ],
      "type": "SCALAR",
      "bufferView": 3,
      "byteOffset": 1620
    },
    {
      "name": "Box022_1_3_positions",
      "componentType": 5126,
      "count": 25,
      "min": [
        -24.881900787353516,
        -22.36669921875,
        -0.004699999932199717
      ],
      "max": [
        38.6432991027832,
        30.467199325561523,
        16.360599517822266
      ],
      "type": "VEC3",
      "bufferView": 0,
      "byteOffset": 6996
    },
    {
      "name": "Box022_1_3_normals",
      "componentType": 5126,
      "count": 25,
      "min": [
        -1,
        -1,
        0
      ],
      "max": [
        1,
        1,
        0
      ],
      "type": "VEC3",
      "bufferView": 1,
      "byteOffset": 6996
    },
    {
      "name": "Box022_1_3_texcoords",
      "componentType": 5126,
      "count": 25,
      "min": [
        -0.0010000000474974513,
        0
      ],
      "max": [
        2.4667999744415283,
        1
      ],
      "type": "VEC2",
      "bufferView": 2,
      "byteOffset": 4664
    },
    {
      "name": "Box022_1_3_indices",
      "componentType": 5123,
      "count": 39,
      "min": [
        0
      ],
      "max": [
        24
      ],
      "type": "SCALAR",
      "bufferView": 3,
      "byteOffset": 1844
    },
    {
      "name": "Box022_1_4_positions",
      "componentType": 5126,
      "count": 519,
      "min": [
        -38.6432991027832,
        -22.36669921875,
        -0.004699999932199717
      ],
      "max": [
        38.6432991027832,
        30.467199325561523,
        28.190099716186523
      ],
      "type": "VEC3",
      "bufferView": 0,
      "byteOffset": 7296
    },
    {
      "name": "Box022_1_4_normals",
      "componentType": 5126,
      "count": 519,
      "min": [
        -1,
        -1,
        -1
      ],
      "max": [
        1,
        1,
        1
      ],
      "type": "VEC3",
      "bufferView": 1,
      "byteOffset": 7296
    },
    {
      "name": "Box022_1_4_texcoords",
      "componentType": 5126,
      "count": 519,
      "min": [
        -1.177899956703186,
        -3.4319000244140625
      ],
      "max": [
        1.854699969291687,
        6.771599769592285
      ],
      "type": "VEC2",
      "bufferView": 2,
      "byteOffset": 4864
    },
    {
      "name": "Box022_1_4_indices",
      "componentType": 5123,
      "count": 1005,
      "min": [
        0
      ],
      "max": [
        518
      ],
      "type": "SCALAR",
      "bufferView": 3,
      "byteOffset": 1924
    },
    {
      "name": "Box022_1_5_positions",
      "componentType": 5126,
      "count": 47,
      "min": [
        -24.881900787353516,
        -22.36669921875,
        -0.004699999932199717
      ],
      "max": [
        38.6432991027832,
        -2.0220999717712402,
        16.360599517822266
      ],
      "type": "VEC3",
      "bufferView": 0,
      "byteOffset": 13524
    },
    {
      "name": "Box022_1_5_normals",
      "componentType": 5126,
      "count": 47,
      "min": [
        0,
        -1,
        -1
      ],
      "max": [
        1,
        1,
        0
      ],
      "type": "VEC3",
      "bufferView": 1,
      "byteOffset": 13524
    },
    {
      "name": "Box022_1_5_texcoords",
      "componentType": 5126,
      "count": 47,
      "min": [
        -1.75409996509552,
        -0.014000000432133675
      ],
      "max": [
        1,
        1
      ],
      "type": "VEC2",
      "bufferView": 2,
      "byteOffset": 9016
    },
    {
      "name": "Box022_1_5_indices",
      "componentType": 5123,
      "count": 69,
      "min": [
        0
      ],
      "max": [
        46
      ],
      "type": "SCALAR",
      "bufferView": 3,
      "byteOffset": 3936
    },
    {
      "name": "Box022_1_6_positions",
      "componentType": 5126,
      "count": 129,
      "min": [
        -38.6432991027832,
        -30.29210090637207,
        0.603600025177002
      ],
      "max": [
        38.10770034790039,
        30.467199325561523,
        27.220199584960938
      ],
      "type": "VEC3",
      "bufferView": 0,
      "byteOffset": 14088
    },
    {
      "name": "Box022_1_6_normals",
      "componentType": 5126,
      "count": 129,
      "min": [
        0,
        -0.39478805661201477,
        0.8200297951698303
      ],
      "max": [
        0.4161898195743561,
        0.572320818901062,
        1
      ],
      "type": "VEC3",
      "bufferView": 1,
      "byteOffset": 14088
    },
    {
      "name": "Box022_1_6_texcoords",
      "componentType": 5126,
      "count": 129,
      "min": [
        -0.9821000099182129,
        -1.5039000511169434
      ],
      "max": [
        1.982100009918213,
        2.5039000511169434
      ],
      "type": "VEC2",
      "bufferView": 2,
      "byteOffset": 9392
    },
    {
      "name": "Box022_1_6_indices",
      "componentType": 5123,
      "count": 231,
      "min": [
        0
      ],
      "max": [
        128
      ],
      "type": "SCALAR",
      "bufferView": 3,
      "byteOffset": 4076
    },
    {
      "name": "Box022_1_7_positions",
      "componentType": 5126,
      "count": 4,
      "min": [
        -20.01759910583496,
        29.205699920654297,
        -0.004699999932199717
      ],
      "max": [
        13.888699531555176,
        29.205699920654297,
        6.1219000816345215
      ],
      "type": "VEC3",
      "bufferView": 0,
      "byteOffset": 15636
    },
    {
      "name": "Box022_1_7_normals",
      "componentType": 5126,
      "count": 4,
      "min": [
        0,
        1,
        0
      ],
      "max": [
        0,
        1,
        0
      ],
      "type": "VEC3",
      "bufferView": 1,
      "byteOffset": 15636
    },
    {
      "name": "Box022_1_7_texcoords",
      "componentType": 5126,
      "count": 4,
      "min": [
        -2.702699899673462,
        0.0008999999845400453
      ],
      "max": [
        3.970900058746338,
        1.0009000301361084
      ],
      "type": "VEC2",
      "bufferView": 2,
      "byteOffset": 10424
    },
    {
      "name": "Box022_1_7_indices",
      "componentType": 5123,
      "count": 6,
      "min": [
        0
      ],
      "max": [
        3
      ],
      "type": "SCALAR",
      "bufferView": 3,
      "byteOffset": 4540
    },
    {
      "name": "Box022_1_8_positions",
      "componentType": 5126,
      "count": 36,
      "min": [
        -24.881900787353516,
        -22.36669921875,
        6.1219000816345215
      ],
      "max": [
        18.753000259399414,
        30.467199325561523,
        16.360599517822266
      ],
      "type": "VEC3",
      "bufferView": 0,
      "byteOffset": 15684
    },
    {
      "name": "Box022_1_8_normals",
      "componentType": 5126,
      "count": 36,
      "min": [
        -1,
        -1,
        0
      ],
      "max": [
        1,
        1,
        0
      ],
      "type": "VEC3",
      "bufferView": 1,
      "byteOffset": 15684
    },
    {
      "name": "Box022_1_8_texcoords",
      "componentType": 5126,
      "count": 36,
      "min": [
        -0.12880000472068787,
        0
      ],
      "max": [
        2.003000020980835,
        1
      ],
      "type": "VEC2",
      "bufferView": 2,
      "byteOffset": 10456
    },
    {
      "name": "Box022_1_8_indices",
      "componentType": 5123,
      "count": 54,
      "min": [
        0
      ],
      "max": [
        35
      ],
      "type": "SCALAR",
      "bufferView": 3,
      "byteOffset": 4552
    },
    {
      "name": "Box022_1_9_positions",
      "componentType": 5126,
      "count": 162,
      "min": [
        -38.6432991027832,
        -22.170900344848633,
        0.5005999803543091
      ],
      "max": [
        38.37139892578125,
        30.049800872802734,
        25.428699493408203
      ],
      "type": "VEC3",
      "bufferView": 0,
      "byteOffset": 16116
    },
    {
      "name": "Box022_1_9_normals",
      "componentType": 5126,
      "count": 162,
      "min": [
        -1,
        -1,
        0
      ],
      "max": [
        1,
        1,
        0
      ],
      "type": "VEC3",
      "bufferView": 1,
      "byteOffset": 16116
    },
    {
      "name": "Box022_1_9_texcoords",
      "componentType": 5126,
      "count": 162,
      "min": [
        -14.045900344848633,
        -3.9972000122070312
      ],
      "max": [
        31.036800384521484,
        0.6919000148773193
      ],
      "type": "VEC2",
      "bufferView": 2,
      "byteOffset": 10744
    },
    {
      "name": "Box022_1_9_indices",
      "componentType": 5123,
      "count": 324,
      "min": [
        0
      ],
      "max": [
        161
      ],
      "type": "SCALAR",
      "bufferView": 3,
      "byteOffset": 4660
    },
    {
      "name": "Box022_1_10_positions",
      "componentType": 5126,
      "count": 20,
      "min": [
        -11.388899803161621,
        -3.140199899673462,
        16.094900131225586
      ],
      "max": [
        -4.296299934387207,
        -2.7032999992370605,
        22.437000274658203
      ],
      "type": "VEC3",
      "bufferView": 0,
      "byteOffset": 18060
    },
    {
      "name": "Box022_1_10_normals",
      "componentType": 5126,
      "count": 20,
      "min": [
        -1,
        -1,
        -1
      ],
      "max": [
        1,
        0,
        1
      ],
      "type": "VEC3",
      "bufferView": 1,
      "byteOffset": 18060
    },
    {
      "name": "Box022_1_10_texcoords",
      "componentType": 5126,
      "count": 20,
      "min": [
        0,
        0
      ],
      "max": [
        1,
        1
      ],
      "type": "VEC2",
      "bufferView": 2,
      "byteOffset": 12040
    },
    {
      "name": "Box022_1_10_indices",
      "componentType": 5123,
      "count": 30,
      "min": [
        0
      ],
      "max": [
        19
      ],
      "type": "SCALAR",
      "bufferView": 3,
      "byteOffset": 5308
    },
    {
      "name": "Box022_1_11_positions",
      "componentType": 5126,
      "count": 61,
      "min": [
        -12.759300231933594,
        -2.7032999992370605,
        14.819199562072754
      ],
      "max": [
        32.0172004699707,
        28.730600357055664,
        23.966400146484375
      ],
      "type": "VEC3",
      "bufferView": 0,
      "byteOffset": 18300
    },
    {
      "name": "Box022_1_11_normals",
      "componentType": 5126,
      "count": 61,
      "min": [
        -1,
        -1,
        0
      ],
      "max": [
        1,
        1,
        0
      ],
      "type": "VEC3",
      "bufferView": 1,
      "byteOffset": 18300
    },
    {
      "name": "Box022_1_11_texcoords",
      "componentType": 5126,
      "count": 61,
      "min": [
        -0.27079999446868896,
        0
      ],
      "max": [
        1.1358000040054321,
        1
      ],
      "type": "VEC2",
      "bufferView": 2,
      "byteOffset": 12200
    },
    {
      "name": "Box022_1_11_indices",
      "componentType": 5123,
      "count": 135,
      "min": [
        0
      ],
      "max": [
        60
      ],
      "type": "SCALAR",
      "bufferView": 3,
      "byteOffset": 5368
    },
    {
      "name": "Box022_1_12_positions",
      "componentType": 5126,
      "count": 10,
      "min": [
        6.554800033569336,
        -2.7032999992370605,
        14.819199562072754
      ],
      "max": [
        32.0172004699707,
        28.730600357055664,
        23.966400146484375
      ],
      "type": "VEC3",
      "bufferView": 0,
      "byteOffset": 19032
    },
    {
      "name": "Box022_1_12_normals",
      "componentType": 5126,
      "count": 10,
      "min": [
        0,
        -1,
        0
      ],
      "max": [
        0,
        1,
        0
      ],
      "type": "VEC3",
      "bufferView": 1,
      "byteOffset": 19032
    },
    {
      "name": "Box022_1_12_texcoords",
      "componentType": 5126,
      "count": 10,
      "min": [
        0.06459999829530716,
        0
      ],
      "max": [
        1.131100058555603,
        1
      ],
      "type": "VEC2",
      "bufferView": 2,
      "byteOffset": 12688
    },
    {
      "name": "Box022_1_12_indices",
      "componentType": 5123,
      "count": 18,
      "min": [
        0
      ],
      "max": [
        9
      ],
      "type": "SCALAR",
      "bufferView": 3,
      "byteOffset": 5640
    },
    {
      "name": "Box022_1_13_positions",
      "componentType": 5126,
      "count": 40,
      "min": [
        24.887699127197266,
        18.03019905090332,
        16.15839958190918
      ],
      "max": [
        32.46950149536133,
        29.161399841308594,
        22.59589958190918
      ],
      "type": "VEC3",
      "bufferView": 0,
      "byteOffset": 19152
    },
    {
      "name": "Box022_1_13_normals",
      "componentType": 5126,
      "count": 40,
      "min": [
        -1,
        -1,
        -1
      ],
      "max": [
        1,
        1,
        1
      ],
      "type": "VEC3",
      "bufferView": 1,
      "byteOffset": 19152
    },
    {
      "name": "Box022_1_13_texcoords",
      "componentType": 5126,
      "count": 40,
      "min": [
        -0.006000000052154064,
        0
      ],
      "max": [
        1.0032000541687012,
        1
      ],
      "type": "VEC2",
      "bufferView": 2,
      "byteOffset": 12768
    },
    {
      "name": "Box022_1_13_indices",
      "componentType": 5123,
      "count": 60,
      "min": [
        0
      ],
      "max": [
        39
      ],
      "type": "SCALAR",
      "bufferView": 3,
      "byteOffset": 5676
    },
    {
      "name": "Box022_1_14_positions",
      "componentType": 5126,
      "count": 55,
      "min": [
        -15.330100059509277,
        -30.467199325561523,
        0
      ],
      "max": [
        37.58359909057617,
        -8.107000350952148,
        9.267800331115723
      ],
      "type": "VEC3",
      "bufferView": 0,
      "byteOffset": 19632
    },
    {
      "name": "Box022_1_14_normals",
      "componentType": 5126,
      "count": 55,
      "min": [
        -1,
        -1,
        0
      ],
      "max": [
        1,
        0,
        0
      ],
      "type": "VEC3",
      "bufferView": 1,
      "byteOffset": 19632
    },
    {
      "name": "Box022_1_14_texcoords",
      "componentType": 5126,
      "count": 55,
      "min": [
        -17.98509979248047,
        -4.999300003051758
      ],
      "max": [
        18.05660057067871,
        0.0471000000834465
      ],
      "type": "VEC2",
      "bufferView": 2,
      "byteOffset": 13088
    },
    {
      "name": "Box022_1_14_indices",
      "componentType": 5123,
      "count": 87,
      "min": [
        0
      ],
      "max": [
        54
      ],
      "type": "SCALAR",
      "bufferView": 3,
      "byteOffset": 5796
    }
  ],
  "asset": {
    "generator": "obj2gltf",
    "version": "2.0"
  },
  "buffers": [
    {
      "name": "3_jz14",
      "byteLength": 60084,
      "uri": "data:application/octet-stream;base64,"
    }
  ],
  "bufferViews": [
    {
      "name": "bufferView_0",
      "buffer": 0,
      "byteLength": 20292,
      "byteOffset": 0,
      "byteStride": 12,
      "target": 34962
    },
    {
      "name": "bufferView_1",
      "buffer": 0,
      "byteLength": 20292,
      "byteOffset": 20292,
      "byteStride": 12,
      "target": 34962
    },
    {
      "name": "bufferView_2",
      "buffer": 0,
      "byteLength": 13528,
      "byteOffset": 40584,
      "byteStride": 8,
      "target": 34962
    },
    {
      "name": "bufferView_3",
      "buffer": 0,
      "byteLength": 5972,
      "byteOffset": 54112,
      "target": 34963
    }
  ],
  "images": [
    {
      "name": "sgy_3q_35",
      "uri": "sgy_3q_35.jpg"
    },
    {
      "name": "sgy_3q_37",
      "uri": "sgy_3q_37.jpg"
    },
    {
      "name": "sgy_3q_33",
      "uri": "sgy_3q_33.jpg"
    },
    {
      "name": "sgy_3q_31",
      "uri": "sgy_3q_31.jpg"
    },
    {
      "name": "sgy_3q_39",
      "uri": "sgy_3q_39.jpg"
    },
    {
      "name": "sgy_3q_32",
      "uri": "sgy_3q_32.jpg"
    },
    {
      "name": "SGY_Q1_010",
      "uri": "SGY_Q1_010.jpg"
    },
    {
      "name": "sgy_3q_36",
      "uri": "sgy_3q_36.jpg"
    },
    {
      "name": "sgy_3q_34",
      "uri": "sgy_3q_34.jpg"
    },
    {
      "name": "sgy_2q_10",
      "uri": "sgy_2q_10.png"
    },
    {
      "name": "sgy_3q_42",
      "uri": "sgy_3q_42.jpg"
    },
    {
      "name": "sgy_3q_40",
      "uri": "sgy_3q_40.jpg"
    },
    {
      "name": "sgy_3q_38",
      "uri": "sgy_3q_38.jpg"
    },
    {
      "name": "sgy_3q_41",
      "uri": "sgy_3q_41.jpg"
    },
    {
      "name": "sgy_3q_36",
      "uri": "sgy_3q_36.png"
    }
  ],
  "materials": [
    {
      "name": "Material__4268",
      "pbrMetallicRoughness": {
        "baseColorTexture": {
          "index": 0
        },
        "baseColorFactor": [
          1,
          1,
          1,
          1
        ],
        "metallicFactor": 0,
        "roughnessFactor": 0.99
      },
      "emissiveFactor": [
        0,
        0,
        0
      ],
      "alphaMode": "OPAQUE",
      "doubleSided": false
    },
    {
      "name": "Material__4274",
      "pbrMetallicRoughness": {
        "baseColorTexture": {
          "index": 1
        },
        "baseColorFactor": [
          1,
          1,
          1,
          1
        ],
        "metallicFactor": 0,
        "roughnessFactor": 0.99
      },
      "emissiveFactor": [
        0,
        0,
        0
      ],
      "alphaMode": "OPAQUE",
      "doubleSided": false
    },
    {
      "name": "Material__4270",
      "pbrMetallicRoughness": {
        "baseColorTexture": {
          "index": 2
        },
        "baseColorFactor": [
          1,
          1,
          1,
          1
        ],
        "metallicFactor": 0,
        "roughnessFactor": 0.99
      },
      "emissiveFactor": [
        0,
        0,
        0
      ],
      "alphaMode": "OPAQUE",
      "doubleSided": false
    },
    {
      "name": "Material__4271",
      "pbrMetallicRoughness": {
        "baseColorTexture": {
          "index": 3
        },
        "baseColorFactor": [
          1,
          1,
          1,
          1
        ],
        "metallicFactor": 0,
        "roughnessFactor": 0.99
      },
      "emissiveFactor": [
        0,
        0,
        0
      ],
      "alphaMode": "OPAQUE",
      "doubleSided": false
    },
    {
      "name": "Material__4276",
      "pbrMetallicRoughness": {
        "baseColorTexture": {
          "index": 4
        },
        "baseColorFactor": [
          1,
          1,
          1,
          1
        ],
        "metallicFactor": 0,
        "roughnessFactor": 0.99
      },
      "emissiveFactor": [
        0,
        0,
        0
      ],
      "alphaMode": "OPAQUE",
      "doubleSided": false
    },
    {
      "name": "Material__4272",
      "pbrMetallicRoughness": {
        "baseColorTexture": {
          "index": 5
        },
        "baseColorFactor": [
          1,
          1,
          1,
          1
        ],
        "metallicFactor": 0,
        "roughnessFactor": 0.99
      },
      "emissiveFactor": [
        0,
        0,
        0
      ],
      "alphaMode": "OPAQUE",
      "doubleSided": false
    },
    {
      "name": "Material__4162",
      "pbrMetallicRoughness": {
        "baseColorTexture": {
          "index": 6
        },
        "baseColorFactor": [
          1,
          1,
          1,
          1
        ],
        "metallicFactor": 0,
        "roughnessFactor": 0.99
      },
      "emissiveFactor": [
        0,
        0,
        0
      ],
      "alphaMode": "OPAQUE",
      "doubleSided": false
    },
    {
      "name": "Material__4273",
      "pbrMetallicRoughness": {
        "baseColorTexture": {
          "index": 7
        },
        "baseColorFactor": [
          1,
          1,
          1,
          1
        ],
        "metallicFactor": 0,
        "roughnessFactor": 0.99
      },
      "emissiveFactor": [
        0,
        0,
        0
      ],
      "alphaMode": "OPAQUE",
      "doubleSided": false
    },
    {
      "name": "Material__4269",
      "pbrMetallicRoughness": {
        "baseColorTexture": {
          "index": 8
        },
        "baseColorFactor": [
          1,
          1,
          1,
          1
        ],
        "metallicFactor": 0,
        "roughnessFactor": 0.99
      },
      "emissiveFactor": [
        0,
        0,
        0
      ],
      "alphaMode": "OPAQUE",
      "doubleSided": false
    },
    {
      "name": "Material__4229",
      "pbrMetallicRoughness": {
        "baseColorTexture": {
          "index": 9
        },
        "baseColorFactor": [
          1,
          1,
          1,
          1
        ],
        "metallicFactor": 0,
        "roughnessFactor": 0.99
      },
      "emissiveFactor": [
        0,
        0,
        0
      ],
      "alphaMode": "BLEND",
      "doubleSided": true
    },
    {
      "name": "Material__4279",
      "pbrMetallicRoughness": {
        "baseColorTexture": {
          "index": 10
        },
        "baseColorFactor": [
          1,
          1,
          1,
          1
        ],
        "metallicFactor": 0,
        "roughnessFactor": 0.99
      },
      "emissiveFactor": [
        0,
        0,
        0
      ],
      "alphaMode": "OPAQUE",
      "doubleSided": false
    },
    {
      "name": "Material__4277",
      "pbrMetallicRoughness": {
        "baseColorTexture": {
          "index": 11
        },
        "baseColorFactor": [
          1,
          1,
          1,
          1
        ],
        "metallicFactor": 0,
        "roughnessFactor": 0.99
      },
      "emissiveFactor": [
        0,
        0,
        0
      ],
      "alphaMode": "OPAQUE",
      "doubleSided": false
    },
    {
      "name": "Material__4275",
      "pbrMetallicRoughness": {
        "baseColorTexture": {
          "index": 12
        },
        "baseColorFactor": [
          1,
          1,
          1,
          1
        ],
        "metallicFactor": 0,
        "roughnessFactor": 0.99
      },
      "emissiveFactor": [
        0,
        0,
        0
      ],
      "alphaMode": "OPAQUE",
      "doubleSided": false
    },
    {
      "name": "Material__4278",
      "pbrMetallicRoughness": {
        "baseColorTexture": {
          "index": 13
        },
        "baseColorFactor": [
          1,
          1,
          1,
          1
        ],
        "metallicFactor": 0,
        "roughnessFactor": 0.99
      },
      "emissiveFactor": [
        0,
        0,
        0
      ],
      "alphaMode": "OPAQUE",
      "doubleSided": false
    },
    {
      "name": "Material__4209",
      "pbrMetallicRoughness": {
        "baseColorTexture": {
          "index": 14
        },
        "baseColorFactor": [
          1,
          1,
          1,
          1
        ],
        "metallicFactor": 0,
        "roughnessFactor": 0.99
      },
      "emissiveFactor": [
        0,
        0,
        0
      ],
      "alphaMode": "BLEND",
      "doubleSided": true
    }
  ],
  "meshes": [
    {
      "name": "Box022_1",
      "primitives": [
        {
          "attributes": {
            "POSITION": 0,
            "NORMAL": 1,
            "TEXCOORD_0": 2
          },
          "indices": 3,
          "material": 0,
          "mode": 4
        },
        {
          "attributes": {
            "POSITION": 4,
            "NORMAL": 5,
            "TEXCOORD_0": 6
          },
          "indices": 7,
          "material": 1,
          "mode": 4
        },
        {
          "attributes": {
            "POSITION": 8,
            "NORMAL": 9,
            "TEXCOORD_0": 10
          },
          "indices": 11,
          "material": 2,
          "mode": 4
        },
        {
          "attributes": {
            "POSITION": 12,
            "NORMAL": 13,
            "TEXCOORD_0": 14
          },
          "indices": 15,
          "material": 3,
          "mode": 4
        },
        {
          "attributes": {
            "POSITION": 16,
            "NORMAL": 17,
            "TEXCOORD_0": 18
          },
          "indices": 19,
          "material": 4,
          "mode": 4
        },
        {
          "attributes": {
            "POSITION": 20,
            "NORMAL": 21,
            "TEXCOORD_0": 22
          },
          "indices": 23,
          "material": 5,
          "mode": 4
        },
        {
          "attributes": {
            "POSITION": 24,
            "NORMAL": 25,
            "TEXCOORD_0": 26
          },
          "indices": 27,
          "material": 6,
          "mode": 4
        },
        {
          "attributes": {
            "POSITION": 28,
            "NORMAL": 29,
            "TEXCOORD_0": 30
          },
          "indices": 31,
          "material": 7,
          "mode": 4
        },
        {
          "attributes": {
            "POSITION": 32,
            "NORMAL": 33,
            "TEXCOORD_0": 34
          },
          "indices": 35,
          "material": 8,
          "mode": 4
        },
        {
          "attributes": {
            "POSITION": 36,
            "NORMAL": 37,
            "TEXCOORD_0": 38
          },
          "indices": 39,
          "material": 9,
          "mode": 4
        },
        {
          "attributes": {
            "POSITION": 40,
            "NORMAL": 41,
            "TEXCOORD_0": 42
          },
          "indices": 43,
          "material": 10,
          "mode": 4
        },
        {
          "attributes": {
            "POSITION": 44,
            "NORMAL": 45,
            "TEXCOORD_0": 46
          },
          "indices": 47,
          "material": 11,
          "mode": 4
        },
        {
          "attributes": {
            "POSITION": 48,
            "NORMAL": 49,
            "TEXCOORD_0": 50
          },
          "indices": 51,
          "material": 12,
          "mode": 4
        },
        {
          "attributes": {
            "POSITION": 52,
            "NORMAL": 53,
            "TEXCOORD_0": 54
          },
          "indices": 55,
          "material": 13,
          "mode": 4
        },
        {
          "attributes": {
            "POSITION": 56,
            "NORMAL": 57,
            "TEXCOORD_0": 58
          },
          "indices": 59,
          "material": 14,
          "mode": 4
        }
      ]
    }
  ],
  "nodes": [
    {
      "name": "Box022",
      "mesh": 0
    }
  ],
  "samplers": [
    {
      "wrapS": 10497,
      "wrapT": 10497
    }
  ],
  "scene": 0,
  "scenes": [
    {
      "nodes": [
        0
      ]
    }
  ],
  "textures": [
    {
      "name": "sgy_3q_35",
      "sampler": 0,
      "source": 0
    },
    {
      "name": "sgy_3q_37",
      "sampler": 0,
      "source": 1
    },
    {
      "name": "sgy_3q_33",
      "sampler": 0,
      "source": 2
    },
    {
      "name": "sgy_3q_31",
      "sampler": 0,
      "source": 3
    },
    {
      "name": "sgy_3q_39",
      "sampler": 0,
      "source": 4
    },
    {
      "name": "sgy_3q_32",
      "sampler": 0,
      "source": 5
    },
    {
      "name": "SGY_Q1_010",
      "sampler": 0,
      "source": 6
    },
    {
      "name": "sgy_3q_36",
      "sampler": 0,
      "source": 7
    },
    {
      "name": "sgy_3q_34",
      "sampler": 0,
      "source": 8
    },
    {
      "name": "sgy_2q_10",
      "sampler": 0,
      "source": 9
    },
    {
      "name": "sgy_3q_42",
      "sampler": 0,
      "source": 10
    },
    {
      "name": "sgy_3q_40",
      "sampler": 0,
      "source": 11
    },
    {
      "name": "sgy_3q_38",
      "sampler": 0,
      "source": 12
    },
    {
      "name": "sgy_3q_41",
      "sampler": 0,
      "source": 13
    },
    {
      "name": "sgy_3q_36",
      "sampler": 0,
      "source": 14
    }
  ]
}
