{
  "accessors": [
    {
      "name": "Cylinder002_1_0_positions",
      "componentType": 5126,
      "count": 188,
      "min": [
        -5,
        -4.923999786376953,
        0
      ],
      "max": [
        5,
        4.923999786376953,
        105.04080200195312
      ],
      "type": "VEC3",
      "bufferView": 0,
      "byteOffset": 0
    },
    {
      "name": "Cylinder002_1_0_normals",
      "componentType": 5126,
      "count": 188,
      "min": [
        -0.9998059272766113,
        -1,
        -1
      ],
      "max": [
        0.9998059272766113,
        1,
        1
      ],
      "type": "VEC3",
      "bufferView": 1,
      "byteOffset": 0
    },
    {
      "name": "Cylinder002_1_0_texcoords",
      "componentType": 5126,
      "count": 188,
      "min": [
        -0.025499999523162842,
        -3.402899980545044
      ],
      "max": [
        1.0255000591278076,
        4.402900218963623
      ],
      "type": "VEC2",
      "bufferView": 2,
      "byteOffset": 0
    },
    {
      "name": "Cylinder002_1_0_indices",
      "componentType": 5123,
      "count": 420,
      "min": [
        0
      ],
      "max": [
        187
      ],
      "type": "SCALAR",
      "bufferView": 3,
      "byteOffset": 0
    }
  ],
  "asset": {
    "generator": "obj2gltf",
    "version": "2.0"
  },
  "buffers": [
    {
      "name": "sg_yc_002",
      "byteLength": 6856,
      "uri": "data:application/octet-stream;base64,"
    }
  ],
  "bufferViews": [
    {
      "name": "bufferView_0",
      "buffer": 0,
      "byteLength": 2256,
      "byteOffset": 0,
      "byteStride": 12,
      "target": 34962
    },
    {
      "name": "bufferView_1",
      "buffer": 0,
      "byteLength": 2256,
      "byteOffset": 2256,
      "byteStride": 12,
      "target": 34962
    },
    {
      "name": "bufferView_2",
      "buffer": 0,
      "byteLength": 1504,
      "byteOffset": 4512,
      "byteStride": 8,
      "target": 34962
    },
    {
      "name": "bufferView_3",
      "buffer": 0,
      "byteLength": 840,
      "byteOffset": 6016,
      "target": 34963
    }
  ],
  "images": [
    {
      "name": "sgbq_0014",
      "uri": "sgbq_0014.jpg"
    }
  ],
  "materials": [
    {
      "name": "Material__1316",
      "pbrMetallicRoughness": {
        "baseColorTexture": {
          "index": 0
        },
        "baseColorFactor": [
          1,
          1,
          1,
          1
        ],
        "metallicFactor": 0,
        "roughnessFactor": 0.99
      },
      "emissiveFactor": [
        0,
        0,
        0
      ],
      "alphaMode": "OPAQUE",
      "doubleSided": false
    }
  ],
  "meshes": [
    {
      "name": "Cylinder002_1",
      "primitives": [
        {
          "attributes": {
            "POSITION": 0,
            "NORMAL": 1,
            "TEXCOORD_0": 2
          },
          "indices": 3,
          "material": 0,
          "mode": 4
        }
      ]
    }
  ],
  "nodes": [
    {
      "name": "Cylinder002",
      "mesh": 0
    }
  ],
  "samplers": [
    {
      "wrapS": 10497,
      "wrapT": 10497
    }
  ],
  "scene": 0,
  "scenes": [
    {
      "nodes": [
        0
      ]
    }
  ],
  "textures": [
    {
      "name": "sgbq_0014",
      "sampler": 0,
      "source": 0
    }
  ]
}
