{
  "accessors": [
    {
      "name": "pCube8_1_0_positions",
      "componentType": 5126,
      "count": 72,
      "min": [
        -12.285449981689453,
        -0.003889000043272972,
        13.84883975982666
      ],
      "max": [
        11.127077102661133,
        0.05816499888896942,
        16.4063777923584
      ],
      "type": "VEC3",
      "bufferView": 0,
      "byteOffset": 0
    },
    {
      "name": "pCube8_1_0_normals",
      "componentType": 5126,
      "count": 72,
      "min": [
        -1,
        -1,
        -1
      ],
      "max": [
        1,
        1,
        1
      ],
      "type": "VEC3",
      "bufferView": 1,
      "byteOffset": 0
    },
    {
      "name": "pCube8_1_0_texcoords",
      "componentType": 5126,
      "count": 72,
      "min": [
        0.10266099870204926,
        -0.34404999017715454
      ],
      "max": [
        1.8586479425430298,
        1
      ],
      "type": "VEC2",
      "bufferView": 2,
      "byteOffset": 0
    },
    {
      "name": "pCube8_1_0_indices",
      "componentType": 5123,
      "count": 108,
      "min": [
        0
      ],
      "max": [
        71
      ],
      "type": "SCALAR",
      "bufferView": 3,
      "byteOffset": 0
    },
    {
      "name": "pCube8_1_1_positions",
      "componentType": 5126,
      "count": 1805,
      "min": [
        -9.02999496459961,
        -0.3674069941043854,
        -9.999999974752427e-7
      ],
      "max": [
        11.51539421081543,
        0.3674069941043854,
        17.4284725189209
      ],
      "type": "VEC3",
      "bufferView": 0,
      "byteOffset": 864
    },
    {
      "name": "pCube8_1_1_normals",
      "componentType": 5126,
      "count": 1805,
      "min": [
        -0.9659241437911987,
        -0.9659222364425659,
        -0.9775981307029724
      ],
      "max": [
        0.9659247398376465,
        0.9659222364425659,
        1
      ],
      "type": "VEC3",
      "bufferView": 1,
      "byteOffset": 864
    },
    {
      "name": "pCube8_1_1_texcoords",
      "componentType": 5126,
      "count": 1805,
      "min": [
        0,
        0
      ],
      "max": [
        1,
        1
      ],
      "type": "VEC2",
      "bufferView": 2,
      "byteOffset": 576
    },
    {
      "name": "pCube8_1_1_indices",
      "componentType": 5123,
      "count": 2640,
      "min": [
        0
      ],
      "max": [
        1804
      ],
      "type": "SCALAR",
      "bufferView": 3,
      "byteOffset": 216
    },
    {
      "name": "pCube8_1_2_positions",
      "componentType": 5126,
      "count": 24,
      "min": [
        2.4085938930511475,
        -0.003889000043272972,
        13.84883975982666
      ],
      "max": [
        6.136786937713623,
        0.05816499888896942,
        16.4063777923584
      ],
      "type": "VEC3",
      "bufferView": 0,
      "byteOffset": 22524
    },
    {
      "name": "pCube8_1_2_normals",
      "componentType": 5126,
      "count": 24,
      "min": [
        -1,
        -1,
        -1
      ],
      "max": [
        1,
        1,
        1
      ],
      "type": "VEC3",
      "bufferView": 1,
      "byteOffset": 22524
    },
    {
      "name": "pCube8_1_2_texcoords",
      "componentType": 5126,
      "count": 24,
      "min": [
        0,
        0.09410800039768219
      ],
      "max": [
        0.9478350281715393,
        1
      ],
      "type": "VEC2",
      "bufferView": 2,
      "byteOffset": 15016
    },
    {
      "name": "pCube8_1_2_indices",
      "componentType": 5123,
      "count": 36,
      "min": [
        0
      ],
      "max": [
        23
      ],
      "type": "SCALAR",
      "bufferView": 3,
      "byteOffset": 5496
    },
    {
      "name": "pCube8_1_3_positions",
      "componentType": 5126,
      "count": 24,
      "min": [
        -7.398606777191162,
        -0.003889000043272972,
        13.84883975982666
      ],
      "max": [
        -3.6704139709472656,
        0.05816499888896942,
        16.4063777923584
      ],
      "type": "VEC3",
      "bufferView": 0,
      "byteOffset": 22812
    },
    {
      "name": "pCube8_1_3_normals",
      "componentType": 5126,
      "count": 24,
      "min": [
        -1,
        -1,
        -1
      ],
      "max": [
        1,
        1,
        1
      ],
      "type": "VEC3",
      "bufferView": 1,
      "byteOffset": 22812
    },
    {
      "name": "pCube8_1_3_texcoords",
      "componentType": 5126,
      "count": 24,
      "min": [
        -0.051940999925136566,
        -0.037418000400066376
      ],
      "max": [
        1.054679036140442,
        1.069201946258545
      ],
      "type": "VEC2",
      "bufferView": 2,
      "byteOffset": 15208
    },
    {
      "name": "pCube8_1_3_indices",
      "componentType": 5123,
      "count": 36,
      "min": [
        0
      ],
      "max": [
        23
      ],
      "type": "SCALAR",
      "bufferView": 3,
      "byteOffset": 5568
    },
    {
      "name": "pCube8_1_4_positions",
      "componentType": 5126,
      "count": 16,
      "min": [
        -9.809394836425781,
        -1.2751760482788086,
        -0.09865900129079819
      ],
      "max": [
        12.285449981689453,
        1.2751760482788086,
        0.49106499552726746
      ],
      "type": "VEC3",
      "bufferView": 0,
      "byteOffset": 23100
    },
    {
      "name": "pCube8_1_4_normals",
      "componentType": 5126,
      "count": 16,
      "min": [
        -1,
        -1,
        0
      ],
      "max": [
        1,
        1,
        0
      ],
      "type": "VEC3",
      "bufferView": 1,
      "byteOffset": 23100
    },
    {
      "name": "pCube8_1_4_texcoords",
      "componentType": 5126,
      "count": 16,
      "min": [
        -2.535320997238159,
        0.21520499885082245
      ],
      "max": [
        3.0562069416046143,
        0.7508569955825806
      ],
      "type": "VEC2",
      "bufferView": 2,
      "byteOffset": 15400
    },
    {
      "name": "pCube8_1_4_indices",
      "componentType": 5123,
      "count": 24,
      "min": [
        0
      ],
      "max": [
        15
      ],
      "type": "SCALAR",
      "bufferView": 3,
      "byteOffset": 5640
    },
    {
      "name": "pCube8_1_5_positions",
      "componentType": 5126,
      "count": 4,
      "min": [
        -9.809394836425781,
        -1.2751760482788086,
        0.49106499552726746
      ],
      "max": [
        12.285449981689453,
        1.2751760482788086,
        0.49106499552726746
      ],
      "type": "VEC3",
      "bufferView": 0,
      "byteOffset": 23292
    },
    {
      "name": "pCube8_1_5_normals",
      "componentType": 5126,
      "count": 4,
      "min": [
        0,
        0,
        1
      ],
      "max": [
        0,
        0,
        1
      ],
      "type": "VEC3",
      "bufferView": 1,
      "byteOffset": 23292
    },
    {
      "name": "pCube8_1_5_texcoords",
      "componentType": 5126,
      "count": 4,
      "min": [
        0.18849299848079681,
        1.247128963470459
      ],
      "max": [
        0.811506986618042,
        1.8291599750518799
      ],
      "type": "VEC2",
      "bufferView": 2,
      "byteOffset": 15528
    },
    {
      "name": "pCube8_1_5_indices",
      "componentType": 5123,
      "count": 6,
      "min": [
        0
      ],
      "max": [
        3
      ],
      "type": "SCALAR",
      "bufferView": 3,
      "byteOffset": 5688
    }
  ],
  "asset": {
    "generator": "obj2gltf",
    "version": "2.0"
  },
  "buffers": [
    {
      "name": "qi",
      "byteLength": 67940,
      "uri": "data:application/octet-stream;base64,"
    }
  ],
  "bufferViews": [
    {
      "name": "bufferView_0",
      "buffer": 0,
      "byteLength": 23340,
      "byteOffset": 0,
      "byteStride": 12,
      "target": 34962
    },
    {
      "name": "bufferView_1",
      "buffer": 0,
      "byteLength": 23340,
      "byteOffset": 23340,
      "byteStride": 12,
      "target": 34962
    },
    {
      "name": "bufferView_2",
      "buffer": 0,
      "byteLength": 15560,
      "byteOffset": 46680,
      "byteStride": 8,
      "target": 34962
    },
    {
      "name": "bufferView_3",
      "buffer": 0,
      "byteLength": 5700,
      "byteOffset": 62240,
      "target": 34963
    }
  ],
  "images": [
    {
      "name": "gq_001",
      "uri": "gq_001.jpg"
    },
    {
      "name": "gq_004",
      "uri": "gq_004.jpg"
    },
    {
      "name": "gq_002",
      "uri": "gq_002.jpg"
    },
    {
      "name": "gq_003",
      "uri": "gq_003.png"
    },
    {
      "name": "gq_006",
      "uri": "gq_006.jpg"
    },
    {
      "name": "gq_005",
      "uri": "gq_005.jpg"
    }
  ],
  "materials": [
    {
      "name": "lambert5SG",
      "pbrMetallicRoughness": {
        "baseColorTexture": {
          "index": 0
        },
        "baseColorFactor": [
          1,
          1,
          1,
          1
        ],
        "metallicFactor": 0,
        "roughnessFactor": 1
      },
      "emissiveFactor": [
        0,
        0,
        0
      ],
      "alphaMode": "OPAQUE",
      "doubleSided": false
    },
    {
      "name": "lambert2SG",
      "pbrMetallicRoughness": {
        "baseColorTexture": {
          "index": 1
        },
        "baseColorFactor": [
          1,
          1,
          1,
          1
        ],
        "metallicFactor": 0,
        "roughnessFactor": 1
      },
      "emissiveFactor": [
        0,
        0,
        0
      ],
      "alphaMode": "OPAQUE",
      "doubleSided": false
    },
    {
      "name": "lambert6SG",
      "pbrMetallicRoughness": {
        "baseColorTexture": {
          "index": 2
        },
        "baseColorFactor": [
          1,
          1,
          1,
          1
        ],
        "metallicFactor": 0,
        "roughnessFactor": 1
      },
      "emissiveFactor": [
        0,
        0,
        0
      ],
      "alphaMode": "OPAQUE",
      "doubleSided": false
    },
    {
      "name": "lambert4SG",
      "pbrMetallicRoughness": {
        "baseColorTexture": {
          "index": 3
        },
        "baseColorFactor": [
          1,
          1,
          1,
          1
        ],
        "metallicFactor": 0,
        "roughnessFactor": 1
      },
      "emissiveFactor": [
        0,
        0,
        0
      ],
      "alphaMode": "OPAQUE",
      "doubleSided": false
    },
    {
      "name": "lambert3SG",
      "pbrMetallicRoughness": {
        "baseColorTexture": {
          "index": 4
        },
        "baseColorFactor": [
          1,
          1,
          1,
          1
        ],
        "metallicFactor": 0,
        "roughnessFactor": 1
      },
      "emissiveFactor": [
        0,
        0,
        0
      ],
      "alphaMode": "OPAQUE",
      "doubleSided": false
    },
    {
      "name": "lambert7SG",
      "pbrMetallicRoughness": {
        "baseColorTexture": {
          "index": 5
        },
        "baseColorFactor": [
          1,
          1,
          1,
          1
        ],
        "metallicFactor": 0,
        "roughnessFactor": 1
      },
      "emissiveFactor": [
        0,
        0,
        0
      ],
      "alphaMode": "OPAQUE",
      "doubleSided": false
    }
  ],
  "meshes": [
    {
      "name": "pCube8_1",
      "primitives": [
        {
          "attributes": {
            "POSITION": 0,
            "NORMAL": 1,
            "TEXCOORD_0": 2
          },
          "indices": 3,
          "material": 0,
          "mode": 4
        },
        {
          "attributes": {
            "POSITION": 4,
            "NORMAL": 5,
            "TEXCOORD_0": 6
          },
          "indices": 7,
          "material": 1,
          "mode": 4
        },
        {
          "attributes": {
            "POSITION": 8,
            "NORMAL": 9,
            "TEXCOORD_0": 10
          },
          "indices": 11,
          "material": 2,
          "mode": 4
        },
        {
          "attributes": {
            "POSITION": 12,
            "NORMAL": 13,
            "TEXCOORD_0": 14
          },
          "indices": 15,
          "material": 3,
          "mode": 4
        },
        {
          "attributes": {
            "POSITION": 16,
            "NORMAL": 17,
            "TEXCOORD_0": 18
          },
          "indices": 19,
          "material": 4,
          "mode": 4
        },
        {
          "attributes": {
            "POSITION": 20,
            "NORMAL": 21,
            "TEXCOORD_0": 22
          },
          "indices": 23,
          "material": 5,
          "mode": 4
        }
      ]
    }
  ],
  "nodes": [
    {
      "name": "pCube8",
      "mesh": 0
    }
  ],
  "samplers": [
    {
      "wrapS": 10497,
      "wrapT": 10497
    }
  ],
  "scene": 0,
  "scenes": [
    {
      "nodes": [
        0
      ]
    }
  ],
  "textures": [
    {
      "name": "gq_001",
      "sampler": 0,
      "source": 0
    },
    {
      "name": "gq_004",
      "sampler": 0,
      "source": 1
    },
    {
      "name": "gq_002",
      "sampler": 0,
      "source": 2
    },
    {
      "name": "gq_003",
      "sampler": 0,
      "source": 3
    },
    {
      "name": "gq_006",
      "sampler": 0,
      "source": 4
    },
    {
      "name": "gq_005",
      "sampler": 0,
      "source": 5
    }
  ]
}
