{"asset":{"version":"2.0","generator":"babylon.js glTF exporter for 3dsmax 2022 v20240312.5"},"scene":0,"scenes":[{"nodes":[0]}],"nodes":[{"mesh":0,"name":"Box001"}],"meshes":[{"primitives":[{"attributes":{"POSITION":1,"NORMAL":2,"TEXCOORD_0":3},"indices":0,"material":0},{"attributes":{"POSITION":5,"NORMAL":6,"TEXCOORD_0":7},"indices":4,"material":1},{"attributes":{"POSITION":9,"NORMAL":10,"TEXCOORD_0":11},"indices":8,"material":2},{"attributes":{"POSITION":13,"NORMAL":14,"TEXCOORD_0":15},"indices":12,"material":3},{"attributes":{"POSITION":17,"NORMAL":18,"TEXCOORD_0":19},"indices":16,"material":4},{"attributes":{"POSITION":21,"NORMAL":22,"TEXCOORD_0":23},"indices":20,"material":5}],"name":"Box001"}],"accessors":[{"bufferView":0,"componentType":5123,"count":36,"type":"SCALAR","name":"accessorIndices"},{"bufferView":1,"componentType":5126,"count":24,"max":[11.2006664,13.3062487,38.5802422],"min":[-11.2006617,-13.3062553,-2.16786316E-06],"type":"VEC3","name":"accessorPositions"},{"bufferView":1,"byteOffset":288,"componentType":5126,"count":24,"type":"VEC3","name":"accessorNormals"},{"bufferView":2,"componentType":5126,"count":24,"type":"VEC2","name":"accessorUVs"},{"bufferView":0,"byteOffset":72,"componentType":5123,"count":6,"type":"SCALAR","name":"accessorIndices"},{"bufferView":1,"byteOffset":576,"componentType":5126,"count":4,"max":[2.69819331,-9.96136951,36.0],"min":[-2.69819045,-9.961375,-1.62291315E-06],"type":"VEC3","name":"accessorPositions"},{"bufferView":1,"byteOffset":624,"componentType":5126,"count":4,"type":"VEC3","name":"accessorNormals"},{"bufferView":2,"byteOffset":192,"componentType":5126,"count":4,"type":"VEC2","name":"accessorUVs"},{"bufferView":0,"byteOffset":84,"componentType":5123,"count":6,"type":"SCALAR","name":"accessorIndices"},{"bufferView":1,"byteOffset":672,"componentType":5126,"count":4,"max":[2.69819331,9.96136951,36.0],"min":[-2.69819045,9.961364,1.62291315E-06],"type":"VEC3","name":"accessorPositions"},{"bufferView":1,"byteOffset":720,"componentType":5126,"count":4,"type":"VEC3","name":"accessorNormals"},{"bufferView":2,"byteOffset":224,"componentType":5126,"count":4,"type":"VEC2","name":"accessorUVs"},{"bufferView":0,"byteOffset":96,"componentType":5123,"count":36,"type":"SCALAR","name":"accessorIndices"},{"bufferView":1,"byteOffset":768,"componentType":5126,"count":24,"max":[15.0463533,9.961369,36.0],"min":[-15.0463514,-9.961375,3.779997],"type":"VEC3","name":"accessorPositions"},{"bufferView":1,"byteOffset":1056,"componentType":5126,"count":24,"type":"VEC3","name":"accessorNormals"},{"bufferView":2,"byteOffset":256,"componentType":5126,"count":24,"type":"VEC2","name":"accessorUVs"},{"bufferView":0,"byteOffset":168,"componentType":5123,"count":174,"type":"SCALAR","name":"accessorIndices"},{"bufferView":1,"byteOffset":1344,"componentType":5126,"count":100,"max":[15.0463533,13.3062487,38.5802422],"min":[-15.0463514,-13.3062553,-2.16786316E-06],"type":"VEC3","name":"accessorPositions"},{"bufferView":1,"byteOffset":2544,"componentType":5126,"count":100,"type":"VEC3","name":"accessorNormals"},{"bufferView":2,"byteOffset":448,"componentType":5126,"count":100,"type":"VEC2","name":"accessorUVs"},{"bufferView":0,"byteOffset":516,"componentType":5123,"count":12,"type":"SCALAR","name":"accessorIndices"},{"bufferView":1,"byteOffset":3744,"componentType":5126,"count":8,"max":[15.0463533,9.961364,36.0],"min":[-15.0463514,-9.961375,36.0],"type":"VEC3","name":"accessorPositions"},{"bufferView":1,"byteOffset":3840,"componentType":5126,"count":8,"type":"VEC3","name":"accessorNormals"},{"bufferView":2,"byteOffset":1248,"componentType":5126,"count":8,"type":"VEC2","name":"accessorUVs"}],"bufferViews":[{"buffer":0,"byteLength":540,"name":"bufferViewScalar"},{"buffer":0,"byteOffset":540,"byteLength":3936,"byteStride":12,"name":"bufferViewFloatVec3"},{"buffer":0,"byteOffset":4476,"byteLength":1312,"byteStride":8,"name":"bufferViewFloatVec2"}],"buffers":[{"uri":"H2.bin","byteLength":5788}],"materials":[{"pbrMetallicRoughness":{"baseColorTexture":{"index":0},"metallicFactor":0.0,"roughnessFactor":0.450053632},"name":"Material #26"},{"pbrMetallicRoughness":{"baseColorTexture":{"index":1},"metallicFactor":0.0,"roughnessFactor":0.450053632},"name":"Material #82"},{"pbrMetallicRoughness":{"baseColorTexture":{"index":1},"metallicFactor":0.0,"roughnessFactor":0.450053632},"name":"Material #119"},{"pbrMetallicRoughness":{"baseColorTexture":{"index":2},"metallicFactor":0.0,"roughnessFactor":0.450053632},"name":"Material #164"},{"pbrMetallicRoughness":{"baseColorTexture":{"index":3},"metallicFactor":0.0,"roughnessFactor":0.450053632},"name":"Material #222"},{"pbrMetallicRoughness":{"baseColorTexture":{"index":2},"metallicFactor":0.0,"roughnessFactor":0.450053632},"name":"Material #106"}],"textures":[{"sampler":0,"source":0,"name":"SGY_H01.jpg"},{"sampler":0,"source":1,"name":"SGY_H02.jpg"},{"sampler":0,"source":2,"name":"SGY_H03.jpg"},{"sampler":0,"source":3,"name":"SGY_H04.jpg"}],"images":[{"uri":"SGY_H01.jpg"},{"uri":"SGY_H02.jpg"},{"uri":"SGY_H03.jpg"},{"uri":"SGY_H04.jpg"}],"samplers":[{"magFilter":9729,"minFilter":9987}]}