{
  "accessors": [
    {
      "name": "Box004_1_0_positions",
      "componentType": 5126,
      "count": 44,
      "min": [
        -7,
        -16,
        10
      ],
      "max": [
        7,
        16,
        11.5
      ],
      "type": "VEC3",
      "bufferView": 0,
      "byteOffset": 0
    },
    {
      "name": "Box004_1_0_normals",
      "componentType": 5126,
      "count": 44,
      "min": [
        -1,
        -1,
        -1
      ],
      "max": [
        1,
        1,
        1
      ],
      "type": "VEC3",
      "bufferView": 1,
      "byteOffset": 0
    },
    {
      "name": "Box004_1_0_texcoords",
      "componentType": 5126,
      "count": 44,
      "min": [
        -3.52020001411438,
        -3.52020001411438
      ],
      "max": [
        4.520199775695801,
        4.520199775695801
      ],
      "type": "VEC2",
      "bufferView": 2,
      "byteOffset": 0
    },
    {
      "name": "Box004_1_0_indices",
      "componentType": 5123,
      "count": 78,
      "min": [
        0
      ],
      "max": [
        43
      ],
      "type": "SCALAR",
      "bufferView": 3,
      "byteOffset": 0
    },
    {
      "name": "Box004_1_1_positions",
      "componentType": 5126,
      "count": 40,
      "min": [
        -6,
        -15,
        0.8413000106811523
      ],
      "max": [
        6,
        15,
        10
      ],
      "type": "VEC3",
      "bufferView": 0,
      "byteOffset": 528
    },
    {
      "name": "Box004_1_1_normals",
      "componentType": 5126,
      "count": 40,
      "min": [
        -1,
        -1,
        0
      ],
      "max": [
        1,
        1,
        0
      ],
      "type": "VEC3",
      "bufferView": 1,
      "byteOffset": 528
    },
    {
      "name": "Box004_1_1_texcoords",
      "componentType": 5126,
      "count": 40,
      "min": [
        -0.8636999726295471,
        -1.0347000360488892
      ],
      "max": [
        2.184999942779541,
        1.7405999898910522
      ],
      "type": "VEC2",
      "bufferView": 2,
      "byteOffset": 352
    },
    {
      "name": "Box004_1_1_indices",
      "componentType": 5123,
      "count": 60,
      "min": [
        0
      ],
      "max": [
        39
      ],
      "type": "SCALAR",
      "bufferView": 3,
      "byteOffset": 156
    },
    {
      "name": "Box004_1_2_positions",
      "componentType": 5126,
      "count": 8,
      "min": [
        -6,
        -15,
        3.0046000480651855
      ],
      "max": [
        6,
        15,
        4.869500160217285
      ],
      "type": "VEC3",
      "bufferView": 0,
      "byteOffset": 1008
    },
    {
      "name": "Box004_1_2_normals",
      "componentType": 5126,
      "count": 8,
      "min": [
        -1,
        0,
        0
      ],
      "max": [
        1,
        0,
        0
      ],
      "type": "VEC3",
      "bufferView": 1,
      "byteOffset": 1008
    },
    {
      "name": "Box004_1_2_texcoords",
      "componentType": 5126,
      "count": 8,
      "min": [
        -0.8636999726295471,
        0.5199999809265137
      ],
      "max": [
        2.184999942779541,
        1.0851000547409058
      ],
      "type": "VEC2",
      "bufferView": 2,
      "byteOffset": 672
    },
    {
      "name": "Box004_1_2_indices",
      "componentType": 5123,
      "count": 12,
      "min": [
        0
      ],
      "max": [
        7
      ],
      "type": "SCALAR",
      "bufferView": 3,
      "byteOffset": 276
    },
    {
      "name": "Box004_1_3_positions",
      "componentType": 5126,
      "count": 16,
      "min": [
        -6,
        -15,
        0
      ],
      "max": [
        6,
        15,
        0.8413000106811523
      ],
      "type": "VEC3",
      "bufferView": 0,
      "byteOffset": 1104
    },
    {
      "name": "Box004_1_3_normals",
      "componentType": 5126,
      "count": 16,
      "min": [
        -1,
        -1,
        0
      ],
      "max": [
        1,
        1,
        0
      ],
      "type": "VEC3",
      "bufferView": 1,
      "byteOffset": 1104
    },
    {
      "name": "Box004_1_3_texcoords",
      "componentType": 5126,
      "count": 16,
      "min": [
        -0.8636999726295471,
        1.7405999898910522
      ],
      "max": [
        2.184999942779541,
        1.9955999851226807
      ],
      "type": "VEC2",
      "bufferView": 2,
      "byteOffset": 736
    },
    {
      "name": "Box004_1_3_indices",
      "componentType": 5123,
      "count": 24,
      "min": [
        0
      ],
      "max": [
        15
      ],
      "type": "SCALAR",
      "bufferView": 3,
      "byteOffset": 300
    }
  ],
  "asset": {
    "generator": "obj2gltf",
    "version": "2.0"
  },
  "buffers": [
    {
      "name": "jz03",
      "byteLength": 3804,
      "uri": "data:application/octet-stream;base64,"
    }
  ],
  "bufferViews": [
    {
      "name": "bufferView_0",
      "buffer": 0,
      "byteLength": 1296,
      "byteOffset": 0,
      "byteStride": 12,
      "target": 34962
    },
    {
      "name": "bufferView_1",
      "buffer": 0,
      "byteLength": 1296,
      "byteOffset": 1296,
      "byteStride": 12,
      "target": 34962
    },
    {
      "name": "bufferView_2",
      "buffer": 0,
      "byteLength": 864,
      "byteOffset": 2592,
      "byteStride": 8,
      "target": 34962
    },
    {
      "name": "bufferView_3",
      "buffer": 0,
      "byteLength": 348,
      "byteOffset": 3456,
      "target": 34963
    }
  ],
  "images": [
    {
      "name": "sgy_1q_08",
      "uri": "sgy_1q_08.jpg"
    },
    {
      "name": "sgy_1q_06",
      "uri": "sgy_1q_06.jpg"
    },
    {
      "name": "sgy_1q_05",
      "uri": "sgy_1q_05.jpg"
    },
    {
      "name": "sgy_1q_07",
      "uri": "sgy_1q_07.jpg"
    }
  ],
  "materials": [
    {
      "name": "Material__88",
      "pbrMetallicRoughness": {
        "baseColorTexture": {
          "index": 0
        },
        "baseColorFactor": [
          1,
          1,
          1,
          1
        ],
        "metallicFactor": 0,
        "roughnessFactor": 0.99
      },
      "emissiveFactor": [
        0,
        0,
        0
      ],
      "alphaMode": "OPAQUE",
      "doubleSided": false
    },
    {
      "name": "Material__831",
      "pbrMetallicRoughness": {
        "baseColorTexture": {
          "index": 1
        },
        "baseColorFactor": [
          1,
          1,
          1,
          1
        ],
        "metallicFactor": 0,
        "roughnessFactor": 0.99
      },
      "emissiveFactor": [
        0,
        0,
        0
      ],
      "alphaMode": "OPAQUE",
      "doubleSided": false
    },
    {
      "name": "Material__832",
      "pbrMetallicRoughness": {
        "baseColorTexture": {
          "index": 2
        },
        "baseColorFactor": [
          1,
          1,
          1,
          1
        ],
        "metallicFactor": 0,
        "roughnessFactor": 0.99
      },
      "emissiveFactor": [
        0,
        0,
        0
      ],
      "alphaMode": "OPAQUE",
      "doubleSided": false
    },
    {
      "name": "Material__833",
      "pbrMetallicRoughness": {
        "baseColorTexture": {
          "index": 3
        },
        "baseColorFactor": [
          1,
          1,
          1,
          1
        ],
        "metallicFactor": 0,
        "roughnessFactor": 0.99
      },
      "emissiveFactor": [
        0,
        0,
        0
      ],
      "alphaMode": "OPAQUE",
      "doubleSided": false
    }
  ],
  "meshes": [
    {
      "name": "Box004_1",
      "primitives": [
        {
          "attributes": {
            "POSITION": 0,
            "NORMAL": 1,
            "TEXCOORD_0": 2
          },
          "indices": 3,
          "material": 0,
          "mode": 4
        },
        {
          "attributes": {
            "POSITION": 4,
            "NORMAL": 5,
            "TEXCOORD_0": 6
          },
          "indices": 7,
          "material": 1,
          "mode": 4
        },
        {
          "attributes": {
            "POSITION": 8,
            "NORMAL": 9,
            "TEXCOORD_0": 10
          },
          "indices": 11,
          "material": 2,
          "mode": 4
        },
        {
          "attributes": {
            "POSITION": 12,
            "NORMAL": 13,
            "TEXCOORD_0": 14
          },
          "indices": 15,
          "material": 3,
          "mode": 4
        }
      ]
    }
  ],
  "nodes": [
    {
      "name": "Box004",
      "mesh": 0
    }
  ],
  "samplers": [
    {
      "wrapS": 10497,
      "wrapT": 10497
    }
  ],
  "scene": 0,
  "scenes": [
    {
      "nodes": [
        0
      ]
    }
  ],
  "textures": [
    {
      "name": "sgy_1q_08",
      "sampler": 0,
      "source": 0
    },
    {
      "name": "sgy_1q_06",
      "sampler": 0,
      "source": 1
    },
    {
      "name": "sgy_1q_05",
      "sampler": 0,
      "source": 2
    },
    {
      "name": "sgy_1q_07",
      "sampler": 0,
      "source": 3
    }
  ]
}
