{
  "accessors": [
    {
      "name": "Box001_1_0_positions",
      "componentType": 5126,
      "count": 100,
      "min": [
        -7.188700199127197,
        -21.566200256347656,
        7.263400077819824
      ],
      "max": [
        7.188700199127197,
        21.566200256347656,
        21.68589973449707
      ],
      "type": "VEC3",
      "bufferView": 0,
      "byteOffset": 0
    },
    {
      "name": "Box001_1_0_normals",
      "componentType": 5126,
      "count": 100,
      "min": [
        -1,
        -1,
        -1
      ],
      "max": [
        1,
        1,
        1
      ],
      "type": "VEC3",
      "bufferView": 1,
      "byteOffset": 0
    },
    {
      "name": "Box001_1_0_texcoords",
      "componentType": 5126,
      "count": 100,
      "min": [
        0,
        0
      ],
      "max": [
        1,
        1
      ],
      "type": "VEC2",
      "bufferView": 2,
      "byteOffset": 0
    },
    {
      "name": "Box001_1_0_indices",
      "componentType": 5123,
      "count": 162,
      "min": [
        0
      ],
      "max": [
        99
      ],
      "type": "SCALAR",
      "bufferView": 3,
      "byteOffset": 0
    },
    {
      "name": "Box001_1_1_positions",
      "componentType": 5126,
      "count": 16,
      "min": [
        -6,
        -20,
        0
      ],
      "max": [
        6,
        20,
        10
      ],
      "type": "VEC3",
      "bufferView": 0,
      "byteOffset": 1200
    },
    {
      "name": "Box001_1_1_normals",
      "componentType": 5126,
      "count": 16,
      "min": [
        -1,
        -1,
        0
      ],
      "max": [
        1,
        1,
        0
      ],
      "type": "VEC3",
      "bufferView": 1,
      "byteOffset": 1200
    },
    {
      "name": "Box001_1_1_texcoords",
      "componentType": 5126,
      "count": 16,
      "min": [
        -3.4066998958587646,
        -0.14100000262260437
      ],
      "max": [
        4.255499839782715,
        1.1410000324249268
      ],
      "type": "VEC2",
      "bufferView": 2,
      "byteOffset": 800
    },
    {
      "name": "Box001_1_1_indices",
      "componentType": 5123,
      "count": 24,
      "min": [
        0
      ],
      "max": [
        15
      ],
      "type": "SCALAR",
      "bufferView": 3,
      "byteOffset": 324
    },
    {
      "name": "Box001_1_2_positions",
      "componentType": 5126,
      "count": 16,
      "min": [
        -6,
        -20,
        10
      ],
      "max": [
        6,
        20,
        20
      ],
      "type": "VEC3",
      "bufferView": 0,
      "byteOffset": 1392
    },
    {
      "name": "Box001_1_2_normals",
      "componentType": 5126,
      "count": 16,
      "min": [
        -1,
        -1,
        0
      ],
      "max": [
        1,
        1,
        0
      ],
      "type": "VEC3",
      "bufferView": 1,
      "byteOffset": 1392
    },
    {
      "name": "Box001_1_2_texcoords",
      "componentType": 5126,
      "count": 16,
      "min": [
        -3.3041000366210938,
        -0.7833999991416931
      ],
      "max": [
        4.304100036621094,
        1.783400058746338
      ],
      "type": "VEC2",
      "bufferView": 2,
      "byteOffset": 928
    },
    {
      "name": "Box001_1_2_indices",
      "componentType": 5123,
      "count": 24,
      "min": [
        0
      ],
      "max": [
        15
      ],
      "type": "SCALAR",
      "bufferView": 3,
      "byteOffset": 372
    },
    {
      "name": "Box001_1_3_positions",
      "componentType": 5126,
      "count": 968,
      "min": [
        -3.3196001052856445,
        -19.196500778198242,
        21.559600830078125
      ],
      "max": [
        3.5797998905181885,
        18.691699981689453,
        24.944299697875977
      ],
      "type": "VEC3",
      "bufferView": 0,
      "byteOffset": 1584
    },
    {
      "name": "Box001_1_3_normals",
      "componentType": 5126,
      "count": 968,
      "min": [
        -0.9999990463256836,
        -0.9889721870422363,
        -0.3500053882598877
      ],
      "max": [
        0.9999990463256836,
        0.9889721870422363,
        1
      ],
      "type": "VEC3",
      "bufferView": 1,
      "byteOffset": 1584
    },
    {
      "name": "Box001_1_3_texcoords",
      "componentType": 5126,
      "count": 968,
      "min": [
        -0.027799999341368675,
        0
      ],
      "max": [
        0.9811999797821045,
        1
      ],
      "type": "VEC2",
      "bufferView": 2,
      "byteOffset": 1056
    },
    {
      "name": "Box001_1_3_indices",
      "componentType": 5123,
      "count": 3216,
      "min": [
        0
      ],
      "max": [
        967
      ],
      "type": "SCALAR",
      "bufferView": 3,
      "byteOffset": 420
    }
  ],
  "asset": {
    "generator": "obj2gltf",
    "version": "2.0"
  },
  "buffers": [
    {
      "name": "lqt",
      "byteLength": 42052,
      "uri": "data:application/octet-stream;base64,"
    }
  ],
  "bufferViews": [
    {
      "name": "bufferView_0",
      "buffer": 0,
      "byteLength": 13200,
      "byteOffset": 0,
      "byteStride": 12,
      "target": 34962
    },
    {
      "name": "bufferView_1",
      "buffer": 0,
      "byteLength": 13200,
      "byteOffset": 13200,
      "byteStride": 12,
      "target": 34962
    },
    {
      "name": "bufferView_2",
      "buffer": 0,
      "byteLength": 8800,
      "byteOffset": 26400,
      "byteStride": 8,
      "target": 34962
    },
    {
      "name": "bufferView_3",
      "buffer": 0,
      "byteLength": 6852,
      "byteOffset": 35200,
      "target": 34963
    }
  ],
  "images": [
    {
      "name": "sgbq_011",
      "uri": "sgbq_011.jpg"
    },
    {
      "name": "lqt_02",
      "uri": "lqt_02.jpg"
    },
    {
      "name": "lqt_01",
      "uri": "lqt_01.jpg"
    },
    {
      "name": "lqt_03",
      "uri": "lqt_03.jpg"
    }
  ],
  "materials": [
    {
      "name": "Material__1401",
      "pbrMetallicRoughness": {
        "baseColorTexture": {
          "index": 0
        },
        "baseColorFactor": [
          1,
          1,
          1,
          1
        ],
        "metallicFactor": 0,
        "roughnessFactor": 0.99
      },
      "emissiveFactor": [
        0,
        0,
        0
      ],
      "alphaMode": "OPAQUE",
      "doubleSided": false
    },
    {
      "name": "Material__1298",
      "pbrMetallicRoughness": {
        "baseColorTexture": {
          "index": 1
        },
        "baseColorFactor": [
          1,
          1,
          1,
          1
        ],
        "metallicFactor": 0,
        "roughnessFactor": 0.99
      },
      "emissiveFactor": [
        0,
        0,
        0
      ],
      "alphaMode": "OPAQUE",
      "doubleSided": false
    },
    {
      "name": "Material__1299",
      "pbrMetallicRoughness": {
        "baseColorTexture": {
          "index": 2
        },
        "baseColorFactor": [
          1,
          1,
          1,
          1
        ],
        "metallicFactor": 0,
        "roughnessFactor": 0.99
      },
      "emissiveFactor": [
        0,
        0,
        0
      ],
      "alphaMode": "OPAQUE",
      "doubleSided": false
    },
    {
      "name": "Material__1424",
      "pbrMetallicRoughness": {
        "baseColorTexture": {
          "index": 3
        },
        "baseColorFactor": [
          1,
          1,
          1,
          1
        ],
        "metallicFactor": 0,
        "roughnessFactor": 0.99
      },
      "emissiveFactor": [
        0,
        0,
        0
      ],
      "alphaMode": "OPAQUE",
      "doubleSided": false
    }
  ],
  "meshes": [
    {
      "name": "Box001_1",
      "primitives": [
        {
          "attributes": {
            "POSITION": 0,
            "NORMAL": 1,
            "TEXCOORD_0": 2
          },
          "indices": 3,
          "material": 0,
          "mode": 4
        },
        {
          "attributes": {
            "POSITION": 4,
            "NORMAL": 5,
            "TEXCOORD_0": 6
          },
          "indices": 7,
          "material": 1,
          "mode": 4
        },
        {
          "attributes": {
            "POSITION": 8,
            "NORMAL": 9,
            "TEXCOORD_0": 10
          },
          "indices": 11,
          "material": 2,
          "mode": 4
        },
        {
          "attributes": {
            "POSITION": 12,
            "NORMAL": 13,
            "TEXCOORD_0": 14
          },
          "indices": 15,
          "material": 3,
          "mode": 4
        }
      ]
    }
  ],
  "nodes": [
    {
      "name": "Box001",
      "mesh": 0
    }
  ],
  "samplers": [
    {
      "wrapS": 10497,
      "wrapT": 10497
    }
  ],
  "scene": 0,
  "scenes": [
    {
      "nodes": [
        0
      ]
    }
  ],
  "textures": [
    {
      "name": "sgbq_011",
      "sampler": 0,
      "source": 0
    },
    {
      "name": "lqt_02",
      "sampler": 0,
      "source": 1
    },
    {
      "name": "lqt_01",
      "sampler": 0,
      "source": 2
    },
    {
      "name": "lqt_03",
      "sampler": 0,
      "source": 3
    }
  ]
}
