{
  "accessors": [
    {
      "name": "Box007_1_0_positions",
      "componentType": 5126,
      "count": 101,
      "min": [
        -20.30069923400879,
        -18.90519905090332,
        6.607699871063232
      ],
      "max": [
        22.33329963684082,
        18.90519905090332,
        14.280799865722656
      ],
      "type": "VEC3",
      "bufferView": 0,
      "byteOffset": 0
    },
    {
      "name": "Box007_1_0_normals",
      "componentType": 5126,
      "count": 101,
      "min": [
        -1,
        -1,
        0
      ],
      "max": [
        1,
        1,
        1
      ],
      "type": "VEC3",
      "bufferView": 1,
      "byteOffset": 0
    },
    {
      "name": "Box007_1_0_texcoords",
      "componentType": 5126,
      "count": 101,
      "min": [
        0.09459999948740005,
        0.09459999948740005
      ],
      "max": [
        0.9053999781608582,
        0.9053999781608582
      ],
      "type": "VEC2",
      "bufferView": 2,
      "byteOffset": 0
    },
    {
      "name": "Box007_1_0_indices",
      "componentType": 5123,
      "count": 213,
      "min": [
        0
      ],
      "max": [
        100
      ],
      "type": "SCALAR",
      "bufferView": 3,
      "byteOffset": 0
    },
    {
      "name": "Box007_1_1_positions",
      "componentType": 5126,
      "count": 20,
      "min": [
        -20.30069923400879,
        -13.799799919128418,
        0
      ],
      "max": [
        21.19860076904297,
        14.988800048828125,
        4.262899875640869
      ],
      "type": "VEC3",
      "bufferView": 0,
      "byteOffset": 1212
    },
    {
      "name": "Box007_1_1_normals",
      "componentType": 5126,
      "count": 20,
      "min": [
        -1,
        -1,
        0
      ],
      "max": [
        0,
        1,
        0
      ],
      "type": "VEC3",
      "bufferView": 1,
      "byteOffset": 1212
    },
    {
      "name": "Box007_1_1_texcoords",
      "componentType": 5126,
      "count": 20,
      "min": [
        -0.5062000155448914,
        -0.034699998795986176
      ],
      "max": [
        1.5199999809265137,
        1
      ],
      "type": "VEC2",
      "bufferView": 2,
      "byteOffset": 808
    },
    {
      "name": "Box007_1_1_indices",
      "componentType": 5123,
      "count": 30,
      "min": [
        0
      ],
      "max": [
        19
      ],
      "type": "SCALAR",
      "bufferView": 3,
      "byteOffset": 428
    },
    {
      "name": "Box007_1_2_positions",
      "componentType": 5126,
      "count": 139,
      "min": [
        -20.30069923400879,
        -18.90519905090332,
        0
      ],
      "max": [
        30.992900848388672,
        18.90519905090332,
        14.280799865722656
      ],
      "type": "VEC3",
      "bufferView": 0,
      "byteOffset": 1452
    },
    {
      "name": "Box007_1_2_normals",
      "componentType": 5126,
      "count": 139,
      "min": [
        -1,
        -1,
        0
      ],
      "max": [
        1,
        1,
        0
      ],
      "type": "VEC3",
      "bufferView": 1,
      "byteOffset": 1452
    },
    {
      "name": "Box007_1_2_texcoords",
      "componentType": 5126,
      "count": 139,
      "min": [
        -1.2755999565124512,
        -0.005100000184029341
      ],
      "max": [
        2.3085999488830566,
        1
      ],
      "type": "VEC2",
      "bufferView": 2,
      "byteOffset": 968
    },
    {
      "name": "Box007_1_2_indices",
      "componentType": 5123,
      "count": 231,
      "min": [
        0
      ],
      "max": [
        138
      ],
      "type": "SCALAR",
      "bufferView": 3,
      "byteOffset": 488
    },
    {
      "name": "Box007_1_3_positions",
      "componentType": 5126,
      "count": 67,
      "min": [
        -30.992900848388672,
        2.249799966812134,
        0
      ],
      "max": [
        -20.30069923400879,
        14.988800048828125,
        14.280799865722656
      ],
      "type": "VEC3",
      "bufferView": 0,
      "byteOffset": 3120
    },
    {
      "name": "Box007_1_3_normals",
      "componentType": 5126,
      "count": 67,
      "min": [
        -1,
        -1,
        -1
      ],
      "max": [
        0,
        1,
        1
      ],
      "type": "VEC3",
      "bufferView": 1,
      "byteOffset": 3120
    },
    {
      "name": "Box007_1_3_texcoords",
      "componentType": 5126,
      "count": 67,
      "min": [
        0.09120000153779984,
        -0.29660001397132874
      ],
      "max": [
        0.9088000059127808,
        1.243399977684021
      ],
      "type": "VEC2",
      "bufferView": 2,
      "byteOffset": 2080
    },
    {
      "name": "Box007_1_3_indices",
      "componentType": 5123,
      "count": 120,
      "min": [
        0
      ],
      "max": [
        66
      ],
      "type": "SCALAR",
      "bufferView": 3,
      "byteOffset": 952
    },
    {
      "name": "Box007_1_4_positions",
      "componentType": 5126,
      "count": 177,
      "min": [
        -20.30069923400879,
        -18.90519905090332,
        0
      ],
      "max": [
        30.992900848388672,
        18.90519905090332,
        5.167200088500977
      ],
      "type": "VEC3",
      "bufferView": 0,
      "byteOffset": 3924
    },
    {
      "name": "Box007_1_4_normals",
      "componentType": 5126,
      "count": 177,
      "min": [
        -1,
        -1,
        -1
      ],
      "max": [
        1,
        1,
        1
      ],
      "type": "VEC3",
      "bufferView": 1,
      "byteOffset": 3924
    },
    {
      "name": "Box007_1_4_texcoords",
      "componentType": 5126,
      "count": 177,
      "min": [
        -1.3085999488830566,
        -0.5218999981880188
      ],
      "max": [
        2.121500015258789,
        1.5219000577926636
      ],
      "type": "VEC2",
      "bufferView": 2,
      "byteOffset": 2616
    },
    {
      "name": "Box007_1_4_indices",
      "componentType": 5123,
      "count": 357,
      "min": [
        0
      ],
      "max": [
        176
      ],
      "type": "SCALAR",
      "bufferView": 3,
      "byteOffset": 1192
    },
    {
      "name": "Box007_1_5_positions",
      "componentType": 5126,
      "count": 20,
      "min": [
        -20.30069923400879,
        -18.90519905090332,
        5.167200088500977
      ],
      "max": [
        22.33329963684082,
        14.988800048828125,
        14.280799865722656
      ],
      "type": "VEC3",
      "bufferView": 0,
      "byteOffset": 6048
    },
    {
      "name": "Box007_1_5_normals",
      "componentType": 5126,
      "count": 20,
      "min": [
        -1,
        -1,
        0
      ],
      "max": [
        1,
        0,
        0
      ],
      "type": "VEC3",
      "bufferView": 1,
      "byteOffset": 6048
    },
    {
      "name": "Box007_1_5_texcoords",
      "componentType": 5126,
      "count": 20,
      "min": [
        0.004000000189989805,
        0
      ],
      "max": [
        0.9997000098228455,
        1
      ],
      "type": "VEC2",
      "bufferView": 2,
      "byteOffset": 4032
    },
    {
      "name": "Box007_1_5_indices",
      "componentType": 5123,
      "count": 30,
      "min": [
        0
      ],
      "max": [
        19
      ],
      "type": "SCALAR",
      "bufferView": 3,
      "byteOffset": 1908
    }
  ],
  "asset": {
    "generator": "obj2gltf",
    "version": "2.0"
  },
  "buffers": [
    {
      "name": "4_jz06",
      "byteLength": 18736,
      "uri": "data:application/octet-stream;base64,"
    }
  ],
  "bufferViews": [
    {
      "name": "bufferView_0",
      "buffer": 0,
      "byteLength": 6288,
      "byteOffset": 0,
      "byteStride": 12,
      "target": 34962
    },
    {
      "name": "bufferView_1",
      "buffer": 0,
      "byteLength": 6288,
      "byteOffset": 6288,
      "byteStride": 12,
      "target": 34962
    },
    {
      "name": "bufferView_2",
      "buffer": 0,
      "byteLength": 4192,
      "byteOffset": 12576,
      "byteStride": 8,
      "target": 34962
    },
    {
      "name": "bufferView_3",
      "buffer": 0,
      "byteLength": 1968,
      "byteOffset": 16768,
      "target": 34963
    }
  ],
  "images": [
    {
      "name": "011",
      "uri": "011.jpg"
    },
    {
      "name": "sgy_4q_41",
      "uri": "sgy_4q_41.jpg"
    },
    {
      "name": "sgy_4q_38",
      "uri": "sgy_4q_38.jpg"
    },
    {
      "name": "sgy_4q_40",
      "uri": "sgy_4q_40.jpg"
    },
    {
      "name": "sgy_4q_39",
      "uri": "sgy_4q_39.jpg"
    },
    {
      "name": "sgy_4q_37",
      "uri": "sgy_4q_37.jpg"
    }
  ],
  "materials": [
    {
      "name": "Material__8881",
      "pbrMetallicRoughness": {
        "baseColorTexture": {
          "index": 0
        },
        "baseColorFactor": [
          1,
          1,
          1,
          1
        ],
        "metallicFactor": 0,
        "roughnessFactor": 0.99
      },
      "emissiveFactor": [
        0,
        0,
        0
      ],
      "alphaMode": "OPAQUE",
      "doubleSided": false
    },
    {
      "name": "Material__8904",
      "pbrMetallicRoughness": {
        "baseColorTexture": {
          "index": 1
        },
        "baseColorFactor": [
          1,
          1,
          1,
          1
        ],
        "metallicFactor": 0,
        "roughnessFactor": 0.99
      },
      "emissiveFactor": [
        0,
        0,
        0
      ],
      "alphaMode": "OPAQUE",
      "doubleSided": false
    },
    {
      "name": "Material__8822",
      "pbrMetallicRoughness": {
        "baseColorTexture": {
          "index": 2
        },
        "baseColorFactor": [
          1,
          1,
          1,
          1
        ],
        "metallicFactor": 0,
        "roughnessFactor": 0.99
      },
      "emissiveFactor": [
        0,
        0,
        0
      ],
      "alphaMode": "OPAQUE",
      "doubleSided": false
    },
    {
      "name": "Material__8869",
      "pbrMetallicRoughness": {
        "baseColorTexture": {
          "index": 3
        },
        "baseColorFactor": [
          1,
          1,
          1,
          1
        ],
        "metallicFactor": 0,
        "roughnessFactor": 0.99
      },
      "emissiveFactor": [
        0,
        0,
        0
      ],
      "alphaMode": "OPAQUE",
      "doubleSided": false
    },
    {
      "name": "Material__8856",
      "pbrMetallicRoughness": {
        "baseColorTexture": {
          "index": 4
        },
        "baseColorFactor": [
          1,
          1,
          1,
          1
        ],
        "metallicFactor": 0,
        "roughnessFactor": 0.99
      },
      "emissiveFactor": [
        0,
        0,
        0
      ],
      "alphaMode": "OPAQUE",
      "doubleSided": false
    },
    {
      "name": "Material__8810",
      "pbrMetallicRoughness": {
        "baseColorTexture": {
          "index": 5
        },
        "baseColorFactor": [
          1,
          1,
          1,
          1
        ],
        "metallicFactor": 0,
        "roughnessFactor": 0.99
      },
      "emissiveFactor": [
        0,
        0,
        0
      ],
      "alphaMode": "OPAQUE",
      "doubleSided": false
    }
  ],
  "meshes": [
    {
      "name": "Box007_1",
      "primitives": [
        {
          "attributes": {
            "POSITION": 0,
            "NORMAL": 1,
            "TEXCOORD_0": 2
          },
          "indices": 3,
          "material": 0,
          "mode": 4
        },
        {
          "attributes": {
            "POSITION": 4,
            "NORMAL": 5,
            "TEXCOORD_0": 6
          },
          "indices": 7,
          "material": 1,
          "mode": 4
        },
        {
          "attributes": {
            "POSITION": 8,
            "NORMAL": 9,
            "TEXCOORD_0": 10
          },
          "indices": 11,
          "material": 2,
          "mode": 4
        },
        {
          "attributes": {
            "POSITION": 12,
            "NORMAL": 13,
            "TEXCOORD_0": 14
          },
          "indices": 15,
          "material": 3,
          "mode": 4
        },
        {
          "attributes": {
            "POSITION": 16,
            "NORMAL": 17,
            "TEXCOORD_0": 18
          },
          "indices": 19,
          "material": 4,
          "mode": 4
        },
        {
          "attributes": {
            "POSITION": 20,
            "NORMAL": 21,
            "TEXCOORD_0": 22
          },
          "indices": 23,
          "material": 5,
          "mode": 4
        }
      ]
    }
  ],
  "nodes": [
    {
      "name": "Box007",
      "mesh": 0
    }
  ],
  "samplers": [
    {
      "wrapS": 10497,
      "wrapT": 10497
    }
  ],
  "scene": 0,
  "scenes": [
    {
      "nodes": [
        0
      ]
    }
  ],
  "textures": [
    {
      "name": "011",
      "sampler": 0,
      "source": 0
    },
    {
      "name": "sgy_4q_41",
      "sampler": 0,
      "source": 1
    },
    {
      "name": "sgy_4q_38",
      "sampler": 0,
      "source": 2
    },
    {
      "name": "sgy_4q_40",
      "sampler": 0,
      "source": 3
    },
    {
      "name": "sgy_4q_39",
      "sampler": 0,
      "source": 4
    },
    {
      "name": "sgy_4q_37",
      "sampler": 0,
      "source": 5
    }
  ]
}
