{
  "accessors": [
    {
      "name": "Box006_1_0_positions",
      "componentType": 5126,
      "count": 1266,
      "min": [
        -29.683300018310547,
        -7.987199783325195,
        0
      ],
      "max": [
        34.10530090332031,
        7.987199783325195,
        19.265600204467773
      ],
      "type": "VEC3",
      "bufferView": 0,
      "byteOffset": 0
    },
    {
      "name": "Box006_1_0_normals",
      "componentType": 5126,
      "count": 1266,
      "min": [
        -1,
        -1,
        -1
      ],
      "max": [
        1,
        1,
        1
      ],
      "type": "VEC3",
      "bufferView": 1,
      "byteOffset": 0
    },
    {
      "name": "Box006_1_0_texcoords",
      "componentType": 5126,
      "count": 1266,
      "min": [
        -0.6721000075340271,
        0
      ],
      "max": [
        1.6720999479293823,
        1
      ],
      "type": "VEC2",
      "bufferView": 2,
      "byteOffset": 0
    },
    {
      "name": "Box006_1_0_indices",
      "componentType": 5123,
      "count": 2016,
      "min": [
        0
      ],
      "max": [
        1265
      ],
      "type": "SCALAR",
      "bufferView": 3,
      "byteOffset": 0
    },
    {
      "name": "Box006_1_1_positions",
      "componentType": 5126,
      "count": 1710,
      "min": [
        -27.684200286865234,
        -4.850299835205078,
        19.017200469970703
      ],
      "max": [
        31.697999954223633,
        4.787899971008301,
        22.955299377441406
      ],
      "type": "VEC3",
      "bufferView": 0,
      "byteOffset": 15192
    },
    {
      "name": "Box006_1_1_normals",
      "componentType": 5126,
      "count": 1710,
      "min": [
        -0.9988182187080383,
        -0.9838635921478271,
        -0.9267802834510803
      ],
      "max": [
        0.9988182187080383,
        0.9838635921478271,
        0.99070143699646
      ],
      "type": "VEC3",
      "bufferView": 1,
      "byteOffset": 15192
    },
    {
      "name": "Box006_1_1_texcoords",
      "componentType": 5126,
      "count": 1710,
      "min": [
        -0.028200000524520874,
        -0.009399999864399433
      ],
      "max": [
        5.253699779510498,
        1.0153000354766846
      ],
      "type": "VEC2",
      "bufferView": 2,
      "byteOffset": 10128
    },
    {
      "name": "Box006_1_1_indices",
      "componentType": 5123,
      "count": 7560,
      "min": [
        0
      ],
      "max": [
        1709
      ],
      "type": "SCALAR",
      "bufferView": 3,
      "byteOffset": 4032
    },
    {
      "name": "Box006_1_2_positions",
      "componentType": 5126,
      "count": 112,
      "min": [
        -29.94529914855957,
        -8.602999687194824,
        6.19950008392334
      ],
      "max": [
        34.10540008544922,
        8.602999687194824,
        21.225000381469727
      ],
      "type": "VEC3",
      "bufferView": 0,
      "byteOffset": 35712
    },
    {
      "name": "Box006_1_2_normals",
      "componentType": 5126,
      "count": 112,
      "min": [
        -1,
        -1,
        -1
      ],
      "max": [
        1,
        1,
        1
      ],
      "type": "VEC3",
      "bufferView": 1,
      "byteOffset": 35712
    },
    {
      "name": "Box006_1_2_texcoords",
      "componentType": 5126,
      "count": 112,
      "min": [
        0,
        0
      ],
      "max": [
        1.0994999408721924,
        1
      ],
      "type": "VEC2",
      "bufferView": 2,
      "byteOffset": 23808
    },
    {
      "name": "Box006_1_2_indices",
      "componentType": 5123,
      "count": 174,
      "min": [
        0
      ],
      "max": [
        111
      ],
      "type": "SCALAR",
      "bufferView": 3,
      "byteOffset": 19152
    },
    {
      "name": "Box006_1_3_positions",
      "componentType": 5126,
      "count": 16,
      "min": [
        -17.284000396728516,
        -6.955699920654297,
        0
      ],
      "max": [
        34.10530090332031,
        6.955699920654297,
        7.8084001541137695
      ],
      "type": "VEC3",
      "bufferView": 0,
      "byteOffset": 37056
    },
    {
      "name": "Box006_1_3_normals",
      "componentType": 5126,
      "count": 16,
      "min": [
        -1,
        -1,
        0
      ],
      "max": [
        1,
        1,
        0
      ],
      "type": "VEC3",
      "bufferView": 1,
      "byteOffset": 37056
    },
    {
      "name": "Box006_1_3_texcoords",
      "componentType": 5126,
      "count": 16,
      "min": [
        -6.487299919128418,
        0.17960000038146973
      ],
      "max": [
        7.487299919128418,
        1.4082000255584717
      ],
      "type": "VEC2",
      "bufferView": 2,
      "byteOffset": 24704
    },
    {
      "name": "Box006_1_3_indices",
      "componentType": 5123,
      "count": 24,
      "min": [
        0
      ],
      "max": [
        15
      ],
      "type": "SCALAR",
      "bufferView": 3,
      "byteOffset": 19500
    },
    {
      "name": "Box006_1_4_positions",
      "componentType": 5126,
      "count": 350,
      "min": [
        -34.10540008544922,
        -7.803800106048584,
        0
      ],
      "max": [
        -29.286699295043945,
        6.73199987411499,
        21.03569984436035
      ],
      "type": "VEC3",
      "bufferView": 0,
      "byteOffset": 37248
    },
    {
      "name": "Box006_1_4_normals",
      "componentType": 5126,
      "count": 350,
      "min": [
        -1,
        -1,
        -1
      ],
      "max": [
        1,
        1,
        1
      ],
      "type": "VEC3",
      "bufferView": 1,
      "byteOffset": 37248
    },
    {
      "name": "Box006_1_4_texcoords",
      "componentType": 5126,
      "count": 350,
      "min": [
        0,
        0
      ],
      "max": [
        1,
        1
      ],
      "type": "VEC2",
      "bufferView": 2,
      "byteOffset": 24832
    },
    {
      "name": "Box006_1_4_indices",
      "componentType": 5123,
      "count": 522,
      "min": [
        0
      ],
      "max": [
        349
      ],
      "type": "SCALAR",
      "bufferView": 3,
      "byteOffset": 19548
    },
    {
      "name": "Box006_1_5_positions",
      "componentType": 5126,
      "count": 76,
      "min": [
        -34.10540008544922,
        -6.219200134277344,
        0
      ],
      "max": [
        -29.286699295043945,
        5.147299766540527,
        21.03569984436035
      ],
      "type": "VEC3",
      "bufferView": 0,
      "byteOffset": 41448
    },
    {
      "name": "Box006_1_5_normals",
      "componentType": 5126,
      "count": 76,
      "min": [
        0,
        -0.6483998894691467,
        -0.8898205757141113
      ],
      "max": [
        0,
        1,
        0.8898205757141113
      ],
      "type": "VEC3",
      "bufferView": 1,
      "byteOffset": 41448
    },
    {
      "name": "Box006_1_5_texcoords",
      "componentType": 5126,
      "count": 76,
      "min": [
        -0.8384000062942505,
        -0.7493000030517578
      ],
      "max": [
        1.8446999788284302,
        1
      ],
      "type": "VEC2",
      "bufferView": 2,
      "byteOffset": 27632
    },
    {
      "name": "Box006_1_5_indices",
      "componentType": 5123,
      "count": 102,
      "min": [
        0
      ],
      "max": [
        75
      ],
      "type": "SCALAR",
      "bufferView": 3,
      "byteOffset": 20592
    },
    {
      "name": "Box006_1_6_positions",
      "componentType": 5126,
      "count": 188,
      "min": [
        -33.99190139770508,
        -7.803800106048584,
        0.3653999865055084
      ],
      "max": [
        -29.286699295043945,
        6.73199987411499,
        22.48080062866211
      ],
      "type": "VEC3",
      "bufferView": 0,
      "byteOffset": 42360
    },
    {
      "name": "Box006_1_6_normals",
      "componentType": 5126,
      "count": 188,
      "min": [
        -1,
        -1,
        0
      ],
      "max": [
        1,
        1,
        0
      ],
      "type": "VEC3",
      "bufferView": 1,
      "byteOffset": 42360
    },
    {
      "name": "Box006_1_6_texcoords",
      "componentType": 5126,
      "count": 188,
      "min": [
        -0.05209999904036522,
        0
      ],
      "max": [
        5.028600215911865,
        1.5472999811172485
      ],
      "type": "VEC2",
      "bufferView": 2,
      "byteOffset": 28240
    },
    {
      "name": "Box006_1_6_indices",
      "componentType": 5123,
      "count": 258,
      "min": [
        0
      ],
      "max": [
        187
      ],
      "type": "SCALAR",
      "bufferView": 3,
      "byteOffset": 20796
    }
  ],
  "asset": {
    "generator": "obj2gltf",
    "version": "2.0"
  },
  "buffers": [
    {
      "name": "4_jz05",
      "byteLength": 140288,
      "uri": "data:application/octet-stream;base64,"
    }
  ],
  "bufferViews": [
    {
      "name": "bufferView_0",
      "buffer": 0,
      "byteLength": 44616,
      "byteOffset": 0,
      "byteStride": 12,
      "target": 34962
    },
    {
      "name": "bufferView_1",
      "buffer": 0,
      "byteLength": 44616,
      "byteOffset": 44616,
      "byteStride": 12,
      "target": 34962
    },
    {
      "name": "bufferView_2",
      "buffer": 0,
      "byteLength": 29744,
      "byteOffset": 89232,
      "byteStride": 8,
      "target": 34962
    },
    {
      "name": "bufferView_3",
      "buffer": 0,
      "byteLength": 21312,
      "byteOffset": 118976,
      "target": 34963
    }
  ],
  "images": [
    {
      "name": "sgy_1q_09",
      "uri": "sgy_1q_09.jpg"
    },
    {
      "name": "sgy_4q_36",
      "uri": "sgy_4q_36.jpg"
    },
    {
      "name": "sgy_4q_33",
      "uri": "sgy_4q_33.jpg"
    },
    {
      "name": "sgy_3q_43",
      "uri": "sgy_3q_43.jpg"
    },
    {
      "name": "sgy_4q_32",
      "uri": "sgy_4q_32.jpg"
    },
    {
      "name": "sgy_4q_34",
      "uri": "sgy_4q_34.png"
    },
    {
      "name": "sgy_4q_26",
      "uri": "sgy_4q_26.png"
    }
  ],
  "materials": [
    {
      "name": "Material__8454",
      "pbrMetallicRoughness": {
        "baseColorTexture": {
          "index": 0
        },
        "baseColorFactor": [
          1,
          1,
          1,
          1
        ],
        "metallicFactor": 0,
        "roughnessFactor": 0.99
      },
      "emissiveFactor": [
        0,
        0,
        0
      ],
      "alphaMode": "OPAQUE",
      "doubleSided": false
    },
    {
      "name": "Material__8576",
      "pbrMetallicRoughness": {
        "baseColorTexture": {
          "index": 1
        },
        "baseColorFactor": [
          1,
          1,
          1,
          1
        ],
        "metallicFactor": 0,
        "roughnessFactor": 0.99
      },
      "emissiveFactor": [
        0,
        0,
        0
      ],
      "alphaMode": "OPAQUE",
      "doubleSided": false
    },
    {
      "name": "Material__8431",
      "pbrMetallicRoughness": {
        "baseColorTexture": {
          "index": 2
        },
        "baseColorFactor": [
          1,
          1,
          1,
          1
        ],
        "metallicFactor": 0,
        "roughnessFactor": 0.99
      },
      "emissiveFactor": [
        0,
        0,
        0
      ],
      "alphaMode": "OPAQUE",
      "doubleSided": false
    },
    {
      "name": "Material__8320",
      "pbrMetallicRoughness": {
        "baseColorTexture": {
          "index": 3
        },
        "baseColorFactor": [
          1,
          1,
          1,
          1
        ],
        "metallicFactor": 0,
        "roughnessFactor": 0.99
      },
      "emissiveFactor": [
        0,
        0,
        0
      ],
      "alphaMode": "OPAQUE",
      "doubleSided": false
    },
    {
      "name": "Material__8457",
      "pbrMetallicRoughness": {
        "baseColorTexture": {
          "index": 4
        },
        "baseColorFactor": [
          1,
          1,
          1,
          1
        ],
        "metallicFactor": 0,
        "roughnessFactor": 0.99
      },
      "emissiveFactor": [
        0,
        0,
        0
      ],
      "alphaMode": "OPAQUE",
      "doubleSided": false
    },
    {
      "name": "Material__8505",
      "pbrMetallicRoughness": {
        "baseColorTexture": {
          "index": 5
        },
        "baseColorFactor": [
          1,
          1,
          1,
          1
        ],
        "metallicFactor": 0,
        "roughnessFactor": 0.99
      },
      "emissiveFactor": [
        0,
        0,
        0
      ],
      "alphaMode": "BLEND",
      "doubleSided": true
    },
    {
      "name": "Material__8552",
      "pbrMetallicRoughness": {
        "baseColorTexture": {
          "index": 6
        },
        "baseColorFactor": [
          1,
          1,
          1,
          1
        ],
        "metallicFactor": 0,
        "roughnessFactor": 0.99
      },
      "emissiveFactor": [
        0,
        0,
        0
      ],
      "alphaMode": "BLEND",
      "doubleSided": true
    }
  ],
  "meshes": [
    {
      "name": "Box006_1",
      "primitives": [
        {
          "attributes": {
            "POSITION": 0,
            "NORMAL": 1,
            "TEXCOORD_0": 2
          },
          "indices": 3,
          "material": 0,
          "mode": 4
        },
        {
          "attributes": {
            "POSITION": 4,
            "NORMAL": 5,
            "TEXCOORD_0": 6
          },
          "indices": 7,
          "material": 1,
          "mode": 4
        },
        {
          "attributes": {
            "POSITION": 8,
            "NORMAL": 9,
            "TEXCOORD_0": 10
          },
          "indices": 11,
          "material": 2,
          "mode": 4
        },
        {
          "attributes": {
            "POSITION": 12,
            "NORMAL": 13,
            "TEXCOORD_0": 14
          },
          "indices": 15,
          "material": 3,
          "mode": 4
        },
        {
          "attributes": {
            "POSITION": 16,
            "NORMAL": 17,
            "TEXCOORD_0": 18
          },
          "indices": 19,
          "material": 4,
          "mode": 4
        },
        {
          "attributes": {
            "POSITION": 20,
            "NORMAL": 21,
            "TEXCOORD_0": 22
          },
          "indices": 23,
          "material": 5,
          "mode": 4
        },
        {
          "attributes": {
            "POSITION": 24,
            "NORMAL": 25,
            "TEXCOORD_0": 26
          },
          "indices": 27,
          "material": 6,
          "mode": 4
        }
      ]
    }
  ],
  "nodes": [
    {
      "name": "Box006",
      "mesh": 0
    }
  ],
  "samplers": [
    {
      "wrapS": 10497,
      "wrapT": 10497
    }
  ],
  "scene": 0,
  "scenes": [
    {
      "nodes": [
        0
      ]
    }
  ],
  "textures": [
    {
      "name": "sgy_1q_09",
      "sampler": 0,
      "source": 0
    },
    {
      "name": "sgy_4q_36",
      "sampler": 0,
      "source": 1
    },
    {
      "name": "sgy_4q_33",
      "sampler": 0,
      "source": 2
    },
    {
      "name": "sgy_3q_43",
      "sampler": 0,
      "source": 3
    },
    {
      "name": "sgy_4q_32",
      "sampler": 0,
      "source": 4
    },
    {
      "name": "sgy_4q_34",
      "sampler": 0,
      "source": 5
    },
    {
      "name": "sgy_4q_26",
      "sampler": 0,
      "source": 6
    }
  ]
}
