{
  "accessors": [
    {
      "name": "Box005_1_0_positions",
      "componentType": 5126,
      "count": 168,
      "min": [
        6.742400169372559,
        -21.943199157714844,
        -0.024900000542402267
      ],
      "max": [
        15.98330020904541,
        22.06060028076172,
        11.081999778747559
      ],
      "type": "VEC3",
      "bufferView": 0,
      "byteOffset": 0
    },
    {
      "name": "Box005_1_0_normals",
      "componentType": 5126,
      "count": 168,
      "min": [
        -1,
        -1,
        -1
      ],
      "max": [
        1,
        1,
        1
      ],
      "type": "VEC3",
      "bufferView": 1,
      "byteOffset": 0
    },
    {
      "name": "Box005_1_0_texcoords",
      "componentType": 5126,
      "count": 168,
      "min": [
        0,
        0
      ],
      "max": [
        1,
        1
      ],
      "type": "VEC2",
      "bufferView": 2,
      "byteOffset": 0
    },
    {
      "name": "Box005_1_0_indices",
      "componentType": 5123,
      "count": 270,
      "min": [
        0
      ],
      "max": [
        167
      ],
      "type": "SCALAR",
      "bufferView": 3,
      "byteOffset": 0
    },
    {
      "name": "Box005_1_1_positions",
      "componentType": 5126,
      "count": 58,
      "min": [
        -15.98330020904541,
        -22.858600616455078,
        16.50309944152832
      ],
      "max": [
        12.685600280761719,
        22.85849952697754,
        17.045900344848633
      ],
      "type": "VEC3",
      "bufferView": 0,
      "byteOffset": 2016
    },
    {
      "name": "Box005_1_1_normals",
      "componentType": 5126,
      "count": 58,
      "min": [
        -1,
        -1,
        0
      ],
      "max": [
        1,
        1,
        1
      ],
      "type": "VEC3",
      "bufferView": 1,
      "byteOffset": 2016
    },
    {
      "name": "Box005_1_1_texcoords",
      "componentType": 5126,
      "count": 58,
      "min": [
        -1.1447999477386475,
        -1.1447999477386475
      ],
      "max": [
        2.1447999477386475,
        2.1447999477386475
      ],
      "type": "VEC2",
      "bufferView": 2,
      "byteOffset": 1344
    },
    {
      "name": "Box005_1_1_indices",
      "componentType": 5123,
      "count": 114,
      "min": [
        0
      ],
      "max": [
        57
      ],
      "type": "SCALAR",
      "bufferView": 3,
      "byteOffset": 540
    },
    {
      "name": "Box005_1_2_positions",
      "componentType": 5126,
      "count": 22,
      "min": [
        -15.98330020904541,
        -22.858600616455078,
        0
      ],
      "max": [
        -1.2877000570297241,
        22.858600616455078,
        17.045900344848633
      ],
      "type": "VEC3",
      "bufferView": 0,
      "byteOffset": 2712
    },
    {
      "name": "Box005_1_2_normals",
      "componentType": 5126,
      "count": 22,
      "min": [
        -1,
        -1,
        0
      ],
      "max": [
        1,
        1,
        0
      ],
      "type": "VEC3",
      "bufferView": 1,
      "byteOffset": 2712
    },
    {
      "name": "Box005_1_2_texcoords",
      "componentType": 5126,
      "count": 22,
      "min": [
        -0.49959999322891235,
        0
      ],
      "max": [
        2.0020999908447266,
        1.0006999969482422
      ],
      "type": "VEC2",
      "bufferView": 2,
      "byteOffset": 1808
    },
    {
      "name": "Box005_1_2_indices",
      "componentType": 5123,
      "count": 36,
      "min": [
        0
      ],
      "max": [
        21
      ],
      "type": "SCALAR",
      "bufferView": 3,
      "byteOffset": 768
    },
    {
      "name": "Box005_1_3_positions",
      "componentType": 5126,
      "count": 12,
      "min": [
        -1.2877000570297241,
        -20.44659996032715,
        0
      ],
      "max": [
        12.685600280761719,
        20.44659996032715,
        17.045900344848633
      ],
      "type": "VEC3",
      "bufferView": 0,
      "byteOffset": 2976
    },
    {
      "name": "Box005_1_3_normals",
      "componentType": 5126,
      "count": 12,
      "min": [
        0,
        -1,
        0
      ],
      "max": [
        1,
        1,
        0
      ],
      "type": "VEC3",
      "bufferView": 1,
      "byteOffset": 2976
    },
    {
      "name": "Box005_1_3_texcoords",
      "componentType": 5126,
      "count": 12,
      "min": [
        0,
        -1.0148999691009521
      ],
      "max": [
        2.025899887084961,
        1
      ],
      "type": "VEC2",
      "bufferView": 2,
      "byteOffset": 1984
    },
    {
      "name": "Box005_1_3_indices",
      "componentType": 5123,
      "count": 18,
      "min": [
        0
      ],
      "max": [
        11
      ],
      "type": "SCALAR",
      "bufferView": 3,
      "byteOffset": 840
    },
    {
      "name": "Box005_1_4_positions",
      "componentType": 5126,
      "count": 8,
      "min": [
        6.742400169372559,
        -21.943199157714844,
        10.871800422668457
      ],
      "max": [
        15.98330020904541,
        22.06060028076172,
        15.654899597167969
      ],
      "type": "VEC3",
      "bufferView": 0,
      "byteOffset": 3120
    },
    {
      "name": "Box005_1_4_normals",
      "componentType": 5126,
      "count": 8,
      "min": [
        0,
        0,
        -1
      ],
      "max": [
        0,
        0,
        1
      ],
      "type": "VEC3",
      "bufferView": 1,
      "byteOffset": 3120
    },
    {
      "name": "Box005_1_4_texcoords",
      "componentType": 5126,
      "count": 8,
      "min": [
        0,
        0
      ],
      "max": [
        1,
        1
      ],
      "type": "VEC2",
      "bufferView": 2,
      "byteOffset": 2080
    },
    {
      "name": "Box005_1_4_indices",
      "componentType": 5123,
      "count": 12,
      "min": [
        0
      ],
      "max": [
        7
      ],
      "type": "SCALAR",
      "bufferView": 3,
      "byteOffset": 876
    },
    {
      "name": "Box005_1_5_positions",
      "componentType": 5126,
      "count": 16,
      "min": [
        6.742400169372559,
        -21.943199157714844,
        10.871800422668457
      ],
      "max": [
        15.98330020904541,
        22.06060028076172,
        15.654899597167969
      ],
      "type": "VEC3",
      "bufferView": 0,
      "byteOffset": 3216
    },
    {
      "name": "Box005_1_5_normals",
      "componentType": 5126,
      "count": 16,
      "min": [
        -1,
        -1,
        0
      ],
      "max": [
        1,
        1,
        0
      ],
      "type": "VEC3",
      "bufferView": 1,
      "byteOffset": 3216
    },
    {
      "name": "Box005_1_5_texcoords",
      "componentType": 5126,
      "count": 16,
      "min": [
        -0.0340999998152256,
        0.30090001225471497
      ],
      "max": [
        3.087100028991699,
        0.5687000155448914
      ],
      "type": "VEC2",
      "bufferView": 2,
      "byteOffset": 2144
    },
    {
      "name": "Box005_1_5_indices",
      "componentType": 5123,
      "count": 24,
      "min": [
        0
      ],
      "max": [
        15
      ],
      "type": "SCALAR",
      "bufferView": 3,
      "byteOffset": 900
    }
  ],
  "asset": {
    "generator": "obj2gltf",
    "version": "2.0"
  },
  "buffers": [
    {
      "name": "3_jz05",
      "byteLength": 10036,
      "uri": "data:application/octet-stream;base64,"
    }
  ],
  "bufferViews": [
    {
      "name": "bufferView_0",
      "buffer": 0,
      "byteLength": 3408,
      "byteOffset": 0,
      "byteStride": 12,
      "target": 34962
    },
    {
      "name": "bufferView_1",
      "buffer": 0,
      "byteLength": 3408,
      "byteOffset": 3408,
      "byteStride": 12,
      "target": 34962
    },
    {
      "name": "bufferView_2",
      "buffer": 0,
      "byteLength": 2272,
      "byteOffset": 6816,
      "byteStride": 8,
      "target": 34962
    },
    {
      "name": "bufferView_3",
      "buffer": 0,
      "byteLength": 948,
      "byteOffset": 9088,
      "target": 34963
    }
  ],
  "images": [
    {
      "name": "SGY_Q1_023",
      "uri": "SGY_Q1_023.jpg"
    },
    {
      "name": "SGY_Q1_005",
      "uri": "SGY_Q1_005.jpg"
    },
    {
      "name": "SGY_Q1_022",
      "uri": "SGY_Q1_022.jpg"
    },
    {
      "name": "SGY_Q1_002",
      "uri": "SGY_Q1_002.jpg"
    },
    {
      "name": "SGY_Q1_016",
      "uri": "SGY_Q1_016.jpg"
    },
    {
      "name": "SGY_Q1_011",
      "uri": "SGY_Q1_011.jpg"
    }
  ],
  "materials": [
    {
      "name": "Material__73",
      "pbrMetallicRoughness": {
        "baseColorTexture": {
          "index": 0
        },
        "baseColorFactor": [
          1,
          1,
          1,
          1
        ],
        "metallicFactor": 0,
        "roughnessFactor": 0.99
      },
      "emissiveFactor": [
        0,
        0,
        0
      ],
      "alphaMode": "OPAQUE",
      "doubleSided": false
    },
    {
      "name": "Material__157",
      "pbrMetallicRoughness": {
        "baseColorTexture": {
          "index": 1
        },
        "baseColorFactor": [
          1,
          1,
          1,
          1
        ],
        "metallicFactor": 0,
        "roughnessFactor": 0.99
      },
      "emissiveFactor": [
        0,
        0,
        0
      ],
      "alphaMode": "OPAQUE",
      "doubleSided": false
    },
    {
      "name": "Material__37",
      "pbrMetallicRoughness": {
        "baseColorTexture": {
          "index": 2
        },
        "baseColorFactor": [
          1,
          1,
          1,
          1
        ],
        "metallicFactor": 0,
        "roughnessFactor": 0.99
      },
      "emissiveFactor": [
        0,
        0,
        0
      ],
      "alphaMode": "OPAQUE",
      "doubleSided": false
    },
    {
      "name": "Material__49",
      "pbrMetallicRoughness": {
        "baseColorTexture": {
          "index": 3
        },
        "baseColorFactor": [
          1,
          1,
          1,
          1
        ],
        "metallicFactor": 0,
        "roughnessFactor": 0.99
      },
      "emissiveFactor": [
        0,
        0,
        0
      ],
      "alphaMode": "OPAQUE",
      "doubleSided": false
    },
    {
      "name": "Material__145",
      "pbrMetallicRoughness": {
        "baseColorTexture": {
          "index": 4
        },
        "baseColorFactor": [
          1,
          1,
          1,
          1
        ],
        "metallicFactor": 0,
        "roughnessFactor": 0.99
      },
      "emissiveFactor": [
        0,
        0,
        0
      ],
      "alphaMode": "OPAQUE",
      "doubleSided": false
    },
    {
      "name": "Material__61",
      "pbrMetallicRoughness": {
        "baseColorTexture": {
          "index": 5
        },
        "baseColorFactor": [
          1,
          1,
          1,
          1
        ],
        "metallicFactor": 0,
        "roughnessFactor": 0.99
      },
      "emissiveFactor": [
        0,
        0,
        0
      ],
      "alphaMode": "OPAQUE",
      "doubleSided": false
    }
  ],
  "meshes": [
    {
      "name": "Box005_1",
      "primitives": [
        {
          "attributes": {
            "POSITION": 0,
            "NORMAL": 1,
            "TEXCOORD_0": 2
          },
          "indices": 3,
          "material": 0,
          "mode": 4
        },
        {
          "attributes": {
            "POSITION": 4,
            "NORMAL": 5,
            "TEXCOORD_0": 6
          },
          "indices": 7,
          "material": 1,
          "mode": 4
        },
        {
          "attributes": {
            "POSITION": 8,
            "NORMAL": 9,
            "TEXCOORD_0": 10
          },
          "indices": 11,
          "material": 2,
          "mode": 4
        },
        {
          "attributes": {
            "POSITION": 12,
            "NORMAL": 13,
            "TEXCOORD_0": 14
          },
          "indices": 15,
          "material": 3,
          "mode": 4
        },
        {
          "attributes": {
            "POSITION": 16,
            "NORMAL": 17,
            "TEXCOORD_0": 18
          },
          "indices": 19,
          "material": 4,
          "mode": 4
        },
        {
          "attributes": {
            "POSITION": 20,
            "NORMAL": 21,
            "TEXCOORD_0": 22
          },
          "indices": 23,
          "material": 5,
          "mode": 4
        }
      ]
    }
  ],
  "nodes": [
    {
      "name": "Box005",
      "mesh": 0
    }
  ],
  "samplers": [
    {
      "wrapS": 10497,
      "wrapT": 10497
    }
  ],
  "scene": 0,
  "scenes": [
    {
      "nodes": [
        0
      ]
    }
  ],
  "textures": [
    {
      "name": "SGY_Q1_023",
      "sampler": 0,
      "source": 0
    },
    {
      "name": "SGY_Q1_005",
      "sampler": 0,
      "source": 1
    },
    {
      "name": "SGY_Q1_022",
      "sampler": 0,
      "source": 2
    },
    {
      "name": "SGY_Q1_002",
      "sampler": 0,
      "source": 3
    },
    {
      "name": "SGY_Q1_016",
      "sampler": 0,
      "source": 4
    },
    {
      "name": "SGY_Q1_011",
      "sampler": 0,
      "source": 5
    }
  ]
}
