{
  "accessors": [
    {
      "name": "Box002_1_0_positions",
      "componentType": 5126,
      "count": 280,
      "min": [
        -33.69670104980469,
        -15.020299911499023,
        9.14330005645752
      ],
      "max": [
        33.69670104980469,
        12.979700088500977,
        38.852298736572266
      ],
      "type": "VEC3",
      "bufferView": 0,
      "byteOffset": 0
    },
    {
      "name": "Box002_1_0_normals",
      "componentType": 5126,
      "count": 280,
      "min": [
        -1,
        -1,
        0
      ],
      "max": [
        1,
        1,
        0.7340246438980103
      ],
      "type": "VEC3",
      "bufferView": 1,
      "byteOffset": 0
    },
    {
      "name": "Box002_1_0_texcoords",
      "componentType": 5126,
      "count": 280,
      "min": [
        -2.007699966430664,
        -0.4514000117778778
      ],
      "max": [
        3.007699966430664,
        0.7239999771118164
      ],
      "type": "VEC2",
      "bufferView": 2,
      "byteOffset": 0
    },
    {
      "name": "Box002_1_0_indices",
      "componentType": 5123,
      "count": 420,
      "min": [
        0
      ],
      "max": [
        279
      ],
      "type": "SCALAR",
      "bufferView": 3,
      "byteOffset": 0
    },
    {
      "name": "Box002_1_1_positions",
      "componentType": 5126,
      "count": 1280,
      "min": [
        -40.440101623535156,
        -18.50200080871582,
        0
      ],
      "max": [
        40.440101623535156,
        18.50200080871582,
        40.56880187988281
      ],
      "type": "VEC3",
      "bufferView": 0,
      "byteOffset": 3360
    },
    {
      "name": "Box002_1_1_normals",
      "componentType": 5126,
      "count": 1280,
      "min": [
        -1,
        -1,
        -1
      ],
      "max": [
        1,
        1,
        1
      ],
      "type": "VEC3",
      "bufferView": 1,
      "byteOffset": 3360
    },
    {
      "name": "Box002_1_1_texcoords",
      "componentType": 5126,
      "count": 1280,
      "min": [
        -0.125,
        0
      ],
      "max": [
        1,
        1
      ],
      "type": "VEC2",
      "bufferView": 2,
      "byteOffset": 2240
    },
    {
      "name": "Box002_1_1_indices",
      "componentType": 5123,
      "count": 2088,
      "min": [
        0
      ],
      "max": [
        1279
      ],
      "type": "SCALAR",
      "bufferView": 3,
      "byteOffset": 840
    },
    {
      "name": "Box002_1_2_positions",
      "componentType": 5126,
      "count": 24,
      "min": [
        -23.529300689697266,
        -15.020299911499023,
        0
      ],
      "max": [
        23.529300689697266,
        12.979700088500977,
        7.420300006866455
      ],
      "type": "VEC3",
      "bufferView": 0,
      "byteOffset": 18720
    },
    {
      "name": "Box002_1_2_normals",
      "componentType": 5126,
      "count": 24,
      "min": [
        -0.003199982922524214,
        -1,
        -0.0006999962497502565
      ],
      "max": [
        0.003199982922524214,
        1,
        0
      ],
      "type": "VEC3",
      "bufferView": 1,
      "byteOffset": 18720
    },
    {
      "name": "Box002_1_2_texcoords",
      "componentType": 5126,
      "count": 24,
      "min": [
        0,
        -0.14329999685287476
      ],
      "max": [
        1,
        1
      ],
      "type": "VEC2",
      "bufferView": 2,
      "byteOffset": 12480
    },
    {
      "name": "Box002_1_2_indices",
      "componentType": 5123,
      "count": 36,
      "min": [
        0
      ],
      "max": [
        23
      ],
      "type": "SCALAR",
      "bufferView": 3,
      "byteOffset": 5016
    }
  ],
  "asset": {
    "generator": "obj2gltf",
    "version": "2.0"
  },
  "buffers": [
    {
      "name": "Q6_01",
      "byteLength": 55776,
      "uri": "data:application/octet-stream;base64,"
    }
  ],
  "bufferViews": [
    {
      "name": "bufferView_0",
      "buffer": 0,
      "byteLength": 19008,
      "byteOffset": 0,
      "byteStride": 12,
      "target": 34962
    },
    {
      "name": "bufferView_1",
      "buffer": 0,
      "byteLength": 19008,
      "byteOffset": 19008,
      "byteStride": 12,
      "target": 34962
    },
    {
      "name": "bufferView_2",
      "buffer": 0,
      "byteLength": 12672,
      "byteOffset": 38016,
      "byteStride": 8,
      "target": 34962
    },
    {
      "name": "bufferView_3",
      "buffer": 0,
      "byteLength": 5088,
      "byteOffset": 50688,
      "target": 34963
    }
  ],
  "images": [
    {
      "name": "SGY_q1_074",
      "uri": "SGY_q1_074.jpg"
    },
    {
      "name": "SGY_q1_128",
      "uri": "SGY_q1_128.jpg"
    },
    {
      "name": "SGY_q1_143",
      "uri": "SGY_q1_143.jpg"
    }
  ],
  "materials": [
    {
      "name": "Material__48",
      "pbrMetallicRoughness": {
        "baseColorTexture": {
          "index": 0
        },
        "baseColorFactor": [
          1,
          1,
          1,
          1
        ],
        "metallicFactor": 0,
        "roughnessFactor": 0.99
      },
      "emissiveFactor": [
        0,
        0,
        0
      ],
      "alphaMode": "OPAQUE",
      "doubleSided": false
    },
    {
      "name": "Material__25",
      "pbrMetallicRoughness": {
        "baseColorTexture": {
          "index": 1
        },
        "baseColorFactor": [
          1,
          1,
          1,
          1
        ],
        "metallicFactor": 0,
        "roughnessFactor": 0.99
      },
      "emissiveFactor": [
        0,
        0,
        0
      ],
      "alphaMode": "OPAQUE",
      "doubleSided": false
    },
    {
      "name": "Material__83",
      "pbrMetallicRoughness": {
        "baseColorTexture": {
          "index": 2
        },
        "baseColorFactor": [
          1,
          1,
          1,
          1
        ],
        "metallicFactor": 0,
        "roughnessFactor": 0.99
      },
      "emissiveFactor": [
        0,
        0,
        0
      ],
      "alphaMode": "OPAQUE",
      "doubleSided": false
    }
  ],
  "meshes": [
    {
      "name": "Box002_1",
      "primitives": [
        {
          "attributes": {
            "POSITION": 0,
            "NORMAL": 1,
            "TEXCOORD_0": 2
          },
          "indices": 3,
          "material": 0,
          "mode": 4
        },
        {
          "attributes": {
            "POSITION": 4,
            "NORMAL": 5,
            "TEXCOORD_0": 6
          },
          "indices": 7,
          "material": 1,
          "mode": 4
        },
        {
          "attributes": {
            "POSITION": 8,
            "NORMAL": 9,
            "TEXCOORD_0": 10
          },
          "indices": 11,
          "material": 2,
          "mode": 4
        }
      ]
    }
  ],
  "nodes": [
    {
      "name": "Box002",
      "mesh": 0
    }
  ],
  "samplers": [
    {
      "wrapS": 10497,
      "wrapT": 10497
    }
  ],
  "scene": 0,
  "scenes": [
    {
      "nodes": [
        0
      ]
    }
  ],
  "textures": [
    {
      "name": "SGY_q1_074",
      "sampler": 0,
      "source": 0
    },
    {
      "name": "SGY_q1_128",
      "sampler": 0,
      "source": 1
    },
    {
      "name": "SGY_q1_143",
      "sampler": 0,
      "source": 2
    }
  ]
}
