{
  "accessors": [
    {
      "name": "Cylinder007_1_0_positions",
      "componentType": 5126,
      "count": 364,
      "min": [
        -83.90760040283203,
        -10.924500465393066,
        0
      ],
      "max": [
        83.90760040283203,
        10.924400329589844,
        27.677400588989258
      ],
      "type": "VEC3",
      "bufferView": 0,
      "byteOffset": 0
    },
    {
      "name": "Cylinder007_1_0_normals",
      "componentType": 5126,
      "count": 364,
      "min": [
        -0.9999819993972778,
        -0.9999819993972778,
        0
      ],
      "max": [
        0.9999819993972778,
        0.9999819993972778,
        1
      ],
      "type": "VEC3",
      "bufferView": 1,
      "byteOffset": 0
    },
    {
      "name": "Cylinder007_1_0_texcoords",
      "componentType": 5126,
      "count": 364,
      "min": [
        -1.3101999759674072,
        -0.23469999432563782
      ],
      "max": [
        2.086199998855591,
        1
      ],
      "type": "VEC2",
      "bufferView": 2,
      "byteOffset": 0
    },
    {
      "name": "Cylinder007_1_0_indices",
      "componentType": 5123,
      "count": 966,
      "min": [
        0
      ],
      "max": [
        363
      ],
      "type": "SCALAR",
      "bufferView": 3,
      "byteOffset": 0
    }
  ],
  "asset": {
    "generator": "obj2gltf",
    "version": "2.0"
  },
  "buffers": [
    {
      "name": "2_jz18",
      "byteLength": 13580,
      "uri": "data:application/octet-stream;base64,"
    }
  ],
  "bufferViews": [
    {
      "name": "bufferView_0",
      "buffer": 0,
      "byteLength": 4368,
      "byteOffset": 0,
      "byteStride": 12,
      "target": 34962
    },
    {
      "name": "bufferView_1",
      "buffer": 0,
      "byteLength": 4368,
      "byteOffset": 4368,
      "byteStride": 12,
      "target": 34962
    },
    {
      "name": "bufferView_2",
      "buffer": 0,
      "byteLength": 2912,
      "byteOffset": 8736,
      "byteStride": 8,
      "target": 34962
    },
    {
      "name": "bufferView_3",
      "buffer": 0,
      "byteLength": 1932,
      "byteOffset": 11648,
      "target": 34963
    }
  ],
  "images": [
    {
      "name": "SGY_Q2_001",
      "uri": "SGY_Q2_001.jpg"
    }
  ],
  "materials": [
    {
      "name": "Material__3320",
      "pbrMetallicRoughness": {
        "baseColorTexture": {
          "index": 0
        },
        "baseColorFactor": [
          1,
          1,
          1,
          1
        ],
        "metallicFactor": 0,
        "roughnessFactor": 0.99
      },
      "emissiveFactor": [
        0,
        0,
        0
      ],
      "alphaMode": "OPAQUE",
      "doubleSided": false
    }
  ],
  "meshes": [
    {
      "name": "Cylinder007_1",
      "primitives": [
        {
          "attributes": {
            "POSITION": 0,
            "NORMAL": 1,
            "TEXCOORD_0": 2
          },
          "indices": 3,
          "material": 0,
          "mode": 4
        }
      ]
    }
  ],
  "nodes": [
    {
      "name": "Cylinder007",
      "mesh": 0
    }
  ],
  "samplers": [
    {
      "wrapS": 10497,
      "wrapT": 10497
    }
  ],
  "scene": 0,
  "scenes": [
    {
      "nodes": [
        0
      ]
    }
  ],
  "textures": [
    {
      "name": "SGY_Q2_001",
      "sampler": 0,
      "source": 0
    }
  ]
}
