{
  "accessors": [
    {
      "name": "pCube14_1_0_positions",
      "componentType": 5126,
      "count": 9,
      "min": [
        -13.942899703979492,
        6.049099922180176,
        0.22169999778270721
      ],
      "max": [
        13.942899703979492,
        6.049099922180176,
        6.955399990081787
      ],
      "type": "VEC3",
      "bufferView": 0,
      "byteOffset": 0
    },
    {
      "name": "pCube14_1_0_normals",
      "componentType": 5126,
      "count": 9,
      "min": [
        0,
        1,
        0
      ],
      "max": [
        0,
        1,
        0
      ],
      "type": "VEC3",
      "bufferView": 1,
      "byteOffset": 0
    },
    {
      "name": "pCube14_1_0_texcoords",
      "componentType": 5126,
      "count": 9,
      "min": [
        -4.043099880218506,
        1.059499979019165
      ],
      "max": [
        3.125,
        3.013700008392334
      ],
      "type": "VEC2",
      "bufferView": 2,
      "byteOffset": 0
    },
    {
      "name": "pCube14_1_0_indices",
      "componentType": 5123,
      "count": 15,
      "min": [
        0
      ],
      "max": [
        8
      ],
      "type": "SCALAR",
      "bufferView": 3,
      "byteOffset": 0
    },
    {
      "name": "pCube14_1_1_positions",
      "componentType": 5126,
      "count": 22,
      "min": [
        -14.46150016784668,
        -5.6057000160217285,
        0.22169999778270721
      ],
      "max": [
        13.942899703979492,
        -2.2488999366760254,
        6.955399990081787
      ],
      "type": "VEC3",
      "bufferView": 0,
      "byteOffset": 108
    },
    {
      "name": "pCube14_1_1_normals",
      "componentType": 5126,
      "count": 22,
      "min": [
        0,
        -1,
        0
      ],
      "max": [
        0,
        1,
        1
      ],
      "type": "VEC3",
      "bufferView": 1,
      "byteOffset": 108
    },
    {
      "name": "pCube14_1_1_texcoords",
      "componentType": 5126,
      "count": 22,
      "min": [
        -2.972100019454956,
        -2.985300064086914
      ],
      "max": [
        4.144199848175049,
        1.7927000522613525
      ],
      "type": "VEC2",
      "bufferView": 2,
      "byteOffset": 72
    },
    {
      "name": "pCube14_1_1_indices",
      "componentType": 5123,
      "count": 36,
      "min": [
        0
      ],
      "max": [
        21
      ],
      "type": "SCALAR",
      "bufferView": 3,
      "byteOffset": 32
    },
    {
      "name": "pCube14_1_2_positions",
      "componentType": 5126,
      "count": 34,
      "min": [
        -13.942899703979492,
        -5.6057000160217285,
        0.22169999778270721
      ],
      "max": [
        13.942899703979492,
        6.049099922180176,
        6.955399990081787
      ],
      "type": "VEC3",
      "bufferView": 0,
      "byteOffset": 372
    },
    {
      "name": "pCube14_1_2_normals",
      "componentType": 5126,
      "count": 34,
      "min": [
        -1,
        0,
        0
      ],
      "max": [
        1,
        0,
        0
      ],
      "type": "VEC3",
      "bufferView": 1,
      "byteOffset": 372
    },
    {
      "name": "pCube14_1_2_texcoords",
      "componentType": 5126,
      "count": 34,
      "min": [
        -0.5512999892234802,
        0.0722000002861023
      ],
      "max": [
        6.855899810791016,
        4.677299976348877
      ],
      "type": "VEC2",
      "bufferView": 2,
      "byteOffset": 248
    },
    {
      "name": "pCube14_1_2_indices",
      "componentType": 5123,
      "count": 54,
      "min": [
        0
      ],
      "max": [
        33
      ],
      "type": "SCALAR",
      "bufferView": 3,
      "byteOffset": 104
    },
    {
      "name": "pCube14_1_3_positions",
      "componentType": 5126,
      "count": 16,
      "min": [
        -14.118900299072266,
        -5.776100158691406,
        6.955399990081787
      ],
      "max": [
        14.118900299072266,
        6.2195000648498535,
        6.958000183105469
      ],
      "type": "VEC3",
      "bufferView": 0,
      "byteOffset": 780
    },
    {
      "name": "pCube14_1_3_normals",
      "componentType": 5126,
      "count": 16,
      "min": [
        -0.014299968257546425,
        -0.014799859374761581,
        -0.9999378323554993
      ],
      "max": [
        0.014299968257546425,
        0.014799859374761581,
        -0.9998904466629028
      ],
      "type": "VEC3",
      "bufferView": 1,
      "byteOffset": 780
    },
    {
      "name": "pCube14_1_3_texcoords",
      "componentType": 5126,
      "count": 16,
      "min": [
        0.7085000276565552,
        0.032999999821186066
      ],
      "max": [
        0.9955000281333923,
        0.3346000015735626
      ],
      "type": "VEC2",
      "bufferView": 2,
      "byteOffset": 520
    },
    {
      "name": "pCube14_1_3_indices",
      "componentType": 5123,
      "count": 48,
      "min": [
        0
      ],
      "max": [
        15
      ],
      "type": "SCALAR",
      "bufferView": 3,
      "byteOffset": 212
    },
    {
      "name": "pCube14_1_4_positions",
      "componentType": 5126,
      "count": 89,
      "min": [
        -15.15429973602295,
        -5.776100158691406,
        0.24320000410079956
      ],
      "max": [
        14.118900299072266,
        6.2195000648498535,
        7.179500102996826
      ],
      "type": "VEC3",
      "bufferView": 0,
      "byteOffset": 972
    },
    {
      "name": "pCube14_1_4_normals",
      "componentType": 5126,
      "count": 89,
      "min": [
        -1,
        -1,
        -1
      ],
      "max": [
        1,
        1,
        1
      ],
      "type": "VEC3",
      "bufferView": 1,
      "byteOffset": 972
    },
    {
      "name": "pCube14_1_4_texcoords",
      "componentType": 5126,
      "count": 89,
      "min": [
        0,
        0
      ],
      "max": [
        0.9973000288009644,
        1.0555000305175781
      ],
      "type": "VEC2",
      "bufferView": 2,
      "byteOffset": 648
    },
    {
      "name": "pCube14_1_4_indices",
      "componentType": 5123,
      "count": 150,
      "min": [
        0
      ],
      "max": [
        88
      ],
      "type": "SCALAR",
      "bufferView": 3,
      "byteOffset": 308
    },
    {
      "name": "pCube14_1_5_positions",
      "componentType": 5126,
      "count": 11,
      "min": [
        -13.942899703979492,
        -5.6057000160217285,
        0.9569000005722046
      ],
      "max": [
        13.942899703979492,
        3.2852001190185547,
        6.955399990081787
      ],
      "type": "VEC3",
      "bufferView": 0,
      "byteOffset": 2040
    },
    {
      "name": "pCube14_1_5_normals",
      "componentType": 5126,
      "count": 11,
      "min": [
        -1,
        0,
        0
      ],
      "max": [
        1,
        0,
        0
      ],
      "type": "VEC3",
      "bufferView": 1,
      "byteOffset": 2040
    },
    {
      "name": "pCube14_1_5_texcoords",
      "componentType": 5126,
      "count": 11,
      "min": [
        -0.11559999734163284,
        0.0722000002861023
      ],
      "max": [
        6.855899810791016,
        4.186500072479248
      ],
      "type": "VEC2",
      "bufferView": 2,
      "byteOffset": 1360
    },
    {
      "name": "pCube14_1_5_indices",
      "componentType": 5123,
      "count": 21,
      "min": [
        0
      ],
      "max": [
        10
      ],
      "type": "SCALAR",
      "bufferView": 3,
      "byteOffset": 608
    },
    {
      "name": "pCube14_1_6_positions",
      "componentType": 5126,
      "count": 4,
      "min": [
        -13.086600303649902,
        -5.6057000160217285,
        0.22169999778270721
      ],
      "max": [
        12.423800468444824,
        -5.6057000160217285,
        6.955399990081787
      ],
      "type": "VEC3",
      "bufferView": 0,
      "byteOffset": 2172
    },
    {
      "name": "pCube14_1_6_normals",
      "componentType": 5126,
      "count": 4,
      "min": [
        0,
        -1,
        0
      ],
      "max": [
        0,
        -1,
        0
      ],
      "type": "VEC3",
      "bufferView": 1,
      "byteOffset": 2172
    },
    {
      "name": "pCube14_1_6_texcoords",
      "componentType": 5126,
      "count": 4,
      "min": [
        -2.753499984741211,
        -2.985300064086914
      ],
      "max": [
        3.756500005722046,
        -0.9293000102043152
      ],
      "type": "VEC2",
      "bufferView": 2,
      "byteOffset": 1448
    },
    {
      "name": "pCube14_1_6_indices",
      "componentType": 5123,
      "count": 6,
      "min": [
        0
      ],
      "max": [
        3
      ],
      "type": "SCALAR",
      "bufferView": 3,
      "byteOffset": 652
    },
    {
      "name": "pCube14_1_7_positions",
      "componentType": 5126,
      "count": 4,
      "min": [
        -12.744999885559082,
        6.049099922180176,
        0.22169999778270721
      ],
      "max": [
        12.965200424194336,
        6.049099922180176,
        6.955399990081787
      ],
      "type": "VEC3",
      "bufferView": 0,
      "byteOffset": 2220
    },
    {
      "name": "pCube14_1_7_normals",
      "componentType": 5126,
      "count": 4,
      "min": [
        0,
        1,
        0
      ],
      "max": [
        0,
        1,
        0
      ],
      "type": "VEC3",
      "bufferView": 1,
      "byteOffset": 2220
    },
    {
      "name": "pCube14_1_7_texcoords",
      "componentType": 5126,
      "count": 4,
      "min": [
        -3.791800022125244,
        1.059499979019165
      ],
      "max": [
        2.8171000480651855,
        3.013700008392334
      ],
      "type": "VEC2",
      "bufferView": 2,
      "byteOffset": 1480
    },
    {
      "name": "pCube14_1_7_indices",
      "componentType": 5123,
      "count": 6,
      "min": [
        0
      ],
      "max": [
        3
      ],
      "type": "SCALAR",
      "bufferView": 3,
      "byteOffset": 664
    },
    {
      "name": "pCube14_1_8_positions",
      "componentType": 5126,
      "count": 20,
      "min": [
        13.781800270080566,
        -0.22130000591278076,
        0.24889999628067017
      ],
      "max": [
        13.981100082397461,
        1.0029000043869019,
        2.419100046157837
      ],
      "type": "VEC3",
      "bufferView": 0,
      "byteOffset": 2268
    },
    {
      "name": "pCube14_1_8_normals",
      "componentType": 5126,
      "count": 20,
      "min": [
        0,
        -1,
        -1
      ],
      "max": [
        1,
        1,
        1
      ],
      "type": "VEC3",
      "bufferView": 1,
      "byteOffset": 2268
    },
    {
      "name": "pCube14_1_8_texcoords",
      "componentType": 5126,
      "count": 20,
      "min": [
        -1.1079000234603882,
        -2.000499963760376
      ],
      "max": [
        0.824400007724762,
        1
      ],
      "type": "VEC2",
      "bufferView": 2,
      "byteOffset": 1512
    },
    {
      "name": "pCube14_1_8_indices",
      "componentType": 5123,
      "count": 30,
      "min": [
        0
      ],
      "max": [
        19
      ],
      "type": "SCALAR",
      "bufferView": 3,
      "byteOffset": 676
    },
    {
      "name": "pCube14_1_9_positions",
      "componentType": 5126,
      "count": 4,
      "min": [
        -10.6141996383667,
        -6.2195000648498535,
        2.272900104522705
      ],
      "max": [
        -9.36050033569336,
        -5.181000232696533,
        2.272900104522705
      ],
      "type": "VEC3",
      "bufferView": 0,
      "byteOffset": 2508
    },
    {
      "name": "pCube14_1_9_normals",
      "componentType": 5126,
      "count": 4,
      "min": [
        0,
        0,
        1
      ],
      "max": [
        0,
        0,
        1
      ],
      "type": "VEC3",
      "bufferView": 1,
      "byteOffset": 2508
    },
    {
      "name": "pCube14_1_9_texcoords",
      "componentType": 5126,
      "count": 4,
      "min": [
        0.375,
        0.5
      ],
      "max": [
        0.625,
        0.75
      ],
      "type": "VEC2",
      "bufferView": 2,
      "byteOffset": 1672
    },
    {
      "name": "pCube14_1_9_indices",
      "componentType": 5123,
      "count": 6,
      "min": [
        0
      ],
      "max": [
        3
      ],
      "type": "SCALAR",
      "bufferView": 3,
      "byteOffset": 736
    },
    {
      "name": "pCube14_1_10_positions",
      "componentType": 5126,
      "count": 24,
      "min": [
        -10.525799751281738,
        -5.71619987487793,
        0.25589999556541443
      ],
      "max": [
        -9.454899787902832,
        -4.15939998626709,
        1.965000033378601
      ],
      "type": "VEC3",
      "bufferView": 0,
      "byteOffset": 2556
    },
    {
      "name": "pCube14_1_10_normals",
      "componentType": 5126,
      "count": 24,
      "min": [
        -1,
        -1,
        -1
      ],
      "max": [
        1,
        1,
        1
      ],
      "type": "VEC3",
      "bufferView": 1,
      "byteOffset": 2556
    },
    {
      "name": "pCube14_1_10_texcoords",
      "componentType": 5126,
      "count": 24,
      "min": [
        -1.1079000234603882,
        -2.000499963760376
      ],
      "max": [
        0.824400007724762,
        1
      ],
      "type": "VEC2",
      "bufferView": 2,
      "byteOffset": 1704
    },
    {
      "name": "pCube14_1_10_indices",
      "componentType": 5123,
      "count": 36,
      "min": [
        0
      ],
      "max": [
        23
      ],
      "type": "SCALAR",
      "bufferView": 3,
      "byteOffset": 748
    },
    {
      "name": "pCube14_1_11_positions",
      "componentType": 5126,
      "count": 204,
      "min": [
        -14.902400016784668,
        -2.7183001041412354,
        2.4374001026153564
      ],
      "max": [
        -13.886099815368652,
        -2.2390999794006348,
        2.6517999172210693
      ],
      "type": "VEC3",
      "bufferView": 0,
      "byteOffset": 2844
    },
    {
      "name": "pCube14_1_11_normals",
      "componentType": 5126,
      "count": 204,
      "min": [
        -1,
        -1,
        -1
      ],
      "max": [
        1,
        1,
        1
      ],
      "type": "VEC3",
      "bufferView": 1,
      "byteOffset": 2844
    },
    {
      "name": "pCube14_1_11_texcoords",
      "componentType": 5126,
      "count": 204,
      "min": [
        0.125,
        0.25
      ],
      "max": [
        0.625,
        1
      ],
      "type": "VEC2",
      "bufferView": 2,
      "byteOffset": 1896
    },
    {
      "name": "pCube14_1_11_indices",
      "componentType": 5123,
      "count": 324,
      "min": [
        0
      ],
      "max": [
        203
      ],
      "type": "SCALAR",
      "bufferView": 3,
      "byteOffset": 820
    },
    {
      "name": "pCube14_1_12_positions",
      "componentType": 5126,
      "count": 12,
      "min": [
        -15.24530029296875,
        -2.928999900817871,
        2.38919997215271
      ],
      "max": [
        -14.337800025939941,
        -1.9904999732971191,
        2.860599994659424
      ],
      "type": "VEC3",
      "bufferView": 0,
      "byteOffset": 5292
    },
    {
      "name": "pCube14_1_12_normals",
      "componentType": 5126,
      "count": 12,
      "min": [
        -0.7227262258529663,
        -0.707598090171814,
        0.6911250948905945
      ],
      "max": [
        0.7210941314697266,
        0.7123229503631592,
        0.7065981030464172
      ],
      "type": "VEC3",
      "bufferView": 1,
      "byteOffset": 5292
    },
    {
      "name": "pCube14_1_12_texcoords",
      "componentType": 5126,
      "count": 12,
      "min": [
        -0.8539000153541565,
        0.028200000524520874
      ],
      "max": [
        -0.3118000030517578,
        0.6283000111579895
      ],
      "type": "VEC2",
      "bufferView": 2,
      "byteOffset": 3528
    },
    {
      "name": "pCube14_1_12_indices",
      "componentType": 5123,
      "count": 12,
      "min": [
        0
      ],
      "max": [
        11
      ],
      "type": "SCALAR",
      "bufferView": 3,
      "byteOffset": 1468
    }
  ],
  "asset": {
    "generator": "obj2gltf",
    "version": "2.0"
  },
  "buffers": [
    {
      "name": "max",
      "byteLength": 15988,
      "uri": "data:application/octet-stream;base64,"
    }
  ],
  "bufferViews": [
    {
      "name": "bufferView_0",
      "buffer": 0,
      "byteLength": 5436,
      "byteOffset": 0,
      "byteStride": 12,
      "target": 34962
    },
    {
      "name": "bufferView_1",
      "buffer": 0,
      "byteLength": 5436,
      "byteOffset": 5436,
      "byteStride": 12,
      "target": 34962
    },
    {
      "name": "bufferView_2",
      "buffer": 0,
      "byteLength": 3624,
      "byteOffset": 10872,
      "byteStride": 8,
      "target": 34962
    },
    {
      "name": "bufferView_3",
      "buffer": 0,
      "byteLength": 1492,
      "byteOffset": 14496,
      "target": 34963
    }
  ],
  "images": [
    {
      "name": "hw_007",
      "uri": "hw_007.jpg"
    },
    {
      "name": "hw_006",
      "uri": "hw_006.jpg"
    },
    {
      "name": "hw_001",
      "uri": "hw_001.jpg"
    },
    {
      "name": "hw_008",
      "uri": "hw_008.jpg"
    },
    {
      "name": "hw_009",
      "uri": "hw_009.jpg"
    },
    {
      "name": "hw_003",
      "uri": "hw_003.jpg"
    },
    {
      "name": "hw_002",
      "uri": "hw_002.jpg"
    },
    {
      "name": "hw_005",
      "uri": "hw_005.jpg"
    },
    {
      "name": "hw_012",
      "uri": "hw_012.png"
    },
    {
      "name": "hw_004",
      "uri": "hw_004.jpg"
    },
    {
      "name": "hw_011",
      "uri": "hw_011.jpg"
    },
    {
      "name": "hw_010",
      "uri": "hw_010.jpg"
    }
  ],
  "materials": [
    {
      "name": "lambert10SG",
      "pbrMetallicRoughness": {
        "baseColorTexture": {
          "index": 0
        },
        "baseColorFactor": [
          1,
          1,
          1,
          1
        ],
        "metallicFactor": 0,
        "roughnessFactor": 0.97
      },
      "emissiveFactor": [
        0,
        0,
        0
      ],
      "alphaMode": "OPAQUE",
      "doubleSided": false
    },
    {
      "name": "lambert9SG",
      "pbrMetallicRoughness": {
        "baseColorTexture": {
          "index": 1
        },
        "baseColorFactor": [
          1,
          1,
          1,
          1
        ],
        "metallicFactor": 0,
        "roughnessFactor": 0.97
      },
      "emissiveFactor": [
        0,
        0,
        0
      ],
      "alphaMode": "OPAQUE",
      "doubleSided": false
    },
    {
      "name": "lambert5SG",
      "pbrMetallicRoughness": {
        "baseColorTexture": {
          "index": 2
        },
        "baseColorFactor": [
          1,
          1,
          1,
          1
        ],
        "metallicFactor": 0,
        "roughnessFactor": 0.97
      },
      "emissiveFactor": [
        0,
        0,
        0
      ],
      "alphaMode": "OPAQUE",
      "doubleSided": false
    },
    {
      "name": "initialShadingGroup",
      "pbrMetallicRoughness": {
        "baseColorFactor": [
          0.5,
          0.5,
          0.5,
          1
        ],
        "metallicFactor": 0,
        "roughnessFactor": 0.97
      },
      "emissiveFactor": [
        0,
        0,
        0
      ],
      "alphaMode": "OPAQUE",
      "doubleSided": false
    },
    {
      "name": "lambert4SG",
      "pbrMetallicRoughness": {
        "baseColorTexture": {
          "index": 3
        },
        "baseColorFactor": [
          1,
          1,
          1,
          1
        ],
        "metallicFactor": 0,
        "roughnessFactor": 0.97
      },
      "emissiveFactor": [
        0,
        0,
        0
      ],
      "alphaMode": "OPAQUE",
      "doubleSided": false
    },
    {
      "name": "lambert3SG",
      "pbrMetallicRoughness": {
        "baseColorTexture": {
          "index": 4
        },
        "baseColorFactor": [
          1,
          1,
          1,
          1
        ],
        "metallicFactor": 0,
        "roughnessFactor": 0.97
      },
      "emissiveFactor": [
        0,
        0,
        0
      ],
      "alphaMode": "OPAQUE",
      "doubleSided": false
    },
    {
      "name": "lambert2SG",
      "pbrMetallicRoughness": {
        "baseColorTexture": {
          "index": 5
        },
        "baseColorFactor": [
          1,
          1,
          1,
          1
        ],
        "metallicFactor": 0,
        "roughnessFactor": 0.97
      },
      "emissiveFactor": [
        0,
        0,
        0
      ],
      "alphaMode": "OPAQUE",
      "doubleSided": false
    },
    {
      "name": "lambert6SG",
      "pbrMetallicRoughness": {
        "baseColorTexture": {
          "index": 6
        },
        "baseColorFactor": [
          1,
          1,
          1,
          1
        ],
        "metallicFactor": 0,
        "roughnessFactor": 0.97
      },
      "emissiveFactor": [
        0,
        0,
        0
      ],
      "alphaMode": "OPAQUE",
      "doubleSided": false
    },
    {
      "name": "lambert8SG",
      "pbrMetallicRoughness": {
        "baseColorTexture": {
          "index": 7
        },
        "baseColorFactor": [
          1,
          1,
          1,
          1
        ],
        "metallicFactor": 0,
        "roughnessFactor": 0.97
      },
      "emissiveFactor": [
        0,
        0,
        0
      ],
      "alphaMode": "OPAQUE",
      "doubleSided": false
    },
    {
      "name": "Material__51",
      "pbrMetallicRoughness": {
        "baseColorTexture": {
          "index": 8
        },
        "baseColorFactor": [
          1,
          1,
          1,
          1
        ],
        "metallicFactor": 0,
        "roughnessFactor": 0.99
      },
      "emissiveFactor": [
        0,
        0,
        0
      ],
      "alphaMode": "BLEND",
      "doubleSided": true
    },
    {
      "name": "lambert7SG",
      "pbrMetallicRoughness": {
        "baseColorTexture": {
          "index": 9
        },
        "baseColorFactor": [
          1,
          1,
          1,
          1
        ],
        "metallicFactor": 0,
        "roughnessFactor": 0.97
      },
      "emissiveFactor": [
        0,
        0,
        0
      ],
      "alphaMode": "OPAQUE",
      "doubleSided": false
    },
    {
      "name": "lambert12SG",
      "pbrMetallicRoughness": {
        "baseColorTexture": {
          "index": 10
        },
        "baseColorFactor": [
          1,
          1,
          1,
          1
        ],
        "metallicFactor": 0,
        "roughnessFactor": 0.97
      },
      "emissiveFactor": [
        0,
        0,
        0
      ],
      "alphaMode": "OPAQUE",
      "doubleSided": false
    },
    {
      "name": "lambert11SG",
      "pbrMetallicRoughness": {
        "baseColorTexture": {
          "index": 11
        },
        "baseColorFactor": [
          1,
          1,
          1,
          1
        ],
        "metallicFactor": 0,
        "roughnessFactor": 0.97
      },
      "emissiveFactor": [
        0,
        0,
        0
      ],
      "alphaMode": "OPAQUE",
      "doubleSided": false
    }
  ],
  "meshes": [
    {
      "name": "pCube14_1",
      "primitives": [
        {
          "attributes": {
            "POSITION": 0,
            "NORMAL": 1,
            "TEXCOORD_0": 2
          },
          "indices": 3,
          "material": 0,
          "mode": 4
        },
        {
          "attributes": {
            "POSITION": 4,
            "NORMAL": 5,
            "TEXCOORD_0": 6
          },
          "indices": 7,
          "material": 1,
          "mode": 4
        },
        {
          "attributes": {
            "POSITION": 8,
            "NORMAL": 9,
            "TEXCOORD_0": 10
          },
          "indices": 11,
          "material": 2,
          "mode": 4
        },
        {
          "attributes": {
            "POSITION": 12,
            "NORMAL": 13,
            "TEXCOORD_0": 14
          },
          "indices": 15,
          "material": 3,
          "mode": 4
        },
        {
          "attributes": {
            "POSITION": 16,
            "NORMAL": 17,
            "TEXCOORD_0": 18
          },
          "indices": 19,
          "material": 4,
          "mode": 4
        },
        {
          "attributes": {
            "POSITION": 20,
            "NORMAL": 21,
            "TEXCOORD_0": 22
          },
          "indices": 23,
          "material": 5,
          "mode": 4
        },
        {
          "attributes": {
            "POSITION": 24,
            "NORMAL": 25,
            "TEXCOORD_0": 26
          },
          "indices": 27,
          "material": 6,
          "mode": 4
        },
        {
          "attributes": {
            "POSITION": 28,
            "NORMAL": 29,
            "TEXCOORD_0": 30
          },
          "indices": 31,
          "material": 7,
          "mode": 4
        },
        {
          "attributes": {
            "POSITION": 32,
            "NORMAL": 33,
            "TEXCOORD_0": 34
          },
          "indices": 35,
          "material": 8,
          "mode": 4
        },
        {
          "attributes": {
            "POSITION": 36,
            "NORMAL": 37,
            "TEXCOORD_0": 38
          },
          "indices": 39,
          "material": 9,
          "mode": 4
        },
        {
          "attributes": {
            "POSITION": 40,
            "NORMAL": 41,
            "TEXCOORD_0": 42
          },
          "indices": 43,
          "material": 10,
          "mode": 4
        },
        {
          "attributes": {
            "POSITION": 44,
            "NORMAL": 45,
            "TEXCOORD_0": 46
          },
          "indices": 47,
          "material": 11,
          "mode": 4
        },
        {
          "attributes": {
            "POSITION": 48,
            "NORMAL": 49,
            "TEXCOORD_0": 50
          },
          "indices": 51,
          "material": 12,
          "mode": 4
        }
      ]
    }
  ],
  "nodes": [
    {
      "name": "pCube14",
      "mesh": 0
    }
  ],
  "samplers": [
    {
      "wrapS": 10497,
      "wrapT": 10497
    }
  ],
  "scene": 0,
  "scenes": [
    {
      "nodes": [
        0
      ]
    }
  ],
  "textures": [
    {
      "name": "hw_007",
      "sampler": 0,
      "source": 0
    },
    {
      "name": "hw_006",
      "sampler": 0,
      "source": 1
    },
    {
      "name": "hw_001",
      "sampler": 0,
      "source": 2
    },
    {
      "name": "hw_008",
      "sampler": 0,
      "source": 3
    },
    {
      "name": "hw_009",
      "sampler": 0,
      "source": 4
    },
    {
      "name": "hw_003",
      "sampler": 0,
      "source": 5
    },
    {
      "name": "hw_002",
      "sampler": 0,
      "source": 6
    },
    {
      "name": "hw_005",
      "sampler": 0,
      "source": 7
    },
    {
      "name": "hw_012",
      "sampler": 0,
      "source": 8
    },
    {
      "name": "hw_004",
      "sampler": 0,
      "source": 9
    },
    {
      "name": "hw_011",
      "sampler": 0,
      "source": 10
    },
    {
      "name": "hw_010",
      "sampler": 0,
      "source": 11
    }
  ]
}
