{"asset":{"version":"2.0","generator":"babylon.js glTF exporter for 3dsmax 2022 v20240125.3"},"scene":0,"scenes":[{"nodes":[0]}],"nodes":[{"mesh":0,"name":"Box001"}],"meshes":[{"primitives":[{"attributes":{"POSITION":1,"NORMAL":2,"COLOR_0":3,"TEXCOORD_0":4},"indices":0,"material":0},{"attributes":{"POSITION":6,"NORMAL":7,"COLOR_0":8,"TEXCOORD_0":9},"indices":5,"material":1},{"attributes":{"POSITION":11,"NORMAL":12,"COLOR_0":13,"TEXCOORD_0":14},"indices":10,"material":2},{"attributes":{"POSITION":16,"NORMAL":17,"COLOR_0":18,"TEXCOORD_0":19},"indices":15,"material":3},{"attributes":{"POSITION":21,"NORMAL":22,"COLOR_0":23,"TEXCOORD_0":24},"indices":20,"material":4},{"attributes":{"POSITION":26,"NORMAL":27,"COLOR_0":28,"TEXCOORD_0":29},"indices":25,"material":5},{"attributes":{"POSITION":31,"NORMAL":32,"COLOR_0":33,"TEXCOORD_0":34},"indices":30,"material":6},{"attributes":{"POSITION":36,"NORMAL":37,"COLOR_0":38,"TEXCOORD_0":39},"indices":35,"material":7},{"attributes":{"POSITION":41,"NORMAL":42,"COLOR_0":43,"TEXCOORD_0":44},"indices":40,"material":8},{"attributes":{"POSITION":46,"NORMAL":47,"COLOR_0":48,"TEXCOORD_0":49},"indices":45,"material":9},{"attributes":{"POSITION":51,"NORMAL":52,"COLOR_0":53,"TEXCOORD_0":54},"indices":50,"material":10},{"attributes":{"POSITION":56,"NORMAL":57,"COLOR_0":58,"TEXCOORD_0":59},"indices":55,"material":11},{"attributes":{"POSITION":61,"NORMAL":62,"COLOR_0":63,"TEXCOORD_0":64},"indices":60,"material":12},{"attributes":{"POSITION":66,"NORMAL":67,"COLOR_0":68,"TEXCOORD_0":69},"indices":65,"material":13},{"attributes":{"POSITION":71,"NORMAL":72,"COLOR_0":73,"TEXCOORD_0":74},"indices":70,"material":14},{"attributes":{"POSITION":76,"NORMAL":77,"COLOR_0":78,"TEXCOORD_0":79},"indices":75,"material":15},{"attributes":{"POSITION":81,"NORMAL":82,"COLOR_0":83,"TEXCOORD_0":84},"indices":80,"material":16},{"attributes":{"POSITION":86,"NORMAL":87,"COLOR_0":88,"TEXCOORD_0":89},"indices":85,"material":17},{"attributes":{"POSITION":91,"NORMAL":92,"COLOR_0":93,"TEXCOORD_0":94},"indices":90,"material":18},{"attributes":{"POSITION":96,"NORMAL":97,"COLOR_0":98,"TEXCOORD_0":99},"indices":95,"material":19},{"attributes":{"POSITION":101,"NORMAL":102,"COLOR_0":103,"TEXCOORD_0":104},"indices":100,"material":20},{"attributes":{"POSITION":106,"NORMAL":107,"COLOR_0":108,"TEXCOORD_0":109},"indices":105,"material":21},{"attributes":{"POSITION":111,"NORMAL":112,"COLOR_0":113,"TEXCOORD_0":114},"indices":110,"material":22},{"attributes":{"POSITION":116,"NORMAL":117,"COLOR_0":118,"TEXCOORD_0":119},"indices":115,"material":23},{"attributes":{"POSITION":121,"NORMAL":122,"COLOR_0":123,"TEXCOORD_0":124},"indices":120,"material":24},{"attributes":{"POSITION":126,"NORMAL":127,"COLOR_0":128,"TEXCOORD_0":129},"indices":125,"material":25},{"attributes":{"POSITION":131,"NORMAL":132,"COLOR_0":133,"TEXCOORD_0":134},"indices":130,"material":26},{"attributes":{"POSITION":136,"NORMAL":137,"COLOR_0":138,"TEXCOORD_0":139},"indices":135,"material":27},{"attributes":{"POSITION":141,"NORMAL":142,"COLOR_0":143,"TEXCOORD_0":144},"indices":140,"material":28},{"attributes":{"POSITION":146,"NORMAL":147,"COLOR_0":148,"TEXCOORD_0":149},"indices":145,"material":29},{"attributes":{"POSITION":151,"NORMAL":152,"COLOR_0":153,"TEXCOORD_0":154},"indices":150,"material":30},{"attributes":{"POSITION":156,"NORMAL":157,"COLOR_0":158,"TEXCOORD_0":159},"indices":155,"material":31},{"attributes":{"POSITION":161,"NORMAL":162,"COLOR_0":163,"TEXCOORD_0":164},"indices":160,"material":32},{"attributes":{"POSITION":166,"NORMAL":167,"COLOR_0":168,"TEXCOORD_0":169},"indices":165,"material":33},{"attributes":{"POSITION":171,"NORMAL":172,"COLOR_0":173,"TEXCOORD_0":174},"indices":170,"material":34},{"attributes":{"POSITION":176,"NORMAL":177,"COLOR_0":178,"TEXCOORD_0":179},"indices":175,"material":35},{"attributes":{"POSITION":181,"NORMAL":182,"COLOR_0":183,"TEXCOORD_0":184},"indices":180,"material":36}],"name":"Box001"}],"accessors":[{"bufferView":0,"componentType":5123,"count":306,"type":"SCALAR","name":"accessorIndices"},{"bufferView":1,"componentType":5126,"count":169,"max":[16.1518745,81.367836,33.9670525],"min":[-49.8697853,-75.53642,8.289705],"type":"VEC3","name":"accessorPositions"},{"bufferView":1,"byteOffset":2028,"componentType":5126,"count":169,"type":"VEC3","name":"accessorNormals"},{"bufferView":2,"componentType":5126,"count":169,"type":"VEC4","name":"accessorColors"},{"bufferView":3,"componentType":5126,"count":169,"type":"VEC2","name":"accessorUVs"},{"bufferView":0,"byteOffset":612,"componentType":5123,"count":132,"type":"SCALAR","name":"accessorIndices"},{"bufferView":1,"byteOffset":4056,"componentType":5126,"count":88,"max":[16.1518745,81.367836,15.1139088],"min":[-49.8697853,-81.54629,2.67905521],"type":"VEC3","name":"accessorPositions"},{"bufferView":1,"byteOffset":5112,"componentType":5126,"count":88,"type":"VEC3","name":"accessorNormals"},{"bufferView":2,"byteOffset":2704,"componentType":5126,"count":88,"type":"VEC4","name":"accessorColors"},{"bufferView":3,"byteOffset":1352,"componentType":5126,"count":88,"type":"VEC2","name":"accessorUVs"},{"bufferView":0,"byteOffset":876,"componentType":5123,"count":165,"type":"SCALAR","name":"accessorIndices"},{"bufferView":1,"byteOffset":6168,"componentType":5126,"count":64,"max":[16.1518745,81.367836,20.7895412],"min":[-49.8697853,-45.95756,8.289708],"type":"VEC3","name":"accessorPositions"},{"bufferView":1,"byteOffset":6936,"componentType":5126,"count":64,"type":"VEC3","name":"accessorNormals"},{"bufferView":2,"byteOffset":4112,"componentType":5126,"count":64,"type":"VEC4","name":"accessorColors"},{"bufferView":3,"byteOffset":2056,"componentType":5126,"count":64,"type":"VEC2","name":"accessorUVs"},{"bufferView":0,"byteOffset":1208,"componentType":5123,"count":6,"type":"SCALAR","name":"accessorIndices"},{"bufferView":1,"byteOffset":7704,"componentType":5126,"count":4,"max":[16.1518745,81.367836,8.289729],"min":[-14.32876,81.367836,2.67908216],"type":"VEC3","name":"accessorPositions"},{"bufferView":1,"byteOffset":7752,"componentType":5126,"count":4,"type":"VEC3","name":"accessorNormals"},{"bufferView":2,"byteOffset":5136,"componentType":5126,"count":4,"type":"VEC4","name":"accessorColors"},{"bufferView":3,"byteOffset":2568,"componentType":5126,"count":4,"type":"VEC2","name":"accessorUVs"},{"bufferView":0,"byteOffset":1220,"componentType":5123,"count":18,"type":"SCALAR","name":"accessorIndices"},{"bufferView":1,"byteOffset":7800,"componentType":5126,"count":12,"max":[-46.43589,42.96987,8.289722],"min":[-46.65051,-55.3278656,2.67906],"type":"VEC3","name":"accessorPositions"},{"bufferView":1,"byteOffset":7944,"componentType":5126,"count":12,"type":"VEC3","name":"accessorNormals"},{"bufferView":2,"byteOffset":5200,"componentType":5126,"count":12,"type":"VEC4","name":"accessorColors"},{"bufferView":3,"byteOffset":2600,"componentType":5126,"count":12,"type":"VEC2","name":"accessorUVs"},{"bufferView":0,"byteOffset":1256,"componentType":5123,"count":6,"type":"SCALAR","name":"accessorIndices"},{"bufferView":1,"byteOffset":8088,"componentType":5126,"count":4,"max":[16.1518745,63.2124023,8.289726],"min":[16.1518745,52.3539963,2.67907763],"type":"VEC3","name":"accessorPositions"},{"bufferView":1,"byteOffset":8136,"componentType":5126,"count":4,"type":"VEC3","name":"accessorNormals"},{"bufferView":2,"byteOffset":5392,"componentType":5126,"count":4,"type":"VEC4","name":"accessorColors"},{"bufferView":3,"byteOffset":2696,"componentType":5126,"count":4,"type":"VEC2","name":"accessorUVs"},{"bufferView":0,"byteOffset":1268,"componentType":5123,"count":60,"type":"SCALAR","name":"accessorIndices"},{"bufferView":1,"byteOffset":8184,"componentType":5126,"count":28,"max":[-39.5804062,-64.69818,28.4953213],"min":[-49.8697853,-75.53642,2.67905664],"type":"VEC3","name":"accessorPositions"},{"bufferView":1,"byteOffset":8520,"componentType":5126,"count":28,"type":"VEC3","name":"accessorNormals"},{"bufferView":2,"byteOffset":5456,"componentType":5126,"count":28,"type":"VEC4","name":"accessorColors"},{"bufferView":3,"byteOffset":2728,"componentType":5126,"count":28,"type":"VEC2","name":"accessorUVs"},{"bufferView":0,"byteOffset":1388,"componentType":5123,"count":24,"type":"SCALAR","name":"accessorIndices"},{"bufferView":1,"byteOffset":8856,"componentType":5126,"count":16,"max":[-39.5804062,-64.69818,33.9670525],"min":[-49.8697853,-75.53642,28.49532],"type":"VEC3","name":"accessorPositions"},{"bufferView":1,"byteOffset":9048,"componentType":5126,"count":16,"type":"VEC3","name":"accessorNormals"},{"bufferView":2,"byteOffset":5904,"componentType":5126,"count":16,"type":"VEC4","name":"accessorColors"},{"bufferView":3,"byteOffset":2952,"componentType":5126,"count":16,"type":"VEC2","name":"accessorUVs"},{"bufferView":0,"byteOffset":1436,"componentType":5123,"count":27,"type":"SCALAR","name":"accessorIndices"},{"bufferView":1,"byteOffset":9240,"componentType":5126,"count":11,"max":[-35.3165131,-75.5364151,24.1538],"min":[-39.5804062,-75.53642,2.67905641],"type":"VEC3","name":"accessorPositions"},{"bufferView":1,"byteOffset":9372,"componentType":5126,"count":11,"type":"VEC3","name":"accessorNormals"},{"bufferView":2,"byteOffset":6160,"componentType":5126,"count":11,"type":"VEC4","name":"accessorColors"},{"bufferView":3,"byteOffset":3080,"componentType":5126,"count":11,"type":"VEC2","name":"accessorUVs"},{"bufferView":0,"byteOffset":1492,"componentType":5123,"count":45,"type":"SCALAR","name":"accessorIndices"},{"bufferView":1,"byteOffset":9504,"componentType":5126,"count":23,"max":[7.995493,-75.5364151,24.1538],"min":[-35.31926,-75.53642,2.67905641],"type":"VEC3","name":"accessorPositions"},{"bufferView":1,"byteOffset":9780,"componentType":5126,"count":23,"type":"VEC3","name":"accessorNormals"},{"bufferView":2,"byteOffset":6336,"componentType":5126,"count":23,"type":"VEC4","name":"accessorColors"},{"bufferView":3,"byteOffset":3168,"componentType":5126,"count":23,"type":"VEC2","name":"accessorUVs"},{"bufferView":0,"byteOffset":1584,"componentType":5123,"count":24,"type":"SCALAR","name":"accessorIndices"},{"bufferView":1,"byteOffset":10056,"componentType":5126,"count":10,"max":[16.1518745,-75.5364151,24.1538],"min":[7.99097443,-75.53642,8.289705],"type":"VEC3","name":"accessorPositions"},{"bufferView":1,"byteOffset":10176,"componentType":5126,"count":10,"type":"VEC3","name":"accessorNormals"},{"bufferView":2,"byteOffset":6704,"componentType":5126,"count":10,"type":"VEC4","name":"accessorColors"},{"bufferView":3,"byteOffset":3352,"componentType":5126,"count":10,"type":"VEC2","name":"accessorUVs"},{"bufferView":0,"byteOffset":1632,"componentType":5123,"count":6,"type":"SCALAR","name":"accessorIndices"},{"bufferView":1,"byteOffset":10296,"componentType":5126,"count":4,"max":[-9.488805,-81.54629,8.289705],"min":[-18.4059677,-81.54629,2.67905521],"type":"VEC3","name":"accessorPositions"},{"bufferView":1,"byteOffset":10344,"componentType":5126,"count":4,"type":"VEC3","name":"accessorNormals"},{"bufferView":2,"byteOffset":6864,"componentType":5126,"count":4,"type":"VEC4","name":"accessorColors"},{"bufferView":3,"byteOffset":3432,"componentType":5126,"count":4,"type":"VEC2","name":"accessorUVs"},{"bufferView":0,"byteOffset":1644,"componentType":5123,"count":120,"type":"SCALAR","name":"accessorIndices"},{"bufferView":1,"byteOffset":10392,"componentType":5126,"count":49,"max":[17.7615128,-45.9575539,24.1537971],"min":[-49.8697853,-75.53642,8.289705],"type":"VEC3","name":"accessorPositions"},{"bufferView":1,"byteOffset":10980,"componentType":5126,"count":49,"type":"VEC3","name":"accessorNormals"},{"bufferView":2,"byteOffset":6928,"componentType":5126,"count":49,"type":"VEC4","name":"accessorColors"},{"bufferView":3,"byteOffset":3464,"componentType":5126,"count":49,"type":"VEC2","name":"accessorUVs"},{"bufferView":0,"byteOffset":1884,"componentType":5123,"count":12,"type":"SCALAR","name":"accessorIndices"},{"bufferView":1,"byteOffset":11568,"componentType":5126,"count":6,"max":[17.7615128,-55.3278732,22.57213],"min":[17.7615128,-64.69818,15.1138849],"type":"VEC3","name":"accessorPositions"},{"bufferView":1,"byteOffset":11640,"componentType":5126,"count":6,"type":"VEC3","name":"accessorNormals"},{"bufferView":2,"byteOffset":7712,"componentType":5126,"count":6,"type":"VEC4","name":"accessorColors"},{"bufferView":3,"byteOffset":3856,"componentType":5126,"count":6,"type":"VEC2","name":"accessorUVs"},{"bufferView":0,"byteOffset":1908,"componentType":5123,"count":6,"type":"SCALAR","name":"accessorIndices"},{"bufferView":1,"byteOffset":11712,"componentType":5126,"count":4,"max":[-9.488805,-75.5364151,8.289706],"min":[-18.4059677,-81.54629,8.289705],"type":"VEC3","name":"accessorPositions"},{"bufferView":1,"byteOffset":11760,"componentType":5126,"count":4,"type":"VEC3","name":"accessorNormals"},{"bufferView":2,"byteOffset":7808,"componentType":5126,"count":4,"type":"VEC4","name":"accessorColors"},{"bufferView":3,"byteOffset":3904,"componentType":5126,"count":4,"type":"VEC2","name":"accessorUVs"},{"bufferView":0,"byteOffset":1920,"componentType":5123,"count":12,"type":"SCALAR","name":"accessorIndices"},{"bufferView":1,"byteOffset":11808,"componentType":5126,"count":8,"max":[-14.3287582,81.367836,8.289729],"min":[-49.8697853,72.03193,8.289727],"type":"VEC3","name":"accessorPositions"},{"bufferView":1,"byteOffset":11904,"componentType":5126,"count":8,"type":"VEC3","name":"accessorNormals"},{"bufferView":2,"byteOffset":7872,"componentType":5126,"count":8,"type":"VEC4","name":"accessorColors"},{"bufferView":3,"byteOffset":3936,"componentType":5126,"count":8,"type":"VEC2","name":"accessorUVs"},{"bufferView":0,"byteOffset":1944,"componentType":5123,"count":6,"type":"SCALAR","name":"accessorIndices"},{"bufferView":1,"byteOffset":12000,"componentType":5126,"count":4,"max":[-14.3287582,77.07546,8.289728],"min":[-28.7005749,77.07546,2.67908144],"type":"VEC3","name":"accessorPositions"},{"bufferView":1,"byteOffset":12048,"componentType":5126,"count":4,"type":"VEC3","name":"accessorNormals"},{"bufferView":2,"byteOffset":8000,"componentType":5126,"count":4,"type":"VEC4","name":"accessorColors"},{"bufferView":3,"byteOffset":4000,"componentType":5126,"count":4,"type":"VEC2","name":"accessorUVs"},{"bufferView":0,"byteOffset":1956,"componentType":5123,"count":5814,"type":"SCALAR","name":"accessorIndices"},{"bufferView":1,"byteOffset":12096,"componentType":5126,"count":1986,"max":[13.1288052,81.76904,22.2703476],"min":[-50.2473755,-75.9544754,8.975271],"type":"VEC3","name":"accessorPositions"},{"bufferView":1,"byteOffset":35928,"componentType":5126,"count":1986,"type":"VEC3","name":"accessorNormals"},{"bufferView":2,"byteOffset":8064,"componentType":5126,"count":1986,"type":"VEC4","name":"accessorColors"},{"bufferView":3,"byteOffset":4032,"componentType":5126,"count":1986,"type":"VEC2","name":"accessorUVs"},{"bufferView":0,"byteOffset":13584,"componentType":5123,"count":27,"type":"SCALAR","name":"accessorIndices"},{"bufferView":1,"byteOffset":59760,"componentType":5126,"count":17,"max":[-14.3287582,81.367836,15.1139116],"min":[-29.89537,77.07546,2.67908144],"type":"VEC3","name":"accessorPositions"},{"bufferView":1,"byteOffset":59964,"componentType":5126,"count":17,"type":"VEC3","name":"accessorNormals"},{"bufferView":2,"byteOffset":39840,"componentType":5126,"count":17,"type":"VEC4","name":"accessorColors"},{"bufferView":3,"byteOffset":19920,"componentType":5126,"count":17,"type":"VEC2","name":"accessorUVs"},{"bufferView":0,"byteOffset":13640,"componentType":5123,"count":12,"type":"SCALAR","name":"accessorIndices"},{"bufferView":1,"byteOffset":60168,"componentType":5126,"count":6,"max":[16.1518745,81.367836,8.289729],"min":[16.1518745,63.2124023,2.67907929],"type":"VEC3","name":"accessorPositions"},{"bufferView":1,"byteOffset":60240,"componentType":5126,"count":6,"type":"VEC3","name":"accessorNormals"},{"bufferView":2,"byteOffset":40112,"componentType":5126,"count":6,"type":"VEC4","name":"accessorColors"},{"bufferView":3,"byteOffset":20056,"componentType":5126,"count":6,"type":"VEC2","name":"accessorUVs"},{"bufferView":0,"byteOffset":13664,"componentType":5123,"count":18,"type":"SCALAR","name":"accessorIndices"},{"bufferView":1,"byteOffset":60312,"componentType":5126,"count":10,"max":[16.1518745,52.3539963,8.289724],"min":[16.1518745,-45.9575539,2.67906141],"type":"VEC3","name":"accessorPositions"},{"bufferView":1,"byteOffset":60432,"componentType":5126,"count":10,"type":"VEC3","name":"accessorNormals"},{"bufferView":2,"byteOffset":40208,"componentType":5126,"count":10,"type":"VEC4","name":"accessorColors"},{"bufferView":3,"byteOffset":20104,"componentType":5126,"count":10,"type":"VEC2","name":"accessorUVs"},{"bufferView":0,"byteOffset":13700,"componentType":5123,"count":18,"type":"SCALAR","name":"accessorIndices"},{"bufferView":1,"byteOffset":60552,"componentType":5126,"count":12,"max":[16.1518745,43.1273422,8.289722],"min":[16.1518745,-64.69818,2.67905855],"type":"VEC3","name":"accessorPositions"},{"bufferView":1,"byteOffset":60696,"componentType":5126,"count":12,"type":"VEC3","name":"accessorNormals"},{"bufferView":2,"byteOffset":40368,"componentType":5126,"count":12,"type":"VEC4","name":"accessorColors"},{"bufferView":3,"byteOffset":20184,"componentType":5126,"count":12,"type":"VEC2","name":"accessorUVs"},{"bufferView":0,"byteOffset":13736,"componentType":5123,"count":12,"type":"SCALAR","name":"accessorIndices"},{"bufferView":1,"byteOffset":60840,"componentType":5126,"count":8,"max":[16.1518745,-15.8297462,8.289713],"min":[11.9668159,-26.8263988,2.67906475],"type":"VEC3","name":"accessorPositions"},{"bufferView":1,"byteOffset":60936,"componentType":5126,"count":8,"type":"VEC3","name":"accessorNormals"},{"bufferView":2,"byteOffset":40560,"componentType":5126,"count":8,"type":"VEC4","name":"accessorColors"},{"bufferView":3,"byteOffset":20280,"componentType":5126,"count":8,"type":"VEC2","name":"accessorUVs"},{"bufferView":0,"byteOffset":13760,"componentType":5123,"count":6,"type":"SCALAR","name":"accessorIndices"},{"bufferView":1,"byteOffset":61032,"componentType":5126,"count":4,"max":[16.1518745,14.2980633,8.289718],"min":[16.1518745,-15.8297491,2.67906642],"type":"VEC3","name":"accessorPositions"},{"bufferView":1,"byteOffset":61080,"componentType":5126,"count":4,"type":"VEC3","name":"accessorNormals"},{"bufferView":2,"byteOffset":40688,"componentType":5126,"count":4,"type":"VEC4","name":"accessorColors"},{"bufferView":3,"byteOffset":20344,"componentType":5126,"count":4,"type":"VEC2","name":"accessorUVs"},{"bufferView":0,"byteOffset":13772,"componentType":5123,"count":12,"type":"SCALAR","name":"accessorIndices"},{"bufferView":1,"byteOffset":61128,"componentType":5126,"count":8,"max":[16.1518745,-15.8297462,8.289713],"min":[11.9668159,-26.8263988,2.67906475],"type":"VEC3","name":"accessorPositions"},{"bufferView":1,"byteOffset":61224,"componentType":5126,"count":8,"type":"VEC3","name":"accessorNormals"},{"bufferView":2,"byteOffset":40752,"componentType":5126,"count":8,"type":"VEC4","name":"accessorColors"},{"bufferView":3,"byteOffset":20376,"componentType":5126,"count":8,"type":"VEC2","name":"accessorUVs"},{"bufferView":0,"byteOffset":13796,"componentType":5123,"count":6,"type":"SCALAR","name":"accessorIndices"},{"bufferView":1,"byteOffset":61320,"componentType":5126,"count":4,"max":[16.1518745,-52.7871056,8.289707],"min":[16.1518745,-57.86863,2.67905951],"type":"VEC3","name":"accessorPositions"},{"bufferView":1,"byteOffset":61368,"componentType":5126,"count":4,"type":"VEC3","name":"accessorNormals"},{"bufferView":2,"byteOffset":40880,"componentType":5126,"count":4,"type":"VEC4","name":"accessorColors"},{"bufferView":3,"byteOffset":20440,"componentType":5126,"count":4,"type":"VEC2","name":"accessorUVs"},{"bufferView":0,"byteOffset":13808,"componentType":5123,"count":6,"type":"SCALAR","name":"accessorIndices"},{"bufferView":1,"byteOffset":61416,"componentType":5126,"count":4,"max":[16.1518745,-26.8263969,8.289711],"min":[16.1518745,-36.3919754,2.679063],"type":"VEC3","name":"accessorPositions"},{"bufferView":1,"byteOffset":61464,"componentType":5126,"count":4,"type":"VEC3","name":"accessorNormals"},{"bufferView":2,"byteOffset":40944,"componentType":5126,"count":4,"type":"VEC4","name":"accessorColors"},{"bufferView":3,"byteOffset":20472,"componentType":5126,"count":4,"type":"VEC2","name":"accessorUVs"},{"bufferView":0,"byteOffset":13820,"componentType":5123,"count":12,"type":"SCALAR","name":"accessorIndices"},{"bufferView":1,"byteOffset":61512,"componentType":5126,"count":8,"max":[16.1518745,-45.95756,24.1537933],"min":[-39.5804062,-64.69818,18.6041031],"type":"VEC3","name":"accessorPositions"},{"bufferView":1,"byteOffset":61608,"componentType":5126,"count":8,"type":"VEC3","name":"accessorNormals"},{"bufferView":2,"byteOffset":41008,"componentType":5126,"count":8,"type":"VEC4","name":"accessorColors"},{"bufferView":3,"byteOffset":20504,"componentType":5126,"count":8,"type":"VEC2","name":"accessorUVs"},{"bufferView":0,"byteOffset":13844,"componentType":5123,"count":12,"type":"SCALAR","name":"accessorIndices"},{"bufferView":1,"byteOffset":61704,"componentType":5126,"count":6,"max":[15.1518745,64.78689,18.5873966],"min":[-48.8697853,-44.95756,18.58737],"type":"VEC3","name":"accessorPositions"},{"bufferView":1,"byteOffset":61776,"componentType":5126,"count":6,"type":"VEC3","name":"accessorNormals"},{"bufferView":2,"byteOffset":41136,"componentType":5126,"count":6,"type":"VEC4","name":"accessorColors"},{"bufferView":3,"byteOffset":20568,"componentType":5126,"count":6,"type":"VEC2","name":"accessorUVs"},{"bufferView":0,"byteOffset":13868,"componentType":5123,"count":18,"type":"SCALAR","name":"accessorIndices"},{"bufferView":1,"byteOffset":61848,"componentType":5126,"count":10,"max":[15.0666122,-47.0428238,33.17042],"min":[-49.19523,-74.86186,22.9889565],"type":"VEC3","name":"accessorPositions"},{"bufferView":1,"byteOffset":61968,"componentType":5126,"count":10,"type":"VEC3","name":"accessorNormals"},{"bufferView":2,"byteOffset":41232,"componentType":5126,"count":10,"type":"VEC4","name":"accessorColors"},{"bufferView":3,"byteOffset":20616,"componentType":5126,"count":10,"type":"VEC2","name":"accessorUVs"},{"bufferView":0,"byteOffset":13904,"componentType":5123,"count":84,"type":"SCALAR","name":"accessorIndices"},{"bufferView":1,"byteOffset":62088,"componentType":5126,"count":56,"max":[14.4119816,46.5592461,25.9896374],"min":[-48.8697853,-72.9929657,17.75744],"type":"VEC3","name":"accessorPositions"},{"bufferView":1,"byteOffset":62760,"componentType":5126,"count":56,"type":"VEC3","name":"accessorNormals"},{"bufferView":2,"byteOffset":41392,"componentType":5126,"count":56,"type":"VEC4","name":"accessorColors"},{"bufferView":3,"byteOffset":20696,"componentType":5126,"count":56,"type":"VEC2","name":"accessorUVs"},{"bufferView":0,"byteOffset":14072,"componentType":5123,"count":2781,"type":"SCALAR","name":"accessorIndices"},{"bufferView":1,"byteOffset":63432,"componentType":5126,"count":1542,"max":[50.2473755,81.36793,21.7228813],"min":[-44.8406143,-81.76904,2.679153],"type":"VEC3","name":"accessorPositions"},{"bufferView":1,"byteOffset":81936,"componentType":5126,"count":1542,"type":"VEC3","name":"accessorNormals"},{"bufferView":2,"byteOffset":42288,"componentType":5126,"count":1542,"type":"VEC4","name":"accessorColors"},{"bufferView":3,"byteOffset":21144,"componentType":5126,"count":1542,"type":"VEC2","name":"accessorUVs"},{"bufferView":0,"byteOffset":19636,"componentType":5123,"count":225,"type":"SCALAR","name":"accessorIndices"},{"bufferView":1,"byteOffset":100440,"componentType":5126,"count":135,"max":[36.3780975,68.63429,26.8894653],"min":[16.1857986,3.26053047,3.57446623],"type":"VEC3","name":"accessorPositions"},{"bufferView":1,"byteOffset":102060,"componentType":5126,"count":135,"type":"VEC3","name":"accessorNormals"},{"bufferView":2,"byteOffset":66960,"componentType":5126,"count":135,"type":"VEC4","name":"accessorColors"},{"bufferView":3,"byteOffset":33480,"componentType":5126,"count":135,"type":"VEC2","name":"accessorUVs"},{"bufferView":0,"byteOffset":20088,"componentType":5123,"count":30,"type":"SCALAR","name":"accessorIndices"},{"bufferView":1,"byteOffset":103680,"componentType":5126,"count":20,"max":[36.3780975,13.1925774,26.8894653],"min":[31.6335526,3.26053047,1.20175275E-06],"type":"VEC3","name":"accessorPositions"},{"bufferView":1,"byteOffset":103920,"componentType":5126,"count":20,"type":"VEC3","name":"accessorNormals"},{"bufferView":2,"byteOffset":69120,"componentType":5126,"count":20,"type":"VEC4","name":"accessorColors"},{"bufferView":3,"byteOffset":34560,"componentType":5126,"count":20,"type":"VEC2","name":"accessorUVs"},{"bufferView":0,"byteOffset":20148,"componentType":5123,"count":2016,"type":"SCALAR","name":"accessorIndices"},{"bufferView":1,"byteOffset":104160,"componentType":5126,"count":1344,"max":[50.0691376,72.50447,19.4744167],"min":[-35.0658836,-81.4074,2.67913318],"type":"VEC3","name":"accessorPositions"},{"bufferView":1,"byteOffset":120288,"componentType":5126,"count":1344,"type":"VEC3","name":"accessorNormals"},{"bufferView":2,"byteOffset":69440,"componentType":5126,"count":1344,"type":"VEC4","name":"accessorColors"},{"bufferView":3,"byteOffset":34720,"componentType":5126,"count":1344,"type":"VEC2","name":"accessorUVs"},{"bufferView":0,"byteOffset":24180,"componentType":5123,"count":312,"type":"SCALAR","name":"accessorIndices"},{"bufferView":1,"byteOffset":136416,"componentType":5126,"count":208,"max":[14.7511768,46.7809067,26.57207],"min":[-48.3066254,-73.33216,18.48654],"type":"VEC3","name":"accessorPositions"},{"bufferView":1,"byteOffset":138912,"componentType":5126,"count":208,"type":"VEC3","name":"accessorNormals"},{"bufferView":2,"byteOffset":90944,"componentType":5126,"count":208,"type":"VEC4","name":"accessorColors"},{"bufferView":3,"byteOffset":45472,"componentType":5126,"count":208,"type":"VEC2","name":"accessorUVs"},{"bufferView":0,"byteOffset":24804,"componentType":5123,"count":624,"type":"SCALAR","name":"accessorIndices"},{"bufferView":1,"byteOffset":141408,"componentType":5126,"count":312,"max":[14.7511768,46.7809067,26.57207],"min":[-48.3066254,-73.33216,19.5442257],"type":"VEC3","name":"accessorPositions"},{"bufferView":1,"byteOffset":145152,"componentType":5126,"count":312,"type":"VEC3","name":"accessorNormals"},{"bufferView":2,"byteOffset":94272,"componentType":5126,"count":312,"type":"VEC4","name":"accessorColors"},{"bufferView":3,"byteOffset":47136,"componentType":5126,"count":312,"type":"VEC2","name":"accessorUVs"}],"bufferViews":[{"buffer":0,"byteLength":26052,"name":"bufferViewScalar"},{"buffer":0,"byteOffset":26052,"byteLength":148896,"byteStride":12,"name":"bufferViewFloatVec3"},{"buffer":0,"byteOffset":174948,"byteLength":99264,"byteStride":16,"name":"bufferViewFloatVec4"},{"buffer":0,"byteOffset":274212,"byteLength":49632,"byteStride":8,"name":"bufferViewFloatVec2"}],"buffers":[{"uri":"shg.bin","byteLength":323844}],"materials":[{"pbrMetallicRoughness":{"baseColorTexture":{"index":0},"metallicFactor":0.0,"roughnessFactor":0.450053632},"name":"Material #1358"},{"pbrMetallicRoughness":{"baseColorTexture":{"index":1},"metallicFactor":0.0,"roughnessFactor":0.450053632},"name":"Material #60"},{"pbrMetallicRoughness":{"baseColorTexture":{"index":2},"metallicFactor":0.0,"roughnessFactor":0.450053632},"name":"Material #37"},{"pbrMetallicRoughness":{"baseColorTexture":{"index":3},"metallicFactor":0.0,"roughnessFactor":0.450053632},"name":"Material #913"},{"pbrMetallicRoughness":{"baseColorTexture":{"index":4},"metallicFactor":0.0,"roughnessFactor":0.450053632},"name":"Material #83"},{"pbrMetallicRoughness":{"baseColorTexture":{"index":5},"metallicFactor":0.0,"roughnessFactor":0.450053632},"name":"Material #479"},{"pbrMetallicRoughness":{"baseColorTexture":{"index":6},"metallicFactor":0.0,"roughnessFactor":0.450053632},"name":"Material #120"},{"pbrMetallicRoughness":{"baseColorTexture":{"index":7},"metallicFactor":0.0,"roughnessFactor":0.450053632},"name":"Material #156"},{"pbrMetallicRoughness":{"baseColorTexture":{"index":8},"metallicFactor":0.0,"roughnessFactor":0.450053632},"name":"Material #169"},{"pbrMetallicRoughness":{"baseColorTexture":{"index":9},"metallicFactor":0.0,"roughnessFactor":0.450053632},"name":"Material #182"},{"pbrMetallicRoughness":{"baseColorTexture":{"index":10},"metallicFactor":0.0,"roughnessFactor":0.450053632},"name":"Material #209"},{"pbrMetallicRoughness":{"baseColorTexture":{"index":11},"metallicFactor":0.0,"roughnessFactor":0.450053632},"name":"Material #239"},{"pbrMetallicRoughness":{"baseColorTexture":{"index":12},"metallicFactor":0.0,"roughnessFactor":0.450053632},"name":"Material #394"},{"pbrMetallicRoughness":{"baseColorTexture":{"index":13},"metallicFactor":0.0,"roughnessFactor":0.450053632},"name":"Material #427"},{"pbrMetallicRoughness":{"baseColorTexture":{"index":12},"metallicFactor":0.0,"roughnessFactor":0.450053632},"name":"Material #550"},{"pbrMetallicRoughness":{"baseColorTexture":{"index":12},"metallicFactor":0.0,"roughnessFactor":0.450053632},"name":"Material #345"},{"pbrMetallicRoughness":{"baseColorTexture":{"index":11},"metallicFactor":0.0,"roughnessFactor":0.450053632},"name":"Material #661"},{"pbrMetallicRoughness":{"baseColorTexture":{"index":0},"metallicFactor":0.0,"roughnessFactor":0.450053632},"name":"Material #238"},{"pbrMetallicRoughness":{"baseColorTexture":{"index":14},"metallicFactor":0.0,"roughnessFactor":0.450053632},"name":"Material #852"},{"pbrMetallicRoughness":{"baseColorTexture":{"index":15},"metallicFactor":0.0,"roughnessFactor":0.450053632},"name":"Material #852"},{"pbrMetallicRoughness":{"baseColorTexture":{"index":11},"metallicFactor":0.0,"roughnessFactor":0.450053632},"name":"Material #874"},{"pbrMetallicRoughness":{"baseColorTexture":{"index":15},"metallicFactor":0.0,"roughnessFactor":0.450053632},"name":"Material #897"},{"pbrMetallicRoughness":{"baseColorTexture":{"index":11},"metallicFactor":0.0,"roughnessFactor":0.450053632},"name":"Material #661"},{"pbrMetallicRoughness":{"baseColorTexture":{"index":3},"metallicFactor":0.0,"roughnessFactor":0.450053632},"name":"Material #1019"},{"pbrMetallicRoughness":{"baseColorTexture":{"index":1},"metallicFactor":0.0,"roughnessFactor":0.450053632},"name":"Material #60"},{"pbrMetallicRoughness":{"baseColorTexture":{"index":3},"metallicFactor":0.0,"roughnessFactor":0.450053632},"name":"Material #1148"},{"pbrMetallicRoughness":{"baseColorTexture":{"index":3},"metallicFactor":0.0,"roughnessFactor":0.450053632},"name":"Material #1177"},{"pbrMetallicRoughness":{"baseColorTexture":{"index":12},"metallicFactor":0.0,"roughnessFactor":0.450053632},"name":"Material #550"},{"pbrMetallicRoughness":{"baseColorTexture":{"index":16},"metallicFactor":0.0,"roughnessFactor":0.450053632},"name":"Material #1264"},{"pbrMetallicRoughness":{"baseColorTexture":{"index":17},"metallicFactor":0.0,"roughnessFactor":0.450053632},"name":"Material #1295"},{"pbrMetallicRoughness":{"baseColorTexture":{"index":17},"metallicFactor":0.0,"roughnessFactor":0.450053632},"name":"Material #1549"},{"pbrMetallicRoughness":{"baseColorTexture":{"index":18},"metallicFactor":0.0,"roughnessFactor":0.450053632},"name":"Material #1450"},{"pbrMetallicRoughness":{"baseColorTexture":{"index":8},"metallicFactor":0.0,"roughnessFactor":0.450053632},"name":"Material #169"},{"pbrMetallicRoughness":{"baseColorTexture":{"index":10},"metallicFactor":0.0,"roughnessFactor":0.450053632},"name":"Material #1390"},{"pbrMetallicRoughness":{"baseColorTexture":{"index":19},"metallicFactor":0.0,"roughnessFactor":0.450053632},"name":"Material #1525"},{"pbrMetallicRoughness":{"baseColorTexture":{"index":20},"metallicFactor":0.0,"roughnessFactor":0.450053632},"name":"Material #1548"},{"pbrMetallicRoughness":{"baseColorTexture":{"index":0},"metallicFactor":0.0,"roughnessFactor":0.450053632},"name":"Material #1561"}],"textures":[{"sampler":0,"source":0,"name":"sg_2_010.jpg"},{"sampler":0,"source":1,"name":"sg_2_003.jpg"},{"sampler":0,"source":2,"name":"sg_2_002.jpg"},{"sampler":0,"source":3,"name":"sg_2_019.jpg"},{"sampler":0,"source":4,"name":"sg_2_004.jpg"},{"sampler":0,"source":5,"name":"sg_2_015.jpg"},{"sampler":0,"source":6,"name":"sg_2_006.jpg"},{"sampler":0,"source":7,"name":"SGY_A009.jpg"},{"sampler":0,"source":8,"name":"sg_2_007.jpg"},{"sampler":0,"source":9,"name":"sg_2_008.jpg"},{"sampler":0,"source":10,"name":"sg_2_009.jpg"},{"sampler":0,"source":11,"name":"sg_2_011.jpg"},{"sampler":0,"source":12,"name":"sg_2_014.jpg"},{"sampler":0,"source":13,"name":"sg_2_013.jpg"},{"sampler":0,"source":14,"name":"sg_2_018.jpg"},{"sampler":0,"source":15,"name":"sg_2_016.jpg"},{"sampler":0,"source":16,"name":"sg_2_020.jpg"},{"sampler":0,"source":17,"name":"sg_2_021.jpg"},{"sampler":0,"source":18,"name":"sg_2_005.jpg"},{"sampler":0,"source":19,"name":"sg_2_022.jpg"},{"sampler":0,"source":20,"name":"sg_2_017.jpg"}],"images":[{"uri":"sg_2_010.jpg"},{"uri":"sg_2_003.jpg"},{"uri":"sg_2_002.jpg"},{"uri":"sg_2_019.jpg"},{"uri":"sg_2_004.jpg"},{"uri":"sg_2_015.jpg"},{"uri":"sg_2_006.jpg"},{"uri":"SGY_A009.jpg"},{"uri":"sg_2_007.jpg"},{"uri":"sg_2_008.jpg"},{"uri":"sg_2_009.jpg"},{"uri":"sg_2_011.jpg"},{"uri":"sg_2_014.jpg"},{"uri":"sg_2_013.jpg"},{"uri":"sg_2_018.jpg"},{"uri":"sg_2_016.jpg"},{"uri":"sg_2_020.jpg"},{"uri":"sg_2_021.jpg"},{"uri":"sg_2_005.jpg"},{"uri":"sg_2_022.jpg"},{"uri":"sg_2_017.jpg"}],"samplers":[{"magFilter":9729,"minFilter":9987}]}