{"asset":{"version":"2.0","generator":"babylon.js glTF exporter for 3dsmax 2022 v20240125.3"},"scene":0,"scenes":[{"nodes":[0]}],"nodes":[{"mesh":0,"name":"Box015"}],"meshes":[{"primitives":[{"attributes":{"POSITION":1,"NORMAL":2,"TEXCOORD_0":3},"indices":0,"material":0},{"attributes":{"POSITION":5,"NORMAL":6,"TEXCOORD_0":7},"indices":4,"material":1},{"attributes":{"POSITION":9,"NORMAL":10,"TEXCOORD_0":11},"indices":8,"material":2}],"name":"Box015"}],"accessors":[{"bufferView":0,"componentType":5123,"count":108,"type":"SCALAR","name":"accessorIndices"},{"bufferView":1,"componentType":5126,"count":58,"max":[22.847168,12.3866177,82.3287354],"min":[-22.847168,-12.3866329,-2.01803368E-06],"type":"VEC3","name":"accessorPositions"},{"bufferView":1,"byteOffset":696,"componentType":5126,"count":58,"type":"VEC3","name":"accessorNormals"},{"bufferView":2,"componentType":5126,"count":58,"type":"VEC2","name":"accessorUVs"},{"bufferView":0,"byteOffset":216,"componentType":5123,"count":219,"type":"SCALAR","name":"accessorIndices"},{"bufferView":1,"byteOffset":1392,"componentType":5126,"count":115,"max":[22.847168,12.3866177,82.32874],"min":[-22.847168,-12.3866329,-2.01803368E-06],"type":"VEC3","name":"accessorPositions"},{"bufferView":1,"byteOffset":2772,"componentType":5126,"count":115,"type":"VEC3","name":"accessorNormals"},{"bufferView":2,"byteOffset":464,"componentType":5126,"count":115,"type":"VEC2","name":"accessorUVs"},{"bufferView":0,"byteOffset":656,"componentType":5123,"count":33,"type":"SCALAR","name":"accessorIndices"},{"bufferView":1,"byteOffset":4152,"componentType":5126,"count":13,"max":[21.847168,8.616799,76.86575],"min":[-21.847168,-8.616849,76.86574],"type":"VEC3","name":"accessorPositions"},{"bufferView":1,"byteOffset":4308,"componentType":5126,"count":13,"type":"VEC3","name":"accessorNormals"},{"bufferView":2,"byteOffset":1384,"componentType":5126,"count":13,"type":"VEC2","name":"accessorUVs"}],"bufferViews":[{"buffer":0,"byteLength":724,"name":"bufferViewScalar"},{"buffer":0,"byteOffset":724,"byteLength":4464,"byteStride":12,"name":"bufferViewFloatVec3"},{"buffer":0,"byteOffset":5188,"byteLength":1488,"byteStride":8,"name":"bufferViewFloatVec2"}],"buffers":[{"uri":"sgy_zzl.bin","byteLength":6676}],"materials":[{"pbrMetallicRoughness":{"baseColorTexture":{"index":0},"metallicFactor":0.0,"roughnessFactor":0.450053632},"name":"Material #45590"},{"pbrMetallicRoughness":{"baseColorTexture":{"index":1},"metallicFactor":0.0,"roughnessFactor":0.450053632},"name":"Material #45602"},{"pbrMetallicRoughness":{"baseColorTexture":{"index":2},"metallicFactor":0.0,"roughnessFactor":0.450053632},"name":"Material #44788"}],"textures":[{"sampler":0,"source":0,"name":"xgy_x_021.jpg"},{"sampler":0,"source":1,"name":"xgy_x_022.jpg"},{"sampler":0,"source":2,"name":"011.jpg"}],"images":[{"uri":"xgy_x_021.jpg"},{"uri":"xgy_x_022.jpg"},{"uri":"011.jpg"}],"samplers":[{"magFilter":9729,"minFilter":9987}]}