{
  "accessors" : [ {
    "bufferView" : 0,
    "byteOffset" : 0,
    "componentType" : 5123,
    "count" : 24,
    "type" : "SCALAR",
    "max" : [ 11 ],
    "min" : [ 0 ]
  }, {
    "bufferView" : 1,
    "byteOffset" : 0,
    "componentType" : 5126,
    "count" : 12,
    "type" : "VEC3",
    "max" : [ 9.977, 18.8112, 14.9974 ],
    "min" : [ -7.1143, -18.8112, 0.0 ]
  }, {
    "bufferView" : 2,
    "byteOffset" : 0,
    "componentType" : 5126,
    "count" : 12,
    "type" : "VEC2",
    "max" : [ 0.9814, 0.9814 ],
    "min" : [ 0.0186, 0.018599987 ]
  }, {
    "bufferView" : 3,
    "byteOffset" : 0,
    "componentType" : 5126,
    "count" : 12,
    "type" : "VEC3",
    "max" : [ 0.0, 1.0, 0.0 ],
    "min" : [ 0.0, -1.0, 0.0 ]
  }, {
    "bufferView" : 4,
    "byteOffset" : 0,
    "componentType" : 5123,
    "count" : 12,
    "type" : "SCALAR",
    "max" : [ 8 ],
    "min" : [ 0 ]
  }, {
    "bufferView" : 5,
    "byteOffset" : 0,
    "componentType" : 5126,
    "count" : 9,
    "type" : "VEC3",
    "max" : [ 1.4313, 18.8112, 14.9974 ],
    "min" : [ -7.1143, -18.8112, 11.4808 ]
  }, {
    "bufferView" : 6,
    "byteOffset" : 0,
    "componentType" : 5126,
    "count" : 9,
    "type" : "VEC2",
    "max" : [ 17.9123, 0.6136 ],
    "min" : [ -16.9123, 0.38639998 ]
  }, {
    "bufferView" : 7,
    "byteOffset" : 0,
    "componentType" : 5126,
    "count" : 9,
    "type" : "VEC3",
    "max" : [ -0.38057882, 0.0, 0.9247485 ],
    "min" : [ -0.38057882, 0.0, 0.9247485 ]
  }, {
    "bufferView" : 8,
    "byteOffset" : 0,
    "componentType" : 5123,
    "count" : 6,
    "type" : "SCALAR",
    "max" : [ 5 ],
    "min" : [ 0 ]
  }, {
    "bufferView" : 9,
    "byteOffset" : 0,
    "componentType" : 5126,
    "count" : 6,
    "type" : "VEC3",
    "max" : [ 9.977, 18.8112, 14.9974 ],
    "min" : [ 1.4313, -18.8112, 11.4808 ]
  }, {
    "bufferView" : 10,
    "byteOffset" : 0,
    "componentType" : 5126,
    "count" : 6,
    "type" : "VEC2",
    "max" : [ 3.6627, 1.0 ],
    "min" : [ -0.0, 0.0 ]
  }, {
    "bufferView" : 11,
    "byteOffset" : 0,
    "componentType" : 5126,
    "count" : 6,
    "type" : "VEC3",
    "max" : [ 0.38057882, 0.0, 0.9247485 ],
    "min" : [ 0.38057882, 0.0, 0.9247485 ]
  }, {
    "bufferView" : 12,
    "byteOffset" : 0,
    "componentType" : 5123,
    "count" : 6,
    "type" : "SCALAR",
    "max" : [ 5 ],
    "min" : [ 0 ]
  }, {
    "bufferView" : 13,
    "byteOffset" : 0,
    "componentType" : 5126,
    "count" : 6,
    "type" : "VEC3",
    "max" : [ 9.977, 18.8112, 11.4808 ],
    "min" : [ 9.977, -18.8112, 0.0 ]
  }, {
    "bufferView" : 14,
    "byteOffset" : 0,
    "componentType" : 5126,
    "count" : 6,
    "type" : "VEC2",
    "max" : [ 1.6635, 1.0 ],
    "min" : [ -1.9993, 0.0 ]
  }, {
    "bufferView" : 15,
    "byteOffset" : 0,
    "componentType" : 5126,
    "count" : 6,
    "type" : "VEC3",
    "max" : [ 1.0, 0.0, 0.0 ],
    "min" : [ 1.0, 0.0, 0.0 ]
  }, {
    "bufferView" : 16,
    "byteOffset" : 0,
    "componentType" : 5123,
    "count" : 30,
    "type" : "SCALAR",
    "max" : [ 27 ],
    "min" : [ 0 ]
  }, {
    "bufferView" : 17,
    "byteOffset" : 0,
    "componentType" : 5126,
    "count" : 28,
    "type" : "VEC3",
    "max" : [ -7.1143, 18.8112, 11.4808 ],
    "min" : [ -9.977, -18.8112, 0.0 ]
  }, {
    "bufferView" : 18,
    "byteOffset" : 0,
    "componentType" : 5126,
    "count" : 28,
    "type" : "VEC2",
    "max" : [ 1.0011, 1.0 ],
    "min" : [ 0.0, 0.0 ]
  }, {
    "bufferView" : 19,
    "byteOffset" : 0,
    "componentType" : 5126,
    "count" : 28,
    "type" : "VEC3",
    "max" : [ 0.0, 1.0, 1.0 ],
    "min" : [ -1.0, -1.0, 0.0 ]
  }, {
    "bufferView" : 20,
    "byteOffset" : 0,
    "componentType" : 5123,
    "count" : 6,
    "type" : "SCALAR",
    "max" : [ 5 ],
    "min" : [ 0 ]
  }, {
    "bufferView" : 21,
    "byteOffset" : 0,
    "componentType" : 5126,
    "count" : 6,
    "type" : "VEC3",
    "max" : [ -7.1143, 5.9779, 11.4808 ],
    "min" : [ -7.1143, -13.5023, 0.0 ]
  }, {
    "bufferView" : 22,
    "byteOffset" : 0,
    "componentType" : 5126,
    "count" : 6,
    "type" : "VEC2",
    "max" : [ 1.4556, 1.0 ],
    "min" : [ -0.2988, 0.0 ]
  }, {
    "bufferView" : 23,
    "byteOffset" : 0,
    "componentType" : 5126,
    "count" : 6,
    "type" : "VEC3",
    "max" : [ -1.0, 0.0, 0.0 ],
    "min" : [ -1.0, 0.0, 0.0 ]
  } ],
  "asset" : {
    "generator" : "JglTF from https://github.com/javagl/JglTF",
    "version" : "2.0"
  },
  "buffers" : [ {
    "uri" : "buffer.bin",
    "byteLength" : 2312
  } ],
  "bufferViews" : [ {
    "buffer" : 0,
    "byteOffset" : 0,
    "byteLength" : 48,
    "target" : 34963
  }, {
    "buffer" : 0,
    "byteOffset" : 48,
    "byteLength" : 144,
    "target" : 34962
  }, {
    "buffer" : 0,
    "byteOffset" : 192,
    "byteLength" : 96,
    "target" : 34962
  }, {
    "buffer" : 0,
    "byteOffset" : 288,
    "byteLength" : 144,
    "target" : 34962
  }, {
    "buffer" : 0,
    "byteOffset" : 432,
    "byteLength" : 24,
    "target" : 34963
  }, {
    "buffer" : 0,
    "byteOffset" : 456,
    "byteLength" : 108,
    "target" : 34962
  }, {
    "buffer" : 0,
    "byteOffset" : 564,
    "byteLength" : 72,
    "target" : 34962
  }, {
    "buffer" : 0,
    "byteOffset" : 636,
    "byteLength" : 108,
    "target" : 34962
  }, {
    "buffer" : 0,
    "byteOffset" : 744,
    "byteLength" : 12,
    "target" : 34963
  }, {
    "buffer" : 0,
    "byteOffset" : 756,
    "byteLength" : 72,
    "target" : 34962
  }, {
    "buffer" : 0,
    "byteOffset" : 828,
    "byteLength" : 48,
    "target" : 34962
  }, {
    "buffer" : 0,
    "byteOffset" : 876,
    "byteLength" : 72,
    "target" : 34962
  }, {
    "buffer" : 0,
    "byteOffset" : 948,
    "byteLength" : 12,
    "target" : 34963
  }, {
    "buffer" : 0,
    "byteOffset" : 960,
    "byteLength" : 72,
    "target" : 34962
  }, {
    "buffer" : 0,
    "byteOffset" : 1032,
    "byteLength" : 48,
    "target" : 34962
  }, {
    "buffer" : 0,
    "byteOffset" : 1080,
    "byteLength" : 72,
    "target" : 34962
  }, {
    "buffer" : 0,
    "byteOffset" : 1152,
    "byteLength" : 60,
    "target" : 34963
  }, {
    "buffer" : 0,
    "byteOffset" : 1212,
    "byteLength" : 336,
    "target" : 34962
  }, {
    "buffer" : 0,
    "byteOffset" : 1548,
    "byteLength" : 224,
    "target" : 34962
  }, {
    "buffer" : 0,
    "byteOffset" : 1772,
    "byteLength" : 336,
    "target" : 34962
  }, {
    "buffer" : 0,
    "byteOffset" : 2108,
    "byteLength" : 12,
    "target" : 34963
  }, {
    "buffer" : 0,
    "byteOffset" : 2120,
    "byteLength" : 72,
    "target" : 34962
  }, {
    "buffer" : 0,
    "byteOffset" : 2192,
    "byteLength" : 48,
    "target" : 34962
  }, {
    "buffer" : 0,
    "byteOffset" : 2240,
    "byteLength" : 72,
    "target" : 34962
  } ],
  "images" : [ {
    "uri" : "SGY_H16.jpg",
    "mimeType" : "image/jpeg"
  }, {
    "uri" : "SY_E10_L0010.jpg",
    "mimeType" : "image/jpeg"
  }, {
    "uri" : "SGY_H15.jpg",
    "mimeType" : "image/jpeg"
  }, {
    "uri" : "SGY_H14.jpg",
    "mimeType" : "image/jpeg"
  }, {
    "uri" : "SGY_H12.jpg",
    "mimeType" : "image/jpeg"
  }, {
    "uri" : "SGY_H13.jpg",
    "mimeType" : "image/jpeg"
  } ],
  "materials" : [ {
    "pbrMetallicRoughness" : {
      "baseColorFactor" : [ 1.0, 1.0, 1.0, 1.0 ],
      "baseColorTexture" : {
        "index" : 0
      },
      "metallicFactor" : 0.0,
      "roughnessFactor" : 1.0
    },
    "alphaMode" : "OPAQUE",
    "doubleSided" : true
  }, {
    "pbrMetallicRoughness" : {
      "baseColorFactor" : [ 1.0, 1.0, 1.0, 1.0 ],
      "baseColorTexture" : {
        "index" : 1
      },
      "metallicFactor" : 0.0,
      "roughnessFactor" : 1.0
    },
    "alphaMode" : "OPAQUE",
    "doubleSided" : true
  }, {
    "pbrMetallicRoughness" : {
      "baseColorFactor" : [ 1.0, 1.0, 1.0, 1.0 ],
      "baseColorTexture" : {
        "index" : 2
      },
      "metallicFactor" : 0.0,
      "roughnessFactor" : 1.0
    },
    "alphaMode" : "OPAQUE",
    "doubleSided" : true
  }, {
    "pbrMetallicRoughness" : {
      "baseColorFactor" : [ 1.0, 1.0, 1.0, 1.0 ],
      "baseColorTexture" : {
        "index" : 3
      },
      "metallicFactor" : 0.0,
      "roughnessFactor" : 1.0
    },
    "alphaMode" : "OPAQUE",
    "doubleSided" : true
  }, {
    "pbrMetallicRoughness" : {
      "baseColorFactor" : [ 1.0, 1.0, 1.0, 1.0 ],
      "baseColorTexture" : {
        "index" : 4
      },
      "metallicFactor" : 0.0,
      "roughnessFactor" : 1.0
    },
    "alphaMode" : "OPAQUE",
    "doubleSided" : true
  }, {
    "pbrMetallicRoughness" : {
      "baseColorFactor" : [ 1.0, 1.0, 1.0, 1.0 ],
      "baseColorTexture" : {
        "index" : 5
      },
      "metallicFactor" : 0.0,
      "roughnessFactor" : 1.0
    },
    "alphaMode" : "OPAQUE",
    "doubleSided" : true
  } ],
  "meshes" : [ {
    "primitives" : [ {
      "attributes" : {
        "POSITION" : 1,
        "TEXCOORD_0" : 2,
        "NORMAL" : 3
      },
      "indices" : 0,
      "material" : 0,
      "mode" : 4
    }, {
      "attributes" : {
        "POSITION" : 5,
        "TEXCOORD_0" : 6,
        "NORMAL" : 7
      },
      "indices" : 4,
      "material" : 1,
      "mode" : 4
    }, {
      "attributes" : {
        "POSITION" : 9,
        "TEXCOORD_0" : 10,
        "NORMAL" : 11
      },
      "indices" : 8,
      "material" : 2,
      "mode" : 4
    }, {
      "attributes" : {
        "POSITION" : 13,
        "TEXCOORD_0" : 14,
        "NORMAL" : 15
      },
      "indices" : 12,
      "material" : 3,
      "mode" : 4
    }, {
      "attributes" : {
        "POSITION" : 17,
        "TEXCOORD_0" : 18,
        "NORMAL" : 19
      },
      "indices" : 16,
      "material" : 4,
      "mode" : 4
    }, {
      "attributes" : {
        "POSITION" : 21,
        "TEXCOORD_0" : 22,
        "NORMAL" : 23
      },
      "indices" : 20,
      "material" : 5,
      "mode" : 4
    } ]
  } ],
  "nodes" : [ {
    "mesh" : 0
  } ],
  "samplers" : [ { } ],
  "scene" : 0,
  "scenes" : [ {
    "nodes" : [ 0 ]
  } ],
  "textures" : [ {
    "sampler" : 0,
    "source" : 0
  }, {
    "sampler" : 0,
    "source" : 1
  }, {
    "sampler" : 0,
    "source" : 2
  }, {
    "sampler" : 0,
    "source" : 3
  }, {
    "sampler" : 0,
    "source" : 4
  }, {
    "sampler" : 0,
    "source" : 5
  } ]
}