{"asset":{"version":"2.0","generator":"babylon.js glTF exporter for 3dsmax 2022 v20240125.3"},"scene":0,"scenes":[{"nodes":[0]}],"nodes":[{"mesh":0,"name":"对象047"}],"meshes":[{"primitives":[{"attributes":{"POSITION":1,"NORMAL":2,"COLOR_0":3,"TEXCOORD_0":4},"indices":0,"material":0},{"attributes":{"POSITION":6,"NORMAL":7,"COLOR_0":8,"TEXCOORD_0":9},"indices":5,"material":1},{"attributes":{"POSITION":11,"NORMAL":12,"COLOR_0":13,"TEXCOORD_0":14},"indices":10,"material":2},{"attributes":{"POSITION":16,"NORMAL":17,"COLOR_0":18,"TEXCOORD_0":19},"indices":15,"material":3},{"attributes":{"POSITION":21,"NORMAL":22,"COLOR_0":23,"TEXCOORD_0":24},"indices":20,"material":4},{"attributes":{"POSITION":26,"NORMAL":27,"COLOR_0":28,"TEXCOORD_0":29},"indices":25,"material":5},{"attributes":{"POSITION":31,"NORMAL":32,"COLOR_0":33,"TEXCOORD_0":34},"indices":30,"material":6},{"attributes":{"POSITION":36,"NORMAL":37,"COLOR_0":38,"TEXCOORD_0":39},"indices":35,"material":7},{"attributes":{"POSITION":41,"NORMAL":42,"COLOR_0":43,"TEXCOORD_0":44},"indices":40,"material":8},{"attributes":{"POSITION":46,"NORMAL":47,"COLOR_0":48,"TEXCOORD_0":49},"indices":45,"material":9},{"attributes":{"POSITION":51,"NORMAL":52,"COLOR_0":53,"TEXCOORD_0":54},"indices":50,"material":10},{"attributes":{"POSITION":56,"NORMAL":57,"COLOR_0":58,"TEXCOORD_0":59},"indices":55,"material":11},{"attributes":{"POSITION":61,"NORMAL":62,"COLOR_0":63,"TEXCOORD_0":64},"indices":60,"material":12},{"attributes":{"POSITION":66,"NORMAL":67,"COLOR_0":68,"TEXCOORD_0":69},"indices":65,"material":13},{"attributes":{"POSITION":71,"NORMAL":72,"COLOR_0":73,"TEXCOORD_0":74},"indices":70,"material":14},{"attributes":{"POSITION":76,"NORMAL":77,"COLOR_0":78,"TEXCOORD_0":79},"indices":75,"material":15},{"attributes":{"POSITION":81,"NORMAL":82,"COLOR_0":83,"TEXCOORD_0":84},"indices":80,"material":16},{"attributes":{"POSITION":86,"NORMAL":87,"COLOR_0":88,"TEXCOORD_0":89},"indices":85,"material":17},{"attributes":{"POSITION":91,"NORMAL":92,"COLOR_0":93,"TEXCOORD_0":94},"indices":90,"material":18},{"attributes":{"POSITION":96,"NORMAL":97,"COLOR_0":98,"TEXCOORD_0":99},"indices":95,"material":19},{"attributes":{"POSITION":101,"NORMAL":102,"COLOR_0":103,"TEXCOORD_0":104},"indices":100,"material":20},{"attributes":{"POSITION":106,"NORMAL":107,"COLOR_0":108,"TEXCOORD_0":109},"indices":105,"material":21},{"attributes":{"POSITION":111,"NORMAL":112,"COLOR_0":113,"TEXCOORD_0":114},"indices":110,"material":22},{"attributes":{"POSITION":116,"NORMAL":117,"COLOR_0":118,"TEXCOORD_0":119},"indices":115,"material":23}],"name":"对象047"}],"accessors":[{"bufferView":0,"componentType":5123,"count":84,"type":"SCALAR","name":"accessorIndices"},{"bufferView":1,"componentType":5126,"count":56,"max":[80.1357,73.5595856,40.1120224],"min":[-75.98913,-65.08579,28.27393],"type":"VEC3","name":"accessorPositions"},{"bufferView":1,"byteOffset":672,"componentType":5126,"count":56,"type":"VEC3","name":"accessorNormals"},{"bufferView":2,"componentType":5126,"count":56,"type":"VEC4","name":"accessorColors"},{"bufferView":3,"componentType":5126,"count":56,"type":"VEC2","name":"accessorUVs"},{"bufferView":0,"byteOffset":168,"componentType":5123,"count":6,"type":"SCALAR","name":"accessorIndices"},{"bufferView":1,"byteOffset":1344,"componentType":5126,"count":4,"max":[37.3265762,73.5595245,28.2739277],"min":[-76.40691,-70.6597748,28.2739067],"type":"VEC3","name":"accessorPositions"},{"bufferView":1,"byteOffset":1392,"componentType":5126,"count":4,"type":"VEC3","name":"accessorNormals"},{"bufferView":2,"byteOffset":896,"componentType":5126,"count":4,"type":"VEC4","name":"accessorColors"},{"bufferView":3,"byteOffset":448,"componentType":5126,"count":4,"type":"VEC2","name":"accessorUVs"},{"bufferView":0,"byteOffset":180,"componentType":5123,"count":198,"type":"SCALAR","name":"accessorIndices"},{"bufferView":1,"byteOffset":1440,"componentType":5126,"count":144,"max":[81.9672852,74.5595551,5.545355],"min":[-81.0114746,-75.44438,-9.179115E-06],"type":"VEC3","name":"accessorPositions"},{"bufferView":1,"byteOffset":3168,"componentType":5126,"count":144,"type":"VEC3","name":"accessorNormals"},{"bufferView":2,"byteOffset":960,"componentType":5126,"count":144,"type":"VEC4","name":"accessorColors"},{"bufferView":3,"byteOffset":480,"componentType":5126,"count":144,"type":"VEC2","name":"accessorUVs"},{"bufferView":0,"byteOffset":576,"componentType":5123,"count":126,"type":"SCALAR","name":"accessorIndices"},{"bufferView":1,"byteOffset":4896,"componentType":5126,"count":110,"max":[81.13573,74.55955,32.28035],"min":[46.70839,15.6665421,6.24377537],"type":"VEC3","name":"accessorPositions"},{"bufferView":1,"byteOffset":6216,"componentType":5126,"count":110,"type":"VEC3","name":"accessorNormals"},{"bufferView":2,"byteOffset":3264,"componentType":5126,"count":110,"type":"VEC4","name":"accessorColors"},{"bufferView":3,"byteOffset":1632,"componentType":5126,"count":110,"type":"VEC2","name":"accessorUVs"},{"bufferView":0,"byteOffset":828,"componentType":5123,"count":462,"type":"SCALAR","name":"accessorIndices"},{"bufferView":1,"byteOffset":7536,"componentType":5126,"count":623,"max":[81.9673157,75.534996,32.28035],"min":[-81.96718,-76.4197159,-9.179115E-06],"type":"VEC3","name":"accessorPositions"},{"bufferView":1,"byteOffset":15012,"componentType":5126,"count":623,"type":"VEC3","name":"accessorNormals"},{"bufferView":2,"byteOffset":5024,"componentType":5126,"count":623,"type":"VEC4","name":"accessorColors"},{"bufferView":3,"byteOffset":2512,"componentType":5126,"count":623,"type":"VEC2","name":"accessorUVs"},{"bufferView":0,"byteOffset":1752,"componentType":5123,"count":24,"type":"SCALAR","name":"accessorIndices"},{"bufferView":1,"byteOffset":22488,"componentType":5126,"count":18,"max":[81.1357,33.3654671,33.9387932],"min":[13.0475941,-75.70589,7.62939453E-06],"type":"VEC3","name":"accessorPositions"},{"bufferView":1,"byteOffset":22704,"componentType":5126,"count":18,"type":"VEC3","name":"accessorNormals"},{"bufferView":2,"byteOffset":14992,"componentType":5126,"count":18,"type":"VEC4","name":"accessorColors"},{"bufferView":3,"byteOffset":7496,"componentType":5126,"count":18,"type":"VEC2","name":"accessorUVs"},{"bufferView":0,"byteOffset":1800,"componentType":5123,"count":54,"type":"SCALAR","name":"accessorIndices"},{"bufferView":1,"byteOffset":22920,"componentType":5126,"count":45,"max":[20.1253128,74.5595245,24.8090782],"min":[-77.89265,-75.60438,-0.000112771988],"type":"VEC3","name":"accessorPositions"},{"bufferView":1,"byteOffset":23460,"componentType":5126,"count":45,"type":"VEC3","name":"accessorNormals"},{"bufferView":2,"byteOffset":15280,"componentType":5126,"count":45,"type":"VEC4","name":"accessorColors"},{"bufferView":3,"byteOffset":7640,"componentType":5126,"count":45,"type":"VEC2","name":"accessorUVs"},{"bufferView":0,"byteOffset":1908,"componentType":5123,"count":1266,"type":"SCALAR","name":"accessorIndices"},{"bufferView":1,"byteOffset":24000,"componentType":5126,"count":786,"max":[81.9673157,75.534996,34.79533],"min":[-81.96718,-77.61915,-0.000113010406],"type":"VEC3","name":"accessorPositions"},{"bufferView":1,"byteOffset":33432,"componentType":5126,"count":786,"type":"VEC3","name":"accessorNormals"},{"bufferView":2,"byteOffset":16000,"componentType":5126,"count":786,"type":"VEC4","name":"accessorColors"},{"bufferView":3,"byteOffset":8000,"componentType":5126,"count":786,"type":"VEC2","name":"accessorUVs"},{"bufferView":0,"byteOffset":4440,"componentType":5123,"count":24,"type":"SCALAR","name":"accessorIndices"},{"bufferView":1,"byteOffset":42864,"componentType":5126,"count":18,"max":[40.5231934,74.55953,30.77393],"min":[38.16063,16.6596375,6.243785],"type":"VEC3","name":"accessorPositions"},{"bufferView":1,"byteOffset":43080,"componentType":5126,"count":18,"type":"VEC3","name":"accessorNormals"},{"bufferView":2,"byteOffset":28576,"componentType":5126,"count":18,"type":"VEC4","name":"accessorColors"},{"bufferView":3,"byteOffset":14288,"componentType":5126,"count":18,"type":"VEC2","name":"accessorUVs"},{"bufferView":0,"byteOffset":4488,"componentType":5123,"count":228,"type":"SCALAR","name":"accessorIndices"},{"bufferView":1,"byteOffset":43296,"componentType":5126,"count":211,"max":[81.13573,74.56041,32.28035],"min":[40.52292,15.6617432,5.841255E-06],"type":"VEC3","name":"accessorPositions"},{"bufferView":1,"byteOffset":45828,"componentType":5126,"count":211,"type":"VEC3","name":"accessorNormals"},{"bufferView":2,"byteOffset":28864,"componentType":5126,"count":211,"type":"VEC4","name":"accessorColors"},{"bufferView":3,"byteOffset":14432,"componentType":5126,"count":211,"type":"VEC2","name":"accessorUVs"},{"bufferView":0,"byteOffset":4944,"componentType":5123,"count":36,"type":"SCALAR","name":"accessorIndices"},{"bufferView":1,"byteOffset":48360,"componentType":5126,"count":28,"max":[81.085144,74.63161,4.92002439],"min":[44.2220078,26.85671,3.27619553],"type":"VEC3","name":"accessorPositions"},{"bufferView":1,"byteOffset":48696,"componentType":5126,"count":28,"type":"VEC3","name":"accessorNormals"},{"bufferView":2,"byteOffset":32240,"componentType":5126,"count":28,"type":"VEC4","name":"accessorColors"},{"bufferView":3,"byteOffset":16120,"componentType":5126,"count":28,"type":"VEC2","name":"accessorUVs"},{"bufferView":0,"byteOffset":5016,"componentType":5123,"count":6,"type":"SCALAR","name":"accessorIndices"},{"bufferView":1,"byteOffset":49032,"componentType":5126,"count":6,"max":[81.1357,62.07945,5.54535246],"min":[81.1356659,42.9923973,1.03712082E-05],"type":"VEC3","name":"accessorPositions"},{"bufferView":1,"byteOffset":49104,"componentType":5126,"count":6,"type":"VEC3","name":"accessorNormals"},{"bufferView":2,"byteOffset":32688,"componentType":5126,"count":6,"type":"VEC4","name":"accessorColors"},{"bufferView":3,"byteOffset":16344,"componentType":5126,"count":6,"type":"VEC2","name":"accessorUVs"},{"bufferView":0,"byteOffset":5028,"componentType":5123,"count":588,"type":"SCALAR","name":"accessorIndices"},{"bufferView":1,"byteOffset":49176,"componentType":5126,"count":928,"max":[81.13573,75.01638,32.72817],"min":[-81.59664,-77.61915,-0.000113010406],"type":"VEC3","name":"accessorPositions"},{"bufferView":1,"byteOffset":60312,"componentType":5126,"count":928,"type":"VEC3","name":"accessorNormals"},{"bufferView":2,"byteOffset":32784,"componentType":5126,"count":928,"type":"VEC4","name":"accessorColors"},{"bufferView":3,"byteOffset":16392,"componentType":5126,"count":928,"type":"VEC2","name":"accessorUVs"},{"bufferView":0,"byteOffset":6204,"componentType":5123,"count":2676,"type":"SCALAR","name":"accessorIndices"},{"bufferView":1,"byteOffset":71448,"componentType":5126,"count":2247,"max":[81.96732,77.61917,34.79533],"min":[-81.96731,-76.42006,-0.000117301941],"type":"VEC3","name":"accessorPositions"},{"bufferView":1,"byteOffset":98412,"componentType":5126,"count":2247,"type":"VEC3","name":"accessorNormals"},{"bufferView":2,"byteOffset":47632,"componentType":5126,"count":2247,"type":"VEC4","name":"accessorColors"},{"bufferView":3,"byteOffset":23816,"componentType":5126,"count":2247,"type":"VEC2","name":"accessorUVs"},{"bufferView":0,"byteOffset":11556,"componentType":5123,"count":360,"type":"SCALAR","name":"accessorIndices"},{"bufferView":1,"byteOffset":125376,"componentType":5126,"count":240,"max":[35.79545,71.9476852,31.8875313],"min":[-74.8763046,-64.1879654,28.2739086],"type":"VEC3","name":"accessorPositions"},{"bufferView":1,"byteOffset":128256,"componentType":5126,"count":240,"type":"VEC3","name":"accessorNormals"},{"bufferView":2,"byteOffset":83584,"componentType":5126,"count":240,"type":"VEC4","name":"accessorColors"},{"bufferView":3,"byteOffset":41792,"componentType":5126,"count":240,"type":"VEC2","name":"accessorUVs"},{"bufferView":0,"byteOffset":12276,"componentType":5123,"count":810,"type":"SCALAR","name":"accessorIndices"},{"bufferView":1,"byteOffset":131136,"componentType":5126,"count":457,"max":[75.27652,73.55951,40.74093],"min":[-76.40691,-65.74056,28.2738838],"type":"VEC3","name":"accessorPositions"},{"bufferView":1,"byteOffset":136620,"componentType":5126,"count":457,"type":"VEC3","name":"accessorNormals"},{"bufferView":2,"byteOffset":87424,"componentType":5126,"count":457,"type":"VEC4","name":"accessorColors"},{"bufferView":3,"byteOffset":43712,"componentType":5126,"count":457,"type":"VEC2","name":"accessorUVs"},{"bufferView":0,"byteOffset":13896,"componentType":5123,"count":48,"type":"SCALAR","name":"accessorIndices"},{"bufferView":1,"byteOffset":142104,"componentType":5126,"count":32,"max":[77.89615,71.1354141,33.25675],"min":[43.7624969,19.0839,28.27393],"type":"VEC3","name":"accessorPositions"},{"bufferView":1,"byteOffset":142488,"componentType":5126,"count":32,"type":"VEC3","name":"accessorNormals"},{"bufferView":2,"byteOffset":94736,"componentType":5126,"count":32,"type":"VEC4","name":"accessorColors"},{"bufferView":3,"byteOffset":47368,"componentType":5126,"count":32,"type":"VEC2","name":"accessorUVs"},{"bufferView":0,"byteOffset":13992,"componentType":5123,"count":198,"type":"SCALAR","name":"accessorIndices"},{"bufferView":1,"byteOffset":142872,"componentType":5126,"count":146,"max":[42.87726,77.61917,17.007328],"min":[-81.9673,-60.6563568,14.568367],"type":"VEC3","name":"accessorPositions"},{"bufferView":1,"byteOffset":144624,"componentType":5126,"count":146,"type":"VEC3","name":"accessorNormals"},{"bufferView":2,"byteOffset":95248,"componentType":5126,"count":146,"type":"VEC4","name":"accessorColors"},{"bufferView":3,"byteOffset":47624,"componentType":5126,"count":146,"type":"VEC2","name":"accessorUVs"},{"bufferView":0,"byteOffset":14388,"componentType":5123,"count":108,"type":"SCALAR","name":"accessorIndices"},{"bufferView":1,"byteOffset":146376,"componentType":5126,"count":80,"max":[38.3265343,74.55933,32.2802773],"min":[-77.40699,-71.82756,30.7737732],"type":"VEC3","name":"accessorPositions"},{"bufferView":1,"byteOffset":147336,"componentType":5126,"count":80,"type":"VEC3","name":"accessorNormals"},{"bufferView":2,"byteOffset":97584,"componentType":5126,"count":80,"type":"VEC4","name":"accessorColors"},{"bufferView":3,"byteOffset":48792,"componentType":5126,"count":80,"type":"VEC2","name":"accessorUVs"},{"bufferView":0,"byteOffset":14604,"componentType":5123,"count":60,"type":"SCALAR","name":"accessorIndices"},{"bufferView":1,"byteOffset":148296,"componentType":5126,"count":40,"max":[76.85818,38.8107071,34.0781555],"min":[45.3139343,20.3288822,28.2739525],"type":"VEC3","name":"accessorPositions"},{"bufferView":1,"byteOffset":148776,"componentType":5126,"count":40,"type":"VEC3","name":"accessorNormals"},{"bufferView":2,"byteOffset":98864,"componentType":5126,"count":40,"type":"VEC4","name":"accessorColors"},{"bufferView":3,"byteOffset":49432,"componentType":5126,"count":40,"type":"VEC2","name":"accessorUVs"},{"bufferView":0,"byteOffset":14724,"componentType":5123,"count":192,"type":"SCALAR","name":"accessorIndices"},{"bufferView":1,"byteOffset":149256,"componentType":5126,"count":128,"max":[77.31097,39.4419327,35.55362],"min":[44.71548,19.68544,28.2739525],"type":"VEC3","name":"accessorPositions"},{"bufferView":1,"byteOffset":150792,"componentType":5126,"count":128,"type":"VEC3","name":"accessorNormals"},{"bufferView":2,"byteOffset":99504,"componentType":5126,"count":128,"type":"VEC4","name":"accessorColors"},{"bufferView":3,"byteOffset":49752,"componentType":5126,"count":128,"type":"VEC2","name":"accessorUVs"},{"bufferView":0,"byteOffset":15108,"componentType":5123,"count":24,"type":"SCALAR","name":"accessorIndices"},{"bufferView":1,"byteOffset":152328,"componentType":5126,"count":16,"max":[67.7317657,34.12485,32.69765],"min":[55.8826141,20.3288727,28.2739334],"type":"VEC3","name":"accessorPositions"},{"bufferView":1,"byteOffset":152520,"componentType":5126,"count":16,"type":"VEC3","name":"accessorNormals"},{"bufferView":2,"byteOffset":101552,"componentType":5126,"count":16,"type":"VEC4","name":"accessorColors"},{"bufferView":3,"byteOffset":50776,"componentType":5126,"count":16,"type":"VEC2","name":"accessorUVs"},{"bufferView":0,"byteOffset":15156,"componentType":5123,"count":24,"type":"SCALAR","name":"accessorIndices"},{"bufferView":1,"byteOffset":152712,"componentType":5126,"count":16,"max":[67.7317657,34.12485,32.69765],"min":[55.8826141,20.3288727,28.2739334],"type":"VEC3","name":"accessorPositions"},{"bufferView":1,"byteOffset":152904,"componentType":5126,"count":16,"type":"VEC3","name":"accessorNormals"},{"bufferView":2,"byteOffset":101808,"componentType":5126,"count":16,"type":"VEC4","name":"accessorColors"},{"bufferView":3,"byteOffset":50904,"componentType":5126,"count":16,"type":"VEC2","name":"accessorUVs"},{"bufferView":0,"byteOffset":15204,"componentType":5123,"count":24,"type":"SCALAR","name":"accessorIndices"},{"bufferView":1,"byteOffset":153096,"componentType":5126,"count":16,"max":[67.7317657,34.12485,32.69765],"min":[55.8826141,20.3288727,28.2739334],"type":"VEC3","name":"accessorPositions"},{"bufferView":1,"byteOffset":153288,"componentType":5126,"count":16,"type":"VEC3","name":"accessorNormals"},{"bufferView":2,"byteOffset":102064,"componentType":5126,"count":16,"type":"VEC4","name":"accessorColors"},{"bufferView":3,"byteOffset":51032,"componentType":5126,"count":16,"type":"VEC2","name":"accessorUVs"}],"bufferViews":[{"buffer":0,"byteLength":15252,"name":"bufferViewScalar"},{"buffer":0,"byteOffset":15252,"byteLength":153480,"byteStride":12,"name":"bufferViewFloatVec3"},{"buffer":0,"byteOffset":168732,"byteLength":102320,"byteStride":16,"name":"bufferViewFloatVec4"},{"buffer":0,"byteOffset":271052,"byteLength":51160,"byteStride":8,"name":"bufferViewFloatVec2"}],"buffers":[{"uri":"sgy_x_4hg.bin","byteLength":322212}],"materials":[{"pbrMetallicRoughness":{"baseColorTexture":{"index":0},"metallicFactor":0.0,"roughnessFactor":0.450053632},"name":"Material #40542763"},{"pbrMetallicRoughness":{"baseColorTexture":{"index":1},"metallicFactor":0.0,"roughnessFactor":0.450053632},"name":"Material #40542777"},{"pbrMetallicRoughness":{"baseColorTexture":{"index":2},"metallicFactor":0.0,"roughnessFactor":0.450053632},"name":"Material #40542768"},{"pbrMetallicRoughness":{"baseColorTexture":{"index":3},"metallicFactor":0.0,"roughnessFactor":0.450053632},"name":"Material #40542774"},{"pbrMetallicRoughness":{"baseColorTexture":{"index":4},"metallicFactor":0.0,"roughnessFactor":0.450053632},"name":"Material #40542767"},{"pbrMetallicRoughness":{"baseColorTexture":{"index":5},"metallicFactor":0.0,"roughnessFactor":0.450053632},"name":"Material #40542766"},{"pbrMetallicRoughness":{"baseColorTexture":{"index":6},"metallicFactor":0.0,"roughnessFactor":0.450053632},"name":"Material #40542770"},{"pbrMetallicRoughness":{"baseColorTexture":{"index":7},"metallicFactor":0.0,"roughnessFactor":0.450053632},"name":"Material #40542771"},{"pbrMetallicRoughness":{"baseColorTexture":{"index":8},"metallicFactor":0.0,"roughnessFactor":0.450053632},"name":"Material #40542772"},{"pbrMetallicRoughness":{"baseColorTexture":{"index":9},"metallicFactor":0.0,"roughnessFactor":0.450053632},"name":"Material #40542773"},{"pbrMetallicRoughness":{"baseColorTexture":{"index":10},"metallicFactor":0.0,"roughnessFactor":0.450053632},"name":"Material #40542775"},{"pbrMetallicRoughness":{"baseColorTexture":{"index":11},"metallicFactor":0.0,"roughnessFactor":0.450053632},"name":"Material #40542776"},{"pbrMetallicRoughness":{"baseColorTexture":{"index":12},"metallicFactor":0.0,"roughnessFactor":0.450053632},"name":"Material #40542765"},{"pbrMetallicRoughness":{"baseColorTexture":{"index":13},"metallicFactor":0.0,"roughnessFactor":0.450053632},"name":"Material #405427698"},{"pbrMetallicRoughness":{"baseColorTexture":{"index":14},"metallicFactor":0.0,"roughnessFactor":0.450053632},"name":"Material #40542778"},{"pbrMetallicRoughness":{"baseColorTexture":{"index":15},"metallicFactor":0.0,"roughnessFactor":0.450053632},"name":"Material #40542764"},{"pbrMetallicRoughness":{"baseColorTexture":{"index":16},"metallicFactor":0.0,"roughnessFactor":0.450053632},"name":"Material #40542779"},{"pbrMetallicRoughness":{"baseColorTexture":{"index":13},"metallicFactor":0.0,"roughnessFactor":0.450053632},"name":"Material #40542769"},{"pbrMetallicRoughness":{"baseColorTexture":{"index":2},"metallicFactor":0.0,"roughnessFactor":0.450053632},"name":"Material #4054276899"},{"pbrMetallicRoughness":{"baseColorTexture":{"index":17},"metallicFactor":0.0,"roughnessFactor":0.450053632},"name":"Material #40542780"},{"pbrMetallicRoughness":{"baseColorTexture":{"index":18},"metallicFactor":0.0,"roughnessFactor":0.450053632},"name":"Material #40542781"},{"pbrMetallicRoughness":{"baseColorTexture":{"index":19},"metallicFactor":0.0,"roughnessFactor":0.450053632},"name":"Material #40544209"},{"pbrMetallicRoughness":{"baseColorTexture":{"index":20},"metallicFactor":0.0,"roughnessFactor":0.450053632},"name":"Material #40544335"},{"pbrMetallicRoughness":{"baseColorTexture":{"index":21},"metallicFactor":0.0,"roughnessFactor":0.450053632},"name":"Material #40544208"}],"textures":[{"sampler":0,"source":0,"name":"011.jpg"},{"sampler":0,"source":1,"name":"sgy_x_37.jpg"},{"sampler":0,"source":2,"name":"sgy_x_27.png"},{"sampler":0,"source":3,"name":"sgy_x_34.jpg"},{"sampler":0,"source":4,"name":"sgy_x_26.png"},{"sampler":0,"source":5,"name":"sgy_4q_46.jpg"},{"sampler":0,"source":6,"name":"sgy_x_29.jpg"},{"sampler":0,"source":7,"name":"sgy_x_31.jpg"},{"sampler":0,"source":8,"name":"sgy_x_32.jpg"},{"sampler":0,"source":9,"name":"sgy_x_33.jpg"},{"sampler":0,"source":10,"name":"sgy_x_35.png"},{"sampler":0,"source":11,"name":"sgy_x_36.jpg"},{"sampler":0,"source":12,"name":"sgy_3q_15.jpg"},{"sampler":0,"source":13,"name":"sgy_x_28.png"},{"sampler":0,"source":14,"name":"sgy_x_38.jpg"},{"sampler":0,"source":15,"name":"sgy_1q_06.jpg"},{"sampler":0,"source":16,"name":"sgy_x_39.png"},{"sampler":0,"source":17,"name":"sgy_x_40.jpg"},{"sampler":0,"source":18,"name":"sgy_x_41.png"},{"sampler":0,"source":19,"name":"ssh_010.jpg"},{"sampler":0,"source":20,"name":"ssh_011.jpg"},{"sampler":0,"source":21,"name":"ssh_009.jpg"}],"images":[{"uri":"011.jpg"},{"uri":"sgy_x_37.jpg"},{"uri":"sgy_x_27.png"},{"uri":"sgy_x_34.jpg"},{"uri":"sgy_x_26.png"},{"uri":"sgy_4q_46.jpg"},{"uri":"sgy_x_29.jpg"},{"uri":"sgy_x_31.jpg"},{"uri":"sgy_x_32.jpg"},{"uri":"sgy_x_33.jpg"},{"uri":"sgy_x_35.png"},{"uri":"sgy_x_36.jpg"},{"uri":"sgy_3q_15.jpg"},{"uri":"sgy_x_28.png"},{"uri":"sgy_x_38.jpg"},{"uri":"sgy_1q_06.jpg"},{"uri":"sgy_x_39.png"},{"uri":"sgy_x_40.jpg"},{"uri":"sgy_x_41.png"},{"uri":"ssh_010.jpg"},{"uri":"ssh_011.jpg"},{"uri":"ssh_009.jpg"}],"samplers":[{"magFilter":9729,"minFilter":9987}]}