{
  "accessors": [
    {
      "name": "polySurface142_1_0_positions",
      "componentType": 5126,
      "count": 44,
      "min": [
        -3.0571939945220947,
        -20.911754608154297,
        4.247776031494141
      ],
      "max": [
        2.984323024749756,
        -17.948551177978516,
        4.647776126861572
      ],
      "type": "VEC3",
      "bufferView": 0,
      "byteOffset": 0
    },
    {
      "name": "polySurface142_1_0_normals",
      "componentType": 5126,
      "count": 44,
      "min": [
        -1,
        -1,
        -1
      ],
      "max": [
        1,
        0,
        1
      ],
      "type": "VEC3",
      "bufferView": 1,
      "byteOffset": 0
    },
    {
      "name": "polySurface142_1_0_texcoords",
      "componentType": 5126,
      "count": 44,
      "min": [
        -0.018278999254107475,
        0.2514970004558563
      ],
      "max": [
        0.9124150276184082,
        0.5975499749183655
      ],
      "type": "VEC2",
      "bufferView": 2,
      "byteOffset": 0
    },
    {
      "name": "polySurface142_1_0_indices",
      "componentType": 5123,
      "count": 102,
      "min": [
        0
      ],
      "max": [
        43
      ],
      "type": "SCALAR",
      "bufferView": 3,
      "byteOffset": 0
    },
    {
      "name": "polySurface142_1_1_positions",
      "componentType": 5126,
      "count": 24,
      "min": [
        -3.068571090698242,
        -20.461708068847656,
        4.640158176422119
      ],
      "max": [
        1.342079997062683,
        -20.240230560302734,
        6.011238098144531
      ],
      "type": "VEC3",
      "bufferView": 0,
      "byteOffset": 528
    },
    {
      "name": "polySurface142_1_1_normals",
      "componentType": 5126,
      "count": 24,
      "min": [
        -1,
        -1,
        -1
      ],
      "max": [
        1,
        1,
        1
      ],
      "type": "VEC3",
      "bufferView": 1,
      "byteOffset": 528
    },
    {
      "name": "polySurface142_1_1_texcoords",
      "componentType": 5126,
      "count": 24,
      "min": [
        0,
        -0.11072099953889847
      ],
      "max": [
        0.9979379773139954,
        0.9550349712371826
      ],
      "type": "VEC2",
      "bufferView": 2,
      "byteOffset": 352
    },
    {
      "name": "polySurface142_1_1_indices",
      "componentType": 5123,
      "count": 36,
      "min": [
        0
      ],
      "max": [
        23
      ],
      "type": "SCALAR",
      "bufferView": 3,
      "byteOffset": 204
    },
    {
      "name": "polySurface142_1_2_positions",
      "componentType": 5126,
      "count": 96,
      "min": [
        -3.436065912246704,
        -20.91175651550293,
        0.05486699938774109
      ],
      "max": [
        3.3631949424743652,
        -17.027692794799805,
        4.645936965942383
      ],
      "type": "VEC3",
      "bufferView": 0,
      "byteOffset": 816
    },
    {
      "name": "polySurface142_1_2_normals",
      "componentType": 5126,
      "count": 96,
      "min": [
        -1,
        -1,
        -1
      ],
      "max": [
        1,
        1,
        1
      ],
      "type": "VEC3",
      "bufferView": 1,
      "byteOffset": 816
    },
    {
      "name": "polySurface142_1_2_texcoords",
      "componentType": 5126,
      "count": 96,
      "min": [
        0,
        0.07252799719572067
      ],
      "max": [
        0.9664639830589294,
        0.9519109725952148
      ],
      "type": "VEC2",
      "bufferView": 2,
      "byteOffset": 544
    },
    {
      "name": "polySurface142_1_2_indices",
      "componentType": 5123,
      "count": 144,
      "min": [
        0
      ],
      "max": [
        95
      ],
      "type": "SCALAR",
      "bufferView": 3,
      "byteOffset": 276
    },
    {
      "name": "polySurface142_1_3_positions",
      "componentType": 5126,
      "count": 64,
      "min": [
        -5.47672176361084,
        -18.536041259765625,
        5.639622211456299
      ],
      "max": [
        5.40385103225708,
        20.736539840698242,
        8.29461669921875
      ],
      "type": "VEC3",
      "bufferView": 0,
      "byteOffset": 1968
    },
    {
      "name": "polySurface142_1_3_normals",
      "componentType": 5126,
      "count": 64,
      "min": [
        -0.9230132699012756,
        -1,
        -0.9230125546455383
      ],
      "max": [
        0.923012912273407,
        1,
        0
      ],
      "type": "VEC3",
      "bufferView": 1,
      "byteOffset": 1968
    },
    {
      "name": "polySurface142_1_3_texcoords",
      "componentType": 5126,
      "count": 64,
      "min": [
        -6.851180076599121,
        -1.6655060052871704
      ],
      "max": [
        5.349771022796631,
        1.943971037864685
      ],
      "type": "VEC2",
      "bufferView": 2,
      "byteOffset": 1312
    },
    {
      "name": "polySurface142_1_3_indices",
      "componentType": 5123,
      "count": 96,
      "min": [
        0
      ],
      "max": [
        63
      ],
      "type": "SCALAR",
      "bufferView": 3,
      "byteOffset": 564
    },
    {
      "name": "polySurface142_1_4_positions",
      "componentType": 5126,
      "count": 36,
      "min": [
        -6.104578018188477,
        -18.639738082885742,
        5.887844085693359
      ],
      "max": [
        6.104578018188477,
        20.911754608154297,
        8.41972541809082
      ],
      "type": "VEC3",
      "bufferView": 0,
      "byteOffset": 2736
    },
    {
      "name": "polySurface142_1_4_normals",
      "componentType": 5126,
      "count": 36,
      "min": [
        -0.9237026572227478,
        -0.9999977350234985,
        -0.9237570762634277
      ],
      "max": [
        0.9236992597579956,
        0.9999976754188538,
        0.9237570762634277
      ],
      "type": "VEC3",
      "bufferView": 1,
      "byteOffset": 2736
    },
    {
      "name": "polySurface142_1_4_texcoords",
      "componentType": 5126,
      "count": 36,
      "min": [
        -3.675539016723633,
        1.4335559606552124
      ],
      "max": [
        4.675539016723633,
        3.091439962387085
      ],
      "type": "VEC2",
      "bufferView": 2,
      "byteOffset": 1824
    },
    {
      "name": "polySurface142_1_4_indices",
      "componentType": 5123,
      "count": 60,
      "min": [
        0
      ],
      "max": [
        35
      ],
      "type": "SCALAR",
      "bufferView": 3,
      "byteOffset": 756
    },
    {
      "name": "polySurface142_1_5_positions",
      "componentType": 5126,
      "count": 96,
      "min": [
        -5.369542121887207,
        -18.168190002441406,
        4.426945209503174
      ],
      "max": [
        5.369542121887207,
        20.525793075561523,
        4.8413848876953125
      ],
      "type": "VEC3",
      "bufferView": 0,
      "byteOffset": 3168
    },
    {
      "name": "polySurface142_1_5_normals",
      "componentType": 5126,
      "count": 96,
      "min": [
        -1,
        -1,
        -1
      ],
      "max": [
        1,
        1,
        1
      ],
      "type": "VEC3",
      "bufferView": 1,
      "byteOffset": 3168
    },
    {
      "name": "polySurface142_1_5_texcoords",
      "componentType": 5126,
      "count": 96,
      "min": [
        -7.274456977844238,
        0.10441499948501587
      ],
      "max": [
        8.275687217712402,
        1
      ],
      "type": "VEC2",
      "bufferView": 2,
      "byteOffset": 2112
    },
    {
      "name": "polySurface142_1_5_indices",
      "componentType": 5123,
      "count": 204,
      "min": [
        0
      ],
      "max": [
        95
      ],
      "type": "SCALAR",
      "bufferView": 3,
      "byteOffset": 876
    },
    {
      "name": "polySurface142_1_6_positions",
      "componentType": 5126,
      "count": 237,
      "min": [
        -5.332131862640381,
        -18.162626266479492,
        0.006914000026881695
      ],
      "max": [
        5.332131862640381,
        20.487945556640625,
        7.973404884338379
      ],
      "type": "VEC3",
      "bufferView": 0,
      "byteOffset": 4320
    },
    {
      "name": "polySurface142_1_6_normals",
      "componentType": 5126,
      "count": 237,
      "min": [
        -0.000009000000318337698,
        -1,
        -1
      ],
      "max": [
        0.0000019999999949504854,
        1,
        0.0000019999999949504854
      ],
      "type": "VEC3",
      "bufferView": 1,
      "byteOffset": 4320
    },
    {
      "name": "polySurface142_1_6_texcoords",
      "componentType": 5126,
      "count": 237,
      "min": [
        -1.0061589479446411,
        -1.7767950296401978
      ],
      "max": [
        6.803802013397217,
        2.1126089096069336
      ],
      "type": "VEC2",
      "bufferView": 2,
      "byteOffset": 2880
    },
    {
      "name": "polySurface142_1_6_indices",
      "componentType": 5123,
      "count": 405,
      "min": [
        0
      ],
      "max": [
        236
      ],
      "type": "SCALAR",
      "bufferView": 3,
      "byteOffset": 1284
    },
    {
      "name": "polySurface142_1_7_positions",
      "componentType": 5126,
      "count": 75,
      "min": [
        -5.332131862640381,
        -18.162626266479492,
        0.006914000026881695
      ],
      "max": [
        5.332131862640381,
        20.487945556640625,
        5.750637054443359
      ],
      "type": "VEC3",
      "bufferView": 0,
      "byteOffset": 7164
    },
    {
      "name": "polySurface142_1_7_normals",
      "componentType": 5126,
      "count": 75,
      "min": [
        -1,
        0,
        -9.999999974752427e-7
      ],
      "max": [
        1,
        0,
        0
      ],
      "type": "VEC3",
      "bufferView": 1,
      "byteOffset": 7164
    },
    {
      "name": "polySurface142_1_7_texcoords",
      "componentType": 5126,
      "count": 75,
      "min": [
        -2.9658689498901367,
        -0.14775800704956055
      ],
      "max": [
        4.1976799964904785,
        1.048341989517212
      ],
      "type": "VEC2",
      "bufferView": 2,
      "byteOffset": 4776
    },
    {
      "name": "polySurface142_1_7_indices",
      "componentType": 5123,
      "count": 123,
      "min": [
        0
      ],
      "max": [
        74
      ],
      "type": "SCALAR",
      "bufferView": 3,
      "byteOffset": 2096
    },
    {
      "name": "polySurface142_1_8_positions",
      "componentType": 5126,
      "count": 8,
      "min": [
        -3.332390069961548,
        -18.162626266479492,
        0.006914000026881695
      ],
      "max": [
        0,
        -18.162622451782227,
        4.031190872192383
      ],
      "type": "VEC3",
      "bufferView": 0,
      "byteOffset": 8064
    },
    {
      "name": "polySurface142_1_8_normals",
      "componentType": 5126,
      "count": 8,
      "min": [
        0,
        -1,
        0
      ],
      "max": [
        0.0000019999999949504854,
        -1,
        0
      ],
      "type": "VEC3",
      "bufferView": 1,
      "byteOffset": 8064
    },
    {
      "name": "polySurface142_1_8_texcoords",
      "componentType": 5126,
      "count": 8,
      "min": [
        -0.030750999227166176,
        0.09350399672985077
      ],
      "max": [
        0.7928850054740906,
        1.0861430168151855
      ],
      "type": "VEC2",
      "bufferView": 2,
      "byteOffset": 5376
    },
    {
      "name": "polySurface142_1_8_indices",
      "componentType": 5123,
      "count": 12,
      "min": [
        0
      ],
      "max": [
        7
      ],
      "type": "SCALAR",
      "bufferView": 3,
      "byteOffset": 2344
    },
    {
      "name": "polySurface142_1_9_positions",
      "componentType": 5126,
      "count": 4,
      "min": [
        0,
        -18.162626266479492,
        0.006914000026881695
      ],
      "max": [
        1.5996400117874146,
        -18.162622451782227,
        4.031190872192383
      ],
      "type": "VEC3",
      "bufferView": 0,
      "byteOffset": 8160
    },
    {
      "name": "polySurface142_1_9_normals",
      "componentType": 5126,
      "count": 4,
      "min": [
        -0.0000019999999949504854,
        -1,
        -9.999999974752427e-7
      ],
      "max": [
        -9.999999974752427e-7,
        -1,
        0
      ],
      "type": "VEC3",
      "bufferView": 1,
      "byteOffset": 8160
    },
    {
      "name": "polySurface142_1_9_texcoords",
      "componentType": 5126,
      "count": 4,
      "min": [
        0.27510398626327515,
        0.09140600264072418
      ],
      "max": [
        0.7420539855957031,
        1.0817710161209106
      ],
      "type": "VEC2",
      "bufferView": 2,
      "byteOffset": 5440
    },
    {
      "name": "polySurface142_1_9_indices",
      "componentType": 5123,
      "count": 6,
      "min": [
        0
      ],
      "max": [
        3
      ],
      "type": "SCALAR",
      "bufferView": 3,
      "byteOffset": 2368
    },
    {
      "name": "polySurface142_1_10_positions",
      "componentType": 5126,
      "count": 11,
      "min": [
        3.344360113143921,
        -18.162628173828125,
        0.006914000026881695
      ],
      "max": [
        5.332131862640381,
        -18.162622451782227,
        4.0311808586120605
      ],
      "type": "VEC3",
      "bufferView": 0,
      "byteOffset": 8208
    },
    {
      "name": "polySurface142_1_10_normals",
      "componentType": 5126,
      "count": 11,
      "min": [
        -0.000003000000106112566,
        -1,
        0
      ],
      "max": [
        0.0000019999999949504854,
        -1,
        9.999999974752427e-7
      ],
      "type": "VEC3",
      "bufferView": 1,
      "byteOffset": 8208
    },
    {
      "name": "polySurface142_1_10_texcoords",
      "componentType": 5126,
      "count": 11,
      "min": [
        -0.02414100058376789,
        -0.917186975479126
      ],
      "max": [
        0.9561589956283569,
        1.9908809661865234
      ],
      "type": "VEC2",
      "bufferView": 2,
      "byteOffset": 5472
    },
    {
      "name": "polySurface142_1_10_indices",
      "componentType": 5123,
      "count": 15,
      "min": [
        0
      ],
      "max": [
        10
      ],
      "type": "SCALAR",
      "bufferView": 3,
      "byteOffset": 2380
    },
    {
      "name": "polySurface142_1_11_positions",
      "componentType": 5126,
      "count": 7,
      "min": [
        1.5996400117874146,
        -18.162628173828125,
        0.006914000026881695
      ],
      "max": [
        3.344360113143921,
        -18.162622451782227,
        4.031187057495117
      ],
      "type": "VEC3",
      "bufferView": 0,
      "byteOffset": 8340
    },
    {
      "name": "polySurface142_1_11_normals",
      "componentType": 5126,
      "count": 7,
      "min": [
        -9.999999974752427e-7,
        -1,
        -9.999999974752427e-7
      ],
      "max": [
        9.999999974752427e-7,
        -1,
        9.999999974752427e-7
      ],
      "type": "VEC3",
      "bufferView": 1,
      "byteOffset": 8340
    },
    {
      "name": "polySurface142_1_11_texcoords",
      "componentType": 5126,
      "count": 7,
      "min": [
        -0.0030060000717639923,
        0.045524001121520996
      ],
      "max": [
        1.0384949445724487,
        0.9987419843673706
      ],
      "type": "VEC2",
      "bufferView": 2,
      "byteOffset": 5560
    },
    {
      "name": "polySurface142_1_11_indices",
      "componentType": 5123,
      "count": 9,
      "min": [
        0
      ],
      "max": [
        6
      ],
      "type": "SCALAR",
      "bufferView": 3,
      "byteOffset": 2412
    },
    {
      "name": "polySurface142_1_12_positions",
      "componentType": 5126,
      "count": 4,
      "min": [
        3.344360113143921,
        -18.162628173828125,
        0.006914000026881695
      ],
      "max": [
        5.104753017425537,
        -18.162622451782227,
        2.8333470821380615
      ],
      "type": "VEC3",
      "bufferView": 0,
      "byteOffset": 8424
    },
    {
      "name": "polySurface142_1_12_normals",
      "componentType": 5126,
      "count": 4,
      "min": [
        0,
        -1,
        -9.999999974752427e-7
      ],
      "max": [
        0.0000019999999949504854,
        -1,
        0
      ],
      "type": "VEC3",
      "bufferView": 1,
      "byteOffset": 8424
    },
    {
      "name": "polySurface142_1_12_texcoords",
      "componentType": 5126,
      "count": 4,
      "min": [
        -0.006905999965965748,
        0.0024999999441206455
      ],
      "max": [
        1.022428035736084,
        0.9818260073661804
      ],
      "type": "VEC2",
      "bufferView": 2,
      "byteOffset": 5616
    },
    {
      "name": "polySurface142_1_12_indices",
      "componentType": 5123,
      "count": 6,
      "min": [
        0
      ],
      "max": [
        3
      ],
      "type": "SCALAR",
      "bufferView": 3,
      "byteOffset": 2432
    },
    {
      "name": "polySurface142_1_13_positions",
      "componentType": 5126,
      "count": 8,
      "min": [
        -0.6357079744338989,
        -18.162626266479492,
        4.830696105957031
      ],
      "max": [
        0.5938500165939331,
        -18.162622451782227,
        7.306573867797852
      ],
      "type": "VEC3",
      "bufferView": 0,
      "byteOffset": 8472
    },
    {
      "name": "polySurface142_1_13_normals",
      "componentType": 5126,
      "count": 8,
      "min": [
        -0.0000019999999949504854,
        -1,
        -9.999999974752427e-7
      ],
      "max": [
        9.999999974752427e-7,
        -1,
        9.999999974752427e-7
      ],
      "type": "VEC3",
      "bufferView": 1,
      "byteOffset": 8472
    },
    {
      "name": "polySurface142_1_13_texcoords",
      "componentType": 5126,
      "count": 8,
      "min": [
        0.3412669897079468,
        0.10537300258874893
      ],
      "max": [
        0.6885089874267578,
        0.9722970128059387
      ],
      "type": "VEC2",
      "bufferView": 2,
      "byteOffset": 5648
    },
    {
      "name": "polySurface142_1_13_indices",
      "componentType": 5123,
      "count": 12,
      "min": [
        0
      ],
      "max": [
        7
      ],
      "type": "SCALAR",
      "bufferView": 3,
      "byteOffset": 2444
    },
    {
      "name": "polySurface142_1_14_positions",
      "componentType": 5126,
      "count": 14,
      "min": [
        -5.332129001617432,
        15.877176284790039,
        0.0069149998016655445
      ],
      "max": [
        5.332129001617432,
        19.209125518798828,
        4.8971428871154785
      ],
      "type": "VEC3",
      "bufferView": 0,
      "byteOffset": 8568
    },
    {
      "name": "polySurface142_1_14_normals",
      "componentType": 5126,
      "count": 14,
      "min": [
        -1,
        0,
        0
      ],
      "max": [
        1,
        0,
        0
      ],
      "type": "VEC3",
      "bufferView": 1,
      "byteOffset": 8568
    },
    {
      "name": "polySurface142_1_14_texcoords",
      "componentType": 5126,
      "count": 14,
      "min": [
        0.07933200150728226,
        0.021405000239610672
      ],
      "max": [
        0.9104660153388977,
        0.986856997013092
      ],
      "type": "VEC2",
      "bufferView": 2,
      "byteOffset": 5712
    },
    {
      "name": "polySurface142_1_14_indices",
      "componentType": 5123,
      "count": 24,
      "min": [
        0
      ],
      "max": [
        13
      ],
      "type": "SCALAR",
      "bufferView": 3,
      "byteOffset": 2468
    },
    {
      "name": "polySurface142_1_15_positions",
      "componentType": 5126,
      "count": 8,
      "min": [
        5.332129001617432,
        19.209123611450195,
        0.0069149998016655445
      ],
      "max": [
        5.332129001617432,
        20.487945556640625,
        4.38583517074585
      ],
      "type": "VEC3",
      "bufferView": 0,
      "byteOffset": 8736
    },
    {
      "name": "polySurface142_1_15_normals",
      "componentType": 5126,
      "count": 8,
      "min": [
        1,
        0,
        0
      ],
      "max": [
        1,
        0,
        0
      ],
      "type": "VEC3",
      "bufferView": 1,
      "byteOffset": 8736
    },
    {
      "name": "polySurface142_1_15_texcoords",
      "componentType": 5126,
      "count": 8,
      "min": [
        0.8719260096549988,
        0.16670799255371094
      ],
      "max": [
        0.9965280294418335,
        0.9261689782142639
      ],
      "type": "VEC2",
      "bufferView": 2,
      "byteOffset": 5824
    },
    {
      "name": "polySurface142_1_15_indices",
      "componentType": 5123,
      "count": 12,
      "min": [
        0
      ],
      "max": [
        7
      ],
      "type": "SCALAR",
      "bufferView": 3,
      "byteOffset": 2516
    },
    {
      "name": "polySurface142_1_16_positions",
      "componentType": 5126,
      "count": 20,
      "min": [
        -4.77594518661499,
        -18.18487548828125,
        2.375243902206421
      ],
      "max": [
        -3.775944948196411,
        -17.965274810791016,
        3.375243902206421
      ],
      "type": "VEC3",
      "bufferView": 0,
      "byteOffset": 8832
    },
    {
      "name": "polySurface142_1_16_normals",
      "componentType": 5126,
      "count": 20,
      "min": [
        -1,
        -1,
        -1
      ],
      "max": [
        1,
        0,
        1
      ],
      "type": "VEC3",
      "bufferView": 1,
      "byteOffset": 8832
    },
    {
      "name": "polySurface142_1_16_texcoords",
      "componentType": 5126,
      "count": 20,
      "min": [
        -0.03697200119495392,
        -0.03031099960207939
      ],
      "max": [
        1.1131130456924438,
        1.0303109884262085
      ],
      "type": "VEC2",
      "bufferView": 2,
      "byteOffset": 5888
    },
    {
      "name": "polySurface142_1_16_indices",
      "componentType": 5123,
      "count": 30,
      "min": [
        0
      ],
      "max": [
        19
      ],
      "type": "SCALAR",
      "bufferView": 3,
      "byteOffset": 2540
    }
  ],
  "asset": {
    "generator": "obj2gltf",
    "version": "2.0"
  },
  "buffers": [
    {
      "name": "sgy_q5_001",
      "byteLength": 26792,
      "uri": "data:application/octet-stream;base64,"
    }
  ],
  "bufferViews": [
    {
      "name": "bufferView_0",
      "buffer": 0,
      "byteLength": 9072,
      "byteOffset": 0,
      "byteStride": 12,
      "target": 34962
    },
    {
      "name": "bufferView_1",
      "buffer": 0,
      "byteLength": 9072,
      "byteOffset": 9072,
      "byteStride": 12,
      "target": 34962
    },
    {
      "name": "bufferView_2",
      "buffer": 0,
      "byteLength": 6048,
      "byteOffset": 18144,
      "byteStride": 8,
      "target": 34962
    },
    {
      "name": "bufferView_3",
      "buffer": 0,
      "byteLength": 2600,
      "byteOffset": 24192,
      "target": 34963
    }
  ],
  "images": [
    {
      "name": "sgy_Q5_12",
      "uri": "sgy_Q5_12.png"
    },
    {
      "name": "sgy_Q5_03",
      "uri": "sgy_Q5_03.png"
    },
    {
      "name": "sgy_Q5_05",
      "uri": "sgy_Q5_05.png"
    },
    {
      "name": "sgy_Q5_07",
      "uri": "sgy_Q5_07.png"
    },
    {
      "name": "sgy_Q5_02",
      "uri": "sgy_Q5_02.png"
    },
    {
      "name": "sgy_Q5_16",
      "uri": "sgy_Q5_16.png"
    },
    {
      "name": "sgy_Q5_09",
      "uri": "sgy_Q5_09.png"
    },
    {
      "name": "sgy_Q5_08",
      "uri": "sgy_Q5_08.png"
    },
    {
      "name": "sgy_Q5_06",
      "uri": "sgy_Q5_06.png"
    },
    {
      "name": "sgy_Q5_11",
      "uri": "sgy_Q5_11.png"
    },
    {
      "name": "sgy_Q5_15",
      "uri": "sgy_Q5_15.png"
    },
    {
      "name": "sgy_Q5_01",
      "uri": "sgy_Q5_01.png"
    },
    {
      "name": "sgy_Q5_10",
      "uri": "sgy_Q5_10.png"
    },
    {
      "name": "sgy_Q5_13",
      "uri": "sgy_Q5_13.png"
    },
    {
      "name": "sgy_Q5_14",
      "uri": "sgy_Q5_14.png"
    }
  ],
  "materials": [
    {
      "name": "lambert8SG",
      "pbrMetallicRoughness": {
        "baseColorTexture": {
          "index": 0
        },
        "baseColorFactor": [
          1,
          1,
          1,
          1
        ],
        "metallicFactor": 0,
        "roughnessFactor": 1
      },
      "emissiveFactor": [
        0,
        0,
        0
      ],
      "alphaMode": "OPAQUE",
      "doubleSided": false
    },
    {
      "name": "lambert5SG",
      "pbrMetallicRoughness": {
        "baseColorTexture": {
          "index": 1
        },
        "baseColorFactor": [
          1,
          1,
          1,
          1
        ],
        "metallicFactor": 0,
        "roughnessFactor": 1
      },
      "emissiveFactor": [
        0,
        0,
        0
      ],
      "alphaMode": "OPAQUE",
      "doubleSided": false
    },
    {
      "name": "lambert9SG",
      "pbrMetallicRoughness": {
        "baseColorTexture": {
          "index": 0
        },
        "baseColorFactor": [
          1,
          1,
          1,
          1
        ],
        "metallicFactor": 0,
        "roughnessFactor": 1
      },
      "emissiveFactor": [
        0,
        0,
        0
      ],
      "alphaMode": "OPAQUE",
      "doubleSided": false
    },
    {
      "name": "lambert31SG",
      "pbrMetallicRoughness": {
        "baseColorTexture": {
          "index": 2
        },
        "baseColorFactor": [
          1,
          1,
          1,
          1
        ],
        "metallicFactor": 0,
        "roughnessFactor": 1
      },
      "emissiveFactor": [
        0,
        0,
        0
      ],
      "alphaMode": "OPAQUE",
      "doubleSided": false
    },
    {
      "name": "lambert23SG",
      "pbrMetallicRoughness": {
        "baseColorTexture": {
          "index": 3
        },
        "baseColorFactor": [
          1,
          1,
          1,
          1
        ],
        "metallicFactor": 0,
        "roughnessFactor": 1
      },
      "emissiveFactor": [
        0,
        0,
        0
      ],
      "alphaMode": "OPAQUE",
      "doubleSided": false
    },
    {
      "name": "lambert33SG",
      "pbrMetallicRoughness": {
        "baseColorTexture": {
          "index": 4
        },
        "baseColorFactor": [
          1,
          1,
          1,
          1
        ],
        "metallicFactor": 0,
        "roughnessFactor": 1
      },
      "emissiveFactor": [
        0,
        0,
        0
      ],
      "alphaMode": "OPAQUE",
      "doubleSided": false
    },
    {
      "name": "lambert27SG",
      "pbrMetallicRoughness": {
        "baseColorTexture": {
          "index": 2
        },
        "baseColorFactor": [
          1,
          1,
          1,
          1
        ],
        "metallicFactor": 0,
        "roughnessFactor": 1
      },
      "emissiveFactor": [
        0,
        0,
        0
      ],
      "alphaMode": "OPAQUE",
      "doubleSided": false
    },
    {
      "name": "lambert24SG",
      "pbrMetallicRoughness": {
        "baseColorTexture": {
          "index": 5
        },
        "baseColorFactor": [
          1,
          1,
          1,
          1
        ],
        "metallicFactor": 0,
        "roughnessFactor": 1
      },
      "emissiveFactor": [
        0,
        0,
        0
      ],
      "alphaMode": "OPAQUE",
      "doubleSided": false
    },
    {
      "name": "lambert10SG",
      "pbrMetallicRoughness": {
        "baseColorTexture": {
          "index": 6
        },
        "baseColorFactor": [
          1,
          1,
          1,
          1
        ],
        "metallicFactor": 0,
        "roughnessFactor": 1
      },
      "emissiveFactor": [
        0,
        0,
        0
      ],
      "alphaMode": "OPAQUE",
      "doubleSided": false
    },
    {
      "name": "lambert12SG",
      "pbrMetallicRoughness": {
        "baseColorTexture": {
          "index": 7
        },
        "baseColorFactor": [
          1,
          1,
          1,
          1
        ],
        "metallicFactor": 0,
        "roughnessFactor": 1
      },
      "emissiveFactor": [
        0,
        0,
        0
      ],
      "alphaMode": "OPAQUE",
      "doubleSided": false
    },
    {
      "name": "lambert17SG",
      "pbrMetallicRoughness": {
        "baseColorTexture": {
          "index": 8
        },
        "baseColorFactor": [
          1,
          1,
          1,
          1
        ],
        "metallicFactor": 0,
        "roughnessFactor": 1
      },
      "emissiveFactor": [
        0,
        0,
        0
      ],
      "alphaMode": "OPAQUE",
      "doubleSided": false
    },
    {
      "name": "lambert13SG",
      "pbrMetallicRoughness": {
        "baseColorTexture": {
          "index": 9
        },
        "baseColorFactor": [
          1,
          1,
          1,
          1
        ],
        "metallicFactor": 0,
        "roughnessFactor": 1
      },
      "emissiveFactor": [
        0,
        0,
        0
      ],
      "alphaMode": "OPAQUE",
      "doubleSided": false
    },
    {
      "name": "lambert15SG",
      "pbrMetallicRoughness": {
        "baseColorTexture": {
          "index": 10
        },
        "baseColorFactor": [
          1,
          1,
          1,
          1
        ],
        "metallicFactor": 0,
        "roughnessFactor": 1
      },
      "emissiveFactor": [
        0,
        0,
        0
      ],
      "alphaMode": "OPAQUE",
      "doubleSided": false
    },
    {
      "name": "lambert20SG",
      "pbrMetallicRoughness": {
        "baseColorTexture": {
          "index": 11
        },
        "baseColorFactor": [
          1,
          1,
          1,
          1
        ],
        "metallicFactor": 0,
        "roughnessFactor": 1
      },
      "emissiveFactor": [
        0,
        0,
        0
      ],
      "alphaMode": "OPAQUE",
      "doubleSided": false
    },
    {
      "name": "lambert30SG",
      "pbrMetallicRoughness": {
        "baseColorTexture": {
          "index": 12
        },
        "baseColorFactor": [
          1,
          1,
          1,
          1
        ],
        "metallicFactor": 0,
        "roughnessFactor": 1
      },
      "emissiveFactor": [
        0,
        0,
        0
      ],
      "alphaMode": "OPAQUE",
      "doubleSided": false
    },
    {
      "name": "lambert28SG",
      "pbrMetallicRoughness": {
        "baseColorTexture": {
          "index": 13
        },
        "baseColorFactor": [
          1,
          1,
          1,
          1
        ],
        "metallicFactor": 0,
        "roughnessFactor": 1
      },
      "emissiveFactor": [
        0,
        0,
        0
      ],
      "alphaMode": "OPAQUE",
      "doubleSided": false
    },
    {
      "name": "lambert34SG",
      "pbrMetallicRoughness": {
        "baseColorTexture": {
          "index": 14
        },
        "baseColorFactor": [
          1,
          1,
          1,
          1
        ],
        "metallicFactor": 0,
        "roughnessFactor": 1
      },
      "emissiveFactor": [
        0,
        0,
        0
      ],
      "alphaMode": "OPAQUE",
      "doubleSided": false
    }
  ],
  "meshes": [
    {
      "name": "polySurface142_1",
      "primitives": [
        {
          "attributes": {
            "POSITION": 0,
            "NORMAL": 1,
            "TEXCOORD_0": 2
          },
          "indices": 3,
          "material": 0,
          "mode": 4
        },
        {
          "attributes": {
            "POSITION": 4,
            "NORMAL": 5,
            "TEXCOORD_0": 6
          },
          "indices": 7,
          "material": 1,
          "mode": 4
        },
        {
          "attributes": {
            "POSITION": 8,
            "NORMAL": 9,
            "TEXCOORD_0": 10
          },
          "indices": 11,
          "material": 2,
          "mode": 4
        },
        {
          "attributes": {
            "POSITION": 12,
            "NORMAL": 13,
            "TEXCOORD_0": 14
          },
          "indices": 15,
          "material": 3,
          "mode": 4
        },
        {
          "attributes": {
            "POSITION": 16,
            "NORMAL": 17,
            "TEXCOORD_0": 18
          },
          "indices": 19,
          "material": 4,
          "mode": 4
        },
        {
          "attributes": {
            "POSITION": 20,
            "NORMAL": 21,
            "TEXCOORD_0": 22
          },
          "indices": 23,
          "material": 5,
          "mode": 4
        },
        {
          "attributes": {
            "POSITION": 24,
            "NORMAL": 25,
            "TEXCOORD_0": 26
          },
          "indices": 27,
          "material": 6,
          "mode": 4
        },
        {
          "attributes": {
            "POSITION": 28,
            "NORMAL": 29,
            "TEXCOORD_0": 30
          },
          "indices": 31,
          "material": 7,
          "mode": 4
        },
        {
          "attributes": {
            "POSITION": 32,
            "NORMAL": 33,
            "TEXCOORD_0": 34
          },
          "indices": 35,
          "material": 8,
          "mode": 4
        },
        {
          "attributes": {
            "POSITION": 36,
            "NORMAL": 37,
            "TEXCOORD_0": 38
          },
          "indices": 39,
          "material": 9,
          "mode": 4
        },
        {
          "attributes": {
            "POSITION": 40,
            "NORMAL": 41,
            "TEXCOORD_0": 42
          },
          "indices": 43,
          "material": 10,
          "mode": 4
        },
        {
          "attributes": {
            "POSITION": 44,
            "NORMAL": 45,
            "TEXCOORD_0": 46
          },
          "indices": 47,
          "material": 11,
          "mode": 4
        },
        {
          "attributes": {
            "POSITION": 48,
            "NORMAL": 49,
            "TEXCOORD_0": 50
          },
          "indices": 51,
          "material": 12,
          "mode": 4
        },
        {
          "attributes": {
            "POSITION": 52,
            "NORMAL": 53,
            "TEXCOORD_0": 54
          },
          "indices": 55,
          "material": 13,
          "mode": 4
        },
        {
          "attributes": {
            "POSITION": 56,
            "NORMAL": 57,
            "TEXCOORD_0": 58
          },
          "indices": 59,
          "material": 14,
          "mode": 4
        },
        {
          "attributes": {
            "POSITION": 60,
            "NORMAL": 61,
            "TEXCOORD_0": 62
          },
          "indices": 63,
          "material": 15,
          "mode": 4
        },
        {
          "attributes": {
            "POSITION": 64,
            "NORMAL": 65,
            "TEXCOORD_0": 66
          },
          "indices": 67,
          "material": 16,
          "mode": 4
        }
      ]
    }
  ],
  "nodes": [
    {
      "name": "polySurface142",
      "mesh": 0
    }
  ],
  "samplers": [
    {
      "wrapS": 10497,
      "wrapT": 10497
    }
  ],
  "scene": 0,
  "scenes": [
    {
      "nodes": [
        0
      ]
    }
  ],
  "textures": [
    {
      "name": "sgy_Q5_12",
      "sampler": 0,
      "source": 0
    },
    {
      "name": "sgy_Q5_03",
      "sampler": 0,
      "source": 1
    },
    {
      "name": "sgy_Q5_05",
      "sampler": 0,
      "source": 2
    },
    {
      "name": "sgy_Q5_07",
      "sampler": 0,
      "source": 3
    },
    {
      "name": "sgy_Q5_02",
      "sampler": 0,
      "source": 4
    },
    {
      "name": "sgy_Q5_16",
      "sampler": 0,
      "source": 5
    },
    {
      "name": "sgy_Q5_09",
      "sampler": 0,
      "source": 6
    },
    {
      "name": "sgy_Q5_08",
      "sampler": 0,
      "source": 7
    },
    {
      "name": "sgy_Q5_06",
      "sampler": 0,
      "source": 8
    },
    {
      "name": "sgy_Q5_11",
      "sampler": 0,
      "source": 9
    },
    {
      "name": "sgy_Q5_15",
      "sampler": 0,
      "source": 10
    },
    {
      "name": "sgy_Q5_01",
      "sampler": 0,
      "source": 11
    },
    {
      "name": "sgy_Q5_10",
      "sampler": 0,
      "source": 12
    },
    {
      "name": "sgy_Q5_13",
      "sampler": 0,
      "source": 13
    },
    {
      "name": "sgy_Q5_14",
      "sampler": 0,
      "source": 14
    }
  ]
}
