{
  "accessors": [
    {
      "name": "Cylinder003_1_0_positions",
      "componentType": 5126,
      "count": 930,
      "min": [
        -6.694399833679199,
        -23.72760009765625,
        0
      ],
      "max": [
        6.694399833679199,
        23.72760009765625,
        43.83259963989258
      ],
      "type": "VEC3",
      "bufferView": 0,
      "byteOffset": 0
    },
    {
      "name": "Cylinder003_1_0_normals",
      "componentType": 5126,
      "count": 930,
      "min": [
        -1,
        -0.984815776348114,
        -0.36011362075805664
      ],
      "max": [
        1,
        0.984815776348114,
        0.9832826256752014
      ],
      "type": "VEC3",
      "bufferView": 1,
      "byteOffset": 0
    },
    {
      "name": "Cylinder003_1_0_texcoords",
      "componentType": 5126,
      "count": 930,
      "min": [
        0,
        0
      ],
      "max": [
        1.5,
        1
      ],
      "type": "VEC2",
      "bufferView": 2,
      "byteOffset": 0
    },
    {
      "name": "Cylinder003_1_0_indices",
      "componentType": 5123,
      "count": 2736,
      "min": [
        0
      ],
      "max": [
        929
      ],
      "type": "SCALAR",
      "bufferView": 3,
      "byteOffset": 0
    },
    {
      "name": "Cylinder003_1_1_positions",
      "componentType": 5126,
      "count": 786,
      "min": [
        -7.350900173187256,
        -24.374099731445312,
        16.481800079345703
      ],
      "max": [
        7.350900173187256,
        24.374099731445312,
        22.22330093383789
      ],
      "type": "VEC3",
      "bufferView": 0,
      "byteOffset": 11160
    },
    {
      "name": "Cylinder003_1_1_normals",
      "componentType": 5126,
      "count": 786,
      "min": [
        -1,
        -0.984815776348114,
        -1
      ],
      "max": [
        1,
        0.984815776348114,
        1
      ],
      "type": "VEC3",
      "bufferView": 1,
      "byteOffset": 11160
    },
    {
      "name": "Cylinder003_1_1_texcoords",
      "componentType": 5126,
      "count": 786,
      "min": [
        0,
        0.49300000071525574
      ],
      "max": [
        1.054800033569336,
        0.6240000128746033
      ],
      "type": "VEC2",
      "bufferView": 2,
      "byteOffset": 7440
    },
    {
      "name": "Cylinder003_1_1_indices",
      "componentType": 5123,
      "count": 1944,
      "min": [
        0
      ],
      "max": [
        785
      ],
      "type": "SCALAR",
      "bufferView": 3,
      "byteOffset": 5472
    }
  ],
  "asset": {
    "generator": "obj2gltf",
    "version": "2.0"
  },
  "buffers": [
    {
      "name": "jz07",
      "byteLength": 64272,
      "uri": "data:application/octet-stream;base64,"
    }
  ],
  "bufferViews": [
    {
      "name": "bufferView_0",
      "buffer": 0,
      "byteLength": 20592,
      "byteOffset": 0,
      "byteStride": 12,
      "target": 34962
    },
    {
      "name": "bufferView_1",
      "buffer": 0,
      "byteLength": 20592,
      "byteOffset": 20592,
      "byteStride": 12,
      "target": 34962
    },
    {
      "name": "bufferView_2",
      "buffer": 0,
      "byteLength": 13728,
      "byteOffset": 41184,
      "byteStride": 8,
      "target": 34962
    },
    {
      "name": "bufferView_3",
      "buffer": 0,
      "byteLength": 9360,
      "byteOffset": 54912,
      "target": 34963
    }
  ],
  "images": [
    {
      "name": "SGY_Q5_011",
      "uri": "SGY_Q5_011.jpg"
    },
    {
      "name": "SGY_q1_173",
      "uri": "SGY_q1_173.jpg"
    }
  ],
  "materials": [
    {
      "name": "Material__607",
      "pbrMetallicRoughness": {
        "baseColorTexture": {
          "index": 0
        },
        "baseColorFactor": [
          1,
          1,
          1,
          1
        ],
        "metallicFactor": 0,
        "roughnessFactor": 0.99
      },
      "emissiveFactor": [
        0,
        0,
        0
      ],
      "alphaMode": "OPAQUE",
      "doubleSided": false
    },
    {
      "name": "Material__608",
      "pbrMetallicRoughness": {
        "baseColorTexture": {
          "index": 1
        },
        "baseColorFactor": [
          1,
          1,
          1,
          1
        ],
        "metallicFactor": 0,
        "roughnessFactor": 0.99
      },
      "emissiveFactor": [
        0,
        0,
        0
      ],
      "alphaMode": "OPAQUE",
      "doubleSided": false
    }
  ],
  "meshes": [
    {
      "name": "Cylinder003_1",
      "primitives": [
        {
          "attributes": {
            "POSITION": 0,
            "NORMAL": 1,
            "TEXCOORD_0": 2
          },
          "indices": 3,
          "material": 0,
          "mode": 4
        },
        {
          "attributes": {
            "POSITION": 4,
            "NORMAL": 5,
            "TEXCOORD_0": 6
          },
          "indices": 7,
          "material": 1,
          "mode": 4
        }
      ]
    }
  ],
  "nodes": [
    {
      "name": "Cylinder003",
      "mesh": 0
    }
  ],
  "samplers": [
    {
      "wrapS": 10497,
      "wrapT": 10497
    }
  ],
  "scene": 0,
  "scenes": [
    {
      "nodes": [
        0
      ]
    }
  ],
  "textures": [
    {
      "name": "SGY_Q5_011",
      "sampler": 0,
      "source": 0
    },
    {
      "name": "SGY_q1_173",
      "sampler": 0,
      "source": 1
    }
  ]
}
