{
  "accessors": [
    {
      "name": "Box002_1_0_positions",
      "componentType": 5126,
      "count": 78,
      "min": [
        -7.95959997177124,
        -56,
        8.570899963378906
      ],
      "max": [
        8.040399551391602,
        56,
        27.857500076293945
      ],
      "type": "VEC3",
      "bufferView": 0,
      "byteOffset": 0
    },
    {
      "name": "Box002_1_0_normals",
      "componentType": 5126,
      "count": 78,
      "min": [
        -1,
        -1,
        -1
      ],
      "max": [
        1,
        1,
        1
      ],
      "type": "VEC3",
      "bufferView": 1,
      "byteOffset": 0
    },
    {
      "name": "Box002_1_0_texcoords",
      "componentType": 5126,
      "count": 78,
      "min": [
        0,
        0
      ],
      "max": [
        1,
        1
      ],
      "type": "VEC2",
      "bufferView": 2,
      "byteOffset": 0
    },
    {
      "name": "Box002_1_0_indices",
      "componentType": 5123,
      "count": 126,
      "min": [
        0
      ],
      "max": [
        77
      ],
      "type": "SCALAR",
      "bufferView": 3,
      "byteOffset": 0
    },
    {
      "name": "Box002_1_1_positions",
      "componentType": 5126,
      "count": 24,
      "min": [
        -7.95959997177124,
        -54.5,
        0
      ],
      "max": [
        8.040399551391602,
        56,
        26.0575008392334
      ],
      "type": "VEC3",
      "bufferView": 0,
      "byteOffset": 936
    },
    {
      "name": "Box002_1_1_normals",
      "componentType": 5126,
      "count": 24,
      "min": [
        -1,
        -1,
        0
      ],
      "max": [
        1,
        1,
        0
      ],
      "type": "VEC3",
      "bufferView": 1,
      "byteOffset": 936
    },
    {
      "name": "Box002_1_1_texcoords",
      "componentType": 5126,
      "count": 24,
      "min": [
        -2.9941999912261963,
        -2.2685000896453857
      ],
      "max": [
        3.9941999912261963,
        2.4168999195098877
      ],
      "type": "VEC2",
      "bufferView": 2,
      "byteOffset": 624
    },
    {
      "name": "Box002_1_1_indices",
      "componentType": 5123,
      "count": 36,
      "min": [
        0
      ],
      "max": [
        23
      ],
      "type": "SCALAR",
      "bufferView": 3,
      "byteOffset": 252
    },
    {
      "name": "Box002_1_2_positions",
      "componentType": 5126,
      "count": 4,
      "min": [
        -5.76200008392334,
        -54.801998138427734,
        21.51289939880371
      ],
      "max": [
        5.842800140380859,
        -54.801998138427734,
        24.79680061340332
      ],
      "type": "VEC3",
      "bufferView": 0,
      "byteOffset": 1224
    },
    {
      "name": "Box002_1_2_normals",
      "componentType": 5126,
      "count": 4,
      "min": [
        0,
        -1,
        0
      ],
      "max": [
        0,
        -1,
        0
      ],
      "type": "VEC3",
      "bufferView": 1,
      "byteOffset": 1224
    },
    {
      "name": "Box002_1_2_texcoords",
      "componentType": 5126,
      "count": 4,
      "min": [
        0,
        0
      ],
      "max": [
        1,
        1
      ],
      "type": "VEC2",
      "bufferView": 2,
      "byteOffset": 816
    },
    {
      "name": "Box002_1_2_indices",
      "componentType": 5123,
      "count": 6,
      "min": [
        0
      ],
      "max": [
        3
      ],
      "type": "SCALAR",
      "bufferView": 3,
      "byteOffset": 324
    },
    {
      "name": "Box002_1_3_positions",
      "componentType": 5126,
      "count": 1424,
      "min": [
        -10.706700325012207,
        -58,
        0
      ],
      "max": [
        10.706700325012207,
        58,
        30
      ],
      "type": "VEC3",
      "bufferView": 0,
      "byteOffset": 1272
    },
    {
      "name": "Box002_1_3_normals",
      "componentType": 5126,
      "count": 1424,
      "min": [
        -1,
        -1,
        -1
      ],
      "max": [
        1,
        1,
        1
      ],
      "type": "VEC3",
      "bufferView": 1,
      "byteOffset": 1272
    },
    {
      "name": "Box002_1_3_texcoords",
      "componentType": 5126,
      "count": 1424,
      "min": [
        -11.702199935913086,
        -2.7190001010894775
      ],
      "max": [
        1,
        31.533899307250977
      ],
      "type": "VEC2",
      "bufferView": 2,
      "byteOffset": 848
    },
    {
      "name": "Box002_1_3_indices",
      "componentType": 5123,
      "count": 2160,
      "min": [
        0
      ],
      "max": [
        1423
      ],
      "type": "SCALAR",
      "bufferView": 3,
      "byteOffset": 336
    }
  ],
  "asset": {
    "generator": "obj2gltf",
    "version": "2.0"
  },
  "buffers": [
    {
      "name": "sggf",
      "byteLength": 53616,
      "uri": "data:application/octet-stream;base64,"
    }
  ],
  "bufferViews": [
    {
      "name": "bufferView_0",
      "buffer": 0,
      "byteLength": 18360,
      "byteOffset": 0,
      "byteStride": 12,
      "target": 34962
    },
    {
      "name": "bufferView_1",
      "buffer": 0,
      "byteLength": 18360,
      "byteOffset": 18360,
      "byteStride": 12,
      "target": 34962
    },
    {
      "name": "bufferView_2",
      "buffer": 0,
      "byteLength": 12240,
      "byteOffset": 36720,
      "byteStride": 8,
      "target": 34962
    },
    {
      "name": "bufferView_3",
      "buffer": 0,
      "byteLength": 4656,
      "byteOffset": 48960,
      "target": 34963
    }
  ],
  "images": [
    {
      "name": "008",
      "uri": "008.jpg"
    },
    {
      "name": "SG_dl01",
      "uri": "SG_dl01.jpg"
    },
    {
      "name": "sgbq_0015",
      "uri": "sgbq_0015.png"
    },
    {
      "name": "sggf_01",
      "uri": "sggf_01.jpg"
    }
  ],
  "materials": [
    {
      "name": "Material__1452",
      "pbrMetallicRoughness": {
        "baseColorTexture": {
          "index": 0
        },
        "baseColorFactor": [
          1,
          1,
          1,
          1
        ],
        "metallicFactor": 0,
        "roughnessFactor": 0.99
      },
      "emissiveFactor": [
        0,
        0,
        0
      ],
      "alphaMode": "OPAQUE",
      "doubleSided": false
    },
    {
      "name": "Material__1440",
      "pbrMetallicRoughness": {
        "baseColorTexture": {
          "index": 1
        },
        "baseColorFactor": [
          1,
          1,
          1,
          1
        ],
        "metallicFactor": 0,
        "roughnessFactor": 0.99
      },
      "emissiveFactor": [
        0,
        0,
        0
      ],
      "alphaMode": "OPAQUE",
      "doubleSided": false
    },
    {
      "name": "Material__1488",
      "pbrMetallicRoughness": {
        "baseColorTexture": {
          "index": 2
        },
        "baseColorFactor": [
          1,
          1,
          1,
          1
        ],
        "metallicFactor": 0,
        "roughnessFactor": 0.99
      },
      "emissiveFactor": [
        0,
        0,
        0
      ],
      "alphaMode": "BLEND",
      "doubleSided": true
    },
    {
      "name": "Material__1475",
      "pbrMetallicRoughness": {
        "baseColorTexture": {
          "index": 3
        },
        "baseColorFactor": [
          1,
          1,
          1,
          1
        ],
        "metallicFactor": 0,
        "roughnessFactor": 0.99
      },
      "emissiveFactor": [
        0,
        0,
        0
      ],
      "alphaMode": "OPAQUE",
      "doubleSided": false
    }
  ],
  "meshes": [
    {
      "name": "Box002_1",
      "primitives": [
        {
          "attributes": {
            "POSITION": 0,
            "NORMAL": 1,
            "TEXCOORD_0": 2
          },
          "indices": 3,
          "material": 0,
          "mode": 4
        },
        {
          "attributes": {
            "POSITION": 4,
            "NORMAL": 5,
            "TEXCOORD_0": 6
          },
          "indices": 7,
          "material": 1,
          "mode": 4
        },
        {
          "attributes": {
            "POSITION": 8,
            "NORMAL": 9,
            "TEXCOORD_0": 10
          },
          "indices": 11,
          "material": 2,
          "mode": 4
        },
        {
          "attributes": {
            "POSITION": 12,
            "NORMAL": 13,
            "TEXCOORD_0": 14
          },
          "indices": 15,
          "material": 3,
          "mode": 4
        }
      ]
    }
  ],
  "nodes": [
    {
      "name": "Box002",
      "mesh": 0
    }
  ],
  "samplers": [
    {
      "wrapS": 10497,
      "wrapT": 10497
    }
  ],
  "scene": 0,
  "scenes": [
    {
      "nodes": [
        0
      ]
    }
  ],
  "textures": [
    {
      "name": "008",
      "sampler": 0,
      "source": 0
    },
    {
      "name": "SG_dl01",
      "sampler": 0,
      "source": 1
    },
    {
      "name": "sgbq_0015",
      "sampler": 0,
      "source": 2
    },
    {
      "name": "sggf_01",
      "sampler": 0,
      "source": 3
    }
  ]
}
