{"asset":{"version":"2.0","generator":"babylon.js glTF exporter for 3dsmax 2022 v20240125.3"},"scene":0,"scenes":[{"nodes":[0]}],"nodes":[{"mesh":0,"translation":[0.0,1.90734863E-06,0.0],"name":"Box013"}],"meshes":[{"primitives":[{"attributes":{"POSITION":1,"NORMAL":2,"TEXCOORD_0":3},"indices":0,"material":0},{"attributes":{"POSITION":5,"NORMAL":6,"TEXCOORD_0":7},"indices":4,"material":1},{"attributes":{"POSITION":9,"NORMAL":10,"TEXCOORD_0":11},"indices":8,"material":2},{"attributes":{"POSITION":13,"NORMAL":14,"TEXCOORD_0":15},"indices":12,"material":3}],"name":"Box013"}],"accessors":[{"bufferView":0,"componentType":5123,"count":6,"type":"SCALAR","name":"accessorIndices"},{"bufferView":1,"componentType":5126,"count":4,"max":[21.3471375,9.616806,81.36804],"min":[-21.3471375,-9.616837,81.36804],"type":"VEC3","name":"accessorPositions"},{"bufferView":1,"byteOffset":48,"componentType":5126,"count":4,"type":"VEC3","name":"accessorNormals"},{"bufferView":2,"componentType":5126,"count":4,"type":"VEC2","name":"accessorUVs"},{"bufferView":0,"byteOffset":12,"componentType":5123,"count":24,"type":"SCALAR","name":"accessorIndices"},{"bufferView":1,"byteOffset":96,"componentType":5126,"count":16,"max":[21.3471375,11.1168184,82.3287354],"min":[-21.3471375,-11.1168365,4.999996],"type":"VEC3","name":"accessorPositions"},{"bufferView":1,"byteOffset":288,"componentType":5126,"count":16,"type":"VEC3","name":"accessorNormals"},{"bufferView":2,"byteOffset":32,"componentType":5126,"count":16,"type":"VEC2","name":"accessorUVs"},{"bufferView":0,"byteOffset":60,"componentType":5123,"count":24,"type":"SCALAR","name":"accessorIndices"},{"bufferView":1,"byteOffset":480,"componentType":5126,"count":16,"max":[22.8471375,9.616818,82.3287354],"min":[-22.8471375,-9.616837,4.99999666],"type":"VEC3","name":"accessorPositions"},{"bufferView":1,"byteOffset":672,"componentType":5126,"count":16,"type":"VEC3","name":"accessorNormals"},{"bufferView":2,"byteOffset":160,"componentType":5126,"count":16,"type":"VEC2","name":"accessorUVs"},{"bufferView":0,"byteOffset":108,"componentType":5123,"count":342,"type":"SCALAR","name":"accessorIndices"},{"bufferView":1,"byteOffset":864,"componentType":5126,"count":184,"max":[22.8471375,11.1168194,82.3287354],"min":[-22.8471375,-11.1168365,-3.71850865E-06],"type":"VEC3","name":"accessorPositions"},{"bufferView":1,"byteOffset":3072,"componentType":5126,"count":184,"type":"VEC3","name":"accessorNormals"},{"bufferView":2,"byteOffset":288,"componentType":5126,"count":184,"type":"VEC2","name":"accessorUVs"}],"bufferViews":[{"buffer":0,"byteLength":792,"name":"bufferViewScalar"},{"buffer":0,"byteOffset":792,"byteLength":5280,"byteStride":12,"name":"bufferViewFloatVec3"},{"buffer":0,"byteOffset":6072,"byteLength":1760,"byteStride":8,"name":"bufferViewFloatVec2"}],"buffers":[{"uri":"sgy_h4.bin","byteLength":7832}],"materials":[{"pbrMetallicRoughness":{"baseColorTexture":{"index":0},"metallicFactor":0.0,"roughnessFactor":0.450053632},"name":"Material #44788"},{"pbrMetallicRoughness":{"baseColorTexture":{"index":1},"metallicFactor":0.0,"roughnessFactor":0.450053632},"name":"Material #44800"},{"pbrMetallicRoughness":{"baseColorTexture":{"index":2},"metallicFactor":0.0,"roughnessFactor":0.450053632},"name":"Material #44812"},{"pbrMetallicRoughness":{"baseColorTexture":{"index":3},"metallicFactor":0.0,"roughnessFactor":0.450053632},"name":"Material #44386"}],"textures":[{"sampler":0,"source":0,"name":"011.jpg"},{"sampler":0,"source":1,"name":"xgy_x_014.jpg"},{"sampler":0,"source":2,"name":"xgy_x_015.jpg"},{"sampler":0,"source":3,"name":"sgy_3q_39.jpg"}],"images":[{"uri":"011.jpg"},{"uri":"xgy_x_014.jpg"},{"uri":"xgy_x_015.jpg"},{"uri":"sgy_3q_39.jpg"}],"samplers":[{"magFilter":9729,"minFilter":9987}]}