{"asset":{"version":"2.0","generator":"babylon.js glTF exporter for 3dsmax 2022 v20240125.3"},"scene":0,"scenes":[{"nodes":[0]}],"nodes":[{"mesh":0,"name":"对象001"}],"meshes":[{"primitives":[{"attributes":{"POSITION":1,"NORMAL":2,"TEXCOORD_0":3},"indices":0,"material":0},{"attributes":{"POSITION":5,"NORMAL":6,"TEXCOORD_0":7},"indices":4,"material":1},{"attributes":{"POSITION":9,"NORMAL":10,"TEXCOORD_0":11},"indices":8,"material":2},{"attributes":{"POSITION":13,"NORMAL":14,"TEXCOORD_0":15},"indices":12,"material":3},{"attributes":{"POSITION":17,"NORMAL":18,"TEXCOORD_0":19},"indices":16,"material":4}],"name":"对象001"}],"accessors":[{"bufferView":0,"componentType":5123,"count":90,"type":"SCALAR","name":"accessorIndices"},{"bufferView":1,"componentType":5126,"count":56,"max":[3.807641,8.898347,5.55431557],"min":[-10.8309345,-2.09371257,3.481901],"type":"VEC3","name":"accessorPositions"},{"bufferView":1,"byteOffset":672,"componentType":5126,"count":56,"type":"VEC3","name":"accessorNormals"},{"bufferView":2,"componentType":5126,"count":56,"type":"VEC2","name":"accessorUVs"},{"bufferView":0,"byteOffset":180,"componentType":5123,"count":279,"type":"SCALAR","name":"accessorIndices"},{"bufferView":1,"byteOffset":1344,"componentType":5126,"count":181,"max":[10.5195293,8.898347,5.52814531],"min":[-11.9406948,-8.898348,-1.62776223E-06],"type":"VEC3","name":"accessorPositions"},{"bufferView":1,"byteOffset":3516,"componentType":5126,"count":181,"type":"VEC3","name":"accessorNormals"},{"bufferView":2,"byteOffset":448,"componentType":5126,"count":181,"type":"VEC2","name":"accessorUVs"},{"bufferView":0,"byteOffset":740,"componentType":5123,"count":12,"type":"SCALAR","name":"accessorIndices"},{"bufferView":1,"byteOffset":5688,"componentType":5126,"count":8,"max":[3.021204,7.82548237,1.04505932],"min":[3.01758146,3.410966,0.499160081],"type":"VEC3","name":"accessorPositions"},{"bufferView":1,"byteOffset":5784,"componentType":5126,"count":8,"type":"VEC3","name":"accessorNormals"},{"bufferView":2,"byteOffset":1896,"componentType":5126,"count":8,"type":"VEC2","name":"accessorUVs"},{"bufferView":0,"byteOffset":764,"componentType":5123,"count":156,"type":"SCALAR","name":"accessorIndices"},{"bufferView":1,"byteOffset":5880,"componentType":5126,"count":65,"max":[11.9406948,3.956587,8.2842865],"min":[-0.7805836,-4.44579649,-0.0005028469],"type":"VEC3","name":"accessorPositions"},{"bufferView":1,"byteOffset":6660,"componentType":5126,"count":65,"type":"VEC3","name":"accessorNormals"},{"bufferView":2,"byteOffset":1960,"componentType":5126,"count":65,"type":"VEC2","name":"accessorUVs"},{"bufferView":0,"byteOffset":1076,"componentType":5123,"count":36,"type":"SCALAR","name":"accessorIndices"},{"bufferView":1,"byteOffset":7440,"componentType":5126,"count":24,"max":[1.842401,7.56561947,4.82807827],"min":[-10.186161,-0.2369473,0.407925636],"type":"VEC3","name":"accessorPositions"},{"bufferView":1,"byteOffset":7728,"componentType":5126,"count":24,"type":"VEC3","name":"accessorNormals"},{"bufferView":2,"byteOffset":2480,"componentType":5126,"count":24,"type":"VEC2","name":"accessorUVs"}],"bufferViews":[{"buffer":0,"byteLength":1148,"name":"bufferViewScalar"},{"buffer":0,"byteOffset":1148,"byteLength":8016,"byteStride":12,"name":"bufferViewFloatVec3"},{"buffer":0,"byteOffset":9164,"byteLength":2672,"byteStride":8,"name":"bufferViewFloatVec2"}],"buffers":[{"uri":"sgy_ydhj_04.bin","byteLength":11836}],"materials":[{"pbrMetallicRoughness":{"baseColorTexture":{"index":0},"metallicFactor":0.0,"roughnessFactor":0.450053632},"name":"Material #46431"},{"pbrMetallicRoughness":{"baseColorTexture":{"index":1},"metallicFactor":0.0,"roughnessFactor":0.450053632},"name":"Material #46376"},{"pbrMetallicRoughness":{"baseColorTexture":{"index":2},"metallicFactor":0.0,"roughnessFactor":0.450053632},"name":"Material #46519"},{"pbrMetallicRoughness":{"baseColorTexture":{"index":3},"metallicFactor":0.0,"roughnessFactor":0.450053632},"name":"Material #46507"},{"pbrMetallicRoughness":{"baseColorTexture":{"index":4},"metallicFactor":0.0,"roughnessFactor":0.450053632},"name":"Material #46482"}],"textures":[{"sampler":0,"source":0,"name":"YDH_003.jpg"},{"sampler":0,"source":1,"name":"sgy_yd_02.jpg"},{"sampler":0,"source":2,"name":"sgy_yd_7.png"},{"sampler":0,"source":3,"name":"sgy_3q_15.jpg"},{"sampler":0,"source":4,"name":"sgy_yd_06.jpg"}],"images":[{"uri":"YDH_003.jpg"},{"uri":"sgy_yd_02.jpg"},{"uri":"sgy_yd_7.png"},{"uri":"sgy_3q_15.jpg"},{"uri":"sgy_yd_06.jpg"}],"samplers":[{"magFilter":9729,"minFilter":9987}]}