{
  "accessors": [
    {
      "name": "Box001_1_0_positions",
      "componentType": 5126,
      "count": 1630,
      "min": [
        -103.74089813232422,
        -11.481300354003906,
        0
      ],
      "max": [
        103.74089813232422,
        11.481300354003906,
        2.476099967956543
      ],
      "type": "VEC3",
      "bufferView": 0,
      "byteOffset": 0
    },
    {
      "name": "Box001_1_0_normals",
      "componentType": 5126,
      "count": 1630,
      "min": [
        -1,
        -1,
        -0.03340139985084534
      ],
      "max": [
        0.9999999403953552,
        1,
        1
      ],
      "type": "VEC3",
      "bufferView": 1,
      "byteOffset": 0
    },
    {
      "name": "Box001_1_0_texcoords",
      "componentType": 5126,
      "count": 1630,
      "min": [
        -24.53499984741211,
        -2.614799976348877
      ],
      "max": [
        25.570199966430664,
        3.625
      ],
      "type": "VEC2",
      "bufferView": 2,
      "byteOffset": 0
    },
    {
      "name": "Box001_1_0_indices",
      "componentType": 5123,
      "count": 2340,
      "min": [
        0
      ],
      "max": [
        1629
      ],
      "type": "SCALAR",
      "bufferView": 3,
      "byteOffset": 0
    },
    {
      "name": "Box001_1_1_positions",
      "componentType": 5126,
      "count": 139,
      "min": [
        -35.962398529052734,
        -9.48639965057373,
        0.7282000184059143
      ],
      "max": [
        61.77130126953125,
        5.884900093078613,
        1.5979000329971313
      ],
      "type": "VEC3",
      "bufferView": 0,
      "byteOffset": 19560
    },
    {
      "name": "Box001_1_1_normals",
      "componentType": 5126,
      "count": 139,
      "min": [
        -0.3758002817630768,
        0,
        0.9267006516456604
      ],
      "max": [
        0.3758002817630768,
        0,
        1
      ],
      "type": "VEC3",
      "bufferView": 1,
      "byteOffset": 19560
    },
    {
      "name": "Box001_1_1_texcoords",
      "componentType": 5126,
      "count": 139,
      "min": [
        -2.862600088119507,
        0.7878000140190125
      ],
      "max": [
        2.2945001125335693,
        2.8721001148223877
      ],
      "type": "VEC2",
      "bufferView": 2,
      "byteOffset": 13040
    },
    {
      "name": "Box001_1_1_indices",
      "componentType": 5123,
      "count": 273,
      "min": [
        0
      ],
      "max": [
        138
      ],
      "type": "SCALAR",
      "bufferView": 3,
      "byteOffset": 4680
    }
  ],
  "asset": {
    "generator": "obj2gltf",
    "version": "2.0"
  },
  "buffers": [
    {
      "name": "Q5_Q6",
      "byteLength": 61836,
      "uri": "data:application/octet-stream;base64,"
    }
  ],
  "bufferViews": [
    {
      "name": "bufferView_0",
      "buffer": 0,
      "byteLength": 21228,
      "byteOffset": 0,
      "byteStride": 12,
      "target": 34962
    },
    {
      "name": "bufferView_1",
      "buffer": 0,
      "byteLength": 21228,
      "byteOffset": 21228,
      "byteStride": 12,
      "target": 34962
    },
    {
      "name": "bufferView_2",
      "buffer": 0,
      "byteLength": 14152,
      "byteOffset": 42456,
      "byteStride": 8,
      "target": 34962
    },
    {
      "name": "bufferView_3",
      "buffer": 0,
      "byteLength": 5228,
      "byteOffset": 56608,
      "target": 34963
    }
  ],
  "images": [
    {
      "name": "SGY_Q1_016",
      "uri": "SGY_Q1_016.jpg"
    },
    {
      "name": "SGY_q1_107",
      "uri": "SGY_q1_107.jpg"
    }
  ],
  "materials": [
    {
      "name": "Material__26",
      "pbrMetallicRoughness": {
        "baseColorTexture": {
          "index": 0
        },
        "baseColorFactor": [
          1,
          1,
          1,
          1
        ],
        "metallicFactor": 0,
        "roughnessFactor": 0.99
      },
      "emissiveFactor": [
        0,
        0,
        0
      ],
      "alphaMode": "OPAQUE",
      "doubleSided": false
    },
    {
      "name": "Material__27",
      "pbrMetallicRoughness": {
        "baseColorTexture": {
          "index": 1
        },
        "baseColorFactor": [
          1,
          1,
          1,
          1
        ],
        "metallicFactor": 0,
        "roughnessFactor": 0.99
      },
      "emissiveFactor": [
        0,
        0,
        0
      ],
      "alphaMode": "OPAQUE",
      "doubleSided": false
    }
  ],
  "meshes": [
    {
      "name": "Box001_1",
      "primitives": [
        {
          "attributes": {
            "POSITION": 0,
            "NORMAL": 1,
            "TEXCOORD_0": 2
          },
          "indices": 3,
          "material": 0,
          "mode": 4
        },
        {
          "attributes": {
            "POSITION": 4,
            "NORMAL": 5,
            "TEXCOORD_0": 6
          },
          "indices": 7,
          "material": 1,
          "mode": 4
        }
      ]
    }
  ],
  "nodes": [
    {
      "name": "Box001",
      "mesh": 0
    }
  ],
  "samplers": [
    {
      "wrapS": 10497,
      "wrapT": 10497
    }
  ],
  "scene": 0,
  "scenes": [
    {
      "nodes": [
        0
      ]
    }
  ],
  "textures": [
    {
      "name": "SGY_Q1_016",
      "sampler": 0,
      "source": 0
    },
    {
      "name": "SGY_q1_107",
      "sampler": 0,
      "source": 1
    }
  ]
}
