{"asset":{"version":"2.0","generator":"babylon.js glTF exporter for 3dsmax 2022 v20240125.3"},"scene":0,"scenes":[{"nodes":[0]}],"nodes":[{"mesh":0,"rotation":[-8.742278E-08,-8.742278E-08,-7.642742E-15,1.0],"name":"对象047"}],"meshes":[{"primitives":[{"attributes":{"POSITION":1,"NORMAL":2,"TEXCOORD_0":3},"indices":0,"material":0},{"attributes":{"POSITION":5,"NORMAL":6,"TEXCOORD_0":7},"indices":4,"material":1},{"attributes":{"POSITION":9,"NORMAL":10,"TEXCOORD_0":11},"indices":8,"material":2},{"attributes":{"POSITION":13,"NORMAL":14,"TEXCOORD_0":15},"indices":12,"material":3},{"attributes":{"POSITION":17,"NORMAL":18,"TEXCOORD_0":19},"indices":16,"material":4}],"name":"对象047"}],"accessors":[{"bufferView":0,"componentType":5123,"count":117,"type":"SCALAR","name":"accessorIndices"},{"bufferView":1,"componentType":5126,"count":61,"max":[23.2144756,17.4754333,32.489872],"min":[-23.2144814,-17.4754333,1.27911335E-05],"type":"VEC3","name":"accessorPositions"},{"bufferView":1,"byteOffset":732,"componentType":5126,"count":61,"type":"VEC3","name":"accessorNormals"},{"bufferView":2,"componentType":5126,"count":61,"type":"VEC2","name":"accessorUVs"},{"bufferView":0,"byteOffset":236,"componentType":5123,"count":72,"type":"SCALAR","name":"accessorIndices"},{"bufferView":1,"byteOffset":1464,"componentType":5126,"count":60,"max":[23.214632,17.4754333,32.489872],"min":[-23.2145176,-13.4919739,1.27911335E-05],"type":"VEC3","name":"accessorPositions"},{"bufferView":1,"byteOffset":2184,"componentType":5126,"count":60,"type":"VEC3","name":"accessorNormals"},{"bufferView":2,"byteOffset":488,"componentType":5126,"count":60,"type":"VEC2","name":"accessorUVs"},{"bufferView":0,"byteOffset":380,"componentType":5123,"count":903,"type":"SCALAR","name":"accessorIndices"},{"bufferView":1,"byteOffset":2904,"componentType":5126,"count":525,"max":[23.214632,17.4754333,30.9076576],"min":[-23.2145176,-17.4754333,1.32390487E-05],"type":"VEC3","name":"accessorPositions"},{"bufferView":1,"byteOffset":9204,"componentType":5126,"count":525,"type":"VEC3","name":"accessorNormals"},{"bufferView":2,"byteOffset":968,"componentType":5126,"count":525,"type":"VEC2","name":"accessorUVs"},{"bufferView":0,"byteOffset":2188,"componentType":5123,"count":75,"type":"SCALAR","name":"accessorIndices"},{"bufferView":1,"byteOffset":15504,"componentType":5126,"count":59,"max":[17.5957584,15.9754333,28.3689785],"min":[-20.6823025,-11.9919739,1.32390487E-05],"type":"VEC3","name":"accessorPositions"},{"bufferView":1,"byteOffset":16212,"componentType":5126,"count":59,"type":"VEC3","name":"accessorNormals"},{"bufferView":2,"byteOffset":5168,"componentType":5126,"count":59,"type":"VEC2","name":"accessorUVs"},{"bufferView":0,"byteOffset":2340,"componentType":5123,"count":36,"type":"SCALAR","name":"accessorIndices"},{"bufferView":1,"byteOffset":16920,"componentType":5126,"count":16,"max":[17.5957584,15.9754333,30.9076557],"min":[-20.6823044,-11.9919147,6.49457359],"type":"VEC3","name":"accessorPositions"},{"bufferView":1,"byteOffset":17112,"componentType":5126,"count":16,"type":"VEC3","name":"accessorNormals"},{"bufferView":2,"byteOffset":5640,"componentType":5126,"count":16,"type":"VEC2","name":"accessorUVs"}],"bufferViews":[{"buffer":0,"byteLength":2412,"name":"bufferViewScalar"},{"buffer":0,"byteOffset":2412,"byteLength":17304,"byteStride":12,"name":"bufferViewFloatVec3"},{"buffer":0,"byteOffset":19716,"byteLength":5768,"byteStride":8,"name":"bufferViewFloatVec2"}],"buffers":[{"uri":"sgyh4.bin","byteLength":25484}],"materials":[{"pbrMetallicRoughness":{"baseColorTexture":{"index":0},"metallicFactor":0.0,"roughnessFactor":0.450053632},"name":"Material #44870"},{"pbrMetallicRoughness":{"baseColorTexture":{"index":1},"metallicFactor":0.0,"roughnessFactor":0.450053632},"name":"Material #45040"},{"pbrMetallicRoughness":{"baseColorTexture":{"index":2},"metallicFactor":0.0,"roughnessFactor":0.450053632},"name":"Material #44386"},{"pbrMetallicRoughness":{"baseColorTexture":{"index":3},"metallicFactor":0.0,"roughnessFactor":0.450053632},"name":"Material #44894"},{"pbrMetallicRoughness":{"baseColorTexture":{"index":4},"metallicFactor":0.0,"roughnessFactor":0.450053632},"name":"Material #44939"}],"textures":[{"sampler":0,"source":0,"name":"xgy_x_016.jpg"},{"sampler":0,"source":1,"name":"xgy_x_019.jpg"},{"sampler":0,"source":2,"name":"sgy_3q_39.jpg"},{"sampler":0,"source":3,"name":"xgy_x_017.jpg"},{"sampler":0,"source":4,"name":"xgy_x_018.jpg"}],"images":[{"uri":"xgy_x_016.jpg"},{"uri":"xgy_x_019.jpg"},{"uri":"sgy_3q_39.jpg"},{"uri":"xgy_x_017.jpg"},{"uri":"xgy_x_018.jpg"}],"samplers":[{"magFilter":9729,"minFilter":9987}]}