{"asset":{"version":"2.0","generator":"babylon.js glTF exporter for 3dsmax 2022 v20240125.3"},"scene":0,"scenes":[{"nodes":[0]}],"nodes":[{"mesh":0,"rotation":[-8.742278E-08,-8.742278E-08,-7.642742E-15,1.0],"name":"对象048"}],"meshes":[{"primitives":[{"attributes":{"POSITION":1,"NORMAL":2,"TEXCOORD_0":3},"indices":0,"material":0},{"attributes":{"POSITION":5,"NORMAL":6,"TEXCOORD_0":7},"indices":4,"material":1},{"attributes":{"POSITION":9,"NORMAL":10,"TEXCOORD_0":11},"indices":8,"material":2},{"attributes":{"POSITION":13,"NORMAL":14,"TEXCOORD_0":15},"indices":12,"material":3},{"attributes":{"POSITION":17,"NORMAL":18,"TEXCOORD_0":19},"indices":16,"material":4}],"name":"对象048"}],"accessors":[{"bufferView":0,"componentType":5123,"count":78,"type":"SCALAR","name":"accessorIndices"},{"bufferView":1,"componentType":5126,"count":60,"max":[26.6224442,15.4836769,22.4405],"min":[-26.62231,-15.4836407,3.58522E-05],"type":"VEC3","name":"accessorPositions"},{"bufferView":1,"byteOffset":720,"componentType":5126,"count":60,"type":"VEC3","name":"accessorNormals"},{"bufferView":2,"componentType":5126,"count":60,"type":"VEC2","name":"accessorUVs"},{"bufferView":0,"byteOffset":156,"componentType":5123,"count":48,"type":"SCALAR","name":"accessorIndices"},{"bufferView":1,"byteOffset":1440,"componentType":5126,"count":34,"max":[26.6224442,15.4836769,22.4405],"min":[-26.6223488,-15.4836407,3.54409167E-05],"type":"VEC3","name":"accessorPositions"},{"bufferView":1,"byteOffset":1848,"componentType":5126,"count":34,"type":"VEC3","name":"accessorNormals"},{"bufferView":2,"byteOffset":480,"componentType":5126,"count":34,"type":"VEC2","name":"accessorUVs"},{"bufferView":0,"byteOffset":252,"componentType":5123,"count":774,"type":"SCALAR","name":"accessorIndices"},{"bufferView":1,"byteOffset":2256,"componentType":5126,"count":467,"max":[26.6224442,15.4836769,20.85829],"min":[-26.6223488,-15.4835548,3.54409167E-05],"type":"VEC3","name":"accessorPositions"},{"bufferView":1,"byteOffset":7860,"componentType":5126,"count":467,"type":"VEC3","name":"accessorNormals"},{"bufferView":2,"byteOffset":752,"componentType":5126,"count":467,"type":"VEC2","name":"accessorUVs"},{"bufferView":0,"byteOffset":1800,"componentType":5123,"count":36,"type":"SCALAR","name":"accessorIndices"},{"bufferView":1,"byteOffset":13464,"componentType":5126,"count":26,"max":[9.690348,13.9836464,17.91707],"min":[-8.801687,-13.9836464,3.95622737E-05],"type":"VEC3","name":"accessorPositions"},{"bufferView":1,"byteOffset":13776,"componentType":5126,"count":26,"type":"VEC3","name":"accessorNormals"},{"bufferView":2,"byteOffset":4488,"componentType":5126,"count":26,"type":"VEC2","name":"accessorUVs"},{"bufferView":0,"byteOffset":1872,"componentType":5123,"count":24,"type":"SCALAR","name":"accessorIndices"},{"bufferView":1,"byteOffset":14088,"componentType":5126,"count":22,"max":[24.0902729,13.98365,20.85829],"min":[-24.0901356,-13.9836369,3.582327E-05],"type":"VEC3","name":"accessorPositions"},{"bufferView":1,"byteOffset":14352,"componentType":5126,"count":22,"type":"VEC3","name":"accessorNormals"},{"bufferView":2,"byteOffset":4696,"componentType":5126,"count":22,"type":"VEC2","name":"accessorUVs"}],"bufferViews":[{"buffer":0,"byteLength":1920,"name":"bufferViewScalar"},{"buffer":0,"byteOffset":1920,"byteLength":14616,"byteStride":12,"name":"bufferViewFloatVec3"},{"buffer":0,"byteOffset":16536,"byteLength":4872,"byteStride":8,"name":"bufferViewFloatVec2"}],"buffers":[{"uri":"sgyh5.bin","byteLength":21408}],"materials":[{"pbrMetallicRoughness":{"baseColorTexture":{"index":0},"metallicFactor":0.0,"roughnessFactor":0.450053632},"name":"Material #44870"},{"pbrMetallicRoughness":{"baseColorTexture":{"index":1},"metallicFactor":0.0,"roughnessFactor":0.450053632},"name":"Material #45040"},{"pbrMetallicRoughness":{"baseColorTexture":{"index":2},"metallicFactor":0.0,"roughnessFactor":0.450053632},"name":"Material #44386"},{"pbrMetallicRoughness":{"baseColorTexture":{"index":3},"metallicFactor":0.0,"roughnessFactor":0.450053632},"name":"Material #44894"},{"pbrMetallicRoughness":{"baseColorTexture":{"index":4},"metallicFactor":0.0,"roughnessFactor":0.450053632},"name":"Material #44939"}],"textures":[{"sampler":0,"source":0,"name":"xgy_x_016.jpg"},{"sampler":0,"source":1,"name":"xgy_x_019.jpg"},{"sampler":0,"source":2,"name":"sgy_3q_39.jpg"},{"sampler":0,"source":3,"name":"xgy_x_017.jpg"},{"sampler":0,"source":4,"name":"xgy_x_018.jpg"}],"images":[{"uri":"xgy_x_016.jpg"},{"uri":"xgy_x_019.jpg"},{"uri":"sgy_3q_39.jpg"},{"uri":"xgy_x_017.jpg"},{"uri":"xgy_x_018.jpg"}],"samplers":[{"magFilter":9729,"minFilter":9987}]}