{
  "accessors": [
    {
      "name": "Box005_1_0_positions",
      "componentType": 5126,
      "count": 50,
      "min": [
        -64.7509994506836,
        -16.165199279785156,
        16.136899948120117
      ],
      "max": [
        64.7509994506836,
        16.165199279785156,
        19.173200607299805
      ],
      "type": "VEC3",
      "bufferView": 0,
      "byteOffset": 0
    },
    {
      "name": "Box005_1_0_normals",
      "componentType": 5126,
      "count": 50,
      "min": [
        0,
        -0.19899989664554596,
        0.9799994826316833
      ],
      "max": [
        0,
        0.19899989664554596,
        0.9833734035491943
      ],
      "type": "VEC3",
      "bufferView": 1,
      "byteOffset": 0
    },
    {
      "name": "Box005_1_0_texcoords",
      "componentType": 5126,
      "count": 50,
      "min": [
        -0.5629000067710876,
        0.00279999990016222
      ],
      "max": [
        5.649600028991699,
        0.9866999983787537
      ],
      "type": "VEC2",
      "bufferView": 2,
      "byteOffset": 0
    },
    {
      "name": "Box005_1_0_indices",
      "componentType": 5123,
      "count": 72,
      "min": [
        0
      ],
      "max": [
        49
      ],
      "type": "SCALAR",
      "bufferView": 3,
      "byteOffset": 0
    },
    {
      "name": "Box005_1_1_positions",
      "componentType": 5126,
      "count": 54,
      "min": [
        -59.32749938964844,
        -13.395600318908691,
        0
      ],
      "max": [
        59.32749938964844,
        13.395600318908691,
        18.28890037536621
      ],
      "type": "VEC3",
      "bufferView": 0,
      "byteOffset": 600
    },
    {
      "name": "Box005_1_1_normals",
      "componentType": 5126,
      "count": 54,
      "min": [
        -1,
        -1,
        0
      ],
      "max": [
        1,
        1,
        0
      ],
      "type": "VEC3",
      "bufferView": 1,
      "byteOffset": 600
    },
    {
      "name": "Box005_1_1_texcoords",
      "componentType": 5126,
      "count": 54,
      "min": [
        0,
        -2.434799909591675
      ],
      "max": [
        20.065900802612305,
        1.0355000495910645
      ],
      "type": "VEC2",
      "bufferView": 2,
      "byteOffset": 400
    },
    {
      "name": "Box005_1_1_indices",
      "componentType": 5123,
      "count": 102,
      "min": [
        0
      ],
      "max": [
        53
      ],
      "type": "SCALAR",
      "bufferView": 3,
      "byteOffset": 144
    },
    {
      "name": "Box005_1_2_positions",
      "componentType": 5126,
      "count": 110,
      "min": [
        -64.7509994506836,
        -16.165199279785156,
        15.252699851989746
      ],
      "max": [
        64.7509994506836,
        16.165199279785156,
        19.173200607299805
      ],
      "type": "VEC3",
      "bufferView": 0,
      "byteOffset": 1248
    },
    {
      "name": "Box005_1_2_normals",
      "componentType": 5126,
      "count": 110,
      "min": [
        -1,
        -1,
        -0.9833734035491943
      ],
      "max": [
        1,
        1,
        0
      ],
      "type": "VEC3",
      "bufferView": 1,
      "byteOffset": 1248
    },
    {
      "name": "Box005_1_2_texcoords",
      "componentType": 5126,
      "count": 110,
      "min": [
        0,
        0
      ],
      "max": [
        1,
        1
      ],
      "type": "VEC2",
      "bufferView": 2,
      "byteOffset": 832
    },
    {
      "name": "Box005_1_2_indices",
      "componentType": 5123,
      "count": 168,
      "min": [
        0
      ],
      "max": [
        109
      ],
      "type": "SCALAR",
      "bufferView": 3,
      "byteOffset": 348
    }
  ],
  "asset": {
    "generator": "obj2gltf",
    "version": "2.0"
  },
  "buffers": [
    {
      "name": "jz19",
      "byteLength": 7532,
      "uri": "data:application/octet-stream;base64,"
    }
  ],
  "bufferViews": [
    {
      "name": "bufferView_0",
      "buffer": 0,
      "byteLength": 2568,
      "byteOffset": 0,
      "byteStride": 12,
      "target": 34962
    },
    {
      "name": "bufferView_1",
      "buffer": 0,
      "byteLength": 2568,
      "byteOffset": 2568,
      "byteStride": 12,
      "target": 34962
    },
    {
      "name": "bufferView_2",
      "buffer": 0,
      "byteLength": 1712,
      "byteOffset": 5136,
      "byteStride": 8,
      "target": 34962
    },
    {
      "name": "bufferView_3",
      "buffer": 0,
      "byteLength": 684,
      "byteOffset": 6848,
      "target": 34963
    }
  ],
  "images": [
    {
      "name": "SGY_Q1_015",
      "uri": "SGY_Q1_015.jpg"
    },
    {
      "name": "SGY_Q1_025",
      "uri": "SGY_Q1_025.jpg"
    },
    {
      "name": "SGY_Q1_016",
      "uri": "SGY_Q1_016.jpg"
    }
  ],
  "materials": [
    {
      "name": "Material__114",
      "pbrMetallicRoughness": {
        "baseColorTexture": {
          "index": 0
        },
        "baseColorFactor": [
          1,
          1,
          1,
          1
        ],
        "metallicFactor": 0,
        "roughnessFactor": 0.99
      },
      "emissiveFactor": [
        0,
        0,
        0
      ],
      "alphaMode": "OPAQUE",
      "doubleSided": false
    },
    {
      "name": "Material__101",
      "pbrMetallicRoughness": {
        "baseColorTexture": {
          "index": 1
        },
        "baseColorFactor": [
          1,
          1,
          1,
          1
        ],
        "metallicFactor": 0,
        "roughnessFactor": 0.99
      },
      "emissiveFactor": [
        0,
        0,
        0
      ],
      "alphaMode": "OPAQUE",
      "doubleSided": false
    },
    {
      "name": "Material__102",
      "pbrMetallicRoughness": {
        "baseColorTexture": {
          "index": 2
        },
        "baseColorFactor": [
          1,
          1,
          1,
          1
        ],
        "metallicFactor": 0,
        "roughnessFactor": 0.99
      },
      "emissiveFactor": [
        0,
        0,
        0
      ],
      "alphaMode": "OPAQUE",
      "doubleSided": false
    }
  ],
  "meshes": [
    {
      "name": "Box005_1",
      "primitives": [
        {
          "attributes": {
            "POSITION": 0,
            "NORMAL": 1,
            "TEXCOORD_0": 2
          },
          "indices": 3,
          "material": 0,
          "mode": 4
        },
        {
          "attributes": {
            "POSITION": 4,
            "NORMAL": 5,
            "TEXCOORD_0": 6
          },
          "indices": 7,
          "material": 1,
          "mode": 4
        },
        {
          "attributes": {
            "POSITION": 8,
            "NORMAL": 9,
            "TEXCOORD_0": 10
          },
          "indices": 11,
          "material": 2,
          "mode": 4
        }
      ]
    }
  ],
  "nodes": [
    {
      "name": "Box005",
      "mesh": 0
    }
  ],
  "samplers": [
    {
      "wrapS": 10497,
      "wrapT": 10497
    }
  ],
  "scene": 0,
  "scenes": [
    {
      "nodes": [
        0
      ]
    }
  ],
  "textures": [
    {
      "name": "SGY_Q1_015",
      "sampler": 0,
      "source": 0
    },
    {
      "name": "SGY_Q1_025",
      "sampler": 0,
      "source": 1
    },
    {
      "name": "SGY_Q1_016",
      "sampler": 0,
      "source": 2
    }
  ]
}
