{
  "accessors": [
    {
      "name": "Box039_1_0_positions",
      "componentType": 5126,
      "count": 62,
      "min": [
        -12.222200393676758,
        -39.99480056762695,
        0
      ],
      "max": [
        13.038900375366211,
        40.140899658203125,
        27.402999877929688
      ],
      "type": "VEC3",
      "bufferView": 0,
      "byteOffset": 0
    },
    {
      "name": "Box039_1_0_normals",
      "componentType": 5126,
      "count": 62,
      "min": [
        -1,
        -1,
        -1
      ],
      "max": [
        1,
        1,
        1
      ],
      "type": "VEC3",
      "bufferView": 1,
      "byteOffset": 0
    },
    {
      "name": "Box039_1_0_texcoords",
      "componentType": 5126,
      "count": 62,
      "min": [
        -1.294100046157837,
        -1.1473000049591064
      ],
      "max": [
        2.294100046157837,
        2.221400022506714
      ],
      "type": "VEC2",
      "bufferView": 2,
      "byteOffset": 0
    },
    {
      "name": "Box039_1_0_indices",
      "componentType": 5123,
      "count": 108,
      "min": [
        0
      ],
      "max": [
        61
      ],
      "type": "SCALAR",
      "bufferView": 3,
      "byteOffset": 0
    },
    {
      "name": "Box039_1_1_positions",
      "componentType": 5126,
      "count": 480,
      "min": [
        -13.187800407409668,
        -40.210601806640625,
        0
      ],
      "max": [
        13.187800407409668,
        40.210601806640625,
        31.693199157714844
      ],
      "type": "VEC3",
      "bufferView": 0,
      "byteOffset": 744
    },
    {
      "name": "Box039_1_1_normals",
      "componentType": 5126,
      "count": 480,
      "min": [
        -1,
        -1,
        -1
      ],
      "max": [
        1,
        1,
        1
      ],
      "type": "VEC3",
      "bufferView": 1,
      "byteOffset": 744
    },
    {
      "name": "Box039_1_1_texcoords",
      "componentType": 5126,
      "count": 480,
      "min": [
        -1.3393000364303589,
        -1.1502000093460083
      ],
      "max": [
        2.3392999172210693,
        2.2304999828338623
      ],
      "type": "VEC2",
      "bufferView": 2,
      "byteOffset": 496
    },
    {
      "name": "Box039_1_1_indices",
      "componentType": 5123,
      "count": 720,
      "min": [
        0
      ],
      "max": [
        479
      ],
      "type": "SCALAR",
      "bufferView": 3,
      "byteOffset": 216
    },
    {
      "name": "Box039_1_2_positions",
      "componentType": 5126,
      "count": 16,
      "min": [
        -13.187800407409668,
        -0.9578999876976013,
        28.833099365234375
      ],
      "max": [
        13.187800407409668,
        0.9578999876976013,
        31.693199157714844
      ],
      "type": "VEC3",
      "bufferView": 0,
      "byteOffset": 6504
    },
    {
      "name": "Box039_1_2_normals",
      "componentType": 5126,
      "count": 16,
      "min": [
        0,
        -1,
        -1
      ],
      "max": [
        0,
        1,
        1
      ],
      "type": "VEC3",
      "bufferView": 1,
      "byteOffset": 6504
    },
    {
      "name": "Box039_1_2_texcoords",
      "componentType": 5126,
      "count": 16,
      "min": [
        0,
        -1.021399974822998
      ],
      "max": [
        1,
        2.021399974822998
      ],
      "type": "VEC2",
      "bufferView": 2,
      "byteOffset": 4336
    },
    {
      "name": "Box039_1_2_indices",
      "componentType": 5123,
      "count": 24,
      "min": [
        0
      ],
      "max": [
        15
      ],
      "type": "SCALAR",
      "bufferView": 3,
      "byteOffset": 1656
    }
  ],
  "asset": {
    "generator": "obj2gltf",
    "version": "2.0"
  },
  "buffers": [
    {
      "name": "jz09",
      "byteLength": 19560,
      "uri": "data:application/octet-stream;base64,"
    }
  ],
  "bufferViews": [
    {
      "name": "bufferView_0",
      "buffer": 0,
      "byteLength": 6696,
      "byteOffset": 0,
      "byteStride": 12,
      "target": 34962
    },
    {
      "name": "bufferView_1",
      "buffer": 0,
      "byteLength": 6696,
      "byteOffset": 6696,
      "byteStride": 12,
      "target": 34962
    },
    {
      "name": "bufferView_2",
      "buffer": 0,
      "byteLength": 4464,
      "byteOffset": 13392,
      "byteStride": 8,
      "target": 34962
    },
    {
      "name": "bufferView_3",
      "buffer": 0,
      "byteLength": 1704,
      "byteOffset": 17856,
      "target": 34963
    }
  ],
  "images": [
    {
      "name": "011",
      "uri": "011.jpg"
    },
    {
      "name": "sgy_1q_12",
      "uri": "sgy_1q_12.jpg"
    },
    {
      "name": "sgy_1q_11",
      "uri": "sgy_1q_11.jpg"
    }
  ],
  "materials": [
    {
      "name": "Material__419",
      "pbrMetallicRoughness": {
        "baseColorTexture": {
          "index": 0
        },
        "baseColorFactor": [
          1,
          1,
          1,
          1
        ],
        "metallicFactor": 0,
        "roughnessFactor": 0.99
      },
      "emissiveFactor": [
        0,
        0,
        0
      ],
      "alphaMode": "OPAQUE",
      "doubleSided": false
    },
    {
      "name": "Material__418",
      "pbrMetallicRoughness": {
        "baseColorTexture": {
          "index": 1
        },
        "baseColorFactor": [
          1,
          1,
          1,
          1
        ],
        "metallicFactor": 0,
        "roughnessFactor": 0.99
      },
      "emissiveFactor": [
        0,
        0,
        0
      ],
      "alphaMode": "OPAQUE",
      "doubleSided": false
    },
    {
      "name": "Material__417",
      "pbrMetallicRoughness": {
        "baseColorTexture": {
          "index": 2
        },
        "baseColorFactor": [
          1,
          1,
          1,
          1
        ],
        "metallicFactor": 0,
        "roughnessFactor": 0.99
      },
      "emissiveFactor": [
        0,
        0,
        0
      ],
      "alphaMode": "OPAQUE",
      "doubleSided": false
    }
  ],
  "meshes": [
    {
      "name": "Box039_1",
      "primitives": [
        {
          "attributes": {
            "POSITION": 0,
            "NORMAL": 1,
            "TEXCOORD_0": 2
          },
          "indices": 3,
          "material": 0,
          "mode": 4
        },
        {
          "attributes": {
            "POSITION": 4,
            "NORMAL": 5,
            "TEXCOORD_0": 6
          },
          "indices": 7,
          "material": 1,
          "mode": 4
        },
        {
          "attributes": {
            "POSITION": 8,
            "NORMAL": 9,
            "TEXCOORD_0": 10
          },
          "indices": 11,
          "material": 2,
          "mode": 4
        }
      ]
    }
  ],
  "nodes": [
    {
      "name": "Box039",
      "mesh": 0
    }
  ],
  "samplers": [
    {
      "wrapS": 10497,
      "wrapT": 10497
    }
  ],
  "scene": 0,
  "scenes": [
    {
      "nodes": [
        0
      ]
    }
  ],
  "textures": [
    {
      "name": "011",
      "sampler": 0,
      "source": 0
    },
    {
      "name": "sgy_1q_12",
      "sampler": 0,
      "source": 1
    },
    {
      "name": "sgy_1q_11",
      "sampler": 0,
      "source": 2
    }
  ]
}
