{"asset":{"version":"2.0","generator":"babylon.js glTF exporter for 3dsmax 2022 v20240125.3"},"scene":0,"scenes":[{"nodes":[0]}],"nodes":[{"mesh":0,"translation":[0.0,0.0004310608,0.0],"rotation":[0.0,8.742278E-08,0.0,1.0],"name":"Text167"}],"meshes":[{"primitives":[{"attributes":{"POSITION":1,"NORMAL":2,"TEXCOORD_0":3},"indices":0,"material":0},{"attributes":{"POSITION":5,"NORMAL":6,"TEXCOORD_0":7},"indices":4,"material":1},{"attributes":{"POSITION":9,"NORMAL":10,"TEXCOORD_0":11},"indices":8,"material":2},{"attributes":{"POSITION":13,"NORMAL":14,"TEXCOORD_0":15},"indices":12,"material":3},{"attributes":{"POSITION":17,"NORMAL":18,"TEXCOORD_0":19},"indices":16,"material":4},{"attributes":{"POSITION":21,"NORMAL":22,"TEXCOORD_0":23},"indices":20,"material":5},{"attributes":{"POSITION":25,"NORMAL":26,"TEXCOORD_0":27},"indices":24,"material":6},{"attributes":{"POSITION":29,"NORMAL":30,"TEXCOORD_0":31},"indices":28,"material":7},{"attributes":{"POSITION":33,"NORMAL":34,"TEXCOORD_0":35},"indices":32,"material":8},{"attributes":{"POSITION":37,"NORMAL":38,"TEXCOORD_0":39},"indices":36,"material":9},{"attributes":{"POSITION":41,"NORMAL":42,"TEXCOORD_0":43},"indices":40,"material":10}],"name":"Text167"}],"accessors":[{"bufferView":0,"componentType":5123,"count":32166,"type":"SCALAR","name":"accessorIndices"},{"bufferView":1,"componentType":5126,"count":18598,"max":[193.826233,191.043976,15.5481186],"min":[-141.09433,-265.0563,2.29200315],"type":"VEC3","name":"accessorPositions"},{"bufferView":1,"byteOffset":223176,"componentType":5126,"count":18598,"type":"VEC3","name":"accessorNormals"},{"bufferView":2,"componentType":5126,"count":18598,"type":"VEC2","name":"accessorUVs"},{"bufferView":0,"byteOffset":64332,"componentType":5123,"count":444,"type":"SCALAR","name":"accessorIndices"},{"bufferView":1,"byteOffset":446352,"componentType":5126,"count":320,"max":[195.99234,190.777924,13.3325443],"min":[-150.205353,-363.2771,-0.000157825853],"type":"VEC3","name":"accessorPositions"},{"bufferView":1,"byteOffset":450192,"componentType":5126,"count":320,"type":"VEC3","name":"accessorNormals"},{"bufferView":2,"byteOffset":148784,"componentType":5126,"count":320,"type":"VEC2","name":"accessorUVs"},{"bufferView":0,"byteOffset":65220,"componentType":5123,"count":2313,"type":"SCALAR","name":"accessorIndices"},{"bufferView":1,"byteOffset":454032,"componentType":5126,"count":1663,"max":[195.99234,194.799622,17.493206],"min":[-150.205383,-366.109833,-0.000157690927],"type":"VEC3","name":"accessorPositions"},{"bufferView":1,"byteOffset":473988,"componentType":5126,"count":1663,"type":"VEC3","name":"accessorNormals"},{"bufferView":2,"byteOffset":151344,"componentType":5126,"count":1663,"type":"VEC2","name":"accessorUVs"},{"bufferView":0,"byteOffset":69848,"componentType":5123,"count":30030,"type":"SCALAR","name":"accessorIndices"},{"bufferView":1,"byteOffset":493944,"componentType":5126,"count":20061,"max":[195.644348,168.072433,9.76991749],"min":[-149.646591,-363.4629,5.095845],"type":"VEC3","name":"accessorPositions"},{"bufferView":1,"byteOffset":734676,"componentType":5126,"count":20061,"type":"VEC3","name":"accessorNormals"},{"bufferView":2,"byteOffset":164648,"componentType":5126,"count":20061,"type":"VEC2","name":"accessorUVs"},{"bufferView":0,"byteOffset":129908,"componentType":5123,"count":240,"type":"SCALAR","name":"accessorIndices"},{"bufferView":1,"byteOffset":975408,"componentType":5126,"count":188,"max":[188.91394,190.777908,13.3325443],"min":[-43.9669266,-264.821442,-9.708227E-05],"type":"VEC3","name":"accessorPositions"},{"bufferView":1,"byteOffset":977664,"componentType":5126,"count":188,"type":"VEC3","name":"accessorNormals"},{"bufferView":2,"byteOffset":325136,"componentType":5126,"count":188,"type":"VEC2","name":"accessorUVs"},{"bufferView":0,"byteOffset":130388,"componentType":5123,"count":726,"type":"SCALAR","name":"accessorIndices"},{"bufferView":1,"byteOffset":979920,"componentType":5126,"count":301,"max":[195.448517,183.904434,16.6980362],"min":[-149.372452,-362.54425,-0.000157690927],"type":"VEC3","name":"accessorPositions"},{"bufferView":1,"byteOffset":983532,"componentType":5126,"count":301,"type":"VEC3","name":"accessorNormals"},{"bufferView":2,"byteOffset":326640,"componentType":5126,"count":301,"type":"VEC2","name":"accessorUVs"},{"bufferView":0,"byteOffset":131840,"componentType":5123,"count":228,"type":"SCALAR","name":"accessorIndices"},{"bufferView":1,"byteOffset":987144,"componentType":5126,"count":151,"max":[195.448517,181.911484,10.2197542],"min":[-149.372421,-363.2771,-0.000156792172],"type":"VEC3","name":"accessorPositions"},{"bufferView":1,"byteOffset":988956,"componentType":5126,"count":151,"type":"VEC3","name":"accessorNormals"},{"bufferView":2,"byteOffset":329048,"componentType":5126,"count":151,"type":"VEC2","name":"accessorUVs"},{"bufferView":0,"byteOffset":132296,"componentType":5123,"count":180,"type":"SCALAR","name":"accessorIndices"},{"bufferView":1,"byteOffset":990768,"componentType":5126,"count":508,"max":[195.448517,189.737457,16.6980362],"min":[-149.372452,-363.2771,-0.000157690927],"type":"VEC3","name":"accessorPositions"},{"bufferView":1,"byteOffset":996864,"componentType":5126,"count":508,"type":"VEC3","name":"accessorNormals"},{"bufferView":2,"byteOffset":330256,"componentType":5126,"count":508,"type":"VEC2","name":"accessorUVs"},{"bufferView":0,"byteOffset":132656,"componentType":5123,"count":180,"type":"SCALAR","name":"accessorIndices"},{"bufferView":1,"byteOffset":1002960,"componentType":5126,"count":488,"max":[195.448517,189.737457,16.6980362],"min":[-149.372452,-363.2771,-0.000157690927],"type":"VEC3","name":"accessorPositions"},{"bufferView":1,"byteOffset":1008816,"componentType":5126,"count":488,"type":"VEC3","name":"accessorNormals"},{"bufferView":2,"byteOffset":334320,"componentType":5126,"count":488,"type":"VEC2","name":"accessorUVs"},{"bufferView":0,"byteOffset":133016,"componentType":5123,"count":2880,"type":"SCALAR","name":"accessorIndices"},{"bufferView":1,"byteOffset":1014672,"componentType":5126,"count":1224,"max":[-68.77469,45.1550751,15.6152611],"min":[-147.554276,-253.1366,-1.51621377],"type":"VEC3","name":"accessorPositions"},{"bufferView":1,"byteOffset":1029360,"componentType":5126,"count":1224,"type":"VEC3","name":"accessorNormals"},{"bufferView":2,"byteOffset":338224,"componentType":5126,"count":1224,"type":"VEC2","name":"accessorUVs"},{"bufferView":0,"byteOffset":138776,"componentType":5123,"count":348,"type":"SCALAR","name":"accessorIndices"},{"bufferView":1,"byteOffset":1044048,"componentType":5126,"count":227,"max":[195.99234,194.7996,17.493206],"min":[-150.205383,-366.109833,8.768962],"type":"VEC3","name":"accessorPositions"},{"bufferView":1,"byteOffset":1046772,"componentType":5126,"count":227,"type":"VEC3","name":"accessorNormals"},{"bufferView":2,"byteOffset":348016,"componentType":5126,"count":227,"type":"VEC2","name":"accessorUVs"}],"bufferViews":[{"buffer":0,"byteLength":139472,"name":"bufferViewScalar"},{"buffer":0,"byteOffset":139472,"byteLength":1049496,"byteStride":12,"name":"bufferViewFloatVec3"},{"buffer":0,"byteOffset":1188968,"byteLength":349832,"byteStride":8,"name":"bufferViewFloatVec2"}],"buffers":[{"uri":"sgy_cg_x.bin","byteLength":1538800}],"materials":[{"pbrMetallicRoughness":{"baseColorTexture":{"index":0},"metallicFactor":0.0,"roughnessFactor":0.450053632},"name":"Material #798"},{"pbrMetallicRoughness":{"baseColorTexture":{"index":1},"metallicFactor":0.0,"roughnessFactor":0.450053632},"name":"Material #792"},{"pbrMetallicRoughness":{"baseColorTexture":{"index":2},"metallicFactor":0.0,"roughnessFactor":0.450053632},"name":"Material #793"},{"pbrMetallicRoughness":{"baseColorTexture":{"index":3},"metallicFactor":0.0,"roughnessFactor":0.450053632},"name":"Material #1245"},{"pbrMetallicRoughness":{"baseColorTexture":{"index":4},"metallicFactor":0.0,"roughnessFactor":0.450053632},"name":"Material #794"},{"pbrMetallicRoughness":{"baseColorTexture":{"index":5},"metallicFactor":0.0,"roughnessFactor":0.450053632},"name":"Material #795"},{"pbrMetallicRoughness":{"baseColorTexture":{"index":6},"metallicFactor":0.0,"roughnessFactor":0.450053632},"name":"Material #796"},{"pbrMetallicRoughness":{"baseColorTexture":{"index":7},"metallicFactor":0.0,"roughnessFactor":0.450053632},"name":"Material #797"},{"pbrMetallicRoughness":{"baseColorTexture":{"index":8},"metallicFactor":0.0,"roughnessFactor":0.450053632},"name":"Material #799"},{"pbrMetallicRoughness":{"baseColorTexture":{"index":9},"metallicFactor":0.0,"roughnessFactor":0.450053632},"name":"Material #802"},{"pbrMetallicRoughness":{"baseColorTexture":{"index":10},"metallicFactor":0.0,"roughnessFactor":0.450053632},"name":"Material #1298"}],"textures":[{"sampler":0,"source":0,"name":"sgbq_008.jpg"},{"sampler":0,"source":1,"name":"sgbq_001.jpg"},{"sampler":0,"source":2,"name":"sgbq_002.jpg"},{"sampler":0,"source":3,"name":"sgbq_0012.jpg"},{"sampler":0,"source":4,"name":"sgbq_004.jpg"},{"sampler":0,"source":5,"name":"sgbq_005.png"},{"sampler":0,"source":6,"name":"sgbq_006.jpg"},{"sampler":0,"source":7,"name":"sgbq_007.png"},{"sampler":0,"source":8,"name":"sgbq_008.png"},{"sampler":0,"source":9,"name":"sgbq_011.jpg"},{"sampler":0,"source":10,"name":"sgbq_003.jpg"}],"images":[{"uri":"sgbq_008.jpg"},{"uri":"sgbq_001.jpg"},{"uri":"sgbq_002.jpg"},{"uri":"sgbq_0012.jpg"},{"uri":"sgbq_004.jpg"},{"uri":"sgbq_005.png"},{"uri":"sgbq_006.jpg"},{"uri":"sgbq_007.png"},{"uri":"sgbq_008.png"},{"uri":"sgbq_011.jpg"},{"uri":"sgbq_003.jpg"}],"samplers":[{"magFilter":9729,"minFilter":9987}]}