{
  "accessors": [
    {
      "name": "Box051_1_0_positions",
      "componentType": 5126,
      "count": 23,
      "min": [
        -32.5,
        -20,
        0
      ],
      "max": [
        32.5,
        20,
        7.5432000160217285
      ],
      "type": "VEC3",
      "bufferView": 0,
      "byteOffset": 0
    },
    {
      "name": "Box051_1_0_normals",
      "componentType": 5126,
      "count": 23,
      "min": [
        -1,
        -1,
        0
      ],
      "max": [
        1,
        1,
        0
      ],
      "type": "VEC3",
      "bufferView": 1,
      "byteOffset": 0
    },
    {
      "name": "Box051_1_0_texcoords",
      "componentType": 5126,
      "count": 23,
      "min": [
        -4.993800163269043,
        7.012599945068359
      ],
      "max": [
        1.1466000080108643,
        8.066399574279785
      ],
      "type": "VEC2",
      "bufferView": 2,
      "byteOffset": 0
    },
    {
      "name": "Box051_1_0_indices",
      "componentType": 5123,
      "count": 45,
      "min": [
        0
      ],
      "max": [
        22
      ],
      "type": "SCALAR",
      "bufferView": 3,
      "byteOffset": 0
    },
    {
      "name": "Box051_1_1_positions",
      "componentType": 5126,
      "count": 82,
      "min": [
        20.351499557495117,
        -23,
        7.5432000160217285
      ],
      "max": [
        32.5,
        23,
        38.54930114746094
      ],
      "type": "VEC3",
      "bufferView": 0,
      "byteOffset": 276
    },
    {
      "name": "Box051_1_1_normals",
      "componentType": 5126,
      "count": 82,
      "min": [
        -1,
        -1,
        -1
      ],
      "max": [
        1,
        1,
        1
      ],
      "type": "VEC3",
      "bufferView": 1,
      "byteOffset": 276
    },
    {
      "name": "Box051_1_1_texcoords",
      "componentType": 5126,
      "count": 82,
      "min": [
        -4.247799873352051,
        1.128499984741211
      ],
      "max": [
        5.8007001876831055,
        6.378900051116943
      ],
      "type": "VEC2",
      "bufferView": 2,
      "byteOffset": 184
    },
    {
      "name": "Box051_1_1_indices",
      "componentType": 5123,
      "count": 132,
      "min": [
        0
      ],
      "max": [
        81
      ],
      "type": "SCALAR",
      "bufferView": 3,
      "byteOffset": 92
    },
    {
      "name": "Box051_1_2_positions",
      "componentType": 5126,
      "count": 47,
      "min": [
        -32.5,
        -20,
        7.5432000160217285
      ],
      "max": [
        32.5,
        20,
        50
      ],
      "type": "VEC3",
      "bufferView": 0,
      "byteOffset": 1260
    },
    {
      "name": "Box051_1_2_normals",
      "componentType": 5126,
      "count": 47,
      "min": [
        -1,
        -1,
        0
      ],
      "max": [
        1,
        1,
        0
      ],
      "type": "VEC3",
      "bufferView": 1,
      "byteOffset": 1260
    },
    {
      "name": "Box051_1_2_texcoords",
      "componentType": 5126,
      "count": 47,
      "min": [
        -4.418300151824951,
        -5.518499851226807
      ],
      "max": [
        5.459799766540527,
        6.518499851226807
      ],
      "type": "VEC2",
      "bufferView": 2,
      "byteOffset": 840
    },
    {
      "name": "Box051_1_2_indices",
      "componentType": 5123,
      "count": 87,
      "min": [
        0
      ],
      "max": [
        46
      ],
      "type": "SCALAR",
      "bufferView": 3,
      "byteOffset": 356
    },
    {
      "name": "Box051_1_3_positions",
      "componentType": 5126,
      "count": 12,
      "min": [
        -32.5,
        -20,
        7.5432000160217285
      ],
      "max": [
        18.850000381469727,
        20,
        38.54930114746094
      ],
      "type": "VEC3",
      "bufferView": 0,
      "byteOffset": 1824
    },
    {
      "name": "Box051_1_3_normals",
      "componentType": 5126,
      "count": 12,
      "min": [
        -1,
        -1,
        0
      ],
      "max": [
        0,
        1,
        0
      ],
      "type": "VEC3",
      "bufferView": 1,
      "byteOffset": 1824
    },
    {
      "name": "Box051_1_3_texcoords",
      "componentType": 5126,
      "count": 12,
      "min": [
        -4.243500232696533,
        1.128499984741211
      ],
      "max": [
        5.79640007019043,
        6.378900051116943
      ],
      "type": "VEC2",
      "bufferView": 2,
      "byteOffset": 1216
    },
    {
      "name": "Box051_1_3_indices",
      "componentType": 5123,
      "count": 18,
      "min": [
        0
      ],
      "max": [
        11
      ],
      "type": "SCALAR",
      "bufferView": 3,
      "byteOffset": 532
    },
    {
      "name": "Box051_1_4_positions",
      "componentType": 5126,
      "count": 96,
      "min": [
        -37,
        -24,
        6.951600074768066
      ],
      "max": [
        37,
        24,
        50
      ],
      "type": "VEC3",
      "bufferView": 0,
      "byteOffset": 1968
    },
    {
      "name": "Box051_1_4_normals",
      "componentType": 5126,
      "count": 96,
      "min": [
        -1,
        -1,
        -1
      ],
      "max": [
        1,
        1,
        1
      ],
      "type": "VEC3",
      "bufferView": 1,
      "byteOffset": 1968
    },
    {
      "name": "Box051_1_4_texcoords",
      "componentType": 5126,
      "count": 96,
      "min": [
        -0.9668999910354614,
        -0.9668999910354614
      ],
      "max": [
        1.9668999910354614,
        1.9668999910354614
      ],
      "type": "VEC2",
      "bufferView": 2,
      "byteOffset": 1312
    },
    {
      "name": "Box051_1_4_indices",
      "componentType": 5123,
      "count": 144,
      "min": [
        0
      ],
      "max": [
        95
      ],
      "type": "SCALAR",
      "bufferView": 3,
      "byteOffset": 568
    }
  ],
  "asset": {
    "generator": "obj2gltf",
    "version": "2.0"
  },
  "buffers": [
    {
      "name": "jz12",
      "byteLength": 9176,
      "uri": "data:application/octet-stream;base64,"
    }
  ],
  "bufferViews": [
    {
      "name": "bufferView_0",
      "buffer": 0,
      "byteLength": 3120,
      "byteOffset": 0,
      "byteStride": 12,
      "target": 34962
    },
    {
      "name": "bufferView_1",
      "buffer": 0,
      "byteLength": 3120,
      "byteOffset": 3120,
      "byteStride": 12,
      "target": 34962
    },
    {
      "name": "bufferView_2",
      "buffer": 0,
      "byteLength": 2080,
      "byteOffset": 6240,
      "byteStride": 8,
      "target": 34962
    },
    {
      "name": "bufferView_3",
      "buffer": 0,
      "byteLength": 856,
      "byteOffset": 8320,
      "target": 34963
    }
  ],
  "images": [
    {
      "name": "sgy_1q_18",
      "uri": "sgy_1q_18.jpg"
    },
    {
      "name": "sgy_1q_20",
      "uri": "sgy_1q_20.jpg"
    },
    {
      "name": "sgy_1q_19",
      "uri": "sgy_1q_19.jpg"
    },
    {
      "name": "sgy_1q_17",
      "uri": "sgy_1q_17.jpg"
    },
    {
      "name": "sgy_1q_08",
      "uri": "sgy_1q_08.jpg"
    }
  ],
  "materials": [
    {
      "name": "Material__148",
      "pbrMetallicRoughness": {
        "baseColorTexture": {
          "index": 0
        },
        "baseColorFactor": [
          1,
          1,
          1,
          1
        ],
        "metallicFactor": 0,
        "roughnessFactor": 0.99
      },
      "emissiveFactor": [
        0,
        0,
        0
      ],
      "alphaMode": "OPAQUE",
      "doubleSided": false
    },
    {
      "name": "Material__101",
      "pbrMetallicRoughness": {
        "baseColorTexture": {
          "index": 1
        },
        "baseColorFactor": [
          1,
          1,
          1,
          1
        ],
        "metallicFactor": 0,
        "roughnessFactor": 0.99
      },
      "emissiveFactor": [
        0,
        0,
        0
      ],
      "alphaMode": "OPAQUE",
      "doubleSided": false
    },
    {
      "name": "Material__103",
      "pbrMetallicRoughness": {
        "baseColorTexture": {
          "index": 2
        },
        "baseColorFactor": [
          1,
          1,
          1,
          1
        ],
        "metallicFactor": 0,
        "roughnessFactor": 0.99
      },
      "emissiveFactor": [
        0,
        0,
        0
      ],
      "alphaMode": "OPAQUE",
      "doubleSided": false
    },
    {
      "name": "Material__100",
      "pbrMetallicRoughness": {
        "baseColorTexture": {
          "index": 3
        },
        "baseColorFactor": [
          1,
          1,
          1,
          1
        ],
        "metallicFactor": 0,
        "roughnessFactor": 0.99
      },
      "emissiveFactor": [
        0,
        0,
        0
      ],
      "alphaMode": "OPAQUE",
      "doubleSided": false
    },
    {
      "name": "Material__88",
      "pbrMetallicRoughness": {
        "baseColorTexture": {
          "index": 4
        },
        "baseColorFactor": [
          1,
          1,
          1,
          1
        ],
        "metallicFactor": 0,
        "roughnessFactor": 0.99
      },
      "emissiveFactor": [
        0,
        0,
        0
      ],
      "alphaMode": "OPAQUE",
      "doubleSided": false
    }
  ],
  "meshes": [
    {
      "name": "Box051_1",
      "primitives": [
        {
          "attributes": {
            "POSITION": 0,
            "NORMAL": 1,
            "TEXCOORD_0": 2
          },
          "indices": 3,
          "material": 0,
          "mode": 4
        },
        {
          "attributes": {
            "POSITION": 4,
            "NORMAL": 5,
            "TEXCOORD_0": 6
          },
          "indices": 7,
          "material": 1,
          "mode": 4
        },
        {
          "attributes": {
            "POSITION": 8,
            "NORMAL": 9,
            "TEXCOORD_0": 10
          },
          "indices": 11,
          "material": 2,
          "mode": 4
        },
        {
          "attributes": {
            "POSITION": 12,
            "NORMAL": 13,
            "TEXCOORD_0": 14
          },
          "indices": 15,
          "material": 3,
          "mode": 4
        },
        {
          "attributes": {
            "POSITION": 16,
            "NORMAL": 17,
            "TEXCOORD_0": 18
          },
          "indices": 19,
          "material": 4,
          "mode": 4
        }
      ]
    }
  ],
  "nodes": [
    {
      "name": "Box051",
      "mesh": 0
    }
  ],
  "samplers": [
    {
      "wrapS": 10497,
      "wrapT": 10497
    }
  ],
  "scene": 0,
  "scenes": [
    {
      "nodes": [
        0
      ]
    }
  ],
  "textures": [
    {
      "name": "sgy_1q_18",
      "sampler": 0,
      "source": 0
    },
    {
      "name": "sgy_1q_20",
      "sampler": 0,
      "source": 1
    },
    {
      "name": "sgy_1q_19",
      "sampler": 0,
      "source": 2
    },
    {
      "name": "sgy_1q_17",
      "sampler": 0,
      "source": 3
    },
    {
      "name": "sgy_1q_08",
      "sampler": 0,
      "source": 4
    }
  ]
}
