{
  "accessors": [
    {
      "name": "Box057_1_0_positions",
      "componentType": 5126,
      "count": 1864,
      "min": [
        -67.66670227050781,
        -7.935200214385986,
        0
      ],
      "max": [
        65.85389709472656,
        15.375800132751465,
        18.21809959411621
      ],
      "type": "VEC3",
      "bufferView": 0,
      "byteOffset": 0
    },
    {
      "name": "Box057_1_0_normals",
      "componentType": 5126,
      "count": 1864,
      "min": [
        -1,
        -1,
        -1
      ],
      "max": [
        1,
        1,
        1
      ],
      "type": "VEC3",
      "bufferView": 1,
      "byteOffset": 0
    },
    {
      "name": "Box057_1_0_texcoords",
      "componentType": 5126,
      "count": 1864,
      "min": [
        -3.313499927520752,
        -0.6656000018119812
      ],
      "max": [
        4.313499927520752,
        1.8767999410629272
      ],
      "type": "VEC2",
      "bufferView": 2,
      "byteOffset": 0
    },
    {
      "name": "Box057_1_0_indices",
      "componentType": 5123,
      "count": 3345,
      "min": [
        0
      ],
      "max": [
        1863
      ],
      "type": "SCALAR",
      "bufferView": 3,
      "byteOffset": 0
    },
    {
      "name": "Box057_1_1_positions",
      "componentType": 5126,
      "count": 280,
      "min": [
        -66.86669921875,
        -9.333999633789062,
        0
      ],
      "max": [
        55.12969970703125,
        14.784099578857422,
        20.53510093688965
      ],
      "type": "VEC3",
      "bufferView": 0,
      "byteOffset": 22368
    },
    {
      "name": "Box057_1_1_normals",
      "componentType": 5126,
      "count": 280,
      "min": [
        -1,
        -1,
        0
      ],
      "max": [
        1,
        1,
        0
      ],
      "type": "VEC3",
      "bufferView": 1,
      "byteOffset": 22368
    },
    {
      "name": "Box057_1_1_texcoords",
      "componentType": 5126,
      "count": 280,
      "min": [
        -5.99459981918335,
        -4.337399959564209
      ],
      "max": [
        6.99459981918335,
        5.969099998474121
      ],
      "type": "VEC2",
      "bufferView": 2,
      "byteOffset": 14912
    },
    {
      "name": "Box057_1_1_indices",
      "componentType": 5123,
      "count": 414,
      "min": [
        0
      ],
      "max": [
        279
      ],
      "type": "SCALAR",
      "bufferView": 3,
      "byteOffset": 6692
    },
    {
      "name": "Box057_1_2_positions",
      "componentType": 5126,
      "count": 805,
      "min": [
        -58.46120071411133,
        -15.375900268554688,
        0
      ],
      "max": [
        64.9186019897461,
        15.375800132751465,
        27.53510093688965
      ],
      "type": "VEC3",
      "bufferView": 0,
      "byteOffset": 25728
    },
    {
      "name": "Box057_1_2_normals",
      "componentType": 5126,
      "count": 805,
      "min": [
        -1,
        -1,
        -1
      ],
      "max": [
        1,
        1,
        1
      ],
      "type": "VEC3",
      "bufferView": 1,
      "byteOffset": 25728
    },
    {
      "name": "Box057_1_2_texcoords",
      "componentType": 5126,
      "count": 805,
      "min": [
        -3.313499927520752,
        -0.876800000667572
      ],
      "max": [
        4.313499927520752,
        1.7574000358581543
      ],
      "type": "VEC2",
      "bufferView": 2,
      "byteOffset": 17152
    },
    {
      "name": "Box057_1_2_indices",
      "componentType": 5123,
      "count": 1308,
      "min": [
        0
      ],
      "max": [
        804
      ],
      "type": "SCALAR",
      "bufferView": 3,
      "byteOffset": 7520
    },
    {
      "name": "Box057_1_3_positions",
      "componentType": 5126,
      "count": 32,
      "min": [
        -58.46120071411133,
        -7.935200214385986,
        21.068199157714844
      ],
      "max": [
        29.117599487304688,
        15.375800132751465,
        27.00200080871582
      ],
      "type": "VEC3",
      "bufferView": 0,
      "byteOffset": 35388
    },
    {
      "name": "Box057_1_3_normals",
      "componentType": 5126,
      "count": 32,
      "min": [
        -1,
        -1,
        0
      ],
      "max": [
        1,
        1,
        0
      ],
      "type": "VEC3",
      "bufferView": 1,
      "byteOffset": 35388
    },
    {
      "name": "Box057_1_3_texcoords",
      "componentType": 5126,
      "count": 32,
      "min": [
        -3.4848999977111816,
        0
      ],
      "max": [
        4.484899997711182,
        1
      ],
      "type": "VEC2",
      "bufferView": 2,
      "byteOffset": 23592
    },
    {
      "name": "Box057_1_3_indices",
      "componentType": 5123,
      "count": 48,
      "min": [
        0
      ],
      "max": [
        31
      ],
      "type": "SCALAR",
      "bufferView": 3,
      "byteOffset": 10136
    },
    {
      "name": "Box057_1_4_positions",
      "componentType": 5126,
      "count": 61,
      "min": [
        29.117599487304688,
        -7.935200214385986,
        3.928299903869629
      ],
      "max": [
        67.66670227050781,
        11.138299942016602,
        14.587200164794922
      ],
      "type": "VEC3",
      "bufferView": 0,
      "byteOffset": 35772
    },
    {
      "name": "Box057_1_4_normals",
      "componentType": 5126,
      "count": 61,
      "min": [
        -1,
        -1,
        -1
      ],
      "max": [
        1,
        1,
        1
      ],
      "type": "VEC3",
      "bufferView": 1,
      "byteOffset": 35772
    },
    {
      "name": "Box057_1_4_texcoords",
      "componentType": 5126,
      "count": 61,
      "min": [
        0,
        0
      ],
      "max": [
        1,
        1.5388000011444092
      ],
      "type": "VEC2",
      "bufferView": 2,
      "byteOffset": 23848
    },
    {
      "name": "Box057_1_4_indices",
      "componentType": 5123,
      "count": 99,
      "min": [
        0
      ],
      "max": [
        60
      ],
      "type": "SCALAR",
      "bufferView": 3,
      "byteOffset": 10232
    },
    {
      "name": "Box057_1_5_positions",
      "componentType": 5126,
      "count": 20,
      "min": [
        36.11349868774414,
        -6.635200023651123,
        7.1996002197265625
      ],
      "max": [
        66.41739654541016,
        3.58870005607605,
        22.99220085144043
      ],
      "type": "VEC3",
      "bufferView": 0,
      "byteOffset": 36504
    },
    {
      "name": "Box057_1_5_normals",
      "componentType": 5126,
      "count": 20,
      "min": [
        -1,
        -1,
        0
      ],
      "max": [
        1,
        1,
        0
      ],
      "type": "VEC3",
      "bufferView": 1,
      "byteOffset": 36504
    },
    {
      "name": "Box057_1_5_texcoords",
      "componentType": 5126,
      "count": 20,
      "min": [
        -4.503600120544434,
        0
      ],
      "max": [
        5.503600120544434,
        1
      ],
      "type": "VEC2",
      "bufferView": 2,
      "byteOffset": 24336
    },
    {
      "name": "Box057_1_5_indices",
      "componentType": 5123,
      "count": 30,
      "min": [
        0
      ],
      "max": [
        19
      ],
      "type": "SCALAR",
      "bufferView": 3,
      "byteOffset": 10432
    },
    {
      "name": "Box057_1_6_positions",
      "componentType": 5126,
      "count": 14,
      "min": [
        -37.03369903564453,
        -10.68280029296875,
        0
      ],
      "max": [
        -1.5154000520706177,
        -10.68280029296875,
        9.154800415039062
      ],
      "type": "VEC3",
      "bufferView": 0,
      "byteOffset": 36744
    },
    {
      "name": "Box057_1_6_normals",
      "componentType": 5126,
      "count": 14,
      "min": [
        0,
        -1,
        0
      ],
      "max": [
        0,
        -1,
        0
      ],
      "type": "VEC3",
      "bufferView": 1,
      "byteOffset": 36744
    },
    {
      "name": "Box057_1_6_texcoords",
      "componentType": 5126,
      "count": 14,
      "min": [
        0,
        0.18369999527931213
      ],
      "max": [
        1,
        0.9929999709129333
      ],
      "type": "VEC2",
      "bufferView": 2,
      "byteOffset": 24496
    },
    {
      "name": "Box057_1_6_indices",
      "componentType": 5123,
      "count": 24,
      "min": [
        0
      ],
      "max": [
        13
      ],
      "type": "SCALAR",
      "bufferView": 3,
      "byteOffset": 10492
    },
    {
      "name": "Box057_1_7_positions",
      "componentType": 5126,
      "count": 4,
      "min": [
        -27.015300750732422,
        -14.86520004272461,
        7.200300216674805
      ],
      "max": [
        -11.523200035095215,
        -14.86520004272461,
        8.430999755859375
      ],
      "type": "VEC3",
      "bufferView": 0,
      "byteOffset": 36912
    },
    {
      "name": "Box057_1_7_normals",
      "componentType": 5126,
      "count": 4,
      "min": [
        0,
        -1,
        0
      ],
      "max": [
        0,
        -1,
        0
      ],
      "type": "VEC3",
      "bufferView": 1,
      "byteOffset": 36912
    },
    {
      "name": "Box057_1_7_texcoords",
      "componentType": 5126,
      "count": 4,
      "min": [
        0,
        0.13899999856948853
      ],
      "max": [
        1,
        0.8610000014305115
      ],
      "type": "VEC2",
      "bufferView": 2,
      "byteOffset": 24608
    },
    {
      "name": "Box057_1_7_indices",
      "componentType": 5123,
      "count": 6,
      "min": [
        0
      ],
      "max": [
        3
      ],
      "type": "SCALAR",
      "bufferView": 3,
      "byteOffset": 10540
    },
    {
      "name": "Box057_1_8_positions",
      "componentType": 5126,
      "count": 4,
      "min": [
        -31.04560089111328,
        -14.86520004272461,
        6.353400230407715
      ],
      "max": [
        -26.774900436401367,
        -14.86520004272461,
        10.490500450134277
      ],
      "type": "VEC3",
      "bufferView": 0,
      "byteOffset": 36960
    },
    {
      "name": "Box057_1_8_normals",
      "componentType": 5126,
      "count": 4,
      "min": [
        0,
        -1,
        0
      ],
      "max": [
        0,
        -1,
        0
      ],
      "type": "VEC3",
      "bufferView": 1,
      "byteOffset": 36960
    },
    {
      "name": "Box057_1_8_texcoords",
      "componentType": 5126,
      "count": 4,
      "min": [
        0,
        0
      ],
      "max": [
        1,
        1
      ],
      "type": "VEC2",
      "bufferView": 2,
      "byteOffset": 24640
    },
    {
      "name": "Box057_1_8_indices",
      "componentType": 5123,
      "count": 6,
      "min": [
        0
      ],
      "max": [
        3
      ],
      "type": "SCALAR",
      "bufferView": 3,
      "byteOffset": 10552
    },
    {
      "name": "Box057_1_9_positions",
      "componentType": 5126,
      "count": 4,
      "min": [
        -11.86240005493164,
        -14.86520004272461,
        6.353400230407715
      ],
      "max": [
        -7.591700077056885,
        -14.86520004272461,
        10.490500450134277
      ],
      "type": "VEC3",
      "bufferView": 0,
      "byteOffset": 37008
    },
    {
      "name": "Box057_1_9_normals",
      "componentType": 5126,
      "count": 4,
      "min": [
        0,
        -1,
        0
      ],
      "max": [
        0,
        -1,
        0
      ],
      "type": "VEC3",
      "bufferView": 1,
      "byteOffset": 37008
    },
    {
      "name": "Box057_1_9_texcoords",
      "componentType": 5126,
      "count": 4,
      "min": [
        0,
        0
      ],
      "max": [
        1,
        1
      ],
      "type": "VEC2",
      "bufferView": 2,
      "byteOffset": 24672
    },
    {
      "name": "Box057_1_9_indices",
      "componentType": 5123,
      "count": 6,
      "min": [
        0
      ],
      "max": [
        3
      ],
      "type": "SCALAR",
      "bufferView": 3,
      "byteOffset": 10564
    }
  ],
  "asset": {
    "generator": "obj2gltf",
    "version": "2.0"
  },
  "buffers": [
    {
      "name": "2_jz12",
      "byteLength": 109392,
      "uri": "data:application/octet-stream;base64,"
    }
  ],
  "bufferViews": [
    {
      "name": "bufferView_0",
      "buffer": 0,
      "byteLength": 37056,
      "byteOffset": 0,
      "byteStride": 12,
      "target": 34962
    },
    {
      "name": "bufferView_1",
      "buffer": 0,
      "byteLength": 37056,
      "byteOffset": 37056,
      "byteStride": 12,
      "target": 34962
    },
    {
      "name": "bufferView_2",
      "buffer": 0,
      "byteLength": 24704,
      "byteOffset": 74112,
      "byteStride": 8,
      "target": 34962
    },
    {
      "name": "bufferView_3",
      "buffer": 0,
      "byteLength": 10576,
      "byteOffset": 98816,
      "target": 34963
    }
  ],
  "images": [
    {
      "name": "011",
      "uri": "011.jpg"
    },
    {
      "name": "sgy_2q_34",
      "uri": "sgy_2q_34.jpg"
    },
    {
      "name": "sgy_2q_09",
      "uri": "sgy_2q_09.jpg"
    },
    {
      "name": "sgy_2q_35",
      "uri": "sgy_2q_35.jpg"
    },
    {
      "name": "sgy_2q_29",
      "uri": "sgy_2q_29.jpg"
    },
    {
      "name": "sgy_2q_36",
      "uri": "sgy_2q_36.jpg"
    },
    {
      "name": "sgy_2q_37",
      "uri": "sgy_2q_37.jpg"
    },
    {
      "name": "sgy_2q_40",
      "uri": "sgy_2q_40.png"
    },
    {
      "name": "sgy_2q_39",
      "uri": "sgy_2q_39.png"
    },
    {
      "name": "sgy_2q_38",
      "uri": "sgy_2q_38.png"
    }
  ],
  "materials": [
    {
      "name": "Material__1981",
      "pbrMetallicRoughness": {
        "baseColorTexture": {
          "index": 0
        },
        "baseColorFactor": [
          1,
          1,
          1,
          1
        ],
        "metallicFactor": 0,
        "roughnessFactor": 0.99
      },
      "emissiveFactor": [
        0,
        0,
        0
      ],
      "alphaMode": "OPAQUE",
      "doubleSided": false
    },
    {
      "name": "Material__1854",
      "pbrMetallicRoughness": {
        "baseColorTexture": {
          "index": 1
        },
        "baseColorFactor": [
          1,
          1,
          1,
          1
        ],
        "metallicFactor": 0,
        "roughnessFactor": 0.99
      },
      "emissiveFactor": [
        0,
        0,
        0
      ],
      "alphaMode": "OPAQUE",
      "doubleSided": false
    },
    {
      "name": "Material__2059",
      "pbrMetallicRoughness": {
        "baseColorTexture": {
          "index": 2
        },
        "baseColorFactor": [
          1,
          1,
          1,
          1
        ],
        "metallicFactor": 0,
        "roughnessFactor": 0.99
      },
      "emissiveFactor": [
        0,
        0,
        0
      ],
      "alphaMode": "OPAQUE",
      "doubleSided": false
    },
    {
      "name": "Material__1852",
      "pbrMetallicRoughness": {
        "baseColorTexture": {
          "index": 3
        },
        "baseColorFactor": [
          1,
          1,
          1,
          1
        ],
        "metallicFactor": 0,
        "roughnessFactor": 0.99
      },
      "emissiveFactor": [
        0,
        0,
        0
      ],
      "alphaMode": "OPAQUE",
      "doubleSided": false
    },
    {
      "name": "Material__1935",
      "pbrMetallicRoughness": {
        "baseColorTexture": {
          "index": 4
        },
        "baseColorFactor": [
          1,
          1,
          1,
          1
        ],
        "metallicFactor": 0,
        "roughnessFactor": 0.99
      },
      "emissiveFactor": [
        0,
        0,
        0
      ],
      "alphaMode": "OPAQUE",
      "doubleSided": false
    },
    {
      "name": "Material__1853",
      "pbrMetallicRoughness": {
        "baseColorTexture": {
          "index": 5
        },
        "baseColorFactor": [
          1,
          1,
          1,
          1
        ],
        "metallicFactor": 0,
        "roughnessFactor": 0.99
      },
      "emissiveFactor": [
        0,
        0,
        0
      ],
      "alphaMode": "OPAQUE",
      "doubleSided": false
    },
    {
      "name": "Material__2071",
      "pbrMetallicRoughness": {
        "baseColorTexture": {
          "index": 6
        },
        "baseColorFactor": [
          1,
          1,
          1,
          1
        ],
        "metallicFactor": 0,
        "roughnessFactor": 0.99
      },
      "emissiveFactor": [
        0,
        0,
        0
      ],
      "alphaMode": "OPAQUE",
      "doubleSided": false
    },
    {
      "name": "Material__2239",
      "pbrMetallicRoughness": {
        "baseColorTexture": {
          "index": 7
        },
        "baseColorFactor": [
          1,
          1,
          1,
          1
        ],
        "metallicFactor": 0,
        "roughnessFactor": 0.99
      },
      "emissiveFactor": [
        0,
        0,
        0
      ],
      "alphaMode": "BLEND",
      "doubleSided": true
    },
    {
      "name": "Material__2240",
      "pbrMetallicRoughness": {
        "baseColorTexture": {
          "index": 8
        },
        "baseColorFactor": [
          1,
          1,
          1,
          1
        ],
        "metallicFactor": 0,
        "roughnessFactor": 0.99
      },
      "emissiveFactor": [
        0,
        0,
        0
      ],
      "alphaMode": "BLEND",
      "doubleSided": true
    },
    {
      "name": "Material__2241",
      "pbrMetallicRoughness": {
        "baseColorTexture": {
          "index": 9
        },
        "baseColorFactor": [
          1,
          1,
          1,
          1
        ],
        "metallicFactor": 0,
        "roughnessFactor": 0.99
      },
      "emissiveFactor": [
        0,
        0,
        0
      ],
      "alphaMode": "BLEND",
      "doubleSided": true
    }
  ],
  "meshes": [
    {
      "name": "Box057_1",
      "primitives": [
        {
          "attributes": {
            "POSITION": 0,
            "NORMAL": 1,
            "TEXCOORD_0": 2
          },
          "indices": 3,
          "material": 0,
          "mode": 4
        },
        {
          "attributes": {
            "POSITION": 4,
            "NORMAL": 5,
            "TEXCOORD_0": 6
          },
          "indices": 7,
          "material": 1,
          "mode": 4
        },
        {
          "attributes": {
            "POSITION": 8,
            "NORMAL": 9,
            "TEXCOORD_0": 10
          },
          "indices": 11,
          "material": 2,
          "mode": 4
        },
        {
          "attributes": {
            "POSITION": 12,
            "NORMAL": 13,
            "TEXCOORD_0": 14
          },
          "indices": 15,
          "material": 3,
          "mode": 4
        },
        {
          "attributes": {
            "POSITION": 16,
            "NORMAL": 17,
            "TEXCOORD_0": 18
          },
          "indices": 19,
          "material": 4,
          "mode": 4
        },
        {
          "attributes": {
            "POSITION": 20,
            "NORMAL": 21,
            "TEXCOORD_0": 22
          },
          "indices": 23,
          "material": 5,
          "mode": 4
        },
        {
          "attributes": {
            "POSITION": 24,
            "NORMAL": 25,
            "TEXCOORD_0": 26
          },
          "indices": 27,
          "material": 6,
          "mode": 4
        },
        {
          "attributes": {
            "POSITION": 28,
            "NORMAL": 29,
            "TEXCOORD_0": 30
          },
          "indices": 31,
          "material": 7,
          "mode": 4
        },
        {
          "attributes": {
            "POSITION": 32,
            "NORMAL": 33,
            "TEXCOORD_0": 34
          },
          "indices": 35,
          "material": 8,
          "mode": 4
        },
        {
          "attributes": {
            "POSITION": 36,
            "NORMAL": 37,
            "TEXCOORD_0": 38
          },
          "indices": 39,
          "material": 9,
          "mode": 4
        }
      ]
    }
  ],
  "nodes": [
    {
      "name": "Box057",
      "mesh": 0
    }
  ],
  "samplers": [
    {
      "wrapS": 10497,
      "wrapT": 10497
    }
  ],
  "scene": 0,
  "scenes": [
    {
      "nodes": [
        0
      ]
    }
  ],
  "textures": [
    {
      "name": "011",
      "sampler": 0,
      "source": 0
    },
    {
      "name": "sgy_2q_34",
      "sampler": 0,
      "source": 1
    },
    {
      "name": "sgy_2q_09",
      "sampler": 0,
      "source": 2
    },
    {
      "name": "sgy_2q_35",
      "sampler": 0,
      "source": 3
    },
    {
      "name": "sgy_2q_29",
      "sampler": 0,
      "source": 4
    },
    {
      "name": "sgy_2q_36",
      "sampler": 0,
      "source": 5
    },
    {
      "name": "sgy_2q_37",
      "sampler": 0,
      "source": 6
    },
    {
      "name": "sgy_2q_40",
      "sampler": 0,
      "source": 7
    },
    {
      "name": "sgy_2q_39",
      "sampler": 0,
      "source": 8
    },
    {
      "name": "sgy_2q_38",
      "sampler": 0,
      "source": 9
    }
  ]
}
