{
  "accessors" : [ {
    "bufferView" : 0,
    "byteOffset" : 0,
    "componentType" : 5123,
    "count" : 12,
    "type" : "SCALAR",
    "max" : [ 6 ],
    "min" : [ 0 ]
  }, {
    "bufferView" : 1,
    "byteOffset" : 0,
    "componentType" : 5126,
    "count" : 7,
    "type" : "VEC3",
    "max" : [ 9.8269, 18.807, 13.5889 ],
    "min" : [ -9.8269, -18.1413, 13.5889 ]
  }, {
    "bufferView" : 2,
    "byteOffset" : 0,
    "componentType" : 5126,
    "count" : 7,
    "type" : "VEC2",
    "max" : [ 1.0, 1.0 ],
    "min" : [ 0.0, 0.0 ]
  }, {
    "bufferView" : 3,
    "byteOffset" : 0,
    "componentType" : 5126,
    "count" : 7,
    "type" : "VEC3",
    "max" : [ 0.0, 0.0, 1.0 ],
    "min" : [ 0.0, 0.0, 1.0 ]
  }, {
    "bufferView" : 4,
    "byteOffset" : 0,
    "componentType" : 5123,
    "count" : 6,
    "type" : "SCALAR",
    "max" : [ 3 ],
    "min" : [ 0 ]
  }, {
    "bufferView" : 5,
    "byteOffset" : 0,
    "componentType" : 5126,
    "count" : 4,
    "type" : "VEC3",
    "max" : [ 6.0299, -29.5913, 8.2255 ],
    "min" : [ -6.0299, -29.5913, 0.0 ]
  }, {
    "bufferView" : 6,
    "byteOffset" : 0,
    "componentType" : 5126,
    "count" : 4,
    "type" : "VEC2",
    "max" : [ 1.0, 1.0 ],
    "min" : [ 0.0, 0.0 ]
  }, {
    "bufferView" : 7,
    "byteOffset" : 0,
    "componentType" : 5126,
    "count" : 4,
    "type" : "VEC3",
    "max" : [ 0.0, -1.0, 0.0 ],
    "min" : [ 0.0, -1.0, 0.0 ]
  }, {
    "bufferView" : 8,
    "byteOffset" : 0,
    "componentType" : 5123,
    "count" : 18,
    "type" : "SCALAR",
    "max" : [ 15 ],
    "min" : [ 0 ]
  }, {
    "bufferView" : 9,
    "byteOffset" : 0,
    "componentType" : 5126,
    "count" : 16,
    "type" : "VEC3",
    "max" : [ 9.8269, 19.7103, 13.5889 ],
    "min" : [ -9.8269, -5.363, 0.0 ]
  }, {
    "bufferView" : 10,
    "byteOffset" : 0,
    "componentType" : 5126,
    "count" : 16,
    "type" : "VEC2",
    "max" : [ 2.0093, 1.0 ],
    "min" : [ -2.0663, 0.0 ]
  }, {
    "bufferView" : 11,
    "byteOffset" : 0,
    "componentType" : 5126,
    "count" : 16,
    "type" : "VEC3",
    "max" : [ 1.0, 1.0, 0.0 ],
    "min" : [ -1.0, 0.0, 0.0 ]
  }, {
    "bufferView" : 12,
    "byteOffset" : 0,
    "componentType" : 5123,
    "count" : 12,
    "type" : "SCALAR",
    "max" : [ 9 ],
    "min" : [ 0 ]
  }, {
    "bufferView" : 13,
    "byteOffset" : 0,
    "componentType" : 5126,
    "count" : 10,
    "type" : "VEC3",
    "max" : [ 9.8269, -5.363, 13.5889 ],
    "min" : [ -9.8269, -18.1413, 0.0 ]
  }, {
    "bufferView" : 14,
    "byteOffset" : 0,
    "componentType" : 5126,
    "count" : 10,
    "type" : "VEC2",
    "max" : [ 1.0, 1.0 ],
    "min" : [ 0.0, 0.0 ]
  }, {
    "bufferView" : 15,
    "byteOffset" : 0,
    "componentType" : 5126,
    "count" : 10,
    "type" : "VEC3",
    "max" : [ 1.0, 0.0, 0.0 ],
    "min" : [ -1.0, 0.0, 0.0 ]
  }, {
    "bufferView" : 16,
    "byteOffset" : 0,
    "componentType" : 5123,
    "count" : 54,
    "type" : "SCALAR",
    "max" : [ 45 ],
    "min" : [ 0 ]
  }, {
    "bufferView" : 17,
    "byteOffset" : 0,
    "componentType" : 5126,
    "count" : 46,
    "type" : "VEC3",
    "max" : [ 9.8269, -18.1413, 13.5889 ],
    "min" : [ -9.8269, -31.2276, 0.0 ]
  }, {
    "bufferView" : 18,
    "byteOffset" : 0,
    "componentType" : 5126,
    "count" : 46,
    "type" : "VEC2",
    "max" : [ 1.4233, 1.0 ],
    "min" : [ -0.4233, 0.0 ]
  }, {
    "bufferView" : 19,
    "byteOffset" : 0,
    "componentType" : 5126,
    "count" : 46,
    "type" : "VEC3",
    "max" : [ 1.0, 0.0, 1.0 ],
    "min" : [ -1.0, -1.0, -1.0 ]
  }, {
    "bufferView" : 20,
    "byteOffset" : 0,
    "componentType" : 5123,
    "count" : 120,
    "type" : "SCALAR",
    "max" : [ 99 ],
    "min" : [ 0 ]
  }, {
    "bufferView" : 21,
    "byteOffset" : 0,
    "componentType" : 5126,
    "count" : 100,
    "type" : "VEC3",
    "max" : [ 9.8269, 31.2276, 13.5889 ],
    "min" : [ -9.8269, 18.807, 0.0 ]
  }, {
    "bufferView" : 22,
    "byteOffset" : 0,
    "componentType" : 5126,
    "count" : 100,
    "type" : "VEC2",
    "max" : [ 1.4986, 1.0 ],
    "min" : [ -0.4986, 0.0 ]
  }, {
    "bufferView" : 23,
    "byteOffset" : 0,
    "componentType" : 5126,
    "count" : 100,
    "type" : "VEC3",
    "max" : [ 1.0, 1.0, 1.0 ],
    "min" : [ -1.0, -1.0, -1.0 ]
  } ],
  "asset" : {
    "generator" : "JglTF from https://github.com/javagl/JglTF",
    "version" : "2.0"
  },
  "buffers" : [ {
    "uri" : "buffer.bin",
    "byteLength" : 6300
  } ],
  "bufferViews" : [ {
    "buffer" : 0,
    "byteOffset" : 0,
    "byteLength" : 24,
    "target" : 34963
  }, {
    "buffer" : 0,
    "byteOffset" : 24,
    "byteLength" : 84,
    "target" : 34962
  }, {
    "buffer" : 0,
    "byteOffset" : 108,
    "byteLength" : 56,
    "target" : 34962
  }, {
    "buffer" : 0,
    "byteOffset" : 164,
    "byteLength" : 84,
    "target" : 34962
  }, {
    "buffer" : 0,
    "byteOffset" : 248,
    "byteLength" : 12,
    "target" : 34963
  }, {
    "buffer" : 0,
    "byteOffset" : 260,
    "byteLength" : 48,
    "target" : 34962
  }, {
    "buffer" : 0,
    "byteOffset" : 308,
    "byteLength" : 32,
    "target" : 34962
  }, {
    "buffer" : 0,
    "byteOffset" : 340,
    "byteLength" : 48,
    "target" : 34962
  }, {
    "buffer" : 0,
    "byteOffset" : 388,
    "byteLength" : 36,
    "target" : 34963
  }, {
    "buffer" : 0,
    "byteOffset" : 424,
    "byteLength" : 192,
    "target" : 34962
  }, {
    "buffer" : 0,
    "byteOffset" : 616,
    "byteLength" : 128,
    "target" : 34962
  }, {
    "buffer" : 0,
    "byteOffset" : 744,
    "byteLength" : 192,
    "target" : 34962
  }, {
    "buffer" : 0,
    "byteOffset" : 936,
    "byteLength" : 24,
    "target" : 34963
  }, {
    "buffer" : 0,
    "byteOffset" : 960,
    "byteLength" : 120,
    "target" : 34962
  }, {
    "buffer" : 0,
    "byteOffset" : 1080,
    "byteLength" : 80,
    "target" : 34962
  }, {
    "buffer" : 0,
    "byteOffset" : 1160,
    "byteLength" : 120,
    "target" : 34962
  }, {
    "buffer" : 0,
    "byteOffset" : 1280,
    "byteLength" : 108,
    "target" : 34963
  }, {
    "buffer" : 0,
    "byteOffset" : 1388,
    "byteLength" : 552,
    "target" : 34962
  }, {
    "buffer" : 0,
    "byteOffset" : 1940,
    "byteLength" : 368,
    "target" : 34962
  }, {
    "buffer" : 0,
    "byteOffset" : 2308,
    "byteLength" : 552,
    "target" : 34962
  }, {
    "buffer" : 0,
    "byteOffset" : 2860,
    "byteLength" : 240,
    "target" : 34963
  }, {
    "buffer" : 0,
    "byteOffset" : 3100,
    "byteLength" : 1200,
    "target" : 34962
  }, {
    "buffer" : 0,
    "byteOffset" : 4300,
    "byteLength" : 800,
    "target" : 34962
  }, {
    "buffer" : 0,
    "byteOffset" : 5100,
    "byteLength" : 1200,
    "target" : 34962
  } ],
  "images" : [ {
    "uri" : "SGY_q1_071.jpg",
    "mimeType" : "image/jpeg"
  }, {
    "uri" : "DTZ_001.jpg",
    "mimeType" : "image/jpeg"
  }, {
    "uri" : "DTZ_005.jpg",
    "mimeType" : "image/jpeg"
  }, {
    "uri" : "DTZ_006.jpg",
    "mimeType" : "image/jpeg"
  }, {
    "uri" : "DTZ_002.jpg",
    "mimeType" : "image/jpeg"
  }, {
    "uri" : "SGY_q1_059.jpg",
    "mimeType" : "image/jpeg"
  } ],
  "materials" : [ {
    "pbrMetallicRoughness" : {
      "baseColorFactor" : [ 1.0, 1.0, 1.0, 1.0 ],
      "baseColorTexture" : {
        "index" : 0
      },
      "metallicFactor" : 0.0,
      "roughnessFactor" : 1.0
    },
    "alphaMode" : "OPAQUE",
    "doubleSided" : true
  }, {
    "pbrMetallicRoughness" : {
      "baseColorFactor" : [ 1.0, 1.0, 1.0, 1.0 ],
      "baseColorTexture" : {
        "index" : 1
      },
      "metallicFactor" : 0.0,
      "roughnessFactor" : 1.0
    },
    "alphaMode" : "OPAQUE",
    "doubleSided" : true
  }, {
    "pbrMetallicRoughness" : {
      "baseColorFactor" : [ 1.0, 1.0, 1.0, 1.0 ],
      "baseColorTexture" : {
        "index" : 2
      },
      "metallicFactor" : 0.0,
      "roughnessFactor" : 1.0
    },
    "alphaMode" : "OPAQUE",
    "doubleSided" : true
  }, {
    "pbrMetallicRoughness" : {
      "baseColorFactor" : [ 1.0, 1.0, 1.0, 1.0 ],
      "baseColorTexture" : {
        "index" : 3
      },
      "metallicFactor" : 0.0,
      "roughnessFactor" : 1.0
    },
    "alphaMode" : "OPAQUE",
    "doubleSided" : true
  }, {
    "pbrMetallicRoughness" : {
      "baseColorFactor" : [ 1.0, 1.0, 1.0, 1.0 ],
      "baseColorTexture" : {
        "index" : 4
      },
      "metallicFactor" : 0.0,
      "roughnessFactor" : 1.0
    },
    "alphaMode" : "OPAQUE",
    "doubleSided" : true
  }, {
    "pbrMetallicRoughness" : {
      "baseColorFactor" : [ 1.0, 1.0, 1.0, 1.0 ],
      "baseColorTexture" : {
        "index" : 5
      },
      "metallicFactor" : 0.0,
      "roughnessFactor" : 1.0
    },
    "alphaMode" : "OPAQUE",
    "doubleSided" : true
  } ],
  "meshes" : [ {
    "primitives" : [ {
      "attributes" : {
        "POSITION" : 1,
        "TEXCOORD_0" : 2,
        "NORMAL" : 3
      },
      "indices" : 0,
      "material" : 0,
      "mode" : 4
    }, {
      "attributes" : {
        "POSITION" : 5,
        "TEXCOORD_0" : 6,
        "NORMAL" : 7
      },
      "indices" : 4,
      "material" : 1,
      "mode" : 4
    }, {
      "attributes" : {
        "POSITION" : 9,
        "TEXCOORD_0" : 10,
        "NORMAL" : 11
      },
      "indices" : 8,
      "material" : 2,
      "mode" : 4
    }, {
      "attributes" : {
        "POSITION" : 13,
        "TEXCOORD_0" : 14,
        "NORMAL" : 15
      },
      "indices" : 12,
      "material" : 3,
      "mode" : 4
    }, {
      "attributes" : {
        "POSITION" : 17,
        "TEXCOORD_0" : 18,
        "NORMAL" : 19
      },
      "indices" : 16,
      "material" : 4,
      "mode" : 4
    }, {
      "attributes" : {
        "POSITION" : 21,
        "TEXCOORD_0" : 22,
        "NORMAL" : 23
      },
      "indices" : 20,
      "material" : 5,
      "mode" : 4
    } ]
  } ],
  "nodes" : [ {
    "mesh" : 0
  } ],
  "samplers" : [ { } ],
  "scene" : 0,
  "scenes" : [ {
    "nodes" : [ 0 ]
  } ],
  "textures" : [ {
    "sampler" : 0,
    "source" : 0
  }, {
    "sampler" : 0,
    "source" : 1
  }, {
    "sampler" : 0,
    "source" : 2
  }, {
    "sampler" : 0,
    "source" : 3
  }, {
    "sampler" : 0,
    "source" : 4
  }, {
    "sampler" : 0,
    "source" : 5
  } ]
}