{
  "accessors": [
    {
      "name": "Box003_1_0_positions",
      "componentType": 5126,
      "count": 96,
      "min": [
        -10.920299530029297,
        -26.24220085144043,
        11.853500366210938
      ],
      "max": [
        14.911999702453613,
        26.597299575805664,
        20.004499435424805
      ],
      "type": "VEC3",
      "bufferView": 0,
      "byteOffset": 0
    },
    {
      "name": "Box003_1_0_normals",
      "componentType": 5126,
      "count": 96,
      "min": [
        -0.5133040547370911,
        0,
        0.8582068085670471
      ],
      "max": [
        0.5133040547370911,
        0,
        0.8932843208312988
      ],
      "type": "VEC3",
      "bufferView": 1,
      "byteOffset": 0
    },
    {
      "name": "Box003_1_0_texcoords",
      "componentType": 5126,
      "count": 96,
      "min": [
        -0.5629000067710876,
        0.00279999990016222
      ],
      "max": [
        2.176500082015991,
        0.9866999983787537
      ],
      "type": "VEC2",
      "bufferView": 2,
      "byteOffset": 0
    },
    {
      "name": "Box003_1_0_indices",
      "componentType": 5123,
      "count": 144,
      "min": [
        0
      ],
      "max": [
        95
      ],
      "type": "SCALAR",
      "bufferView": 3,
      "byteOffset": 0
    },
    {
      "name": "Box003_1_1_positions",
      "componentType": 5126,
      "count": 20,
      "min": [
        -8.70740032196045,
        -24.029300689697266,
        0
      ],
      "max": [
        12.69909954071045,
        24.3843994140625,
        6.403299808502197
      ],
      "type": "VEC3",
      "bufferView": 0,
      "byteOffset": 1152
    },
    {
      "name": "Box003_1_1_normals",
      "componentType": 5126,
      "count": 20,
      "min": [
        -1,
        -1,
        0
      ],
      "max": [
        1,
        1,
        0
      ],
      "type": "VEC3",
      "bufferView": 1,
      "byteOffset": 1152
    },
    {
      "name": "Box003_1_1_texcoords",
      "componentType": 5126,
      "count": 20,
      "min": [
        0.978600025177002,
        0.001500000013038516
      ],
      "max": [
        5.974599838256836,
        1.0979000329971313
      ],
      "type": "VEC2",
      "bufferView": 2,
      "byteOffset": 768
    },
    {
      "name": "Box003_1_1_indices",
      "componentType": 5123,
      "count": 36,
      "min": [
        0
      ],
      "max": [
        19
      ],
      "type": "SCALAR",
      "bufferView": 3,
      "byteOffset": 288
    },
    {
      "name": "Box003_1_2_positions",
      "componentType": 5126,
      "count": 24,
      "min": [
        -18.11829948425293,
        -24.029300689697266,
        0
      ],
      "max": [
        12.69909954071045,
        29.420700073242188,
        6.297599792480469
      ],
      "type": "VEC3",
      "bufferView": 0,
      "byteOffset": 1392
    },
    {
      "name": "Box003_1_2_normals",
      "componentType": 5126,
      "count": 24,
      "min": [
        -1,
        -1,
        0
      ],
      "max": [
        1,
        1,
        0
      ],
      "type": "VEC3",
      "bufferView": 1,
      "byteOffset": 1392
    },
    {
      "name": "Box003_1_2_texcoords",
      "componentType": 5126,
      "count": 24,
      "min": [
        -0.27459999918937683,
        0
      ],
      "max": [
        2.6591999530792236,
        1.0973000526428223
      ],
      "type": "VEC2",
      "bufferView": 2,
      "byteOffset": 928
    },
    {
      "name": "Box003_1_2_indices",
      "componentType": 5123,
      "count": 36,
      "min": [
        0
      ],
      "max": [
        23
      ],
      "type": "SCALAR",
      "bufferView": 3,
      "byteOffset": 360
    },
    {
      "name": "Box003_1_3_positions",
      "componentType": 5126,
      "count": 216,
      "min": [
        -10.920299530029297,
        -26.24220085144043,
        10.504599571228027
      ],
      "max": [
        14.911999702453613,
        26.597299575805664,
        20.004499435424805
      ],
      "type": "VEC3",
      "bufferView": 0,
      "byteOffset": 1680
    },
    {
      "name": "Box003_1_3_normals",
      "componentType": 5126,
      "count": 216,
      "min": [
        -1,
        -1,
        -0.8932843208312988
      ],
      "max": [
        1,
        1,
        0
      ],
      "type": "VEC3",
      "bufferView": 1,
      "byteOffset": 1680
    },
    {
      "name": "Box003_1_3_texcoords",
      "componentType": 5126,
      "count": 216,
      "min": [
        0,
        0
      ],
      "max": [
        1,
        1
      ],
      "type": "VEC2",
      "bufferView": 2,
      "byteOffset": 1120
    },
    {
      "name": "Box003_1_3_indices",
      "componentType": 5123,
      "count": 336,
      "min": [
        0
      ],
      "max": [
        215
      ],
      "type": "SCALAR",
      "bufferView": 3,
      "byteOffset": 432
    },
    {
      "name": "Box003_1_4_positions",
      "componentType": 5126,
      "count": 30,
      "min": [
        -8.70740032196045,
        -24.029300689697266,
        11.498800277709961
      ],
      "max": [
        12.69909954071045,
        24.3843994140625,
        19.15060043334961
      ],
      "type": "VEC3",
      "bufferView": 0,
      "byteOffset": 4272
    },
    {
      "name": "Box003_1_4_normals",
      "componentType": 5126,
      "count": 30,
      "min": [
        0,
        -1,
        0
      ],
      "max": [
        0,
        1,
        0
      ],
      "type": "VEC3",
      "bufferView": 1,
      "byteOffset": 4272
    },
    {
      "name": "Box003_1_4_texcoords",
      "componentType": 5126,
      "count": 30,
      "min": [
        0,
        0.5146999955177307
      ],
      "max": [
        1.3408000469207764,
        1.107800006866455
      ],
      "type": "VEC2",
      "bufferView": 2,
      "byteOffset": 2848
    },
    {
      "name": "Box003_1_4_indices",
      "componentType": 5123,
      "count": 48,
      "min": [
        0
      ],
      "max": [
        29
      ],
      "type": "SCALAR",
      "bufferView": 3,
      "byteOffset": 1104
    },
    {
      "name": "Box003_1_5_positions",
      "componentType": 5126,
      "count": 32,
      "min": [
        -8.70740032196045,
        -24.029300689697266,
        6.297599792480469
      ],
      "max": [
        12.69909954071045,
        24.3843994140625,
        16.243200302124023
      ],
      "type": "VEC3",
      "bufferView": 0,
      "byteOffset": 4632
    },
    {
      "name": "Box003_1_5_normals",
      "componentType": 5126,
      "count": 32,
      "min": [
        -1,
        -1,
        0
      ],
      "max": [
        1,
        1,
        0
      ],
      "type": "VEC3",
      "bufferView": 1,
      "byteOffset": 4632
    },
    {
      "name": "Box003_1_5_texcoords",
      "componentType": 5126,
      "count": 32,
      "min": [
        0,
        0
      ],
      "max": [
        6.000899791717529,
        1.0033999681472778
      ],
      "type": "VEC2",
      "bufferView": 2,
      "byteOffset": 3088
    },
    {
      "name": "Box003_1_5_indices",
      "componentType": 5123,
      "count": 60,
      "min": [
        0
      ],
      "max": [
        31
      ],
      "type": "SCALAR",
      "bufferView": 3,
      "byteOffset": 1200
    },
    {
      "name": "Box003_1_6_positions",
      "componentType": 5126,
      "count": 52,
      "min": [
        -19.9783992767334,
        -25.0939998626709,
        5.043600082397461
      ],
      "max": [
        18.11829948425293,
        31.21419906616211,
        6.525199890136719
      ],
      "type": "VEC3",
      "bufferView": 0,
      "byteOffset": 5016
    },
    {
      "name": "Box003_1_6_normals",
      "componentType": 5126,
      "count": 52,
      "min": [
        -1,
        -1,
        -1
      ],
      "max": [
        1,
        1,
        1
      ],
      "type": "VEC3",
      "bufferView": 1,
      "byteOffset": 5016
    },
    {
      "name": "Box003_1_6_texcoords",
      "componentType": 5126,
      "count": 52,
      "min": [
        -0.48240000009536743,
        -4.542799949645996
      ],
      "max": [
        1.8111000061035156,
        3.4992001056671143
      ],
      "type": "VEC2",
      "bufferView": 2,
      "byteOffset": 3344
    },
    {
      "name": "Box003_1_6_indices",
      "componentType": 5123,
      "count": 78,
      "min": [
        0
      ],
      "max": [
        51
      ],
      "type": "SCALAR",
      "bufferView": 3,
      "byteOffset": 1320
    }
  ],
  "asset": {
    "generator": "obj2gltf",
    "version": "2.0"
  },
  "buffers": [
    {
      "name": "3_jz03",
      "byteLength": 16516,
      "uri": "data:application/octet-stream;base64,"
    }
  ],
  "bufferViews": [
    {
      "name": "bufferView_0",
      "buffer": 0,
      "byteLength": 5640,
      "byteOffset": 0,
      "byteStride": 12,
      "target": 34962
    },
    {
      "name": "bufferView_1",
      "buffer": 0,
      "byteLength": 5640,
      "byteOffset": 5640,
      "byteStride": 12,
      "target": 34962
    },
    {
      "name": "bufferView_2",
      "buffer": 0,
      "byteLength": 3760,
      "byteOffset": 11280,
      "byteStride": 8,
      "target": 34962
    },
    {
      "name": "bufferView_3",
      "buffer": 0,
      "byteLength": 1476,
      "byteOffset": 15040,
      "target": 34963
    }
  ],
  "images": [
    {
      "name": "SGY_Q1_015",
      "uri": "SGY_Q1_015.jpg"
    },
    {
      "name": "SGY_Q1_019",
      "uri": "SGY_Q1_019.jpg"
    },
    {
      "name": "SGY_Q1_017",
      "uri": "SGY_Q1_017.jpg"
    },
    {
      "name": "SGY_Q1_016",
      "uri": "SGY_Q1_016.jpg"
    },
    {
      "name": "SGY_Q1_020",
      "uri": "SGY_Q1_020.jpg"
    },
    {
      "name": "SGY_Q1_021",
      "uri": "SGY_Q1_021.jpg"
    },
    {
      "name": "SGY_Q1_018",
      "uri": "SGY_Q1_018.jpg"
    }
  ],
  "materials": [
    {
      "name": "Material__62",
      "pbrMetallicRoughness": {
        "baseColorTexture": {
          "index": 0
        },
        "baseColorFactor": [
          1,
          1,
          1,
          1
        ],
        "metallicFactor": 0,
        "roughnessFactor": 0.99
      },
      "emissiveFactor": [
        0,
        0,
        0
      ],
      "alphaMode": "OPAQUE",
      "doubleSided": false
    },
    {
      "name": "Material__216",
      "pbrMetallicRoughness": {
        "baseColorTexture": {
          "index": 1
        },
        "baseColorFactor": [
          1,
          1,
          1,
          1
        ],
        "metallicFactor": 0,
        "roughnessFactor": 0.99
      },
      "emissiveFactor": [
        0,
        0,
        0
      ],
      "alphaMode": "OPAQUE",
      "doubleSided": false
    },
    {
      "name": "Material__86",
      "pbrMetallicRoughness": {
        "baseColorTexture": {
          "index": 2
        },
        "baseColorFactor": [
          1,
          1,
          1,
          1
        ],
        "metallicFactor": 0,
        "roughnessFactor": 0.99
      },
      "emissiveFactor": [
        0,
        0,
        0
      ],
      "alphaMode": "OPAQUE",
      "doubleSided": false
    },
    {
      "name": "Material__74",
      "pbrMetallicRoughness": {
        "baseColorTexture": {
          "index": 3
        },
        "baseColorFactor": [
          1,
          1,
          1,
          1
        ],
        "metallicFactor": 0,
        "roughnessFactor": 0.99
      },
      "emissiveFactor": [
        0,
        0,
        0
      ],
      "alphaMode": "OPAQUE",
      "doubleSided": false
    },
    {
      "name": "Material__242",
      "pbrMetallicRoughness": {
        "baseColorTexture": {
          "index": 4
        },
        "baseColorFactor": [
          1,
          1,
          1,
          1
        ],
        "metallicFactor": 0,
        "roughnessFactor": 0.99
      },
      "emissiveFactor": [
        0,
        0,
        0
      ],
      "alphaMode": "OPAQUE",
      "doubleSided": false
    },
    {
      "name": "Material__229",
      "pbrMetallicRoughness": {
        "baseColorTexture": {
          "index": 5
        },
        "baseColorFactor": [
          1,
          1,
          1,
          1
        ],
        "metallicFactor": 0,
        "roughnessFactor": 0.99
      },
      "emissiveFactor": [
        0,
        0,
        0
      ],
      "alphaMode": "OPAQUE",
      "doubleSided": false
    },
    {
      "name": "Material__98",
      "pbrMetallicRoughness": {
        "baseColorTexture": {
          "index": 6
        },
        "baseColorFactor": [
          1,
          1,
          1,
          1
        ],
        "metallicFactor": 0,
        "roughnessFactor": 0.99
      },
      "emissiveFactor": [
        0,
        0,
        0
      ],
      "alphaMode": "OPAQUE",
      "doubleSided": false
    }
  ],
  "meshes": [
    {
      "name": "Box003_1",
      "primitives": [
        {
          "attributes": {
            "POSITION": 0,
            "NORMAL": 1,
            "TEXCOORD_0": 2
          },
          "indices": 3,
          "material": 0,
          "mode": 4
        },
        {
          "attributes": {
            "POSITION": 4,
            "NORMAL": 5,
            "TEXCOORD_0": 6
          },
          "indices": 7,
          "material": 1,
          "mode": 4
        },
        {
          "attributes": {
            "POSITION": 8,
            "NORMAL": 9,
            "TEXCOORD_0": 10
          },
          "indices": 11,
          "material": 2,
          "mode": 4
        },
        {
          "attributes": {
            "POSITION": 12,
            "NORMAL": 13,
            "TEXCOORD_0": 14
          },
          "indices": 15,
          "material": 3,
          "mode": 4
        },
        {
          "attributes": {
            "POSITION": 16,
            "NORMAL": 17,
            "TEXCOORD_0": 18
          },
          "indices": 19,
          "material": 4,
          "mode": 4
        },
        {
          "attributes": {
            "POSITION": 20,
            "NORMAL": 21,
            "TEXCOORD_0": 22
          },
          "indices": 23,
          "material": 5,
          "mode": 4
        },
        {
          "attributes": {
            "POSITION": 24,
            "NORMAL": 25,
            "TEXCOORD_0": 26
          },
          "indices": 27,
          "material": 6,
          "mode": 4
        }
      ]
    }
  ],
  "nodes": [
    {
      "name": "Box003",
      "mesh": 0
    }
  ],
  "samplers": [
    {
      "wrapS": 10497,
      "wrapT": 10497
    }
  ],
  "scene": 0,
  "scenes": [
    {
      "nodes": [
        0
      ]
    }
  ],
  "textures": [
    {
      "name": "SGY_Q1_015",
      "sampler": 0,
      "source": 0
    },
    {
      "name": "SGY_Q1_019",
      "sampler": 0,
      "source": 1
    },
    {
      "name": "SGY_Q1_017",
      "sampler": 0,
      "source": 2
    },
    {
      "name": "SGY_Q1_016",
      "sampler": 0,
      "source": 3
    },
    {
      "name": "SGY_Q1_020",
      "sampler": 0,
      "source": 4
    },
    {
      "name": "SGY_Q1_021",
      "sampler": 0,
      "source": 5
    },
    {
      "name": "SGY_Q1_018",
      "sampler": 0,
      "source": 6
    }
  ]
}
