{
  "accessors": [
    {
      "name": "Box001_1_0_positions",
      "componentType": 5126,
      "count": 60,
      "min": [
        -2.3420000076293945,
        -9.64330005645752,
        0
      ],
      "max": [
        2.334399938583374,
        -4.519000053405762,
        1.2554999589920044
      ],
      "type": "VEC3",
      "bufferView": 0,
      "byteOffset": 0
    },
    {
      "name": "Box001_1_0_normals",
      "componentType": 5126,
      "count": 60,
      "min": [
        -1,
        -1,
        0
      ],
      "max": [
        1,
        0,
        1
      ],
      "type": "VEC3",
      "bufferView": 1,
      "byteOffset": 0
    },
    {
      "name": "Box001_1_0_texcoords",
      "componentType": 5126,
      "count": 60,
      "min": [
        0,
        0
      ],
      "max": [
        1,
        1
      ],
      "type": "VEC2",
      "bufferView": 2,
      "byteOffset": 0
    },
    {
      "name": "Box001_1_0_indices",
      "componentType": 5123,
      "count": 102,
      "min": [
        0
      ],
      "max": [
        59
      ],
      "type": "SCALAR",
      "bufferView": 3,
      "byteOffset": 0
    },
    {
      "name": "Box001_1_1_positions",
      "componentType": 5126,
      "count": 120,
      "min": [
        -2.3420000076293945,
        -4.519000053405762,
        0
      ],
      "max": [
        2.334399938583374,
        9.98840045928955,
        1.2554999589920044
      ],
      "type": "VEC3",
      "bufferView": 0,
      "byteOffset": 720
    },
    {
      "name": "Box001_1_1_normals",
      "componentType": 5126,
      "count": 120,
      "min": [
        -1,
        -1,
        -0.15879873931407928
      ],
      "max": [
        1,
        1,
        1
      ],
      "type": "VEC3",
      "bufferView": 1,
      "byteOffset": 720
    },
    {
      "name": "Box001_1_1_texcoords",
      "componentType": 5126,
      "count": 120,
      "min": [
        0,
        0
      ],
      "max": [
        4.991600036621094,
        1.0436999797821045
      ],
      "type": "VEC2",
      "bufferView": 2,
      "byteOffset": 480
    },
    {
      "name": "Box001_1_1_indices",
      "componentType": 5123,
      "count": 234,
      "min": [
        0
      ],
      "max": [
        119
      ],
      "type": "SCALAR",
      "bufferView": 3,
      "byteOffset": 204
    },
    {
      "name": "Box001_1_2_positions",
      "componentType": 5126,
      "count": 40,
      "min": [
        -2.150700092315674,
        -4.519599914550781,
        5.747399806976318
      ],
      "max": [
        2.1431000232696533,
        9.776300430297852,
        5.960999965667725
      ],
      "type": "VEC3",
      "bufferView": 0,
      "byteOffset": 2160
    },
    {
      "name": "Box001_1_2_normals",
      "componentType": 5126,
      "count": 40,
      "min": [
        0,
        -1,
        -1
      ],
      "max": [
        0,
        0,
        1
      ],
      "type": "VEC3",
      "bufferView": 1,
      "byteOffset": 2160
    },
    {
      "name": "Box001_1_2_texcoords",
      "componentType": 5126,
      "count": 40,
      "min": [
        0,
        0
      ],
      "max": [
        1,
        4.025899887084961
      ],
      "type": "VEC2",
      "bufferView": 2,
      "byteOffset": 1440
    },
    {
      "name": "Box001_1_2_indices",
      "componentType": 5123,
      "count": 78,
      "min": [
        0
      ],
      "max": [
        39
      ],
      "type": "SCALAR",
      "bufferView": 3,
      "byteOffset": 672
    },
    {
      "name": "Box001_1_3_positions",
      "componentType": 5126,
      "count": 204,
      "min": [
        -2.150700092315674,
        -4.519599914550781,
        1.2554999589920044
      ],
      "max": [
        2.1431000232696533,
        9.776300430297852,
        5.960999965667725
      ],
      "type": "VEC3",
      "bufferView": 0,
      "byteOffset": 2640
    },
    {
      "name": "Box001_1_3_normals",
      "componentType": 5126,
      "count": 204,
      "min": [
        -1,
        -1,
        -0.00009999999747378752
      ],
      "max": [
        1,
        1,
        0.011799932457506657
      ],
      "type": "VEC3",
      "bufferView": 1,
      "byteOffset": 2640
    },
    {
      "name": "Box001_1_3_texcoords",
      "componentType": 5126,
      "count": 204,
      "min": [
        0,
        0
      ],
      "max": [
        1,
        1
      ],
      "type": "VEC2",
      "bufferView": 2,
      "byteOffset": 1760
    },
    {
      "name": "Box001_1_3_indices",
      "componentType": 5123,
      "count": 504,
      "min": [
        0
      ],
      "max": [
        203
      ],
      "type": "SCALAR",
      "bufferView": 3,
      "byteOffset": 828
    }
  ],
  "asset": {
    "generator": "obj2gltf",
    "version": "2.0"
  },
  "buffers": [
    {
      "name": "yongshenglu3",
      "byteLength": 15404,
      "uri": "data:application/octet-stream;base64,"
    }
  ],
  "bufferViews": [
    {
      "name": "bufferView_0",
      "buffer": 0,
      "byteLength": 5088,
      "byteOffset": 0,
      "byteStride": 12,
      "target": 34962
    },
    {
      "name": "bufferView_1",
      "buffer": 0,
      "byteLength": 5088,
      "byteOffset": 5088,
      "byteStride": 12,
      "target": 34962
    },
    {
      "name": "bufferView_2",
      "buffer": 0,
      "byteLength": 3392,
      "byteOffset": 10176,
      "byteStride": 8,
      "target": 34962
    },
    {
      "name": "bufferView_3",
      "buffer": 0,
      "byteLength": 1836,
      "byteOffset": 13568,
      "target": 34963
    }
  ],
  "images": [
    {
      "name": "louti",
      "uri": "louti.jpg"
    },
    {
      "name": "zhuan",
      "uri": "zhuan.jpg"
    },
    {
      "name": "ding",
      "uri": "ding.jpg"
    },
    {
      "name": "ce",
      "uri": "ce.jpg"
    }
  ],
  "materials": [
    {
      "name": "Material__95",
      "pbrMetallicRoughness": {
        "baseColorTexture": {
          "index": 0
        },
        "baseColorFactor": [
          1,
          1,
          1,
          1
        ],
        "metallicFactor": 0,
        "roughnessFactor": 0.99
      },
      "emissiveFactor": [
        0,
        0,
        0
      ],
      "alphaMode": "OPAQUE",
      "doubleSided": false
    },
    {
      "name": "Material__107",
      "pbrMetallicRoughness": {
        "baseColorTexture": {
          "index": 1
        },
        "baseColorFactor": [
          1,
          1,
          1,
          1
        ],
        "metallicFactor": 0,
        "roughnessFactor": 0.99
      },
      "emissiveFactor": [
        0,
        0,
        0
      ],
      "alphaMode": "OPAQUE",
      "doubleSided": false
    },
    {
      "name": "Material__70",
      "pbrMetallicRoughness": {
        "baseColorTexture": {
          "index": 2
        },
        "baseColorFactor": [
          1,
          1,
          1,
          1
        ],
        "metallicFactor": 0,
        "roughnessFactor": 0.99
      },
      "emissiveFactor": [
        0,
        0,
        0
      ],
      "alphaMode": "OPAQUE",
      "doubleSided": false
    },
    {
      "name": "Material__25",
      "pbrMetallicRoughness": {
        "baseColorTexture": {
          "index": 3
        },
        "baseColorFactor": [
          1,
          1,
          1,
          1
        ],
        "metallicFactor": 0,
        "roughnessFactor": 0.99
      },
      "emissiveFactor": [
        0,
        0,
        0
      ],
      "alphaMode": "OPAQUE",
      "doubleSided": false
    }
  ],
  "meshes": [
    {
      "name": "Box001_1",
      "primitives": [
        {
          "attributes": {
            "POSITION": 0,
            "NORMAL": 1,
            "TEXCOORD_0": 2
          },
          "indices": 3,
          "material": 0,
          "mode": 4
        },
        {
          "attributes": {
            "POSITION": 4,
            "NORMAL": 5,
            "TEXCOORD_0": 6
          },
          "indices": 7,
          "material": 1,
          "mode": 4
        },
        {
          "attributes": {
            "POSITION": 8,
            "NORMAL": 9,
            "TEXCOORD_0": 10
          },
          "indices": 11,
          "material": 2,
          "mode": 4
        },
        {
          "attributes": {
            "POSITION": 12,
            "NORMAL": 13,
            "TEXCOORD_0": 14
          },
          "indices": 15,
          "material": 3,
          "mode": 4
        }
      ]
    }
  ],
  "nodes": [
    {
      "name": "Box001",
      "mesh": 0
    }
  ],
  "samplers": [
    {
      "wrapS": 10497,
      "wrapT": 10497
    }
  ],
  "scene": 0,
  "scenes": [
    {
      "nodes": [
        0
      ]
    }
  ],
  "textures": [
    {
      "name": "louti",
      "sampler": 0,
      "source": 0
    },
    {
      "name": "zhuan",
      "sampler": 0,
      "source": 1
    },
    {
      "name": "ding",
      "sampler": 0,
      "source": 2
    },
    {
      "name": "ce",
      "sampler": 0,
      "source": 3
    }
  ]
}
