{
  "accessors": [
    {
      "name": "Cylinder001_1_0_positions",
      "componentType": 5126,
      "count": 114,
      "min": [
        -7.513199806213379,
        -7.513199806213379,
        4.231400012969971
      ],
      "max": [
        7.513199806213379,
        7.513199806213379,
        23.00469970703125
      ],
      "type": "VEC3",
      "bufferView": 0,
      "byteOffset": 0
    },
    {
      "name": "Cylinder001_1_0_normals",
      "componentType": 5126,
      "count": 114,
      "min": [
        -1,
        -1,
        -1
      ],
      "max": [
        1,
        1,
        1
      ],
      "type": "VEC3",
      "bufferView": 1,
      "byteOffset": 0
    },
    {
      "name": "Cylinder001_1_0_texcoords",
      "componentType": 5126,
      "count": 114,
      "min": [
        0,
        -0.6506999731063843
      ],
      "max": [
        1.0103000402450562,
        1
      ],
      "type": "VEC2",
      "bufferView": 2,
      "byteOffset": 0
    },
    {
      "name": "Cylinder001_1_0_indices",
      "componentType": 5123,
      "count": 360,
      "min": [
        0
      ],
      "max": [
        113
      ],
      "type": "SCALAR",
      "bufferView": 3,
      "byteOffset": 0
    },
    {
      "name": "Cylinder001_1_1_positions",
      "componentType": 5126,
      "count": 32,
      "min": [
        -7.513199806213379,
        -7.513199806213379,
        12.432299613952637
      ],
      "max": [
        7.513199806213379,
        7.513199806213379,
        14.803799629211426
      ],
      "type": "VEC3",
      "bufferView": 0,
      "byteOffset": 1368
    },
    {
      "name": "Cylinder001_1_1_normals",
      "componentType": 5126,
      "count": 32,
      "min": [
        -1,
        -1,
        0
      ],
      "max": [
        1,
        1,
        0
      ],
      "type": "VEC3",
      "bufferView": 1,
      "byteOffset": 1368
    },
    {
      "name": "Cylinder001_1_1_texcoords",
      "componentType": 5126,
      "count": 32,
      "min": [
        0.2054000049829483,
        -0.007600000128149986
      ],
      "max": [
        1.0103000402450562,
        0.17839999496936798
      ],
      "type": "VEC2",
      "bufferView": 2,
      "byteOffset": 912
    },
    {
      "name": "Cylinder001_1_1_indices",
      "componentType": 5123,
      "count": 72,
      "min": [
        0
      ],
      "max": [
        31
      ],
      "type": "SCALAR",
      "bufferView": 3,
      "byteOffset": 720
    },
    {
      "name": "Cylinder001_1_2_positions",
      "componentType": 5126,
      "count": 119,
      "min": [
        -7.513199806213379,
        -7.513199806213379,
        0
      ],
      "max": [
        7.513199806213379,
        7.513199806213379,
        4.320099830627441
      ],
      "type": "VEC3",
      "bufferView": 0,
      "byteOffset": 1752
    },
    {
      "name": "Cylinder001_1_2_normals",
      "componentType": 5126,
      "count": 119,
      "min": [
        -0.8164742588996887,
        -0.8164742588996887,
        -1
      ],
      "max": [
        0.8164742588996887,
        0.8164742588996887,
        1
      ],
      "type": "VEC3",
      "bufferView": 1,
      "byteOffset": 1752
    },
    {
      "name": "Cylinder001_1_2_texcoords",
      "componentType": 5126,
      "count": 119,
      "min": [
        -0.8873999714851379,
        0
      ],
      "max": [
        1.347499966621399,
        1
      ],
      "type": "VEC2",
      "bufferView": 2,
      "byteOffset": 1168
    },
    {
      "name": "Cylinder001_1_2_indices",
      "componentType": 5123,
      "count": 288,
      "min": [
        0
      ],
      "max": [
        118
      ],
      "type": "SCALAR",
      "bufferView": 3,
      "byteOffset": 864
    }
  ],
  "asset": {
    "generator": "obj2gltf",
    "version": "2.0"
  },
  "buffers": [
    {
      "name": "Q13",
      "byteLength": 9920,
      "uri": "data:application/octet-stream;base64,"
    }
  ],
  "bufferViews": [
    {
      "name": "bufferView_0",
      "buffer": 0,
      "byteLength": 3180,
      "byteOffset": 0,
      "byteStride": 12,
      "target": 34962
    },
    {
      "name": "bufferView_1",
      "buffer": 0,
      "byteLength": 3180,
      "byteOffset": 3180,
      "byteStride": 12,
      "target": 34962
    },
    {
      "name": "bufferView_2",
      "buffer": 0,
      "byteLength": 2120,
      "byteOffset": 6360,
      "byteStride": 8,
      "target": 34962
    },
    {
      "name": "bufferView_3",
      "buffer": 0,
      "byteLength": 1440,
      "byteOffset": 8480,
      "target": 34963
    }
  ],
  "images": [
    {
      "name": "SGY_q1_172",
      "uri": "SGY_q1_172.jpg"
    },
    {
      "name": "SGY_q1_173",
      "uri": "SGY_q1_173.jpg"
    },
    {
      "name": "sgy_1q_12",
      "uri": "sgy_1q_12.jpg"
    }
  ],
  "materials": [
    {
      "name": "Material__48",
      "pbrMetallicRoughness": {
        "baseColorTexture": {
          "index": 0
        },
        "baseColorFactor": [
          1,
          1,
          1,
          1
        ],
        "metallicFactor": 0,
        "roughnessFactor": 0.99
      },
      "emissiveFactor": [
        0,
        0,
        0
      ],
      "alphaMode": "OPAQUE",
      "doubleSided": false
    },
    {
      "name": "Material__60",
      "pbrMetallicRoughness": {
        "baseColorTexture": {
          "index": 1
        },
        "baseColorFactor": [
          1,
          1,
          1,
          1
        ],
        "metallicFactor": 0,
        "roughnessFactor": 0.99
      },
      "emissiveFactor": [
        0,
        0,
        0
      ],
      "alphaMode": "OPAQUE",
      "doubleSided": false
    },
    {
      "name": "Material__84",
      "pbrMetallicRoughness": {
        "baseColorTexture": {
          "index": 2
        },
        "baseColorFactor": [
          1,
          1,
          1,
          1
        ],
        "metallicFactor": 0,
        "roughnessFactor": 0.99
      },
      "emissiveFactor": [
        0,
        0,
        0
      ],
      "alphaMode": "OPAQUE",
      "doubleSided": false
    }
  ],
  "meshes": [
    {
      "name": "Cylinder001_1",
      "primitives": [
        {
          "attributes": {
            "POSITION": 0,
            "NORMAL": 1,
            "TEXCOORD_0": 2
          },
          "indices": 3,
          "material": 0,
          "mode": 4
        },
        {
          "attributes": {
            "POSITION": 4,
            "NORMAL": 5,
            "TEXCOORD_0": 6
          },
          "indices": 7,
          "material": 1,
          "mode": 4
        },
        {
          "attributes": {
            "POSITION": 8,
            "NORMAL": 9,
            "TEXCOORD_0": 10
          },
          "indices": 11,
          "material": 2,
          "mode": 4
        }
      ]
    }
  ],
  "nodes": [
    {
      "name": "Cylinder001",
      "mesh": 0
    }
  ],
  "samplers": [
    {
      "wrapS": 10497,
      "wrapT": 10497
    }
  ],
  "scene": 0,
  "scenes": [
    {
      "nodes": [
        0
      ]
    }
  ],
  "textures": [
    {
      "name": "SGY_q1_172",
      "sampler": 0,
      "source": 0
    },
    {
      "name": "SGY_q1_173",
      "sampler": 0,
      "source": 1
    },
    {
      "name": "sgy_1q_12",
      "sampler": 0,
      "source": 2
    }
  ]
}
