{
  "accessors": [
    {
      "name": "Box002_1_0_positions",
      "componentType": 5126,
      "count": 346,
      "min": [
        -30.866199493408203,
        -33.926300048828125,
        0
      ],
      "max": [
        30.866199493408203,
        33.926300048828125,
        16.8435001373291
      ],
      "type": "VEC3",
      "bufferView": 0,
      "byteOffset": 0
    },
    {
      "name": "Box002_1_0_normals",
      "componentType": 5126,
      "count": 346,
      "min": [
        -1,
        -1,
        -1
      ],
      "max": [
        1,
        1,
        1
      ],
      "type": "VEC3",
      "bufferView": 1,
      "byteOffset": 0
    },
    {
      "name": "Box002_1_0_texcoords",
      "componentType": 5126,
      "count": 346,
      "min": [
        -2.96589994430542,
        -1.3588999509811401
      ],
      "max": [
        3.96589994430542,
        2.3589000701904297
      ],
      "type": "VEC2",
      "bufferView": 2,
      "byteOffset": 0
    },
    {
      "name": "Box002_1_0_indices",
      "componentType": 5123,
      "count": 672,
      "min": [
        0
      ],
      "max": [
        345
      ],
      "type": "SCALAR",
      "bufferView": 3,
      "byteOffset": 0
    },
    {
      "name": "Box002_1_1_positions",
      "componentType": 5126,
      "count": 28,
      "min": [
        -22.155099868774414,
        -33.926300048828125,
        1.2340999841690063
      ],
      "max": [
        11.644399642944336,
        8.638699531555176,
        11.729499816894531
      ],
      "type": "VEC3",
      "bufferView": 0,
      "byteOffset": 4152
    },
    {
      "name": "Box002_1_1_normals",
      "componentType": 5126,
      "count": 28,
      "min": [
        -1,
        -1,
        0
      ],
      "max": [
        1,
        1,
        0
      ],
      "type": "VEC3",
      "bufferView": 1,
      "byteOffset": 4152
    },
    {
      "name": "Box002_1_1_texcoords",
      "componentType": 5126,
      "count": 28,
      "min": [
        -2.967900037765503,
        -1.0049999952316284
      ],
      "max": [
        4.267399787902832,
        2.005000114440918
      ],
      "type": "VEC2",
      "bufferView": 2,
      "byteOffset": 2768
    },
    {
      "name": "Box002_1_1_indices",
      "componentType": 5123,
      "count": 42,
      "min": [
        0
      ],
      "max": [
        27
      ],
      "type": "SCALAR",
      "bufferView": 3,
      "byteOffset": 1344
    },
    {
      "name": "Box002_1_2_positions",
      "componentType": 5126,
      "count": 58,
      "min": [
        -20.855100631713867,
        9.438699722290039,
        0.800000011920929
      ],
      "max": [
        17.293399810791016,
        32.51250076293945,
        15.900500297546387
      ],
      "type": "VEC3",
      "bufferView": 0,
      "byteOffset": 4488
    },
    {
      "name": "Box002_1_2_normals",
      "componentType": 5126,
      "count": 58,
      "min": [
        -1,
        -0.3223114609718323,
        0
      ],
      "max": [
        1,
        0.3223114609718323,
        0.9466336965560913
      ],
      "type": "VEC3",
      "bufferView": 1,
      "byteOffset": 4488
    },
    {
      "name": "Box002_1_2_texcoords",
      "componentType": 5126,
      "count": 58,
      "min": [
        -2.838599920272827,
        -1.632099986076355
      ],
      "max": [
        3.838599920272827,
        1.5051000118255615
      ],
      "type": "VEC2",
      "bufferView": 2,
      "byteOffset": 2992
    },
    {
      "name": "Box002_1_2_indices",
      "componentType": 5123,
      "count": 90,
      "min": [
        0
      ],
      "max": [
        57
      ],
      "type": "SCALAR",
      "bufferView": 3,
      "byteOffset": 1428
    }
  ],
  "asset": {
    "generator": "obj2gltf",
    "version": "2.0"
  },
  "buffers": [
    {
      "name": "SG_dl",
      "byteLength": 15432,
      "uri": "data:application/octet-stream;base64,"
    }
  ],
  "bufferViews": [
    {
      "name": "bufferView_0",
      "buffer": 0,
      "byteLength": 5184,
      "byteOffset": 0,
      "byteStride": 12,
      "target": 34962
    },
    {
      "name": "bufferView_1",
      "buffer": 0,
      "byteLength": 5184,
      "byteOffset": 5184,
      "byteStride": 12,
      "target": 34962
    },
    {
      "name": "bufferView_2",
      "buffer": 0,
      "byteLength": 3456,
      "byteOffset": 10368,
      "byteStride": 8,
      "target": 34962
    },
    {
      "name": "bufferView_3",
      "buffer": 0,
      "byteLength": 1608,
      "byteOffset": 13824,
      "target": 34963
    }
  ],
  "images": [
    {
      "name": "SG_003",
      "uri": "SG_003.jpg"
    },
    {
      "name": "SG_001",
      "uri": "SG_001.jpg"
    },
    {
      "name": "SG_dl01",
      "uri": "SG_dl01.jpg"
    }
  ],
  "materials": [
    {
      "name": "Material__63",
      "pbrMetallicRoughness": {
        "baseColorTexture": {
          "index": 0
        },
        "baseColorFactor": [
          1,
          1,
          1,
          1
        ],
        "metallicFactor": 0,
        "roughnessFactor": 0.99
      },
      "emissiveFactor": [
        0,
        0,
        0
      ],
      "alphaMode": "OPAQUE",
      "doubleSided": false
    },
    {
      "name": "Material__62",
      "pbrMetallicRoughness": {
        "baseColorTexture": {
          "index": 1
        },
        "baseColorFactor": [
          1,
          1,
          1,
          1
        ],
        "metallicFactor": 0,
        "roughnessFactor": 0.99
      },
      "emissiveFactor": [
        0,
        0,
        0
      ],
      "alphaMode": "OPAQUE",
      "doubleSided": false
    },
    {
      "name": "Material__174",
      "pbrMetallicRoughness": {
        "baseColorTexture": {
          "index": 2
        },
        "baseColorFactor": [
          1,
          1,
          1,
          1
        ],
        "metallicFactor": 0,
        "roughnessFactor": 0.99
      },
      "emissiveFactor": [
        0,
        0,
        0
      ],
      "alphaMode": "OPAQUE",
      "doubleSided": false
    }
  ],
  "meshes": [
    {
      "name": "Box002_1",
      "primitives": [
        {
          "attributes": {
            "POSITION": 0,
            "NORMAL": 1,
            "TEXCOORD_0": 2
          },
          "indices": 3,
          "material": 0,
          "mode": 4
        },
        {
          "attributes": {
            "POSITION": 4,
            "NORMAL": 5,
            "TEXCOORD_0": 6
          },
          "indices": 7,
          "material": 1,
          "mode": 4
        },
        {
          "attributes": {
            "POSITION": 8,
            "NORMAL": 9,
            "TEXCOORD_0": 10
          },
          "indices": 11,
          "material": 2,
          "mode": 4
        }
      ]
    }
  ],
  "nodes": [
    {
      "name": "Box002",
      "mesh": 0
    }
  ],
  "samplers": [
    {
      "wrapS": 10497,
      "wrapT": 10497
    }
  ],
  "scene": 0,
  "scenes": [
    {
      "nodes": [
        0
      ]
    }
  ],
  "textures": [
    {
      "name": "SG_003",
      "sampler": 0,
      "source": 0
    },
    {
      "name": "SG_001",
      "sampler": 0,
      "source": 1
    },
    {
      "name": "SG_dl01",
      "sampler": 0,
      "source": 2
    }
  ]
}
