{
  "accessors": [
    {
      "name": "Cylinder001_1_0_positions",
      "componentType": 5126,
      "count": 1324,
      "min": [
        -40,
        -42.1593017578125,
        0
      ],
      "max": [
        40,
        40,
        10.5
      ],
      "type": "VEC3",
      "bufferView": 0,
      "byteOffset": 0
    },
    {
      "name": "Cylinder001_1_0_normals",
      "componentType": 5126,
      "count": 1324,
      "min": [
        -1,
        -1,
        -0.001999954227358103
      ],
      "max": [
        1,
        1,
        1
      ],
      "type": "VEC3",
      "bufferView": 1,
      "byteOffset": 0
    },
    {
      "name": "Cylinder001_1_0_texcoords",
      "componentType": 5126,
      "count": 1324,
      "min": [
        0,
        0
      ],
      "max": [
        1,
        1
      ],
      "type": "VEC2",
      "bufferView": 2,
      "byteOffset": 0
    },
    {
      "name": "Cylinder001_1_0_indices",
      "componentType": 5123,
      "count": 3636,
      "min": [
        0
      ],
      "max": [
        1323
      ],
      "type": "SCALAR",
      "bufferView": 3,
      "byteOffset": 0
    },
    {
      "name": "Cylinder001_1_1_positions",
      "componentType": 5126,
      "count": 64,
      "min": [
        -36.48310089111328,
        -36.48310089111328,
        9.5
      ],
      "max": [
        36.48310089111328,
        36.48310089111328,
        9.5
      ],
      "type": "VEC3",
      "bufferView": 0,
      "byteOffset": 15888
    },
    {
      "name": "Cylinder001_1_1_normals",
      "componentType": 5126,
      "count": 64,
      "min": [
        0,
        0,
        1
      ],
      "max": [
        0,
        0,
        1
      ],
      "type": "VEC3",
      "bufferView": 1,
      "byteOffset": 15888
    },
    {
      "name": "Cylinder001_1_1_texcoords",
      "componentType": 5126,
      "count": 64,
      "min": [
        0.004000000189989805,
        -0.006200000178068876
      ],
      "max": [
        0.9959999918937683,
        0.98580002784729
      ],
      "type": "VEC2",
      "bufferView": 2,
      "byteOffset": 10592
    },
    {
      "name": "Cylinder001_1_1_indices",
      "componentType": 5123,
      "count": 192,
      "min": [
        0
      ],
      "max": [
        63
      ],
      "type": "SCALAR",
      "bufferView": 3,
      "byteOffset": 7272
    }
  ],
  "asset": {
    "generator": "obj2gltf",
    "version": "2.0"
  },
  "buffers": [
    {
      "name": "dw_001",
      "byteLength": 52072,
      "uri": "data:application/octet-stream;base64,"
    }
  ],
  "bufferViews": [
    {
      "name": "bufferView_0",
      "buffer": 0,
      "byteLength": 16656,
      "byteOffset": 0,
      "byteStride": 12,
      "target": 34962
    },
    {
      "name": "bufferView_1",
      "buffer": 0,
      "byteLength": 16656,
      "byteOffset": 16656,
      "byteStride": 12,
      "target": 34962
    },
    {
      "name": "bufferView_2",
      "buffer": 0,
      "byteLength": 11104,
      "byteOffset": 33312,
      "byteStride": 8,
      "target": 34962
    },
    {
      "name": "bufferView_3",
      "buffer": 0,
      "byteLength": 7656,
      "byteOffset": 44416,
      "target": 34963
    }
  ],
  "images": [
    {
      "name": "dw_002",
      "uri": "dw_002.jpg"
    },
    {
      "name": "dw_001",
      "uri": "dw_001.jpg"
    }
  ],
  "materials": [
    {
      "name": "Material__522",
      "pbrMetallicRoughness": {
        "baseColorTexture": {
          "index": 0
        },
        "baseColorFactor": [
          1,
          1,
          1,
          1
        ],
        "metallicFactor": 0,
        "roughnessFactor": 0.99
      },
      "emissiveFactor": [
        0,
        0,
        0
      ],
      "alphaMode": "OPAQUE",
      "doubleSided": false
    },
    {
      "name": "Material__523",
      "pbrMetallicRoughness": {
        "baseColorTexture": {
          "index": 1
        },
        "baseColorFactor": [
          1,
          1,
          1,
          1
        ],
        "metallicFactor": 0,
        "roughnessFactor": 0.99
      },
      "emissiveFactor": [
        0,
        0,
        0
      ],
      "alphaMode": "OPAQUE",
      "doubleSided": false
    }
  ],
  "meshes": [
    {
      "name": "Cylinder001_1",
      "primitives": [
        {
          "attributes": {
            "POSITION": 0,
            "NORMAL": 1,
            "TEXCOORD_0": 2
          },
          "indices": 3,
          "material": 0,
          "mode": 4
        },
        {
          "attributes": {
            "POSITION": 4,
            "NORMAL": 5,
            "TEXCOORD_0": 6
          },
          "indices": 7,
          "material": 1,
          "mode": 4
        }
      ]
    }
  ],
  "nodes": [
    {
      "name": "Cylinder001",
      "mesh": 0
    }
  ],
  "samplers": [
    {
      "wrapS": 10497,
      "wrapT": 10497
    }
  ],
  "scene": 0,
  "scenes": [
    {
      "nodes": [
        0
      ]
    }
  ],
  "textures": [
    {
      "name": "dw_002",
      "sampler": 0,
      "source": 0
    },
    {
      "name": "dw_001",
      "sampler": 0,
      "source": 1
    }
  ]
}
