{
  "accessors": [
    {
      "name": "Box012_1_0_positions",
      "componentType": 5126,
      "count": 382,
      "min": [
        -31.970399856567383,
        -7.700500011444092,
        6
      ],
      "max": [
        31.970399856567383,
        40.051998138427734,
        28.397300720214844
      ],
      "type": "VEC3",
      "bufferView": 0,
      "byteOffset": 0
    },
    {
      "name": "Box012_1_0_normals",
      "componentType": 5126,
      "count": 382,
      "min": [
        -1,
        -1,
        -1
      ],
      "max": [
        1,
        1,
        1
      ],
      "type": "VEC3",
      "bufferView": 1,
      "byteOffset": 0
    },
    {
      "name": "Box012_1_0_texcoords",
      "componentType": 5126,
      "count": 382,
      "min": [
        -1.3255000114440918,
        -1.3255000114440918
      ],
      "max": [
        2.325500011444092,
        2.325500011444092
      ],
      "type": "VEC2",
      "bufferView": 2,
      "byteOffset": 0
    },
    {
      "name": "Box012_1_0_indices",
      "componentType": 5123,
      "count": 699,
      "min": [
        0
      ],
      "max": [
        381
      ],
      "type": "SCALAR",
      "bufferView": 3,
      "byteOffset": 0
    },
    {
      "name": "Box012_1_1_positions",
      "componentType": 5126,
      "count": 56,
      "min": [
        -29.863500595092773,
        -7.35129976272583,
        0
      ],
      "max": [
        26.13759994506836,
        39.70289993286133,
        6
      ],
      "type": "VEC3",
      "bufferView": 0,
      "byteOffset": 4584
    },
    {
      "name": "Box012_1_1_normals",
      "componentType": 5126,
      "count": 56,
      "min": [
        -1,
        -1,
        0
      ],
      "max": [
        1,
        1,
        0
      ],
      "type": "VEC3",
      "bufferView": 1,
      "byteOffset": 4584
    },
    {
      "name": "Box012_1_1_texcoords",
      "componentType": 5126,
      "count": 56,
      "min": [
        -2.4321000576019287,
        0
      ],
      "max": [
        3.2888998985290527,
        1
      ],
      "type": "VEC2",
      "bufferView": 2,
      "byteOffset": 3056
    },
    {
      "name": "Box012_1_1_indices",
      "componentType": 5123,
      "count": 90,
      "min": [
        0
      ],
      "max": [
        55
      ],
      "type": "SCALAR",
      "bufferView": 3,
      "byteOffset": 1400
    },
    {
      "name": "Box012_1_2_positions",
      "componentType": 5126,
      "count": 10,
      "min": [
        26.211700439453125,
        -3.7195000648498535,
        7.998700141906738
      ],
      "max": [
        30.32830047607422,
        29.593000411987305,
        23.471500396728516
      ],
      "type": "VEC3",
      "bufferView": 0,
      "byteOffset": 5256
    },
    {
      "name": "Box012_1_2_normals",
      "componentType": 5126,
      "count": 10,
      "min": [
        1,
        0,
        0
      ],
      "max": [
        1,
        0,
        0
      ],
      "type": "VEC3",
      "bufferView": 1,
      "byteOffset": 5256
    },
    {
      "name": "Box012_1_2_texcoords",
      "componentType": 5126,
      "count": 10,
      "min": [
        -1.4261000156402588,
        -2.5729000568389893
      ],
      "max": [
        2.9495999813079834,
        2.535900115966797
      ],
      "type": "VEC2",
      "bufferView": 2,
      "byteOffset": 3504
    },
    {
      "name": "Box012_1_2_indices",
      "componentType": 5123,
      "count": 18,
      "min": [
        0
      ],
      "max": [
        9
      ],
      "type": "SCALAR",
      "bufferView": 3,
      "byteOffset": 1580
    },
    {
      "name": "Box012_1_3_positions",
      "componentType": 5126,
      "count": 26,
      "min": [
        -31.03849983215332,
        -3.7195000648498535,
        7.998700141906738
      ],
      "max": [
        31.07900047302246,
        36.07099914550781,
        23.471500396728516
      ],
      "type": "VEC3",
      "bufferView": 0,
      "byteOffset": 5376
    },
    {
      "name": "Box012_1_3_normals",
      "componentType": 5126,
      "count": 26,
      "min": [
        -1,
        0,
        0
      ],
      "max": [
        1,
        0,
        0
      ],
      "type": "VEC3",
      "bufferView": 1,
      "byteOffset": 5376
    },
    {
      "name": "Box012_1_3_texcoords",
      "componentType": 5126,
      "count": 26,
      "min": [
        -1.17739999294281,
        -1.5866999626159668
      ],
      "max": [
        2.351799964904785,
        1.1644999980926514
      ],
      "type": "VEC2",
      "bufferView": 2,
      "byteOffset": 3584
    },
    {
      "name": "Box012_1_3_indices",
      "componentType": 5123,
      "count": 42,
      "min": [
        0
      ],
      "max": [
        25
      ],
      "type": "SCALAR",
      "bufferView": 3,
      "byteOffset": 1616
    },
    {
      "name": "Box012_1_4_positions",
      "componentType": 5126,
      "count": 53,
      "min": [
        -24.43589973449707,
        -29.986000061035156,
        0
      ],
      "max": [
        23.279499053955078,
        -16.3169002532959,
        34.89830017089844
      ],
      "type": "VEC3",
      "bufferView": 0,
      "byteOffset": 5688
    },
    {
      "name": "Box012_1_4_normals",
      "componentType": 5126,
      "count": 53,
      "min": [
        -1,
        -1,
        0
      ],
      "max": [
        1,
        1,
        1
      ],
      "type": "VEC3",
      "bufferView": 1,
      "byteOffset": 5688
    },
    {
      "name": "Box012_1_4_texcoords",
      "componentType": 5126,
      "count": 53,
      "min": [
        -1.2874000072479248,
        -1.3884999752044678
      ],
      "max": [
        1.8871999979019165,
        2.7660999298095703
      ],
      "type": "VEC2",
      "bufferView": 2,
      "byteOffset": 3792
    },
    {
      "name": "Box012_1_4_indices",
      "componentType": 5123,
      "count": 105,
      "min": [
        0
      ],
      "max": [
        52
      ],
      "type": "SCALAR",
      "bufferView": 3,
      "byteOffset": 1700
    },
    {
      "name": "Box012_1_5_positions",
      "componentType": 5126,
      "count": 16,
      "min": [
        -24.43589973449707,
        -29.986000061035156,
        0
      ],
      "max": [
        23.279499053955078,
        -16.3169002532959,
        34.89830017089844
      ],
      "type": "VEC3",
      "bufferView": 0,
      "byteOffset": 6324
    },
    {
      "name": "Box012_1_5_normals",
      "componentType": 5126,
      "count": 16,
      "min": [
        -1,
        0,
        0
      ],
      "max": [
        1,
        0,
        0
      ],
      "type": "VEC3",
      "bufferView": 1,
      "byteOffset": 6324
    },
    {
      "name": "Box012_1_5_texcoords",
      "componentType": 5126,
      "count": 16,
      "min": [
        -0.01979999989271164,
        -0.9909999966621399
      ],
      "max": [
        1.0197999477386475,
        3.0597000122070312
      ],
      "type": "VEC2",
      "bufferView": 2,
      "byteOffset": 4216
    },
    {
      "name": "Box012_1_5_indices",
      "componentType": 5123,
      "count": 24,
      "min": [
        0
      ],
      "max": [
        15
      ],
      "type": "SCALAR",
      "bufferView": 3,
      "byteOffset": 1912
    },
    {
      "name": "Box012_1_6_positions",
      "componentType": 5126,
      "count": 8,
      "min": [
        -24.43589973449707,
        -27.763099670410156,
        0
      ],
      "max": [
        23.279499053955078,
        -16.3169002532959,
        34.89830017089844
      ],
      "type": "VEC3",
      "bufferView": 0,
      "byteOffset": 6516
    },
    {
      "name": "Box012_1_6_normals",
      "componentType": 5126,
      "count": 8,
      "min": [
        0,
        -1,
        0
      ],
      "max": [
        0,
        1,
        0
      ],
      "type": "VEC3",
      "bufferView": 1,
      "byteOffset": 6516
    },
    {
      "name": "Box012_1_6_texcoords",
      "componentType": 5126,
      "count": 8,
      "min": [
        -2.484100103378296,
        -1.3884999752044678
      ],
      "max": [
        3.484100103378296,
        2.7660999298095703
      ],
      "type": "VEC2",
      "bufferView": 2,
      "byteOffset": 4344
    },
    {
      "name": "Box012_1_6_indices",
      "componentType": 5123,
      "count": 12,
      "min": [
        0
      ],
      "max": [
        7
      ],
      "type": "SCALAR",
      "bufferView": 3,
      "byteOffset": 1960
    },
    {
      "name": "Box012_1_7_positions",
      "componentType": 5126,
      "count": 52,
      "min": [
        -19.961000442504883,
        -40.051998138427734,
        2.547300100326538
      ],
      "max": [
        17.308700561523438,
        -29.986000061035156,
        30.134199142456055
      ],
      "type": "VEC3",
      "bufferView": 0,
      "byteOffset": 6612
    },
    {
      "name": "Box012_1_7_normals",
      "componentType": 5126,
      "count": 52,
      "min": [
        -1,
        -1,
        0
      ],
      "max": [
        1,
        1,
        1
      ],
      "type": "VEC3",
      "bufferView": 1,
      "byteOffset": 6612
    },
    {
      "name": "Box012_1_7_texcoords",
      "componentType": 5126,
      "count": 52,
      "min": [
        -2.9965999126434326,
        -2.802999973297119
      ],
      "max": [
        4.207600116729736,
        1
      ],
      "type": "VEC2",
      "bufferView": 2,
      "byteOffset": 4408
    },
    {
      "name": "Box012_1_7_indices",
      "componentType": 5123,
      "count": 90,
      "min": [
        0
      ],
      "max": [
        51
      ],
      "type": "SCALAR",
      "bufferView": 3,
      "byteOffset": 1984
    },
    {
      "name": "Box012_1_8_positions",
      "componentType": 5126,
      "count": 8,
      "min": [
        -19.961000442504883,
        -40.051998138427734,
        2.547300100326538
      ],
      "max": [
        17.308700561523438,
        -29.986000061035156,
        28.546600341796875
      ],
      "type": "VEC3",
      "bufferView": 0,
      "byteOffset": 7236
    },
    {
      "name": "Box012_1_8_normals",
      "componentType": 5126,
      "count": 8,
      "min": [
        0,
        -1,
        0
      ],
      "max": [
        0,
        1,
        0
      ],
      "type": "VEC3",
      "bufferView": 1,
      "byteOffset": 7236
    },
    {
      "name": "Box012_1_8_texcoords",
      "componentType": 5126,
      "count": 8,
      "min": [
        -2.1522998809814453,
        -2.5125999450683594
      ],
      "max": [
        2.999799966812134,
        0.4129999876022339
      ],
      "type": "VEC2",
      "bufferView": 2,
      "byteOffset": 4824
    },
    {
      "name": "Box012_1_8_indices",
      "componentType": 5123,
      "count": 12,
      "min": [
        0
      ],
      "max": [
        7
      ],
      "type": "SCALAR",
      "bufferView": 3,
      "byteOffset": 2164
    },
    {
      "name": "Box012_1_9_positions",
      "componentType": 5126,
      "count": 16,
      "min": [
        -19.961000442504883,
        -40.051998138427734,
        0
      ],
      "max": [
        17.308700561523438,
        -29.986000061035156,
        2.547300100326538
      ],
      "type": "VEC3",
      "bufferView": 0,
      "byteOffset": 7332
    },
    {
      "name": "Box012_1_9_normals",
      "componentType": 5126,
      "count": 16,
      "min": [
        -1,
        -1,
        0
      ],
      "max": [
        1,
        1,
        0
      ],
      "type": "VEC3",
      "bufferView": 1,
      "byteOffset": 7332
    },
    {
      "name": "Box012_1_9_texcoords",
      "componentType": 5126,
      "count": 16,
      "min": [
        -2.9965999126434326,
        0.4129999876022339
      ],
      "max": [
        3.9965999126434326,
        0.8788999915122986
      ],
      "type": "VEC2",
      "bufferView": 2,
      "byteOffset": 4888
    },
    {
      "name": "Box012_1_9_indices",
      "componentType": 5123,
      "count": 24,
      "min": [
        0
      ],
      "max": [
        15
      ],
      "type": "SCALAR",
      "bufferView": 3,
      "byteOffset": 2188
    }
  ],
  "asset": {
    "generator": "obj2gltf",
    "version": "2.0"
  },
  "buffers": [
    {
      "name": "3_jz10",
      "byteLength": 22300,
      "uri": "data:application/octet-stream;base64,"
    }
  ],
  "bufferViews": [
    {
      "name": "bufferView_0",
      "buffer": 0,
      "byteLength": 7524,
      "byteOffset": 0,
      "byteStride": 12,
      "target": 34962
    },
    {
      "name": "bufferView_1",
      "buffer": 0,
      "byteLength": 7524,
      "byteOffset": 7524,
      "byteStride": 12,
      "target": 34962
    },
    {
      "name": "bufferView_2",
      "buffer": 0,
      "byteLength": 5016,
      "byteOffset": 15048,
      "byteStride": 8,
      "target": 34962
    },
    {
      "name": "bufferView_3",
      "buffer": 0,
      "byteLength": 2236,
      "byteOffset": 20064,
      "target": 34963
    }
  ],
  "images": [
    {
      "name": "sgy_3q_10",
      "uri": "sgy_3q_10.jpg"
    },
    {
      "name": "sgy_3q_12",
      "uri": "sgy_3q_12.jpg"
    },
    {
      "name": "sgy_3q_11",
      "uri": "sgy_3q_11.jpg"
    },
    {
      "name": "sgy_3q_09",
      "uri": "sgy_3q_09.jpg"
    },
    {
      "name": "sgy_3q_08",
      "uri": "sgy_3q_08.jpg"
    },
    {
      "name": "sgy_3q_06",
      "uri": "sgy_3q_06.jpg"
    },
    {
      "name": "sgy_3q_07",
      "uri": "sgy_3q_07.jpg"
    },
    {
      "name": "sgy_3q_04",
      "uri": "sgy_3q_04.jpg"
    },
    {
      "name": "sgy_3q_03",
      "uri": "sgy_3q_03.jpg"
    },
    {
      "name": "sgy_3q_05",
      "uri": "sgy_3q_05.jpg"
    }
  ],
  "materials": [
    {
      "name": "Material__1373",
      "pbrMetallicRoughness": {
        "baseColorTexture": {
          "index": 0
        },
        "baseColorFactor": [
          1,
          1,
          1,
          1
        ],
        "metallicFactor": 0,
        "roughnessFactor": 0.99
      },
      "emissiveFactor": [
        0,
        0,
        0
      ],
      "alphaMode": "OPAQUE",
      "doubleSided": false
    },
    {
      "name": "Material__1397",
      "pbrMetallicRoughness": {
        "baseColorTexture": {
          "index": 1
        },
        "baseColorFactor": [
          1,
          1,
          1,
          1
        ],
        "metallicFactor": 0,
        "roughnessFactor": 0.99
      },
      "emissiveFactor": [
        0,
        0,
        0
      ],
      "alphaMode": "OPAQUE",
      "doubleSided": false
    },
    {
      "name": "Material__1385",
      "pbrMetallicRoughness": {
        "baseColorTexture": {
          "index": 2
        },
        "baseColorFactor": [
          1,
          1,
          1,
          1
        ],
        "metallicFactor": 0,
        "roughnessFactor": 0.99
      },
      "emissiveFactor": [
        0,
        0,
        0
      ],
      "alphaMode": "OPAQUE",
      "doubleSided": false
    },
    {
      "name": "Material__1361",
      "pbrMetallicRoughness": {
        "baseColorTexture": {
          "index": 3
        },
        "baseColorFactor": [
          1,
          1,
          1,
          1
        ],
        "metallicFactor": 0,
        "roughnessFactor": 0.99
      },
      "emissiveFactor": [
        0,
        0,
        0
      ],
      "alphaMode": "OPAQUE",
      "doubleSided": false
    },
    {
      "name": "Material__1338",
      "pbrMetallicRoughness": {
        "baseColorTexture": {
          "index": 4
        },
        "baseColorFactor": [
          1,
          1,
          1,
          1
        ],
        "metallicFactor": 0,
        "roughnessFactor": 0.99
      },
      "emissiveFactor": [
        0,
        0,
        0
      ],
      "alphaMode": "OPAQUE",
      "doubleSided": false
    },
    {
      "name": "Material__1292",
      "pbrMetallicRoughness": {
        "baseColorTexture": {
          "index": 5
        },
        "baseColorFactor": [
          1,
          1,
          1,
          1
        ],
        "metallicFactor": 0,
        "roughnessFactor": 0.99
      },
      "emissiveFactor": [
        0,
        0,
        0
      ],
      "alphaMode": "OPAQUE",
      "doubleSided": false
    },
    {
      "name": "Material__1315",
      "pbrMetallicRoughness": {
        "baseColorTexture": {
          "index": 6
        },
        "baseColorFactor": [
          1,
          1,
          1,
          1
        ],
        "metallicFactor": 0,
        "roughnessFactor": 0.99
      },
      "emissiveFactor": [
        0,
        0,
        0
      ],
      "alphaMode": "OPAQUE",
      "doubleSided": false
    },
    {
      "name": "Material__1267",
      "pbrMetallicRoughness": {
        "baseColorTexture": {
          "index": 7
        },
        "baseColorFactor": [
          1,
          1,
          1,
          1
        ],
        "metallicFactor": 0,
        "roughnessFactor": 0.99
      },
      "emissiveFactor": [
        0,
        0,
        0
      ],
      "alphaMode": "OPAQUE",
      "doubleSided": false
    },
    {
      "name": "Material__1255",
      "pbrMetallicRoughness": {
        "baseColorTexture": {
          "index": 8
        },
        "baseColorFactor": [
          1,
          1,
          1,
          1
        ],
        "metallicFactor": 0,
        "roughnessFactor": 0.99
      },
      "emissiveFactor": [
        0,
        0,
        0
      ],
      "alphaMode": "OPAQUE",
      "doubleSided": false
    },
    {
      "name": "Material__1280",
      "pbrMetallicRoughness": {
        "baseColorTexture": {
          "index": 9
        },
        "baseColorFactor": [
          1,
          1,
          1,
          1
        ],
        "metallicFactor": 0,
        "roughnessFactor": 0.99
      },
      "emissiveFactor": [
        0,
        0,
        0
      ],
      "alphaMode": "OPAQUE",
      "doubleSided": false
    }
  ],
  "meshes": [
    {
      "name": "Box012_1",
      "primitives": [
        {
          "attributes": {
            "POSITION": 0,
            "NORMAL": 1,
            "TEXCOORD_0": 2
          },
          "indices": 3,
          "material": 0,
          "mode": 4
        },
        {
          "attributes": {
            "POSITION": 4,
            "NORMAL": 5,
            "TEXCOORD_0": 6
          },
          "indices": 7,
          "material": 1,
          "mode": 4
        },
        {
          "attributes": {
            "POSITION": 8,
            "NORMAL": 9,
            "TEXCOORD_0": 10
          },
          "indices": 11,
          "material": 2,
          "mode": 4
        },
        {
          "attributes": {
            "POSITION": 12,
            "NORMAL": 13,
            "TEXCOORD_0": 14
          },
          "indices": 15,
          "material": 3,
          "mode": 4
        },
        {
          "attributes": {
            "POSITION": 16,
            "NORMAL": 17,
            "TEXCOORD_0": 18
          },
          "indices": 19,
          "material": 4,
          "mode": 4
        },
        {
          "attributes": {
            "POSITION": 20,
            "NORMAL": 21,
            "TEXCOORD_0": 22
          },
          "indices": 23,
          "material": 5,
          "mode": 4
        },
        {
          "attributes": {
            "POSITION": 24,
            "NORMAL": 25,
            "TEXCOORD_0": 26
          },
          "indices": 27,
          "material": 6,
          "mode": 4
        },
        {
          "attributes": {
            "POSITION": 28,
            "NORMAL": 29,
            "TEXCOORD_0": 30
          },
          "indices": 31,
          "material": 7,
          "mode": 4
        },
        {
          "attributes": {
            "POSITION": 32,
            "NORMAL": 33,
            "TEXCOORD_0": 34
          },
          "indices": 35,
          "material": 8,
          "mode": 4
        },
        {
          "attributes": {
            "POSITION": 36,
            "NORMAL": 37,
            "TEXCOORD_0": 38
          },
          "indices": 39,
          "material": 9,
          "mode": 4
        }
      ]
    }
  ],
  "nodes": [
    {
      "name": "Box012",
      "mesh": 0
    }
  ],
  "samplers": [
    {
      "wrapS": 10497,
      "wrapT": 10497
    }
  ],
  "scene": 0,
  "scenes": [
    {
      "nodes": [
        0
      ]
    }
  ],
  "textures": [
    {
      "name": "sgy_3q_10",
      "sampler": 0,
      "source": 0
    },
    {
      "name": "sgy_3q_12",
      "sampler": 0,
      "source": 1
    },
    {
      "name": "sgy_3q_11",
      "sampler": 0,
      "source": 2
    },
    {
      "name": "sgy_3q_09",
      "sampler": 0,
      "source": 3
    },
    {
      "name": "sgy_3q_08",
      "sampler": 0,
      "source": 4
    },
    {
      "name": "sgy_3q_06",
      "sampler": 0,
      "source": 5
    },
    {
      "name": "sgy_3q_07",
      "sampler": 0,
      "source": 6
    },
    {
      "name": "sgy_3q_04",
      "sampler": 0,
      "source": 7
    },
    {
      "name": "sgy_3q_03",
      "sampler": 0,
      "source": 8
    },
    {
      "name": "sgy_3q_05",
      "sampler": 0,
      "source": 9
    }
  ]
}
