{
  "accessors": [
    {
      "name": "Box003_1_0_positions",
      "componentType": 5126,
      "count": 299,
      "min": [
        -61.64120101928711,
        -27.480100631713867,
        -0.007799999788403511
      ],
      "max": [
        61.916500091552734,
        27.480100631713867,
        5.009399890899658
      ],
      "type": "VEC3",
      "bufferView": 0,
      "byteOffset": 0
    },
    {
      "name": "Box003_1_0_normals",
      "componentType": 5126,
      "count": 299,
      "min": [
        -1,
        -1,
        -0.0003999999607913196
      ],
      "max": [
        1,
        1,
        1
      ],
      "type": "VEC3",
      "bufferView": 1,
      "byteOffset": 0
    },
    {
      "name": "Box003_1_0_texcoords",
      "componentType": 5126,
      "count": 299,
      "min": [
        -5.531899929046631,
        -2.1767001152038574
      ],
      "max": [
        5.782100200653076,
        11.783699989318848
      ],
      "type": "VEC2",
      "bufferView": 2,
      "byteOffset": 0
    },
    {
      "name": "Box003_1_0_indices",
      "componentType": 5123,
      "count": 654,
      "min": [
        0
      ],
      "max": [
        298
      ],
      "type": "SCALAR",
      "bufferView": 3,
      "byteOffset": 0
    },
    {
      "name": "Box003_1_1_positions",
      "componentType": 5126,
      "count": 60,
      "min": [
        -21.560199737548828,
        -27.079200744628906,
        3.2834999561309814
      ],
      "max": [
        50.18230056762695,
        27.076499938964844,
        6.535600185394287
      ],
      "type": "VEC3",
      "bufferView": 0,
      "byteOffset": 3588
    },
    {
      "name": "Box003_1_1_normals",
      "componentType": 5126,
      "count": 60,
      "min": [
        -1,
        -1,
        0
      ],
      "max": [
        1,
        1,
        0
      ],
      "type": "VEC3",
      "bufferView": 1,
      "byteOffset": 3588
    },
    {
      "name": "Box003_1_1_texcoords",
      "componentType": 5126,
      "count": 60,
      "min": [
        -4.997000217437744,
        0.0031999999191612005
      ],
      "max": [
        5.8993000984191895,
        1.29830002784729
      ],
      "type": "VEC2",
      "bufferView": 2,
      "byteOffset": 2392
    },
    {
      "name": "Box003_1_1_indices",
      "componentType": 5123,
      "count": 96,
      "min": [
        0
      ],
      "max": [
        59
      ],
      "type": "SCALAR",
      "bufferView": 3,
      "byteOffset": 1308
    },
    {
      "name": "Box003_1_2_positions",
      "componentType": 5126,
      "count": 12,
      "min": [
        -11.83180046081543,
        -27.480100631713867,
        4.422800064086914
      ],
      "max": [
        3.7497000694274902,
        27.480100631713867,
        4.422800064086914
      ],
      "type": "VEC3",
      "bufferView": 0,
      "byteOffset": 4308
    },
    {
      "name": "Box003_1_2_normals",
      "componentType": 5126,
      "count": 12,
      "min": [
        0,
        0,
        1
      ],
      "max": [
        0,
        0,
        1
      ],
      "type": "VEC3",
      "bufferView": 1,
      "byteOffset": 4308
    },
    {
      "name": "Box003_1_2_texcoords",
      "componentType": 5126,
      "count": 12,
      "min": [
        0,
        0
      ],
      "max": [
        1,
        1
      ],
      "type": "VEC2",
      "bufferView": 2,
      "byteOffset": 2872
    },
    {
      "name": "Box003_1_2_indices",
      "componentType": 5123,
      "count": 18,
      "min": [
        0
      ],
      "max": [
        11
      ],
      "type": "SCALAR",
      "bufferView": 3,
      "byteOffset": 1500
    },
    {
      "name": "Box003_1_3_positions",
      "componentType": 5126,
      "count": 4,
      "min": [
        -21.86840057373047,
        -8.610400199890137,
        4.422800064086914
      ],
      "max": [
        -11.83180046081543,
        9.709600448608398,
        4.422800064086914
      ],
      "type": "VEC3",
      "bufferView": 0,
      "byteOffset": 4452
    },
    {
      "name": "Box003_1_3_normals",
      "componentType": 5126,
      "count": 4,
      "min": [
        0,
        0,
        1
      ],
      "max": [
        0,
        0,
        1
      ],
      "type": "VEC3",
      "bufferView": 1,
      "byteOffset": 4452
    },
    {
      "name": "Box003_1_3_texcoords",
      "componentType": 5126,
      "count": 4,
      "min": [
        0.32330000400543213,
        0
      ],
      "max": [
        0.6567000150680542,
        0
      ],
      "type": "VEC2",
      "bufferView": 2,
      "byteOffset": 2968
    },
    {
      "name": "Box003_1_3_indices",
      "componentType": 5123,
      "count": 6,
      "min": [
        0
      ],
      "max": [
        3
      ],
      "type": "SCALAR",
      "bufferView": 3,
      "byteOffset": 1536
    },
    {
      "name": "Box003_1_4_positions",
      "componentType": 5126,
      "count": 2692,
      "min": [
        -61.40129852294922,
        -20.09079933166504,
        2.7792999744415283
      ],
      "max": [
        61.91590118408203,
        7.9506001472473145,
        8.184300422668457
      ],
      "type": "VEC3",
      "bufferView": 0,
      "byteOffset": 4500
    },
    {
      "name": "Box003_1_4_normals",
      "componentType": 5126,
      "count": 2692,
      "min": [
        -1,
        -1,
        -1
      ],
      "max": [
        1,
        1,
        1
      ],
      "type": "VEC3",
      "bufferView": 1,
      "byteOffset": 4500
    },
    {
      "name": "Box003_1_4_texcoords",
      "componentType": 5126,
      "count": 2692,
      "min": [
        -8.583800315856934,
        -8.788100242614746
      ],
      "max": [
        9.687100410461426,
        9.713500022888184
      ],
      "type": "VEC2",
      "bufferView": 2,
      "byteOffset": 3000
    },
    {
      "name": "Box003_1_4_indices",
      "componentType": 5123,
      "count": 5316,
      "min": [
        0
      ],
      "max": [
        2691
      ],
      "type": "SCALAR",
      "bufferView": 3,
      "byteOffset": 1548
    },
    {
      "name": "Box003_1_5_positions",
      "componentType": 5126,
      "count": 266,
      "min": [
        -62.11220169067383,
        -20.710500717163086,
        4.2195000648498535
      ],
      "max": [
        62.11220169067383,
        9.068499565124512,
        8.514599800109863
      ],
      "type": "VEC3",
      "bufferView": 0,
      "byteOffset": 36804
    },
    {
      "name": "Box003_1_5_normals",
      "componentType": 5126,
      "count": 266,
      "min": [
        -1,
        -1,
        0
      ],
      "max": [
        1,
        1,
        1
      ],
      "type": "VEC3",
      "bufferView": 1,
      "byteOffset": 36804
    },
    {
      "name": "Box003_1_5_texcoords",
      "componentType": 5126,
      "count": 266,
      "min": [
        -3.383230658708161e+38,
        0
      ],
      "max": [
        1,
        3.383230658708161e+38
      ],
      "type": "VEC2",
      "bufferView": 2,
      "byteOffset": 24536
    },
    {
      "name": "Box003_1_5_indices",
      "componentType": 5123,
      "count": 690,
      "min": [
        0
      ],
      "max": [
        265
      ],
      "type": "SCALAR",
      "bufferView": 3,
      "byteOffset": 12180
    },
    {
      "name": "Box003_1_6_positions",
      "componentType": 5126,
      "count": 36,
      "min": [
        -10.0733003616333,
        -16.128599166870117,
        5.009399890899658
      ],
      "max": [
        49.22370147705078,
        16.661800384521484,
        9.952300071716309
      ],
      "type": "VEC3",
      "bufferView": 0,
      "byteOffset": 39996
    },
    {
      "name": "Box003_1_6_normals",
      "componentType": 5126,
      "count": 36,
      "min": [
        -1,
        0,
        0
      ],
      "max": [
        1,
        0,
        1
      ],
      "type": "VEC3",
      "bufferView": 1,
      "byteOffset": 39996
    },
    {
      "name": "Box003_1_6_texcoords",
      "componentType": 5126,
      "count": 36,
      "min": [
        0,
        0
      ],
      "max": [
        4.000899791717529,
        8.991000175476074
      ],
      "type": "VEC2",
      "bufferView": 2,
      "byteOffset": 26664
    },
    {
      "name": "Box003_1_6_indices",
      "componentType": 5123,
      "count": 54,
      "min": [
        0
      ],
      "max": [
        35
      ],
      "type": "SCALAR",
      "bufferView": 3,
      "byteOffset": 13560
    },
    {
      "name": "Box003_1_7_positions",
      "componentType": 5126,
      "count": 32,
      "min": [
        -10.0733003616333,
        -16.128599166870117,
        4.422800064086914
      ],
      "max": [
        49.22370147705078,
        16.661800384521484,
        9.952300071716309
      ],
      "type": "VEC3",
      "bufferView": 0,
      "byteOffset": 40428
    },
    {
      "name": "Box003_1_7_normals",
      "componentType": 5126,
      "count": 32,
      "min": [
        -1,
        -1,
        0
      ],
      "max": [
        1,
        1,
        0
      ],
      "type": "VEC3",
      "bufferView": 1,
      "byteOffset": 40428
    },
    {
      "name": "Box003_1_7_texcoords",
      "componentType": 5126,
      "count": 32,
      "min": [
        -4.5019001960754395,
        -0.007000000216066837
      ],
      "max": [
        4.497700214385986,
        0.9987000226974487
      ],
      "type": "VEC2",
      "bufferView": 2,
      "byteOffset": 26952
    },
    {
      "name": "Box003_1_7_indices",
      "componentType": 5123,
      "count": 48,
      "min": [
        0
      ],
      "max": [
        31
      ],
      "type": "SCALAR",
      "bufferView": 3,
      "byteOffset": 13668
    },
    {
      "name": "Box003_1_8_positions",
      "componentType": 5126,
      "count": 16,
      "min": [
        -10.0733003616333,
        -16.128599166870117,
        4.422800064086914
      ],
      "max": [
        21.416500091552734,
        8.064299583435059,
        9.501899719238281
      ],
      "type": "VEC3",
      "bufferView": 0,
      "byteOffset": 40812
    },
    {
      "name": "Box003_1_8_normals",
      "componentType": 5126,
      "count": 16,
      "min": [
        -1,
        -1,
        0
      ],
      "max": [
        1,
        1,
        0
      ],
      "type": "VEC3",
      "bufferView": 1,
      "byteOffset": 40812
    },
    {
      "name": "Box003_1_8_texcoords",
      "componentType": 5126,
      "count": 16,
      "min": [
        0,
        0
      ],
      "max": [
        3.9993999004364014,
        1
      ],
      "type": "VEC2",
      "bufferView": 2,
      "byteOffset": 27208
    },
    {
      "name": "Box003_1_8_indices",
      "componentType": 5123,
      "count": 24,
      "min": [
        0
      ],
      "max": [
        15
      ],
      "type": "SCALAR",
      "bufferView": 3,
      "byteOffset": 13764
    },
    {
      "name": "Box003_1_9_positions",
      "componentType": 5126,
      "count": 8,
      "min": [
        -10.0733003616333,
        8.064299583435059,
        4.422800064086914
      ],
      "max": [
        -5.040299892425537,
        16.128599166870117,
        9.501899719238281
      ],
      "type": "VEC3",
      "bufferView": 0,
      "byteOffset": 41004
    },
    {
      "name": "Box003_1_9_normals",
      "componentType": 5126,
      "count": 8,
      "min": [
        -1,
        0,
        0
      ],
      "max": [
        1,
        0,
        0
      ],
      "type": "VEC3",
      "bufferView": 1,
      "byteOffset": 41004
    },
    {
      "name": "Box003_1_9_texcoords",
      "componentType": 5126,
      "count": 8,
      "min": [
        0,
        0
      ],
      "max": [
        3.9993999004364014,
        1
      ],
      "type": "VEC2",
      "bufferView": 2,
      "byteOffset": 27336
    },
    {
      "name": "Box003_1_9_indices",
      "componentType": 5123,
      "count": 12,
      "min": [
        0
      ],
      "max": [
        7
      ],
      "type": "SCALAR",
      "bufferView": 3,
      "byteOffset": 13812
    }
  ],
  "asset": {
    "generator": "obj2gltf",
    "version": "2.0"
  },
  "buffers": [
    {
      "name": "4_jz03",
      "byteLength": 123436,
      "uri": "data:application/octet-stream;base64,"
    }
  ],
  "bufferViews": [
    {
      "name": "bufferView_0",
      "buffer": 0,
      "byteLength": 41100,
      "byteOffset": 0,
      "byteStride": 12,
      "target": 34962
    },
    {
      "name": "bufferView_1",
      "buffer": 0,
      "byteLength": 41100,
      "byteOffset": 41100,
      "byteStride": 12,
      "target": 34962
    },
    {
      "name": "bufferView_2",
      "buffer": 0,
      "byteLength": 27400,
      "byteOffset": 82200,
      "byteStride": 8,
      "target": 34962
    },
    {
      "name": "bufferView_3",
      "buffer": 0,
      "byteLength": 13836,
      "byteOffset": 109600,
      "target": 34963
    }
  ],
  "images": [
    {
      "name": "sgy_4q_23",
      "uri": "sgy_4q_23.jpg"
    },
    {
      "name": "sgy_4q_26",
      "uri": "sgy_4q_26.png"
    },
    {
      "name": "sgy_4q_20",
      "uri": "sgy_4q_20.jpg"
    },
    {
      "name": "sgy_4q_22",
      "uri": "sgy_4q_22.jpg"
    },
    {
      "name": "sgy_1q_08",
      "uri": "sgy_1q_08.jpg"
    },
    {
      "name": "sgy_4q_31",
      "uri": "sgy_4q_31.png"
    },
    {
      "name": "sgy_4q_30",
      "uri": "sgy_4q_30.jpg"
    },
    {
      "name": "sgy_4q_28",
      "uri": "sgy_4q_28.jpg"
    },
    {
      "name": "sgy_4q_29",
      "uri": "sgy_4q_29.jpg"
    },
    {
      "name": "sgy_4q_27",
      "uri": "sgy_4q_27.jpg"
    }
  ],
  "materials": [
    {
      "name": "Material__6789",
      "pbrMetallicRoughness": {
        "baseColorTexture": {
          "index": 0
        },
        "baseColorFactor": [
          1,
          1,
          1,
          1
        ],
        "metallicFactor": 0,
        "roughnessFactor": 0.99
      },
      "emissiveFactor": [
        0,
        0,
        0
      ],
      "alphaMode": "OPAQUE",
      "doubleSided": false
    },
    {
      "name": "Material__8061",
      "pbrMetallicRoughness": {
        "baseColorTexture": {
          "index": 1
        },
        "baseColorFactor": [
          1,
          1,
          1,
          1
        ],
        "metallicFactor": 0,
        "roughnessFactor": 0.99
      },
      "emissiveFactor": [
        0,
        0,
        0
      ],
      "alphaMode": "BLEND",
      "doubleSided": true
    },
    {
      "name": "Material__8228",
      "pbrMetallicRoughness": {
        "baseColorTexture": {
          "index": 2
        },
        "baseColorFactor": [
          1,
          1,
          1,
          1
        ],
        "metallicFactor": 0,
        "roughnessFactor": 0.99
      },
      "emissiveFactor": [
        0,
        0,
        0
      ],
      "alphaMode": "OPAQUE",
      "doubleSided": false
    },
    {
      "name": "Material__6788",
      "pbrMetallicRoughness": {
        "baseColorTexture": {
          "index": 3
        },
        "baseColorFactor": [
          1,
          1,
          1,
          1
        ],
        "metallicFactor": 0,
        "roughnessFactor": 0.99
      },
      "emissiveFactor": [
        0,
        0,
        0
      ],
      "alphaMode": "OPAQUE",
      "doubleSided": false
    },
    {
      "name": "Material__7981",
      "pbrMetallicRoughness": {
        "baseColorTexture": {
          "index": 4
        },
        "baseColorFactor": [
          1,
          1,
          1,
          1
        ],
        "metallicFactor": 0,
        "roughnessFactor": 0.99
      },
      "emissiveFactor": [
        0,
        0,
        0
      ],
      "alphaMode": "OPAQUE",
      "doubleSided": false
    },
    {
      "name": "Material__8005",
      "pbrMetallicRoughness": {
        "baseColorTexture": {
          "index": 5
        },
        "baseColorFactor": [
          1,
          1,
          1,
          1
        ],
        "metallicFactor": 0,
        "roughnessFactor": 0.99
      },
      "emissiveFactor": [
        0,
        0,
        0
      ],
      "alphaMode": "BLEND",
      "doubleSided": true
    },
    {
      "name": "Material__8159",
      "pbrMetallicRoughness": {
        "baseColorTexture": {
          "index": 6
        },
        "baseColorFactor": [
          1,
          1,
          1,
          1
        ],
        "metallicFactor": 0,
        "roughnessFactor": 0.99
      },
      "emissiveFactor": [
        0,
        0,
        0
      ],
      "alphaMode": "OPAQUE",
      "doubleSided": false
    },
    {
      "name": "Material__8142",
      "pbrMetallicRoughness": {
        "baseColorTexture": {
          "index": 7
        },
        "baseColorFactor": [
          1,
          1,
          1,
          1
        ],
        "metallicFactor": 0,
        "roughnessFactor": 0.99
      },
      "emissiveFactor": [
        0,
        0,
        0
      ],
      "alphaMode": "OPAQUE",
      "doubleSided": false
    },
    {
      "name": "Material__8158",
      "pbrMetallicRoughness": {
        "baseColorTexture": {
          "index": 8
        },
        "baseColorFactor": [
          1,
          1,
          1,
          1
        ],
        "metallicFactor": 0,
        "roughnessFactor": 0.99
      },
      "emissiveFactor": [
        0,
        0,
        0
      ],
      "alphaMode": "OPAQUE",
      "doubleSided": false
    },
    {
      "name": "Material__8143",
      "pbrMetallicRoughness": {
        "baseColorTexture": {
          "index": 9
        },
        "baseColorFactor": [
          1,
          1,
          1,
          1
        ],
        "metallicFactor": 0,
        "roughnessFactor": 0.99
      },
      "emissiveFactor": [
        0,
        0,
        0
      ],
      "alphaMode": "OPAQUE",
      "doubleSided": false
    }
  ],
  "meshes": [
    {
      "name": "Box003_1",
      "primitives": [
        {
          "attributes": {
            "POSITION": 0,
            "NORMAL": 1,
            "TEXCOORD_0": 2
          },
          "indices": 3,
          "material": 0,
          "mode": 4
        },
        {
          "attributes": {
            "POSITION": 4,
            "NORMAL": 5,
            "TEXCOORD_0": 6
          },
          "indices": 7,
          "material": 1,
          "mode": 4
        },
        {
          "attributes": {
            "POSITION": 8,
            "NORMAL": 9,
            "TEXCOORD_0": 10
          },
          "indices": 11,
          "material": 2,
          "mode": 4
        },
        {
          "attributes": {
            "POSITION": 12,
            "NORMAL": 13,
            "TEXCOORD_0": 14
          },
          "indices": 15,
          "material": 3,
          "mode": 4
        },
        {
          "attributes": {
            "POSITION": 16,
            "NORMAL": 17,
            "TEXCOORD_0": 18
          },
          "indices": 19,
          "material": 4,
          "mode": 4
        },
        {
          "attributes": {
            "POSITION": 20,
            "NORMAL": 21,
            "TEXCOORD_0": 22
          },
          "indices": 23,
          "material": 5,
          "mode": 4
        },
        {
          "attributes": {
            "POSITION": 24,
            "NORMAL": 25,
            "TEXCOORD_0": 26
          },
          "indices": 27,
          "material": 6,
          "mode": 4
        },
        {
          "attributes": {
            "POSITION": 28,
            "NORMAL": 29,
            "TEXCOORD_0": 30
          },
          "indices": 31,
          "material": 7,
          "mode": 4
        },
        {
          "attributes": {
            "POSITION": 32,
            "NORMAL": 33,
            "TEXCOORD_0": 34
          },
          "indices": 35,
          "material": 8,
          "mode": 4
        },
        {
          "attributes": {
            "POSITION": 36,
            "NORMAL": 37,
            "TEXCOORD_0": 38
          },
          "indices": 39,
          "material": 9,
          "mode": 4
        }
      ]
    }
  ],
  "nodes": [
    {
      "name": "Box003",
      "mesh": 0
    }
  ],
  "samplers": [
    {
      "wrapS": 10497,
      "wrapT": 10497
    }
  ],
  "scene": 0,
  "scenes": [
    {
      "nodes": [
        0
      ]
    }
  ],
  "textures": [
    {
      "name": "sgy_4q_23",
      "sampler": 0,
      "source": 0
    },
    {
      "name": "sgy_4q_26",
      "sampler": 0,
      "source": 1
    },
    {
      "name": "sgy_4q_20",
      "sampler": 0,
      "source": 2
    },
    {
      "name": "sgy_4q_22",
      "sampler": 0,
      "source": 3
    },
    {
      "name": "sgy_1q_08",
      "sampler": 0,
      "source": 4
    },
    {
      "name": "sgy_4q_31",
      "sampler": 0,
      "source": 5
    },
    {
      "name": "sgy_4q_30",
      "sampler": 0,
      "source": 6
    },
    {
      "name": "sgy_4q_28",
      "sampler": 0,
      "source": 7
    },
    {
      "name": "sgy_4q_29",
      "sampler": 0,
      "source": 8
    },
    {
      "name": "sgy_4q_27",
      "sampler": 0,
      "source": 9
    }
  ]
}
