{
  "accessors" : [ {
    "bufferView" : 0,
    "byteOffset" : 0,
    "componentType" : 5123,
    "count" : 11490,
    "type" : "SCALAR",
    "max" : [ 9000 ],
    "min" : [ 0 ]
  }, {
    "bufferView" : 1,
    "byteOffset" : 0,
    "componentType" : 5126,
    "count" : 9001,
    "type" : "VEC3",
    "max" : [ 28.8239, 27.4795, 17.3711 ],
    "min" : [ -28.8239, -27.4795, 9.0E-4 ]
  }, {
    "bufferView" : 2,
    "byteOffset" : 0,
    "componentType" : 5126,
    "count" : 9001,
    "type" : "VEC2",
    "max" : [ 4.0714, 3.1316 ],
    "min" : [ -3.0714, -2.1316 ]
  }, {
    "bufferView" : 3,
    "byteOffset" : 0,
    "componentType" : 5126,
    "count" : 9001,
    "type" : "VEC3",
    "max" : [ 1.0, 1.0, 1.0 ],
    "min" : [ -1.0, -1.0, -1.0 ]
  }, {
    "bufferView" : 4,
    "byteOffset" : 0,
    "componentType" : 5123,
    "count" : 1344,
    "type" : "SCALAR",
    "max" : [ 985 ],
    "min" : [ 0 ]
  }, {
    "bufferView" : 5,
    "byteOffset" : 0,
    "componentType" : 5126,
    "count" : 986,
    "type" : "VEC3",
    "max" : [ 28.8239, 26.662, 7.4596 ],
    "min" : [ -27.9401, -27.4795, 0.0 ]
  }, {
    "bufferView" : 6,
    "byteOffset" : 0,
    "componentType" : 5126,
    "count" : 986,
    "type" : "VEC2",
    "max" : [ 2.658, 9.1367 ],
    "min" : [ -2.4476, -7.0052996 ]
  }, {
    "bufferView" : 7,
    "byteOffset" : 0,
    "componentType" : 5126,
    "count" : 986,
    "type" : "VEC3",
    "max" : [ 1.0, 1.0, 0.9953855 ],
    "min" : [ -1.0, -1.0, -0.9998998 ]
  }, {
    "bufferView" : 8,
    "byteOffset" : 0,
    "componentType" : 5123,
    "count" : 360,
    "type" : "SCALAR",
    "max" : [ 291 ],
    "min" : [ 0 ]
  }, {
    "bufferView" : 9,
    "byteOffset" : 0,
    "componentType" : 5126,
    "count" : 292,
    "type" : "VEC3",
    "max" : [ 0.6665, 10.7033, 6.4411 ],
    "min" : [ -5.1368, 6.2469, 0.001 ]
  }, {
    "bufferView" : 10,
    "byteOffset" : 0,
    "componentType" : 5126,
    "count" : 292,
    "type" : "VEC2",
    "max" : [ 1.4615, 1.2042 ],
    "min" : [ -0.4615, -0.20420003 ]
  }, {
    "bufferView" : 11,
    "byteOffset" : 0,
    "componentType" : 5126,
    "count" : 292,
    "type" : "VEC3",
    "max" : [ 1.0, 1.0, 1.0 ],
    "min" : [ -1.0, -1.0, -1.0 ]
  }, {
    "bufferView" : 12,
    "byteOffset" : 0,
    "componentType" : 5123,
    "count" : 690,
    "type" : "SCALAR",
    "max" : [ 463 ],
    "min" : [ 0 ]
  }, {
    "bufferView" : 13,
    "byteOffset" : 0,
    "componentType" : 5126,
    "count" : 464,
    "type" : "VEC3",
    "max" : [ 28.5779, 26.4508, 10.8919 ],
    "min" : [ -27.8001, -27.2525, 1.0166 ]
  }, {
    "bufferView" : 14,
    "byteOffset" : 0,
    "componentType" : 5126,
    "count" : 464,
    "type" : "VEC2",
    "max" : [ 1.0, 1.0 ],
    "min" : [ -0.0, 0.0 ]
  }, {
    "bufferView" : 15,
    "byteOffset" : 0,
    "componentType" : 5126,
    "count" : 464,
    "type" : "VEC3",
    "max" : [ 1.0, 1.0, 0.0 ],
    "min" : [ -1.0, -1.0, -0.0 ]
  }, {
    "bufferView" : 16,
    "byteOffset" : 0,
    "componentType" : 5123,
    "count" : 114,
    "type" : "SCALAR",
    "max" : [ 95 ],
    "min" : [ 0 ]
  }, {
    "bufferView" : 17,
    "byteOffset" : 0,
    "componentType" : 5126,
    "count" : 96,
    "type" : "VEC3",
    "max" : [ 15.0569, 11.01, 5.531 ],
    "min" : [ -4.2112, -16.691, 0.001 ]
  }, {
    "bufferView" : 18,
    "byteOffset" : 0,
    "componentType" : 5126,
    "count" : 96,
    "type" : "VEC2",
    "max" : [ 1.0, 1.0 ],
    "min" : [ 0.0, 0.04250002 ]
  }, {
    "bufferView" : 19,
    "byteOffset" : 0,
    "componentType" : 5126,
    "count" : 96,
    "type" : "VEC3",
    "max" : [ 0.9779559, 1.0, 1.0 ],
    "min" : [ -0.9779559, -1.0, -1.0 ]
  }, {
    "bufferView" : 20,
    "byteOffset" : 0,
    "componentType" : 5123,
    "count" : 198,
    "type" : "SCALAR",
    "max" : [ 186 ],
    "min" : [ 0 ]
  }, {
    "bufferView" : 21,
    "byteOffset" : 0,
    "componentType" : 5126,
    "count" : 187,
    "type" : "VEC3",
    "max" : [ -10.2768, 27.4795, 17.7649 ],
    "min" : [ -28.8239, 2.904, 11.9552 ]
  }, {
    "bufferView" : 22,
    "byteOffset" : 0,
    "componentType" : 5126,
    "count" : 187,
    "type" : "VEC2",
    "max" : [ 2.294, 1.9652 ],
    "min" : [ -1.294, -0.98010004 ]
  }, {
    "bufferView" : 23,
    "byteOffset" : 0,
    "componentType" : 5126,
    "count" : 187,
    "type" : "VEC3",
    "max" : [ 0.9707977, 0.9999999, 1.0 ],
    "min" : [ -0.8606357, -0.9684247, -4.9999997E-4 ]
  }, {
    "bufferView" : 24,
    "byteOffset" : 0,
    "componentType" : 5123,
    "count" : 30,
    "type" : "SCALAR",
    "max" : [ 29 ],
    "min" : [ 0 ]
  }, {
    "bufferView" : 25,
    "byteOffset" : 0,
    "componentType" : 5126,
    "count" : 30,
    "type" : "VEC3",
    "max" : [ -10.9486, -5.4256, 3.635 ],
    "min" : [ -10.9486, -17.8808, 3.0297 ]
  }, {
    "bufferView" : 26,
    "byteOffset" : 0,
    "componentType" : 5126,
    "count" : 30,
    "type" : "VEC2",
    "max" : [ 1.0, 1.0 ],
    "min" : [ 0.0, 0.0 ]
  }, {
    "bufferView" : 27,
    "byteOffset" : 0,
    "componentType" : 5126,
    "count" : 30,
    "type" : "VEC3",
    "max" : [ 1.0, 0.0, -1.0E-4 ],
    "min" : [ 1.0, -0.0, -1.0E-4 ]
  } ],
  "asset" : {
    "generator" : "JglTF from https://github.com/javagl/JglTF",
    "version" : "2.0"
  },
  "buffers" : [ {
    "uri" : "buffer.bin",
    "byteLength" : 382244
  } ],
  "bufferViews" : [ {
    "buffer" : 0,
    "byteOffset" : 0,
    "byteLength" : 22980,
    "target" : 34963
  }, {
    "buffer" : 0,
    "byteOffset" : 22980,
    "byteLength" : 108012,
    "target" : 34962
  }, {
    "buffer" : 0,
    "byteOffset" : 130992,
    "byteLength" : 72008,
    "target" : 34962
  }, {
    "buffer" : 0,
    "byteOffset" : 203000,
    "byteLength" : 108012,
    "target" : 34962
  }, {
    "buffer" : 0,
    "byteOffset" : 311012,
    "byteLength" : 2688,
    "target" : 34963
  }, {
    "buffer" : 0,
    "byteOffset" : 313700,
    "byteLength" : 11832,
    "target" : 34962
  }, {
    "buffer" : 0,
    "byteOffset" : 325532,
    "byteLength" : 7888,
    "target" : 34962
  }, {
    "buffer" : 0,
    "byteOffset" : 333420,
    "byteLength" : 11832,
    "target" : 34962
  }, {
    "buffer" : 0,
    "byteOffset" : 345252,
    "byteLength" : 720,
    "target" : 34963
  }, {
    "buffer" : 0,
    "byteOffset" : 345972,
    "byteLength" : 3504,
    "target" : 34962
  }, {
    "buffer" : 0,
    "byteOffset" : 349476,
    "byteLength" : 2336,
    "target" : 34962
  }, {
    "buffer" : 0,
    "byteOffset" : 351812,
    "byteLength" : 3504,
    "target" : 34962
  }, {
    "buffer" : 0,
    "byteOffset" : 355316,
    "byteLength" : 1380,
    "target" : 34963
  }, {
    "buffer" : 0,
    "byteOffset" : 356696,
    "byteLength" : 5568,
    "target" : 34962
  }, {
    "buffer" : 0,
    "byteOffset" : 362264,
    "byteLength" : 3712,
    "target" : 34962
  }, {
    "buffer" : 0,
    "byteOffset" : 365976,
    "byteLength" : 5568,
    "target" : 34962
  }, {
    "buffer" : 0,
    "byteOffset" : 371544,
    "byteLength" : 228,
    "target" : 34963
  }, {
    "buffer" : 0,
    "byteOffset" : 371772,
    "byteLength" : 1152,
    "target" : 34962
  }, {
    "buffer" : 0,
    "byteOffset" : 372924,
    "byteLength" : 768,
    "target" : 34962
  }, {
    "buffer" : 0,
    "byteOffset" : 373692,
    "byteLength" : 1152,
    "target" : 34962
  }, {
    "buffer" : 0,
    "byteOffset" : 374844,
    "byteLength" : 396,
    "target" : 34963
  }, {
    "buffer" : 0,
    "byteOffset" : 375240,
    "byteLength" : 2244,
    "target" : 34962
  }, {
    "buffer" : 0,
    "byteOffset" : 377484,
    "byteLength" : 1496,
    "target" : 34962
  }, {
    "buffer" : 0,
    "byteOffset" : 378980,
    "byteLength" : 2244,
    "target" : 34962
  }, {
    "buffer" : 0,
    "byteOffset" : 381224,
    "byteLength" : 60,
    "target" : 34963
  }, {
    "buffer" : 0,
    "byteOffset" : 381284,
    "byteLength" : 360,
    "target" : 34962
  }, {
    "buffer" : 0,
    "byteOffset" : 381644,
    "byteLength" : 240,
    "target" : 34962
  }, {
    "buffer" : 0,
    "byteOffset" : 381884,
    "byteLength" : 360,
    "target" : 34962
  } ],
  "images" : [ {
    "uri" : "SGY_q1_L174.jpg",
    "mimeType" : "image/jpeg"
  }, {
    "uri" : "SGY_q1_177.jpg",
    "mimeType" : "image/jpeg"
  }, {
    "uri" : "SGY_Q1_005.jpg",
    "mimeType" : "image/jpeg"
  }, {
    "uri" : "SGY_q1_175.jpg",
    "mimeType" : "image/jpeg"
  }, {
    "uri" : "SGY_q1_176.jpg",
    "mimeType" : "image/jpeg"
  }, {
    "uri" : "sgy_2q_29.jpg",
    "mimeType" : "image/jpeg"
  }, {
    "uri" : "SGY_q1_178.jpg",
    "mimeType" : "image/jpeg"
  } ],
  "materials" : [ {
    "pbrMetallicRoughness" : {
      "baseColorFactor" : [ 1.0, 1.0, 1.0, 1.0 ],
      "baseColorTexture" : {
        "index" : 0
      },
      "metallicFactor" : 0.0,
      "roughnessFactor" : 1.0
    },
    "alphaMode" : "OPAQUE",
    "doubleSided" : true
  }, {
    "pbrMetallicRoughness" : {
      "baseColorFactor" : [ 1.0, 1.0, 1.0, 1.0 ],
      "baseColorTexture" : {
        "index" : 1
      },
      "metallicFactor" : 0.0,
      "roughnessFactor" : 1.0
    },
    "alphaMode" : "OPAQUE",
    "doubleSided" : true
  }, {
    "pbrMetallicRoughness" : {
      "baseColorFactor" : [ 1.0, 1.0, 1.0, 1.0 ],
      "baseColorTexture" : {
        "index" : 2
      },
      "metallicFactor" : 0.0,
      "roughnessFactor" : 1.0
    },
    "alphaMode" : "OPAQUE",
    "doubleSided" : true
  }, {
    "pbrMetallicRoughness" : {
      "baseColorFactor" : [ 1.0, 1.0, 1.0, 1.0 ],
      "baseColorTexture" : {
        "index" : 3
      },
      "metallicFactor" : 0.0,
      "roughnessFactor" : 1.0
    },
    "alphaMode" : "OPAQUE",
    "doubleSided" : true
  }, {
    "pbrMetallicRoughness" : {
      "baseColorFactor" : [ 1.0, 1.0, 1.0, 1.0 ],
      "baseColorTexture" : {
        "index" : 4
      },
      "metallicFactor" : 0.0,
      "roughnessFactor" : 1.0
    },
    "alphaMode" : "OPAQUE",
    "doubleSided" : true
  }, {
    "pbrMetallicRoughness" : {
      "baseColorFactor" : [ 1.0, 1.0, 1.0, 1.0 ],
      "baseColorTexture" : {
        "index" : 5
      },
      "metallicFactor" : 0.0,
      "roughnessFactor" : 1.0
    },
    "alphaMode" : "OPAQUE",
    "doubleSided" : true
  }, {
    "pbrMetallicRoughness" : {
      "baseColorFactor" : [ 1.0, 1.0, 1.0, 1.0 ],
      "baseColorTexture" : {
        "index" : 6
      },
      "metallicFactor" : 0.0,
      "roughnessFactor" : 1.0
    },
    "alphaMode" : "OPAQUE",
    "doubleSided" : true
  } ],
  "meshes" : [ {
    "primitives" : [ {
      "attributes" : {
        "POSITION" : 1,
        "TEXCOORD_0" : 2,
        "NORMAL" : 3
      },
      "indices" : 0,
      "material" : 0,
      "mode" : 4
    }, {
      "attributes" : {
        "POSITION" : 5,
        "TEXCOORD_0" : 6,
        "NORMAL" : 7
      },
      "indices" : 4,
      "material" : 1,
      "mode" : 4
    }, {
      "attributes" : {
        "POSITION" : 9,
        "TEXCOORD_0" : 10,
        "NORMAL" : 11
      },
      "indices" : 8,
      "material" : 2,
      "mode" : 4
    }, {
      "attributes" : {
        "POSITION" : 13,
        "TEXCOORD_0" : 14,
        "NORMAL" : 15
      },
      "indices" : 12,
      "material" : 3,
      "mode" : 4
    }, {
      "attributes" : {
        "POSITION" : 17,
        "TEXCOORD_0" : 18,
        "NORMAL" : 19
      },
      "indices" : 16,
      "material" : 4,
      "mode" : 4
    }, {
      "attributes" : {
        "POSITION" : 21,
        "TEXCOORD_0" : 22,
        "NORMAL" : 23
      },
      "indices" : 20,
      "material" : 5,
      "mode" : 4
    }, {
      "attributes" : {
        "POSITION" : 25,
        "TEXCOORD_0" : 26,
        "NORMAL" : 27
      },
      "indices" : 24,
      "material" : 6,
      "mode" : 4
    } ]
  } ],
  "nodes" : [ {
    "mesh" : 0
  } ],
  "samplers" : [ { } ],
  "scene" : 0,
  "scenes" : [ {
    "nodes" : [ 0 ]
  } ],
  "textures" : [ {
    "sampler" : 0,
    "source" : 0
  }, {
    "sampler" : 0,
    "source" : 1
  }, {
    "sampler" : 0,
    "source" : 2
  }, {
    "sampler" : 0,
    "source" : 3
  }, {
    "sampler" : 0,
    "source" : 4
  }, {
    "sampler" : 0,
    "source" : 5
  }, {
    "sampler" : 0,
    "source" : 6
  } ]
}