{
  "accessors" : [ {
    "bufferView" : 0,
    "byteOffset" : 0,
    "componentType" : 5123,
    "count" : 279,
    "type" : "SCALAR",
    "max" : [ 269 ],
    "min" : [ 0 ]
  }, {
    "bufferView" : 1,
    "byteOffset" : 0,
    "componentType" : 5126,
    "count" : 270,
    "type" : "VEC3",
    "max" : [ 28.331, 39.6346, 49.2794 ],
    "min" : [ -28.331, -38.216, 0.4217 ]
  }, {
    "bufferView" : 2,
    "byteOffset" : 0,
    "componentType" : 5126,
    "count" : 270,
    "type" : "VEC2",
    "max" : [ 2.986, 1.0 ],
    "min" : [ -1.9036, 0.0 ]
  }, {
    "bufferView" : 3,
    "byteOffset" : 0,
    "componentType" : 5126,
    "count" : 270,
    "type" : "VEC3",
    "max" : [ 1.0, 1.0, 1.0 ],
    "min" : [ -1.0, -1.0, -1.0 ]
  }, {
    "bufferView" : 4,
    "byteOffset" : 0,
    "componentType" : 5123,
    "count" : 453,
    "type" : "SCALAR",
    "max" : [ 327 ],
    "min" : [ 0 ]
  }, {
    "bufferView" : 5,
    "byteOffset" : 0,
    "componentType" : 5126,
    "count" : 328,
    "type" : "VEC3",
    "max" : [ 28.331, 39.6346, 49.2794 ],
    "min" : [ -22.607, -38.216, 8.3903 ]
  }, {
    "bufferView" : 6,
    "byteOffset" : 0,
    "componentType" : 5126,
    "count" : 328,
    "type" : "VEC2",
    "max" : [ 3.3264, 1.0 ],
    "min" : [ -2.3264, 0.0 ]
  }, {
    "bufferView" : 7,
    "byteOffset" : 0,
    "componentType" : 5126,
    "count" : 328,
    "type" : "VEC3",
    "max" : [ 1.0, 1.0, 1.0 ],
    "min" : [ -1.0, -1.0, -0.0 ]
  }, {
    "bufferView" : 8,
    "byteOffset" : 0,
    "componentType" : 5123,
    "count" : 144,
    "type" : "SCALAR",
    "max" : [ 87 ],
    "min" : [ 0 ]
  }, {
    "bufferView" : 9,
    "byteOffset" : 0,
    "componentType" : 5126,
    "count" : 88,
    "type" : "VEC3",
    "max" : [ 28.331, 39.6346, 48.285 ],
    "min" : [ -22.607, -38.216, 12.3747 ]
  }, {
    "bufferView" : 10,
    "byteOffset" : 0,
    "componentType" : 5126,
    "count" : 88,
    "type" : "VEC2",
    "max" : [ 5.4185, 4.547 ],
    "min" : [ -4.4185, -3.547 ]
  }, {
    "bufferView" : 11,
    "byteOffset" : 0,
    "componentType" : 5126,
    "count" : 88,
    "type" : "VEC3",
    "max" : [ 1.0, 1.0, 1.0 ],
    "min" : [ -1.0, -1.0, 0.0 ]
  }, {
    "bufferView" : 12,
    "byteOffset" : 0,
    "componentType" : 5123,
    "count" : 6,
    "type" : "SCALAR",
    "max" : [ 4 ],
    "min" : [ 0 ]
  }, {
    "bufferView" : 13,
    "byteOffset" : 0,
    "componentType" : 5126,
    "count" : 5,
    "type" : "VEC3",
    "max" : [ 6.5392, -4.8784, 8.3904 ],
    "min" : [ -28.331, -4.8784, 0.4217 ]
  }, {
    "bufferView" : 14,
    "byteOffset" : 0,
    "componentType" : 5126,
    "count" : 5,
    "type" : "VEC2",
    "max" : [ 3.2838, 0.9549 ],
    "min" : [ -1.6253, -0.045099974 ]
  }, {
    "bufferView" : 15,
    "byteOffset" : 0,
    "componentType" : 5126,
    "count" : 5,
    "type" : "VEC3",
    "max" : [ 0.0, -1.0, 0.0 ],
    "min" : [ 0.0, -1.0, 0.0 ]
  }, {
    "bufferView" : 16,
    "byteOffset" : 0,
    "componentType" : 5123,
    "count" : 114,
    "type" : "SCALAR",
    "max" : [ 71 ],
    "min" : [ 0 ]
  }, {
    "bufferView" : 17,
    "byteOffset" : 0,
    "componentType" : 5126,
    "count" : 72,
    "type" : "VEC3",
    "max" : [ 28.331, 39.6346, 49.2794 ],
    "min" : [ -4.5673, -29.0438, 17.2794 ]
  }, {
    "bufferView" : 18,
    "byteOffset" : 0,
    "componentType" : 5126,
    "count" : 72,
    "type" : "VEC2",
    "max" : [ 1.6628, 1.0 ],
    "min" : [ -0.1667, 0.0 ]
  }, {
    "bufferView" : 19,
    "byteOffset" : 0,
    "componentType" : 5126,
    "count" : 72,
    "type" : "VEC3",
    "max" : [ 1.0, 1.0, 0.0 ],
    "min" : [ -1.0, 0.0, -0.0 ]
  }, {
    "bufferView" : 20,
    "byteOffset" : 0,
    "componentType" : 5123,
    "count" : 60,
    "type" : "SCALAR",
    "max" : [ 36 ],
    "min" : [ 0 ]
  }, {
    "bufferView" : 21,
    "byteOffset" : 0,
    "componentType" : 5126,
    "count" : 37,
    "type" : "VEC3",
    "max" : [ 16.5853, 28.1304, 49.2794 ],
    "min" : [ -21.2626, -36.8716, 17.2794 ]
  }, {
    "bufferView" : 22,
    "byteOffset" : 0,
    "componentType" : 5126,
    "count" : 37,
    "type" : "VEC2",
    "max" : [ 1.1725, 1.0 ],
    "min" : [ -0.1725, 0.0 ]
  }, {
    "bufferView" : 23,
    "byteOffset" : 0,
    "componentType" : 5126,
    "count" : 37,
    "type" : "VEC3",
    "max" : [ 1.0, 1.0, 0.0 ],
    "min" : [ -1.0, -1.0, -0.0 ]
  }, {
    "bufferView" : 24,
    "byteOffset" : 0,
    "componentType" : 5123,
    "count" : 366,
    "type" : "SCALAR",
    "max" : [ 301 ],
    "min" : [ 0 ]
  }, {
    "bufferView" : 25,
    "byteOffset" : 0,
    "componentType" : 5126,
    "count" : 302,
    "type" : "VEC3",
    "max" : [ 28.331, 39.6346, 49.2794 ],
    "min" : [ -22.607, -38.216, 17.2794 ]
  }, {
    "bufferView" : 26,
    "byteOffset" : 0,
    "componentType" : 5126,
    "count" : 302,
    "type" : "VEC2",
    "max" : [ 1.0, 1.0 ],
    "min" : [ -0.0, 0.0 ]
  }, {
    "bufferView" : 27,
    "byteOffset" : 0,
    "componentType" : 5126,
    "count" : 302,
    "type" : "VEC3",
    "max" : [ 1.0, 1.0, 1.0 ],
    "min" : [ -1.0, -1.0, -1.0 ]
  }, {
    "bufferView" : 28,
    "byteOffset" : 0,
    "componentType" : 5123,
    "count" : 90,
    "type" : "SCALAR",
    "max" : [ 68 ],
    "min" : [ 0 ]
  }, {
    "bufferView" : 29,
    "byteOffset" : 0,
    "componentType" : 5126,
    "count" : 69,
    "type" : "VEC3",
    "max" : [ 28.331, 39.6346, 49.2794 ],
    "min" : [ -8.0339, -38.216, 17.2794 ]
  }, {
    "bufferView" : 30,
    "byteOffset" : 0,
    "componentType" : 5126,
    "count" : 69,
    "type" : "VEC2",
    "max" : [ 0.9202, 1.0 ],
    "min" : [ 0.0798, 0.0 ]
  }, {
    "bufferView" : 31,
    "byteOffset" : 0,
    "componentType" : 5126,
    "count" : 69,
    "type" : "VEC3",
    "max" : [ 1.0, 1.0, 0.0 ],
    "min" : [ -1.0, -1.0, -0.0 ]
  }, {
    "bufferView" : 32,
    "byteOffset" : 0,
    "componentType" : 5123,
    "count" : 276,
    "type" : "SCALAR",
    "max" : [ 240 ],
    "min" : [ 0 ]
  }, {
    "bufferView" : 33,
    "byteOffset" : 0,
    "componentType" : 5126,
    "count" : 241,
    "type" : "VEC3",
    "max" : [ 28.331, 39.6346, 49.2794 ],
    "min" : [ -22.607, -39.6346, 8.3903 ]
  }, {
    "bufferView" : 34,
    "byteOffset" : 0,
    "componentType" : 5126,
    "count" : 241,
    "type" : "VEC2",
    "max" : [ 0.5704, 1.0 ],
    "min" : [ 0.4296, 0.0 ]
  }, {
    "bufferView" : 35,
    "byteOffset" : 0,
    "componentType" : 5126,
    "count" : 241,
    "type" : "VEC3",
    "max" : [ 1.0, 1.0, 1.0 ],
    "min" : [ -1.0, -1.0, -1.0E-4 ]
  }, {
    "bufferView" : 36,
    "byteOffset" : 0,
    "componentType" : 5123,
    "count" : 150,
    "type" : "SCALAR",
    "max" : [ 116 ],
    "min" : [ 0 ]
  }, {
    "bufferView" : 37,
    "byteOffset" : 0,
    "componentType" : 5126,
    "count" : 117,
    "type" : "VEC3",
    "max" : [ 28.331, -38.216, 10.281 ],
    "min" : [ -7.0E-4, -39.6346, 0.0 ]
  }, {
    "bufferView" : 38,
    "byteOffset" : 0,
    "componentType" : 5126,
    "count" : 117,
    "type" : "VEC2",
    "max" : [ 1.0, 1.0 ],
    "min" : [ -0.0729, 0.0 ]
  }, {
    "bufferView" : 39,
    "byteOffset" : 0,
    "componentType" : 5126,
    "count" : 117,
    "type" : "VEC3",
    "max" : [ 1.0, 0.0, 0.0 ],
    "min" : [ -1.0, -1.0, -1.0 ]
  } ],
  "asset" : {
    "generator" : "JglTF from https://github.com/javagl/JglTF",
    "version" : "2.0"
  },
  "buffers" : [ {
    "uri" : "buffer.bin",
    "byteLength" : 52808
  } ],
  "bufferViews" : [ {
    "buffer" : 0,
    "byteOffset" : 0,
    "byteLength" : 558,
    "target" : 34963
  }, {
    "buffer" : 0,
    "byteOffset" : 560,
    "byteLength" : 3240,
    "target" : 34962
  }, {
    "buffer" : 0,
    "byteOffset" : 3800,
    "byteLength" : 2160,
    "target" : 34962
  }, {
    "buffer" : 0,
    "byteOffset" : 5960,
    "byteLength" : 3240,
    "target" : 34962
  }, {
    "buffer" : 0,
    "byteOffset" : 9200,
    "byteLength" : 906,
    "target" : 34963
  }, {
    "buffer" : 0,
    "byteOffset" : 10108,
    "byteLength" : 3936,
    "target" : 34962
  }, {
    "buffer" : 0,
    "byteOffset" : 14044,
    "byteLength" : 2624,
    "target" : 34962
  }, {
    "buffer" : 0,
    "byteOffset" : 16668,
    "byteLength" : 3936,
    "target" : 34962
  }, {
    "buffer" : 0,
    "byteOffset" : 20604,
    "byteLength" : 288,
    "target" : 34963
  }, {
    "buffer" : 0,
    "byteOffset" : 20892,
    "byteLength" : 1056,
    "target" : 34962
  }, {
    "buffer" : 0,
    "byteOffset" : 21948,
    "byteLength" : 704,
    "target" : 34962
  }, {
    "buffer" : 0,
    "byteOffset" : 22652,
    "byteLength" : 1056,
    "target" : 34962
  }, {
    "buffer" : 0,
    "byteOffset" : 23708,
    "byteLength" : 12,
    "target" : 34963
  }, {
    "buffer" : 0,
    "byteOffset" : 23720,
    "byteLength" : 60,
    "target" : 34962
  }, {
    "buffer" : 0,
    "byteOffset" : 23780,
    "byteLength" : 40,
    "target" : 34962
  }, {
    "buffer" : 0,
    "byteOffset" : 23820,
    "byteLength" : 60,
    "target" : 34962
  }, {
    "buffer" : 0,
    "byteOffset" : 23880,
    "byteLength" : 228,
    "target" : 34963
  }, {
    "buffer" : 0,
    "byteOffset" : 24108,
    "byteLength" : 864,
    "target" : 34962
  }, {
    "buffer" : 0,
    "byteOffset" : 24972,
    "byteLength" : 576,
    "target" : 34962
  }, {
    "buffer" : 0,
    "byteOffset" : 25548,
    "byteLength" : 864,
    "target" : 34962
  }, {
    "buffer" : 0,
    "byteOffset" : 26412,
    "byteLength" : 120,
    "target" : 34963
  }, {
    "buffer" : 0,
    "byteOffset" : 26532,
    "byteLength" : 444,
    "target" : 34962
  }, {
    "buffer" : 0,
    "byteOffset" : 26976,
    "byteLength" : 296,
    "target" : 34962
  }, {
    "buffer" : 0,
    "byteOffset" : 27272,
    "byteLength" : 444,
    "target" : 34962
  }, {
    "buffer" : 0,
    "byteOffset" : 27716,
    "byteLength" : 732,
    "target" : 34963
  }, {
    "buffer" : 0,
    "byteOffset" : 28448,
    "byteLength" : 3624,
    "target" : 34962
  }, {
    "buffer" : 0,
    "byteOffset" : 32072,
    "byteLength" : 2416,
    "target" : 34962
  }, {
    "buffer" : 0,
    "byteOffset" : 34488,
    "byteLength" : 3624,
    "target" : 34962
  }, {
    "buffer" : 0,
    "byteOffset" : 38112,
    "byteLength" : 180,
    "target" : 34963
  }, {
    "buffer" : 0,
    "byteOffset" : 38292,
    "byteLength" : 828,
    "target" : 34962
  }, {
    "buffer" : 0,
    "byteOffset" : 39120,
    "byteLength" : 552,
    "target" : 34962
  }, {
    "buffer" : 0,
    "byteOffset" : 39672,
    "byteLength" : 828,
    "target" : 34962
  }, {
    "buffer" : 0,
    "byteOffset" : 40500,
    "byteLength" : 552,
    "target" : 34963
  }, {
    "buffer" : 0,
    "byteOffset" : 41052,
    "byteLength" : 2892,
    "target" : 34962
  }, {
    "buffer" : 0,
    "byteOffset" : 43944,
    "byteLength" : 1928,
    "target" : 34962
  }, {
    "buffer" : 0,
    "byteOffset" : 45872,
    "byteLength" : 2892,
    "target" : 34962
  }, {
    "buffer" : 0,
    "byteOffset" : 48764,
    "byteLength" : 300,
    "target" : 34963
  }, {
    "buffer" : 0,
    "byteOffset" : 49064,
    "byteLength" : 1404,
    "target" : 34962
  }, {
    "buffer" : 0,
    "byteOffset" : 50468,
    "byteLength" : 936,
    "target" : 34962
  }, {
    "buffer" : 0,
    "byteOffset" : 51404,
    "byteLength" : 1404,
    "target" : 34962
  } ],
  "images" : [ {
    "uri" : "SGY_c09.jpg",
    "mimeType" : "image/jpeg"
  }, {
    "uri" : "SGY_c08.jpg",
    "mimeType" : "image/jpeg"
  }, {
    "uri" : "SG_SJS08.jpg",
    "mimeType" : "image/jpeg"
  }, {
    "uri" : "sgy_3q_17.jpg",
    "mimeType" : "image/jpeg"
  }, {
    "uri" : "SGY_c04.jpg",
    "mimeType" : "image/jpeg"
  }, {
    "uri" : "SGY_A01jpg.jpg",
    "mimeType" : "image/jpeg"
  }, {
    "uri" : "SGY034_004.jpg",
    "mimeType" : "image/jpeg"
  }, {
    "uri" : "SGY_H15.jpg",
    "mimeType" : "image/jpeg"
  }, {
    "uri" : "SGY034_005.jpg",
    "mimeType" : "image/jpeg"
  } ],
  "materials" : [ {
    "pbrMetallicRoughness" : {
      "baseColorFactor" : [ 1.0, 1.0, 1.0, 1.0 ],
      "baseColorTexture" : {
        "index" : 0
      },
      "metallicFactor" : 0.0,
      "roughnessFactor" : 1.0
    },
    "alphaMode" : "OPAQUE",
    "doubleSided" : true
  }, {
    "pbrMetallicRoughness" : {
      "baseColorFactor" : [ 1.0, 1.0, 1.0, 1.0 ],
      "baseColorTexture" : {
        "index" : 1
      },
      "metallicFactor" : 0.0,
      "roughnessFactor" : 1.0
    },
    "alphaMode" : "OPAQUE",
    "doubleSided" : true
  }, {
    "pbrMetallicRoughness" : {
      "baseColorFactor" : [ 1.0, 1.0, 1.0, 1.0 ],
      "baseColorTexture" : {
        "index" : 2
      },
      "metallicFactor" : 0.0,
      "roughnessFactor" : 1.0
    },
    "alphaMode" : "OPAQUE",
    "doubleSided" : true
  }, {
    "pbrMetallicRoughness" : {
      "baseColorFactor" : [ 1.0, 1.0, 1.0, 1.0 ],
      "baseColorTexture" : {
        "index" : 3
      },
      "metallicFactor" : 0.0,
      "roughnessFactor" : 1.0
    },
    "alphaMode" : "OPAQUE",
    "doubleSided" : true
  }, {
    "pbrMetallicRoughness" : {
      "baseColorFactor" : [ 1.0, 1.0, 1.0, 1.0 ],
      "baseColorTexture" : {
        "index" : 4
      },
      "metallicFactor" : 0.0,
      "roughnessFactor" : 1.0
    },
    "alphaMode" : "OPAQUE",
    "doubleSided" : true
  }, {
    "pbrMetallicRoughness" : {
      "baseColorFactor" : [ 1.0, 1.0, 1.0, 1.0 ],
      "baseColorTexture" : {
        "index" : 4
      },
      "metallicFactor" : 0.0,
      "roughnessFactor" : 1.0
    },
    "alphaMode" : "OPAQUE",
    "doubleSided" : true
  }, {
    "pbrMetallicRoughness" : {
      "baseColorFactor" : [ 1.0, 1.0, 1.0, 1.0 ],
      "baseColorTexture" : {
        "index" : 5
      },
      "metallicFactor" : 0.0,
      "roughnessFactor" : 1.0
    },
    "alphaMode" : "OPAQUE",
    "doubleSided" : true
  }, {
    "pbrMetallicRoughness" : {
      "baseColorFactor" : [ 1.0, 1.0, 1.0, 1.0 ],
      "baseColorTexture" : {
        "index" : 6
      },
      "metallicFactor" : 0.0,
      "roughnessFactor" : 1.0
    },
    "alphaMode" : "OPAQUE",
    "doubleSided" : true
  }, {
    "pbrMetallicRoughness" : {
      "baseColorFactor" : [ 1.0, 1.0, 1.0, 1.0 ],
      "baseColorTexture" : {
        "index" : 7
      },
      "metallicFactor" : 0.0,
      "roughnessFactor" : 1.0
    },
    "alphaMode" : "OPAQUE",
    "doubleSided" : true
  }, {
    "pbrMetallicRoughness" : {
      "baseColorFactor" : [ 1.0, 1.0, 1.0, 1.0 ],
      "baseColorTexture" : {
        "index" : 8
      },
      "metallicFactor" : 0.0,
      "roughnessFactor" : 1.0
    },
    "alphaMode" : "OPAQUE",
    "doubleSided" : true
  } ],
  "meshes" : [ {
    "primitives" : [ {
      "attributes" : {
        "POSITION" : 1,
        "TEXCOORD_0" : 2,
        "NORMAL" : 3
      },
      "indices" : 0,
      "material" : 0,
      "mode" : 4
    }, {
      "attributes" : {
        "POSITION" : 5,
        "TEXCOORD_0" : 6,
        "NORMAL" : 7
      },
      "indices" : 4,
      "material" : 1,
      "mode" : 4
    }, {
      "attributes" : {
        "POSITION" : 9,
        "TEXCOORD_0" : 10,
        "NORMAL" : 11
      },
      "indices" : 8,
      "material" : 2,
      "mode" : 4
    }, {
      "attributes" : {
        "POSITION" : 13,
        "TEXCOORD_0" : 14,
        "NORMAL" : 15
      },
      "indices" : 12,
      "material" : 3,
      "mode" : 4
    }, {
      "attributes" : {
        "POSITION" : 17,
        "TEXCOORD_0" : 18,
        "NORMAL" : 19
      },
      "indices" : 16,
      "material" : 4,
      "mode" : 4
    }, {
      "attributes" : {
        "POSITION" : 21,
        "TEXCOORD_0" : 22,
        "NORMAL" : 23
      },
      "indices" : 20,
      "material" : 5,
      "mode" : 4
    }, {
      "attributes" : {
        "POSITION" : 25,
        "TEXCOORD_0" : 26,
        "NORMAL" : 27
      },
      "indices" : 24,
      "material" : 6,
      "mode" : 4
    }, {
      "attributes" : {
        "POSITION" : 29,
        "TEXCOORD_0" : 30,
        "NORMAL" : 31
      },
      "indices" : 28,
      "material" : 7,
      "mode" : 4
    }, {
      "attributes" : {
        "POSITION" : 33,
        "TEXCOORD_0" : 34,
        "NORMAL" : 35
      },
      "indices" : 32,
      "material" : 8,
      "mode" : 4
    }, {
      "attributes" : {
        "POSITION" : 37,
        "TEXCOORD_0" : 38,
        "NORMAL" : 39
      },
      "indices" : 36,
      "material" : 9,
      "mode" : 4
    } ]
  } ],
  "nodes" : [ {
    "mesh" : 0
  } ],
  "samplers" : [ { } ],
  "scene" : 0,
  "scenes" : [ {
    "nodes" : [ 0 ]
  } ],
  "textures" : [ {
    "sampler" : 0,
    "source" : 0
  }, {
    "sampler" : 0,
    "source" : 1
  }, {
    "sampler" : 0,
    "source" : 2
  }, {
    "sampler" : 0,
    "source" : 3
  }, {
    "sampler" : 0,
    "source" : 4
  }, {
    "sampler" : 0,
    "source" : 5
  }, {
    "sampler" : 0,
    "source" : 6
  }, {
    "sampler" : 0,
    "source" : 7
  }, {
    "sampler" : 0,
    "source" : 8
  } ]
}