{
  "accessors": [
    {
      "name": "Box006_1_0_positions",
      "componentType": 5126,
      "count": 28,
      "min": [
        -15.330599784851074,
        -35.216800689697266,
        22.449800491333008
      ],
      "max": [
        15.330599784851074,
        35.216800689697266,
        24.604400634765625
      ],
      "type": "VEC3",
      "bufferView": 0,
      "byteOffset": 0
    },
    {
      "name": "Box006_1_0_normals",
      "componentType": 5126,
      "count": 28,
      "min": [
        -1,
        -1,
        0
      ],
      "max": [
        1,
        1,
        1
      ],
      "type": "VEC3",
      "bufferView": 1,
      "byteOffset": 0
    },
    {
      "name": "Box006_1_0_texcoords",
      "componentType": 5126,
      "count": 28,
      "min": [
        -1.5845999717712402,
        -1.5845999717712402
      ],
      "max": [
        2.5845999717712402,
        2.5845999717712402
      ],
      "type": "VEC2",
      "bufferView": 2,
      "byteOffset": 0
    },
    {
      "name": "Box006_1_0_indices",
      "componentType": 5123,
      "count": 54,
      "min": [
        0
      ],
      "max": [
        27
      ],
      "type": "SCALAR",
      "bufferView": 3,
      "byteOffset": 0
    },
    {
      "name": "Box006_1_1_positions",
      "componentType": 5126,
      "count": 16,
      "min": [
        -15.330599784851074,
        -35.216800689697266,
        0
      ],
      "max": [
        15.330599784851074,
        35.216800689697266,
        24.604400634765625
      ],
      "type": "VEC3",
      "bufferView": 0,
      "byteOffset": 336
    },
    {
      "name": "Box006_1_1_normals",
      "componentType": 5126,
      "count": 16,
      "min": [
        -1,
        -1,
        0
      ],
      "max": [
        1,
        1,
        0
      ],
      "type": "VEC3",
      "bufferView": 1,
      "byteOffset": 336
    },
    {
      "name": "Box006_1_1_texcoords",
      "componentType": 5126,
      "count": 16,
      "min": [
        -3.1117000579833984,
        -1.0963000059127808
      ],
      "max": [
        4.111700057983398,
        2.096299886703491
      ],
      "type": "VEC2",
      "bufferView": 2,
      "byteOffset": 224
    },
    {
      "name": "Box006_1_1_indices",
      "componentType": 5123,
      "count": 24,
      "min": [
        0
      ],
      "max": [
        15
      ],
      "type": "SCALAR",
      "bufferView": 3,
      "byteOffset": 108
    }
  ],
  "asset": {
    "generator": "obj2gltf",
    "version": "2.0"
  },
  "buffers": [
    {
      "name": "SG_jz12",
      "byteLength": 1564,
      "uri": "data:application/octet-stream;base64,"
    }
  ],
  "bufferViews": [
    {
      "name": "bufferView_0",
      "buffer": 0,
      "byteLength": 528,
      "byteOffset": 0,
      "byteStride": 12,
      "target": 34962
    },
    {
      "name": "bufferView_1",
      "buffer": 0,
      "byteLength": 528,
      "byteOffset": 528,
      "byteStride": 12,
      "target": 34962
    },
    {
      "name": "bufferView_2",
      "buffer": 0,
      "byteLength": 352,
      "byteOffset": 1056,
      "byteStride": 8,
      "target": 34962
    },
    {
      "name": "bufferView_3",
      "buffer": 0,
      "byteLength": 156,
      "byteOffset": 1408,
      "target": 34963
    }
  ],
  "images": [
    {
      "name": "sggf_01",
      "uri": "sggf_01.jpg"
    },
    {
      "name": "sgbq_0024",
      "uri": "sgbq_0024.jpg"
    }
  ],
  "materials": [
    {
      "name": "Material__538",
      "pbrMetallicRoughness": {
        "baseColorTexture": {
          "index": 0
        },
        "baseColorFactor": [
          1,
          1,
          1,
          1
        ],
        "metallicFactor": 0,
        "roughnessFactor": 0.99
      },
      "emissiveFactor": [
        0,
        0,
        0
      ],
      "alphaMode": "OPAQUE",
      "doubleSided": false
    },
    {
      "name": "Material__574",
      "pbrMetallicRoughness": {
        "baseColorTexture": {
          "index": 1
        },
        "baseColorFactor": [
          1,
          1,
          1,
          1
        ],
        "metallicFactor": 0,
        "roughnessFactor": 0.99
      },
      "emissiveFactor": [
        0,
        0,
        0
      ],
      "alphaMode": "OPAQUE",
      "doubleSided": false
    }
  ],
  "meshes": [
    {
      "name": "Box006_1",
      "primitives": [
        {
          "attributes": {
            "POSITION": 0,
            "NORMAL": 1,
            "TEXCOORD_0": 2
          },
          "indices": 3,
          "material": 0,
          "mode": 4
        },
        {
          "attributes": {
            "POSITION": 4,
            "NORMAL": 5,
            "TEXCOORD_0": 6
          },
          "indices": 7,
          "material": 1,
          "mode": 4
        }
      ]
    }
  ],
  "nodes": [
    {
      "name": "Box006",
      "mesh": 0
    }
  ],
  "samplers": [
    {
      "wrapS": 10497,
      "wrapT": 10497
    }
  ],
  "scene": 0,
  "scenes": [
    {
      "nodes": [
        0
      ]
    }
  ],
  "textures": [
    {
      "name": "sggf_01",
      "sampler": 0,
      "source": 0
    },
    {
      "name": "sgbq_0024",
      "sampler": 0,
      "source": 1
    }
  ]
}
