{"asset":{"version":"2.0","generator":"babylon.js glTF exporter for 3dsmax 2022 v20240125.3"},"scene":0,"scenes":[{"nodes":[0]}],"nodes":[{"mesh":0,"name":"Box012"}],"meshes":[{"primitives":[{"attributes":{"POSITION":1,"NORMAL":2,"TEXCOORD_0":3},"indices":0,"material":0},{"attributes":{"POSITION":5,"NORMAL":6,"TEXCOORD_0":7},"indices":4,"material":1},{"attributes":{"POSITION":9,"NORMAL":10,"TEXCOORD_0":11},"indices":8,"material":2}],"name":"Box012"}],"accessors":[{"bufferView":0,"componentType":5123,"count":432,"type":"SCALAR","name":"accessorIndices"},{"bufferView":1,"componentType":5126,"count":240,"max":[24.7095337,58.865303,59.9999771],"min":[-24.7095337,-58.865303,9.999981],"type":"VEC3","name":"accessorPositions"},{"bufferView":1,"byteOffset":2880,"componentType":5126,"count":240,"type":"VEC3","name":"accessorNormals"},{"bufferView":2,"componentType":5126,"count":240,"type":"VEC2","name":"accessorUVs"},{"bufferView":0,"byteOffset":864,"componentType":5123,"count":144,"type":"SCALAR","name":"accessorIndices"},{"bufferView":1,"byteOffset":5760,"componentType":5126,"count":96,"max":[24.7095337,58.865303,10.0],"min":[-24.7095337,-58.8652878,-1.93182677E-05],"type":"VEC3","name":"accessorPositions"},{"bufferView":1,"byteOffset":6912,"componentType":5126,"count":96,"type":"VEC3","name":"accessorNormals"},{"bufferView":2,"byteOffset":1920,"componentType":5126,"count":96,"type":"VEC2","name":"accessorUVs"},{"bufferView":0,"byteOffset":1152,"componentType":5123,"count":66,"type":"SCALAR","name":"accessorIndices"},{"bufferView":1,"byteOffset":8064,"componentType":5126,"count":33,"max":[23.7095337,57.8652954,58.3565674],"min":[-23.7095337,-57.8652954,58.3565445],"type":"VEC3","name":"accessorPositions"},{"bufferView":1,"byteOffset":8460,"componentType":5126,"count":33,"type":"VEC3","name":"accessorNormals"},{"bufferView":2,"byteOffset":2688,"componentType":5126,"count":33,"type":"VEC2","name":"accessorUVs"}],"bufferViews":[{"buffer":0,"byteLength":1284,"name":"bufferViewScalar"},{"buffer":0,"byteOffset":1284,"byteLength":8856,"byteStride":12,"name":"bufferViewFloatVec3"},{"buffer":0,"byteOffset":10140,"byteLength":2952,"byteStride":8,"name":"bufferViewFloatVec2"}],"buffers":[{"uri":"sgy_h3.bin","byteLength":13092}],"materials":[{"pbrMetallicRoughness":{"baseColorTexture":{"index":0},"metallicFactor":0.0,"roughnessFactor":0.450053632},"name":"Material #44752"},{"pbrMetallicRoughness":{"baseColorTexture":{"index":1},"metallicFactor":0.0,"roughnessFactor":0.450053632},"name":"Material #44753"},{"pbrMetallicRoughness":{"baseColorTexture":{"index":2},"metallicFactor":0.0,"roughnessFactor":0.450053632},"name":"Material #44788"}],"textures":[{"sampler":0,"source":0,"name":"xgy_x_013.jpg"},{"sampler":0,"source":1,"name":"sgy_3q_20.jpg"},{"sampler":0,"source":2,"name":"011.jpg"}],"images":[{"uri":"xgy_x_013.jpg"},{"uri":"sgy_3q_20.jpg"},{"uri":"011.jpg"}],"samplers":[{"magFilter":9729,"minFilter":9987}]}