{"asset":{"version":"2.0","generator":"babylon.js glTF exporter for 3dsmax 2022 v20240125.3"},"scene":0,"scenes":[{"nodes":[0]}],"nodes":[{"mesh":0,"rotation":[-8.742278E-08,0.0,0.0,1.0],"name":"Box001"}],"meshes":[{"primitives":[{"attributes":{"POSITION":1,"NORMAL":2,"TEXCOORD_0":3},"indices":0,"material":0},{"attributes":{"POSITION":5,"NORMAL":6,"TEXCOORD_0":7},"indices":4,"material":1},{"attributes":{"POSITION":9,"NORMAL":10,"TEXCOORD_0":11},"indices":8,"material":2},{"attributes":{"POSITION":13,"NORMAL":14,"TEXCOORD_0":15},"indices":12,"material":3},{"attributes":{"POSITION":17,"NORMAL":18,"TEXCOORD_0":19},"indices":16,"material":4},{"attributes":{"POSITION":21,"NORMAL":22,"TEXCOORD_0":23},"indices":20,"material":5},{"attributes":{"POSITION":25,"NORMAL":26,"TEXCOORD_0":27},"indices":24,"material":6},{"attributes":{"POSITION":29,"NORMAL":30,"TEXCOORD_0":31},"indices":28,"material":7},{"attributes":{"POSITION":33,"NORMAL":34,"TEXCOORD_0":35},"indices":32,"material":8}],"name":"Box001"}],"accessors":[{"bufferView":0,"componentType":5123,"count":24,"type":"SCALAR","name":"accessorIndices"},{"bufferView":1,"componentType":5126,"count":16,"max":[25.5875721,15.64951,20.7794743],"min":[-25.5875626,-15.6495132,-1.24788221E-05],"type":"VEC3","name":"accessorPositions"},{"bufferView":1,"byteOffset":192,"componentType":5126,"count":16,"type":"VEC3","name":"accessorNormals"},{"bufferView":2,"componentType":5126,"count":16,"type":"VEC2","name":"accessorUVs"},{"bufferView":0,"byteOffset":48,"componentType":5123,"count":12,"type":"SCALAR","name":"accessorIndices"},{"bufferView":1,"byteOffset":384,"componentType":5126,"count":6,"max":[25.5875721,-15.6495056,20.77947],"min":[-25.5875549,-15.6495132,10.3897181],"type":"VEC3","name":"accessorPositions"},{"bufferView":1,"byteOffset":456,"componentType":5126,"count":6,"type":"VEC3","name":"accessorNormals"},{"bufferView":2,"byteOffset":128,"componentType":5126,"count":6,"type":"VEC2","name":"accessorUVs"},{"bufferView":0,"byteOffset":72,"componentType":5123,"count":12,"type":"SCALAR","name":"accessorIndices"},{"bufferView":1,"byteOffset":528,"componentType":5126,"count":8,"max":[25.5875683,15.64951,20.7794743],"min":[-25.5875626,15.6495018,-8.873103E-06],"type":"VEC3","name":"accessorPositions"},{"bufferView":1,"byteOffset":624,"componentType":5126,"count":8,"type":"VEC3","name":"accessorNormals"},{"bufferView":2,"byteOffset":176,"componentType":5126,"count":8,"type":"VEC2","name":"accessorUVs"},{"bufferView":0,"byteOffset":96,"componentType":5123,"count":12,"type":"SCALAR","name":"accessorIndices"},{"bufferView":1,"byteOffset":720,"componentType":5126,"count":8,"max":[25.5875664,-15.6495047,10.389739],"min":[-25.5875587,-15.6495113,-1.24788221E-05],"type":"VEC3","name":"accessorPositions"},{"bufferView":1,"byteOffset":816,"componentType":5126,"count":8,"type":"VEC3","name":"accessorNormals"},{"bufferView":2,"byteOffset":240,"componentType":5126,"count":8,"type":"VEC2","name":"accessorUVs"},{"bufferView":0,"byteOffset":120,"componentType":5123,"count":6,"type":"SCALAR","name":"accessorIndices"},{"bufferView":1,"byteOffset":912,"componentType":5126,"count":4,"max":[10.7625446,-15.6495066,10.3897285],"min":[-0.219642743,-15.6495085,-6.29334045E-06],"type":"VEC3","name":"accessorPositions"},{"bufferView":1,"byteOffset":960,"componentType":5126,"count":4,"type":"VEC3","name":"accessorNormals"},{"bufferView":2,"byteOffset":304,"componentType":5126,"count":4,"type":"VEC2","name":"accessorUVs"},{"bufferView":0,"byteOffset":132,"componentType":5123,"count":24,"type":"SCALAR","name":"accessorIndices"},{"bufferView":1,"byteOffset":1008,"componentType":5126,"count":16,"max":[25.587574,21.1899471,21.3559914],"min":[-25.587553,-23.0394764,20.7794476],"type":"VEC3","name":"accessorPositions"},{"bufferView":1,"byteOffset":1200,"componentType":5126,"count":16,"type":"VEC3","name":"accessorNormals"},{"bufferView":2,"byteOffset":336,"componentType":5126,"count":16,"type":"VEC2","name":"accessorUVs"},{"bufferView":0,"byteOffset":180,"componentType":5123,"count":42,"type":"SCALAR","name":"accessorIndices"},{"bufferView":1,"byteOffset":1392,"componentType":5126,"count":26,"max":[25.587574,21.1899471,25.3121128],"min":[-25.587553,-23.0394764,20.7794476],"type":"VEC3","name":"accessorPositions"},{"bufferView":1,"byteOffset":1704,"componentType":5126,"count":26,"type":"VEC3","name":"accessorNormals"},{"bufferView":2,"byteOffset":464,"componentType":5126,"count":26,"type":"VEC2","name":"accessorUVs"},{"bufferView":0,"byteOffset":264,"componentType":5123,"count":24,"type":"SCALAR","name":"accessorIndices"},{"bufferView":1,"byteOffset":2016,"componentType":5126,"count":14,"max":[25.587574,21.1899471,25.3121128],"min":[-25.5875511,-23.0394764,21.3559647],"type":"VEC3","name":"accessorPositions"},{"bufferView":1,"byteOffset":2184,"componentType":5126,"count":14,"type":"VEC3","name":"accessorNormals"},{"bufferView":2,"byteOffset":672,"componentType":5126,"count":14,"type":"VEC2","name":"accessorUVs"},{"bufferView":0,"byteOffset":312,"componentType":5123,"count":36,"type":"SCALAR","name":"accessorIndices"},{"bufferView":1,"byteOffset":2352,"componentType":5126,"count":24,"max":[25.06391,-15.6495037,10.6836042],"min":[-25.6376133,-21.8072,10.1291628],"type":"VEC3","name":"accessorPositions"},{"bufferView":1,"byteOffset":2640,"componentType":5126,"count":24,"type":"VEC3","name":"accessorNormals"},{"bufferView":2,"byteOffset":784,"componentType":5126,"count":24,"type":"VEC2","name":"accessorUVs"}],"bufferViews":[{"buffer":0,"byteLength":384,"name":"bufferViewScalar"},{"buffer":0,"byteOffset":384,"byteLength":2928,"byteStride":12,"name":"bufferViewFloatVec3"},{"buffer":0,"byteOffset":3312,"byteLength":976,"byteStride":8,"name":"bufferViewFloatVec2"}],"buffers":[{"uri":"sgy_jt_02.bin","byteLength":4288}],"materials":[{"pbrMetallicRoughness":{"baseColorTexture":{"index":0},"metallicFactor":0.0,"roughnessFactor":0.450053632},"name":"Material #3"},{"pbrMetallicRoughness":{"baseColorTexture":{"index":1},"metallicFactor":0.0,"roughnessFactor":0.450053632},"name":"Material #4"},{"pbrMetallicRoughness":{"baseColorTexture":{"index":2},"metallicFactor":0.0,"roughnessFactor":0.450053632},"name":"Material #16"},{"pbrMetallicRoughness":{"baseColorTexture":{"index":3},"metallicFactor":0.0,"roughnessFactor":0.450053632},"name":"Material #29"},{"pbrMetallicRoughness":{"baseColorTexture":{"index":4},"metallicFactor":0.0,"roughnessFactor":0.450053632},"name":"Material #42"},{"pbrMetallicRoughness":{"baseColorTexture":{"index":5},"metallicFactor":0.0,"roughnessFactor":0.450053632},"name":"Material #56"},{"pbrMetallicRoughness":{"baseColorTexture":{"index":6},"metallicFactor":0.0,"roughnessFactor":0.450053632},"name":"Material #95"},{"pbrMetallicRoughness":{"baseColorTexture":{"index":7},"metallicFactor":0.0,"roughnessFactor":0.450053632},"name":"Material #82"},{"pbrMetallicRoughness":{"baseColorTexture":{"index":5},"metallicFactor":0.0,"roughnessFactor":0.450053632},"name":"Material #55"}],"textures":[{"sampler":0,"source":0,"name":"SG_JT_0001.jpg"},{"sampler":0,"source":1,"name":"SG_JT_0002.jpg"},{"sampler":0,"source":2,"name":"SG_JT_0005.jpg"},{"sampler":0,"source":3,"name":"SG_JT_0003.jpg"},{"sampler":0,"source":4,"name":"SG_JT_0004.jpg"},{"sampler":0,"source":5,"name":"SGY_Q1_016.jpg"},{"sampler":0,"source":6,"name":"SG_JT_0007.jpg"},{"sampler":0,"source":7,"name":"SG_JT_0006.jpg"}],"images":[{"uri":"SG_JT_0001.jpg"},{"uri":"SG_JT_0002.jpg"},{"uri":"SG_JT_0005.jpg"},{"uri":"SG_JT_0003.jpg"},{"uri":"SG_JT_0004.jpg"},{"uri":"SGY_Q1_016.jpg"},{"uri":"SG_JT_0007.jpg"},{"uri":"SG_JT_0006.jpg"}],"samplers":[{"magFilter":9729,"minFilter":9987}]}