{
  "accessors": [
    {
      "name": "Cylinder008_1_0_positions",
      "componentType": 5126,
      "count": 306,
      "min": [
        -71.97720336914062,
        -10.041799545288086,
        0
      ],
      "max": [
        71.97720336914062,
        10.041799545288086,
        26.11829948425293
      ],
      "type": "VEC3",
      "bufferView": 0,
      "byteOffset": 0
    },
    {
      "name": "Cylinder008_1_0_normals",
      "componentType": 5126,
      "count": 306,
      "min": [
        -0.981198787689209,
        -0.981198787689209,
        -0.09510062634944916
      ],
      "max": [
        0.981198787689209,
        0.981198787689209,
        1
      ],
      "type": "VEC3",
      "bufferView": 1,
      "byteOffset": 0
    },
    {
      "name": "Cylinder008_1_0_texcoords",
      "componentType": 5126,
      "count": 306,
      "min": [
        -1.3101999759674072,
        -0.23469999432563782
      ],
      "max": [
        2.086199998855591,
        1
      ],
      "type": "VEC2",
      "bufferView": 2,
      "byteOffset": 0
    },
    {
      "name": "Cylinder008_1_0_indices",
      "componentType": 5123,
      "count": 792,
      "min": [
        0
      ],
      "max": [
        305
      ],
      "type": "SCALAR",
      "bufferView": 3,
      "byteOffset": 0
    },
    {
      "name": "Cylinder008_1_1_positions",
      "componentType": 5126,
      "count": 374,
      "min": [
        -67.5989990234375,
        -5.866300106048584,
        0
      ],
      "max": [
        65.24929809570312,
        5.957200050354004,
        29.48069953918457
      ],
      "type": "VEC3",
      "bufferView": 0,
      "byteOffset": 3672
    },
    {
      "name": "Cylinder008_1_1_normals",
      "componentType": 5126,
      "count": 374,
      "min": [
        -1,
        -1,
        -1
      ],
      "max": [
        1,
        1,
        1
      ],
      "type": "VEC3",
      "bufferView": 1,
      "byteOffset": 3672
    },
    {
      "name": "Cylinder008_1_1_texcoords",
      "componentType": 5126,
      "count": 374,
      "min": [
        -1.3711999654769897,
        -0.011500000022351742
      ],
      "max": [
        15.645999908447266,
        3.023099899291992
      ],
      "type": "VEC2",
      "bufferView": 2,
      "byteOffset": 2448
    },
    {
      "name": "Cylinder008_1_1_indices",
      "componentType": 5123,
      "count": 642,
      "min": [
        0
      ],
      "max": [
        373
      ],
      "type": "SCALAR",
      "bufferView": 3,
      "byteOffset": 1584
    },
    {
      "name": "Cylinder008_1_2_positions",
      "componentType": 5126,
      "count": 28,
      "min": [
        -69.122802734375,
        -5.662899971008301,
        29.48069953918457
      ],
      "max": [
        66.77310180664062,
        5.659800052642822,
        30.323400497436523
      ],
      "type": "VEC3",
      "bufferView": 0,
      "byteOffset": 8160
    },
    {
      "name": "Cylinder008_1_2_normals",
      "componentType": 5126,
      "count": 28,
      "min": [
        -1,
        -1,
        -1
      ],
      "max": [
        1,
        1,
        1
      ],
      "type": "VEC3",
      "bufferView": 1,
      "byteOffset": 8160
    },
    {
      "name": "Cylinder008_1_2_texcoords",
      "componentType": 5126,
      "count": 28,
      "min": [
        0,
        -5.999599933624268
      ],
      "max": [
        1,
        6.999599933624268
      ],
      "type": "VEC2",
      "bufferView": 2,
      "byteOffset": 5440
    },
    {
      "name": "Cylinder008_1_2_indices",
      "componentType": 5123,
      "count": 54,
      "min": [
        0
      ],
      "max": [
        27
      ],
      "type": "SCALAR",
      "bufferView": 3,
      "byteOffset": 2868
    }
  ],
  "asset": {
    "generator": "obj2gltf",
    "version": "2.0"
  },
  "buffers": [
    {
      "name": "2_jz17",
      "byteLength": 25632,
      "uri": "data:application/octet-stream;base64,"
    }
  ],
  "bufferViews": [
    {
      "name": "bufferView_0",
      "buffer": 0,
      "byteLength": 8496,
      "byteOffset": 0,
      "byteStride": 12,
      "target": 34962
    },
    {
      "name": "bufferView_1",
      "buffer": 0,
      "byteLength": 8496,
      "byteOffset": 8496,
      "byteStride": 12,
      "target": 34962
    },
    {
      "name": "bufferView_2",
      "buffer": 0,
      "byteLength": 5664,
      "byteOffset": 16992,
      "byteStride": 8,
      "target": 34962
    },
    {
      "name": "bufferView_3",
      "buffer": 0,
      "byteLength": 2976,
      "byteOffset": 22656,
      "target": 34963
    }
  ],
  "images": [
    {
      "name": "SGY_Q2_001",
      "uri": "SGY_Q2_001.jpg"
    },
    {
      "name": "SGY_Q2_002",
      "uri": "SGY_Q2_002.jpg"
    },
    {
      "name": "SGY_Q2_003",
      "uri": "SGY_Q2_003.jpg"
    }
  ],
  "materials": [
    {
      "name": "Material__25",
      "pbrMetallicRoughness": {
        "baseColorTexture": {
          "index": 0
        },
        "baseColorFactor": [
          1,
          1,
          1,
          1
        ],
        "metallicFactor": 0,
        "roughnessFactor": 0.99
      },
      "emissiveFactor": [
        0,
        0,
        0
      ],
      "alphaMode": "OPAQUE",
      "doubleSided": false
    },
    {
      "name": "Material__26",
      "pbrMetallicRoughness": {
        "baseColorTexture": {
          "index": 1
        },
        "baseColorFactor": [
          1,
          1,
          1,
          1
        ],
        "metallicFactor": 0,
        "roughnessFactor": 0.99
      },
      "emissiveFactor": [
        0,
        0,
        0
      ],
      "alphaMode": "OPAQUE",
      "doubleSided": false
    },
    {
      "name": "Material__49",
      "pbrMetallicRoughness": {
        "baseColorTexture": {
          "index": 2
        },
        "baseColorFactor": [
          1,
          1,
          1,
          1
        ],
        "metallicFactor": 0,
        "roughnessFactor": 0.99
      },
      "emissiveFactor": [
        0,
        0,
        0
      ],
      "alphaMode": "OPAQUE",
      "doubleSided": false
    }
  ],
  "meshes": [
    {
      "name": "Cylinder008_1",
      "primitives": [
        {
          "attributes": {
            "POSITION": 0,
            "NORMAL": 1,
            "TEXCOORD_0": 2
          },
          "indices": 3,
          "material": 0,
          "mode": 4
        },
        {
          "attributes": {
            "POSITION": 4,
            "NORMAL": 5,
            "TEXCOORD_0": 6
          },
          "indices": 7,
          "material": 1,
          "mode": 4
        },
        {
          "attributes": {
            "POSITION": 8,
            "NORMAL": 9,
            "TEXCOORD_0": 10
          },
          "indices": 11,
          "material": 2,
          "mode": 4
        }
      ]
    }
  ],
  "nodes": [
    {
      "name": "Cylinder008",
      "mesh": 0
    }
  ],
  "samplers": [
    {
      "wrapS": 10497,
      "wrapT": 10497
    }
  ],
  "scene": 0,
  "scenes": [
    {
      "nodes": [
        0
      ]
    }
  ],
  "textures": [
    {
      "name": "SGY_Q2_001",
      "sampler": 0,
      "source": 0
    },
    {
      "name": "SGY_Q2_002",
      "sampler": 0,
      "source": 1
    },
    {
      "name": "SGY_Q2_003",
      "sampler": 0,
      "source": 2
    }
  ]
}
