{
  "accessors": [
    {
      "name": "Box004_1_0_positions",
      "componentType": 5126,
      "count": 96,
      "min": [
        -14.911999702453613,
        -26.24220085144043,
        11.853500366210938
      ],
      "max": [
        10.920299530029297,
        26.597299575805664,
        20.004499435424805
      ],
      "type": "VEC3",
      "bufferView": 0,
      "byteOffset": 0
    },
    {
      "name": "Box004_1_0_normals",
      "componentType": 5126,
      "count": 96,
      "min": [
        -0.5133040547370911,
        0,
        0.8582068085670471
      ],
      "max": [
        0.5133040547370911,
        0,
        0.8932843208312988
      ],
      "type": "VEC3",
      "bufferView": 1,
      "byteOffset": 0
    },
    {
      "name": "Box004_1_0_texcoords",
      "componentType": 5126,
      "count": 96,
      "min": [
        -0.5629000067710876,
        0.00279999990016222
      ],
      "max": [
        2.176500082015991,
        0.9866999983787537
      ],
      "type": "VEC2",
      "bufferView": 2,
      "byteOffset": 0
    },
    {
      "name": "Box004_1_0_indices",
      "componentType": 5123,
      "count": 144,
      "min": [
        0
      ],
      "max": [
        95
      ],
      "type": "SCALAR",
      "bufferView": 3,
      "byteOffset": 0
    },
    {
      "name": "Box004_1_1_positions",
      "componentType": 5126,
      "count": 20,
      "min": [
        -12.69909954071045,
        -24.029300689697266,
        0
      ],
      "max": [
        8.70740032196045,
        24.3843994140625,
        6.403299808502197
      ],
      "type": "VEC3",
      "bufferView": 0,
      "byteOffset": 1152
    },
    {
      "name": "Box004_1_1_normals",
      "componentType": 5126,
      "count": 20,
      "min": [
        -1,
        -1,
        0
      ],
      "max": [
        1,
        1,
        0
      ],
      "type": "VEC3",
      "bufferView": 1,
      "byteOffset": 1152
    },
    {
      "name": "Box004_1_1_texcoords",
      "componentType": 5126,
      "count": 20,
      "min": [
        0.978600025177002,
        0.001500000013038516
      ],
      "max": [
        5.974599838256836,
        1.0979000329971313
      ],
      "type": "VEC2",
      "bufferView": 2,
      "byteOffset": 768
    },
    {
      "name": "Box004_1_1_indices",
      "componentType": 5123,
      "count": 36,
      "min": [
        0
      ],
      "max": [
        19
      ],
      "type": "SCALAR",
      "bufferView": 3,
      "byteOffset": 288
    },
    {
      "name": "Box004_1_2_positions",
      "componentType": 5126,
      "count": 8,
      "min": [
        -12.69909954071045,
        -24.029300689697266,
        0
      ],
      "max": [
        -12.69909954071045,
        8.246500015258789,
        6.297599792480469
      ],
      "type": "VEC3",
      "bufferView": 0,
      "byteOffset": 1392
    },
    {
      "name": "Box004_1_2_normals",
      "componentType": 5126,
      "count": 8,
      "min": [
        -1,
        0,
        0
      ],
      "max": [
        -1,
        0,
        0
      ],
      "type": "VEC3",
      "bufferView": 1,
      "byteOffset": 1392
    },
    {
      "name": "Box004_1_2_texcoords",
      "componentType": 5126,
      "count": 8,
      "min": [
        -0.27459999918937683,
        0.003100000089034438
      ],
      "max": [
        2.6591999530792236,
        1.0973000526428223
      ],
      "type": "VEC2",
      "bufferView": 2,
      "byteOffset": 928
    },
    {
      "name": "Box004_1_2_indices",
      "componentType": 5123,
      "count": 12,
      "min": [
        0
      ],
      "max": [
        7
      ],
      "type": "SCALAR",
      "bufferView": 3,
      "byteOffset": 360
    },
    {
      "name": "Box004_1_3_positions",
      "componentType": 5126,
      "count": 184,
      "min": [
        -14.911999702453613,
        -26.24220085144043,
        10.504599571228027
      ],
      "max": [
        10.920299530029297,
        26.597299575805664,
        20.004499435424805
      ],
      "type": "VEC3",
      "bufferView": 0,
      "byteOffset": 1488
    },
    {
      "name": "Box004_1_3_normals",
      "componentType": 5126,
      "count": 184,
      "min": [
        -1,
        -1,
        -0.8932843208312988
      ],
      "max": [
        1,
        1,
        0
      ],
      "type": "VEC3",
      "bufferView": 1,
      "byteOffset": 1488
    },
    {
      "name": "Box004_1_3_texcoords",
      "componentType": 5126,
      "count": 184,
      "min": [
        0,
        0
      ],
      "max": [
        1,
        1
      ],
      "type": "VEC2",
      "bufferView": 2,
      "byteOffset": 992
    },
    {
      "name": "Box004_1_3_indices",
      "componentType": 5123,
      "count": 288,
      "min": [
        0
      ],
      "max": [
        183
      ],
      "type": "SCALAR",
      "bufferView": 3,
      "byteOffset": 384
    },
    {
      "name": "Box004_1_4_positions",
      "componentType": 5126,
      "count": 30,
      "min": [
        -12.69909954071045,
        -24.029300689697266,
        11.498800277709961
      ],
      "max": [
        8.70740032196045,
        24.3843994140625,
        19.15060043334961
      ],
      "type": "VEC3",
      "bufferView": 0,
      "byteOffset": 3696
    },
    {
      "name": "Box004_1_4_normals",
      "componentType": 5126,
      "count": 30,
      "min": [
        0,
        -1,
        0
      ],
      "max": [
        0,
        1,
        0
      ],
      "type": "VEC3",
      "bufferView": 1,
      "byteOffset": 3696
    },
    {
      "name": "Box004_1_4_texcoords",
      "componentType": 5126,
      "count": 30,
      "min": [
        0,
        0.5146999955177307
      ],
      "max": [
        1.3408000469207764,
        1.107800006866455
      ],
      "type": "VEC2",
      "bufferView": 2,
      "byteOffset": 2464
    },
    {
      "name": "Box004_1_4_indices",
      "componentType": 5123,
      "count": 48,
      "min": [
        0
      ],
      "max": [
        29
      ],
      "type": "SCALAR",
      "bufferView": 3,
      "byteOffset": 960
    },
    {
      "name": "Box004_1_5_positions",
      "componentType": 5126,
      "count": 32,
      "min": [
        -12.69909954071045,
        -24.029300689697266,
        6.297599792480469
      ],
      "max": [
        8.70740032196045,
        24.3843994140625,
        16.243200302124023
      ],
      "type": "VEC3",
      "bufferView": 0,
      "byteOffset": 4056
    },
    {
      "name": "Box004_1_5_normals",
      "componentType": 5126,
      "count": 32,
      "min": [
        -1,
        -1,
        0
      ],
      "max": [
        1,
        1,
        0
      ],
      "type": "VEC3",
      "bufferView": 1,
      "byteOffset": 4056
    },
    {
      "name": "Box004_1_5_texcoords",
      "componentType": 5126,
      "count": 32,
      "min": [
        0,
        0
      ],
      "max": [
        6.000899791717529,
        1.0033999681472778
      ],
      "type": "VEC2",
      "bufferView": 2,
      "byteOffset": 2704
    },
    {
      "name": "Box004_1_5_indices",
      "componentType": 5123,
      "count": 60,
      "min": [
        0
      ],
      "max": [
        31
      ],
      "type": "SCALAR",
      "bufferView": 3,
      "byteOffset": 1056
    },
    {
      "name": "Box004_1_6_positions",
      "componentType": 5126,
      "count": 24,
      "min": [
        -18.11829948425293,
        -25.0939998626709,
        6.087200164794922
      ],
      "max": [
        -12.550800323486328,
        8.7253999710083,
        6.525199890136719
      ],
      "type": "VEC3",
      "bufferView": 0,
      "byteOffset": 4440
    },
    {
      "name": "Box004_1_6_normals",
      "componentType": 5126,
      "count": 24,
      "min": [
        -1,
        -1,
        -1
      ],
      "max": [
        1,
        1,
        1
      ],
      "type": "VEC3",
      "bufferView": 1,
      "byteOffset": 4440
    },
    {
      "name": "Box004_1_6_texcoords",
      "componentType": 5126,
      "count": 24,
      "min": [
        0,
        -4.542799949645996
      ],
      "max": [
        1.0406999588012695,
        1
      ],
      "type": "VEC2",
      "bufferView": 2,
      "byteOffset": 2960
    },
    {
      "name": "Box004_1_6_indices",
      "componentType": 5123,
      "count": 36,
      "min": [
        0
      ],
      "max": [
        23
      ],
      "type": "SCALAR",
      "bufferView": 3,
      "byteOffset": 1176
    },
    {
      "name": "Box004_1_7_positions",
      "componentType": 5126,
      "count": 30,
      "min": [
        -8.398599624633789,
        -12.69950008392334,
        5.043600082397461
      ],
      "max": [
        15.57509994506836,
        29.43779945373535,
        5.8024001121521
      ],
      "type": "VEC3",
      "bufferView": 0,
      "byteOffset": 4728
    },
    {
      "name": "Box004_1_7_normals",
      "componentType": 5126,
      "count": 30,
      "min": [
        -1,
        -1,
        -1
      ],
      "max": [
        1,
        1,
        1
      ],
      "type": "VEC3",
      "bufferView": 1,
      "byteOffset": 4728
    },
    {
      "name": "Box004_1_7_texcoords",
      "componentType": 5126,
      "count": 30,
      "min": [
        -0.48240000009536743,
        -2.4992001056671143
      ],
      "max": [
        1.8111000061035156,
        3.4992001056671143
      ],
      "type": "VEC2",
      "bufferView": 2,
      "byteOffset": 3152
    },
    {
      "name": "Box004_1_7_indices",
      "componentType": 5123,
      "count": 42,
      "min": [
        0
      ],
      "max": [
        29
      ],
      "type": "SCALAR",
      "bufferView": 3,
      "byteOffset": 1248
    },
    {
      "name": "Box004_1_8_positions",
      "componentType": 5126,
      "count": 16,
      "min": [
        -8.05370044708252,
        -10.906100273132324,
        0
      ],
      "max": [
        13.714900016784668,
        27.64430046081543,
        5.166200160980225
      ],
      "type": "VEC3",
      "bufferView": 0,
      "byteOffset": 5088
    },
    {
      "name": "Box004_1_8_normals",
      "componentType": 5126,
      "count": 16,
      "min": [
        -1,
        -1,
        0
      ],
      "max": [
        1,
        1,
        0
      ],
      "type": "VEC3",
      "bufferView": 1,
      "byteOffset": 5088
    },
    {
      "name": "Box004_1_8_texcoords",
      "componentType": 5126,
      "count": 16,
      "min": [
        0,
        0
      ],
      "max": [
        2.45169997215271,
        1
      ],
      "type": "VEC2",
      "bufferView": 2,
      "byteOffset": 3392
    },
    {
      "name": "Box004_1_8_indices",
      "componentType": 5123,
      "count": 24,
      "min": [
        0
      ],
      "max": [
        15
      ],
      "type": "SCALAR",
      "bufferView": 3,
      "byteOffset": 1332
    },
    {
      "name": "Box004_1_9_positions",
      "componentType": 5126,
      "count": 5,
      "min": [
        -2.3778998851776123,
        26.091100692749023,
        5.625199794769287
      ],
      "max": [
        8.325400352478027,
        26.091100692749023,
        15.418999671936035
      ],
      "type": "VEC3",
      "bufferView": 0,
      "byteOffset": 5280
    },
    {
      "name": "Box004_1_9_normals",
      "componentType": 5126,
      "count": 5,
      "min": [
        0,
        1,
        0
      ],
      "max": [
        0,
        1,
        0
      ],
      "type": "VEC3",
      "bufferView": 1,
      "byteOffset": 5280
    },
    {
      "name": "Box004_1_9_texcoords",
      "componentType": 5126,
      "count": 5,
      "min": [
        -0.1850000023841858,
        -0.20600000023841858
      ],
      "max": [
        1.2269999980926514,
        1.2059999704360962
      ],
      "type": "VEC2",
      "bufferView": 2,
      "byteOffset": 3520
    },
    {
      "name": "Box004_1_9_indices",
      "componentType": 5123,
      "count": 9,
      "min": [
        0
      ],
      "max": [
        4
      ],
      "type": "SCALAR",
      "bufferView": 3,
      "byteOffset": 1380
    },
    {
      "name": "Box004_1_10_positions",
      "componentType": 5126,
      "count": 16,
      "min": [
        -2.3778998851776123,
        24.29010009765625,
        5.625199794769287
      ],
      "max": [
        8.325400352478027,
        26.091100692749023,
        15.418999671936035
      ],
      "type": "VEC3",
      "bufferView": 0,
      "byteOffset": 5340
    },
    {
      "name": "Box004_1_10_normals",
      "componentType": 5126,
      "count": 16,
      "min": [
        -1,
        0,
        0
      ],
      "max": [
        1,
        0,
        0.8932843208312988
      ],
      "type": "VEC3",
      "bufferView": 1,
      "byteOffset": 5340
    },
    {
      "name": "Box004_1_10_texcoords",
      "componentType": 5126,
      "count": 16,
      "min": [
        0,
        0
      ],
      "max": [
        1.5003000497817993,
        1.0355000495910645
      ],
      "type": "VEC2",
      "bufferView": 2,
      "byteOffset": 3560
    },
    {
      "name": "Box004_1_10_indices",
      "componentType": 5123,
      "count": 24,
      "min": [
        0
      ],
      "max": [
        15
      ],
      "type": "SCALAR",
      "bufferView": 3,
      "byteOffset": 1400
    }
  ],
  "asset": {
    "generator": "obj2gltf",
    "version": "2.0"
  },
  "buffers": [
    {
      "name": "3_jz04",
      "byteLength": 16200,
      "uri": "data:application/octet-stream;base64,"
    }
  ],
  "bufferViews": [
    {
      "name": "bufferView_0",
      "buffer": 0,
      "byteLength": 5532,
      "byteOffset": 0,
      "byteStride": 12,
      "target": 34962
    },
    {
      "name": "bufferView_1",
      "buffer": 0,
      "byteLength": 5532,
      "byteOffset": 5532,
      "byteStride": 12,
      "target": 34962
    },
    {
      "name": "bufferView_2",
      "buffer": 0,
      "byteLength": 3688,
      "byteOffset": 11064,
      "byteStride": 8,
      "target": 34962
    },
    {
      "name": "bufferView_3",
      "buffer": 0,
      "byteLength": 1448,
      "byteOffset": 14752,
      "target": 34963
    }
  ],
  "images": [
    {
      "name": "SGY_Q1_015",
      "uri": "SGY_Q1_015.jpg"
    },
    {
      "name": "SGY_Q1_014",
      "uri": "SGY_Q1_014.jpg"
    },
    {
      "name": "SGY_Q1_017",
      "uri": "SGY_Q1_017.jpg"
    },
    {
      "name": "SGY_Q1_016",
      "uri": "SGY_Q1_016.jpg"
    },
    {
      "name": "SGY_Q1_013",
      "uri": "SGY_Q1_013.jpg"
    },
    {
      "name": "SGY_Q1_012",
      "uri": "SGY_Q1_012.jpg"
    },
    {
      "name": "SGY_Q1_018",
      "uri": "SGY_Q1_018.jpg"
    },
    {
      "name": "SGY_Q1_002",
      "uri": "SGY_Q1_002.jpg"
    }
  ],
  "materials": [
    {
      "name": "Material__62",
      "pbrMetallicRoughness": {
        "baseColorTexture": {
          "index": 0
        },
        "baseColorFactor": [
          1,
          1,
          1,
          1
        ],
        "metallicFactor": 0,
        "roughnessFactor": 0.99
      },
      "emissiveFactor": [
        0,
        0,
        0
      ],
      "alphaMode": "OPAQUE",
      "doubleSided": false
    },
    {
      "name": "Material__317",
      "pbrMetallicRoughness": {
        "baseColorTexture": {
          "index": 1
        },
        "baseColorFactor": [
          1,
          1,
          1,
          1
        ],
        "metallicFactor": 0,
        "roughnessFactor": 0.99
      },
      "emissiveFactor": [
        0,
        0,
        0
      ],
      "alphaMode": "OPAQUE",
      "doubleSided": false
    },
    {
      "name": "Material__267",
      "pbrMetallicRoughness": {
        "baseColorTexture": {
          "index": 2
        },
        "baseColorFactor": [
          1,
          1,
          1,
          1
        ],
        "metallicFactor": 0,
        "roughnessFactor": 0.99
      },
      "emissiveFactor": [
        0,
        0,
        0
      ],
      "alphaMode": "OPAQUE",
      "doubleSided": false
    },
    {
      "name": "Material__74",
      "pbrMetallicRoughness": {
        "baseColorTexture": {
          "index": 3
        },
        "baseColorFactor": [
          1,
          1,
          1,
          1
        ],
        "metallicFactor": 0,
        "roughnessFactor": 0.99
      },
      "emissiveFactor": [
        0,
        0,
        0
      ],
      "alphaMode": "OPAQUE",
      "doubleSided": false
    },
    {
      "name": "Material__330",
      "pbrMetallicRoughness": {
        "baseColorTexture": {
          "index": 4
        },
        "baseColorFactor": [
          1,
          1,
          1,
          1
        ],
        "metallicFactor": 0,
        "roughnessFactor": 0.99
      },
      "emissiveFactor": [
        0,
        0,
        0
      ],
      "alphaMode": "OPAQUE",
      "doubleSided": false
    },
    {
      "name": "Material__25",
      "pbrMetallicRoughness": {
        "baseColorTexture": {
          "index": 5
        },
        "baseColorFactor": [
          1,
          1,
          1,
          1
        ],
        "metallicFactor": 0,
        "roughnessFactor": 0.99
      },
      "emissiveFactor": [
        0,
        0,
        0
      ],
      "alphaMode": "OPAQUE",
      "doubleSided": false
    },
    {
      "name": "Material__98",
      "pbrMetallicRoughness": {
        "baseColorTexture": {
          "index": 6
        },
        "baseColorFactor": [
          1,
          1,
          1,
          1
        ],
        "metallicFactor": 0,
        "roughnessFactor": 0.99
      },
      "emissiveFactor": [
        0,
        0,
        0
      ],
      "alphaMode": "OPAQUE",
      "doubleSided": false
    },
    {
      "name": "Material__179",
      "pbrMetallicRoughness": {
        "baseColorTexture": {
          "index": 6
        },
        "baseColorFactor": [
          1,
          1,
          1,
          1
        ],
        "metallicFactor": 0,
        "roughnessFactor": 0.99
      },
      "emissiveFactor": [
        0,
        0,
        0
      ],
      "alphaMode": "OPAQUE",
      "doubleSided": false
    },
    {
      "name": "Material__167",
      "pbrMetallicRoughness": {
        "baseColorTexture": {
          "index": 2
        },
        "baseColorFactor": [
          1,
          1,
          1,
          1
        ],
        "metallicFactor": 0,
        "roughnessFactor": 0.99
      },
      "emissiveFactor": [
        0,
        0,
        0
      ],
      "alphaMode": "OPAQUE",
      "doubleSided": false
    },
    {
      "name": "Material__280",
      "pbrMetallicRoughness": {
        "baseColorTexture": {
          "index": 7
        },
        "baseColorFactor": [
          1,
          1,
          1,
          1
        ],
        "metallicFactor": 0,
        "roughnessFactor": 0.99
      },
      "emissiveFactor": [
        0,
        0,
        0
      ],
      "alphaMode": "OPAQUE",
      "doubleSided": false
    },
    {
      "name": "Material__281",
      "pbrMetallicRoughness": {
        "baseColorTexture": {
          "index": 6
        },
        "baseColorFactor": [
          1,
          1,
          1,
          1
        ],
        "metallicFactor": 0,
        "roughnessFactor": 0.99
      },
      "emissiveFactor": [
        0,
        0,
        0
      ],
      "alphaMode": "OPAQUE",
      "doubleSided": false
    }
  ],
  "meshes": [
    {
      "name": "Box004_1",
      "primitives": [
        {
          "attributes": {
            "POSITION": 0,
            "NORMAL": 1,
            "TEXCOORD_0": 2
          },
          "indices": 3,
          "material": 0,
          "mode": 4
        },
        {
          "attributes": {
            "POSITION": 4,
            "NORMAL": 5,
            "TEXCOORD_0": 6
          },
          "indices": 7,
          "material": 1,
          "mode": 4
        },
        {
          "attributes": {
            "POSITION": 8,
            "NORMAL": 9,
            "TEXCOORD_0": 10
          },
          "indices": 11,
          "material": 2,
          "mode": 4
        },
        {
          "attributes": {
            "POSITION": 12,
            "NORMAL": 13,
            "TEXCOORD_0": 14
          },
          "indices": 15,
          "material": 3,
          "mode": 4
        },
        {
          "attributes": {
            "POSITION": 16,
            "NORMAL": 17,
            "TEXCOORD_0": 18
          },
          "indices": 19,
          "material": 4,
          "mode": 4
        },
        {
          "attributes": {
            "POSITION": 20,
            "NORMAL": 21,
            "TEXCOORD_0": 22
          },
          "indices": 23,
          "material": 5,
          "mode": 4
        },
        {
          "attributes": {
            "POSITION": 24,
            "NORMAL": 25,
            "TEXCOORD_0": 26
          },
          "indices": 27,
          "material": 6,
          "mode": 4
        },
        {
          "attributes": {
            "POSITION": 28,
            "NORMAL": 29,
            "TEXCOORD_0": 30
          },
          "indices": 31,
          "material": 7,
          "mode": 4
        },
        {
          "attributes": {
            "POSITION": 32,
            "NORMAL": 33,
            "TEXCOORD_0": 34
          },
          "indices": 35,
          "material": 8,
          "mode": 4
        },
        {
          "attributes": {
            "POSITION": 36,
            "NORMAL": 37,
            "TEXCOORD_0": 38
          },
          "indices": 39,
          "material": 9,
          "mode": 4
        },
        {
          "attributes": {
            "POSITION": 40,
            "NORMAL": 41,
            "TEXCOORD_0": 42
          },
          "indices": 43,
          "material": 10,
          "mode": 4
        }
      ]
    }
  ],
  "nodes": [
    {
      "name": "Box004",
      "mesh": 0
    }
  ],
  "samplers": [
    {
      "wrapS": 10497,
      "wrapT": 10497
    }
  ],
  "scene": 0,
  "scenes": [
    {
      "nodes": [
        0
      ]
    }
  ],
  "textures": [
    {
      "name": "SGY_Q1_015",
      "sampler": 0,
      "source": 0
    },
    {
      "name": "SGY_Q1_014",
      "sampler": 0,
      "source": 1
    },
    {
      "name": "SGY_Q1_017",
      "sampler": 0,
      "source": 2
    },
    {
      "name": "SGY_Q1_016",
      "sampler": 0,
      "source": 3
    },
    {
      "name": "SGY_Q1_013",
      "sampler": 0,
      "source": 4
    },
    {
      "name": "SGY_Q1_012",
      "sampler": 0,
      "source": 5
    },
    {
      "name": "SGY_Q1_018",
      "sampler": 0,
      "source": 6
    },
    {
      "name": "SGY_Q1_002",
      "sampler": 0,
      "source": 7
    }
  ]
}
