{"asset":{"version":"2.0","generator":"babylon.js glTF exporter for 3dsmax 2022 v20240125.3"},"scene":0,"scenes":[{"nodes":[0]}],"nodes":[{"mesh":0,"name":"对象007"}],"meshes":[{"primitives":[{"attributes":{"POSITION":1,"NORMAL":2,"TEXCOORD_0":3},"indices":0,"material":0},{"attributes":{"POSITION":5,"NORMAL":6,"TEXCOORD_0":7},"indices":4,"material":1},{"attributes":{"POSITION":9,"NORMAL":10,"TEXCOORD_0":11},"indices":8,"material":2},{"attributes":{"POSITION":13,"NORMAL":14,"TEXCOORD_0":15},"indices":12,"material":3},{"attributes":{"POSITION":17,"NORMAL":18,"TEXCOORD_0":19},"indices":16,"material":4},{"attributes":{"POSITION":21,"NORMAL":22,"TEXCOORD_0":23},"indices":20,"material":5},{"attributes":{"POSITION":25,"NORMAL":26,"TEXCOORD_0":27},"indices":24,"material":6},{"attributes":{"POSITION":29,"NORMAL":30,"TEXCOORD_0":31},"indices":28,"material":7},{"attributes":{"POSITION":33,"NORMAL":34,"TEXCOORD_0":35},"indices":32,"material":8}],"name":"对象007"}],"accessors":[{"bufferView":0,"componentType":5123,"count":12750,"type":"SCALAR","name":"accessorIndices"},{"bufferView":1,"componentType":5126,"count":7290,"max":[26.8900452,57.90576,10.0521955],"min":[-26.9049683,-57.87845,6.59214258],"type":"VEC3","name":"accessorPositions"},{"bufferView":1,"byteOffset":87480,"componentType":5126,"count":7290,"type":"VEC3","name":"accessorNormals"},{"bufferView":2,"componentType":5126,"count":7290,"type":"VEC2","name":"accessorUVs"},{"bufferView":0,"byteOffset":25500,"componentType":5123,"count":72,"type":"SCALAR","name":"accessorIndices"},{"bufferView":1,"byteOffset":174960,"componentType":5126,"count":58,"max":[27.1938171,57.61389,10.8545465],"min":[-27.1937561,-57.6139221,-4.9823233E-05],"type":"VEC3","name":"accessorPositions"},{"bufferView":1,"byteOffset":175656,"componentType":5126,"count":58,"type":"VEC3","name":"accessorNormals"},{"bufferView":2,"byteOffset":58320,"componentType":5126,"count":58,"type":"VEC2","name":"accessorUVs"},{"bufferView":0,"byteOffset":25644,"componentType":5123,"count":471,"type":"SCALAR","name":"accessorIndices"},{"bufferView":1,"byteOffset":176352,"componentType":5126,"count":302,"max":[27.1938171,61.5703735,14.2419],"min":[-27.1937561,-61.5704041,-4.790219E-05],"type":"VEC3","name":"accessorPositions"},{"bufferView":1,"byteOffset":179976,"componentType":5126,"count":302,"type":"VEC3","name":"accessorNormals"},{"bufferView":2,"byteOffset":58784,"componentType":5126,"count":302,"type":"VEC2","name":"accessorUVs"},{"bufferView":0,"byteOffset":26588,"componentType":5123,"count":48,"type":"SCALAR","name":"accessorIndices"},{"bufferView":1,"byteOffset":183600,"componentType":5126,"count":36,"max":[20.115448,57.61389,10.8545456],"min":[-20.1153564,-57.6139221,-4.978214E-05],"type":"VEC3","name":"accessorPositions"},{"bufferView":1,"byteOffset":184032,"componentType":5126,"count":36,"type":"VEC3","name":"accessorNormals"},{"bufferView":2,"byteOffset":61200,"componentType":5126,"count":36,"type":"VEC2","name":"accessorUVs"},{"bufferView":0,"byteOffset":26684,"componentType":5123,"count":153,"type":"SCALAR","name":"accessorIndices"},{"bufferView":1,"byteOffset":184464,"componentType":5126,"count":62,"max":[26.6499939,50.8518677,13.5945206],"min":[-26.6499329,-56.5903625,-4.71635067E-05],"type":"VEC3","name":"accessorPositions"},{"bufferView":1,"byteOffset":185208,"componentType":5126,"count":62,"type":"VEC3","name":"accessorNormals"},{"bufferView":2,"byteOffset":61488,"componentType":5126,"count":62,"type":"VEC2","name":"accessorUVs"},{"bufferView":0,"byteOffset":26992,"componentType":5123,"count":39,"type":"SCALAR","name":"accessorIndices"},{"bufferView":1,"byteOffset":185952,"componentType":5126,"count":25,"max":[26.6499939,48.8912659,5.50340843],"min":[-26.6499329,-48.8912964,-4.54313631E-05],"type":"VEC3","name":"accessorPositions"},{"bufferView":1,"byteOffset":186252,"componentType":5126,"count":25,"type":"VEC3","name":"accessorNormals"},{"bufferView":2,"byteOffset":61984,"componentType":5126,"count":25,"type":"VEC2","name":"accessorUVs"},{"bufferView":0,"byteOffset":27072,"componentType":5123,"count":39,"type":"SCALAR","name":"accessorIndices"},{"bufferView":1,"byteOffset":186552,"componentType":5126,"count":96,"max":[26.6499939,56.5903,13.5945206],"min":[-26.6499329,-56.5903625,-4.71635067E-05],"type":"VEC3","name":"accessorPositions"},{"bufferView":1,"byteOffset":187704,"componentType":5126,"count":96,"type":"VEC3","name":"accessorNormals"},{"bufferView":2,"byteOffset":62184,"componentType":5126,"count":96,"type":"VEC2","name":"accessorUVs"},{"bufferView":0,"byteOffset":27152,"componentType":5123,"count":39,"type":"SCALAR","name":"accessorIndices"},{"bufferView":1,"byteOffset":188856,"componentType":5126,"count":19,"max":[26.6499939,56.5903,11.6874208],"min":[26.6499329,-25.7160645,-3.92724251E-05],"type":"VEC3","name":"accessorPositions"},{"bufferView":1,"byteOffset":189084,"componentType":5126,"count":19,"type":"VEC3","name":"accessorNormals"},{"bufferView":2,"byteOffset":62952,"componentType":5126,"count":19,"type":"VEC2","name":"accessorUVs"},{"bufferView":0,"byteOffset":27232,"componentType":5123,"count":72,"type":"SCALAR","name":"accessorIndices"},{"bufferView":1,"byteOffset":189312,"componentType":5126,"count":46,"max":[27.1938171,61.570343,14.2419],"min":[-27.1937561,-61.5704041,10.9664707],"type":"VEC3","name":"accessorPositions"},{"bufferView":1,"byteOffset":189864,"componentType":5126,"count":46,"type":"VEC3","name":"accessorNormals"},{"bufferView":2,"byteOffset":63104,"componentType":5126,"count":46,"type":"VEC2","name":"accessorUVs"}],"bufferViews":[{"buffer":0,"byteLength":27376,"name":"bufferViewScalar"},{"buffer":0,"byteOffset":27376,"byteLength":190416,"byteStride":12,"name":"bufferViewFloatVec3"},{"buffer":0,"byteOffset":217792,"byteLength":63472,"byteStride":8,"name":"bufferViewFloatVec2"}],"buffers":[{"uri":"sgy_cg5.bin","byteLength":281264}],"materials":[{"pbrMetallicRoughness":{"baseColorTexture":{"index":0},"metallicFactor":0.0,"roughnessFactor":0.450053632},"name":"Material #798"},{"pbrMetallicRoughness":{"baseColorTexture":{"index":1},"metallicFactor":0.0,"roughnessFactor":0.450053632},"name":"Material #792"},{"pbrMetallicRoughness":{"baseColorTexture":{"index":2},"metallicFactor":0.0,"roughnessFactor":0.450053632},"name":"Material #793"},{"pbrMetallicRoughness":{"baseColorTexture":{"index":3},"metallicFactor":0.0,"roughnessFactor":0.450053632},"name":"Material #794"},{"pbrMetallicRoughness":{"baseColorTexture":{"index":4},"metallicFactor":0.0,"roughnessFactor":0.450053632},"name":"Material #795"},{"pbrMetallicRoughness":{"baseColorTexture":{"index":5},"metallicFactor":0.0,"roughnessFactor":0.450053632},"name":"Material #796"},{"pbrMetallicRoughness":{"baseColorTexture":{"index":6},"metallicFactor":0.0,"roughnessFactor":0.450053632},"name":"Material #797"},{"pbrMetallicRoughness":{"baseColorTexture":{"index":7},"metallicFactor":0.0,"roughnessFactor":0.450053632},"name":"Material #799"},{"pbrMetallicRoughness":{"baseColorTexture":{"index":8},"metallicFactor":0.0,"roughnessFactor":0.450053632},"name":"Material #1298"}],"textures":[{"sampler":0,"source":0,"name":"sgbq_008.jpg"},{"sampler":0,"source":1,"name":"sgbq_001.jpg"},{"sampler":0,"source":2,"name":"sgbq_002.jpg"},{"sampler":0,"source":3,"name":"sgbq_004.jpg"},{"sampler":0,"source":4,"name":"sgbq_005.png"},{"sampler":0,"source":5,"name":"sgbq_006.jpg"},{"sampler":0,"source":6,"name":"sgbq_007.png"},{"sampler":0,"source":7,"name":"sgbq_008.png"},{"sampler":0,"source":8,"name":"sgbq_003.jpg"}],"images":[{"uri":"sgbq_008.jpg"},{"uri":"sgbq_001.jpg"},{"uri":"sgbq_002.jpg"},{"uri":"sgbq_004.jpg"},{"uri":"sgbq_005.png"},{"uri":"sgbq_006.jpg"},{"uri":"sgbq_007.png"},{"uri":"sgbq_008.png"},{"uri":"sgbq_003.jpg"}],"samplers":[{"magFilter":9729,"minFilter":9987}]}