{
  "accessors": [
    {
      "name": "Box058_1_0_positions",
      "componentType": 5126,
      "count": 28,
      "min": [
        -17.07040023803711,
        -10.17770004272461,
        11.776000022888184
      ],
      "max": [
        17.07040023803711,
        10.049599647521973,
        12.5
      ],
      "type": "VEC3",
      "bufferView": 0,
      "byteOffset": 0
    },
    {
      "name": "Box058_1_0_normals",
      "componentType": 5126,
      "count": 28,
      "min": [
        -1,
        -1,
        0
      ],
      "max": [
        1,
        1,
        1
      ],
      "type": "VEC3",
      "bufferView": 1,
      "byteOffset": 0
    },
    {
      "name": "Box058_1_0_texcoords",
      "componentType": 5126,
      "count": 28,
      "min": [
        -0.1678999960422516,
        -0.1678999960422516
      ],
      "max": [
        1.1678999662399292,
        1.1678999662399292
      ],
      "type": "VEC2",
      "bufferView": 2,
      "byteOffset": 0
    },
    {
      "name": "Box058_1_0_indices",
      "componentType": 5123,
      "count": 54,
      "min": [
        0
      ],
      "max": [
        27
      ],
      "type": "SCALAR",
      "bufferView": 3,
      "byteOffset": 0
    },
    {
      "name": "Box058_1_1_positions",
      "componentType": 5126,
      "count": 24,
      "min": [
        -20.60700035095215,
        -11.289299964904785,
        0
      ],
      "max": [
        20.60700035095215,
        11.161299705505371,
        3.358799934387207
      ],
      "type": "VEC3",
      "bufferView": 0,
      "byteOffset": 336
    },
    {
      "name": "Box058_1_1_normals",
      "componentType": 5126,
      "count": 24,
      "min": [
        -1,
        -1,
        0
      ],
      "max": [
        1,
        1,
        0
      ],
      "type": "VEC3",
      "bufferView": 1,
      "byteOffset": 336
    },
    {
      "name": "Box058_1_1_texcoords",
      "componentType": 5126,
      "count": 24,
      "min": [
        -4.494500160217285,
        0
      ],
      "max": [
        5.531899929046631,
        1
      ],
      "type": "VEC2",
      "bufferView": 2,
      "byteOffset": 224
    },
    {
      "name": "Box058_1_1_indices",
      "componentType": 5123,
      "count": 36,
      "min": [
        0
      ],
      "max": [
        23
      ],
      "type": "SCALAR",
      "bufferView": 3,
      "byteOffset": 108
    },
    {
      "name": "Box058_1_2_positions",
      "componentType": 5126,
      "count": 150,
      "min": [
        -20.60700035095215,
        -11.789299964904785,
        0
      ],
      "max": [
        20.60700035095215,
        11.789299964904785,
        4
      ],
      "type": "VEC3",
      "bufferView": 0,
      "byteOffset": 624
    },
    {
      "name": "Box058_1_2_normals",
      "componentType": 5126,
      "count": 150,
      "min": [
        -1,
        -1,
        -1
      ],
      "max": [
        1,
        1,
        1
      ],
      "type": "VEC3",
      "bufferView": 1,
      "byteOffset": 624
    },
    {
      "name": "Box058_1_2_texcoords",
      "componentType": 5126,
      "count": 150,
      "min": [
        -3.6214001178741455,
        -1.7451000213623047
      ],
      "max": [
        4.621399879455566,
        2.7451000213623047
      ],
      "type": "VEC2",
      "bufferView": 2,
      "byteOffset": 416
    },
    {
      "name": "Box058_1_2_indices",
      "componentType": 5123,
      "count": 354,
      "min": [
        0
      ],
      "max": [
        149
      ],
      "type": "SCALAR",
      "bufferView": 3,
      "byteOffset": 180
    },
    {
      "name": "Box058_1_3_positions",
      "componentType": 5126,
      "count": 40,
      "min": [
        -17.07040023803711,
        -10.17770004272461,
        4
      ],
      "max": [
        17.07040023803711,
        10.049599647521973,
        12.5
      ],
      "type": "VEC3",
      "bufferView": 0,
      "byteOffset": 2424
    },
    {
      "name": "Box058_1_3_normals",
      "componentType": 5126,
      "count": 40,
      "min": [
        -1,
        -1,
        -1
      ],
      "max": [
        1,
        1,
        0
      ],
      "type": "VEC3",
      "bufferView": 1,
      "byteOffset": 2424
    },
    {
      "name": "Box058_1_3_texcoords",
      "componentType": 5126,
      "count": 40,
      "min": [
        -4.688399791717529,
        -0.7746000289916992
      ],
      "max": [
        5.688399791717529,
        1.7746000289916992
      ],
      "type": "VEC2",
      "bufferView": 2,
      "byteOffset": 1616
    },
    {
      "name": "Box058_1_3_indices",
      "componentType": 5123,
      "count": 72,
      "min": [
        0
      ],
      "max": [
        39
      ],
      "type": "SCALAR",
      "bufferView": 3,
      "byteOffset": 888
    },
    {
      "name": "Box058_1_4_positions",
      "componentType": 5126,
      "count": 970,
      "min": [
        -18.103700637817383,
        -11.072500228881836,
        5.5
      ],
      "max": [
        18.103700637817383,
        10.944499969482422,
        12.5
      ],
      "type": "VEC3",
      "bufferView": 0,
      "byteOffset": 2904
    },
    {
      "name": "Box058_1_4_normals",
      "componentType": 5126,
      "count": 970,
      "min": [
        -0.9991835951805115,
        -0.9964317083358765,
        0
      ],
      "max": [
        0.9991835951805115,
        0.9879624247550964,
        0
      ],
      "type": "VEC3",
      "bufferView": 1,
      "byteOffset": 2904
    },
    {
      "name": "Box058_1_4_texcoords",
      "componentType": 5126,
      "count": 970,
      "min": [
        -32.97269821166992,
        -4.413000106811523
      ],
      "max": [
        33.972599029541016,
        3.4166998863220215
      ],
      "type": "VEC2",
      "bufferView": 2,
      "byteOffset": 1936
    },
    {
      "name": "Box058_1_4_indices",
      "componentType": 5123,
      "count": 1284,
      "min": [
        0
      ],
      "max": [
        969
      ],
      "type": "SCALAR",
      "bufferView": 3,
      "byteOffset": 1032
    }
  ],
  "asset": {
    "generator": "obj2gltf",
    "version": "2.0"
  },
  "buffers": [
    {
      "name": "2_jz13",
      "byteLength": 42384,
      "uri": "data:application/octet-stream;base64,"
    }
  ],
  "bufferViews": [
    {
      "name": "bufferView_0",
      "buffer": 0,
      "byteLength": 14544,
      "byteOffset": 0,
      "byteStride": 12,
      "target": 34962
    },
    {
      "name": "bufferView_1",
      "buffer": 0,
      "byteLength": 14544,
      "byteOffset": 14544,
      "byteStride": 12,
      "target": 34962
    },
    {
      "name": "bufferView_2",
      "buffer": 0,
      "byteLength": 9696,
      "byteOffset": 29088,
      "byteStride": 8,
      "target": 34962
    },
    {
      "name": "bufferView_3",
      "buffer": 0,
      "byteLength": 3600,
      "byteOffset": 38784,
      "target": 34963
    }
  ],
  "images": [
    {
      "name": "sgy_2q_09",
      "uri": "sgy_2q_09.jpg"
    },
    {
      "name": "sgy_2q_35",
      "uri": "sgy_2q_35.jpg"
    },
    {
      "name": "sgy_2q_29",
      "uri": "sgy_2q_29.jpg"
    },
    {
      "name": "sgy_2q_36",
      "uri": "sgy_2q_36.jpg"
    },
    {
      "name": "sgy_2q_38",
      "uri": "sgy_2q_38.jpg"
    }
  ],
  "materials": [
    {
      "name": "Material__2059",
      "pbrMetallicRoughness": {
        "baseColorTexture": {
          "index": 0
        },
        "baseColorFactor": [
          1,
          1,
          1,
          1
        ],
        "metallicFactor": 0,
        "roughnessFactor": 0.99
      },
      "emissiveFactor": [
        0,
        0,
        0
      ],
      "alphaMode": "OPAQUE",
      "doubleSided": false
    },
    {
      "name": "Material__1852",
      "pbrMetallicRoughness": {
        "baseColorTexture": {
          "index": 1
        },
        "baseColorFactor": [
          1,
          1,
          1,
          1
        ],
        "metallicFactor": 0,
        "roughnessFactor": 0.99
      },
      "emissiveFactor": [
        0,
        0,
        0
      ],
      "alphaMode": "OPAQUE",
      "doubleSided": false
    },
    {
      "name": "Material__1935",
      "pbrMetallicRoughness": {
        "baseColorTexture": {
          "index": 2
        },
        "baseColorFactor": [
          1,
          1,
          1,
          1
        ],
        "metallicFactor": 0,
        "roughnessFactor": 0.99
      },
      "emissiveFactor": [
        0,
        0,
        0
      ],
      "alphaMode": "OPAQUE",
      "doubleSided": false
    },
    {
      "name": "Material__2301",
      "pbrMetallicRoughness": {
        "baseColorTexture": {
          "index": 3
        },
        "baseColorFactor": [
          1,
          1,
          1,
          1
        ],
        "metallicFactor": 0,
        "roughnessFactor": 0.99
      },
      "emissiveFactor": [
        0,
        0,
        0
      ],
      "alphaMode": "OPAQUE",
      "doubleSided": false
    },
    {
      "name": "Material__2289",
      "pbrMetallicRoughness": {
        "baseColorTexture": {
          "index": 4
        },
        "baseColorFactor": [
          1,
          1,
          1,
          1
        ],
        "metallicFactor": 0,
        "roughnessFactor": 0.99
      },
      "emissiveFactor": [
        0,
        0,
        0
      ],
      "alphaMode": "OPAQUE",
      "doubleSided": false
    }
  ],
  "meshes": [
    {
      "name": "Box058_1",
      "primitives": [
        {
          "attributes": {
            "POSITION": 0,
            "NORMAL": 1,
            "TEXCOORD_0": 2
          },
          "indices": 3,
          "material": 0,
          "mode": 4
        },
        {
          "attributes": {
            "POSITION": 4,
            "NORMAL": 5,
            "TEXCOORD_0": 6
          },
          "indices": 7,
          "material": 1,
          "mode": 4
        },
        {
          "attributes": {
            "POSITION": 8,
            "NORMAL": 9,
            "TEXCOORD_0": 10
          },
          "indices": 11,
          "material": 2,
          "mode": 4
        },
        {
          "attributes": {
            "POSITION": 12,
            "NORMAL": 13,
            "TEXCOORD_0": 14
          },
          "indices": 15,
          "material": 3,
          "mode": 4
        },
        {
          "attributes": {
            "POSITION": 16,
            "NORMAL": 17,
            "TEXCOORD_0": 18
          },
          "indices": 19,
          "material": 4,
          "mode": 4
        }
      ]
    }
  ],
  "nodes": [
    {
      "name": "Box058",
      "mesh": 0
    }
  ],
  "samplers": [
    {
      "wrapS": 10497,
      "wrapT": 10497
    }
  ],
  "scene": 0,
  "scenes": [
    {
      "nodes": [
        0
      ]
    }
  ],
  "textures": [
    {
      "name": "sgy_2q_09",
      "sampler": 0,
      "source": 0
    },
    {
      "name": "sgy_2q_35",
      "sampler": 0,
      "source": 1
    },
    {
      "name": "sgy_2q_29",
      "sampler": 0,
      "source": 2
    },
    {
      "name": "sgy_2q_36",
      "sampler": 0,
      "source": 3
    },
    {
      "name": "sgy_2q_38",
      "sampler": 0,
      "source": 4
    }
  ]
}
