{
  "accessors": [
    {
      "name": "Box001_1_0_positions",
      "componentType": 5126,
      "count": 66,
      "min": [
        -4.260000228881836,
        -1.563099980354309,
        0
      ],
      "max": [
        4.260000228881836,
        1.563099980354309,
        0.5313000082969666
      ],
      "type": "VEC3",
      "bufferView": 0,
      "byteOffset": 0
    },
    {
      "name": "Box001_1_0_normals",
      "componentType": 5126,
      "count": 66,
      "min": [
        -1,
        -1,
        -1
      ],
      "max": [
        1,
        1,
        1
      ],
      "type": "VEC3",
      "bufferView": 1,
      "byteOffset": 0
    },
    {
      "name": "Box001_1_0_texcoords",
      "componentType": 5126,
      "count": 66,
      "min": [
        -0.004800000227987766,
        -0.2303999960422516
      ],
      "max": [
        1.0047999620437622,
        0.5354999899864197
      ],
      "type": "VEC2",
      "bufferView": 2,
      "byteOffset": 0
    },
    {
      "name": "Box001_1_0_indices",
      "componentType": 5123,
      "count": 126,
      "min": [
        0
      ],
      "max": [
        65
      ],
      "type": "SCALAR",
      "bufferView": 3,
      "byteOffset": 0
    },
    {
      "name": "Box001_1_1_positions",
      "componentType": 5126,
      "count": 4,
      "min": [
        -4.260000228881836,
        -1.284600019454956,
        0.010900000110268593
      ],
      "max": [
        3.9433000087738037,
        1.284600019454956,
        0.2175000011920929
      ],
      "type": "VEC3",
      "bufferView": 0,
      "byteOffset": 792
    },
    {
      "name": "Box001_1_1_normals",
      "componentType": 5126,
      "count": 4,
      "min": [
        0.025199556723237038,
        0,
        0.9996824264526367
      ],
      "max": [
        0.025199556723237038,
        0,
        0.9996824264526367
      ],
      "type": "VEC3",
      "bufferView": 1,
      "byteOffset": 792
    },
    {
      "name": "Box001_1_1_texcoords",
      "componentType": 5126,
      "count": 4,
      "min": [
        0.03700000047683716,
        -0.03189999982714653
      ],
      "max": [
        0.9629999995231628,
        1.0319000482559204
      ],
      "type": "VEC2",
      "bufferView": 2,
      "byteOffset": 528
    },
    {
      "name": "Box001_1_1_indices",
      "componentType": 5123,
      "count": 6,
      "min": [
        0
      ],
      "max": [
        3
      ],
      "type": "SCALAR",
      "bufferView": 3,
      "byteOffset": 252
    },
    {
      "name": "Box001_1_2_positions",
      "componentType": 5126,
      "count": 12,
      "min": [
        -4.24399995803833,
        -1.426300048828125,
        0.48489999771118164
      ],
      "max": [
        4.099100112915039,
        1.4287999868392944,
        1.2371000051498413
      ],
      "type": "VEC3",
      "bufferView": 0,
      "byteOffset": 840
    },
    {
      "name": "Box001_1_2_normals",
      "componentType": 5126,
      "count": 12,
      "min": [
        0,
        -1,
        0
      ],
      "max": [
        1,
        1,
        0
      ],
      "type": "VEC3",
      "bufferView": 1,
      "byteOffset": 840
    },
    {
      "name": "Box001_1_2_texcoords",
      "componentType": 5126,
      "count": 12,
      "min": [
        -5.506100177764893,
        0.12870000302791595
      ],
      "max": [
        6.506100177764893,
        0.8712999820709229
      ],
      "type": "VEC2",
      "bufferView": 2,
      "byteOffset": 560
    },
    {
      "name": "Box001_1_2_indices",
      "componentType": 5123,
      "count": 18,
      "min": [
        0
      ],
      "max": [
        11
      ],
      "type": "SCALAR",
      "bufferView": 3,
      "byteOffset": 264
    }
  ],
  "asset": {
    "generator": "obj2gltf",
    "version": "2.0"
  },
  "buffers": [
    {
      "name": "Q11",
      "byteLength": 2924,
      "uri": "data:application/octet-stream;base64,"
    }
  ],
  "bufferViews": [
    {
      "name": "bufferView_0",
      "buffer": 0,
      "byteLength": 984,
      "byteOffset": 0,
      "byteStride": 12,
      "target": 34962
    },
    {
      "name": "bufferView_1",
      "buffer": 0,
      "byteLength": 984,
      "byteOffset": 984,
      "byteStride": 12,
      "target": 34962
    },
    {
      "name": "bufferView_2",
      "buffer": 0,
      "byteLength": 656,
      "byteOffset": 1968,
      "byteStride": 8,
      "target": 34962
    },
    {
      "name": "bufferView_3",
      "buffer": 0,
      "byteLength": 300,
      "byteOffset": 2624,
      "target": 34963
    }
  ],
  "images": [
    {
      "name": "SGY_Q1_010",
      "uri": "SGY_Q1_010.jpg"
    },
    {
      "name": "SGY_q1_058",
      "uri": "SGY_q1_058.jpg"
    },
    {
      "name": "SGY_Q5_004",
      "uri": "SGY_Q5_004.png"
    }
  ],
  "materials": [
    {
      "name": "Material__26",
      "pbrMetallicRoughness": {
        "baseColorTexture": {
          "index": 0
        },
        "baseColorFactor": [
          1,
          1,
          1,
          1
        ],
        "metallicFactor": 0,
        "roughnessFactor": 0.99
      },
      "emissiveFactor": [
        0,
        0,
        0
      ],
      "alphaMode": "OPAQUE",
      "doubleSided": false
    },
    {
      "name": "Material__39",
      "pbrMetallicRoughness": {
        "baseColorTexture": {
          "index": 1
        },
        "baseColorFactor": [
          1,
          1,
          1,
          1
        ],
        "metallicFactor": 0,
        "roughnessFactor": 0.99
      },
      "emissiveFactor": [
        0,
        0,
        0
      ],
      "alphaMode": "OPAQUE",
      "doubleSided": false
    },
    {
      "name": "Material__25",
      "pbrMetallicRoughness": {
        "baseColorTexture": {
          "index": 2
        },
        "baseColorFactor": [
          1,
          1,
          1,
          1
        ],
        "metallicFactor": 0,
        "roughnessFactor": 0.99
      },
      "emissiveFactor": [
        0,
        0,
        0
      ],
      "alphaMode": "BLEND",
      "doubleSided": true
    }
  ],
  "meshes": [
    {
      "name": "Box001_1",
      "primitives": [
        {
          "attributes": {
            "POSITION": 0,
            "NORMAL": 1,
            "TEXCOORD_0": 2
          },
          "indices": 3,
          "material": 0,
          "mode": 4
        },
        {
          "attributes": {
            "POSITION": 4,
            "NORMAL": 5,
            "TEXCOORD_0": 6
          },
          "indices": 7,
          "material": 1,
          "mode": 4
        },
        {
          "attributes": {
            "POSITION": 8,
            "NORMAL": 9,
            "TEXCOORD_0": 10
          },
          "indices": 11,
          "material": 2,
          "mode": 4
        }
      ]
    }
  ],
  "nodes": [
    {
      "name": "Box001",
      "mesh": 0
    }
  ],
  "samplers": [
    {
      "wrapS": 10497,
      "wrapT": 10497
    }
  ],
  "scene": 0,
  "scenes": [
    {
      "nodes": [
        0
      ]
    }
  ],
  "textures": [
    {
      "name": "SGY_Q1_010",
      "sampler": 0,
      "source": 0
    },
    {
      "name": "SGY_q1_058",
      "sampler": 0,
      "source": 1
    },
    {
      "name": "SGY_Q5_004",
      "sampler": 0,
      "source": 2
    }
  ]
}
