{
  "accessors": [
    {
      "name": "Object003_1_0_positions",
      "componentType": 5126,
      "count": 16,
      "min": [
        5.88129997253418,
        -18.818599700927734,
        0
      ],
      "max": [
        15.889699935913086,
        18.814699172973633,
        5.776599884033203
      ],
      "type": "VEC3",
      "bufferView": 0,
      "byteOffset": 0
    },
    {
      "name": "Object003_1_0_normals",
      "componentType": 5126,
      "count": 16,
      "min": [
        0,
        -1,
        0
      ],
      "max": [
        1,
        1,
        0.00009999999747378752
      ],
      "type": "VEC3",
      "bufferView": 1,
      "byteOffset": 0
    },
    {
      "name": "Object003_1_0_texcoords",
      "componentType": 5126,
      "count": 16,
      "min": [
        -0.6100999712944031,
        0
      ],
      "max": [
        1.597000002861023,
        1
      ],
      "type": "VEC2",
      "bufferView": 2,
      "byteOffset": 0
    },
    {
      "name": "Object003_1_0_indices",
      "componentType": 5123,
      "count": 24,
      "min": [
        0
      ],
      "max": [
        15
      ],
      "type": "SCALAR",
      "bufferView": 3,
      "byteOffset": 0
    },
    {
      "name": "Object003_1_1_positions",
      "componentType": 5126,
      "count": 134,
      "min": [
        -16.663400650024414,
        -19.792800903320312,
        0
      ],
      "max": [
        16.662399291992188,
        19.792800903320312,
        26.290000915527344
      ],
      "type": "VEC3",
      "bufferView": 0,
      "byteOffset": 192
    },
    {
      "name": "Object003_1_1_normals",
      "componentType": 5126,
      "count": 134,
      "min": [
        -1,
        -1,
        0
      ],
      "max": [
        1,
        0,
        0.000599999912083149
      ],
      "type": "VEC3",
      "bufferView": 1,
      "byteOffset": 192
    },
    {
      "name": "Object003_1_1_texcoords",
      "componentType": 5126,
      "count": 134,
      "min": [
        0,
        -0.09939999878406525
      ],
      "max": [
        1,
        1.0384000539779663
      ],
      "type": "VEC2",
      "bufferView": 2,
      "byteOffset": 128
    },
    {
      "name": "Object003_1_1_indices",
      "componentType": 5123,
      "count": 210,
      "min": [
        0
      ],
      "max": [
        133
      ],
      "type": "SCALAR",
      "bufferView": 3,
      "byteOffset": 48
    },
    {
      "name": "Object003_1_2_positions",
      "componentType": 5126,
      "count": 421,
      "min": [
        -16.66200065612793,
        -19.792800903320312,
        0
      ],
      "max": [
        16.663799285888672,
        19.792800903320312,
        26.291200637817383
      ],
      "type": "VEC3",
      "bufferView": 0,
      "byteOffset": 1800
    },
    {
      "name": "Object003_1_2_normals",
      "componentType": 5126,
      "count": 421,
      "min": [
        -1,
        -1,
        -1
      ],
      "max": [
        1,
        1,
        1
      ],
      "type": "VEC3",
      "bufferView": 1,
      "byteOffset": 1800
    },
    {
      "name": "Object003_1_2_texcoords",
      "componentType": 5126,
      "count": 421,
      "min": [
        -1.9911999702453613,
        -1.0269999504089355
      ],
      "max": [
        2.518899917602539,
        2.0032999515533447
      ],
      "type": "VEC2",
      "bufferView": 2,
      "byteOffset": 1200
    },
    {
      "name": "Object003_1_2_indices",
      "componentType": 5123,
      "count": 654,
      "min": [
        0
      ],
      "max": [
        420
      ],
      "type": "SCALAR",
      "bufferView": 3,
      "byteOffset": 468
    },
    {
      "name": "Object003_1_3_positions",
      "componentType": 5126,
      "count": 16,
      "min": [
        -16.663299560546875,
        -19.792800903320312,
        9.789799690246582
      ],
      "max": [
        16.663299560546875,
        8.535400390625,
        24.651599884033203
      ],
      "type": "VEC3",
      "bufferView": 0,
      "byteOffset": 6852
    },
    {
      "name": "Object003_1_3_normals",
      "componentType": 5126,
      "count": 16,
      "min": [
        -1,
        -1,
        0
      ],
      "max": [
        0,
        0,
        0.00009999999747378752
      ],
      "type": "VEC3",
      "bufferView": 1,
      "byteOffset": 6852
    },
    {
      "name": "Object003_1_3_texcoords",
      "componentType": 5126,
      "count": 16,
      "min": [
        0,
        -1.8626999855041504
      ],
      "max": [
        2.9244000911712646,
        2.919800043106079
      ],
      "type": "VEC2",
      "bufferView": 2,
      "byteOffset": 4568
    },
    {
      "name": "Object003_1_3_indices",
      "componentType": 5123,
      "count": 24,
      "min": [
        0
      ],
      "max": [
        15
      ],
      "type": "SCALAR",
      "bufferView": 3,
      "byteOffset": 1776
    },
    {
      "name": "Object003_1_4_positions",
      "componentType": 5126,
      "count": 4,
      "min": [
        16.66309928894043,
        -19.792699813842773,
        5.299799919128418
      ],
      "max": [
        16.663799285888672,
        -8.41510009765625,
        9.789799690246582
      ],
      "type": "VEC3",
      "bufferView": 0,
      "byteOffset": 7044
    },
    {
      "name": "Object003_1_4_normals",
      "componentType": 5126,
      "count": 4,
      "min": [
        1,
        0,
        0.00009999999747378752
      ],
      "max": [
        1,
        0,
        0.00009999999747378752
      ],
      "type": "VEC3",
      "bufferView": 1,
      "byteOffset": 7044
    },
    {
      "name": "Object003_1_4_texcoords",
      "componentType": 5126,
      "count": 4,
      "min": [
        0,
        0
      ],
      "max": [
        1,
        1
      ],
      "type": "VEC2",
      "bufferView": 2,
      "byteOffset": 4696
    },
    {
      "name": "Object003_1_4_indices",
      "componentType": 5123,
      "count": 6,
      "min": [
        0
      ],
      "max": [
        3
      ],
      "type": "SCALAR",
      "bufferView": 3,
      "byteOffset": 1824
    },
    {
      "name": "Object003_1_5_positions",
      "componentType": 5126,
      "count": 48,
      "min": [
        -16.663700103759766,
        -19.792800903320312,
        0
      ],
      "max": [
        16.663799285888672,
        19.75119972229004,
        25.243999481201172
      ],
      "type": "VEC3",
      "bufferView": 0,
      "byteOffset": 7092
    },
    {
      "name": "Object003_1_5_normals",
      "componentType": 5126,
      "count": 48,
      "min": [
        -1,
        -1,
        0
      ],
      "max": [
        0,
        1,
        0.00009999999747378752
      ],
      "type": "VEC3",
      "bufferView": 1,
      "byteOffset": 7092
    },
    {
      "name": "Object003_1_5_texcoords",
      "componentType": 5126,
      "count": 48,
      "min": [
        0,
        -2.0720999240875244
      ],
      "max": [
        1.9341000318527222,
        3.0213000774383545
      ],
      "type": "VEC2",
      "bufferView": 2,
      "byteOffset": 4728
    },
    {
      "name": "Object003_1_5_indices",
      "componentType": 5123,
      "count": 72,
      "min": [
        0
      ],
      "max": [
        47
      ],
      "type": "SCALAR",
      "bufferView": 3,
      "byteOffset": 1836
    },
    {
      "name": "Object003_1_6_positions",
      "componentType": 5126,
      "count": 4,
      "min": [
        16.662200927734375,
        -19.792800903320312,
        9.774399757385254
      ],
      "max": [
        16.663299560546875,
        -8.415300369262695,
        24.650400161743164
      ],
      "type": "VEC3",
      "bufferView": 0,
      "byteOffset": 7668
    },
    {
      "name": "Object003_1_6_normals",
      "componentType": 5126,
      "count": 4,
      "min": [
        1,
        0,
        0
      ],
      "max": [
        1,
        0,
        0.00009999999747378752
      ],
      "type": "VEC3",
      "bufferView": 1,
      "byteOffset": 7668
    },
    {
      "name": "Object003_1_6_texcoords",
      "componentType": 5126,
      "count": 4,
      "min": [
        0,
        -0.9298999905586243
      ],
      "max": [
        1,
        2.947499990463257
      ],
      "type": "VEC2",
      "bufferView": 2,
      "byteOffset": 5112
    },
    {
      "name": "Object003_1_6_indices",
      "componentType": 5123,
      "count": 6,
      "min": [
        0
      ],
      "max": [
        3
      ],
      "type": "SCALAR",
      "bufferView": 3,
      "byteOffset": 1980
    },
    {
      "name": "Object003_1_7_positions",
      "componentType": 5126,
      "count": 32,
      "min": [
        -16.663700103759766,
        -19.792800903320312,
        0
      ],
      "max": [
        5.962800025939941,
        19.750900268554688,
        25.244800567626953
      ],
      "type": "VEC3",
      "bufferView": 0,
      "byteOffset": 7716
    },
    {
      "name": "Object003_1_7_normals",
      "componentType": 5126,
      "count": 32,
      "min": [
        -1,
        -1,
        0
      ],
      "max": [
        0,
        1,
        0.00009999999747378752
      ],
      "type": "VEC3",
      "bufferView": 1,
      "byteOffset": 7716
    },
    {
      "name": "Object003_1_7_texcoords",
      "componentType": 5126,
      "count": 32,
      "min": [
        0,
        -2.061199903488159
      ],
      "max": [
        1,
        4.075300216674805
      ],
      "type": "VEC2",
      "bufferView": 2,
      "byteOffset": 5144
    },
    {
      "name": "Object003_1_7_indices",
      "componentType": 5123,
      "count": 48,
      "min": [
        0
      ],
      "max": [
        31
      ],
      "type": "SCALAR",
      "bufferView": 3,
      "byteOffset": 1992
    },
    {
      "name": "Object003_1_8_positions",
      "componentType": 5126,
      "count": 1154,
      "min": [
        -19.46179962158203,
        -18.960899353027344,
        0.0010999999940395355
      ],
      "max": [
        5.907400131225586,
        19.201900482177734,
        24.929000854492188
      ],
      "type": "VEC3",
      "bufferView": 0,
      "byteOffset": 8100
    },
    {
      "name": "Object003_1_8_normals",
      "componentType": 5126,
      "count": 1154,
      "min": [
        -1,
        -1,
        -1
      ],
      "max": [
        1,
        1,
        1
      ],
      "type": "VEC3",
      "bufferView": 1,
      "byteOffset": 8100
    },
    {
      "name": "Object003_1_8_texcoords",
      "componentType": 5126,
      "count": 1154,
      "min": [
        0,
        0
      ],
      "max": [
        1.009600043296814,
        1.0461000204086304
      ],
      "type": "VEC2",
      "bufferView": 2,
      "byteOffset": 5400
    },
    {
      "name": "Object003_1_8_indices",
      "componentType": 5123,
      "count": 2034,
      "min": [
        0
      ],
      "max": [
        1153
      ],
      "type": "SCALAR",
      "bufferView": 3,
      "byteOffset": 2088
    },
    {
      "name": "Object003_1_9_positions",
      "componentType": 5126,
      "count": 16,
      "min": [
        -16.663799285888672,
        -19.792699813842773,
        0
      ],
      "max": [
        -4.529600143432617,
        8.535499572753906,
        5.895500183105469
      ],
      "type": "VEC3",
      "bufferView": 0,
      "byteOffset": 21948
    },
    {
      "name": "Object003_1_9_normals",
      "componentType": 5126,
      "count": 16,
      "min": [
        -1,
        -1,
        0
      ],
      "max": [
        0,
        0,
        0
      ],
      "type": "VEC3",
      "bufferView": 1,
      "byteOffset": 21948
    },
    {
      "name": "Object003_1_9_texcoords",
      "componentType": 5126,
      "count": 16,
      "min": [
        0.00989999994635582,
        -0.05559999868273735
      ],
      "max": [
        2.359800100326538,
        0.9089999794960022
      ],
      "type": "VEC2",
      "bufferView": 2,
      "byteOffset": 14632
    },
    {
      "name": "Object003_1_9_indices",
      "componentType": 5123,
      "count": 24,
      "min": [
        0
      ],
      "max": [
        15
      ],
      "type": "SCALAR",
      "bufferView": 3,
      "byteOffset": 6156
    }
  ],
  "asset": {
    "generator": "obj2gltf",
    "version": "2.0"
  },
  "buffers": [
    {
      "name": "Q9",
      "byteLength": 65244,
      "uri": "data:application/octet-stream;base64,"
    }
  ],
  "bufferViews": [
    {
      "name": "bufferView_0",
      "buffer": 0,
      "byteLength": 22140,
      "byteOffset": 0,
      "byteStride": 12,
      "target": 34962
    },
    {
      "name": "bufferView_1",
      "buffer": 0,
      "byteLength": 22140,
      "byteOffset": 22140,
      "byteStride": 12,
      "target": 34962
    },
    {
      "name": "bufferView_2",
      "buffer": 0,
      "byteLength": 14760,
      "byteOffset": 44280,
      "byteStride": 8,
      "target": 34962
    },
    {
      "name": "bufferView_3",
      "buffer": 0,
      "byteLength": 6204,
      "byteOffset": 59040,
      "target": 34963
    }
  ],
  "images": [
    {
      "name": "SGY_q1_037",
      "uri": "SGY_q1_037.jpg"
    },
    {
      "name": "SGY_q1_070",
      "uri": "SGY_q1_070.jpg"
    },
    {
      "name": "SGY_q1_085",
      "uri": "SGY_q1_085.jpg"
    },
    {
      "name": "SGY_q1_087",
      "uri": "SGY_q1_087.jpg"
    },
    {
      "name": "SGY_q1_084",
      "uri": "SGY_q1_084.jpg"
    },
    {
      "name": "SGY_q1_086",
      "uri": "SGY_q1_086.jpg"
    },
    {
      "name": "SGY_q1_083",
      "uri": "SGY_q1_083.jpg"
    },
    {
      "name": "SGY_q1_062",
      "uri": "SGY_q1_062.jpg"
    },
    {
      "name": "SGY_Q1_009",
      "uri": "SGY_Q1_009.png"
    },
    {
      "name": "SGY_q1_088",
      "uri": "SGY_q1_088.jpg"
    }
  ],
  "materials": [
    {
      "name": "Material__43",
      "pbrMetallicRoughness": {
        "baseColorTexture": {
          "index": 0
        },
        "baseColorFactor": [
          1,
          1,
          1,
          1
        ],
        "metallicFactor": 0,
        "roughnessFactor": 0.99
      },
      "emissiveFactor": [
        0,
        0,
        0
      ],
      "alphaMode": "OPAQUE",
      "doubleSided": false
    },
    {
      "name": "Material__1161",
      "pbrMetallicRoughness": {
        "baseColorTexture": {
          "index": 1
        },
        "baseColorFactor": [
          1,
          1,
          1,
          1
        ],
        "metallicFactor": 0,
        "roughnessFactor": 0.99
      },
      "emissiveFactor": [
        0,
        0,
        0
      ],
      "alphaMode": "OPAQUE",
      "doubleSided": false
    },
    {
      "name": "Material__1082",
      "pbrMetallicRoughness": {
        "baseColorTexture": {
          "index": 2
        },
        "baseColorFactor": [
          1,
          1,
          1,
          1
        ],
        "metallicFactor": 0,
        "roughnessFactor": 0.99
      },
      "emissiveFactor": [
        0,
        0,
        0
      ],
      "alphaMode": "OPAQUE",
      "doubleSided": false
    },
    {
      "name": "Material__1121",
      "pbrMetallicRoughness": {
        "baseColorTexture": {
          "index": 3
        },
        "baseColorFactor": [
          1,
          1,
          1,
          1
        ],
        "metallicFactor": 0,
        "roughnessFactor": 0.99
      },
      "emissiveFactor": [
        0,
        0,
        0
      ],
      "alphaMode": "OPAQUE",
      "doubleSided": false
    },
    {
      "name": "Material__1062",
      "pbrMetallicRoughness": {
        "baseColorTexture": {
          "index": 4
        },
        "baseColorFactor": [
          1,
          1,
          1,
          1
        ],
        "metallicFactor": 0,
        "roughnessFactor": 0.99
      },
      "emissiveFactor": [
        0,
        0,
        0
      ],
      "alphaMode": "OPAQUE",
      "doubleSided": false
    },
    {
      "name": "Material__1141",
      "pbrMetallicRoughness": {
        "baseColorTexture": {
          "index": 5
        },
        "baseColorFactor": [
          1,
          1,
          1,
          1
        ],
        "metallicFactor": 0,
        "roughnessFactor": 0.99
      },
      "emissiveFactor": [
        0,
        0,
        0
      ],
      "alphaMode": "OPAQUE",
      "doubleSided": false
    },
    {
      "name": "Material__1022",
      "pbrMetallicRoughness": {
        "baseColorTexture": {
          "index": 6
        },
        "baseColorFactor": [
          1,
          1,
          1,
          1
        ],
        "metallicFactor": 0,
        "roughnessFactor": 0.99
      },
      "emissiveFactor": [
        0,
        0,
        0
      ],
      "alphaMode": "OPAQUE",
      "doubleSided": false
    },
    {
      "name": "Material__1219",
      "pbrMetallicRoughness": {
        "baseColorTexture": {
          "index": 7
        },
        "baseColorFactor": [
          1,
          1,
          1,
          1
        ],
        "metallicFactor": 0,
        "roughnessFactor": 0.99
      },
      "emissiveFactor": [
        0,
        0,
        0
      ],
      "alphaMode": "OPAQUE",
      "doubleSided": false
    },
    {
      "name": "Material__1976",
      "pbrMetallicRoughness": {
        "baseColorTexture": {
          "index": 8
        },
        "baseColorFactor": [
          1,
          1,
          1,
          1
        ],
        "metallicFactor": 0,
        "roughnessFactor": 0.99
      },
      "emissiveFactor": [
        0,
        0,
        0
      ],
      "alphaMode": "OPAQUE",
      "doubleSided": false
    },
    {
      "name": "Material__1668",
      "pbrMetallicRoughness": {
        "baseColorTexture": {
          "index": 9
        },
        "baseColorFactor": [
          1,
          1,
          1,
          1
        ],
        "metallicFactor": 0,
        "roughnessFactor": 0.99
      },
      "emissiveFactor": [
        0,
        0,
        0
      ],
      "alphaMode": "OPAQUE",
      "doubleSided": false
    }
  ],
  "meshes": [
    {
      "name": "Object003_1",
      "primitives": [
        {
          "attributes": {
            "POSITION": 0,
            "NORMAL": 1,
            "TEXCOORD_0": 2
          },
          "indices": 3,
          "material": 0,
          "mode": 4
        },
        {
          "attributes": {
            "POSITION": 4,
            "NORMAL": 5,
            "TEXCOORD_0": 6
          },
          "indices": 7,
          "material": 1,
          "mode": 4
        },
        {
          "attributes": {
            "POSITION": 8,
            "NORMAL": 9,
            "TEXCOORD_0": 10
          },
          "indices": 11,
          "material": 2,
          "mode": 4
        },
        {
          "attributes": {
            "POSITION": 12,
            "NORMAL": 13,
            "TEXCOORD_0": 14
          },
          "indices": 15,
          "material": 3,
          "mode": 4
        },
        {
          "attributes": {
            "POSITION": 16,
            "NORMAL": 17,
            "TEXCOORD_0": 18
          },
          "indices": 19,
          "material": 4,
          "mode": 4
        },
        {
          "attributes": {
            "POSITION": 20,
            "NORMAL": 21,
            "TEXCOORD_0": 22
          },
          "indices": 23,
          "material": 5,
          "mode": 4
        },
        {
          "attributes": {
            "POSITION": 24,
            "NORMAL": 25,
            "TEXCOORD_0": 26
          },
          "indices": 27,
          "material": 6,
          "mode": 4
        },
        {
          "attributes": {
            "POSITION": 28,
            "NORMAL": 29,
            "TEXCOORD_0": 30
          },
          "indices": 31,
          "material": 7,
          "mode": 4
        },
        {
          "attributes": {
            "POSITION": 32,
            "NORMAL": 33,
            "TEXCOORD_0": 34
          },
          "indices": 35,
          "material": 8,
          "mode": 4
        },
        {
          "attributes": {
            "POSITION": 36,
            "NORMAL": 37,
            "TEXCOORD_0": 38
          },
          "indices": 39,
          "material": 9,
          "mode": 4
        }
      ]
    }
  ],
  "nodes": [
    {
      "name": "Object003",
      "mesh": 0
    }
  ],
  "samplers": [
    {
      "wrapS": 10497,
      "wrapT": 10497
    }
  ],
  "scene": 0,
  "scenes": [
    {
      "nodes": [
        0
      ]
    }
  ],
  "textures": [
    {
      "name": "SGY_q1_037",
      "sampler": 0,
      "source": 0
    },
    {
      "name": "SGY_q1_070",
      "sampler": 0,
      "source": 1
    },
    {
      "name": "SGY_q1_085",
      "sampler": 0,
      "source": 2
    },
    {
      "name": "SGY_q1_087",
      "sampler": 0,
      "source": 3
    },
    {
      "name": "SGY_q1_084",
      "sampler": 0,
      "source": 4
    },
    {
      "name": "SGY_q1_086",
      "sampler": 0,
      "source": 5
    },
    {
      "name": "SGY_q1_083",
      "sampler": 0,
      "source": 6
    },
    {
      "name": "SGY_q1_062",
      "sampler": 0,
      "source": 7
    },
    {
      "name": "SGY_Q1_009",
      "sampler": 0,
      "source": 8
    },
    {
      "name": "SGY_q1_088",
      "sampler": 0,
      "source": 9
    }
  ]
}
