{
  "accessors": [
    {
      "name": "Box056_1_0_positions",
      "componentType": 5126,
      "count": 335,
      "min": [
        -64.71440124511719,
        -10.748800277709961,
        3.8547000885009766
      ],
      "max": [
        64.71440124511719,
        16.480899810791016,
        30.070600509643555
      ],
      "type": "VEC3",
      "bufferView": 0,
      "byteOffset": 0
    },
    {
      "name": "Box056_1_0_normals",
      "componentType": 5126,
      "count": 335,
      "min": [
        -1,
        -1,
        -1
      ],
      "max": [
        1,
        1,
        1
      ],
      "type": "VEC3",
      "bufferView": 1,
      "byteOffset": 0
    },
    {
      "name": "Box056_1_0_texcoords",
      "componentType": 5126,
      "count": 335,
      "min": [
        -7.147799968719482,
        -1.0951000452041626
      ],
      "max": [
        8.14780044555664,
        4.153800010681152
      ],
      "type": "VEC2",
      "bufferView": 2,
      "byteOffset": 0
    },
    {
      "name": "Box056_1_0_indices",
      "componentType": 5123,
      "count": 576,
      "min": [
        0
      ],
      "max": [
        334
      ],
      "type": "SCALAR",
      "bufferView": 3,
      "byteOffset": 0
    },
    {
      "name": "Box056_1_1_positions",
      "componentType": 5126,
      "count": 489,
      "min": [
        -61.71440124511719,
        -16.480899810791016,
        0
      ],
      "max": [
        63.22949981689453,
        16.480899810791016,
        53.51449966430664
      ],
      "type": "VEC3",
      "bufferView": 0,
      "byteOffset": 4020
    },
    {
      "name": "Box056_1_1_normals",
      "componentType": 5126,
      "count": 489,
      "min": [
        -1,
        -1,
        0
      ],
      "max": [
        1,
        1,
        1
      ],
      "type": "VEC3",
      "bufferView": 1,
      "byteOffset": 4020
    },
    {
      "name": "Box056_1_1_texcoords",
      "componentType": 5126,
      "count": 489,
      "min": [
        -6.726200103759766,
        -1.6930999755859375
      ],
      "max": [
        7.973100185394287,
        5.189799785614014
      ],
      "type": "VEC2",
      "bufferView": 2,
      "byteOffset": 2680
    },
    {
      "name": "Box056_1_1_indices",
      "componentType": 5123,
      "count": 894,
      "min": [
        0
      ],
      "max": [
        488
      ],
      "type": "SCALAR",
      "bufferView": 3,
      "byteOffset": 1152
    },
    {
      "name": "Box056_1_2_positions",
      "componentType": 5126,
      "count": 78,
      "min": [
        -61.71440124511719,
        -10.748800277709961,
        3.8547000885009766
      ],
      "max": [
        25.998199462890625,
        16.480899810791016,
        21.61370086669922
      ],
      "type": "VEC3",
      "bufferView": 0,
      "byteOffset": 9888
    },
    {
      "name": "Box056_1_2_normals",
      "componentType": 5126,
      "count": 78,
      "min": [
        -1,
        -1,
        0
      ],
      "max": [
        1,
        1,
        0
      ],
      "type": "VEC3",
      "bufferView": 1,
      "byteOffset": 9888
    },
    {
      "name": "Box056_1_2_texcoords",
      "componentType": 5126,
      "count": 78,
      "min": [
        -6.556700229644775,
        2.052799940109253
      ],
      "max": [
        7.086699962615967,
        4.153800010681152
      ],
      "type": "VEC2",
      "bufferView": 2,
      "byteOffset": 6592
    },
    {
      "name": "Box056_1_2_indices",
      "componentType": 5123,
      "count": 120,
      "min": [
        0
      ],
      "max": [
        77
      ],
      "type": "SCALAR",
      "bufferView": 3,
      "byteOffset": 2940
    },
    {
      "name": "Box056_1_3_positions",
      "componentType": 5126,
      "count": 234,
      "min": [
        26.691999435424805,
        -16.480899810791016,
        3.8547000885009766
      ],
      "max": [
        63.22949981689453,
        11.966500282287598,
        49.73720169067383
      ],
      "type": "VEC3",
      "bufferView": 0,
      "byteOffset": 10824
    },
    {
      "name": "Box056_1_3_normals",
      "componentType": 5126,
      "count": 234,
      "min": [
        -0.8598835468292236,
        -0.870925784111023,
        0
      ],
      "max": [
        0.8603646159172058,
        0.8765661716461182,
        0
      ],
      "type": "VEC3",
      "bufferView": 1,
      "byteOffset": 10824
    },
    {
      "name": "Box056_1_3_texcoords",
      "componentType": 5126,
      "count": 234,
      "min": [
        -0.9922999739646912,
        -0.9980999827384949
      ],
      "max": [
        7.276800155639648,
        5.189799785614014
      ],
      "type": "VEC2",
      "bufferView": 2,
      "byteOffset": 7216
    },
    {
      "name": "Box056_1_3_indices",
      "componentType": 5123,
      "count": 345,
      "min": [
        0
      ],
      "max": [
        233
      ],
      "type": "SCALAR",
      "bufferView": 3,
      "byteOffset": 3180
    },
    {
      "name": "Box056_1_4_positions",
      "componentType": 5126,
      "count": 46,
      "min": [
        48.28379821777344,
        1.3839999437332153,
        0
      ],
      "max": [
        64.71440124511719,
        12.24590015411377,
        28.688499450683594
      ],
      "type": "VEC3",
      "bufferView": 0,
      "byteOffset": 13632
    },
    {
      "name": "Box056_1_4_normals",
      "componentType": 5126,
      "count": 46,
      "min": [
        -0.8598135709762573,
        -0.5096790194511414,
        0
      ],
      "max": [
        0.8603646159172058,
        0.8753339648246765,
        0
      ],
      "type": "VEC3",
      "bufferView": 1,
      "byteOffset": 13632
    },
    {
      "name": "Box056_1_4_texcoords",
      "componentType": 5126,
      "count": 46,
      "min": [
        -4.997799873352051,
        -3.577199935913086
      ],
      "max": [
        0.5410000085830688,
        4.970600128173828
      ],
      "type": "VEC2",
      "bufferView": 2,
      "byteOffset": 9088
    },
    {
      "name": "Box056_1_4_indices",
      "componentType": 5123,
      "count": 72,
      "min": [
        0
      ],
      "max": [
        45
      ],
      "type": "SCALAR",
      "bufferView": 3,
      "byteOffset": 3872
    },
    {
      "name": "Box056_1_5_positions",
      "componentType": 5126,
      "count": 8,
      "min": [
        -64.71440124511719,
        0.9927999973297119,
        3.8547000885009766
      ],
      "max": [
        -46.481998443603516,
        15.65470027923584,
        12.809000015258789
      ],
      "type": "VEC3",
      "bufferView": 0,
      "byteOffset": 14184
    },
    {
      "name": "Box056_1_5_normals",
      "componentType": 5126,
      "count": 8,
      "min": [
        -1,
        0,
        0
      ],
      "max": [
        0,
        1,
        0
      ],
      "type": "VEC3",
      "bufferView": 1,
      "byteOffset": 14184
    },
    {
      "name": "Box056_1_5_texcoords",
      "componentType": 5126,
      "count": 8,
      "min": [
        -1.3564000129699707,
        2.9670000076293945
      ],
      "max": [
        8.341400146484375,
        4.020500183105469
      ],
      "type": "VEC2",
      "bufferView": 2,
      "byteOffset": 9456
    },
    {
      "name": "Box056_1_5_indices",
      "componentType": 5123,
      "count": 12,
      "min": [
        0
      ],
      "max": [
        7
      ],
      "type": "SCALAR",
      "bufferView": 3,
      "byteOffset": 4016
    },
    {
      "name": "Box056_1_6_positions",
      "componentType": 5126,
      "count": 64,
      "min": [
        -14.916299819946289,
        9.240400314331055,
        3.8547000885009766
      ],
      "max": [
        -1.2259000539779663,
        16.147499084472656,
        23.080799102783203
      ],
      "type": "VEC3",
      "bufferView": 0,
      "byteOffset": 14280
    },
    {
      "name": "Box056_1_6_normals",
      "componentType": 5126,
      "count": 64,
      "min": [
        -1,
        -1,
        0
      ],
      "max": [
        1,
        1,
        0
      ],
      "type": "VEC3",
      "bufferView": 1,
      "byteOffset": 14280
    },
    {
      "name": "Box056_1_6_texcoords",
      "componentType": 5126,
      "count": 64,
      "min": [
        0.24060000479221344,
        -0.7574999928474426
      ],
      "max": [
        0.9492999911308289,
        1.4811999797821045
      ],
      "type": "VEC2",
      "bufferView": 2,
      "byteOffset": 9520
    },
    {
      "name": "Box056_1_6_indices",
      "componentType": 5123,
      "count": 144,
      "min": [
        0
      ],
      "max": [
        63
      ],
      "type": "SCALAR",
      "bufferView": 3,
      "byteOffset": 4040
    }
  ],
  "asset": {
    "generator": "obj2gltf",
    "version": "2.0"
  },
  "buffers": [
    {
      "name": "2_jz10",
      "byteLength": 44456,
      "uri": "data:application/octet-stream;base64,"
    }
  ],
  "bufferViews": [
    {
      "name": "bufferView_0",
      "buffer": 0,
      "byteLength": 15048,
      "byteOffset": 0,
      "byteStride": 12,
      "target": 34962
    },
    {
      "name": "bufferView_1",
      "buffer": 0,
      "byteLength": 15048,
      "byteOffset": 15048,
      "byteStride": 12,
      "target": 34962
    },
    {
      "name": "bufferView_2",
      "buffer": 0,
      "byteLength": 10032,
      "byteOffset": 30096,
      "byteStride": 8,
      "target": 34962
    },
    {
      "name": "bufferView_3",
      "buffer": 0,
      "byteLength": 4328,
      "byteOffset": 40128,
      "target": 34963
    }
  ],
  "images": [
    {
      "name": "SGY_Q1_010",
      "uri": "SGY_Q1_010.jpg"
    },
    {
      "name": "sgy_2q_29",
      "uri": "sgy_2q_29.jpg"
    },
    {
      "name": "sgy_2q_32",
      "uri": "sgy_2q_32.jpg"
    },
    {
      "name": "sgy_2q_33",
      "uri": "sgy_2q_33.jpg"
    },
    {
      "name": "sgy_1q_19",
      "uri": "sgy_1q_19.jpg"
    },
    {
      "name": "sgy_2q_31",
      "uri": "sgy_2q_31.jpg"
    },
    {
      "name": "ftcxy_002",
      "uri": "ftcxy_002.jpg"
    }
  ],
  "materials": [
    {
      "name": "Material__1034",
      "pbrMetallicRoughness": {
        "baseColorTexture": {
          "index": 0
        },
        "baseColorFactor": [
          1,
          1,
          1,
          1
        ],
        "metallicFactor": 0,
        "roughnessFactor": 0.99
      },
      "emissiveFactor": [
        0,
        0,
        0
      ],
      "alphaMode": "OPAQUE",
      "doubleSided": false
    },
    {
      "name": "Material__1057",
      "pbrMetallicRoughness": {
        "baseColorTexture": {
          "index": 1
        },
        "baseColorFactor": [
          1,
          1,
          1,
          1
        ],
        "metallicFactor": 0,
        "roughnessFactor": 0.99
      },
      "emissiveFactor": [
        0,
        0,
        0
      ],
      "alphaMode": "OPAQUE",
      "doubleSided": false
    },
    {
      "name": "Material__1081",
      "pbrMetallicRoughness": {
        "baseColorTexture": {
          "index": 2
        },
        "baseColorFactor": [
          1,
          1,
          1,
          1
        ],
        "metallicFactor": 0,
        "roughnessFactor": 0.99
      },
      "emissiveFactor": [
        0,
        0,
        0
      ],
      "alphaMode": "OPAQUE",
      "doubleSided": false
    },
    {
      "name": "Material__1162",
      "pbrMetallicRoughness": {
        "baseColorTexture": {
          "index": 3
        },
        "baseColorFactor": [
          1,
          1,
          1,
          1
        ],
        "metallicFactor": 0,
        "roughnessFactor": 0.99
      },
      "emissiveFactor": [
        0,
        0,
        0
      ],
      "alphaMode": "OPAQUE",
      "doubleSided": false
    },
    {
      "name": "Material__1150",
      "pbrMetallicRoughness": {
        "baseColorTexture": {
          "index": 4
        },
        "baseColorFactor": [
          1,
          1,
          1,
          1
        ],
        "metallicFactor": 0,
        "roughnessFactor": 0.99
      },
      "emissiveFactor": [
        0,
        0,
        0
      ],
      "alphaMode": "OPAQUE",
      "doubleSided": false
    },
    {
      "name": "Material__1069",
      "pbrMetallicRoughness": {
        "baseColorTexture": {
          "index": 5
        },
        "baseColorFactor": [
          1,
          1,
          1,
          1
        ],
        "metallicFactor": 0,
        "roughnessFactor": 0.99
      },
      "emissiveFactor": [
        0,
        0,
        0
      ],
      "alphaMode": "OPAQUE",
      "doubleSided": false
    },
    {
      "name": "Material__1149",
      "pbrMetallicRoughness": {
        "baseColorTexture": {
          "index": 6
        },
        "baseColorFactor": [
          1,
          1,
          1,
          1
        ],
        "metallicFactor": 0,
        "roughnessFactor": 0.99
      },
      "emissiveFactor": [
        0,
        0,
        0
      ],
      "alphaMode": "OPAQUE",
      "doubleSided": false
    }
  ],
  "meshes": [
    {
      "name": "Box056_1",
      "primitives": [
        {
          "attributes": {
            "POSITION": 0,
            "NORMAL": 1,
            "TEXCOORD_0": 2
          },
          "indices": 3,
          "material": 0,
          "mode": 4
        },
        {
          "attributes": {
            "POSITION": 4,
            "NORMAL": 5,
            "TEXCOORD_0": 6
          },
          "indices": 7,
          "material": 1,
          "mode": 4
        },
        {
          "attributes": {
            "POSITION": 8,
            "NORMAL": 9,
            "TEXCOORD_0": 10
          },
          "indices": 11,
          "material": 2,
          "mode": 4
        },
        {
          "attributes": {
            "POSITION": 12,
            "NORMAL": 13,
            "TEXCOORD_0": 14
          },
          "indices": 15,
          "material": 3,
          "mode": 4
        },
        {
          "attributes": {
            "POSITION": 16,
            "NORMAL": 17,
            "TEXCOORD_0": 18
          },
          "indices": 19,
          "material": 4,
          "mode": 4
        },
        {
          "attributes": {
            "POSITION": 20,
            "NORMAL": 21,
            "TEXCOORD_0": 22
          },
          "indices": 23,
          "material": 5,
          "mode": 4
        },
        {
          "attributes": {
            "POSITION": 24,
            "NORMAL": 25,
            "TEXCOORD_0": 26
          },
          "indices": 27,
          "material": 6,
          "mode": 4
        }
      ]
    }
  ],
  "nodes": [
    {
      "name": "Box056",
      "mesh": 0
    }
  ],
  "samplers": [
    {
      "wrapS": 10497,
      "wrapT": 10497
    }
  ],
  "scene": 0,
  "scenes": [
    {
      "nodes": [
        0
      ]
    }
  ],
  "textures": [
    {
      "name": "SGY_Q1_010",
      "sampler": 0,
      "source": 0
    },
    {
      "name": "sgy_2q_29",
      "sampler": 0,
      "source": 1
    },
    {
      "name": "sgy_2q_32",
      "sampler": 0,
      "source": 2
    },
    {
      "name": "sgy_2q_33",
      "sampler": 0,
      "source": 3
    },
    {
      "name": "sgy_1q_19",
      "sampler": 0,
      "source": 4
    },
    {
      "name": "sgy_2q_31",
      "sampler": 0,
      "source": 5
    },
    {
      "name": "ftcxy_002",
      "sampler": 0,
      "source": 6
    }
  ]
}
