{"asset":{"version":"2.0","generator":"babylon.js glTF exporter for 3dsmax 2022 v20240125.3"},"scene":0,"scenes":[{"nodes":[0]}],"nodes":[{"mesh":0,"name":"对象004"}],"meshes":[{"primitives":[{"attributes":{"POSITION":1,"NORMAL":2,"TEXCOORD_0":3},"indices":0,"material":0}],"name":"对象004"}],"accessors":[{"bufferView":0,"componentType":5123,"count":528,"type":"SCALAR","name":"accessorIndices"},{"bufferView":1,"componentType":5126,"count":528,"max":[4.32366943,4.727954,22.2200279],"min":[-4.32367134,-4.727956,-0.00414056424],"type":"VEC3","name":"accessorPositions"},{"bufferView":1,"byteOffset":6336,"componentType":5126,"count":528,"type":"VEC3","name":"accessorNormals"},{"bufferView":2,"componentType":5126,"count":528,"type":"VEC2","name":"accessorUVs"}],"bufferViews":[{"buffer":0,"byteLength":1056,"name":"bufferViewScalar"},{"buffer":0,"byteOffset":1056,"byteLength":12672,"byteStride":12,"name":"bufferViewFloatVec3"},{"buffer":0,"byteOffset":13728,"byteLength":4224,"byteStride":8,"name":"bufferViewFloatVec2"}],"buffers":[{"uri":"kts_003.bin","byteLength":17952}],"materials":[{"pbrMetallicRoughness":{"baseColorTexture":{"index":0},"metallicFactor":0.0,"roughnessFactor":0.450053632},"name":"Material #348"}],"textures":[{"sampler":0,"source":0,"name":"kts_003.jpg"}],"images":[{"uri":"kts_003.jpg"}],"samplers":[{"magFilter":9729,"minFilter":9987}]}