{
  "accessors": [
    {
      "name": "Box002_1_0_positions",
      "componentType": 5126,
      "count": 8,
      "min": [
        -3.0178000926971436,
        -14.512800216674805,
        24.790000915527344
      ],
      "max": [
        8.661100387573242,
        14.512800216674805,
        24.790000915527344
      ],
      "type": "VEC3",
      "bufferView": 0,
      "byteOffset": 0
    },
    {
      "name": "Box002_1_0_normals",
      "componentType": 5126,
      "count": 8,
      "min": [
        0,
        0,
        1
      ],
      "max": [
        0,
        0,
        1
      ],
      "type": "VEC3",
      "bufferView": 1,
      "byteOffset": 0
    },
    {
      "name": "Box002_1_0_texcoords",
      "componentType": 5126,
      "count": 8,
      "min": [
        0.01590000092983246,
        0
      ],
      "max": [
        1.027400016784668,
        1
      ],
      "type": "VEC2",
      "bufferView": 2,
      "byteOffset": 0
    },
    {
      "name": "Box002_1_0_indices",
      "componentType": 5123,
      "count": 12,
      "min": [
        0
      ],
      "max": [
        7
      ],
      "type": "SCALAR",
      "bufferView": 3,
      "byteOffset": 0
    },
    {
      "name": "Box002_1_1_positions",
      "componentType": 5126,
      "count": 54,
      "min": [
        -0.7793999910354614,
        -13.407299995422363,
        0.00019999999494757503
      ],
      "max": [
        7.942800045013428,
        13.413599967956543,
        23.328899383544922
      ],
      "type": "VEC3",
      "bufferView": 0,
      "byteOffset": 96
    },
    {
      "name": "Box002_1_1_normals",
      "componentType": 5126,
      "count": 54,
      "min": [
        -0.0006999998004175723,
        -1,
        -0.999995768070221
      ],
      "max": [
        0.9999966025352478,
        0.9999998807907104,
        0.9999998211860657
      ],
      "type": "VEC3",
      "bufferView": 1,
      "byteOffset": 96
    },
    {
      "name": "Box002_1_1_texcoords",
      "componentType": 5126,
      "count": 54,
      "min": [
        0,
        0
      ],
      "max": [
        1,
        1.090000033378601
      ],
      "type": "VEC2",
      "bufferView": 2,
      "byteOffset": 64
    },
    {
      "name": "Box002_1_1_indices",
      "componentType": 5123,
      "count": 66,
      "min": [
        0
      ],
      "max": [
        53
      ],
      "type": "SCALAR",
      "bufferView": 3,
      "byteOffset": 24
    },
    {
      "name": "Box002_1_2_positions",
      "componentType": 5126,
      "count": 8,
      "min": [
        -3.0178000926971436,
        14.512800216674805,
        0.00019999999494757503
      ],
      "max": [
        8.661100387573242,
        14.512800216674805,
        24.790000915527344
      ],
      "type": "VEC3",
      "bufferView": 0,
      "byteOffset": 744
    },
    {
      "name": "Box002_1_2_normals",
      "componentType": 5126,
      "count": 8,
      "min": [
        0,
        1,
        0
      ],
      "max": [
        0,
        1,
        0
      ],
      "type": "VEC3",
      "bufferView": 1,
      "byteOffset": 744
    },
    {
      "name": "Box002_1_2_texcoords",
      "componentType": 5126,
      "count": 8,
      "min": [
        0,
        0
      ],
      "max": [
        1,
        1
      ],
      "type": "VEC2",
      "bufferView": 2,
      "byteOffset": 496
    },
    {
      "name": "Box002_1_2_indices",
      "componentType": 5123,
      "count": 12,
      "min": [
        0
      ],
      "max": [
        7
      ],
      "type": "SCALAR",
      "bufferView": 3,
      "byteOffset": 156
    },
    {
      "name": "Box002_1_3_positions",
      "componentType": 5126,
      "count": 112,
      "min": [
        -3.0178000926971436,
        -14.512800216674805,
        0.00019999999494757503
      ],
      "max": [
        8.663800239562988,
        14.512800216674805,
        24.790000915527344
      ],
      "type": "VEC3",
      "bufferView": 0,
      "byteOffset": 840
    },
    {
      "name": "Box002_1_3_normals",
      "componentType": 5126,
      "count": 112,
      "min": [
        -1,
        -1,
        -0.014799566008150578
      ],
      "max": [
        0.9999992847442627,
        1,
        0.0027999889571219683
      ],
      "type": "VEC3",
      "bufferView": 1,
      "byteOffset": 840
    },
    {
      "name": "Box002_1_3_texcoords",
      "componentType": 5126,
      "count": 112,
      "min": [
        -0.26409998536109924,
        -0.7436000108718872
      ],
      "max": [
        1.2640999555587769,
        1.788100004196167
      ],
      "type": "VEC2",
      "bufferView": 2,
      "byteOffset": 560
    },
    {
      "name": "Box002_1_3_indices",
      "componentType": 5123,
      "count": 138,
      "min": [
        0
      ],
      "max": [
        111
      ],
      "type": "SCALAR",
      "bufferView": 3,
      "byteOffset": 180
    },
    {
      "name": "Box002_1_4_positions",
      "componentType": 5126,
      "count": 18,
      "min": [
        -3.0178000926971436,
        -13.542799949645996,
        23.328399658203125
      ],
      "max": [
        8.663800239562988,
        13.542799949645996,
        23.81999969482422
      ],
      "type": "VEC3",
      "bufferView": 0,
      "byteOffset": 2184
    },
    {
      "name": "Box002_1_4_normals",
      "componentType": 5126,
      "count": 18,
      "min": [
        0,
        0,
        -1
      ],
      "max": [
        0.11690507084131241,
        0,
        -0.9931430816650391
      ],
      "type": "VEC3",
      "bufferView": 1,
      "byteOffset": 2184
    },
    {
      "name": "Box002_1_4_texcoords",
      "componentType": 5126,
      "count": 18,
      "min": [
        -6.039400100708008,
        -1.0625
      ],
      "max": [
        7.039400100708008,
        2.0625
      ],
      "type": "VEC2",
      "bufferView": 2,
      "byteOffset": 1456
    },
    {
      "name": "Box002_1_4_indices",
      "componentType": 5123,
      "count": 24,
      "min": [
        0
      ],
      "max": [
        17
      ],
      "type": "SCALAR",
      "bufferView": 3,
      "byteOffset": 456
    },
    {
      "name": "Box002_1_5_positions",
      "componentType": 5126,
      "count": 8,
      "min": [
        -0.7803000211715698,
        -13.542799949645996,
        10.04539966583252
      ],
      "max": [
        -0.7771999835968018,
        13.542799949645996,
        23.81999969482422
      ],
      "type": "VEC3",
      "bufferView": 0,
      "byteOffset": 2400
    },
    {
      "name": "Box002_1_5_normals",
      "componentType": 5126,
      "count": 8,
      "min": [
        -1,
        -0.03130031377077103,
        -0.00019999999494757503
      ],
      "max": [
        -0.9995099902153015,
        0,
        0.00020000200311187655
      ],
      "type": "VEC3",
      "bufferView": 1,
      "byteOffset": 2400
    },
    {
      "name": "Box002_1_5_texcoords",
      "componentType": 5126,
      "count": 8,
      "min": [
        -0.37720000743865967,
        -0.3418000042438507
      ],
      "max": [
        1.3772000074386597,
        1.3417999744415283
      ],
      "type": "VEC2",
      "bufferView": 2,
      "byteOffset": 1600
    },
    {
      "name": "Box002_1_5_indices",
      "componentType": 5123,
      "count": 12,
      "min": [
        0
      ],
      "max": [
        7
      ],
      "type": "SCALAR",
      "bufferView": 3,
      "byteOffset": 504
    },
    {
      "name": "Box002_1_6_positions",
      "componentType": 5126,
      "count": 27,
      "min": [
        -2.064199924468994,
        -13.588299751281738,
        0.00019999999494757503
      ],
      "max": [
        -0.7771999835968018,
        13.549400329589844,
        10.04539966583252
      ],
      "type": "VEC3",
      "bufferView": 0,
      "byteOffset": 2496
    },
    {
      "name": "Box002_1_6_normals",
      "componentType": 5126,
      "count": 27,
      "min": [
        -0.9999999403953552,
        -0.05460150167346001,
        -0.07180332392454147
      ],
      "max": [
        -0.23371122777462006,
        0.97214674949646,
        0.818583071231842
      ],
      "type": "VEC3",
      "bufferView": 1,
      "byteOffset": 2496
    },
    {
      "name": "Box002_1_6_texcoords",
      "componentType": 5126,
      "count": 27,
      "min": [
        -1.6929999589920044,
        -0.525600016117096
      ],
      "max": [
        2.693000078201294,
        1.5255999565124512
      ],
      "type": "VEC2",
      "bufferView": 2,
      "byteOffset": 1664
    },
    {
      "name": "Box002_1_6_indices",
      "componentType": 5123,
      "count": 33,
      "min": [
        0
      ],
      "max": [
        26
      ],
      "type": "SCALAR",
      "bufferView": 3,
      "byteOffset": 528
    },
    {
      "name": "Box002_1_7_positions",
      "componentType": 5126,
      "count": 512,
      "min": [
        -8.663800239562988,
        -13.58430004119873,
        0
      ],
      "max": [
        -2.6033999919891357,
        13.517200469970703,
        23.81999969482422
      ],
      "type": "VEC3",
      "bufferView": 0,
      "byteOffset": 2820
    },
    {
      "name": "Box002_1_7_normals",
      "componentType": 5126,
      "count": 512,
      "min": [
        -1,
        -1,
        -1
      ],
      "max": [
        1,
        1,
        1
      ],
      "type": "VEC3",
      "bufferView": 1,
      "byteOffset": 2820
    },
    {
      "name": "Box002_1_7_texcoords",
      "componentType": 5126,
      "count": 512,
      "min": [
        -2.2778000831604004,
        -2
      ],
      "max": [
        3.2778000831604004,
        3
      ],
      "type": "VEC2",
      "bufferView": 2,
      "byteOffset": 1880
    },
    {
      "name": "Box002_1_7_indices",
      "componentType": 5123,
      "count": 1248,
      "min": [
        0
      ],
      "max": [
        511
      ],
      "type": "SCALAR",
      "bufferView": 3,
      "byteOffset": 596
    }
  ],
  "asset": {
    "generator": "obj2gltf",
    "version": "2.0"
  },
  "buffers": [
    {
      "name": "Q2",
      "byteLength": 26996,
      "uri": "data:application/octet-stream;base64,"
    }
  ],
  "bufferViews": [
    {
      "name": "bufferView_0",
      "buffer": 0,
      "byteLength": 8964,
      "byteOffset": 0,
      "byteStride": 12,
      "target": 34962
    },
    {
      "name": "bufferView_1",
      "buffer": 0,
      "byteLength": 8964,
      "byteOffset": 8964,
      "byteStride": 12,
      "target": 34962
    },
    {
      "name": "bufferView_2",
      "buffer": 0,
      "byteLength": 5976,
      "byteOffset": 17928,
      "byteStride": 8,
      "target": 34962
    },
    {
      "name": "bufferView_3",
      "buffer": 0,
      "byteLength": 3092,
      "byteOffset": 23904,
      "target": 34963
    }
  ],
  "images": [
    {
      "name": "SGY_Q1_018",
      "uri": "SGY_Q1_018.jpg"
    },
    {
      "name": "SGY_Q5_004",
      "uri": "SGY_Q5_004.jpg"
    },
    {
      "name": "SGY_Q5_003",
      "uri": "SGY_Q5_003.jpg"
    },
    {
      "name": "sgy_1q_13",
      "uri": "sgy_1q_13.jpg"
    },
    {
      "name": "SGY_Q5_005",
      "uri": "SGY_Q5_005.jpg"
    },
    {
      "name": "sgy_2q_01",
      "uri": "sgy_2q_01.jpg"
    },
    {
      "name": "SGY_Q5_006",
      "uri": "SGY_Q5_006.jpg"
    },
    {
      "name": "SGY_q1_059",
      "uri": "SGY_q1_059.jpg"
    }
  ],
  "materials": [
    {
      "name": "Material__182",
      "pbrMetallicRoughness": {
        "baseColorTexture": {
          "index": 0
        },
        "baseColorFactor": [
          1,
          1,
          1,
          1
        ],
        "metallicFactor": 0,
        "roughnessFactor": 0.99
      },
      "emissiveFactor": [
        0,
        0,
        0
      ],
      "alphaMode": "OPAQUE",
      "doubleSided": false
    },
    {
      "name": "Material__37",
      "pbrMetallicRoughness": {
        "baseColorTexture": {
          "index": 1
        },
        "baseColorFactor": [
          1,
          1,
          1,
          1
        ],
        "metallicFactor": 0,
        "roughnessFactor": 0.99
      },
      "emissiveFactor": [
        0,
        0,
        0
      ],
      "alphaMode": "OPAQUE",
      "doubleSided": false
    },
    {
      "name": "Material__25",
      "pbrMetallicRoughness": {
        "baseColorTexture": {
          "index": 2
        },
        "baseColorFactor": [
          1,
          1,
          1,
          1
        ],
        "metallicFactor": 0,
        "roughnessFactor": 0.99
      },
      "emissiveFactor": [
        0,
        0,
        0
      ],
      "alphaMode": "OPAQUE",
      "doubleSided": false
    },
    {
      "name": "Material__74",
      "pbrMetallicRoughness": {
        "baseColorTexture": {
          "index": 3
        },
        "baseColorFactor": [
          1,
          1,
          1,
          1
        ],
        "metallicFactor": 0,
        "roughnessFactor": 0.99
      },
      "emissiveFactor": [
        0,
        0,
        0
      ],
      "alphaMode": "OPAQUE",
      "doubleSided": false
    },
    {
      "name": "Material__61",
      "pbrMetallicRoughness": {
        "baseColorTexture": {
          "index": 4
        },
        "baseColorFactor": [
          1,
          1,
          1,
          1
        ],
        "metallicFactor": 0,
        "roughnessFactor": 0.99
      },
      "emissiveFactor": [
        0,
        0,
        0
      ],
      "alphaMode": "OPAQUE",
      "doubleSided": false
    },
    {
      "name": "Material__109",
      "pbrMetallicRoughness": {
        "baseColorTexture": {
          "index": 5
        },
        "baseColorFactor": [
          1,
          1,
          1,
          1
        ],
        "metallicFactor": 0,
        "roughnessFactor": 0.99
      },
      "emissiveFactor": [
        0,
        0,
        0
      ],
      "alphaMode": "OPAQUE",
      "doubleSided": false
    },
    {
      "name": "Material__170",
      "pbrMetallicRoughness": {
        "baseColorTexture": {
          "index": 6
        },
        "baseColorFactor": [
          1,
          1,
          1,
          1
        ],
        "metallicFactor": 0,
        "roughnessFactor": 0.99
      },
      "emissiveFactor": [
        0,
        0,
        0
      ],
      "alphaMode": "OPAQUE",
      "doubleSided": false
    },
    {
      "name": "Material__147",
      "pbrMetallicRoughness": {
        "baseColorTexture": {
          "index": 7
        },
        "baseColorFactor": [
          1,
          1,
          1,
          1
        ],
        "metallicFactor": 0,
        "roughnessFactor": 0.99
      },
      "emissiveFactor": [
        0,
        0,
        0
      ],
      "alphaMode": "OPAQUE",
      "doubleSided": false
    }
  ],
  "meshes": [
    {
      "name": "Box002_1",
      "primitives": [
        {
          "attributes": {
            "POSITION": 0,
            "NORMAL": 1,
            "TEXCOORD_0": 2
          },
          "indices": 3,
          "material": 0,
          "mode": 4
        },
        {
          "attributes": {
            "POSITION": 4,
            "NORMAL": 5,
            "TEXCOORD_0": 6
          },
          "indices": 7,
          "material": 1,
          "mode": 4
        },
        {
          "attributes": {
            "POSITION": 8,
            "NORMAL": 9,
            "TEXCOORD_0": 10
          },
          "indices": 11,
          "material": 2,
          "mode": 4
        },
        {
          "attributes": {
            "POSITION": 12,
            "NORMAL": 13,
            "TEXCOORD_0": 14
          },
          "indices": 15,
          "material": 3,
          "mode": 4
        },
        {
          "attributes": {
            "POSITION": 16,
            "NORMAL": 17,
            "TEXCOORD_0": 18
          },
          "indices": 19,
          "material": 4,
          "mode": 4
        },
        {
          "attributes": {
            "POSITION": 20,
            "NORMAL": 21,
            "TEXCOORD_0": 22
          },
          "indices": 23,
          "material": 5,
          "mode": 4
        },
        {
          "attributes": {
            "POSITION": 24,
            "NORMAL": 25,
            "TEXCOORD_0": 26
          },
          "indices": 27,
          "material": 6,
          "mode": 4
        },
        {
          "attributes": {
            "POSITION": 28,
            "NORMAL": 29,
            "TEXCOORD_0": 30
          },
          "indices": 31,
          "material": 7,
          "mode": 4
        }
      ]
    }
  ],
  "nodes": [
    {
      "name": "Box002",
      "mesh": 0
    }
  ],
  "samplers": [
    {
      "wrapS": 10497,
      "wrapT": 10497
    }
  ],
  "scene": 0,
  "scenes": [
    {
      "nodes": [
        0
      ]
    }
  ],
  "textures": [
    {
      "name": "SGY_Q1_018",
      "sampler": 0,
      "source": 0
    },
    {
      "name": "SGY_Q5_004",
      "sampler": 0,
      "source": 1
    },
    {
      "name": "SGY_Q5_003",
      "sampler": 0,
      "source": 2
    },
    {
      "name": "sgy_1q_13",
      "sampler": 0,
      "source": 3
    },
    {
      "name": "SGY_Q5_005",
      "sampler": 0,
      "source": 4
    },
    {
      "name": "sgy_2q_01",
      "sampler": 0,
      "source": 5
    },
    {
      "name": "SGY_Q5_006",
      "sampler": 0,
      "source": 6
    },
    {
      "name": "SGY_q1_059",
      "sampler": 0,
      "source": 7
    }
  ]
}
