{
  "accessors": [
    {
      "name": "Line002_1_0_positions",
      "componentType": 5126,
      "count": 16,
      "min": [
        -1.2668999433517456,
        -0.04960000142455101,
        6.035299777984619
      ],
      "max": [
        1.2879999876022339,
        0.030799999833106995,
        7.318699836730957
      ],
      "type": "VEC3",
      "bufferView": 0,
      "byteOffset": 0
    },
    {
      "name": "Line002_1_0_normals",
      "componentType": 5126,
      "count": 16,
      "min": [
        -0.001099999062716961,
        -0.9999998807907104,
        0
      ],
      "max": [
        0.001099999062716961,
        0.9999991655349731,
        0.0006999993929639459
      ],
      "type": "VEC3",
      "bufferView": 1,
      "byteOffset": 0
    },
    {
      "name": "Line002_1_0_texcoords",
      "componentType": 5126,
      "count": 16,
      "min": [
        0.013299999758601189,
        0.02879999950528145
      ],
      "max": [
        0.9866999983787537,
        0.972000002861023
      ],
      "type": "VEC2",
      "bufferView": 2,
      "byteOffset": 0
    },
    {
      "name": "Line002_1_0_indices",
      "componentType": 5123,
      "count": 24,
      "min": [
        0
      ],
      "max": [
        15
      ],
      "type": "SCALAR",
      "bufferView": 3,
      "byteOffset": 0
    },
    {
      "name": "Line002_1_1_positions",
      "componentType": 5126,
      "count": 288,
      "min": [
        -5.9583001136779785,
        -0.08370000123977661,
        4.338600158691406
      ],
      "max": [
        5.970699787139893,
        0.052799999713897705,
        6.727099895477295
      ],
      "type": "VEC3",
      "bufferView": 0,
      "byteOffset": 192
    },
    {
      "name": "Line002_1_1_normals",
      "componentType": 5126,
      "count": 288,
      "min": [
        -0.9999998807907104,
        -0.9999998211860657,
        -0.9999933838844299
      ],
      "max": [
        0.9999999403953552,
        1,
        1
      ],
      "type": "VEC3",
      "bufferView": 1,
      "byteOffset": 192
    },
    {
      "name": "Line002_1_1_texcoords",
      "componentType": 5126,
      "count": 288,
      "min": [
        0,
        0
      ],
      "max": [
        1.0022000074386597,
        1
      ],
      "type": "VEC2",
      "bufferView": 2,
      "byteOffset": 128
    },
    {
      "name": "Line002_1_1_indices",
      "componentType": 5123,
      "count": 432,
      "min": [
        0
      ],
      "max": [
        287
      ],
      "type": "SCALAR",
      "bufferView": 3,
      "byteOffset": 48
    },
    {
      "name": "Line002_1_2_positions",
      "componentType": 5126,
      "count": 144,
      "min": [
        -5.928999900817871,
        -0.0722000002861023,
        4.742000102996826
      ],
      "max": [
        5.943999767303467,
        0.061000000685453415,
        5.497099876403809
      ],
      "type": "VEC3",
      "bufferView": 0,
      "byteOffset": 3648
    },
    {
      "name": "Line002_1_2_normals",
      "componentType": 5126,
      "count": 144,
      "min": [
        -0.0013999984366819263,
        -1,
        -0.0009999994654208422
      ],
      "max": [
        0.001399998553097248,
        0.9999997019767761,
        0.001199999125674367
      ],
      "type": "VEC3",
      "bufferView": 1,
      "byteOffset": 3648
    },
    {
      "name": "Line002_1_2_texcoords",
      "componentType": 5126,
      "count": 144,
      "min": [
        0,
        0
      ],
      "max": [
        1,
        1
      ],
      "type": "VEC2",
      "bufferView": 2,
      "byteOffset": 2432
    },
    {
      "name": "Line002_1_2_indices",
      "componentType": 5123,
      "count": 216,
      "min": [
        0
      ],
      "max": [
        143
      ],
      "type": "SCALAR",
      "bufferView": 3,
      "byteOffset": 912
    },
    {
      "name": "Line002_1_3_positions",
      "componentType": 5126,
      "count": 208,
      "min": [
        -5.9583001136779785,
        -0.08370000123977661,
        4.717400074005127
      ],
      "max": [
        5.970900058746338,
        0.053199999034404755,
        7.726900100708008
      ],
      "type": "VEC3",
      "bufferView": 0,
      "byteOffset": 5376
    },
    {
      "name": "Line002_1_3_normals",
      "componentType": 5126,
      "count": 208,
      "min": [
        -0.999989926815033,
        -0.999996542930603,
        -0.9999974966049194
      ],
      "max": [
        0.9999999403953552,
        0.9999997019767761,
        0.9999964237213135
      ],
      "type": "VEC3",
      "bufferView": 1,
      "byteOffset": 5376
    },
    {
      "name": "Line002_1_3_texcoords",
      "componentType": 5126,
      "count": 208,
      "min": [
        0,
        0
      ],
      "max": [
        1.0017999410629272,
        1
      ],
      "type": "VEC2",
      "bufferView": 2,
      "byteOffset": 3584
    },
    {
      "name": "Line002_1_3_indices",
      "componentType": 5123,
      "count": 312,
      "min": [
        0
      ],
      "max": [
        207
      ],
      "type": "SCALAR",
      "bufferView": 3,
      "byteOffset": 1344
    },
    {
      "name": "Line002_1_4_positions",
      "componentType": 5126,
      "count": 202,
      "min": [
        -5.229400157928467,
        -0.08370000123977661,
        5.531400203704834
      ],
      "max": [
        5.244500160217285,
        0.05130000039935112,
        7.724599838256836
      ],
      "type": "VEC3",
      "bufferView": 0,
      "byteOffset": 7872
    },
    {
      "name": "Line002_1_4_normals",
      "componentType": 5126,
      "count": 202,
      "min": [
        -0.9999995827674866,
        -0.9999998211860657,
        -0.0015999876195564866
      ],
      "max": [
        0.9999995827674866,
        1,
        0.9999997615814209
      ],
      "type": "VEC3",
      "bufferView": 1,
      "byteOffset": 7872
    },
    {
      "name": "Line002_1_4_texcoords",
      "componentType": 5126,
      "count": 202,
      "min": [
        -3.001699924468994,
        0
      ],
      "max": [
        1,
        1
      ],
      "type": "VEC2",
      "bufferView": 2,
      "byteOffset": 5248
    },
    {
      "name": "Line002_1_4_indices",
      "componentType": 5123,
      "count": 312,
      "min": [
        0
      ],
      "max": [
        201
      ],
      "type": "SCALAR",
      "bufferView": 3,
      "byteOffset": 1968
    },
    {
      "name": "Line002_1_5_positions",
      "componentType": 5126,
      "count": 859,
      "min": [
        -6.343500137329102,
        -1.1857000589370728,
        0
      ],
      "max": [
        6.379499912261963,
        0.7272999882698059,
        8.531499862670898
      ],
      "type": "VEC3",
      "bufferView": 0,
      "byteOffset": 10296
    },
    {
      "name": "Line002_1_5_normals",
      "componentType": 5126,
      "count": 859,
      "min": [
        -1,
        -1,
        -0.7589035630226135
      ],
      "max": [
        1,
        1,
        1
      ],
      "type": "VEC3",
      "bufferView": 1,
      "byteOffset": 10296
    },
    {
      "name": "Line002_1_5_texcoords",
      "componentType": 5126,
      "count": 859,
      "min": [
        -0.125,
        -1.3719054307765356e+38
      ],
      "max": [
        1808648192,
        1.6753000020980835
      ],
      "type": "VEC2",
      "bufferView": 2,
      "byteOffset": 6864
    },
    {
      "name": "Line002_1_5_indices",
      "componentType": 5123,
      "count": 1419,
      "min": [
        0
      ],
      "max": [
        858
      ],
      "type": "SCALAR",
      "bufferView": 3,
      "byteOffset": 2592
    },
    {
      "name": "Line002_1_6_positions",
      "componentType": 5126,
      "count": 64,
      "min": [
        -4.875199794769287,
        -0.060600001364946365,
        5.59119987487793
      ],
      "max": [
        4.9278998374938965,
        0.02449999935925007,
        6.426799774169922
      ],
      "type": "VEC3",
      "bufferView": 0,
      "byteOffset": 20604
    },
    {
      "name": "Line002_1_6_normals",
      "componentType": 5126,
      "count": 64,
      "min": [
        -0.0019999875221401453,
        -0.9999997615814209,
        -0.0029999816324561834
      ],
      "max": [
        0.0019999875221401453,
        0.999994158744812,
        0.0030999795999377966
      ],
      "type": "VEC3",
      "bufferView": 1,
      "byteOffset": 20604
    },
    {
      "name": "Line002_1_6_texcoords",
      "componentType": 5126,
      "count": 64,
      "min": [
        -0.014000000432133675,
        0.010300000198185444
      ],
      "max": [
        1.038699984550476,
        1.0180000066757202
      ],
      "type": "VEC2",
      "bufferView": 2,
      "byteOffset": 13736
    },
    {
      "name": "Line002_1_6_indices",
      "componentType": 5123,
      "count": 96,
      "min": [
        0
      ],
      "max": [
        63
      ],
      "type": "SCALAR",
      "bufferView": 3,
      "byteOffset": 5432
    },
    {
      "name": "Line002_1_7_positions",
      "componentType": 5126,
      "count": 80,
      "min": [
        -6.446100234985352,
        -0.8414999842643738,
        5.466899871826172
      ],
      "max": [
        6.446100234985352,
        0.8414999842643738,
        7.994699954986572
      ],
      "type": "VEC3",
      "bufferView": 0,
      "byteOffset": 21372
    },
    {
      "name": "Line002_1_7_normals",
      "componentType": 5126,
      "count": 80,
      "min": [
        -0.38579365611076355,
        -0.371597558259964,
        -0.9409694671630859
      ],
      "max": [
        0.33848899602890015,
        0.371597558259964,
        -0.8982445597648621
      ],
      "type": "VEC3",
      "bufferView": 1,
      "byteOffset": 21372
    },
    {
      "name": "Line002_1_7_texcoords",
      "componentType": 5126,
      "count": 80,
      "min": [
        -0.4562999904155731,
        -0.3199999928474426
      ],
      "max": [
        1.4149999618530273,
        1
      ],
      "type": "VEC2",
      "bufferView": 2,
      "byteOffset": 14248
    },
    {
      "name": "Line002_1_7_indices",
      "componentType": 5123,
      "count": 108,
      "min": [
        0
      ],
      "max": [
        79
      ],
      "type": "SCALAR",
      "bufferView": 3,
      "byteOffset": 5624
    },
    {
      "name": "Line002_1_8_positions",
      "componentType": 5126,
      "count": 401,
      "min": [
        -6.731800079345703,
        -1.1871000528335571,
        5.849599838256836
      ],
      "max": [
        6.731800079345703,
        1.1871000528335571,
        9.071000099182129
      ],
      "type": "VEC3",
      "bufferView": 0,
      "byteOffset": 22332
    },
    {
      "name": "Line002_1_8_normals",
      "componentType": 5126,
      "count": 401,
      "min": [
        -0.9999587535858154,
        -0.9999997019767761,
        -0.013200053945183754
      ],
      "max": [
        0.9999040365219116,
        0.5586853623390198,
        0.9430990815162659
      ],
      "type": "VEC3",
      "bufferView": 1,
      "byteOffset": 22332
    },
    {
      "name": "Line002_1_8_texcoords",
      "componentType": 5126,
      "count": 401,
      "min": [
        -2.2513999938964844,
        -5.212500095367432
      ],
      "max": [
        4.029399871826172,
        2.8343000411987305
      ],
      "type": "VEC2",
      "bufferView": 2,
      "byteOffset": 14888
    },
    {
      "name": "Line002_1_8_indices",
      "componentType": 5123,
      "count": 585,
      "min": [
        0
      ],
      "max": [
        400
      ],
      "type": "SCALAR",
      "bufferView": 3,
      "byteOffset": 5840
    },
    {
      "name": "Line002_1_9_positions",
      "componentType": 5126,
      "count": 216,
      "min": [
        -6.731800079345703,
        -1.1871000528335571,
        5.720799922943115
      ],
      "max": [
        6.731800079345703,
        1.1871000528335571,
        8.468099594116211
      ],
      "type": "VEC3",
      "bufferView": 0,
      "byteOffset": 27144
    },
    {
      "name": "Line002_1_9_normals",
      "componentType": 5126,
      "count": 216,
      "min": [
        -0.9642238616943359,
        -0.9508848190307617,
        -0.70469069480896
      ],
      "max": [
        0.9529001116752625,
        0.9506168365478516,
        -0.25910642743110657
      ],
      "type": "VEC3",
      "bufferView": 1,
      "byteOffset": 27144
    },
    {
      "name": "Line002_1_9_texcoords",
      "componentType": 5126,
      "count": 216,
      "min": [
        -1.1201000213623047,
        -0.08940000087022781
      ],
      "max": [
        2.1242001056671143,
        0.9800000190734863
      ],
      "type": "VEC2",
      "bufferView": 2,
      "byteOffset": 18096
    },
    {
      "name": "Line002_1_9_indices",
      "componentType": 5123,
      "count": 324,
      "min": [
        0
      ],
      "max": [
        215
      ],
      "type": "SCALAR",
      "bufferView": 3,
      "byteOffset": 7012
    },
    {
      "name": "Line002_1_10_positions",
      "componentType": 5126,
      "count": 184,
      "min": [
        -6.686500072479248,
        -1.0988999605178833,
        5.673099994659424
      ],
      "max": [
        6.686500072479248,
        1.0988999605178833,
        8.25879955291748
      ],
      "type": "VEC3",
      "bufferView": 0,
      "byteOffset": 29736
    },
    {
      "name": "Line002_1_10_normals",
      "componentType": 5126,
      "count": 184,
      "min": [
        -0.33608677983283997,
        -0.8262673616409302,
        -0.9572988152503967
      ],
      "max": [
        0.2943103313446045,
        0.8262656927108765,
        -0.5146786570549011
      ],
      "type": "VEC3",
      "bufferView": 1,
      "byteOffset": 29736
    },
    {
      "name": "Line002_1_10_texcoords",
      "componentType": 5126,
      "count": 184,
      "min": [
        -0.4803999960422516,
        0.006599999964237213
      ],
      "max": [
        1.4803999662399292,
        1.6823999881744385
      ],
      "type": "VEC2",
      "bufferView": 2,
      "byteOffset": 19824
    },
    {
      "name": "Line002_1_10_indices",
      "componentType": 5123,
      "count": 228,
      "min": [
        0
      ],
      "max": [
        183
      ],
      "type": "SCALAR",
      "bufferView": 3,
      "byteOffset": 7660
    },
    {
      "name": "Line002_1_11_positions",
      "componentType": 5126,
      "count": 240,
      "min": [
        -6.343500137329102,
        -0.4878999888896942,
        0
      ],
      "max": [
        6.379499912261963,
        0.487199991941452,
        1.7542999982833862
      ],
      "type": "VEC3",
      "bufferView": 0,
      "byteOffset": 31944
    },
    {
      "name": "Line002_1_11_normals",
      "componentType": 5126,
      "count": 240,
      "min": [
        -1,
        -1,
        0
      ],
      "max": [
        1,
        1,
        1
      ],
      "type": "VEC3",
      "bufferView": 1,
      "byteOffset": 31944
    },
    {
      "name": "Line002_1_11_texcoords",
      "componentType": 5126,
      "count": 240,
      "min": [
        0.02199999988079071,
        -0.032499998807907104
      ],
      "max": [
        0.9779999852180481,
        1.8905999660491943
      ],
      "type": "VEC2",
      "bufferView": 2,
      "byteOffset": 21296
    },
    {
      "name": "Line002_1_11_indices",
      "componentType": 5123,
      "count": 408,
      "min": [
        0
      ],
      "max": [
        239
      ],
      "type": "SCALAR",
      "bufferView": 3,
      "byteOffset": 8116
    },
    {
      "name": "Line002_1_12_positions",
      "componentType": 5126,
      "count": 84,
      "min": [
        -6.09689998626709,
        -0.22110000252723694,
        4.342700004577637
      ],
      "max": [
        6.132900238037109,
        0.2199999988079071,
        5.512400150299072
      ],
      "type": "VEC3",
      "bufferView": 0,
      "byteOffset": 34824
    },
    {
      "name": "Line002_1_12_normals",
      "componentType": 5126,
      "count": 84,
      "min": [
        -1,
        -1,
        0
      ],
      "max": [
        1,
        1,
        0
      ],
      "type": "VEC3",
      "bufferView": 1,
      "byteOffset": 34824
    },
    {
      "name": "Line002_1_12_texcoords",
      "componentType": 5126,
      "count": 84,
      "min": [
        0.011699999682605267,
        0
      ],
      "max": [
        1.9895999431610107,
        1
      ],
      "type": "VEC2",
      "bufferView": 2,
      "byteOffset": 23216
    },
    {
      "name": "Line002_1_12_indices",
      "componentType": 5123,
      "count": 192,
      "min": [
        0
      ],
      "max": [
        83
      ],
      "type": "SCALAR",
      "bufferView": 3,
      "byteOffset": 8932
    }
  ],
  "asset": {
    "generator": "obj2gltf",
    "version": "2.0"
  },
  "buffers": [
    {
      "name": "Q2",
      "byteLength": 104868,
      "uri": "data:application/octet-stream;base64,"
    }
  ],
  "bufferViews": [
    {
      "name": "bufferView_0",
      "buffer": 0,
      "byteLength": 35832,
      "byteOffset": 0,
      "byteStride": 12,
      "target": 34962
    },
    {
      "name": "bufferView_1",
      "buffer": 0,
      "byteLength": 35832,
      "byteOffset": 35832,
      "byteStride": 12,
      "target": 34962
    },
    {
      "name": "bufferView_2",
      "buffer": 0,
      "byteLength": 23888,
      "byteOffset": 71664,
      "byteStride": 8,
      "target": 34962
    },
    {
      "name": "bufferView_3",
      "buffer": 0,
      "byteLength": 9316,
      "byteOffset": 95552,
      "target": 34963
    }
  ],
  "images": [
    {
      "name": "SGY_q1_114",
      "uri": "SGY_q1_114.jpg"
    },
    {
      "name": "SGY_q1_117",
      "uri": "SGY_q1_117.jpg"
    },
    {
      "name": "SGY_q1_122",
      "uri": "SGY_q1_122.jpg"
    },
    {
      "name": "SGY_q1_116",
      "uri": "SGY_q1_116.jpg"
    },
    {
      "name": "SGY_q1_118",
      "uri": "SGY_q1_118.jpg"
    },
    {
      "name": "SGY_q1_119",
      "uri": "SGY_q1_119.jpg"
    },
    {
      "name": "SGY_q1_115",
      "uri": "SGY_q1_115.jpg"
    },
    {
      "name": "SGY_q1_124",
      "uri": "SGY_q1_124.jpg"
    },
    {
      "name": "SGY_q1_126",
      "uri": "SGY_q1_126.jpg"
    },
    {
      "name": "SGY_q1_123",
      "uri": "SGY_q1_123.jpg"
    },
    {
      "name": "SGY_q1_125",
      "uri": "SGY_q1_125.jpg"
    },
    {
      "name": "SGY_q1_121",
      "uri": "SGY_q1_121.jpg"
    },
    {
      "name": "SGY_q1_120",
      "uri": "SGY_q1_120.jpg"
    }
  ],
  "materials": [
    {
      "name": "Material__37",
      "pbrMetallicRoughness": {
        "baseColorTexture": {
          "index": 0
        },
        "baseColorFactor": [
          1,
          1,
          1,
          1
        ],
        "metallicFactor": 0,
        "roughnessFactor": 0.99
      },
      "emissiveFactor": [
        0,
        0,
        0
      ],
      "alphaMode": "OPAQUE",
      "doubleSided": false
    },
    {
      "name": "Material__152",
      "pbrMetallicRoughness": {
        "baseColorTexture": {
          "index": 1
        },
        "baseColorFactor": [
          1,
          1,
          1,
          1
        ],
        "metallicFactor": 0,
        "roughnessFactor": 0.99
      },
      "emissiveFactor": [
        0,
        0,
        0
      ],
      "alphaMode": "OPAQUE",
      "doubleSided": false
    },
    {
      "name": "Material__537",
      "pbrMetallicRoughness": {
        "baseColorTexture": {
          "index": 2
        },
        "baseColorFactor": [
          1,
          1,
          1,
          1
        ],
        "metallicFactor": 0,
        "roughnessFactor": 0.99
      },
      "emissiveFactor": [
        0,
        0,
        0
      ],
      "alphaMode": "OPAQUE",
      "doubleSided": false
    },
    {
      "name": "Material__107",
      "pbrMetallicRoughness": {
        "baseColorTexture": {
          "index": 3
        },
        "baseColorFactor": [
          1,
          1,
          1,
          1
        ],
        "metallicFactor": 0,
        "roughnessFactor": 0.99
      },
      "emissiveFactor": [
        0,
        0,
        0
      ],
      "alphaMode": "OPAQUE",
      "doubleSided": false
    },
    {
      "name": "Material__231",
      "pbrMetallicRoughness": {
        "baseColorTexture": {
          "index": 4
        },
        "baseColorFactor": [
          1,
          1,
          1,
          1
        ],
        "metallicFactor": 0,
        "roughnessFactor": 0.99
      },
      "emissiveFactor": [
        0,
        0,
        0
      ],
      "alphaMode": "OPAQUE",
      "doubleSided": false
    },
    {
      "name": "Material__343",
      "pbrMetallicRoughness": {
        "baseColorTexture": {
          "index": 5
        },
        "baseColorFactor": [
          1,
          1,
          1,
          1
        ],
        "metallicFactor": 0,
        "roughnessFactor": 0.99
      },
      "emissiveFactor": [
        0,
        0,
        0
      ],
      "alphaMode": "OPAQUE",
      "doubleSided": false
    },
    {
      "name": "Material__49",
      "pbrMetallicRoughness": {
        "baseColorTexture": {
          "index": 6
        },
        "baseColorFactor": [
          1,
          1,
          1,
          1
        ],
        "metallicFactor": 0,
        "roughnessFactor": 0.99
      },
      "emissiveFactor": [
        0,
        0,
        0
      ],
      "alphaMode": "OPAQUE",
      "doubleSided": false
    },
    {
      "name": "Material__629",
      "pbrMetallicRoughness": {
        "baseColorTexture": {
          "index": 7
        },
        "baseColorFactor": [
          1,
          1,
          1,
          1
        ],
        "metallicFactor": 0,
        "roughnessFactor": 0.99
      },
      "emissiveFactor": [
        0,
        0,
        0
      ],
      "alphaMode": "OPAQUE",
      "doubleSided": false
    },
    {
      "name": "Material__734",
      "pbrMetallicRoughness": {
        "baseColorTexture": {
          "index": 8
        },
        "baseColorFactor": [
          1,
          1,
          1,
          1
        ],
        "metallicFactor": 0,
        "roughnessFactor": 0.99
      },
      "emissiveFactor": [
        0,
        0,
        0
      ],
      "alphaMode": "OPAQUE",
      "doubleSided": false
    },
    {
      "name": "Material__617",
      "pbrMetallicRoughness": {
        "baseColorTexture": {
          "index": 9
        },
        "baseColorFactor": [
          1,
          1,
          1,
          1
        ],
        "metallicFactor": 0,
        "roughnessFactor": 0.99
      },
      "emissiveFactor": [
        0,
        0,
        0
      ],
      "alphaMode": "OPAQUE",
      "doubleSided": false
    },
    {
      "name": "Material__653",
      "pbrMetallicRoughness": {
        "baseColorTexture": {
          "index": 10
        },
        "baseColorFactor": [
          1,
          1,
          1,
          1
        ],
        "metallicFactor": 0,
        "roughnessFactor": 0.99
      },
      "emissiveFactor": [
        0,
        0,
        0
      ],
      "alphaMode": "OPAQUE",
      "doubleSided": false
    },
    {
      "name": "Material__446",
      "pbrMetallicRoughness": {
        "baseColorTexture": {
          "index": 11
        },
        "baseColorFactor": [
          1,
          1,
          1,
          1
        ],
        "metallicFactor": 0,
        "roughnessFactor": 0.99
      },
      "emissiveFactor": [
        0,
        0,
        0
      ],
      "alphaMode": "OPAQUE",
      "doubleSided": false
    },
    {
      "name": "Material__378",
      "pbrMetallicRoughness": {
        "baseColorTexture": {
          "index": 12
        },
        "baseColorFactor": [
          1,
          1,
          1,
          1
        ],
        "metallicFactor": 0,
        "roughnessFactor": 0.99
      },
      "emissiveFactor": [
        0,
        0,
        0
      ],
      "alphaMode": "OPAQUE",
      "doubleSided": false
    }
  ],
  "meshes": [
    {
      "name": "Line002_1",
      "primitives": [
        {
          "attributes": {
            "POSITION": 0,
            "NORMAL": 1,
            "TEXCOORD_0": 2
          },
          "indices": 3,
          "material": 0,
          "mode": 4
        },
        {
          "attributes": {
            "POSITION": 4,
            "NORMAL": 5,
            "TEXCOORD_0": 6
          },
          "indices": 7,
          "material": 1,
          "mode": 4
        },
        {
          "attributes": {
            "POSITION": 8,
            "NORMAL": 9,
            "TEXCOORD_0": 10
          },
          "indices": 11,
          "material": 2,
          "mode": 4
        },
        {
          "attributes": {
            "POSITION": 12,
            "NORMAL": 13,
            "TEXCOORD_0": 14
          },
          "indices": 15,
          "material": 3,
          "mode": 4
        },
        {
          "attributes": {
            "POSITION": 16,
            "NORMAL": 17,
            "TEXCOORD_0": 18
          },
          "indices": 19,
          "material": 4,
          "mode": 4
        },
        {
          "attributes": {
            "POSITION": 20,
            "NORMAL": 21,
            "TEXCOORD_0": 22
          },
          "indices": 23,
          "material": 5,
          "mode": 4
        },
        {
          "attributes": {
            "POSITION": 24,
            "NORMAL": 25,
            "TEXCOORD_0": 26
          },
          "indices": 27,
          "material": 6,
          "mode": 4
        },
        {
          "attributes": {
            "POSITION": 28,
            "NORMAL": 29,
            "TEXCOORD_0": 30
          },
          "indices": 31,
          "material": 7,
          "mode": 4
        },
        {
          "attributes": {
            "POSITION": 32,
            "NORMAL": 33,
            "TEXCOORD_0": 34
          },
          "indices": 35,
          "material": 8,
          "mode": 4
        },
        {
          "attributes": {
            "POSITION": 36,
            "NORMAL": 37,
            "TEXCOORD_0": 38
          },
          "indices": 39,
          "material": 9,
          "mode": 4
        },
        {
          "attributes": {
            "POSITION": 40,
            "NORMAL": 41,
            "TEXCOORD_0": 42
          },
          "indices": 43,
          "material": 10,
          "mode": 4
        },
        {
          "attributes": {
            "POSITION": 44,
            "NORMAL": 45,
            "TEXCOORD_0": 46
          },
          "indices": 47,
          "material": 11,
          "mode": 4
        },
        {
          "attributes": {
            "POSITION": 48,
            "NORMAL": 49,
            "TEXCOORD_0": 50
          },
          "indices": 51,
          "material": 12,
          "mode": 4
        }
      ]
    }
  ],
  "nodes": [
    {
      "name": "Line002",
      "mesh": 0
    }
  ],
  "samplers": [
    {
      "wrapS": 10497,
      "wrapT": 10497
    }
  ],
  "scene": 0,
  "scenes": [
    {
      "nodes": [
        0
      ]
    }
  ],
  "textures": [
    {
      "name": "SGY_q1_114",
      "sampler": 0,
      "source": 0
    },
    {
      "name": "SGY_q1_117",
      "sampler": 0,
      "source": 1
    },
    {
      "name": "SGY_q1_122",
      "sampler": 0,
      "source": 2
    },
    {
      "name": "SGY_q1_116",
      "sampler": 0,
      "source": 3
    },
    {
      "name": "SGY_q1_118",
      "sampler": 0,
      "source": 4
    },
    {
      "name": "SGY_q1_119",
      "sampler": 0,
      "source": 5
    },
    {
      "name": "SGY_q1_115",
      "sampler": 0,
      "source": 6
    },
    {
      "name": "SGY_q1_124",
      "sampler": 0,
      "source": 7
    },
    {
      "name": "SGY_q1_126",
      "sampler": 0,
      "source": 8
    },
    {
      "name": "SGY_q1_123",
      "sampler": 0,
      "source": 9
    },
    {
      "name": "SGY_q1_125",
      "sampler": 0,
      "source": 10
    },
    {
      "name": "SGY_q1_121",
      "sampler": 0,
      "source": 11
    },
    {
      "name": "SGY_q1_120",
      "sampler": 0,
      "source": 12
    }
  ]
}
