{
  "accessors": [
    {
      "name": "Box040_1_0_positions",
      "componentType": 5126,
      "count": 3688,
      "min": [
        -23.0314998626709,
        -12.905799865722656,
        9.483200073242188
      ],
      "max": [
        -16.164499282836914,
        -12.588700294494629,
        15.457900047302246
      ],
      "type": "VEC3",
      "bufferView": 0,
      "byteOffset": 0
    },
    {
      "name": "Box040_1_0_normals",
      "componentType": 5126,
      "count": 3688,
      "min": [
        -1,
        -1,
        -1
      ],
      "max": [
        1,
        1,
        1
      ],
      "type": "VEC3",
      "bufferView": 1,
      "byteOffset": 0
    },
    {
      "name": "Box040_1_0_texcoords",
      "componentType": 5126,
      "count": 3688,
      "min": [
        -34.334999084472656,
        -13.83590030670166
      ],
      "max": [
        34.334999084472656,
        14.461099624633789
      ],
      "type": "VEC2",
      "bufferView": 2,
      "byteOffset": 0
    },
    {
      "name": "Box040_1_0_indices",
      "componentType": 5123,
      "count": 7104,
      "min": [
        0
      ],
      "max": [
        3687
      ],
      "type": "SCALAR",
      "bufferView": 3,
      "byteOffset": 0
    },
    {
      "name": "Box040_1_1_positions",
      "componentType": 5126,
      "count": 1749,
      "min": [
        -39.18040084838867,
        -16.422300338745117,
        0
      ],
      "max": [
        39.18040084838867,
        16.422300338745117,
        13.578800201416016
      ],
      "type": "VEC3",
      "bufferView": 0,
      "byteOffset": 44256
    },
    {
      "name": "Box040_1_1_normals",
      "componentType": 5126,
      "count": 1749,
      "min": [
        -1,
        -1,
        -1
      ],
      "max": [
        1,
        1,
        1
      ],
      "type": "VEC3",
      "bufferView": 1,
      "byteOffset": 44256
    },
    {
      "name": "Box040_1_1_texcoords",
      "componentType": 5126,
      "count": 1749,
      "min": [
        0,
        0
      ],
      "max": [
        1,
        1
      ],
      "type": "VEC2",
      "bufferView": 2,
      "byteOffset": 29504
    },
    {
      "name": "Box040_1_1_indices",
      "componentType": 5123,
      "count": 2784,
      "min": [
        0
      ],
      "max": [
        1748
      ],
      "type": "SCALAR",
      "bufferView": 3,
      "byteOffset": 14208
    },
    {
      "name": "Box040_1_2_positions",
      "componentType": 5126,
      "count": 32,
      "min": [
        -39.18040084838867,
        -16.142099380493164,
        9.340900421142578
      ],
      "max": [
        39.18040084838867,
        16.142099380493164,
        13.578800201416016
      ],
      "type": "VEC3",
      "bufferView": 0,
      "byteOffset": 65244
    },
    {
      "name": "Box040_1_2_normals",
      "componentType": 5126,
      "count": 32,
      "min": [
        -0.3986932039260864,
        0,
        0.9170843362808228
      ],
      "max": [
        0.3986932039260864,
        0,
        0.9170843362808228
      ],
      "type": "VEC3",
      "bufferView": 1,
      "byteOffset": 65244
    },
    {
      "name": "Box040_1_2_texcoords",
      "componentType": 5126,
      "count": 32,
      "min": [
        0,
        0
      ],
      "max": [
        6.247399806976318,
        1
      ],
      "type": "VEC2",
      "bufferView": 2,
      "byteOffset": 43496
    },
    {
      "name": "Box040_1_2_indices",
      "componentType": 5123,
      "count": 48,
      "min": [
        0
      ],
      "max": [
        31
      ],
      "type": "SCALAR",
      "bufferView": 3,
      "byteOffset": 19776
    }
  ],
  "asset": {
    "generator": "obj2gltf",
    "version": "2.0"
  },
  "buffers": [
    {
      "name": "SG_pz",
      "byteLength": 194880,
      "uri": "data:application/octet-stream;base64,"
    }
  ],
  "bufferViews": [
    {
      "name": "bufferView_0",
      "buffer": 0,
      "byteLength": 65628,
      "byteOffset": 0,
      "byteStride": 12,
      "target": 34962
    },
    {
      "name": "bufferView_1",
      "buffer": 0,
      "byteLength": 65628,
      "byteOffset": 65628,
      "byteStride": 12,
      "target": 34962
    },
    {
      "name": "bufferView_2",
      "buffer": 0,
      "byteLength": 43752,
      "byteOffset": 131256,
      "byteStride": 8,
      "target": 34962
    },
    {
      "name": "bufferView_3",
      "buffer": 0,
      "byteLength": 19872,
      "byteOffset": 175008,
      "target": 34963
    }
  ],
  "images": [
    {
      "name": "016",
      "uri": "016.jpg"
    },
    {
      "name": "SG_003",
      "uri": "SG_003.jpg"
    },
    {
      "name": "017",
      "uri": "017.jpg"
    }
  ],
  "materials": [
    {
      "name": "Material__14",
      "pbrMetallicRoughness": {
        "baseColorTexture": {
          "index": 0
        },
        "baseColorFactor": [
          1,
          1,
          1,
          1
        ],
        "metallicFactor": 0,
        "roughnessFactor": 0.99
      },
      "emissiveFactor": [
        0,
        0,
        0
      ],
      "alphaMode": "OPAQUE",
      "doubleSided": false
    },
    {
      "name": "Material__1",
      "pbrMetallicRoughness": {
        "baseColorTexture": {
          "index": 1
        },
        "baseColorFactor": [
          1,
          1,
          1,
          1
        ],
        "metallicFactor": 0,
        "roughnessFactor": 0.99
      },
      "emissiveFactor": [
        0,
        0,
        0
      ],
      "alphaMode": "OPAQUE",
      "doubleSided": false
    },
    {
      "name": "Material__2",
      "pbrMetallicRoughness": {
        "baseColorTexture": {
          "index": 2
        },
        "baseColorFactor": [
          1,
          1,
          1,
          1
        ],
        "metallicFactor": 0,
        "roughnessFactor": 0.99
      },
      "emissiveFactor": [
        0,
        0,
        0
      ],
      "alphaMode": "OPAQUE",
      "doubleSided": false
    }
  ],
  "meshes": [
    {
      "name": "Box040_1",
      "primitives": [
        {
          "attributes": {
            "POSITION": 0,
            "NORMAL": 1,
            "TEXCOORD_0": 2
          },
          "indices": 3,
          "material": 0,
          "mode": 4
        },
        {
          "attributes": {
            "POSITION": 4,
            "NORMAL": 5,
            "TEXCOORD_0": 6
          },
          "indices": 7,
          "material": 1,
          "mode": 4
        },
        {
          "attributes": {
            "POSITION": 8,
            "NORMAL": 9,
            "TEXCOORD_0": 10
          },
          "indices": 11,
          "material": 2,
          "mode": 4
        }
      ]
    }
  ],
  "nodes": [
    {
      "name": "Box040",
      "mesh": 0
    }
  ],
  "samplers": [
    {
      "wrapS": 10497,
      "wrapT": 10497
    }
  ],
  "scene": 0,
  "scenes": [
    {
      "nodes": [
        0
      ]
    }
  ],
  "textures": [
    {
      "name": "016",
      "sampler": 0,
      "source": 0
    },
    {
      "name": "SG_003",
      "sampler": 0,
      "source": 1
    },
    {
      "name": "017",
      "sampler": 0,
      "source": 2
    }
  ]
}
