{
  "accessors": [
    {
      "name": "Box042_1_0_positions",
      "componentType": 5126,
      "count": 56,
      "min": [
        -30.915199279785156,
        -4.006899833679199,
        7.33489990234375
      ],
      "max": [
        -8.915200233459473,
        9.0068998336792,
        12.903300285339355
      ],
      "type": "VEC3",
      "bufferView": 0,
      "byteOffset": 0
    },
    {
      "name": "Box042_1_0_normals",
      "componentType": 5126,
      "count": 56,
      "min": [
        -1,
        -1,
        0
      ],
      "max": [
        1,
        1,
        1
      ],
      "type": "VEC3",
      "bufferView": 1,
      "byteOffset": 0
    },
    {
      "name": "Box042_1_0_texcoords",
      "componentType": 5126,
      "count": 56,
      "min": [
        -3.874000072479248,
        0
      ],
      "max": [
        2.91510009765625,
        2.0457000732421875
      ],
      "type": "VEC2",
      "bufferView": 2,
      "byteOffset": 0
    },
    {
      "name": "Box042_1_0_indices",
      "componentType": 5123,
      "count": 108,
      "min": [
        0
      ],
      "max": [
        55
      ],
      "type": "SCALAR",
      "bufferView": 3,
      "byteOffset": 0
    },
    {
      "name": "Box042_1_1_positions",
      "componentType": 5126,
      "count": 24,
      "min": [
        -30.915199279785156,
        -4.006899833679199,
        0
      ],
      "max": [
        -8.915200233459473,
        9.0068998336792,
        12.903300285339355
      ],
      "type": "VEC3",
      "bufferView": 0,
      "byteOffset": 672
    },
    {
      "name": "Box042_1_1_normals",
      "componentType": 5126,
      "count": 24,
      "min": [
        -1,
        -1,
        0
      ],
      "max": [
        1,
        1,
        0
      ],
      "type": "VEC3",
      "bufferView": 1,
      "byteOffset": 672
    },
    {
      "name": "Box042_1_1_texcoords",
      "componentType": 5126,
      "count": 24,
      "min": [
        -3.874000072479248,
        -1.2443000078201294
      ],
      "max": [
        4.028200149536133,
        3.0120999813079834
      ],
      "type": "VEC2",
      "bufferView": 2,
      "byteOffset": 448
    },
    {
      "name": "Box042_1_1_indices",
      "componentType": 5123,
      "count": 36,
      "min": [
        0
      ],
      "max": [
        23
      ],
      "type": "SCALAR",
      "bufferView": 3,
      "byteOffset": 216
    },
    {
      "name": "Box042_1_2_positions",
      "componentType": 5126,
      "count": 104,
      "min": [
        -31.415199279785156,
        -9.0068998336792,
        0
      ],
      "max": [
        37.265201568603516,
        9.0068998336792,
        10
      ],
      "type": "VEC3",
      "bufferView": 0,
      "byteOffset": 960
    },
    {
      "name": "Box042_1_2_normals",
      "componentType": 5126,
      "count": 104,
      "min": [
        -1,
        -1,
        0
      ],
      "max": [
        1,
        1,
        1
      ],
      "type": "VEC3",
      "bufferView": 1,
      "byteOffset": 960
    },
    {
      "name": "Box042_1_2_texcoords",
      "componentType": 5126,
      "count": 104,
      "min": [
        -0.5442000031471252,
        -0.3089999854564667
      ],
      "max": [
        1.3772000074386597,
        1.257200002670288
      ],
      "type": "VEC2",
      "bufferView": 2,
      "byteOffset": 640
    },
    {
      "name": "Box042_1_2_indices",
      "componentType": 5123,
      "count": 162,
      "min": [
        0
      ],
      "max": [
        103
      ],
      "type": "SCALAR",
      "bufferView": 3,
      "byteOffset": 288
    },
    {
      "name": "Box042_1_3_positions",
      "componentType": 5126,
      "count": 850,
      "min": [
        -31.415199279785156,
        -9.0068998336792,
        0
      ],
      "max": [
        37.265201568603516,
        9.0068998336792,
        16.534400939941406
      ],
      "type": "VEC3",
      "bufferView": 0,
      "byteOffset": 2208
    },
    {
      "name": "Box042_1_3_normals",
      "componentType": 5126,
      "count": 850,
      "min": [
        -1,
        -1,
        -1
      ],
      "max": [
        1,
        1,
        1
      ],
      "type": "VEC3",
      "bufferView": 1,
      "byteOffset": 2208
    },
    {
      "name": "Box042_1_3_texcoords",
      "componentType": 5126,
      "count": 850,
      "min": [
        -2.753200054168701,
        -1.6539000272750854
      ],
      "max": [
        3.753200054168701,
        2.653899908065796
      ],
      "type": "VEC2",
      "bufferView": 2,
      "byteOffset": 1472
    },
    {
      "name": "Box042_1_3_indices",
      "componentType": 5123,
      "count": 1338,
      "min": [
        0
      ],
      "max": [
        849
      ],
      "type": "SCALAR",
      "bufferView": 3,
      "byteOffset": 612
    },
    {
      "name": "Box042_1_4_positions",
      "componentType": 5126,
      "count": 120,
      "min": [
        -37.265201568603516,
        -8.904899597167969,
        0
      ],
      "max": [
        32.992801666259766,
        -1.2568999528884888,
        10
      ],
      "type": "VEC3",
      "bufferView": 0,
      "byteOffset": 12408
    },
    {
      "name": "Box042_1_4_normals",
      "componentType": 5126,
      "count": 120,
      "min": [
        -1,
        -1,
        -1
      ],
      "max": [
        1,
        1,
        1
      ],
      "type": "VEC3",
      "bufferView": 1,
      "byteOffset": 12408
    },
    {
      "name": "Box042_1_4_texcoords",
      "componentType": 5126,
      "count": 120,
      "min": [
        -0.023600000888109207,
        -0.08910000324249268
      ],
      "max": [
        1.0049999952316284,
        1.2970000505447388
      ],
      "type": "VEC2",
      "bufferView": 2,
      "byteOffset": 8272
    },
    {
      "name": "Box042_1_4_indices",
      "componentType": 5123,
      "count": 180,
      "min": [
        0
      ],
      "max": [
        119
      ],
      "type": "SCALAR",
      "bufferView": 3,
      "byteOffset": 3288
    },
    {
      "name": "Box042_1_5_positions",
      "componentType": 5126,
      "count": 20,
      "min": [
        -7.556700229644775,
        -1.9630000591278076,
        0
      ],
      "max": [
        -2.396699905395508,
        3.9070000648498535,
        16.41790008544922
      ],
      "type": "VEC3",
      "bufferView": 0,
      "byteOffset": 13848
    },
    {
      "name": "Box042_1_5_normals",
      "componentType": 5126,
      "count": 20,
      "min": [
        -1,
        -1,
        0
      ],
      "max": [
        1,
        1,
        1
      ],
      "type": "VEC3",
      "bufferView": 1,
      "byteOffset": 13848
    },
    {
      "name": "Box042_1_5_texcoords",
      "componentType": 5126,
      "count": 20,
      "min": [
        0,
        -1.7325999736785889
      ],
      "max": [
        1,
        2.4997000694274902
      ],
      "type": "VEC2",
      "bufferView": 2,
      "byteOffset": 9232
    },
    {
      "name": "Box042_1_5_indices",
      "componentType": 5123,
      "count": 30,
      "min": [
        0
      ],
      "max": [
        19
      ],
      "type": "SCALAR",
      "bufferView": 3,
      "byteOffset": 3648
    },
    {
      "name": "Box042_1_6_positions",
      "componentType": 5126,
      "count": 996,
      "min": [
        -7.747900009155273,
        -7.985400199890137,
        1.013100028038025
      ],
      "max": [
        -2.2054998874664307,
        -2.2088000774383545,
        16.55419921875
      ],
      "type": "VEC3",
      "bufferView": 0,
      "byteOffset": 14088
    },
    {
      "name": "Box042_1_6_normals",
      "componentType": 5126,
      "count": 996,
      "min": [
        -1,
        -1,
        -1
      ],
      "max": [
        1,
        1,
        1
      ],
      "type": "VEC3",
      "bufferView": 1,
      "byteOffset": 14088
    },
    {
      "name": "Box042_1_6_texcoords",
      "componentType": 5126,
      "count": 996,
      "min": [
        -0.2597000002861023,
        0.13940000534057617
      ],
      "max": [
        1.2596999406814575,
        0.8937000036239624
      ],
      "type": "VEC2",
      "bufferView": 2,
      "byteOffset": 9392
    },
    {
      "name": "Box042_1_6_indices",
      "componentType": 5123,
      "count": 1584,
      "min": [
        0
      ],
      "max": [
        995
      ],
      "type": "SCALAR",
      "bufferView": 3,
      "byteOffset": 3708
    }
  ],
  "asset": {
    "generator": "obj2gltf",
    "version": "2.0"
  },
  "buffers": [
    {
      "name": "jz10",
      "byteLength": 76316,
      "uri": "data:application/octet-stream;base64,"
    }
  ],
  "bufferViews": [
    {
      "name": "bufferView_0",
      "buffer": 0,
      "byteLength": 26040,
      "byteOffset": 0,
      "byteStride": 12,
      "target": 34962
    },
    {
      "name": "bufferView_1",
      "buffer": 0,
      "byteLength": 26040,
      "byteOffset": 26040,
      "byteStride": 12,
      "target": 34962
    },
    {
      "name": "bufferView_2",
      "buffer": 0,
      "byteLength": 17360,
      "byteOffset": 52080,
      "byteStride": 8,
      "target": 34962
    },
    {
      "name": "bufferView_3",
      "buffer": 0,
      "byteLength": 6876,
      "byteOffset": 69440,
      "target": 34963
    }
  ],
  "images": [
    {
      "name": "011",
      "uri": "011.jpg"
    },
    {
      "name": "sgy_1q_15",
      "uri": "sgy_1q_15.jpg"
    },
    {
      "name": "sgy_1q_13",
      "uri": "sgy_1q_13.jpg"
    },
    {
      "name": "sgbq_001",
      "uri": "sgbq_001.jpg"
    },
    {
      "name": "sgy_1q_14",
      "uri": "sgy_1q_14.jpg"
    },
    {
      "name": "sgy_1q_08",
      "uri": "sgy_1q_08.jpg"
    },
    {
      "name": "sgy_1q_09",
      "uri": "sgy_1q_09.jpg"
    }
  ],
  "materials": [
    {
      "name": "Material__297",
      "pbrMetallicRoughness": {
        "baseColorTexture": {
          "index": 0
        },
        "baseColorFactor": [
          1,
          1,
          1,
          1
        ],
        "metallicFactor": 0,
        "roughnessFactor": 0.99
      },
      "emissiveFactor": [
        0,
        0,
        0
      ],
      "alphaMode": "OPAQUE",
      "doubleSided": false
    },
    {
      "name": "Material__660",
      "pbrMetallicRoughness": {
        "baseColorTexture": {
          "index": 1
        },
        "baseColorFactor": [
          1,
          1,
          1,
          1
        ],
        "metallicFactor": 0,
        "roughnessFactor": 0.99
      },
      "emissiveFactor": [
        0,
        0,
        0
      ],
      "alphaMode": "OPAQUE",
      "doubleSided": false
    },
    {
      "name": "Material__658",
      "pbrMetallicRoughness": {
        "baseColorTexture": {
          "index": 2
        },
        "baseColorFactor": [
          1,
          1,
          1,
          1
        ],
        "metallicFactor": 0,
        "roughnessFactor": 0.99
      },
      "emissiveFactor": [
        0,
        0,
        0
      ],
      "alphaMode": "OPAQUE",
      "doubleSided": false
    },
    {
      "name": "Material__657",
      "pbrMetallicRoughness": {
        "baseColorTexture": {
          "index": 3
        },
        "baseColorFactor": [
          1,
          1,
          1,
          1
        ],
        "metallicFactor": 0,
        "roughnessFactor": 0.99
      },
      "emissiveFactor": [
        0,
        0,
        0
      ],
      "alphaMode": "OPAQUE",
      "doubleSided": false
    },
    {
      "name": "Material__659",
      "pbrMetallicRoughness": {
        "baseColorTexture": {
          "index": 4
        },
        "baseColorFactor": [
          1,
          1,
          1,
          1
        ],
        "metallicFactor": 0,
        "roughnessFactor": 0.99
      },
      "emissiveFactor": [
        0,
        0,
        0
      ],
      "alphaMode": "OPAQUE",
      "doubleSided": false
    },
    {
      "name": "Material__88",
      "pbrMetallicRoughness": {
        "baseColorTexture": {
          "index": 5
        },
        "baseColorFactor": [
          1,
          1,
          1,
          1
        ],
        "metallicFactor": 0,
        "roughnessFactor": 0.99
      },
      "emissiveFactor": [
        0,
        0,
        0
      ],
      "alphaMode": "OPAQUE",
      "doubleSided": false
    },
    {
      "name": "Material__299",
      "pbrMetallicRoughness": {
        "baseColorTexture": {
          "index": 6
        },
        "baseColorFactor": [
          1,
          1,
          1,
          1
        ],
        "metallicFactor": 0,
        "roughnessFactor": 0.99
      },
      "emissiveFactor": [
        0,
        0,
        0
      ],
      "alphaMode": "OPAQUE",
      "doubleSided": false
    }
  ],
  "meshes": [
    {
      "name": "Box042_1",
      "primitives": [
        {
          "attributes": {
            "POSITION": 0,
            "NORMAL": 1,
            "TEXCOORD_0": 2
          },
          "indices": 3,
          "material": 0,
          "mode": 4
        },
        {
          "attributes": {
            "POSITION": 4,
            "NORMAL": 5,
            "TEXCOORD_0": 6
          },
          "indices": 7,
          "material": 1,
          "mode": 4
        },
        {
          "attributes": {
            "POSITION": 8,
            "NORMAL": 9,
            "TEXCOORD_0": 10
          },
          "indices": 11,
          "material": 2,
          "mode": 4
        },
        {
          "attributes": {
            "POSITION": 12,
            "NORMAL": 13,
            "TEXCOORD_0": 14
          },
          "indices": 15,
          "material": 3,
          "mode": 4
        },
        {
          "attributes": {
            "POSITION": 16,
            "NORMAL": 17,
            "TEXCOORD_0": 18
          },
          "indices": 19,
          "material": 4,
          "mode": 4
        },
        {
          "attributes": {
            "POSITION": 20,
            "NORMAL": 21,
            "TEXCOORD_0": 22
          },
          "indices": 23,
          "material": 5,
          "mode": 4
        },
        {
          "attributes": {
            "POSITION": 24,
            "NORMAL": 25,
            "TEXCOORD_0": 26
          },
          "indices": 27,
          "material": 6,
          "mode": 4
        }
      ]
    }
  ],
  "nodes": [
    {
      "name": "Box042",
      "mesh": 0
    }
  ],
  "samplers": [
    {
      "wrapS": 10497,
      "wrapT": 10497
    }
  ],
  "scene": 0,
  "scenes": [
    {
      "nodes": [
        0
      ]
    }
  ],
  "textures": [
    {
      "name": "011",
      "sampler": 0,
      "source": 0
    },
    {
      "name": "sgy_1q_15",
      "sampler": 0,
      "source": 1
    },
    {
      "name": "sgy_1q_13",
      "sampler": 0,
      "source": 2
    },
    {
      "name": "sgbq_001",
      "sampler": 0,
      "source": 3
    },
    {
      "name": "sgy_1q_14",
      "sampler": 0,
      "source": 4
    },
    {
      "name": "sgy_1q_08",
      "sampler": 0,
      "source": 5
    },
    {
      "name": "sgy_1q_09",
      "sampler": 0,
      "source": 6
    }
  ]
}
