{"asset":{"version":"2.0","generator":"babylon.js glTF exporter for 3dsmax 2022 v20240125.3"},"scene":0,"scenes":[{"nodes":[0]}],"nodes":[{"mesh":0,"name":"Box001"}],"meshes":[{"primitives":[{"attributes":{"POSITION":1,"NORMAL":2,"TEXCOORD_0":3},"indices":0,"material":0},{"attributes":{"POSITION":5,"NORMAL":6,"TEXCOORD_0":7},"indices":4,"material":1},{"attributes":{"POSITION":9,"NORMAL":10,"TEXCOORD_0":11},"indices":8,"material":2},{"attributes":{"POSITION":13,"NORMAL":14,"TEXCOORD_0":15},"indices":12,"material":3},{"attributes":{"POSITION":17,"NORMAL":18,"TEXCOORD_0":19},"indices":16,"material":4},{"attributes":{"POSITION":21,"NORMAL":22,"TEXCOORD_0":23},"indices":20,"material":5},{"attributes":{"POSITION":25,"NORMAL":26,"TEXCOORD_0":27},"indices":24,"material":6},{"attributes":{"POSITION":29,"NORMAL":30,"TEXCOORD_0":31},"indices":28,"material":7}],"name":"Box001"}],"accessors":[{"bufferView":0,"componentType":5123,"count":126,"type":"SCALAR","name":"accessorIndices"},{"bufferView":1,"componentType":5126,"count":62,"max":[35.0308228,48.2722855,7.99313927],"min":[-34.1249962,-49.05773,-7.83421E-07],"type":"VEC3","name":"accessorPositions"},{"bufferView":1,"byteOffset":744,"componentType":5126,"count":62,"type":"VEC3","name":"accessorNormals"},{"bufferView":2,"componentType":5126,"count":62,"type":"VEC2","name":"accessorUVs"},{"bufferView":0,"byteOffset":252,"componentType":5123,"count":135,"type":"SCALAR","name":"accessorIndices"},{"bufferView":1,"byteOffset":1488,"componentType":5126,"count":65,"max":[33.538475,49.05773,27.58009],"min":[-35.0308228,-37.96669,5.15804768],"type":"VEC3","name":"accessorPositions"},{"bufferView":1,"byteOffset":2268,"componentType":5126,"count":65,"type":"VEC3","name":"accessorNormals"},{"bufferView":2,"byteOffset":496,"componentType":5126,"count":65,"type":"VEC2","name":"accessorUVs"},{"bufferView":0,"byteOffset":524,"componentType":5123,"count":54,"type":"SCALAR","name":"accessorIndices"},{"bufferView":1,"byteOffset":3048,"componentType":5126,"count":30,"max":[35.0308228,49.05773,20.00002],"min":[-35.0308228,-49.05773,1.8557892E-05],"type":"VEC3","name":"accessorPositions"},{"bufferView":1,"byteOffset":3408,"componentType":5126,"count":30,"type":"VEC3","name":"accessorNormals"},{"bufferView":2,"byteOffset":1016,"componentType":5126,"count":30,"type":"VEC2","name":"accessorUVs"},{"bufferView":0,"byteOffset":632,"componentType":5123,"count":18,"type":"SCALAR","name":"accessorIndices"},{"bufferView":1,"byteOffset":3768,"componentType":5126,"count":8,"max":[0.570640564,25.3477669,10.787508],"min":[-30.6881332,15.6404877,10.7869806],"type":"VEC3","name":"accessorPositions"},{"bufferView":1,"byteOffset":3864,"componentType":5126,"count":8,"type":"VEC3","name":"accessorNormals"},{"bufferView":2,"byteOffset":1256,"componentType":5126,"count":8,"type":"VEC2","name":"accessorUVs"},{"bufferView":0,"byteOffset":668,"componentType":5123,"count":6,"type":"SCALAR","name":"accessorIndices"},{"bufferView":1,"byteOffset":3960,"componentType":5126,"count":4,"max":[23.169136,21.43017,17.9738464],"min":[-5.72181034,21.4301643,10.7667446],"type":"VEC3","name":"accessorPositions"},{"bufferView":1,"byteOffset":4008,"componentType":5126,"count":4,"type":"VEC3","name":"accessorNormals"},{"bufferView":2,"byteOffset":1320,"componentType":5126,"count":4,"type":"VEC2","name":"accessorUVs"},{"bufferView":0,"byteOffset":680,"componentType":5123,"count":555,"type":"SCALAR","name":"accessorIndices"},{"bufferView":1,"byteOffset":4056,"componentType":5126,"count":242,"max":[35.0308266,48.6341171,30.00002],"min":[-34.486824,-49.05773,3.71504879],"type":"VEC3","name":"accessorPositions"},{"bufferView":1,"byteOffset":6960,"componentType":5126,"count":242,"type":"VEC3","name":"accessorNormals"},{"bufferView":2,"byteOffset":1352,"componentType":5126,"count":242,"type":"VEC2","name":"accessorUVs"},{"bufferView":0,"byteOffset":1792,"componentType":5123,"count":18,"type":"SCALAR","name":"accessorIndices"},{"bufferView":1,"byteOffset":9864,"componentType":5126,"count":12,"max":[25.4313126,-40.9469147,7.993139],"min":[-17.5834961,-49.05773,1.9561774E-05],"type":"VEC3","name":"accessorPositions"},{"bufferView":1,"byteOffset":10008,"componentType":5126,"count":12,"type":"VEC3","name":"accessorNormals"},{"bufferView":2,"byteOffset":3288,"componentType":5126,"count":12,"type":"VEC2","name":"accessorUVs"},{"bufferView":0,"byteOffset":1828,"componentType":5123,"count":18,"type":"SCALAR","name":"accessorIndices"},{"bufferView":1,"byteOffset":10152,"componentType":5126,"count":99,"max":[35.0308266,21.4301643,30.00002],"min":[-17.5834961,-49.05773,1.9355246E-05],"type":"VEC3","name":"accessorPositions"},{"bufferView":1,"byteOffset":11340,"componentType":5126,"count":99,"type":"VEC3","name":"accessorNormals"},{"bufferView":2,"byteOffset":3384,"componentType":5126,"count":99,"type":"VEC2","name":"accessorUVs"}],"bufferViews":[{"buffer":0,"byteLength":1864,"name":"bufferViewScalar"},{"buffer":0,"byteOffset":1864,"byteLength":12528,"byteStride":12,"name":"bufferViewFloatVec3"},{"buffer":0,"byteOffset":14392,"byteLength":4176,"byteStride":8,"name":"bufferViewFloatVec2"}],"buffers":[{"uri":"j_2hg.bin","byteLength":18568}],"materials":[{"pbrMetallicRoughness":{"baseColorTexture":{"index":0},"metallicFactor":0.0,"roughnessFactor":0.450053632},"name":"Material #383"},{"pbrMetallicRoughness":{"baseColorTexture":{"index":1},"metallicFactor":0.0,"roughnessFactor":0.450053632},"name":"Material #444"},{"pbrMetallicRoughness":{"baseColorTexture":{"index":2},"metallicFactor":0.0,"roughnessFactor":0.450053632},"name":"Material #420"},{"pbrMetallicRoughness":{"baseColorTexture":{"index":3},"metallicFactor":0.0,"roughnessFactor":0.450053632},"name":"Material #660"},{"pbrMetallicRoughness":{"baseColorTexture":{"index":4},"metallicFactor":0.0,"roughnessFactor":0.450053632},"name":"Material #738"},{"pbrMetallicRoughness":{"baseColorTexture":{"index":5},"metallicFactor":0.0,"roughnessFactor":0.450053632},"name":"Material #315"},{"pbrMetallicRoughness":{"baseColorTexture":{"index":6},"metallicFactor":0.0,"roughnessFactor":0.450053632},"name":"Material #396"},{"pbrMetallicRoughness":{"baseColorTexture":{"index":7},"metallicFactor":0.0,"roughnessFactor":0.450053632},"name":"Material #591"}],"textures":[{"sampler":0,"source":0,"name":"sgy_x_26.png"},{"sampler":0,"source":1,"name":"SG_SJS08.jpg"},{"sampler":0,"source":2,"name":"SGY_A015.jpg"},{"sampler":0,"source":3,"name":"sgy_x_31.jpg"},{"sampler":0,"source":4,"name":"SGY_A017.jpg"},{"sampler":0,"source":5,"name":"SGY_A012.jpg"},{"sampler":0,"source":6,"name":"SGY_A014.jpg"},{"sampler":0,"source":7,"name":"SGY_A001.jpg"}],"images":[{"uri":"sgy_x_26.png"},{"uri":"SG_SJS08.jpg"},{"uri":"SGY_A015.jpg"},{"uri":"sgy_x_31.jpg"},{"uri":"SGY_A017.jpg"},{"uri":"SGY_A012.jpg"},{"uri":"SGY_A014.jpg"},{"uri":"SGY_A001.jpg"}],"samplers":[{"magFilter":9729,"minFilter":9987}]}