{
  "accessors": [
    {
      "name": "pCube15_1_0_positions",
      "componentType": 5126,
      "count": 28,
      "min": [
        -8.037964820861816,
        -5.545536041259766,
        0
      ],
      "max": [
        0.09067799896001816,
        2.222886085510254,
        1.0572659969329834
      ],
      "type": "VEC3",
      "bufferView": 0,
      "byteOffset": 0
    },
    {
      "name": "pCube15_1_0_normals",
      "componentType": 5126,
      "count": 28,
      "min": [
        -1,
        -1,
        -1
      ],
      "max": [
        0,
        0,
        1
      ],
      "type": "VEC3",
      "bufferView": 1,
      "byteOffset": 0
    },
    {
      "name": "pCube15_1_0_texcoords",
      "componentType": 5126,
      "count": 28,
      "min": [
        -0.4510580003261566,
        -0.852973997592926
      ],
      "max": [
        1.8775449991226196,
        2.002545118331909
      ],
      "type": "VEC2",
      "bufferView": 2,
      "byteOffset": 0
    },
    {
      "name": "pCube15_1_0_indices",
      "componentType": 5123,
      "count": 42,
      "min": [
        0
      ],
      "max": [
        27
      ],
      "type": "SCALAR",
      "bufferView": 3,
      "byteOffset": 0
    },
    {
      "name": "pCube15_1_1_positions",
      "componentType": 5126,
      "count": 96,
      "min": [
        -22.375537872314453,
        -9.187714576721191,
        0
      ],
      "max": [
        20.19532012939453,
        9.035429954528809,
        12.270476341247559
      ],
      "type": "VEC3",
      "bufferView": 0,
      "byteOffset": 336
    },
    {
      "name": "pCube15_1_1_normals",
      "componentType": 5126,
      "count": 96,
      "min": [
        -1,
        -1,
        -1
      ],
      "max": [
        1,
        1,
        1
      ],
      "type": "VEC3",
      "bufferView": 1,
      "byteOffset": 336
    },
    {
      "name": "pCube15_1_1_texcoords",
      "componentType": 5126,
      "count": 96,
      "min": [
        0.125,
        0
      ],
      "max": [
        2.010272979736328,
        1.0824769735336304
      ],
      "type": "VEC2",
      "bufferView": 2,
      "byteOffset": 224
    },
    {
      "name": "pCube15_1_1_indices",
      "componentType": 5123,
      "count": 144,
      "min": [
        0
      ],
      "max": [
        95
      ],
      "type": "SCALAR",
      "bufferView": 3,
      "byteOffset": 84
    },
    {
      "name": "pCube15_1_2_positions",
      "componentType": 5126,
      "count": 16,
      "min": [
        -8.788442611694336,
        -7.0178070068359375,
        6.709146022796631
      ],
      "max": [
        0.5963000059127808,
        1.0189510583877563,
        7.480863094329834
      ],
      "type": "VEC3",
      "bufferView": 0,
      "byteOffset": 1488
    },
    {
      "name": "pCube15_1_2_normals",
      "componentType": 5126,
      "count": 16,
      "min": [
        -1,
        -1,
        -1
      ],
      "max": [
        0,
        0,
        1
      ],
      "type": "VEC3",
      "bufferView": 1,
      "byteOffset": 1488
    },
    {
      "name": "pCube15_1_2_texcoords",
      "componentType": 5126,
      "count": 16,
      "min": [
        0.125,
        0
      ],
      "max": [
        0.625,
        1
      ],
      "type": "VEC2",
      "bufferView": 2,
      "byteOffset": 992
    },
    {
      "name": "pCube15_1_2_indices",
      "componentType": 5123,
      "count": 24,
      "min": [
        0
      ],
      "max": [
        15
      ],
      "type": "SCALAR",
      "bufferView": 3,
      "byteOffset": 372
    },
    {
      "name": "pCube15_1_3_positions",
      "componentType": 5126,
      "count": 4,
      "min": [
        -7.516660213470459,
        -5.225612163543701,
        0.7357059717178345
      ],
      "max": [
        -1.256121039390564,
        -5.225612163543701,
        6.793053150177002
      ],
      "type": "VEC3",
      "bufferView": 0,
      "byteOffset": 1680
    },
    {
      "name": "pCube15_1_3_normals",
      "componentType": 5126,
      "count": 4,
      "min": [
        0,
        -1,
        0
      ],
      "max": [
        0,
        -1,
        0
      ],
      "type": "VEC3",
      "bufferView": 1,
      "byteOffset": 1680
    },
    {
      "name": "pCube15_1_3_texcoords",
      "componentType": 5126,
      "count": 4,
      "min": [
        -1.9854129552841187,
        0.022268999367952347
      ],
      "max": [
        -0.9994819760322571,
        0.980118989944458
      ],
      "type": "VEC2",
      "bufferView": 2,
      "byteOffset": 1120
    },
    {
      "name": "pCube15_1_3_indices",
      "componentType": 5123,
      "count": 6,
      "min": [
        0
      ],
      "max": [
        3
      ],
      "type": "SCALAR",
      "bufferView": 3,
      "byteOffset": 420
    },
    {
      "name": "pCube15_1_4_positions",
      "componentType": 5126,
      "count": 24,
      "min": [
        -22.375537872314453,
        -5.225612163543701,
        0
      ],
      "max": [
        -1.8120989799499512,
        8.889278411865234,
        13.271973609924316
      ],
      "type": "VEC3",
      "bufferView": 0,
      "byteOffset": 1728
    },
    {
      "name": "pCube15_1_4_normals",
      "componentType": 5126,
      "count": 24,
      "min": [
        -1,
        -1,
        0
      ],
      "max": [
        1,
        1,
        0
      ],
      "type": "VEC3",
      "bufferView": 1,
      "byteOffset": 1728
    },
    {
      "name": "pCube15_1_4_texcoords",
      "componentType": 5126,
      "count": 24,
      "min": [
        -7.97121000289917,
        -0.9092199802398682
      ],
      "max": [
        2.054033041000366,
        1.128533959388733
      ],
      "type": "VEC2",
      "bufferView": 2,
      "byteOffset": 1152
    },
    {
      "name": "pCube15_1_4_indices",
      "componentType": 5123,
      "count": 36,
      "min": [
        0
      ],
      "max": [
        23
      ],
      "type": "SCALAR",
      "bufferView": 3,
      "byteOffset": 432
    },
    {
      "name": "pCube15_1_5_positions",
      "componentType": 5126,
      "count": 4,
      "min": [
        -1.6293469667434692,
        -7.428238868713379,
        0
      ],
      "max": [
        19.6938419342041,
        -7.428238868713379,
        11.24703598022461
      ],
      "type": "VEC3",
      "bufferView": 0,
      "byteOffset": 2016
    },
    {
      "name": "pCube15_1_5_normals",
      "componentType": 5126,
      "count": 4,
      "min": [
        0,
        -1,
        0
      ],
      "max": [
        0,
        -1,
        0
      ],
      "type": "VEC3",
      "bufferView": 1,
      "byteOffset": 2016
    },
    {
      "name": "pCube15_1_5_texcoords",
      "componentType": 5126,
      "count": 4,
      "min": [
        -2.1225759983062744,
        -1.9657280445098877
      ],
      "max": [
        2.9758050441741943,
        -0.9699730277061462
      ],
      "type": "VEC2",
      "bufferView": 2,
      "byteOffset": 1344
    },
    {
      "name": "pCube15_1_5_indices",
      "componentType": 5123,
      "count": 6,
      "min": [
        0
      ],
      "max": [
        3
      ],
      "type": "SCALAR",
      "bufferView": 3,
      "byteOffset": 504
    },
    {
      "name": "pCube15_1_6_positions",
      "componentType": 5126,
      "count": 4,
      "min": [
        -1.6293469667434692,
        7.9731950759887695,
        0
      ],
      "max": [
        19.6938419342041,
        7.9731950759887695,
        11.24703598022461
      ],
      "type": "VEC3",
      "bufferView": 0,
      "byteOffset": 2064
    },
    {
      "name": "pCube15_1_6_normals",
      "componentType": 5126,
      "count": 4,
      "min": [
        0,
        1,
        0
      ],
      "max": [
        0,
        1,
        0
      ],
      "type": "VEC3",
      "bufferView": 1,
      "byteOffset": 2064
    },
    {
      "name": "pCube15_1_6_texcoords",
      "componentType": 5126,
      "count": 4,
      "min": [
        -0.926239013671875,
        -3.871227979660034
      ],
      "max": [
        3.908282995223999,
        -2.9488930702209473
      ],
      "type": "VEC2",
      "bufferView": 2,
      "byteOffset": 1376
    },
    {
      "name": "pCube15_1_6_indices",
      "componentType": 5123,
      "count": 6,
      "min": [
        0
      ],
      "max": [
        3
      ],
      "type": "SCALAR",
      "bufferView": 3,
      "byteOffset": 516
    },
    {
      "name": "pCube15_1_7_positions",
      "componentType": 5126,
      "count": 40,
      "min": [
        18.963022232055664,
        -3.6127068996429443,
        0
      ],
      "max": [
        22.37553596496582,
        1.2674100399017334,
        10.51892375946045
      ],
      "type": "VEC3",
      "bufferView": 0,
      "byteOffset": 2112
    },
    {
      "name": "pCube15_1_7_normals",
      "componentType": 5126,
      "count": 40,
      "min": [
        -0.0000019999999949504854,
        -1,
        -1
      ],
      "max": [
        1,
        1,
        1
      ],
      "type": "VEC3",
      "bufferView": 1,
      "byteOffset": 2112
    },
    {
      "name": "pCube15_1_7_texcoords",
      "componentType": 5126,
      "count": 40,
      "min": [
        -2.5285089015960693,
        -0.769150972366333
      ],
      "max": [
        1.946249008178711,
        1.9610400199890137
      ],
      "type": "VEC2",
      "bufferView": 2,
      "byteOffset": 1408
    },
    {
      "name": "pCube15_1_7_indices",
      "componentType": 5123,
      "count": 60,
      "min": [
        0
      ],
      "max": [
        39
      ],
      "type": "SCALAR",
      "bufferView": 3,
      "byteOffset": 528
    },
    {
      "name": "pCube15_1_8_positions",
      "componentType": 5126,
      "count": 44,
      "min": [
        -19.073762893676758,
        3.186937093734741,
        7.1073760986328125
      ],
      "max": [
        -13.842750549316406,
        9.187715530395508,
        13.621329307556152
      ],
      "type": "VEC3",
      "bufferView": 0,
      "byteOffset": 2592
    },
    {
      "name": "pCube15_1_8_normals",
      "componentType": 5126,
      "count": 44,
      "min": [
        -1,
        -1,
        -1
      ],
      "max": [
        1,
        1,
        1
      ],
      "type": "VEC3",
      "bufferView": 1,
      "byteOffset": 2592
    },
    {
      "name": "pCube15_1_8_texcoords",
      "componentType": 5126,
      "count": 44,
      "min": [
        0,
        0.05274999886751175
      ],
      "max": [
        0.9817079901695251,
        1
      ],
      "type": "VEC2",
      "bufferView": 2,
      "byteOffset": 1728
    },
    {
      "name": "pCube15_1_8_indices",
      "componentType": 5123,
      "count": 78,
      "min": [
        0
      ],
      "max": [
        43
      ],
      "type": "SCALAR",
      "bufferView": 3,
      "byteOffset": 648
    }
  ],
  "asset": {
    "generator": "obj2gltf",
    "version": "2.0"
  },
  "buffers": [
    {
      "name": "ff",
      "byteLength": 9124,
      "uri": "data:application/octet-stream;base64,"
    }
  ],
  "bufferViews": [
    {
      "name": "bufferView_0",
      "buffer": 0,
      "byteLength": 3120,
      "byteOffset": 0,
      "byteStride": 12,
      "target": 34962
    },
    {
      "name": "bufferView_1",
      "buffer": 0,
      "byteLength": 3120,
      "byteOffset": 3120,
      "byteStride": 12,
      "target": 34962
    },
    {
      "name": "bufferView_2",
      "buffer": 0,
      "byteLength": 2080,
      "byteOffset": 6240,
      "byteStride": 8,
      "target": 34962
    },
    {
      "name": "bufferView_3",
      "buffer": 0,
      "byteLength": 804,
      "byteOffset": 8320,
      "target": 34963
    }
  ],
  "images": [
    {
      "name": "ff_008",
      "uri": "ff_008.jpg"
    },
    {
      "name": "ff_004",
      "uri": "ff_004.jpg"
    },
    {
      "name": "ff_001",
      "uri": "ff_001.jpg"
    },
    {
      "name": "ff_007",
      "uri": "ff_007.jpg"
    },
    {
      "name": "ff_009",
      "uri": "ff_009.jpg"
    },
    {
      "name": "ff_003",
      "uri": "ff_003.jpg"
    },
    {
      "name": "ff_005",
      "uri": "ff_005.jpg"
    },
    {
      "name": "ff_006",
      "uri": "ff_006.jpg"
    },
    {
      "name": "ff_002",
      "uri": "ff_002.jpg"
    }
  ],
  "materials": [
    {
      "name": "lambert14SG",
      "pbrMetallicRoughness": {
        "baseColorTexture": {
          "index": 0
        },
        "baseColorFactor": [
          1,
          1,
          1,
          1
        ],
        "metallicFactor": 0,
        "roughnessFactor": 1
      },
      "emissiveFactor": [
        0,
        0,
        0
      ],
      "alphaMode": "OPAQUE",
      "doubleSided": false
    },
    {
      "name": "lambert11SG",
      "pbrMetallicRoughness": {
        "baseColorTexture": {
          "index": 1
        },
        "baseColorFactor": [
          1,
          1,
          1,
          1
        ],
        "metallicFactor": 0,
        "roughnessFactor": 1
      },
      "emissiveFactor": [
        0,
        0,
        0
      ],
      "alphaMode": "OPAQUE",
      "doubleSided": false
    },
    {
      "name": "lambert5SG",
      "pbrMetallicRoughness": {
        "baseColorTexture": {
          "index": 2
        },
        "baseColorFactor": [
          1,
          1,
          1,
          1
        ],
        "metallicFactor": 0,
        "roughnessFactor": 1
      },
      "emissiveFactor": [
        0,
        0,
        0
      ],
      "alphaMode": "OPAQUE",
      "doubleSided": false
    },
    {
      "name": "lambert2SG",
      "pbrMetallicRoughness": {
        "baseColorTexture": {
          "index": 3
        },
        "baseColorFactor": [
          1,
          1,
          1,
          1
        ],
        "metallicFactor": 0,
        "roughnessFactor": 1
      },
      "emissiveFactor": [
        0,
        0,
        0
      ],
      "alphaMode": "OPAQUE",
      "doubleSided": false
    },
    {
      "name": "lambert4SG",
      "pbrMetallicRoughness": {
        "baseColorTexture": {
          "index": 4
        },
        "baseColorFactor": [
          1,
          1,
          1,
          1
        ],
        "metallicFactor": 0,
        "roughnessFactor": 1
      },
      "emissiveFactor": [
        0,
        0,
        0
      ],
      "alphaMode": "OPAQUE",
      "doubleSided": false
    },
    {
      "name": "lambert6SG",
      "pbrMetallicRoughness": {
        "baseColorTexture": {
          "index": 5
        },
        "baseColorFactor": [
          1,
          1,
          1,
          1
        ],
        "metallicFactor": 0,
        "roughnessFactor": 1
      },
      "emissiveFactor": [
        0,
        0,
        0
      ],
      "alphaMode": "OPAQUE",
      "doubleSided": false
    },
    {
      "name": "lambert12SG",
      "pbrMetallicRoughness": {
        "baseColorTexture": {
          "index": 6
        },
        "baseColorFactor": [
          1,
          1,
          1,
          1
        ],
        "metallicFactor": 0,
        "roughnessFactor": 1
      },
      "emissiveFactor": [
        0,
        0,
        0
      ],
      "alphaMode": "OPAQUE",
      "doubleSided": false
    },
    {
      "name": "lambert8SG",
      "pbrMetallicRoughness": {
        "baseColorTexture": {
          "index": 7
        },
        "baseColorFactor": [
          1,
          1,
          1,
          1
        ],
        "metallicFactor": 0,
        "roughnessFactor": 1
      },
      "emissiveFactor": [
        0,
        0,
        0
      ],
      "alphaMode": "OPAQUE",
      "doubleSided": false
    },
    {
      "name": "lambert13SG",
      "pbrMetallicRoughness": {
        "baseColorTexture": {
          "index": 8
        },
        "baseColorFactor": [
          1,
          1,
          1,
          1
        ],
        "metallicFactor": 0,
        "roughnessFactor": 1
      },
      "emissiveFactor": [
        0,
        0,
        0
      ],
      "alphaMode": "OPAQUE",
      "doubleSided": false
    }
  ],
  "meshes": [
    {
      "name": "pCube15_1",
      "primitives": [
        {
          "attributes": {
            "POSITION": 0,
            "NORMAL": 1,
            "TEXCOORD_0": 2
          },
          "indices": 3,
          "material": 0,
          "mode": 4
        },
        {
          "attributes": {
            "POSITION": 4,
            "NORMAL": 5,
            "TEXCOORD_0": 6
          },
          "indices": 7,
          "material": 1,
          "mode": 4
        },
        {
          "attributes": {
            "POSITION": 8,
            "NORMAL": 9,
            "TEXCOORD_0": 10
          },
          "indices": 11,
          "material": 2,
          "mode": 4
        },
        {
          "attributes": {
            "POSITION": 12,
            "NORMAL": 13,
            "TEXCOORD_0": 14
          },
          "indices": 15,
          "material": 3,
          "mode": 4
        },
        {
          "attributes": {
            "POSITION": 16,
            "NORMAL": 17,
            "TEXCOORD_0": 18
          },
          "indices": 19,
          "material": 4,
          "mode": 4
        },
        {
          "attributes": {
            "POSITION": 20,
            "NORMAL": 21,
            "TEXCOORD_0": 22
          },
          "indices": 23,
          "material": 5,
          "mode": 4
        },
        {
          "attributes": {
            "POSITION": 24,
            "NORMAL": 25,
            "TEXCOORD_0": 26
          },
          "indices": 27,
          "material": 6,
          "mode": 4
        },
        {
          "attributes": {
            "POSITION": 28,
            "NORMAL": 29,
            "TEXCOORD_0": 30
          },
          "indices": 31,
          "material": 7,
          "mode": 4
        },
        {
          "attributes": {
            "POSITION": 32,
            "NORMAL": 33,
            "TEXCOORD_0": 34
          },
          "indices": 35,
          "material": 8,
          "mode": 4
        }
      ]
    }
  ],
  "nodes": [
    {
      "name": "pCube15",
      "mesh": 0
    }
  ],
  "samplers": [
    {
      "wrapS": 10497,
      "wrapT": 10497
    }
  ],
  "scene": 0,
  "scenes": [
    {
      "nodes": [
        0
      ]
    }
  ],
  "textures": [
    {
      "name": "ff_008",
      "sampler": 0,
      "source": 0
    },
    {
      "name": "ff_004",
      "sampler": 0,
      "source": 1
    },
    {
      "name": "ff_001",
      "sampler": 0,
      "source": 2
    },
    {
      "name": "ff_007",
      "sampler": 0,
      "source": 3
    },
    {
      "name": "ff_009",
      "sampler": 0,
      "source": 4
    },
    {
      "name": "ff_003",
      "sampler": 0,
      "source": 5
    },
    {
      "name": "ff_005",
      "sampler": 0,
      "source": 6
    },
    {
      "name": "ff_006",
      "sampler": 0,
      "source": 7
    },
    {
      "name": "ff_002",
      "sampler": 0,
      "source": 8
    }
  ]
}
