{
  "accessors": [
    {
      "name": "Box001_1_0_positions",
      "componentType": 5126,
      "count": 101,
      "min": [
        -2.7602999210357666,
        -13.32919979095459,
        8.856200218200684
      ],
      "max": [
        24.338899612426758,
        12.996899604797363,
        24
      ],
      "type": "VEC3",
      "bufferView": 0,
      "byteOffset": 0
    },
    {
      "name": "Box001_1_0_normals",
      "componentType": 5126,
      "count": 101,
      "min": [
        -1,
        -0.9995037317276001,
        0
      ],
      "max": [
        1,
        0.9993152618408203,
        0
      ],
      "type": "VEC3",
      "bufferView": 1,
      "byteOffset": 0
    },
    {
      "name": "Box001_1_0_texcoords",
      "componentType": 5126,
      "count": 101,
      "min": [
        0,
        -1.0054999589920044
      ],
      "max": [
        1.1227999925613403,
        2.015500068664551
      ],
      "type": "VEC2",
      "bufferView": 2,
      "byteOffset": 0
    },
    {
      "name": "Box001_1_0_indices",
      "componentType": 5123,
      "count": 168,
      "min": [
        0
      ],
      "max": [
        100
      ],
      "type": "SCALAR",
      "bufferView": 3,
      "byteOffset": 0
    },
    {
      "name": "Box001_1_1_positions",
      "componentType": 5126,
      "count": 244,
      "min": [
        -24.308000564575195,
        -17.08009910583496,
        0
      ],
      "max": [
        24.338899612426758,
        17.08009910583496,
        27.212200164794922
      ],
      "type": "VEC3",
      "bufferView": 0,
      "byteOffset": 1212
    },
    {
      "name": "Box001_1_1_normals",
      "componentType": 5126,
      "count": 244,
      "min": [
        -1,
        -1,
        -1
      ],
      "max": [
        1,
        1,
        1
      ],
      "type": "VEC3",
      "bufferView": 1,
      "byteOffset": 1212
    },
    {
      "name": "Box001_1_1_texcoords",
      "componentType": 5126,
      "count": 244,
      "min": [
        -1.1592999696731567,
        -1.9835000038146973
      ],
      "max": [
        2.1593000888824463,
        3.5720999240875244
      ],
      "type": "VEC2",
      "bufferView": 2,
      "byteOffset": 808
    },
    {
      "name": "Box001_1_1_indices",
      "componentType": 5123,
      "count": 366,
      "min": [
        0
      ],
      "max": [
        243
      ],
      "type": "SCALAR",
      "bufferView": 3,
      "byteOffset": 336
    },
    {
      "name": "Box001_1_2_positions",
      "componentType": 5126,
      "count": 60,
      "min": [
        -2.7602999210357666,
        -13.32919979095459,
        12.452799797058105
      ],
      "max": [
        22.65049934387207,
        12.996899604797363,
        17.75320053100586
      ],
      "type": "VEC3",
      "bufferView": 0,
      "byteOffset": 4140
    },
    {
      "name": "Box001_1_2_normals",
      "componentType": 5126,
      "count": 60,
      "min": [
        -1,
        -0.9995994567871094,
        -0.6812023520469666
      ],
      "max": [
        0.5851947665214539,
        0,
        0.6811003088951111
      ],
      "type": "VEC3",
      "bufferView": 1,
      "byteOffset": 4140
    },
    {
      "name": "Box001_1_2_texcoords",
      "componentType": 5126,
      "count": 60,
      "min": [
        -1.36080002784729,
        0.020899999886751175
      ],
      "max": [
        3.9028000831604004,
        1.0011999607086182
      ],
      "type": "VEC2",
      "bufferView": 2,
      "byteOffset": 2760
    },
    {
      "name": "Box001_1_2_indices",
      "componentType": 5123,
      "count": 78,
      "min": [
        0
      ],
      "max": [
        59
      ],
      "type": "SCALAR",
      "bufferView": 3,
      "byteOffset": 1068
    },
    {
      "name": "Box001_1_3_positions",
      "componentType": 5126,
      "count": 48,
      "min": [
        -1.8904000520706177,
        -11.239700317382812,
        0
      ],
      "max": [
        21.52239990234375,
        11.130000114440918,
        11.618800163269043
      ],
      "type": "VEC3",
      "bufferView": 0,
      "byteOffset": 4860
    },
    {
      "name": "Box001_1_3_normals",
      "componentType": 5126,
      "count": 48,
      "min": [
        -1,
        -1,
        0
      ],
      "max": [
        1,
        1,
        0
      ],
      "type": "VEC3",
      "bufferView": 1,
      "byteOffset": 4860
    },
    {
      "name": "Box001_1_3_texcoords",
      "componentType": 5126,
      "count": 48,
      "min": [
        -2.867000102996826,
        0
      ],
      "max": [
        3.867000102996826,
        1
      ],
      "type": "VEC2",
      "bufferView": 2,
      "byteOffset": 3240
    },
    {
      "name": "Box001_1_3_indices",
      "componentType": 5123,
      "count": 72,
      "min": [
        0
      ],
      "max": [
        47
      ],
      "type": "SCALAR",
      "bufferView": 3,
      "byteOffset": 1224
    },
    {
      "name": "Box001_1_4_positions",
      "componentType": 5126,
      "count": 64,
      "min": [
        -2.7602999210357666,
        -13.32919979095459,
        0
      ],
      "max": [
        24.338899612426758,
        12.996899604797363,
        24.881799697875977
      ],
      "type": "VEC3",
      "bufferView": 0,
      "byteOffset": 5436
    },
    {
      "name": "Box001_1_4_normals",
      "componentType": 5126,
      "count": 64,
      "min": [
        -1,
        -0.9988328218460083,
        -0.9704241752624512
      ],
      "max": [
        1,
        0.9999999403953552,
        1
      ],
      "type": "VEC3",
      "bufferView": 1,
      "byteOffset": 5436
    },
    {
      "name": "Box001_1_4_texcoords",
      "componentType": 5126,
      "count": 64,
      "min": [
        -2.984299898147583,
        -0.5806000232696533
      ],
      "max": [
        4.7067999839782715,
        1.5535999536514282
      ],
      "type": "VEC2",
      "bufferView": 2,
      "byteOffset": 3624
    },
    {
      "name": "Box001_1_4_indices",
      "componentType": 5123,
      "count": 96,
      "min": [
        0
      ],
      "max": [
        63
      ],
      "type": "SCALAR",
      "bufferView": 3,
      "byteOffset": 1368
    },
    {
      "name": "Box001_1_5_positions",
      "componentType": 5126,
      "count": 234,
      "min": [
        -22.344499588012695,
        -13.57129955291748,
        0
      ],
      "max": [
        21.800899505615234,
        13.034700393676758,
        29.401100158691406
      ],
      "type": "VEC3",
      "bufferView": 0,
      "byteOffset": 6204
    },
    {
      "name": "Box001_1_5_normals",
      "componentType": 5126,
      "count": 234,
      "min": [
        -1,
        -1,
        -0.17570756375789642
      ],
      "max": [
        1,
        1,
        0.17570756375789642
      ],
      "type": "VEC3",
      "bufferView": 1,
      "byteOffset": 6204
    },
    {
      "name": "Box001_1_5_texcoords",
      "componentType": 5126,
      "count": 234,
      "min": [
        -0.125,
        -1.8652000427246094
      ],
      "max": [
        0.9779000282287598,
        2.8652000427246094
      ],
      "type": "VEC2",
      "bufferView": 2,
      "byteOffset": 4136
    },
    {
      "name": "Box001_1_5_indices",
      "componentType": 5123,
      "count": 576,
      "min": [
        0
      ],
      "max": [
        233
      ],
      "type": "SCALAR",
      "bufferView": 3,
      "byteOffset": 1560
    },
    {
      "name": "Box001_1_6_positions",
      "componentType": 5126,
      "count": 46,
      "min": [
        -24.34749984741211,
        -15.233099937438965,
        24.881799697875977
      ],
      "max": [
        24.34749984741211,
        14.250699996948242,
        30.712099075317383
      ],
      "type": "VEC3",
      "bufferView": 0,
      "byteOffset": 9012
    },
    {
      "name": "Box001_1_6_normals",
      "componentType": 5126,
      "count": 46,
      "min": [
        -0.9090737104415894,
        -0.9988133907318115,
        -1
      ],
      "max": [
        0.9999994039535522,
        0.9984418153762817,
        1
      ],
      "type": "VEC3",
      "bufferView": 1,
      "byteOffset": 9012
    },
    {
      "name": "Box001_1_6_texcoords",
      "componentType": 5126,
      "count": 46,
      "min": [
        -2.1226999759674072,
        -0.724399983882904
      ],
      "max": [
        3.1226999759674072,
        1.819700002670288
      ],
      "type": "VEC2",
      "bufferView": 2,
      "byteOffset": 6008
    },
    {
      "name": "Box001_1_6_indices",
      "componentType": 5123,
      "count": 78,
      "min": [
        0
      ],
      "max": [
        45
      ],
      "type": "SCALAR",
      "bufferView": 3,
      "byteOffset": 2712
    },
    {
      "name": "Box001_1_7_positions",
      "componentType": 5126,
      "count": 4,
      "min": [
        6.268099784851074,
        -12.276200294494629,
        0.007000000216066837
      ],
      "max": [
        12.831700325012207,
        -12.003299713134766,
        5.722400188446045
      ],
      "type": "VEC3",
      "bufferView": 0,
      "byteOffset": 9564
    },
    {
      "name": "Box001_1_7_normals",
      "componentType": 5126,
      "count": 4,
      "min": [
        0.041501596570014954,
        -0.9991384148597717,
        0
      ],
      "max": [
        0.041501596570014954,
        -0.9991384148597717,
        0
      ],
      "type": "VEC3",
      "bufferView": 1,
      "byteOffset": 9564
    },
    {
      "name": "Box001_1_7_texcoords",
      "componentType": 5126,
      "count": 4,
      "min": [
        -0.000699999975040555,
        0
      ],
      "max": [
        0.9894000291824341,
        1
      ],
      "type": "VEC2",
      "bufferView": 2,
      "byteOffset": 6376
    },
    {
      "name": "Box001_1_7_indices",
      "componentType": 5123,
      "count": 6,
      "min": [
        0
      ],
      "max": [
        3
      ],
      "type": "SCALAR",
      "bufferView": 3,
      "byteOffset": 2868
    },
    {
      "name": "Box001_1_8_positions",
      "componentType": 5126,
      "count": 38,
      "min": [
        5.379300117492676,
        -14.862799644470215,
        0.007000000216066837
      ],
      "max": [
        13.720600128173828,
        -9.536299705505371,
        7.708899974822998
      ],
      "type": "VEC3",
      "bufferView": 0,
      "byteOffset": 9612
    },
    {
      "name": "Box001_1_8_normals",
      "componentType": 5126,
      "count": 38,
      "min": [
        -1,
        -0.9990578293800354,
        -1
      ],
      "max": [
        1,
        0,
        0
      ],
      "type": "VEC3",
      "bufferView": 1,
      "byteOffset": 9612
    },
    {
      "name": "Box001_1_8_texcoords",
      "componentType": 5126,
      "count": 38,
      "min": [
        -1.371000051498413,
        -2.2260000705718994
      ],
      "max": [
        2.3724000453948975,
        1.892300009727478
      ],
      "type": "VEC2",
      "bufferView": 2,
      "byteOffset": 6408
    },
    {
      "name": "Box001_1_8_indices",
      "componentType": 5123,
      "count": 72,
      "min": [
        0
      ],
      "max": [
        37
      ],
      "type": "SCALAR",
      "bufferView": 3,
      "byteOffset": 2880
    },
    {
      "name": "Box001_1_9_positions",
      "componentType": 5126,
      "count": 544,
      "min": [
        -4.05679988861084,
        -12.209699630737305,
        0
      ],
      "max": [
        13.107099533081055,
        6.020100116729736,
        36.96229934692383
      ],
      "type": "VEC3",
      "bufferView": 0,
      "byteOffset": 10068
    },
    {
      "name": "Box001_1_9_normals",
      "componentType": 5126,
      "count": 544,
      "min": [
        -1,
        -1,
        -1
      ],
      "max": [
        1,
        1,
        1
      ],
      "type": "VEC3",
      "bufferView": 1,
      "byteOffset": 10068
    },
    {
      "name": "Box001_1_9_texcoords",
      "componentType": 5126,
      "count": 544,
      "min": [
        -4.433700084686279,
        -5.411499977111816
      ],
      "max": [
        13.315299987792969,
        7.655099868774414
      ],
      "type": "VEC2",
      "bufferView": 2,
      "byteOffset": 6712
    },
    {
      "name": "Box001_1_9_indices",
      "componentType": 5123,
      "count": 1380,
      "min": [
        0
      ],
      "max": [
        543
      ],
      "type": "SCALAR",
      "bufferView": 3,
      "byteOffset": 3024
    },
    {
      "name": "Box001_1_10_positions",
      "componentType": 5126,
      "count": 4,
      "min": [
        -1.8904000520706177,
        -9.678899765014648,
        0
      ],
      "max": [
        13.730299949645996,
        -9.666999816894531,
        6.337399959564209
      ],
      "type": "VEC3",
      "bufferView": 0,
      "byteOffset": 16596
    },
    {
      "name": "Box001_1_10_normals",
      "componentType": 5126,
      "count": 4,
      "min": [
        0.0007999997469596565,
        -0.9999997019767761,
        0
      ],
      "max": [
        0.0007999997469596565,
        -0.9999997019767761,
        0
      ],
      "type": "VEC3",
      "bufferView": 1,
      "byteOffset": 16596
    },
    {
      "name": "Box001_1_10_texcoords",
      "componentType": 5126,
      "count": 4,
      "min": [
        -5.048299789428711,
        -0.03739999979734421
      ],
      "max": [
        4.951700210571289,
        1.003999948501587
      ],
      "type": "VEC2",
      "bufferView": 2,
      "byteOffset": 11064
    },
    {
      "name": "Box001_1_10_indices",
      "componentType": 5123,
      "count": 6,
      "min": [
        0
      ],
      "max": [
        3
      ],
      "type": "SCALAR",
      "bufferView": 3,
      "byteOffset": 5784
    },
    {
      "name": "Box001_1_11_positions",
      "componentType": 5126,
      "count": 16,
      "min": [
        -22.749399185180664,
        -15.941399574279785,
        8.692399978637695
      ],
      "max": [
        23.517000198364258,
        15.749899864196777,
        11.322400093078613
      ],
      "type": "VEC3",
      "bufferView": 0,
      "byteOffset": 16644
    },
    {
      "name": "Box001_1_11_normals",
      "componentType": 5126,
      "count": 16,
      "min": [
        -0.944222629070282,
        -0.9987791180610657,
        0
      ],
      "max": [
        1,
        0.9910893440246582,
        0
      ],
      "type": "VEC3",
      "bufferView": 1,
      "byteOffset": 16644
    },
    {
      "name": "Box001_1_11_texcoords",
      "componentType": 5126,
      "count": 16,
      "min": [
        -9.527899742126465,
        -0.0681999996304512
      ],
      "max": [
        10.510199546813965,
        1.0681999921798706
      ],
      "type": "VEC2",
      "bufferView": 2,
      "byteOffset": 11096
    },
    {
      "name": "Box001_1_11_indices",
      "componentType": 5123,
      "count": 24,
      "min": [
        0
      ],
      "max": [
        15
      ],
      "type": "SCALAR",
      "bufferView": 3,
      "byteOffset": 5796
    },
    {
      "name": "Box001_1_12_positions",
      "componentType": 5126,
      "count": 4,
      "min": [
        -2.771899938583374,
        -4.343800067901611,
        16.822999954223633
      ],
      "max": [
        -2.771899938583374,
        3.0722999572753906,
        22.66469955444336
      ],
      "type": "VEC3",
      "bufferView": 0,
      "byteOffset": 16836
    },
    {
      "name": "Box001_1_12_normals",
      "componentType": 5126,
      "count": 4,
      "min": [
        -1,
        0,
        0
      ],
      "max": [
        -1,
        0,
        0
      ],
      "type": "VEC3",
      "bufferView": 1,
      "byteOffset": 16836
    },
    {
      "name": "Box001_1_12_texcoords",
      "componentType": 5126,
      "count": 4,
      "min": [
        0.04129999876022339,
        0.12870000302791595
      ],
      "max": [
        0.9587000012397766,
        0.9180999994277954
      ],
      "type": "VEC2",
      "bufferView": 2,
      "byteOffset": 11224
    },
    {
      "name": "Box001_1_12_indices",
      "componentType": 5123,
      "count": 6,
      "min": [
        0
      ],
      "max": [
        3
      ],
      "type": "SCALAR",
      "bufferView": 3,
      "byteOffset": 5844
    },
    {
      "name": "Box001_1_13_positions",
      "componentType": 5126,
      "count": 4,
      "min": [
        -2.771899938583374,
        -12.186599731445312,
        18.318300247192383
      ],
      "max": [
        -2.771899938583374,
        -7.294600009918213,
        20.669300079345703
      ],
      "type": "VEC3",
      "bufferView": 0,
      "byteOffset": 16884
    },
    {
      "name": "Box001_1_13_normals",
      "componentType": 5126,
      "count": 4,
      "min": [
        -1,
        0,
        0
      ],
      "max": [
        -1,
        0,
        0
      ],
      "type": "VEC3",
      "bufferView": 1,
      "byteOffset": 16884
    },
    {
      "name": "Box001_1_13_texcoords",
      "componentType": 5126,
      "count": 4,
      "min": [
        0.02419999986886978,
        0.056299999356269836
      ],
      "max": [
        0.9757999777793884,
        0.9437000155448914
      ],
      "type": "VEC2",
      "bufferView": 2,
      "byteOffset": 11256
    },
    {
      "name": "Box001_1_13_indices",
      "componentType": 5123,
      "count": 6,
      "min": [
        0
      ],
      "max": [
        3
      ],
      "type": "SCALAR",
      "bufferView": 3,
      "byteOffset": 5856
    },
    {
      "name": "Box001_1_14_positions",
      "componentType": 5126,
      "count": 4,
      "min": [
        -2.5097999572753906,
        -13.479499816894531,
        18.364500045776367
      ],
      "max": [
        10.113499641418457,
        -12.884099960327148,
        23.89080047607422
      ],
      "type": "VEC3",
      "bufferView": 0,
      "byteOffset": 16932
    },
    {
      "name": "Box001_1_14_normals",
      "componentType": 5126,
      "count": 4,
      "min": [
        0.04709953814744949,
        -0.998890221118927,
        0
      ],
      "max": [
        0.04709953814744949,
        -0.998890221118927,
        0
      ],
      "type": "VEC3",
      "bufferView": 1,
      "byteOffset": 16932
    },
    {
      "name": "Box001_1_14_texcoords",
      "componentType": 5126,
      "count": 4,
      "min": [
        0,
        0
      ],
      "max": [
        1,
        1
      ],
      "type": "VEC2",
      "bufferView": 2,
      "byteOffset": 11288
    },
    {
      "name": "Box001_1_14_indices",
      "componentType": 5123,
      "count": 6,
      "min": [
        0
      ],
      "max": [
        3
      ],
      "type": "SCALAR",
      "bufferView": 3,
      "byteOffset": 5868
    }
  ],
  "asset": {
    "generator": "obj2gltf",
    "version": "2.0"
  },
  "buffers": [
    {
      "name": "Q7",
      "byteLength": 51160,
      "uri": "data:application/octet-stream;base64,"
    }
  ],
  "bufferViews": [
    {
      "name": "bufferView_0",
      "buffer": 0,
      "byteLength": 16980,
      "byteOffset": 0,
      "byteStride": 12,
      "target": 34962
    },
    {
      "name": "bufferView_1",
      "buffer": 0,
      "byteLength": 16980,
      "byteOffset": 16980,
      "byteStride": 12,
      "target": 34962
    },
    {
      "name": "bufferView_2",
      "buffer": 0,
      "byteLength": 11320,
      "byteOffset": 33960,
      "byteStride": 8,
      "target": 34962
    },
    {
      "name": "bufferView_3",
      "buffer": 0,
      "byteLength": 5880,
      "byteOffset": 45280,
      "target": 34963
    }
  ],
  "images": [
    {
      "name": "SGY_q1_145",
      "uri": "SGY_q1_145.jpg"
    },
    {
      "name": "SGY_Q1_010",
      "uri": "SGY_Q1_010.jpg"
    },
    {
      "name": "SGY_q1_146",
      "uri": "SGY_q1_146.jpg"
    },
    {
      "name": "sgy_2q_08",
      "uri": "sgy_2q_08.jpg"
    },
    {
      "name": "SGY_q1_089",
      "uri": "SGY_q1_089.jpg"
    },
    {
      "name": "SGY_q1_059",
      "uri": "SGY_q1_059.jpg"
    },
    {
      "name": "SGY_q1_075",
      "uri": "SGY_q1_075.jpg"
    },
    {
      "name": "SGY_q1_148",
      "uri": "SGY_q1_148.jpg"
    },
    {
      "name": "SGY_q1_147",
      "uri": "SGY_q1_147.jpg"
    },
    {
      "name": "SGY_q1_149",
      "uri": "SGY_q1_149.jpg"
    },
    {
      "name": "SGY_q1_150",
      "uri": "SGY_q1_150.jpg"
    },
    {
      "name": "SGY_q1_151",
      "uri": "SGY_q1_151.png"
    },
    {
      "name": "SGY_q1_153",
      "uri": "SGY_q1_153.png"
    },
    {
      "name": "SGY_q1_152",
      "uri": "SGY_q1_152.png"
    },
    {
      "name": "SGY_q1_154",
      "uri": "SGY_q1_154.png"
    }
  ],
  "materials": [
    {
      "name": "Material__0",
      "pbrMetallicRoughness": {
        "baseColorTexture": {
          "index": 0
        },
        "baseColorFactor": [
          1,
          1,
          1,
          1
        ],
        "metallicFactor": 0,
        "roughnessFactor": 0.99
      },
      "emissiveFactor": [
        0,
        0,
        0
      ],
      "alphaMode": "OPAQUE",
      "doubleSided": false
    },
    {
      "name": "Material__102",
      "pbrMetallicRoughness": {
        "baseColorTexture": {
          "index": 1
        },
        "baseColorFactor": [
          1,
          1,
          1,
          1
        ],
        "metallicFactor": 0,
        "roughnessFactor": 0.99
      },
      "emissiveFactor": [
        0,
        0,
        0
      ],
      "alphaMode": "OPAQUE",
      "doubleSided": false
    },
    {
      "name": "Material__115",
      "pbrMetallicRoughness": {
        "baseColorTexture": {
          "index": 2
        },
        "baseColorFactor": [
          1,
          1,
          1,
          1
        ],
        "metallicFactor": 0,
        "roughnessFactor": 0.99
      },
      "emissiveFactor": [
        0,
        0,
        0
      ],
      "alphaMode": "OPAQUE",
      "doubleSided": false
    },
    {
      "name": "Material__300",
      "pbrMetallicRoughness": {
        "baseColorTexture": {
          "index": 3
        },
        "baseColorFactor": [
          1,
          1,
          1,
          1
        ],
        "metallicFactor": 0,
        "roughnessFactor": 0.99
      },
      "emissiveFactor": [
        0,
        0,
        0
      ],
      "alphaMode": "OPAQUE",
      "doubleSided": false
    },
    {
      "name": "Material__89",
      "pbrMetallicRoughness": {
        "baseColorTexture": {
          "index": 4
        },
        "baseColorFactor": [
          1,
          1,
          1,
          1
        ],
        "metallicFactor": 0,
        "roughnessFactor": 0.99
      },
      "emissiveFactor": [
        0,
        0,
        0
      ],
      "alphaMode": "OPAQUE",
      "doubleSided": false
    },
    {
      "name": "Material__229",
      "pbrMetallicRoughness": {
        "baseColorTexture": {
          "index": 5
        },
        "baseColorFactor": [
          1,
          1,
          1,
          1
        ],
        "metallicFactor": 0,
        "roughnessFactor": 0.99
      },
      "emissiveFactor": [
        0,
        0,
        0
      ],
      "alphaMode": "OPAQUE",
      "doubleSided": false
    },
    {
      "name": "Material__183",
      "pbrMetallicRoughness": {
        "baseColorTexture": {
          "index": 6
        },
        "baseColorFactor": [
          1,
          1,
          1,
          1
        ],
        "metallicFactor": 0,
        "roughnessFactor": 0.99
      },
      "emissiveFactor": [
        0,
        0,
        0
      ],
      "alphaMode": "OPAQUE",
      "doubleSided": false
    },
    {
      "name": "Material__275",
      "pbrMetallicRoughness": {
        "baseColorTexture": {
          "index": 7
        },
        "baseColorFactor": [
          1,
          1,
          1,
          1
        ],
        "metallicFactor": 0,
        "roughnessFactor": 0.99
      },
      "emissiveFactor": [
        0,
        0,
        0
      ],
      "alphaMode": "OPAQUE",
      "doubleSided": false
    },
    {
      "name": "Material__263",
      "pbrMetallicRoughness": {
        "baseColorTexture": {
          "index": 8
        },
        "baseColorFactor": [
          1,
          1,
          1,
          1
        ],
        "metallicFactor": 0,
        "roughnessFactor": 0.99
      },
      "emissiveFactor": [
        0,
        0,
        0
      ],
      "alphaMode": "OPAQUE",
      "doubleSided": false
    },
    {
      "name": "Material__287",
      "pbrMetallicRoughness": {
        "baseColorTexture": {
          "index": 9
        },
        "baseColorFactor": [
          1,
          1,
          1,
          1
        ],
        "metallicFactor": 0,
        "roughnessFactor": 0.99
      },
      "emissiveFactor": [
        0,
        0,
        0
      ],
      "alphaMode": "OPAQUE",
      "doubleSided": false
    },
    {
      "name": "Material__288",
      "pbrMetallicRoughness": {
        "baseColorTexture": {
          "index": 10
        },
        "baseColorFactor": [
          1,
          1,
          1,
          1
        ],
        "metallicFactor": 0,
        "roughnessFactor": 0.99
      },
      "emissiveFactor": [
        0,
        0,
        0
      ],
      "alphaMode": "OPAQUE",
      "doubleSided": false
    },
    {
      "name": "Material__403",
      "pbrMetallicRoughness": {
        "baseColorTexture": {
          "index": 11
        },
        "baseColorFactor": [
          1,
          1,
          1,
          1
        ],
        "metallicFactor": 0,
        "roughnessFactor": 0.99
      },
      "emissiveFactor": [
        0,
        0,
        0
      ],
      "alphaMode": "BLEND",
      "doubleSided": true
    },
    {
      "name": "Material__530",
      "pbrMetallicRoughness": {
        "baseColorTexture": {
          "index": 12
        },
        "baseColorFactor": [
          1,
          1,
          1,
          1
        ],
        "metallicFactor": 0,
        "roughnessFactor": 0.99
      },
      "emissiveFactor": [
        0,
        0,
        0
      ],
      "alphaMode": "BLEND",
      "doubleSided": true
    },
    {
      "name": "Material__529",
      "pbrMetallicRoughness": {
        "baseColorTexture": {
          "index": 13
        },
        "baseColorFactor": [
          1,
          1,
          1,
          1
        ],
        "metallicFactor": 0,
        "roughnessFactor": 0.99
      },
      "emissiveFactor": [
        0,
        0,
        0
      ],
      "alphaMode": "BLEND",
      "doubleSided": true
    },
    {
      "name": "Material__531",
      "pbrMetallicRoughness": {
        "baseColorTexture": {
          "index": 14
        },
        "baseColorFactor": [
          1,
          1,
          1,
          1
        ],
        "metallicFactor": 0,
        "roughnessFactor": 0.99
      },
      "emissiveFactor": [
        0,
        0,
        0
      ],
      "alphaMode": "BLEND",
      "doubleSided": true
    }
  ],
  "meshes": [
    {
      "name": "Box001_1",
      "primitives": [
        {
          "attributes": {
            "POSITION": 0,
            "NORMAL": 1,
            "TEXCOORD_0": 2
          },
          "indices": 3,
          "material": 0,
          "mode": 4
        },
        {
          "attributes": {
            "POSITION": 4,
            "NORMAL": 5,
            "TEXCOORD_0": 6
          },
          "indices": 7,
          "material": 1,
          "mode": 4
        },
        {
          "attributes": {
            "POSITION": 8,
            "NORMAL": 9,
            "TEXCOORD_0": 10
          },
          "indices": 11,
          "material": 2,
          "mode": 4
        },
        {
          "attributes": {
            "POSITION": 12,
            "NORMAL": 13,
            "TEXCOORD_0": 14
          },
          "indices": 15,
          "material": 3,
          "mode": 4
        },
        {
          "attributes": {
            "POSITION": 16,
            "NORMAL": 17,
            "TEXCOORD_0": 18
          },
          "indices": 19,
          "material": 4,
          "mode": 4
        },
        {
          "attributes": {
            "POSITION": 20,
            "NORMAL": 21,
            "TEXCOORD_0": 22
          },
          "indices": 23,
          "material": 5,
          "mode": 4
        },
        {
          "attributes": {
            "POSITION": 24,
            "NORMAL": 25,
            "TEXCOORD_0": 26
          },
          "indices": 27,
          "material": 6,
          "mode": 4
        },
        {
          "attributes": {
            "POSITION": 28,
            "NORMAL": 29,
            "TEXCOORD_0": 30
          },
          "indices": 31,
          "material": 7,
          "mode": 4
        },
        {
          "attributes": {
            "POSITION": 32,
            "NORMAL": 33,
            "TEXCOORD_0": 34
          },
          "indices": 35,
          "material": 8,
          "mode": 4
        },
        {
          "attributes": {
            "POSITION": 36,
            "NORMAL": 37,
            "TEXCOORD_0": 38
          },
          "indices": 39,
          "material": 9,
          "mode": 4
        },
        {
          "attributes": {
            "POSITION": 40,
            "NORMAL": 41,
            "TEXCOORD_0": 42
          },
          "indices": 43,
          "material": 10,
          "mode": 4
        },
        {
          "attributes": {
            "POSITION": 44,
            "NORMAL": 45,
            "TEXCOORD_0": 46
          },
          "indices": 47,
          "material": 11,
          "mode": 4
        },
        {
          "attributes": {
            "POSITION": 48,
            "NORMAL": 49,
            "TEXCOORD_0": 50
          },
          "indices": 51,
          "material": 12,
          "mode": 4
        },
        {
          "attributes": {
            "POSITION": 52,
            "NORMAL": 53,
            "TEXCOORD_0": 54
          },
          "indices": 55,
          "material": 13,
          "mode": 4
        },
        {
          "attributes": {
            "POSITION": 56,
            "NORMAL": 57,
            "TEXCOORD_0": 58
          },
          "indices": 59,
          "material": 14,
          "mode": 4
        }
      ]
    }
  ],
  "nodes": [
    {
      "name": "Box001",
      "mesh": 0
    }
  ],
  "samplers": [
    {
      "wrapS": 10497,
      "wrapT": 10497
    }
  ],
  "scene": 0,
  "scenes": [
    {
      "nodes": [
        0
      ]
    }
  ],
  "textures": [
    {
      "name": "SGY_q1_145",
      "sampler": 0,
      "source": 0
    },
    {
      "name": "SGY_Q1_010",
      "sampler": 0,
      "source": 1
    },
    {
      "name": "SGY_q1_146",
      "sampler": 0,
      "source": 2
    },
    {
      "name": "sgy_2q_08",
      "sampler": 0,
      "source": 3
    },
    {
      "name": "SGY_q1_089",
      "sampler": 0,
      "source": 4
    },
    {
      "name": "SGY_q1_059",
      "sampler": 0,
      "source": 5
    },
    {
      "name": "SGY_q1_075",
      "sampler": 0,
      "source": 6
    },
    {
      "name": "SGY_q1_148",
      "sampler": 0,
      "source": 7
    },
    {
      "name": "SGY_q1_147",
      "sampler": 0,
      "source": 8
    },
    {
      "name": "SGY_q1_149",
      "sampler": 0,
      "source": 9
    },
    {
      "name": "SGY_q1_150",
      "sampler": 0,
      "source": 10
    },
    {
      "name": "SGY_q1_151",
      "sampler": 0,
      "source": 11
    },
    {
      "name": "SGY_q1_153",
      "sampler": 0,
      "source": 12
    },
    {
      "name": "SGY_q1_152",
      "sampler": 0,
      "source": 13
    },
    {
      "name": "SGY_q1_154",
      "sampler": 0,
      "source": 14
    }
  ]
}
