{"asset":{"version":"2.0","generator":"babylon.js glTF exporter for 3dsmax 2022 v20240125.3"},"scene":0,"scenes":[{"nodes":[0]}],"nodes":[{"mesh":0,"translation":[0.0,0.0,-1.70431358E-05],"name":"Plane001"}],"meshes":[{"primitives":[{"attributes":{"POSITION":1,"NORMAL":2,"TEXCOORD_0":3},"indices":0,"material":0}],"name":"Plane001"}],"accessors":[{"bufferView":0,"componentType":5123,"count":6,"type":"SCALAR","name":"accessorIndices"},{"bufferView":1,"componentType":5126,"count":4,"max":[285.5113,216.8564,4.99999951E-05],"min":[-285.5113,-216.8564,-2.06607929E-05],"type":"VEC3","name":"accessorPositions"},{"bufferView":1,"byteOffset":48,"componentType":5126,"count":4,"type":"VEC3","name":"accessorNormals"},{"bufferView":2,"componentType":5126,"count":4,"type":"VEC2","name":"accessorUVs"}],"bufferViews":[{"buffer":0,"byteLength":12,"name":"bufferViewScalar"},{"buffer":0,"byteOffset":12,"byteLength":96,"byteStride":12,"name":"bufferViewFloatVec3"},{"buffer":0,"byteOffset":108,"byteLength":32,"byteStride":8,"name":"bufferViewFloatVec2"}],"buffers":[{"uri":"hm.bin","byteLength":140}],"materials":[{"pbrMetallicRoughness":{"baseColorTexture":{"index":0},"metallicFactor":0.0,"roughnessFactor":0.450053632},"name":"Material #26"}],"textures":[{"sampler":0,"source":0,"name":"sgy_hm_002.jpg"}],"images":[{"uri":"sgy_hm_002.jpg"}],"samplers":[{"magFilter":9729,"minFilter":9987}]}