{
  "accessors": [
    {
      "name": "Box002_1_0_positions",
      "componentType": 5126,
      "count": 24,
      "min": [
        -17.068899154663086,
        -23.056499481201172,
        0.002099999925121665
      ],
      "max": [
        18.4064998626709,
        22.52090072631836,
        3.8712000846862793
      ],
      "type": "VEC3",
      "bufferView": 0,
      "byteOffset": 0
    },
    {
      "name": "Box002_1_0_normals",
      "componentType": 5126,
      "count": 24,
      "min": [
        -1,
        -1,
        0
      ],
      "max": [
        1,
        1,
        0
      ],
      "type": "VEC3",
      "bufferView": 1,
      "byteOffset": 0
    },
    {
      "name": "Box002_1_0_texcoords",
      "componentType": 5126,
      "count": 24,
      "min": [
        -2.988100051879883,
        0
      ],
      "max": [
        4.2515997886657715,
        1
      ],
      "type": "VEC2",
      "bufferView": 2,
      "byteOffset": 0
    },
    {
      "name": "Box002_1_0_indices",
      "componentType": 5123,
      "count": 36,
      "min": [
        0
      ],
      "max": [
        23
      ],
      "type": "SCALAR",
      "bufferView": 3,
      "byteOffset": 0
    },
    {
      "name": "Box002_1_1_positions",
      "componentType": 5126,
      "count": 312,
      "min": [
        -20.53339958190918,
        -26.277299880981445,
        0
      ],
      "max": [
        20.53339958190918,
        26.277299880981445,
        27.99489974975586
      ],
      "type": "VEC3",
      "bufferView": 0,
      "byteOffset": 288
    },
    {
      "name": "Box002_1_1_normals",
      "componentType": 5126,
      "count": 312,
      "min": [
        -1,
        -1,
        -1
      ],
      "max": [
        1,
        1,
        1
      ],
      "type": "VEC3",
      "bufferView": 1,
      "byteOffset": 288
    },
    {
      "name": "Box002_1_1_texcoords",
      "componentType": 5126,
      "count": 312,
      "min": [
        -0.017400000244379044,
        -0.017400000244379044
      ],
      "max": [
        5.454599857330322,
        1.0174000263214111
      ],
      "type": "VEC2",
      "bufferView": 2,
      "byteOffset": 192
    },
    {
      "name": "Box002_1_1_indices",
      "componentType": 5123,
      "count": 552,
      "min": [
        0
      ],
      "max": [
        311
      ],
      "type": "SCALAR",
      "bufferView": 3,
      "byteOffset": 72
    },
    {
      "name": "Box002_1_2_positions",
      "componentType": 5126,
      "count": 52,
      "min": [
        -17.068899154663086,
        -23.056499481201172,
        0.002099999925121665
      ],
      "max": [
        18.4064998626709,
        22.52090072631836,
        27.99489974975586
      ],
      "type": "VEC3",
      "bufferView": 0,
      "byteOffset": 4032
    },
    {
      "name": "Box002_1_2_normals",
      "componentType": 5126,
      "count": 52,
      "min": [
        -1,
        -1,
        0
      ],
      "max": [
        1,
        1,
        0
      ],
      "type": "VEC3",
      "bufferView": 1,
      "byteOffset": 4032
    },
    {
      "name": "Box002_1_2_texcoords",
      "componentType": 5126,
      "count": 52,
      "min": [
        -0.3727000057697296,
        -0.9998999834060669
      ],
      "max": [
        4.131899833679199,
        1.0024000406265259
      ],
      "type": "VEC2",
      "bufferView": 2,
      "byteOffset": 2688
    },
    {
      "name": "Box002_1_2_indices",
      "componentType": 5123,
      "count": 96,
      "min": [
        0
      ],
      "max": [
        51
      ],
      "type": "SCALAR",
      "bufferView": 3,
      "byteOffset": 1176
    },
    {
      "name": "Box002_1_3_positions",
      "componentType": 5126,
      "count": 24,
      "min": [
        0.6060000061988831,
        -25.332700729370117,
        10.365400314331055
      ],
      "max": [
        20.53339958190918,
        24.855600357055664,
        27.99489974975586
      ],
      "type": "VEC3",
      "bufferView": 0,
      "byteOffset": 4656
    },
    {
      "name": "Box002_1_3_normals",
      "componentType": 5126,
      "count": 24,
      "min": [
        -1,
        -1,
        0
      ],
      "max": [
        1,
        1,
        0
      ],
      "type": "VEC3",
      "bufferView": 1,
      "byteOffset": 4656
    },
    {
      "name": "Box002_1_3_texcoords",
      "componentType": 5126,
      "count": 24,
      "min": [
        0,
        -1.1145999431610107
      ],
      "max": [
        6.001500129699707,
        1.0160000324249268
      ],
      "type": "VEC2",
      "bufferView": 2,
      "byteOffset": 3104
    },
    {
      "name": "Box002_1_3_indices",
      "componentType": 5123,
      "count": 42,
      "min": [
        0
      ],
      "max": [
        23
      ],
      "type": "SCALAR",
      "bufferView": 3,
      "byteOffset": 1368
    },
    {
      "name": "Box002_1_4_positions",
      "componentType": 5126,
      "count": 115,
      "min": [
        -19.19569969177246,
        -25.332700729370117,
        26.709699630737305
      ],
      "max": [
        20.53339958190918,
        24.855600357055664,
        27.99489974975586
      ],
      "type": "VEC3",
      "bufferView": 0,
      "byteOffset": 4944
    },
    {
      "name": "Box002_1_4_normals",
      "componentType": 5126,
      "count": 115,
      "min": [
        -1,
        -1,
        0
      ],
      "max": [
        1,
        1,
        1
      ],
      "type": "VEC3",
      "bufferView": 1,
      "byteOffset": 4944
    },
    {
      "name": "Box002_1_4_texcoords",
      "componentType": 5126,
      "count": 115,
      "min": [
        -2.311000108718872,
        -2.311000108718872
      ],
      "max": [
        3.311000108718872,
        3.311000108718872
      ],
      "type": "VEC2",
      "bufferView": 2,
      "byteOffset": 3296
    },
    {
      "name": "Box002_1_4_indices",
      "componentType": 5123,
      "count": 234,
      "min": [
        0
      ],
      "max": [
        114
      ],
      "type": "SCALAR",
      "bufferView": 3,
      "byteOffset": 1452
    },
    {
      "name": "Box002_1_5_positions",
      "componentType": 5126,
      "count": 15,
      "min": [
        -19.19569969177246,
        -25.332700729370117,
        10.365400314331055
      ],
      "max": [
        -2.881500005722046,
        24.855600357055664,
        27.99489974975586
      ],
      "type": "VEC3",
      "bufferView": 0,
      "byteOffset": 6324
    },
    {
      "name": "Box002_1_5_normals",
      "componentType": 5126,
      "count": 15,
      "min": [
        0,
        -1,
        0
      ],
      "max": [
        0,
        1,
        0
      ],
      "type": "VEC3",
      "bufferView": 1,
      "byteOffset": 6324
    },
    {
      "name": "Box002_1_5_texcoords",
      "componentType": 5126,
      "count": 15,
      "min": [
        0.0005000000237487257,
        0.0005000000237487257
      ],
      "max": [
        0.9994999766349792,
        0.9994999766349792
      ],
      "type": "VEC2",
      "bufferView": 2,
      "byteOffset": 4216
    },
    {
      "name": "Box002_1_5_indices",
      "componentType": 5123,
      "count": 24,
      "min": [
        0
      ],
      "max": [
        14
      ],
      "type": "SCALAR",
      "bufferView": 3,
      "byteOffset": 1920
    },
    {
      "name": "Box002_1_6_positions",
      "componentType": 5126,
      "count": 4,
      "min": [
        -19.19569969177246,
        -25.332700729370117,
        10.365400314331055
      ],
      "max": [
        -19.19569969177246,
        24.855600357055664,
        27.99489974975586
      ],
      "type": "VEC3",
      "bufferView": 0,
      "byteOffset": 6504
    },
    {
      "name": "Box002_1_6_normals",
      "componentType": 5126,
      "count": 4,
      "min": [
        -1,
        0,
        0
      ],
      "max": [
        -1,
        0,
        0
      ],
      "type": "VEC3",
      "bufferView": 1,
      "byteOffset": 6504
    },
    {
      "name": "Box002_1_6_texcoords",
      "componentType": 5126,
      "count": 4,
      "min": [
        -0.13449999690055847,
        -0.3359000086784363
      ],
      "max": [
        4.126200199127197,
        0.9984999895095825
      ],
      "type": "VEC2",
      "bufferView": 2,
      "byteOffset": 4336
    },
    {
      "name": "Box002_1_6_indices",
      "componentType": 5123,
      "count": 6,
      "min": [
        0
      ],
      "max": [
        3
      ],
      "type": "SCALAR",
      "bufferView": 3,
      "byteOffset": 1968
    },
    {
      "name": "Box002_1_7_positions",
      "componentType": 5126,
      "count": 8,
      "min": [
        -19.345800399780273,
        -22.65519905090332,
        24.56879997253418
      ],
      "max": [
        -4.426000118255615,
        25.045299530029297,
        28.89150047302246
      ],
      "type": "VEC3",
      "bufferView": 0,
      "byteOffset": 6552
    },
    {
      "name": "Box002_1_7_normals",
      "componentType": 5126,
      "count": 8,
      "min": [
        -1,
        0,
        0
      ],
      "max": [
        0,
        1,
        0
      ],
      "type": "VEC3",
      "bufferView": 1,
      "byteOffset": 6552
    },
    {
      "name": "Box002_1_7_texcoords",
      "componentType": 5126,
      "count": 8,
      "min": [
        0,
        0
      ],
      "max": [
        1,
        1
      ],
      "type": "VEC2",
      "bufferView": 2,
      "byteOffset": 4368
    },
    {
      "name": "Box002_1_7_indices",
      "componentType": 5123,
      "count": 12,
      "min": [
        0
      ],
      "max": [
        7
      ],
      "type": "SCALAR",
      "bufferView": 3,
      "byteOffset": 1980
    }
  ],
  "asset": {
    "generator": "obj2gltf",
    "version": "2.0"
  },
  "buffers": [
    {
      "name": "3_jz01",
      "byteLength": 19732,
      "uri": "data:application/octet-stream;base64,"
    }
  ],
  "bufferViews": [
    {
      "name": "bufferView_0",
      "buffer": 0,
      "byteLength": 6648,
      "byteOffset": 0,
      "byteStride": 12,
      "target": 34962
    },
    {
      "name": "bufferView_1",
      "buffer": 0,
      "byteLength": 6648,
      "byteOffset": 6648,
      "byteStride": 12,
      "target": 34962
    },
    {
      "name": "bufferView_2",
      "buffer": 0,
      "byteLength": 4432,
      "byteOffset": 13296,
      "byteStride": 8,
      "target": 34962
    },
    {
      "name": "bufferView_3",
      "buffer": 0,
      "byteLength": 2004,
      "byteOffset": 17728,
      "target": 34963
    }
  ],
  "images": [
    {
      "name": "SGY_Q1_004",
      "uri": "SGY_Q1_004.jpg"
    },
    {
      "name": "SGY_Q1_003",
      "uri": "SGY_Q1_003.jpg"
    },
    {
      "name": "SGY_Q1_002",
      "uri": "SGY_Q1_002.jpg"
    },
    {
      "name": "SGY_Q1_001",
      "uri": "SGY_Q1_001.jpg"
    },
    {
      "name": "SGY_Q1_005",
      "uri": "SGY_Q1_005.jpg"
    },
    {
      "name": "SGY_Q1_006",
      "uri": "SGY_Q1_006.jpg"
    },
    {
      "name": "SGY_Q1_007",
      "uri": "SGY_Q1_007.jpg"
    },
    {
      "name": "SGY_Q1_008",
      "uri": "SGY_Q1_008.png"
    }
  ],
  "materials": [
    {
      "name": "Material__107",
      "pbrMetallicRoughness": {
        "baseColorTexture": {
          "index": 0
        },
        "baseColorFactor": [
          1,
          1,
          1,
          1
        ],
        "metallicFactor": 0,
        "roughnessFactor": 0.99
      },
      "emissiveFactor": [
        0,
        0,
        0
      ],
      "alphaMode": "OPAQUE",
      "doubleSided": false
    },
    {
      "name": "Material__72",
      "pbrMetallicRoughness": {
        "baseColorTexture": {
          "index": 1
        },
        "baseColorFactor": [
          1,
          1,
          1,
          1
        ],
        "metallicFactor": 0,
        "roughnessFactor": 0.99
      },
      "emissiveFactor": [
        0,
        0,
        0
      ],
      "alphaMode": "OPAQUE",
      "doubleSided": false
    },
    {
      "name": "Material__60",
      "pbrMetallicRoughness": {
        "baseColorTexture": {
          "index": 2
        },
        "baseColorFactor": [
          1,
          1,
          1,
          1
        ],
        "metallicFactor": 0,
        "roughnessFactor": 0.99
      },
      "emissiveFactor": [
        0,
        0,
        0
      ],
      "alphaMode": "OPAQUE",
      "doubleSided": false
    },
    {
      "name": "Material__37",
      "pbrMetallicRoughness": {
        "baseColorTexture": {
          "index": 3
        },
        "baseColorFactor": [
          1,
          1,
          1,
          1
        ],
        "metallicFactor": 0,
        "roughnessFactor": 0.99
      },
      "emissiveFactor": [
        0,
        0,
        0
      ],
      "alphaMode": "OPAQUE",
      "doubleSided": false
    },
    {
      "name": "Material__130",
      "pbrMetallicRoughness": {
        "baseColorTexture": {
          "index": 4
        },
        "baseColorFactor": [
          1,
          1,
          1,
          1
        ],
        "metallicFactor": 0,
        "roughnessFactor": 0.99
      },
      "emissiveFactor": [
        0,
        0,
        0
      ],
      "alphaMode": "OPAQUE",
      "doubleSided": false
    },
    {
      "name": "Material__142",
      "pbrMetallicRoughness": {
        "baseColorTexture": {
          "index": 5
        },
        "baseColorFactor": [
          1,
          1,
          1,
          1
        ],
        "metallicFactor": 0,
        "roughnessFactor": 0.99
      },
      "emissiveFactor": [
        0,
        0,
        0
      ],
      "alphaMode": "OPAQUE",
      "doubleSided": false
    },
    {
      "name": "Material__155",
      "pbrMetallicRoughness": {
        "baseColorTexture": {
          "index": 6
        },
        "baseColorFactor": [
          1,
          1,
          1,
          1
        ],
        "metallicFactor": 0,
        "roughnessFactor": 0.99
      },
      "emissiveFactor": [
        0,
        0,
        0
      ],
      "alphaMode": "OPAQUE",
      "doubleSided": false
    },
    {
      "name": "Material__200",
      "pbrMetallicRoughness": {
        "baseColorTexture": {
          "index": 7
        },
        "baseColorFactor": [
          1,
          1,
          1,
          1
        ],
        "metallicFactor": 0,
        "roughnessFactor": 0.99
      },
      "emissiveFactor": [
        0,
        0,
        0
      ],
      "alphaMode": "BLEND",
      "doubleSided": true
    }
  ],
  "meshes": [
    {
      "name": "Box002_1",
      "primitives": [
        {
          "attributes": {
            "POSITION": 0,
            "NORMAL": 1,
            "TEXCOORD_0": 2
          },
          "indices": 3,
          "material": 0,
          "mode": 4
        },
        {
          "attributes": {
            "POSITION": 4,
            "NORMAL": 5,
            "TEXCOORD_0": 6
          },
          "indices": 7,
          "material": 1,
          "mode": 4
        },
        {
          "attributes": {
            "POSITION": 8,
            "NORMAL": 9,
            "TEXCOORD_0": 10
          },
          "indices": 11,
          "material": 2,
          "mode": 4
        },
        {
          "attributes": {
            "POSITION": 12,
            "NORMAL": 13,
            "TEXCOORD_0": 14
          },
          "indices": 15,
          "material": 3,
          "mode": 4
        },
        {
          "attributes": {
            "POSITION": 16,
            "NORMAL": 17,
            "TEXCOORD_0": 18
          },
          "indices": 19,
          "material": 4,
          "mode": 4
        },
        {
          "attributes": {
            "POSITION": 20,
            "NORMAL": 21,
            "TEXCOORD_0": 22
          },
          "indices": 23,
          "material": 5,
          "mode": 4
        },
        {
          "attributes": {
            "POSITION": 24,
            "NORMAL": 25,
            "TEXCOORD_0": 26
          },
          "indices": 27,
          "material": 6,
          "mode": 4
        },
        {
          "attributes": {
            "POSITION": 28,
            "NORMAL": 29,
            "TEXCOORD_0": 30
          },
          "indices": 31,
          "material": 7,
          "mode": 4
        }
      ]
    }
  ],
  "nodes": [
    {
      "name": "Box002",
      "mesh": 0
    }
  ],
  "samplers": [
    {
      "wrapS": 10497,
      "wrapT": 10497
    }
  ],
  "scene": 0,
  "scenes": [
    {
      "nodes": [
        0
      ]
    }
  ],
  "textures": [
    {
      "name": "SGY_Q1_004",
      "sampler": 0,
      "source": 0
    },
    {
      "name": "SGY_Q1_003",
      "sampler": 0,
      "source": 1
    },
    {
      "name": "SGY_Q1_002",
      "sampler": 0,
      "source": 2
    },
    {
      "name": "SGY_Q1_001",
      "sampler": 0,
      "source": 3
    },
    {
      "name": "SGY_Q1_005",
      "sampler": 0,
      "source": 4
    },
    {
      "name": "SGY_Q1_006",
      "sampler": 0,
      "source": 5
    },
    {
      "name": "SGY_Q1_007",
      "sampler": 0,
      "source": 6
    },
    {
      "name": "SGY_Q1_008",
      "sampler": 0,
      "source": 7
    }
  ]
}
