{
  "accessors": [
    {
      "name": "Box008_1_0_positions",
      "componentType": 5126,
      "count": 22,
      "min": [
        -10.177800178527832,
        -17.35300064086914,
        0
      ],
      "max": [
        7.071899890899658,
        17.577499389648438,
        5.723899841308594
      ],
      "type": "VEC3",
      "bufferView": 0,
      "byteOffset": 0
    },
    {
      "name": "Box008_1_0_normals",
      "componentType": 5126,
      "count": 22,
      "min": [
        -1,
        -1,
        0
      ],
      "max": [
        1,
        1,
        0
      ],
      "type": "VEC3",
      "bufferView": 1,
      "byteOffset": 0
    },
    {
      "name": "Box008_1_0_texcoords",
      "componentType": 5126,
      "count": 22,
      "min": [
        0.00989999994635582,
        -0.011900000274181366
      ],
      "max": [
        1.4428000450134277,
        0.47909998893737793
      ],
      "type": "VEC2",
      "bufferView": 2,
      "byteOffset": 0
    },
    {
      "name": "Box008_1_0_indices",
      "componentType": 5123,
      "count": 30,
      "min": [
        0
      ],
      "max": [
        21
      ],
      "type": "SCALAR",
      "bufferView": 3,
      "byteOffset": 0
    },
    {
      "name": "Box008_1_1_positions",
      "componentType": 5126,
      "count": 411,
      "min": [
        -11.641599655151367,
        -20.032899856567383,
        -0.0024999999441206455
      ],
      "max": [
        11.641599655151367,
        20.032899856567383,
        33.133201599121094
      ],
      "type": "VEC3",
      "bufferView": 0,
      "byteOffset": 264
    },
    {
      "name": "Box008_1_1_normals",
      "componentType": 5126,
      "count": 411,
      "min": [
        -1,
        -1,
        -1
      ],
      "max": [
        1,
        1,
        1
      ],
      "type": "VEC3",
      "bufferView": 1,
      "byteOffset": 264
    },
    {
      "name": "Box008_1_1_texcoords",
      "componentType": 5126,
      "count": 411,
      "min": [
        -0.45509999990463257,
        -0.14139999449253082
      ],
      "max": [
        1.4551000595092773,
        3.657900094985962
      ],
      "type": "VEC2",
      "bufferView": 2,
      "byteOffset": 176
    },
    {
      "name": "Box008_1_1_indices",
      "componentType": 5123,
      "count": 567,
      "min": [
        0
      ],
      "max": [
        410
      ],
      "type": "SCALAR",
      "bufferView": 3,
      "byteOffset": 60
    },
    {
      "name": "Box008_1_2_positions",
      "componentType": 5126,
      "count": 20,
      "min": [
        -10.974100112915039,
        -17.169200897216797,
        9.161700248718262
      ],
      "max": [
        7.071899890899658,
        17.577499389648438,
        12.266400337219238
      ],
      "type": "VEC3",
      "bufferView": 0,
      "byteOffset": 5196
    },
    {
      "name": "Box008_1_2_normals",
      "componentType": 5126,
      "count": 20,
      "min": [
        -1,
        -1,
        0
      ],
      "max": [
        1,
        1,
        0
      ],
      "type": "VEC3",
      "bufferView": 1,
      "byteOffset": 5196
    },
    {
      "name": "Box008_1_2_texcoords",
      "componentType": 5126,
      "count": 20,
      "min": [
        -1.0149999856948853,
        0.29580000042915344
      ],
      "max": [
        2.015000104904175,
        0.6237000226974487
      ],
      "type": "VEC2",
      "bufferView": 2,
      "byteOffset": 3464
    },
    {
      "name": "Box008_1_2_indices",
      "componentType": 5123,
      "count": 24,
      "min": [
        0
      ],
      "max": [
        19
      ],
      "type": "SCALAR",
      "bufferView": 3,
      "byteOffset": 1196
    },
    {
      "name": "Box008_1_3_positions",
      "componentType": 5126,
      "count": 8,
      "min": [
        -9.663000106811523,
        -18.33919906616211,
        14.041799545288086
      ],
      "max": [
        7.898600101470947,
        18.702899932861328,
        31.35770034790039
      ],
      "type": "VEC3",
      "bufferView": 0,
      "byteOffset": 5436
    },
    {
      "name": "Box008_1_3_normals",
      "componentType": 5126,
      "count": 8,
      "min": [
        0,
        -1,
        0
      ],
      "max": [
        0,
        1,
        0
      ],
      "type": "VEC3",
      "bufferView": 1,
      "byteOffset": 5436
    },
    {
      "name": "Box008_1_3_texcoords",
      "componentType": 5126,
      "count": 8,
      "min": [
        -1.0062999725341797,
        -1.9296000003814697
      ],
      "max": [
        2.0062999725341797,
        3.9221999645233154
      ],
      "type": "VEC2",
      "bufferView": 2,
      "byteOffset": 3624
    },
    {
      "name": "Box008_1_3_indices",
      "componentType": 5123,
      "count": 12,
      "min": [
        0
      ],
      "max": [
        7
      ],
      "type": "SCALAR",
      "bufferView": 3,
      "byteOffset": 1244
    },
    {
      "name": "Box008_1_4_positions",
      "componentType": 5126,
      "count": 12,
      "min": [
        -11.641599655151367,
        -18.949100494384766,
        12.266300201416016
      ],
      "max": [
        9.87720012664795,
        19.31279945373535,
        33.133201599121094
      ],
      "type": "VEC3",
      "bufferView": 0,
      "byteOffset": 5532
    },
    {
      "name": "Box008_1_4_normals",
      "componentType": 5126,
      "count": 12,
      "min": [
        -1,
        0,
        0
      ],
      "max": [
        1,
        0,
        0
      ],
      "type": "VEC3",
      "bufferView": 1,
      "byteOffset": 5532
    },
    {
      "name": "Box008_1_4_texcoords",
      "componentType": 5126,
      "count": 12,
      "min": [
        -1.1055999994277954,
        0.04340000078082085
      ],
      "max": [
        1.983299970626831,
        0.95660001039505
      ],
      "type": "VEC2",
      "bufferView": 2,
      "byteOffset": 3688
    },
    {
      "name": "Box008_1_4_indices",
      "componentType": 5123,
      "count": 15,
      "min": [
        0
      ],
      "max": [
        11
      ],
      "type": "SCALAR",
      "bufferView": 3,
      "byteOffset": 1268
    },
    {
      "name": "Box008_1_5_positions",
      "componentType": 5126,
      "count": 42,
      "min": [
        -11.641599655151367,
        -18.949100494384766,
        31.729000091552734
      ],
      "max": [
        9.87720012664795,
        19.31279945373535,
        33.133201599121094
      ],
      "type": "VEC3",
      "bufferView": 0,
      "byteOffset": 5676
    },
    {
      "name": "Box008_1_5_normals",
      "componentType": 5126,
      "count": 42,
      "min": [
        -1,
        -1,
        0
      ],
      "max": [
        1,
        1,
        1
      ],
      "type": "VEC3",
      "bufferView": 1,
      "byteOffset": 5676
    },
    {
      "name": "Box008_1_5_texcoords",
      "componentType": 5126,
      "count": 42,
      "min": [
        -2.1566998958587646,
        -2.311000108718872
      ],
      "max": [
        3.311000108718872,
        3.311000108718872
      ],
      "type": "VEC2",
      "bufferView": 2,
      "byteOffset": 3784
    },
    {
      "name": "Box008_1_5_indices",
      "componentType": 5123,
      "count": 54,
      "min": [
        0
      ],
      "max": [
        41
      ],
      "type": "SCALAR",
      "bufferView": 3,
      "byteOffset": 1300
    }
  ],
  "asset": {
    "generator": "obj2gltf",
    "version": "2.0"
  },
  "buffers": [
    {
      "name": "3_jz08",
      "byteLength": 17888,
      "uri": "data:application/octet-stream;base64,"
    }
  ],
  "bufferViews": [
    {
      "name": "bufferView_0",
      "buffer": 0,
      "byteLength": 6180,
      "byteOffset": 0,
      "byteStride": 12,
      "target": 34962
    },
    {
      "name": "bufferView_1",
      "buffer": 0,
      "byteLength": 6180,
      "byteOffset": 6180,
      "byteStride": 12,
      "target": 34962
    },
    {
      "name": "bufferView_2",
      "buffer": 0,
      "byteLength": 4120,
      "byteOffset": 12360,
      "byteStride": 8,
      "target": 34962
    },
    {
      "name": "bufferView_3",
      "buffer": 0,
      "byteLength": 1408,
      "byteOffset": 16480,
      "target": 34963
    }
  ],
  "images": [
    {
      "name": "SGY_Q1_004",
      "uri": "SGY_Q1_004.jpg"
    },
    {
      "name": "SGY_Q1_003",
      "uri": "SGY_Q1_003.jpg"
    },
    {
      "name": "SGY_Q1_002",
      "uri": "SGY_Q1_002.jpg"
    },
    {
      "name": "sgy_2q_34",
      "uri": "sgy_2q_34.jpg"
    },
    {
      "name": "sgy_3q_02",
      "uri": "sgy_3q_02.jpg"
    },
    {
      "name": "SGY_Q1_005",
      "uri": "SGY_Q1_005.jpg"
    }
  ],
  "materials": [
    {
      "name": "Material__1095",
      "pbrMetallicRoughness": {
        "baseColorTexture": {
          "index": 0
        },
        "baseColorFactor": [
          1,
          1,
          1,
          1
        ],
        "metallicFactor": 0,
        "roughnessFactor": 0.99
      },
      "emissiveFactor": [
        0,
        0,
        0
      ],
      "alphaMode": "OPAQUE",
      "doubleSided": false
    },
    {
      "name": "Material__1096",
      "pbrMetallicRoughness": {
        "baseColorTexture": {
          "index": 1
        },
        "baseColorFactor": [
          1,
          1,
          1,
          1
        ],
        "metallicFactor": 0,
        "roughnessFactor": 0.99
      },
      "emissiveFactor": [
        0,
        0,
        0
      ],
      "alphaMode": "OPAQUE",
      "doubleSided": false
    },
    {
      "name": "Material__1093",
      "pbrMetallicRoughness": {
        "baseColorTexture": {
          "index": 2
        },
        "baseColorFactor": [
          1,
          1,
          1,
          1
        ],
        "metallicFactor": 0,
        "roughnessFactor": 0.99
      },
      "emissiveFactor": [
        0,
        0,
        0
      ],
      "alphaMode": "OPAQUE",
      "doubleSided": false
    },
    {
      "name": "Material__1092",
      "pbrMetallicRoughness": {
        "baseColorTexture": {
          "index": 3
        },
        "baseColorFactor": [
          1,
          1,
          1,
          1
        ],
        "metallicFactor": 0,
        "roughnessFactor": 0.99
      },
      "emissiveFactor": [
        0,
        0,
        0
      ],
      "alphaMode": "OPAQUE",
      "doubleSided": false
    },
    {
      "name": "Material__1097",
      "pbrMetallicRoughness": {
        "baseColorTexture": {
          "index": 4
        },
        "baseColorFactor": [
          1,
          1,
          1,
          1
        ],
        "metallicFactor": 0,
        "roughnessFactor": 0.99
      },
      "emissiveFactor": [
        0,
        0,
        0
      ],
      "alphaMode": "OPAQUE",
      "doubleSided": false
    },
    {
      "name": "Material__1094",
      "pbrMetallicRoughness": {
        "baseColorTexture": {
          "index": 5
        },
        "baseColorFactor": [
          1,
          1,
          1,
          1
        ],
        "metallicFactor": 0,
        "roughnessFactor": 0.99
      },
      "emissiveFactor": [
        0,
        0,
        0
      ],
      "alphaMode": "OPAQUE",
      "doubleSided": false
    }
  ],
  "meshes": [
    {
      "name": "Box008_1",
      "primitives": [
        {
          "attributes": {
            "POSITION": 0,
            "NORMAL": 1,
            "TEXCOORD_0": 2
          },
          "indices": 3,
          "material": 0,
          "mode": 4
        },
        {
          "attributes": {
            "POSITION": 4,
            "NORMAL": 5,
            "TEXCOORD_0": 6
          },
          "indices": 7,
          "material": 1,
          "mode": 4
        },
        {
          "attributes": {
            "POSITION": 8,
            "NORMAL": 9,
            "TEXCOORD_0": 10
          },
          "indices": 11,
          "material": 2,
          "mode": 4
        },
        {
          "attributes": {
            "POSITION": 12,
            "NORMAL": 13,
            "TEXCOORD_0": 14
          },
          "indices": 15,
          "material": 3,
          "mode": 4
        },
        {
          "attributes": {
            "POSITION": 16,
            "NORMAL": 17,
            "TEXCOORD_0": 18
          },
          "indices": 19,
          "material": 4,
          "mode": 4
        },
        {
          "attributes": {
            "POSITION": 20,
            "NORMAL": 21,
            "TEXCOORD_0": 22
          },
          "indices": 23,
          "material": 5,
          "mode": 4
        }
      ]
    }
  ],
  "nodes": [
    {
      "name": "Box008",
      "mesh": 0
    }
  ],
  "samplers": [
    {
      "wrapS": 10497,
      "wrapT": 10497
    }
  ],
  "scene": 0,
  "scenes": [
    {
      "nodes": [
        0
      ]
    }
  ],
  "textures": [
    {
      "name": "SGY_Q1_004",
      "sampler": 0,
      "source": 0
    },
    {
      "name": "SGY_Q1_003",
      "sampler": 0,
      "source": 1
    },
    {
      "name": "SGY_Q1_002",
      "sampler": 0,
      "source": 2
    },
    {
      "name": "sgy_2q_34",
      "sampler": 0,
      "source": 3
    },
    {
      "name": "sgy_3q_02",
      "sampler": 0,
      "source": 4
    },
    {
      "name": "SGY_Q1_005",
      "sampler": 0,
      "source": 5
    }
  ]
}
