{
  "accessors": [
    {
      "name": "zhu1_1_0_positions",
      "componentType": 5126,
      "count": 8,
      "min": [
        -28.821504592895508,
        -2.678708076477051,
        4.075738906860352
      ],
      "max": [
        28.821504592895508,
        3.306626081466675,
        10.39997673034668
      ],
      "type": "VEC3",
      "bufferView": 0,
      "byteOffset": 0
    },
    {
      "name": "zhu1_1_0_normals",
      "componentType": 5126,
      "count": 8,
      "min": [
        -1,
        0,
        0
      ],
      "max": [
        1,
        0,
        0
      ],
      "type": "VEC3",
      "bufferView": 1,
      "byteOffset": 0
    },
    {
      "name": "zhu1_1_0_texcoords",
      "componentType": 5126,
      "count": 8,
      "min": [
        0.07910600304603577,
        0.08080799877643585
      ],
      "max": [
        0.9362729787826538,
        2.878303050994873
      ],
      "type": "VEC2",
      "bufferView": 2,
      "byteOffset": 0
    },
    {
      "name": "zhu1_1_0_indices",
      "componentType": 5123,
      "count": 12,
      "min": [
        0
      ],
      "max": [
        7
      ],
      "type": "SCALAR",
      "bufferView": 3,
      "byteOffset": 0
    },
    {
      "name": "zhu1_1_1_positions",
      "componentType": 5126,
      "count": 354,
      "min": [
        -28.821504592895508,
        -2.678708076477051,
        -0.04121199995279312
      ],
      "max": [
        28.821504592895508,
        3.306626081466675,
        10.39997673034668
      ],
      "type": "VEC3",
      "bufferView": 0,
      "byteOffset": 96
    },
    {
      "name": "zhu1_1_1_normals",
      "componentType": 5126,
      "count": 354,
      "min": [
        -1,
        -1,
        -1
      ],
      "max": [
        1,
        1,
        1
      ],
      "type": "VEC3",
      "bufferView": 1,
      "byteOffset": 96
    },
    {
      "name": "zhu1_1_1_texcoords",
      "componentType": 5126,
      "count": 354,
      "min": [
        -7.9748148918151855,
        -8.570878982543945
      ],
      "max": [
        8.772985458374023,
        9.487606048583984
      ],
      "type": "VEC2",
      "bufferView": 2,
      "byteOffset": 64
    },
    {
      "name": "zhu1_1_1_indices",
      "componentType": 5123,
      "count": 558,
      "min": [
        0
      ],
      "max": [
        353
      ],
      "type": "SCALAR",
      "bufferView": 3,
      "byteOffset": 24
    },
    {
      "name": "zhu1_1_2_positions",
      "componentType": 5126,
      "count": 12,
      "min": [
        -28.821504592895508,
        3.306626081466675,
        4.075738906860352
      ],
      "max": [
        28.821504592895508,
        3.306626081466675,
        10.39997673034668
      ],
      "type": "VEC3",
      "bufferView": 0,
      "byteOffset": 4344
    },
    {
      "name": "zhu1_1_2_normals",
      "componentType": 5126,
      "count": 12,
      "min": [
        0,
        1,
        0
      ],
      "max": [
        0,
        1,
        0
      ],
      "type": "VEC3",
      "bufferView": 1,
      "byteOffset": 4344
    },
    {
      "name": "zhu1_1_2_texcoords",
      "componentType": 5126,
      "count": 12,
      "min": [
        -3.966797113418579,
        0.18543800711631775
      ],
      "max": [
        3.827641010284424,
        1.0027040243148804
      ],
      "type": "VEC2",
      "bufferView": 2,
      "byteOffset": 2896
    },
    {
      "name": "zhu1_1_2_indices",
      "componentType": 5123,
      "count": 18,
      "min": [
        0
      ],
      "max": [
        11
      ],
      "type": "SCALAR",
      "bufferView": 3,
      "byteOffset": 1140
    },
    {
      "name": "zhu1_1_3_positions",
      "componentType": 5126,
      "count": 8,
      "min": [
        -11.528600692749023,
        -2.678708076477051,
        4.075738906860352
      ],
      "max": [
        10.663955688476562,
        -2.678708076477051,
        10.39997673034668
      ],
      "type": "VEC3",
      "bufferView": 0,
      "byteOffset": 4488
    },
    {
      "name": "zhu1_1_3_normals",
      "componentType": 5126,
      "count": 8,
      "min": [
        0,
        -1,
        0
      ],
      "max": [
        0,
        -1,
        0
      ],
      "type": "VEC3",
      "bufferView": 1,
      "byteOffset": 4488
    },
    {
      "name": "zhu1_1_3_texcoords",
      "componentType": 5126,
      "count": 8,
      "min": [
        1.0289909839630127,
        0.15413600206375122
      ],
      "max": [
        3.1514010429382324,
        0.897441029548645
      ],
      "type": "VEC2",
      "bufferView": 2,
      "byteOffset": 2992
    },
    {
      "name": "zhu1_1_3_indices",
      "componentType": 5123,
      "count": 12,
      "min": [
        0
      ],
      "max": [
        7
      ],
      "type": "SCALAR",
      "bufferView": 3,
      "byteOffset": 1176
    },
    {
      "name": "zhu1_1_4_positions",
      "componentType": 5126,
      "count": 8,
      "min": [
        7.79111385345459,
        3.306626081466675,
        4.075738906860352
      ],
      "max": [
        13.499246597290039,
        3.306626081466675,
        10.39997673034668
      ],
      "type": "VEC3",
      "bufferView": 0,
      "byteOffset": 4584
    },
    {
      "name": "zhu1_1_4_normals",
      "componentType": 5126,
      "count": 8,
      "min": [
        0,
        1,
        0
      ],
      "max": [
        0,
        1,
        0
      ],
      "type": "VEC3",
      "bufferView": 1,
      "byteOffset": 4584
    },
    {
      "name": "zhu1_1_4_texcoords",
      "componentType": 5126,
      "count": 8,
      "min": [
        -0.8752080202102661,
        0.008824000135064125
      ],
      "max": [
        -0.14335699379444122,
        1.0042279958724976
      ],
      "type": "VEC2",
      "bufferView": 2,
      "byteOffset": 3056
    },
    {
      "name": "zhu1_1_4_indices",
      "componentType": 5123,
      "count": 12,
      "min": [
        0
      ],
      "max": [
        7
      ],
      "type": "SCALAR",
      "bufferView": 3,
      "byteOffset": 1200
    },
    {
      "name": "zhu1_1_5_positions",
      "componentType": 5126,
      "count": 8,
      "min": [
        -28.821504592895508,
        -2.678708076477051,
        4.075738906860352
      ],
      "max": [
        28.821504592895508,
        -2.678708076477051,
        10.39997673034668
      ],
      "type": "VEC3",
      "bufferView": 0,
      "byteOffset": 4680
    },
    {
      "name": "zhu1_1_5_normals",
      "componentType": 5126,
      "count": 8,
      "min": [
        0,
        -1,
        0
      ],
      "max": [
        0,
        -1,
        0
      ],
      "type": "VEC3",
      "bufferView": 1,
      "byteOffset": 4680
    },
    {
      "name": "zhu1_1_5_texcoords",
      "componentType": 5126,
      "count": 8,
      "min": [
        -2.9195449352264404,
        0.04960000142455101
      ],
      "max": [
        6.926140785217285,
        1.1711989641189575
      ],
      "type": "VEC2",
      "bufferView": 2,
      "byteOffset": 3120
    },
    {
      "name": "zhu1_1_5_indices",
      "componentType": 5123,
      "count": 12,
      "min": [
        0
      ],
      "max": [
        7
      ],
      "type": "SCALAR",
      "bufferView": 3,
      "byteOffset": 1224
    },
    {
      "name": "zhu1_1_6_positions",
      "componentType": 5126,
      "count": 14,
      "min": [
        -3.7736010551452637,
        -2.678708076477051,
        4.075738906860352
      ],
      "max": [
        4.4948248863220215,
        3.306626081466675,
        10.39997673034668
      ],
      "type": "VEC3",
      "bufferView": 0,
      "byteOffset": 4776
    },
    {
      "name": "zhu1_1_6_normals",
      "componentType": 5126,
      "count": 14,
      "min": [
        0,
        -1,
        0
      ],
      "max": [
        0,
        1,
        0
      ],
      "type": "VEC3",
      "bufferView": 1,
      "byteOffset": 4776
    },
    {
      "name": "zhu1_1_6_texcoords",
      "componentType": 5126,
      "count": 14,
      "min": [
        -0.04458099976181984,
        -1.9511209726333618
      ],
      "max": [
        2.5568149089813232,
        0.897441029548645
      ],
      "type": "VEC2",
      "bufferView": 2,
      "byteOffset": 3184
    },
    {
      "name": "zhu1_1_6_indices",
      "componentType": 5123,
      "count": 24,
      "min": [
        0
      ],
      "max": [
        13
      ],
      "type": "SCALAR",
      "bufferView": 3,
      "byteOffset": 1248
    },
    {
      "name": "zhu1_1_7_positions",
      "componentType": 5126,
      "count": 448,
      "min": [
        -4.2661848068237305,
        -4.681206226348877,
        9.999999974752427e-7
      ],
      "max": [
        5.096222877502441,
        4.681201934814453,
        61.14253616333008
      ],
      "type": "VEC3",
      "bufferView": 0,
      "byteOffset": 4944
    },
    {
      "name": "zhu1_1_7_normals",
      "componentType": 5126,
      "count": 448,
      "min": [
        -0.996207594871521,
        -0.996207594871521,
        -0.9990290403366089
      ],
      "max": [
        0.996207594871521,
        0.996207594871521,
        0.9990289211273193
      ],
      "type": "VEC3",
      "bufferView": 1,
      "byteOffset": 4944
    },
    {
      "name": "zhu1_1_7_texcoords",
      "componentType": 5126,
      "count": 448,
      "min": [
        0.375,
        0.3149360120296478
      ],
      "max": [
        0.625,
        0.6841250061988831
      ],
      "type": "VEC2",
      "bufferView": 2,
      "byteOffset": 3296
    },
    {
      "name": "zhu1_1_7_indices",
      "componentType": 5123,
      "count": 936,
      "min": [
        0
      ],
      "max": [
        447
      ],
      "type": "SCALAR",
      "bufferView": 3,
      "byteOffset": 1296
    }
  ],
  "asset": {
    "generator": "obj2gltf",
    "version": "2.0"
  },
  "buffers": [
    {
      "name": "yc",
      "byteLength": 30688,
      "uri": "data:application/octet-stream;base64,"
    }
  ],
  "bufferViews": [
    {
      "name": "bufferView_0",
      "buffer": 0,
      "byteLength": 10320,
      "byteOffset": 0,
      "byteStride": 12,
      "target": 34962
    },
    {
      "name": "bufferView_1",
      "buffer": 0,
      "byteLength": 10320,
      "byteOffset": 10320,
      "byteStride": 12,
      "target": 34962
    },
    {
      "name": "bufferView_2",
      "buffer": 0,
      "byteLength": 6880,
      "byteOffset": 20640,
      "byteStride": 8,
      "target": 34962
    },
    {
      "name": "bufferView_3",
      "buffer": 0,
      "byteLength": 3168,
      "byteOffset": 27520,
      "target": 34963
    }
  ],
  "images": [
    {
      "name": "yc_002",
      "uri": "yc_002.jpg"
    },
    {
      "name": "yc_001",
      "uri": "yc_001.jpg"
    },
    {
      "name": "yc_006",
      "uri": "yc_006.jpg"
    },
    {
      "name": "yc_008",
      "uri": "yc_008.jpg"
    },
    {
      "name": "yc_005",
      "uri": "yc_005.jpg"
    },
    {
      "name": "yc_007",
      "uri": "yc_007.jpg"
    },
    {
      "name": "yc_009",
      "uri": "yc_009.jpg"
    },
    {
      "name": "yc_004",
      "uri": "yc_004.jpg"
    }
  ],
  "materials": [
    {
      "name": "lambert3SG",
      "pbrMetallicRoughness": {
        "baseColorTexture": {
          "index": 0
        },
        "baseColorFactor": [
          1,
          1,
          1,
          1
        ],
        "metallicFactor": 0,
        "roughnessFactor": 1
      },
      "emissiveFactor": [
        0,
        0,
        0
      ],
      "alphaMode": "OPAQUE",
      "doubleSided": false
    },
    {
      "name": "lambert2SG",
      "pbrMetallicRoughness": {
        "baseColorTexture": {
          "index": 1
        },
        "baseColorFactor": [
          1,
          1,
          1,
          1
        ],
        "metallicFactor": 0,
        "roughnessFactor": 1
      },
      "emissiveFactor": [
        0,
        0,
        0
      ],
      "alphaMode": "OPAQUE",
      "doubleSided": false
    },
    {
      "name": "lambert4SG",
      "pbrMetallicRoughness": {
        "baseColorTexture": {
          "index": 2
        },
        "baseColorFactor": [
          1,
          1,
          1,
          1
        ],
        "metallicFactor": 0,
        "roughnessFactor": 1
      },
      "emissiveFactor": [
        0,
        0,
        0
      ],
      "alphaMode": "OPAQUE",
      "doubleSided": false
    },
    {
      "name": "lambert8SG",
      "pbrMetallicRoughness": {
        "baseColorTexture": {
          "index": 3
        },
        "baseColorFactor": [
          1,
          1,
          1,
          1
        ],
        "metallicFactor": 0,
        "roughnessFactor": 1
      },
      "emissiveFactor": [
        0,
        0,
        0
      ],
      "alphaMode": "OPAQUE",
      "doubleSided": false
    },
    {
      "name": "lambert6SG",
      "pbrMetallicRoughness": {
        "baseColorTexture": {
          "index": 4
        },
        "baseColorFactor": [
          1,
          1,
          1,
          1
        ],
        "metallicFactor": 0,
        "roughnessFactor": 1
      },
      "emissiveFactor": [
        0,
        0,
        0
      ],
      "alphaMode": "OPAQUE",
      "doubleSided": false
    },
    {
      "name": "lambert7SG",
      "pbrMetallicRoughness": {
        "baseColorTexture": {
          "index": 5
        },
        "baseColorFactor": [
          1,
          1,
          1,
          1
        ],
        "metallicFactor": 0,
        "roughnessFactor": 1
      },
      "emissiveFactor": [
        0,
        0,
        0
      ],
      "alphaMode": "OPAQUE",
      "doubleSided": false
    },
    {
      "name": "lambert9SG",
      "pbrMetallicRoughness": {
        "baseColorTexture": {
          "index": 6
        },
        "baseColorFactor": [
          1,
          1,
          1,
          1
        ],
        "metallicFactor": 0,
        "roughnessFactor": 1
      },
      "emissiveFactor": [
        0,
        0,
        0
      ],
      "alphaMode": "OPAQUE",
      "doubleSided": false
    },
    {
      "name": "lambert5SG",
      "pbrMetallicRoughness": {
        "baseColorTexture": {
          "index": 7
        },
        "baseColorFactor": [
          1,
          1,
          1,
          1
        ],
        "metallicFactor": 0,
        "roughnessFactor": 1
      },
      "emissiveFactor": [
        0,
        0,
        0
      ],
      "alphaMode": "OPAQUE",
      "doubleSided": false
    }
  ],
  "meshes": [
    {
      "name": "zhu1_1",
      "primitives": [
        {
          "attributes": {
            "POSITION": 0,
            "NORMAL": 1,
            "TEXCOORD_0": 2
          },
          "indices": 3,
          "material": 0,
          "mode": 4
        },
        {
          "attributes": {
            "POSITION": 4,
            "NORMAL": 5,
            "TEXCOORD_0": 6
          },
          "indices": 7,
          "material": 1,
          "mode": 4
        },
        {
          "attributes": {
            "POSITION": 8,
            "NORMAL": 9,
            "TEXCOORD_0": 10
          },
          "indices": 11,
          "material": 2,
          "mode": 4
        },
        {
          "attributes": {
            "POSITION": 12,
            "NORMAL": 13,
            "TEXCOORD_0": 14
          },
          "indices": 15,
          "material": 3,
          "mode": 4
        },
        {
          "attributes": {
            "POSITION": 16,
            "NORMAL": 17,
            "TEXCOORD_0": 18
          },
          "indices": 19,
          "material": 4,
          "mode": 4
        },
        {
          "attributes": {
            "POSITION": 20,
            "NORMAL": 21,
            "TEXCOORD_0": 22
          },
          "indices": 23,
          "material": 5,
          "mode": 4
        },
        {
          "attributes": {
            "POSITION": 24,
            "NORMAL": 25,
            "TEXCOORD_0": 26
          },
          "indices": 27,
          "material": 6,
          "mode": 4
        },
        {
          "attributes": {
            "POSITION": 28,
            "NORMAL": 29,
            "TEXCOORD_0": 30
          },
          "indices": 31,
          "material": 7,
          "mode": 4
        }
      ]
    }
  ],
  "nodes": [
    {
      "name": "zhu1",
      "mesh": 0
    }
  ],
  "samplers": [
    {
      "wrapS": 10497,
      "wrapT": 10497
    }
  ],
  "scene": 0,
  "scenes": [
    {
      "nodes": [
        0
      ]
    }
  ],
  "textures": [
    {
      "name": "yc_002",
      "sampler": 0,
      "source": 0
    },
    {
      "name": "yc_001",
      "sampler": 0,
      "source": 1
    },
    {
      "name": "yc_006",
      "sampler": 0,
      "source": 2
    },
    {
      "name": "yc_008",
      "sampler": 0,
      "source": 3
    },
    {
      "name": "yc_005",
      "sampler": 0,
      "source": 4
    },
    {
      "name": "yc_007",
      "sampler": 0,
      "source": 5
    },
    {
      "name": "yc_009",
      "sampler": 0,
      "source": 6
    },
    {
      "name": "yc_004",
      "sampler": 0,
      "source": 7
    }
  ]
}
