{
  "accessors": [
    {
      "name": "Box025_1_0_positions",
      "componentType": 5126,
      "count": 29,
      "min": [
        -49.0364990234375,
        -23.674100875854492,
        12.543999671936035
      ],
      "max": [
        -8.076000213623047,
        15.267600059509277,
        15.932299613952637
      ],
      "type": "VEC3",
      "bufferView": 0,
      "byteOffset": 0
    },
    {
      "name": "Box025_1_0_normals",
      "componentType": 5126,
      "count": 29,
      "min": [
        0,
        0,
        1
      ],
      "max": [
        0,
        0,
        1
      ],
      "type": "VEC3",
      "bufferView": 1,
      "byteOffset": 0
    },
    {
      "name": "Box025_1_0_texcoords",
      "componentType": 5126,
      "count": 29,
      "min": [
        -0.2687000036239624,
        -0.8592000007629395
      ],
      "max": [
        1.2687000036239624,
        1.8592000007629395
      ],
      "type": "VEC2",
      "bufferView": 2,
      "byteOffset": 0
    },
    {
      "name": "Box025_1_0_indices",
      "componentType": 5123,
      "count": 42,
      "min": [
        0
      ],
      "max": [
        28
      ],
      "type": "SCALAR",
      "bufferView": 3,
      "byteOffset": 0
    },
    {
      "name": "Box025_1_1_positions",
      "componentType": 5126,
      "count": 72,
      "min": [
        -45.74700164794922,
        -33.26350021362305,
        0
      ],
      "max": [
        -8.137900352478027,
        17.313800811767578,
        17.932300567626953
      ],
      "type": "VEC3",
      "bufferView": 0,
      "byteOffset": 348
    },
    {
      "name": "Box025_1_1_normals",
      "componentType": 5126,
      "count": 72,
      "min": [
        -1,
        -1,
        0
      ],
      "max": [
        1,
        1,
        1
      ],
      "type": "VEC3",
      "bufferView": 1,
      "byteOffset": 348
    },
    {
      "name": "Box025_1_1_texcoords",
      "componentType": 5126,
      "count": 72,
      "min": [
        -4.7846999168396,
        -0.6060000061988831
      ],
      "max": [
        2.8949999809265137,
        2.4398999214172363
      ],
      "type": "VEC2",
      "bufferView": 2,
      "byteOffset": 232
    },
    {
      "name": "Box025_1_1_indices",
      "componentType": 5123,
      "count": 108,
      "min": [
        0
      ],
      "max": [
        71
      ],
      "type": "SCALAR",
      "bufferView": 3,
      "byteOffset": 84
    },
    {
      "name": "Box025_1_2_positions",
      "componentType": 5126,
      "count": 358,
      "min": [
        -49.361698150634766,
        -31.233699798583984,
        -0.12240000069141388
      ],
      "max": [
        48.38740158081055,
        32.30889892578125,
        22.01449966430664
      ],
      "type": "VEC3",
      "bufferView": 0,
      "byteOffset": 1212
    },
    {
      "name": "Box025_1_2_normals",
      "componentType": 5126,
      "count": 358,
      "min": [
        -1,
        -1,
        -1
      ],
      "max": [
        1,
        1,
        1
      ],
      "type": "VEC3",
      "bufferView": 1,
      "byteOffset": 1212
    },
    {
      "name": "Box025_1_2_texcoords",
      "componentType": 5126,
      "count": 358,
      "min": [
        -2.2695000171661377,
        -1.524899959564209
      ],
      "max": [
        3.2695000171661377,
        2.923799991607666
      ],
      "type": "VEC2",
      "bufferView": 2,
      "byteOffset": 808
    },
    {
      "name": "Box025_1_2_indices",
      "componentType": 5123,
      "count": 561,
      "min": [
        0
      ],
      "max": [
        357
      ],
      "type": "SCALAR",
      "bufferView": 3,
      "byteOffset": 300
    },
    {
      "name": "Box025_1_3_positions",
      "componentType": 5126,
      "count": 689,
      "min": [
        -50.187400817871094,
        -33.61520004272461,
        -0.12240000069141388
      ],
      "max": [
        49.88740158081055,
        33.61520004272461,
        19.00589942932129
      ],
      "type": "VEC3",
      "bufferView": 0,
      "byteOffset": 5508
    },
    {
      "name": "Box025_1_3_normals",
      "componentType": 5126,
      "count": 689,
      "min": [
        -1,
        -1,
        -1
      ],
      "max": [
        1,
        1,
        1
      ],
      "type": "VEC3",
      "bufferView": 1,
      "byteOffset": 5508
    },
    {
      "name": "Box025_1_3_texcoords",
      "componentType": 5126,
      "count": 689,
      "min": [
        -3.1210999488830566,
        -3.1210999488830566
      ],
      "max": [
        4.121099948883057,
        3.5011000633239746
      ],
      "type": "VEC2",
      "bufferView": 2,
      "byteOffset": 3672
    },
    {
      "name": "Box025_1_3_indices",
      "componentType": 5123,
      "count": 1146,
      "min": [
        0
      ],
      "max": [
        688
      ],
      "type": "SCALAR",
      "bufferView": 3,
      "byteOffset": 1424
    },
    {
      "name": "Box025_1_4_positions",
      "componentType": 5126,
      "count": 55,
      "min": [
        -46.06340026855469,
        -32.81520080566406,
        10.211000442504883
      ],
      "max": [
        48.38740158081055,
        31.508899688720703,
        23.75950050354004
      ],
      "type": "VEC3",
      "bufferView": 0,
      "byteOffset": 13776
    },
    {
      "name": "Box025_1_4_normals",
      "componentType": 5126,
      "count": 55,
      "min": [
        -1,
        0,
        0
      ],
      "max": [
        1,
        0,
        0
      ],
      "type": "VEC3",
      "bufferView": 1,
      "byteOffset": 13776
    },
    {
      "name": "Box025_1_4_texcoords",
      "componentType": 5126,
      "count": 55,
      "min": [
        -4.346399784088135,
        -0.8381999731063843
      ],
      "max": [
        5.346399784088135,
        1.479699969291687
      ],
      "type": "VEC2",
      "bufferView": 2,
      "byteOffset": 9184
    },
    {
      "name": "Box025_1_4_indices",
      "componentType": 5123,
      "count": 99,
      "min": [
        0
      ],
      "max": [
        54
      ],
      "type": "SCALAR",
      "bufferView": 3,
      "byteOffset": 3716
    },
    {
      "name": "Box025_1_5_positions",
      "componentType": 5126,
      "count": 22,
      "min": [
        -46.547000885009766,
        -29.11210060119629,
        8.29889965057373
      ],
      "max": [
        -24.460100173950195,
        12.215700149536133,
        10.926300048828125
      ],
      "type": "VEC3",
      "bufferView": 0,
      "byteOffset": 14436
    },
    {
      "name": "Box025_1_5_normals",
      "componentType": 5126,
      "count": 22,
      "min": [
        -1,
        -1,
        0
      ],
      "max": [
        1,
        0,
        0
      ],
      "type": "VEC3",
      "bufferView": 1,
      "byteOffset": 14436
    },
    {
      "name": "Box025_1_5_texcoords",
      "componentType": 5126,
      "count": 22,
      "min": [
        -6.500999927520752,
        -0.809499979019165
      ],
      "max": [
        7.500999927520752,
        -0.028200000524520874
      ],
      "type": "VEC2",
      "bufferView": 2,
      "byteOffset": 9624
    },
    {
      "name": "Box025_1_5_indices",
      "componentType": 5123,
      "count": 27,
      "min": [
        0
      ],
      "max": [
        21
      ],
      "type": "SCALAR",
      "bufferView": 3,
      "byteOffset": 3916
    },
    {
      "name": "Box025_1_6_positions",
      "componentType": 5126,
      "count": 8,
      "min": [
        -34.20669937133789,
        12.224900245666504,
        6.605599880218506
      ],
      "max": [
        -26.71430015563965,
        12.224900245666504,
        9.537099838256836
      ],
      "type": "VEC3",
      "bufferView": 0,
      "byteOffset": 14700
    },
    {
      "name": "Box025_1_6_normals",
      "componentType": 5126,
      "count": 8,
      "min": [
        0,
        1,
        0
      ],
      "max": [
        0,
        1,
        0
      ],
      "type": "VEC3",
      "bufferView": 1,
      "byteOffset": 14700
    },
    {
      "name": "Box025_1_6_texcoords",
      "componentType": 5126,
      "count": 8,
      "min": [
        0,
        0
      ],
      "max": [
        1,
        1
      ],
      "type": "VEC2",
      "bufferView": 2,
      "byteOffset": 9800
    },
    {
      "name": "Box025_1_6_indices",
      "componentType": 5123,
      "count": 12,
      "min": [
        0
      ],
      "max": [
        7
      ],
      "type": "SCALAR",
      "bufferView": 3,
      "byteOffset": 3972
    },
    {
      "name": "Box025_1_7_positions",
      "componentType": 5126,
      "count": 36,
      "min": [
        -49.45289993286133,
        -15.556400299072266,
        0
      ],
      "max": [
        -26.71430015563965,
        12.224900245666504,
        4.808800220489502
      ],
      "type": "VEC3",
      "bufferView": 0,
      "byteOffset": 14796
    },
    {
      "name": "Box025_1_7_normals",
      "componentType": 5126,
      "count": 36,
      "min": [
        -1,
        0,
        0
      ],
      "max": [
        0,
        1,
        0
      ],
      "type": "VEC3",
      "bufferView": 1,
      "byteOffset": 14796
    },
    {
      "name": "Box025_1_7_texcoords",
      "componentType": 5126,
      "count": 36,
      "min": [
        0,
        0
      ],
      "max": [
        1,
        1
      ],
      "type": "VEC2",
      "bufferView": 2,
      "byteOffset": 9864
    },
    {
      "name": "Box025_1_7_indices",
      "componentType": 5123,
      "count": 54,
      "min": [
        0
      ],
      "max": [
        35
      ],
      "type": "SCALAR",
      "bufferView": 3,
      "byteOffset": 3996
    },
    {
      "name": "Box025_1_8_positions",
      "componentType": 5126,
      "count": 8,
      "min": [
        -47.840599060058594,
        12.224900245666504,
        6.605599880218506
      ],
      "max": [
        -36.485801696777344,
        12.224900245666504,
        9.537099838256836
      ],
      "type": "VEC3",
      "bufferView": 0,
      "byteOffset": 15228
    },
    {
      "name": "Box025_1_8_normals",
      "componentType": 5126,
      "count": 8,
      "min": [
        0,
        1,
        0
      ],
      "max": [
        0,
        1,
        0
      ],
      "type": "VEC3",
      "bufferView": 1,
      "byteOffset": 15228
    },
    {
      "name": "Box025_1_8_texcoords",
      "componentType": 5126,
      "count": 8,
      "min": [
        0,
        0
      ],
      "max": [
        1,
        1
      ],
      "type": "VEC2",
      "bufferView": 2,
      "byteOffset": 10152
    },
    {
      "name": "Box025_1_8_indices",
      "componentType": 5123,
      "count": 12,
      "min": [
        0
      ],
      "max": [
        7
      ],
      "type": "SCALAR",
      "bufferView": 3,
      "byteOffset": 4104
    },
    {
      "name": "Box025_1_9_positions",
      "componentType": 5126,
      "count": 20,
      "min": [
        -49.45289993286133,
        -15.556400299072266,
        6.605599880218506
      ],
      "max": [
        -49.45289993286133,
        8.723799705505371,
        9.537099838256836
      ],
      "type": "VEC3",
      "bufferView": 0,
      "byteOffset": 15324
    },
    {
      "name": "Box025_1_9_normals",
      "componentType": 5126,
      "count": 20,
      "min": [
        -1,
        0,
        0
      ],
      "max": [
        -1,
        0,
        0
      ],
      "type": "VEC3",
      "bufferView": 1,
      "byteOffset": 15324
    },
    {
      "name": "Box025_1_9_texcoords",
      "componentType": 5126,
      "count": 20,
      "min": [
        0,
        0
      ],
      "max": [
        1,
        1
      ],
      "type": "VEC2",
      "bufferView": 2,
      "byteOffset": 10216
    },
    {
      "name": "Box025_1_9_indices",
      "componentType": 5123,
      "count": 30,
      "min": [
        0
      ],
      "max": [
        19
      ],
      "type": "SCALAR",
      "bufferView": 3,
      "byteOffset": 4128
    },
    {
      "name": "Box025_1_10_positions",
      "componentType": 5126,
      "count": 234,
      "min": [
        -7.47599983215332,
        -7.525000095367432,
        9.41100025177002
      ],
      "max": [
        50.187400817871094,
        32.30889892578125,
        24.598100662231445
      ],
      "type": "VEC3",
      "bufferView": 0,
      "byteOffset": 15564
    },
    {
      "name": "Box025_1_10_normals",
      "componentType": 5126,
      "count": 234,
      "min": [
        -1,
        -1,
        -1
      ],
      "max": [
        1,
        1,
        1
      ],
      "type": "VEC3",
      "bufferView": 1,
      "byteOffset": 15564
    },
    {
      "name": "Box025_1_10_texcoords",
      "componentType": 5126,
      "count": 234,
      "min": [
        -5.987500190734863,
        0
      ],
      "max": [
        6.987500190734863,
        1
      ],
      "type": "VEC2",
      "bufferView": 2,
      "byteOffset": 10376
    },
    {
      "name": "Box025_1_10_indices",
      "componentType": 5123,
      "count": 414,
      "min": [
        0
      ],
      "max": [
        233
      ],
      "type": "SCALAR",
      "bufferView": 3,
      "byteOffset": 4188
    },
    {
      "name": "Box025_1_11_positions",
      "componentType": 5126,
      "count": 22,
      "min": [
        -7.47599983215332,
        -5.426300048828125,
        6.737199783325195
      ],
      "max": [
        46.28269958496094,
        30.294099807739258,
        9.41100025177002
      ],
      "type": "VEC3",
      "bufferView": 0,
      "byteOffset": 18372
    },
    {
      "name": "Box025_1_11_normals",
      "componentType": 5126,
      "count": 22,
      "min": [
        0,
        -1,
        0
      ],
      "max": [
        1,
        1,
        0
      ],
      "type": "VEC3",
      "bufferView": 1,
      "byteOffset": 18372
    },
    {
      "name": "Box025_1_11_texcoords",
      "componentType": 5126,
      "count": 22,
      "min": [
        -3.5487000942230225,
        -0.4440999925136566
      ],
      "max": [
        5.438399791717529,
        0.8780999779701233
      ],
      "type": "VEC2",
      "bufferView": 2,
      "byteOffset": 12248
    },
    {
      "name": "Box025_1_11_indices",
      "componentType": 5123,
      "count": 30,
      "min": [
        0
      ],
      "max": [
        21
      ],
      "type": "SCALAR",
      "bufferView": 3,
      "byteOffset": 5016
    },
    {
      "name": "Box025_1_12_positions",
      "componentType": 5126,
      "count": 8,
      "min": [
        -4.208799839019775,
        -7.525000095367432,
        9.41100025177002
      ],
      "max": [
        43.762001037597656,
        32.30889892578125,
        22.01449966430664
      ],
      "type": "VEC3",
      "bufferView": 0,
      "byteOffset": 18636
    },
    {
      "name": "Box025_1_12_normals",
      "componentType": 5126,
      "count": 8,
      "min": [
        0,
        -1,
        0
      ],
      "max": [
        0,
        1,
        0
      ],
      "type": "VEC3",
      "bufferView": 1,
      "byteOffset": 18636
    },
    {
      "name": "Box025_1_12_texcoords",
      "componentType": 5126,
      "count": 8,
      "min": [
        -1.986299991607666,
        0
      ],
      "max": [
        2.7613000869750977,
        1
      ],
      "type": "VEC2",
      "bufferView": 2,
      "byteOffset": 12424
    },
    {
      "name": "Box025_1_12_indices",
      "componentType": 5123,
      "count": 12,
      "min": [
        0
      ],
      "max": [
        7
      ],
      "type": "SCALAR",
      "bufferView": 3,
      "byteOffset": 5076
    },
    {
      "name": "Box025_1_13_positions",
      "componentType": 5126,
      "count": 20,
      "min": [
        -3.531100034713745,
        -8.02280044555664,
        -0.12240000069141388
      ],
      "max": [
        48.82929992675781,
        32.58319854736328,
        3.4128000736236572
      ],
      "type": "VEC3",
      "bufferView": 0,
      "byteOffset": 18732
    },
    {
      "name": "Box025_1_13_normals",
      "componentType": 5126,
      "count": 20,
      "min": [
        0,
        -1,
        0
      ],
      "max": [
        1,
        1,
        0
      ],
      "type": "VEC3",
      "bufferView": 1,
      "byteOffset": 18732
    },
    {
      "name": "Box025_1_13_texcoords",
      "componentType": 5126,
      "count": 20,
      "min": [
        -7.0005998611450195,
        0.22849999368190765
      ],
      "max": [
        8.993900299072266,
        0.9764999747276306
      ],
      "type": "VEC2",
      "bufferView": 2,
      "byteOffset": 12488
    },
    {
      "name": "Box025_1_13_indices",
      "componentType": 5123,
      "count": 30,
      "min": [
        0
      ],
      "max": [
        19
      ],
      "type": "SCALAR",
      "bufferView": 3,
      "byteOffset": 5100
    },
    {
      "name": "Box025_1_14_positions",
      "componentType": 5126,
      "count": 240,
      "min": [
        -7.47599983215332,
        -6.426300048828125,
        6.737199783325195
      ],
      "max": [
        47.28269958496094,
        31.294200897216797,
        9.41100025177002
      ],
      "type": "VEC3",
      "bufferView": 0,
      "byteOffset": 18972
    },
    {
      "name": "Box025_1_14_normals",
      "componentType": 5126,
      "count": 240,
      "min": [
        -1,
        -1,
        0
      ],
      "max": [
        1,
        1,
        0
      ],
      "type": "VEC3",
      "bufferView": 1,
      "byteOffset": 18972
    },
    {
      "name": "Box025_1_14_texcoords",
      "componentType": 5126,
      "count": 240,
      "min": [
        0,
        0
      ],
      "max": [
        1,
        1
      ],
      "type": "VEC2",
      "bufferView": 2,
      "byteOffset": 12648
    },
    {
      "name": "Box025_1_14_indices",
      "componentType": 5123,
      "count": 360,
      "min": [
        0
      ],
      "max": [
        239
      ],
      "type": "SCALAR",
      "bufferView": 3,
      "byteOffset": 5160
    }
  ],
  "asset": {
    "generator": "obj2gltf",
    "version": "2.0"
  },
  "buffers": [
    {
      "name": "3_jz17",
      "byteLength": 64152,
      "uri": "data:application/octet-stream;base64,"
    }
  ],
  "bufferViews": [
    {
      "name": "bufferView_0",
      "buffer": 0,
      "byteLength": 21852,
      "byteOffset": 0,
      "byteStride": 12,
      "target": 34962
    },
    {
      "name": "bufferView_1",
      "buffer": 0,
      "byteLength": 21852,
      "byteOffset": 21852,
      "byteStride": 12,
      "target": 34962
    },
    {
      "name": "bufferView_2",
      "buffer": 0,
      "byteLength": 14568,
      "byteOffset": 43704,
      "byteStride": 8,
      "target": 34962
    },
    {
      "name": "bufferView_3",
      "buffer": 0,
      "byteLength": 5880,
      "byteOffset": 58272,
      "target": 34963
    }
  ],
  "images": [
    {
      "name": "SGY_Q1_010",
      "uri": "SGY_Q1_010.jpg"
    },
    {
      "name": "sgy_3q_43",
      "uri": "sgy_3q_43.jpg"
    },
    {
      "name": "sgy_3q_04",
      "uri": "sgy_3q_04.jpg"
    },
    {
      "name": "SGY_Q1_005",
      "uri": "SGY_Q1_005.jpg"
    },
    {
      "name": "sgy_2q_35",
      "uri": "sgy_2q_35.jpg"
    },
    {
      "name": "sgy_1q_19",
      "uri": "sgy_1q_19.jpg"
    },
    {
      "name": "sgy_3q_46",
      "uri": "sgy_3q_46.png"
    },
    {
      "name": "sgy_3q_47",
      "uri": "sgy_3q_47.jpg"
    },
    {
      "name": "sgy_3q_48",
      "uri": "sgy_3q_48.png"
    },
    {
      "name": "sgy_3q_49",
      "uri": "sgy_3q_49.png"
    },
    {
      "name": "sgy_3q_45",
      "uri": "sgy_3q_45.jpg"
    },
    {
      "name": "sgy_2q_02",
      "uri": "sgy_2q_02.jpg"
    },
    {
      "name": "sgy_3q_44",
      "uri": "sgy_3q_44.jpg"
    },
    {
      "name": "sgy_3q_15",
      "uri": "sgy_3q_15.jpg"
    }
  ],
  "materials": [
    {
      "name": "Material__5589",
      "pbrMetallicRoughness": {
        "baseColorTexture": {
          "index": 0
        },
        "baseColorFactor": [
          1,
          1,
          1,
          1
        ],
        "metallicFactor": 0,
        "roughnessFactor": 0.99
      },
      "emissiveFactor": [
        0,
        0,
        0
      ],
      "alphaMode": "OPAQUE",
      "doubleSided": false
    },
    {
      "name": "Material__4908",
      "pbrMetallicRoughness": {
        "baseColorTexture": {
          "index": 1
        },
        "baseColorFactor": [
          1,
          1,
          1,
          1
        ],
        "metallicFactor": 0,
        "roughnessFactor": 0.99
      },
      "emissiveFactor": [
        0,
        0,
        0
      ],
      "alphaMode": "OPAQUE",
      "doubleSided": false
    },
    {
      "name": "Material__5222",
      "pbrMetallicRoughness": {
        "baseColorTexture": {
          "index": 2
        },
        "baseColorFactor": [
          1,
          1,
          1,
          1
        ],
        "metallicFactor": 0,
        "roughnessFactor": 0.99
      },
      "emissiveFactor": [
        0,
        0,
        0
      ],
      "alphaMode": "OPAQUE",
      "doubleSided": false
    },
    {
      "name": "Material__5282",
      "pbrMetallicRoughness": {
        "baseColorTexture": {
          "index": 3
        },
        "baseColorFactor": [
          1,
          1,
          1,
          1
        ],
        "metallicFactor": 0,
        "roughnessFactor": 0.99
      },
      "emissiveFactor": [
        0,
        0,
        0
      ],
      "alphaMode": "OPAQUE",
      "doubleSided": false
    },
    {
      "name": "Material__5234",
      "pbrMetallicRoughness": {
        "baseColorTexture": {
          "index": 4
        },
        "baseColorFactor": [
          1,
          1,
          1,
          1
        ],
        "metallicFactor": 0,
        "roughnessFactor": 0.99
      },
      "emissiveFactor": [
        0,
        0,
        0
      ],
      "alphaMode": "OPAQUE",
      "doubleSided": false
    },
    {
      "name": "Material__4931",
      "pbrMetallicRoughness": {
        "baseColorTexture": {
          "index": 5
        },
        "baseColorFactor": [
          1,
          1,
          1,
          1
        ],
        "metallicFactor": 0,
        "roughnessFactor": 0.99
      },
      "emissiveFactor": [
        0,
        0,
        0
      ],
      "alphaMode": "OPAQUE",
      "doubleSided": false
    },
    {
      "name": "Material__5463",
      "pbrMetallicRoughness": {
        "baseColorTexture": {
          "index": 6
        },
        "baseColorFactor": [
          1,
          1,
          1,
          1
        ],
        "metallicFactor": 0,
        "roughnessFactor": 0.99
      },
      "emissiveFactor": [
        0,
        0,
        0
      ],
      "alphaMode": "BLEND",
      "doubleSided": true
    },
    {
      "name": "Material__5475",
      "pbrMetallicRoughness": {
        "baseColorTexture": {
          "index": 7
        },
        "baseColorFactor": [
          1,
          1,
          1,
          1
        ],
        "metallicFactor": 0,
        "roughnessFactor": 0.99
      },
      "emissiveFactor": [
        0,
        0,
        0
      ],
      "alphaMode": "OPAQUE",
      "doubleSided": false
    },
    {
      "name": "Material__5487",
      "pbrMetallicRoughness": {
        "baseColorTexture": {
          "index": 8
        },
        "baseColorFactor": [
          1,
          1,
          1,
          1
        ],
        "metallicFactor": 0,
        "roughnessFactor": 0.99
      },
      "emissiveFactor": [
        0,
        0,
        0
      ],
      "alphaMode": "BLEND",
      "doubleSided": true
    },
    {
      "name": "Material__5510",
      "pbrMetallicRoughness": {
        "baseColorTexture": {
          "index": 9
        },
        "baseColorFactor": [
          1,
          1,
          1,
          1
        ],
        "metallicFactor": 0,
        "roughnessFactor": 0.99
      },
      "emissiveFactor": [
        0,
        0,
        0
      ],
      "alphaMode": "BLEND",
      "doubleSided": true
    },
    {
      "name": "Material__5131",
      "pbrMetallicRoughness": {
        "baseColorTexture": {
          "index": 10
        },
        "baseColorFactor": [
          1,
          1,
          1,
          1
        ],
        "metallicFactor": 0,
        "roughnessFactor": 0.99
      },
      "emissiveFactor": [
        0,
        0,
        0
      ],
      "alphaMode": "OPAQUE",
      "doubleSided": false
    },
    {
      "name": "Material__5258",
      "pbrMetallicRoughness": {
        "baseColorTexture": {
          "index": 11
        },
        "baseColorFactor": [
          1,
          1,
          1,
          1
        ],
        "metallicFactor": 0,
        "roughnessFactor": 0.99
      },
      "emissiveFactor": [
        0,
        0,
        0
      ],
      "alphaMode": "OPAQUE",
      "doubleSided": false
    },
    {
      "name": "Material__5106",
      "pbrMetallicRoughness": {
        "baseColorTexture": {
          "index": 12
        },
        "baseColorFactor": [
          1,
          1,
          1,
          1
        ],
        "metallicFactor": 0,
        "roughnessFactor": 0.99
      },
      "emissiveFactor": [
        0,
        0,
        0
      ],
      "alphaMode": "OPAQUE",
      "doubleSided": false
    },
    {
      "name": "Material__5270",
      "pbrMetallicRoughness": {
        "baseColorTexture": {
          "index": 5
        },
        "baseColorFactor": [
          1,
          1,
          1,
          1
        ],
        "metallicFactor": 0,
        "roughnessFactor": 0.99
      },
      "emissiveFactor": [
        0,
        0,
        0
      ],
      "alphaMode": "OPAQUE",
      "doubleSided": false
    },
    {
      "name": "Material__5294",
      "pbrMetallicRoughness": {
        "baseColorTexture": {
          "index": 13
        },
        "baseColorFactor": [
          1,
          1,
          1,
          1
        ],
        "metallicFactor": 0,
        "roughnessFactor": 0.99
      },
      "emissiveFactor": [
        0,
        0,
        0
      ],
      "alphaMode": "OPAQUE",
      "doubleSided": false
    }
  ],
  "meshes": [
    {
      "name": "Box025_1",
      "primitives": [
        {
          "attributes": {
            "POSITION": 0,
            "NORMAL": 1,
            "TEXCOORD_0": 2
          },
          "indices": 3,
          "material": 0,
          "mode": 4
        },
        {
          "attributes": {
            "POSITION": 4,
            "NORMAL": 5,
            "TEXCOORD_0": 6
          },
          "indices": 7,
          "material": 1,
          "mode": 4
        },
        {
          "attributes": {
            "POSITION": 8,
            "NORMAL": 9,
            "TEXCOORD_0": 10
          },
          "indices": 11,
          "material": 2,
          "mode": 4
        },
        {
          "attributes": {
            "POSITION": 12,
            "NORMAL": 13,
            "TEXCOORD_0": 14
          },
          "indices": 15,
          "material": 3,
          "mode": 4
        },
        {
          "attributes": {
            "POSITION": 16,
            "NORMAL": 17,
            "TEXCOORD_0": 18
          },
          "indices": 19,
          "material": 4,
          "mode": 4
        },
        {
          "attributes": {
            "POSITION": 20,
            "NORMAL": 21,
            "TEXCOORD_0": 22
          },
          "indices": 23,
          "material": 5,
          "mode": 4
        },
        {
          "attributes": {
            "POSITION": 24,
            "NORMAL": 25,
            "TEXCOORD_0": 26
          },
          "indices": 27,
          "material": 6,
          "mode": 4
        },
        {
          "attributes": {
            "POSITION": 28,
            "NORMAL": 29,
            "TEXCOORD_0": 30
          },
          "indices": 31,
          "material": 7,
          "mode": 4
        },
        {
          "attributes": {
            "POSITION": 32,
            "NORMAL": 33,
            "TEXCOORD_0": 34
          },
          "indices": 35,
          "material": 8,
          "mode": 4
        },
        {
          "attributes": {
            "POSITION": 36,
            "NORMAL": 37,
            "TEXCOORD_0": 38
          },
          "indices": 39,
          "material": 9,
          "mode": 4
        },
        {
          "attributes": {
            "POSITION": 40,
            "NORMAL": 41,
            "TEXCOORD_0": 42
          },
          "indices": 43,
          "material": 10,
          "mode": 4
        },
        {
          "attributes": {
            "POSITION": 44,
            "NORMAL": 45,
            "TEXCOORD_0": 46
          },
          "indices": 47,
          "material": 11,
          "mode": 4
        },
        {
          "attributes": {
            "POSITION": 48,
            "NORMAL": 49,
            "TEXCOORD_0": 50
          },
          "indices": 51,
          "material": 12,
          "mode": 4
        },
        {
          "attributes": {
            "POSITION": 52,
            "NORMAL": 53,
            "TEXCOORD_0": 54
          },
          "indices": 55,
          "material": 13,
          "mode": 4
        },
        {
          "attributes": {
            "POSITION": 56,
            "NORMAL": 57,
            "TEXCOORD_0": 58
          },
          "indices": 59,
          "material": 14,
          "mode": 4
        }
      ]
    }
  ],
  "nodes": [
    {
      "name": "Box025",
      "mesh": 0
    }
  ],
  "samplers": [
    {
      "wrapS": 10497,
      "wrapT": 10497
    }
  ],
  "scene": 0,
  "scenes": [
    {
      "nodes": [
        0
      ]
    }
  ],
  "textures": [
    {
      "name": "SGY_Q1_010",
      "sampler": 0,
      "source": 0
    },
    {
      "name": "sgy_3q_43",
      "sampler": 0,
      "source": 1
    },
    {
      "name": "sgy_3q_04",
      "sampler": 0,
      "source": 2
    },
    {
      "name": "SGY_Q1_005",
      "sampler": 0,
      "source": 3
    },
    {
      "name": "sgy_2q_35",
      "sampler": 0,
      "source": 4
    },
    {
      "name": "sgy_1q_19",
      "sampler": 0,
      "source": 5
    },
    {
      "name": "sgy_3q_46",
      "sampler": 0,
      "source": 6
    },
    {
      "name": "sgy_3q_47",
      "sampler": 0,
      "source": 7
    },
    {
      "name": "sgy_3q_48",
      "sampler": 0,
      "source": 8
    },
    {
      "name": "sgy_3q_49",
      "sampler": 0,
      "source": 9
    },
    {
      "name": "sgy_3q_45",
      "sampler": 0,
      "source": 10
    },
    {
      "name": "sgy_2q_02",
      "sampler": 0,
      "source": 11
    },
    {
      "name": "sgy_3q_44",
      "sampler": 0,
      "source": 12
    },
    {
      "name": "sgy_3q_15",
      "sampler": 0,
      "source": 13
    }
  ]
}
