{
  "accessors": [
    {
      "name": "Box039_1_0_positions",
      "componentType": 5126,
      "count": 366,
      "min": [
        -6.8572001457214355,
        -19.23110008239746,
        0
      ],
      "max": [
        6.8572001457214355,
        19.231000900268555,
        7.851600170135498
      ],
      "type": "VEC3",
      "bufferView": 0,
      "byteOffset": 0
    },
    {
      "name": "Box039_1_0_normals",
      "componentType": 5126,
      "count": 366,
      "min": [
        -1,
        -1,
        -1
      ],
      "max": [
        1,
        1,
        1
      ],
      "type": "VEC3",
      "bufferView": 1,
      "byteOffset": 0
    },
    {
      "name": "Box039_1_0_texcoords",
      "componentType": 5126,
      "count": 366,
      "min": [
        -2.0513999462127686,
        -2.004199981689453
      ],
      "max": [
        3.0513999462127686,
        3.0513999462127686
      ],
      "type": "VEC2",
      "bufferView": 2,
      "byteOffset": 0
    },
    {
      "name": "Box039_1_0_indices",
      "componentType": 5123,
      "count": 576,
      "min": [
        0
      ],
      "max": [
        365
      ],
      "type": "SCALAR",
      "bufferView": 3,
      "byteOffset": 0
    },
    {
      "name": "Box039_1_1_positions",
      "componentType": 5126,
      "count": 14,
      "min": [
        -3.6445999145507812,
        -15.731100082397461,
        1.7099000215530396
      ],
      "max": [
        6.249000072479248,
        4.232500076293945,
        7.327000141143799
      ],
      "type": "VEC3",
      "bufferView": 0,
      "byteOffset": 4392
    },
    {
      "name": "Box039_1_1_normals",
      "componentType": 5126,
      "count": 14,
      "min": [
        -1,
        -1,
        0
      ],
      "max": [
        0,
        1,
        0
      ],
      "type": "VEC3",
      "bufferView": 1,
      "byteOffset": 4392
    },
    {
      "name": "Box039_1_1_texcoords",
      "componentType": 5126,
      "count": 14,
      "min": [
        -2.3852999210357666,
        0
      ],
      "max": [
        2.887500047683716,
        1
      ],
      "type": "VEC2",
      "bufferView": 2,
      "byteOffset": 2928
    },
    {
      "name": "Box039_1_1_indices",
      "componentType": 5123,
      "count": 24,
      "min": [
        0
      ],
      "max": [
        13
      ],
      "type": "SCALAR",
      "bufferView": 3,
      "byteOffset": 1152
    },
    {
      "name": "Box039_1_2_positions",
      "componentType": 5126,
      "count": 118,
      "min": [
        -6.5655999183654785,
        -18.94890022277832,
        0.555899977684021
      ],
      "max": [
        6.526899814605713,
        19.01740074157715,
        9.232600212097168
      ],
      "type": "VEC3",
      "bufferView": 0,
      "byteOffset": 4560
    },
    {
      "name": "Box039_1_2_normals",
      "componentType": 5126,
      "count": 118,
      "min": [
        -1,
        -1,
        0
      ],
      "max": [
        1,
        1,
        0
      ],
      "type": "VEC3",
      "bufferView": 1,
      "byteOffset": 4560
    },
    {
      "name": "Box039_1_2_texcoords",
      "componentType": 5126,
      "count": 118,
      "min": [
        -8.039999961853027,
        -1.007200002670288
      ],
      "max": [
        10.041799545288086,
        3.5759999752044678
      ],
      "type": "VEC2",
      "bufferView": 2,
      "byteOffset": 3040
    },
    {
      "name": "Box039_1_2_indices",
      "componentType": 5123,
      "count": 156,
      "min": [
        0
      ],
      "max": [
        117
      ],
      "type": "SCALAR",
      "bufferView": 3,
      "byteOffset": 1200
    },
    {
      "name": "Box039_1_3_positions",
      "componentType": 5126,
      "count": 76,
      "min": [
        -4.304699897766113,
        -10.674799919128418,
        7.911200046539307
      ],
      "max": [
        -4.114699840545654,
        2.367000102996826,
        9.684700012207031
      ],
      "type": "VEC3",
      "bufferView": 0,
      "byteOffset": 5976
    },
    {
      "name": "Box039_1_3_normals",
      "componentType": 5126,
      "count": 76,
      "min": [
        -1,
        -0.984815776348114,
        -1
      ],
      "max": [
        1,
        0.984815776348114,
        1
      ],
      "type": "VEC3",
      "bufferView": 1,
      "byteOffset": 5976
    },
    {
      "name": "Box039_1_3_texcoords",
      "componentType": 5126,
      "count": 76,
      "min": [
        0,
        0.0430000014603138
      ],
      "max": [
        1,
        0.9603999853134155
      ],
      "type": "VEC2",
      "bufferView": 2,
      "byteOffset": 3984
    },
    {
      "name": "Box039_1_3_indices",
      "componentType": 5123,
      "count": 210,
      "min": [
        0
      ],
      "max": [
        75
      ],
      "type": "SCALAR",
      "bufferView": 3,
      "byteOffset": 1512
    }
  ],
  "asset": {
    "generator": "obj2gltf",
    "version": "2.0"
  },
  "buffers": [
    {
      "name": "2_jz05",
      "byteLength": 20300,
      "uri": "data:application/octet-stream;base64,"
    }
  ],
  "bufferViews": [
    {
      "name": "bufferView_0",
      "buffer": 0,
      "byteLength": 6888,
      "byteOffset": 0,
      "byteStride": 12,
      "target": 34962
    },
    {
      "name": "bufferView_1",
      "buffer": 0,
      "byteLength": 6888,
      "byteOffset": 6888,
      "byteStride": 12,
      "target": 34962
    },
    {
      "name": "bufferView_2",
      "buffer": 0,
      "byteLength": 4592,
      "byteOffset": 13776,
      "byteStride": 8,
      "target": 34962
    },
    {
      "name": "bufferView_3",
      "buffer": 0,
      "byteLength": 1932,
      "byteOffset": 18368,
      "target": 34963
    }
  ],
  "images": [
    {
      "name": "sgy_2q_09",
      "uri": "sgy_2q_09.jpg"
    },
    {
      "name": "sgy_2q_08",
      "uri": "sgy_2q_08.jpg"
    },
    {
      "name": "sgy_2q_10",
      "uri": "sgy_2q_10.png"
    },
    {
      "name": "sgy_2q_11",
      "uri": "sgy_2q_11.png"
    }
  ],
  "materials": [
    {
      "name": "Material__2402",
      "pbrMetallicRoughness": {
        "baseColorTexture": {
          "index": 0
        },
        "baseColorFactor": [
          1,
          1,
          1,
          1
        ],
        "metallicFactor": 0,
        "roughnessFactor": 0.99
      },
      "emissiveFactor": [
        0,
        0,
        0
      ],
      "alphaMode": "OPAQUE",
      "doubleSided": false
    },
    {
      "name": "Material__2401",
      "pbrMetallicRoughness": {
        "baseColorTexture": {
          "index": 1
        },
        "baseColorFactor": [
          1,
          1,
          1,
          1
        ],
        "metallicFactor": 0,
        "roughnessFactor": 0.99
      },
      "emissiveFactor": [
        0,
        0,
        0
      ],
      "alphaMode": "OPAQUE",
      "doubleSided": false
    },
    {
      "name": "Material__2403",
      "pbrMetallicRoughness": {
        "baseColorTexture": {
          "index": 2
        },
        "baseColorFactor": [
          1,
          1,
          1,
          1
        ],
        "metallicFactor": 0,
        "roughnessFactor": 0.99
      },
      "emissiveFactor": [
        0,
        0,
        0
      ],
      "alphaMode": "BLEND",
      "doubleSided": true
    },
    {
      "name": "Material__2404",
      "pbrMetallicRoughness": {
        "baseColorTexture": {
          "index": 3
        },
        "baseColorFactor": [
          1,
          1,
          1,
          1
        ],
        "metallicFactor": 0,
        "roughnessFactor": 0.99
      },
      "emissiveFactor": [
        0,
        0,
        0
      ],
      "alphaMode": "BLEND",
      "doubleSided": true
    }
  ],
  "meshes": [
    {
      "name": "Box039_1",
      "primitives": [
        {
          "attributes": {
            "POSITION": 0,
            "NORMAL": 1,
            "TEXCOORD_0": 2
          },
          "indices": 3,
          "material": 0,
          "mode": 4
        },
        {
          "attributes": {
            "POSITION": 4,
            "NORMAL": 5,
            "TEXCOORD_0": 6
          },
          "indices": 7,
          "material": 1,
          "mode": 4
        },
        {
          "attributes": {
            "POSITION": 8,
            "NORMAL": 9,
            "TEXCOORD_0": 10
          },
          "indices": 11,
          "material": 2,
          "mode": 4
        },
        {
          "attributes": {
            "POSITION": 12,
            "NORMAL": 13,
            "TEXCOORD_0": 14
          },
          "indices": 15,
          "material": 3,
          "mode": 4
        }
      ]
    }
  ],
  "nodes": [
    {
      "name": "Box039",
      "mesh": 0
    }
  ],
  "samplers": [
    {
      "wrapS": 10497,
      "wrapT": 10497
    }
  ],
  "scene": 0,
  "scenes": [
    {
      "nodes": [
        0
      ]
    }
  ],
  "textures": [
    {
      "name": "sgy_2q_09",
      "sampler": 0,
      "source": 0
    },
    {
      "name": "sgy_2q_08",
      "sampler": 0,
      "source": 1
    },
    {
      "name": "sgy_2q_10",
      "sampler": 0,
      "source": 2
    },
    {
      "name": "sgy_2q_11",
      "sampler": 0,
      "source": 3
    }
  ]
}
