{
  "accessors": [
    {
      "name": "Box006_1_0_positions",
      "componentType": 5126,
      "count": 56,
      "min": [
        -33.625999450683594,
        -25.41080093383789,
        10.628000259399414
      ],
      "max": [
        33.625999450683594,
        25.41080093383789,
        15.884200096130371
      ],
      "type": "VEC3",
      "bufferView": 0,
      "byteOffset": 0
    },
    {
      "name": "Box006_1_0_normals",
      "componentType": 5126,
      "count": 56,
      "min": [
        -1,
        -1,
        0
      ],
      "max": [
        1,
        1,
        1
      ],
      "type": "VEC3",
      "bufferView": 1,
      "byteOffset": 0
    },
    {
      "name": "Box006_1_0_texcoords",
      "componentType": 5126,
      "count": 56,
      "min": [
        -1.8945000171661377,
        -1.2223999500274658
      ],
      "max": [
        2.8945000171661377,
        2.222399950027466
      ],
      "type": "VEC2",
      "bufferView": 2,
      "byteOffset": 0
    },
    {
      "name": "Box006_1_0_indices",
      "componentType": 5123,
      "count": 108,
      "min": [
        0
      ],
      "max": [
        55
      ],
      "type": "SCALAR",
      "bufferView": 3,
      "byteOffset": 0
    },
    {
      "name": "Box006_1_1_positions",
      "componentType": 5126,
      "count": 30,
      "min": [
        -33.625999450683594,
        -25.41080093383789,
        0
      ],
      "max": [
        33.625999450683594,
        25.41080093383789,
        15.884200096130371
      ],
      "type": "VEC3",
      "bufferView": 0,
      "byteOffset": 672
    },
    {
      "name": "Box006_1_1_normals",
      "componentType": 5126,
      "count": 30,
      "min": [
        -1,
        -1,
        0
      ],
      "max": [
        1,
        1,
        0
      ],
      "type": "VEC3",
      "bufferView": 1,
      "byteOffset": 672
    },
    {
      "name": "Box006_1_1_texcoords",
      "componentType": 5126,
      "count": 30,
      "min": [
        0,
        0
      ],
      "max": [
        6.019100189208984,
        1
      ],
      "type": "VEC2",
      "bufferView": 2,
      "byteOffset": 448
    },
    {
      "name": "Box006_1_1_indices",
      "componentType": 5123,
      "count": 48,
      "min": [
        0
      ],
      "max": [
        29
      ],
      "type": "SCALAR",
      "bufferView": 3,
      "byteOffset": 216
    }
  ],
  "asset": {
    "generator": "obj2gltf",
    "version": "2.0"
  },
  "buffers": [
    {
      "name": "2_jz02",
      "byteLength": 3064,
      "uri": "data:application/octet-stream;base64,"
    }
  ],
  "bufferViews": [
    {
      "name": "bufferView_0",
      "buffer": 0,
      "byteLength": 1032,
      "byteOffset": 0,
      "byteStride": 12,
      "target": 34962
    },
    {
      "name": "bufferView_1",
      "buffer": 0,
      "byteLength": 1032,
      "byteOffset": 1032,
      "byteStride": 12,
      "target": 34962
    },
    {
      "name": "bufferView_2",
      "buffer": 0,
      "byteLength": 688,
      "byteOffset": 2064,
      "byteStride": 8,
      "target": 34962
    },
    {
      "name": "bufferView_3",
      "buffer": 0,
      "byteLength": 312,
      "byteOffset": 2752,
      "target": 34963
    }
  ],
  "images": [
    {
      "name": "SGY_Q1_010",
      "uri": "SGY_Q1_010.jpg"
    },
    {
      "name": "SGY_Q1_024",
      "uri": "SGY_Q1_024.jpg"
    }
  ],
  "materials": [
    {
      "name": "Material__37",
      "pbrMetallicRoughness": {
        "baseColorTexture": {
          "index": 0
        },
        "baseColorFactor": [
          1,
          1,
          1,
          1
        ],
        "metallicFactor": 0,
        "roughnessFactor": 0.99
      },
      "emissiveFactor": [
        0,
        0,
        0
      ],
      "alphaMode": "OPAQUE",
      "doubleSided": false
    },
    {
      "name": "Material__25",
      "pbrMetallicRoughness": {
        "baseColorTexture": {
          "index": 1
        },
        "baseColorFactor": [
          1,
          1,
          1,
          1
        ],
        "metallicFactor": 0,
        "roughnessFactor": 0.99
      },
      "emissiveFactor": [
        0,
        0,
        0
      ],
      "alphaMode": "OPAQUE",
      "doubleSided": false
    }
  ],
  "meshes": [
    {
      "name": "Box006_1",
      "primitives": [
        {
          "attributes": {
            "POSITION": 0,
            "NORMAL": 1,
            "TEXCOORD_0": 2
          },
          "indices": 3,
          "material": 0,
          "mode": 4
        },
        {
          "attributes": {
            "POSITION": 4,
            "NORMAL": 5,
            "TEXCOORD_0": 6
          },
          "indices": 7,
          "material": 1,
          "mode": 4
        }
      ]
    }
  ],
  "nodes": [
    {
      "name": "Box006",
      "mesh": 0
    }
  ],
  "samplers": [
    {
      "wrapS": 10497,
      "wrapT": 10497
    }
  ],
  "scene": 0,
  "scenes": [
    {
      "nodes": [
        0
      ]
    }
  ],
  "textures": [
    {
      "name": "SGY_Q1_010",
      "sampler": 0,
      "source": 0
    },
    {
      "name": "SGY_Q1_024",
      "sampler": 0,
      "source": 1
    }
  ]
}
