{"asset":{"version":"2.0","generator":"babylon.js glTF exporter for 3dsmax 2022 v20240125.3"},"scene":0,"scenes":[{"nodes":[0]}],"nodes":[{"mesh":0,"name":"Box011"}],"meshes":[{"primitives":[{"attributes":{"POSITION":1,"NORMAL":2,"TEXCOORD_0":3},"indices":0,"material":0},{"attributes":{"POSITION":5,"NORMAL":6,"TEXCOORD_0":7},"indices":4,"material":1},{"attributes":{"POSITION":9,"NORMAL":10,"TEXCOORD_0":11},"indices":8,"material":2},{"attributes":{"POSITION":13,"NORMAL":14,"TEXCOORD_0":15},"indices":12,"material":3},{"attributes":{"POSITION":17,"NORMAL":18,"TEXCOORD_0":19},"indices":16,"material":4}],"name":"Box011"}],"accessors":[{"bufferView":0,"componentType":5123,"count":126,"type":"SCALAR","name":"accessorIndices"},{"bufferView":1,"componentType":5126,"count":96,"max":[23.6893349,15.4836731,22.440464],"min":[-23.6892471,-15.4836388,2.25963458E-06],"type":"VEC3","name":"accessorPositions"},{"bufferView":1,"byteOffset":1152,"componentType":5126,"count":96,"type":"VEC3","name":"accessorNormals"},{"bufferView":2,"componentType":5126,"count":96,"type":"VEC2","name":"accessorUVs"},{"bufferView":0,"byteOffset":252,"componentType":5123,"count":48,"type":"SCALAR","name":"accessorIndices"},{"bufferView":1,"byteOffset":2304,"componentType":5126,"count":34,"max":[23.6893349,15.4836731,22.440464],"min":[-23.6892471,-15.4836388,2.25963458E-06],"type":"VEC3","name":"accessorPositions"},{"bufferView":1,"byteOffset":2712,"componentType":5126,"count":34,"type":"VEC3","name":"accessorNormals"},{"bufferView":2,"byteOffset":768,"componentType":5126,"count":34,"type":"VEC2","name":"accessorUVs"},{"bufferView":0,"byteOffset":348,"componentType":5123,"count":630,"type":"SCALAR","name":"accessorIndices"},{"bufferView":1,"byteOffset":3120,"componentType":5126,"count":370,"max":[15.2526,15.4836731,19.3898582],"min":[-1.34075356,-15.4835548,4.62467642E-06],"type":"VEC3","name":"accessorPositions"},{"bufferView":1,"byteOffset":7560,"componentType":5126,"count":370,"type":"VEC3","name":"accessorNormals"},{"bufferView":2,"byteOffset":1040,"componentType":5126,"count":370,"type":"VEC2","name":"accessorUVs"},{"bufferView":0,"byteOffset":1608,"componentType":5123,"count":36,"type":"SCALAR","name":"accessorIndices"},{"bufferView":1,"byteOffset":12000,"componentType":5126,"count":26,"max":[15.2526,13.9836426,17.9170361],"min":[-1.34075212,-13.9836464,5.91272828E-06],"type":"VEC3","name":"accessorPositions"},{"bufferView":1,"byteOffset":12312,"componentType":5126,"count":26,"type":"VEC3","name":"accessorNormals"},{"bufferView":2,"byteOffset":4000,"componentType":5126,"count":26,"type":"VEC2","name":"accessorUVs"},{"bufferView":0,"byteOffset":1680,"componentType":5123,"count":24,"type":"SCALAR","name":"accessorIndices"},{"bufferView":1,"byteOffset":12624,"componentType":5126,"count":24,"max":[21.1571636,13.98365,20.8582535],"min":[-21.1570339,-13.9836388,2.48100832E-06],"type":"VEC3","name":"accessorPositions"},{"bufferView":1,"byteOffset":12912,"componentType":5126,"count":24,"type":"VEC3","name":"accessorNormals"},{"bufferView":2,"byteOffset":4208,"componentType":5126,"count":24,"type":"VEC2","name":"accessorUVs"}],"bufferViews":[{"buffer":0,"byteLength":1728,"name":"bufferViewScalar"},{"buffer":0,"byteOffset":1728,"byteLength":13200,"byteStride":12,"name":"bufferViewFloatVec3"},{"buffer":0,"byteOffset":14928,"byteLength":4400,"byteStride":8,"name":"bufferViewFloatVec2"}],"buffers":[{"uri":"sgyh6.bin","byteLength":19328}],"materials":[{"pbrMetallicRoughness":{"baseColorTexture":{"index":0},"metallicFactor":0.0,"roughnessFactor":0.450053632},"name":"Material #44870"},{"pbrMetallicRoughness":{"baseColorTexture":{"index":1},"metallicFactor":0.0,"roughnessFactor":0.450053632},"name":"Material #45040"},{"pbrMetallicRoughness":{"baseColorTexture":{"index":2},"metallicFactor":0.0,"roughnessFactor":0.450053632},"name":"Material #44386"},{"pbrMetallicRoughness":{"baseColorTexture":{"index":3},"metallicFactor":0.0,"roughnessFactor":0.450053632},"name":"Material #44894"},{"pbrMetallicRoughness":{"baseColorTexture":{"index":4},"metallicFactor":0.0,"roughnessFactor":0.450053632},"name":"Material #44939"}],"textures":[{"sampler":0,"source":0,"name":"xgy_x_016.jpg"},{"sampler":0,"source":1,"name":"xgy_x_019.jpg"},{"sampler":0,"source":2,"name":"sgy_3q_39.jpg"},{"sampler":0,"source":3,"name":"xgy_x_017.jpg"},{"sampler":0,"source":4,"name":"xgy_x_018.jpg"}],"images":[{"uri":"xgy_x_016.jpg"},{"uri":"xgy_x_019.jpg"},{"uri":"sgy_3q_39.jpg"},{"uri":"xgy_x_017.jpg"},{"uri":"xgy_x_018.jpg"}],"samplers":[{"magFilter":9729,"minFilter":9987}]}