{
  "accessors": [
    {
      "name": "Box042_1_0_positions",
      "componentType": 5126,
      "count": 11318,
      "min": [
        -59.39569854736328,
        -74.81999969482422,
        7.058599948883057
      ],
      "max": [
        58.08919906616211,
        74.68160247802734,
        41.769500732421875
      ],
      "type": "VEC3",
      "bufferView": 0,
      "byteOffset": 0
    },
    {
      "name": "Box042_1_0_normals",
      "componentType": 5126,
      "count": 11318,
      "min": [
        -1,
        -1,
        -1
      ],
      "max": [
        1,
        1,
        1
      ],
      "type": "VEC3",
      "bufferView": 1,
      "byteOffset": 0
    },
    {
      "name": "Box042_1_0_texcoords",
      "componentType": 5126,
      "count": 11318,
      "min": [
        -37310.9140625,
        -21.259700775146484
      ],
      "max": [
        13.007800102233887,
        7.020599842071533
      ],
      "type": "VEC2",
      "bufferView": 2,
      "byteOffset": 0
    },
    {
      "name": "Box042_1_0_indices",
      "componentType": 5123,
      "count": 28482,
      "min": [
        0
      ],
      "max": [
        11317
      ],
      "type": "SCALAR",
      "bufferView": 3,
      "byteOffset": 0
    },
    {
      "name": "Box042_1_1_positions",
      "componentType": 5126,
      "count": 152,
      "min": [
        25.47599983215332,
        -85.16179656982422,
        7.058599948883057
      ],
      "max": [
        59.39569854736328,
        85.16179656982422,
        38.03620147705078
      ],
      "type": "VEC3",
      "bufferView": 0,
      "byteOffset": 135816
    },
    {
      "name": "Box042_1_1_normals",
      "componentType": 5126,
      "count": 152,
      "min": [
        -1,
        -1,
        -1
      ],
      "max": [
        1,
        1,
        1
      ],
      "type": "VEC3",
      "bufferView": 1,
      "byteOffset": 135816
    },
    {
      "name": "Box042_1_1_texcoords",
      "componentType": 5126,
      "count": 152,
      "min": [
        -8.338399887084961,
        -8.028499603271484
      ],
      "max": [
        9.338399887084961,
        9.338399887084961
      ],
      "type": "VEC2",
      "bufferView": 2,
      "byteOffset": 90544
    },
    {
      "name": "Box042_1_1_indices",
      "componentType": 5123,
      "count": 267,
      "min": [
        0
      ],
      "max": [
        151
      ],
      "type": "SCALAR",
      "bufferView": 3,
      "byteOffset": 56964
    },
    {
      "name": "Box042_1_2_positions",
      "componentType": 5126,
      "count": 20,
      "min": [
        25.47599983215332,
        -60.95970153808594,
        0
      ],
      "max": [
        52.24319839477539,
        68.16179656982422,
        7.058599948883057
      ],
      "type": "VEC3",
      "bufferView": 0,
      "byteOffset": 137640
    },
    {
      "name": "Box042_1_2_normals",
      "componentType": 5126,
      "count": 20,
      "min": [
        -1,
        -1,
        0
      ],
      "max": [
        1,
        1,
        0
      ],
      "type": "VEC3",
      "bufferView": 1,
      "byteOffset": 137640
    },
    {
      "name": "Box042_1_2_texcoords",
      "componentType": 5126,
      "count": 20,
      "min": [
        -9.530699729919434,
        0
      ],
      "max": [
        10.530699729919434,
        1
      ],
      "type": "VEC2",
      "bufferView": 2,
      "byteOffset": 91760
    },
    {
      "name": "Box042_1_2_indices",
      "componentType": 5123,
      "count": 30,
      "min": [
        0
      ],
      "max": [
        19
      ],
      "type": "SCALAR",
      "bufferView": 3,
      "byteOffset": 57500
    },
    {
      "name": "Box042_1_3_positions",
      "componentType": 5126,
      "count": 336,
      "min": [
        25.075599670410156,
        -68.91840362548828,
        0
      ],
      "max": [
        57.268001556396484,
        -67.40630340576172,
        27.46139907836914
      ],
      "type": "VEC3",
      "bufferView": 0,
      "byteOffset": 137880
    },
    {
      "name": "Box042_1_3_normals",
      "componentType": 5126,
      "count": 336,
      "min": [
        -1,
        -1,
        -1
      ],
      "max": [
        1,
        1,
        1
      ],
      "type": "VEC3",
      "bufferView": 1,
      "byteOffset": 137880
    },
    {
      "name": "Box042_1_3_texcoords",
      "componentType": 5126,
      "count": 336,
      "min": [
        -0.6672000288963318,
        0
      ],
      "max": [
        1.667199969291687,
        1
      ],
      "type": "VEC2",
      "bufferView": 2,
      "byteOffset": 91920
    },
    {
      "name": "Box042_1_3_indices",
      "componentType": 5123,
      "count": 504,
      "min": [
        0
      ],
      "max": [
        335
      ],
      "type": "SCALAR",
      "bufferView": 3,
      "byteOffset": 57560
    },
    {
      "name": "Box042_1_4_positions",
      "componentType": 5126,
      "count": 51,
      "min": [
        -58.25899887084961,
        -73.68329620361328,
        33.40909957885742
      ],
      "max": [
        21.85890007019043,
        73.5448989868164,
        38.17720031738281
      ],
      "type": "VEC3",
      "bufferView": 0,
      "byteOffset": 141912
    },
    {
      "name": "Box042_1_4_normals",
      "componentType": 5126,
      "count": 51,
      "min": [
        -0.0025999911595135927,
        -0.004499954637140036,
        0.9999898672103882
      ],
      "max": [
        0,
        0.0008999980054795742,
        1
      ],
      "type": "VEC3",
      "bufferView": 1,
      "byteOffset": 141912
    },
    {
      "name": "Box042_1_4_texcoords",
      "componentType": 5126,
      "count": 51,
      "min": [
        0,
        -4.275199890136719
      ],
      "max": [
        1,
        5.275199890136719
      ],
      "type": "VEC2",
      "bufferView": 2,
      "byteOffset": 94608
    },
    {
      "name": "Box042_1_4_indices",
      "componentType": 5123,
      "count": 87,
      "min": [
        0
      ],
      "max": [
        50
      ],
      "type": "SCALAR",
      "bufferView": 3,
      "byteOffset": 58568
    },
    {
      "name": "Box042_1_5_positions",
      "componentType": 5126,
      "count": 884,
      "min": [
        -59.395198822021484,
        -74.81950378417969,
        0
      ],
      "max": [
        22.940500259399414,
        74.68109893798828,
        40.1531982421875
      ],
      "type": "VEC3",
      "bufferView": 0,
      "byteOffset": 142524
    },
    {
      "name": "Box042_1_5_normals",
      "componentType": 5126,
      "count": 884,
      "min": [
        -1,
        -1,
        -1
      ],
      "max": [
        1,
        1,
        1
      ],
      "type": "VEC3",
      "bufferView": 1,
      "byteOffset": 142524
    },
    {
      "name": "Box042_1_5_texcoords",
      "componentType": 5126,
      "count": 884,
      "min": [
        -2.717099905014038,
        -2.766700029373169
      ],
      "max": [
        3.907599925994873,
        3.766700029373169
      ],
      "type": "VEC2",
      "bufferView": 2,
      "byteOffset": 95016
    },
    {
      "name": "Box042_1_5_indices",
      "componentType": 5123,
      "count": 1623,
      "min": [
        0
      ],
      "max": [
        883
      ],
      "type": "SCALAR",
      "bufferView": 3,
      "byteOffset": 58744
    },
    {
      "name": "Box042_1_6_positions",
      "componentType": 5126,
      "count": 8,
      "min": [
        -3.469899892807007,
        45.25310134887695,
        12.74839973449707
      ],
      "max": [
        12.32390022277832,
        70.21510314941406,
        32.401798248291016
      ],
      "type": "VEC3",
      "bufferView": 0,
      "byteOffset": 153132
    },
    {
      "name": "Box042_1_6_normals",
      "componentType": 5126,
      "count": 8,
      "min": [
        -1,
        0,
        0
      ],
      "max": [
        0,
        1,
        0
      ],
      "type": "VEC3",
      "bufferView": 1,
      "byteOffset": 153132
    },
    {
      "name": "Box042_1_6_texcoords",
      "componentType": 5126,
      "count": 8,
      "min": [
        -0.5440999865531921,
        0
      ],
      "max": [
        1,
        1
      ],
      "type": "VEC2",
      "bufferView": 2,
      "byteOffset": 102088
    },
    {
      "name": "Box042_1_6_indices",
      "componentType": 5123,
      "count": 12,
      "min": [
        0
      ],
      "max": [
        7
      ],
      "type": "SCALAR",
      "bufferView": 3,
      "byteOffset": 61992
    },
    {
      "name": "Box042_1_7_positions",
      "componentType": 5126,
      "count": 112,
      "min": [
        -57.76620101928711,
        -74.71610260009766,
        7.542200088500977
      ],
      "max": [
        22.940500259399414,
        74.68109893798828,
        38.10770034790039
      ],
      "type": "VEC3",
      "bufferView": 0,
      "byteOffset": 153228
    },
    {
      "name": "Box042_1_7_normals",
      "componentType": 5126,
      "count": 112,
      "min": [
        -1,
        -1,
        -0.02370036020874977
      ],
      "max": [
        0.029698597267270088,
        1,
        0.004899909254163504
      ],
      "type": "VEC3",
      "bufferView": 1,
      "byteOffset": 153228
    },
    {
      "name": "Box042_1_7_texcoords",
      "componentType": 5126,
      "count": 112,
      "min": [
        -3.1073999404907227,
        -6.924600124359131
      ],
      "max": [
        3.6196999549865723,
        7.924600124359131
      ],
      "type": "VEC2",
      "bufferView": 2,
      "byteOffset": 102152
    },
    {
      "name": "Box042_1_7_indices",
      "componentType": 5123,
      "count": 168,
      "min": [
        0
      ],
      "max": [
        111
      ],
      "type": "SCALAR",
      "bufferView": 3,
      "byteOffset": 62016
    },
    {
      "name": "Box042_1_8_positions",
      "componentType": 5126,
      "count": 112,
      "min": [
        -59.395198822021484,
        -74.81950378417969,
        0
      ],
      "max": [
        -23.127300262451172,
        74.68109893798828,
        40.1531982421875
      ],
      "type": "VEC3",
      "bufferView": 0,
      "byteOffset": 154572
    },
    {
      "name": "Box042_1_8_normals",
      "componentType": 5126,
      "count": 112,
      "min": [
        -1,
        -1,
        0
      ],
      "max": [
        1,
        1,
        0
      ],
      "type": "VEC3",
      "bufferView": 1,
      "byteOffset": 154572
    },
    {
      "name": "Box042_1_8_texcoords",
      "componentType": 5126,
      "count": 112,
      "min": [
        0,
        -0.20469999313354492
      ],
      "max": [
        1,
        1.7192000150680542
      ],
      "type": "VEC2",
      "bufferView": 2,
      "byteOffset": 103048
    },
    {
      "name": "Box042_1_8_indices",
      "componentType": 5123,
      "count": 168,
      "min": [
        0
      ],
      "max": [
        111
      ],
      "type": "SCALAR",
      "bufferView": 3,
      "byteOffset": 62352
    },
    {
      "name": "Box042_1_9_positions",
      "componentType": 5126,
      "count": 4,
      "min": [
        17.919099807739258,
        68.285400390625,
        15.796699523925781
      ],
      "max": [
        21.892499923706055,
        68.285400390625,
        32.8406982421875
      ],
      "type": "VEC3",
      "bufferView": 0,
      "byteOffset": 155916
    },
    {
      "name": "Box042_1_9_normals",
      "componentType": 5126,
      "count": 4,
      "min": [
        0,
        1,
        0
      ],
      "max": [
        0,
        1,
        0
      ],
      "type": "VEC3",
      "bufferView": 1,
      "byteOffset": 155916
    },
    {
      "name": "Box042_1_9_texcoords",
      "componentType": 5126,
      "count": 4,
      "min": [
        0,
        0
      ],
      "max": [
        1,
        1
      ],
      "type": "VEC2",
      "bufferView": 2,
      "byteOffset": 103944
    },
    {
      "name": "Box042_1_9_indices",
      "componentType": 5123,
      "count": 6,
      "min": [
        0
      ],
      "max": [
        3
      ],
      "type": "SCALAR",
      "bufferView": 3,
      "byteOffset": 62688
    }
  ],
  "asset": {
    "generator": "obj2gltf",
    "version": "2.0"
  },
  "buffers": [
    {
      "name": "3_jz18",
      "byteLength": 478604,
      "uri": "data:application/octet-stream;base64,"
    }
  ],
  "bufferViews": [
    {
      "name": "bufferView_0",
      "buffer": 0,
      "byteLength": 155964,
      "byteOffset": 0,
      "byteStride": 12,
      "target": 34962
    },
    {
      "name": "bufferView_1",
      "buffer": 0,
      "byteLength": 155964,
      "byteOffset": 155964,
      "byteStride": 12,
      "target": 34962
    },
    {
      "name": "bufferView_2",
      "buffer": 0,
      "byteLength": 103976,
      "byteOffset": 311928,
      "byteStride": 8,
      "target": 34962
    },
    {
      "name": "bufferView_3",
      "buffer": 0,
      "byteLength": 62700,
      "byteOffset": 415904,
      "target": 34963
    }
  ],
  "images": [
    {
      "name": "sgy_2q_09",
      "uri": "sgy_2q_09.jpg"
    },
    {
      "name": "sgy_3q_43",
      "uri": "sgy_3q_43.jpg"
    },
    {
      "name": "sgy_1q_19",
      "uri": "sgy_1q_19.jpg"
    },
    {
      "name": "sgy_1q_09",
      "uri": "sgy_1q_09.jpg"
    },
    {
      "name": "SGY_Q1_016",
      "uri": "SGY_Q1_016.jpg"
    },
    {
      "name": "sgy_3q_51",
      "uri": "sgy_3q_51.jpg"
    },
    {
      "name": "sgy_3q_52",
      "uri": "sgy_3q_52.jpg"
    },
    {
      "name": "sgy_2q_02",
      "uri": "sgy_2q_02.jpg"
    },
    {
      "name": "sgy_3q_50",
      "uri": "sgy_3q_50.jpg"
    },
    {
      "name": "sgy_3q_54",
      "uri": "sgy_3q_54.png"
    }
  ],
  "materials": [
    {
      "name": "Material__6115",
      "pbrMetallicRoughness": {
        "baseColorTexture": {
          "index": 0
        },
        "baseColorFactor": [
          1,
          1,
          1,
          1
        ],
        "metallicFactor": 0,
        "roughnessFactor": 0.99
      },
      "emissiveFactor": [
        0,
        0,
        0
      ],
      "alphaMode": "OPAQUE",
      "doubleSided": false
    },
    {
      "name": "Material__6114",
      "pbrMetallicRoughness": {
        "baseColorTexture": {
          "index": 1
        },
        "baseColorFactor": [
          1,
          1,
          1,
          1
        ],
        "metallicFactor": 0,
        "roughnessFactor": 0.99
      },
      "emissiveFactor": [
        0,
        0,
        0
      ],
      "alphaMode": "OPAQUE",
      "doubleSided": false
    },
    {
      "name": "Material__6117",
      "pbrMetallicRoughness": {
        "baseColorTexture": {
          "index": 2
        },
        "baseColorFactor": [
          1,
          1,
          1,
          1
        ],
        "metallicFactor": 0,
        "roughnessFactor": 0.99
      },
      "emissiveFactor": [
        0,
        0,
        0
      ],
      "alphaMode": "OPAQUE",
      "doubleSided": false
    },
    {
      "name": "Material__6222",
      "pbrMetallicRoughness": {
        "baseColorTexture": {
          "index": 3
        },
        "baseColorFactor": [
          1,
          1,
          1,
          1
        ],
        "metallicFactor": 0,
        "roughnessFactor": 0.99
      },
      "emissiveFactor": [
        0,
        0,
        0
      ],
      "alphaMode": "OPAQUE",
      "doubleSided": false
    },
    {
      "name": "Material__6380",
      "pbrMetallicRoughness": {
        "baseColorTexture": {
          "index": 4
        },
        "baseColorFactor": [
          1,
          1,
          1,
          1
        ],
        "metallicFactor": 0,
        "roughnessFactor": 0.99
      },
      "emissiveFactor": [
        0,
        0,
        0
      ],
      "alphaMode": "OPAQUE",
      "doubleSided": false
    },
    {
      "name": "Material__6111",
      "pbrMetallicRoughness": {
        "baseColorTexture": {
          "index": 5
        },
        "baseColorFactor": [
          1,
          1,
          1,
          1
        ],
        "metallicFactor": 0,
        "roughnessFactor": 0.99
      },
      "emissiveFactor": [
        0,
        0,
        0
      ],
      "alphaMode": "OPAQUE",
      "doubleSided": false
    },
    {
      "name": "Material__6112",
      "pbrMetallicRoughness": {
        "baseColorTexture": {
          "index": 6
        },
        "baseColorFactor": [
          1,
          1,
          1,
          1
        ],
        "metallicFactor": 0,
        "roughnessFactor": 0.99
      },
      "emissiveFactor": [
        0,
        0,
        0
      ],
      "alphaMode": "OPAQUE",
      "doubleSided": false
    },
    {
      "name": "Material__6116",
      "pbrMetallicRoughness": {
        "baseColorTexture": {
          "index": 7
        },
        "baseColorFactor": [
          1,
          1,
          1,
          1
        ],
        "metallicFactor": 0,
        "roughnessFactor": 0.99
      },
      "emissiveFactor": [
        0,
        0,
        0
      ],
      "alphaMode": "OPAQUE",
      "doubleSided": false
    },
    {
      "name": "Material__6110",
      "pbrMetallicRoughness": {
        "baseColorTexture": {
          "index": 8
        },
        "baseColorFactor": [
          1,
          1,
          1,
          1
        ],
        "metallicFactor": 0,
        "roughnessFactor": 0.99
      },
      "emissiveFactor": [
        0,
        0,
        0
      ],
      "alphaMode": "OPAQUE",
      "doubleSided": false
    },
    {
      "name": "Material__6113",
      "pbrMetallicRoughness": {
        "baseColorTexture": {
          "index": 9
        },
        "baseColorFactor": [
          1,
          1,
          1,
          1
        ],
        "metallicFactor": 0,
        "roughnessFactor": 0.99
      },
      "emissiveFactor": [
        0,
        0,
        0
      ],
      "alphaMode": "BLEND",
      "doubleSided": true
    }
  ],
  "meshes": [
    {
      "name": "Box042_1",
      "primitives": [
        {
          "attributes": {
            "POSITION": 0,
            "NORMAL": 1,
            "TEXCOORD_0": 2
          },
          "indices": 3,
          "material": 0,
          "mode": 4
        },
        {
          "attributes": {
            "POSITION": 4,
            "NORMAL": 5,
            "TEXCOORD_0": 6
          },
          "indices": 7,
          "material": 1,
          "mode": 4
        },
        {
          "attributes": {
            "POSITION": 8,
            "NORMAL": 9,
            "TEXCOORD_0": 10
          },
          "indices": 11,
          "material": 2,
          "mode": 4
        },
        {
          "attributes": {
            "POSITION": 12,
            "NORMAL": 13,
            "TEXCOORD_0": 14
          },
          "indices": 15,
          "material": 3,
          "mode": 4
        },
        {
          "attributes": {
            "POSITION": 16,
            "NORMAL": 17,
            "TEXCOORD_0": 18
          },
          "indices": 19,
          "material": 4,
          "mode": 4
        },
        {
          "attributes": {
            "POSITION": 20,
            "NORMAL": 21,
            "TEXCOORD_0": 22
          },
          "indices": 23,
          "material": 5,
          "mode": 4
        },
        {
          "attributes": {
            "POSITION": 24,
            "NORMAL": 25,
            "TEXCOORD_0": 26
          },
          "indices": 27,
          "material": 6,
          "mode": 4
        },
        {
          "attributes": {
            "POSITION": 28,
            "NORMAL": 29,
            "TEXCOORD_0": 30
          },
          "indices": 31,
          "material": 7,
          "mode": 4
        },
        {
          "attributes": {
            "POSITION": 32,
            "NORMAL": 33,
            "TEXCOORD_0": 34
          },
          "indices": 35,
          "material": 8,
          "mode": 4
        },
        {
          "attributes": {
            "POSITION": 36,
            "NORMAL": 37,
            "TEXCOORD_0": 38
          },
          "indices": 39,
          "material": 9,
          "mode": 4
        }
      ]
    }
  ],
  "nodes": [
    {
      "name": "Box042",
      "mesh": 0
    }
  ],
  "samplers": [
    {
      "wrapS": 10497,
      "wrapT": 10497
    }
  ],
  "scene": 0,
  "scenes": [
    {
      "nodes": [
        0
      ]
    }
  ],
  "textures": [
    {
      "name": "sgy_2q_09",
      "sampler": 0,
      "source": 0
    },
    {
      "name": "sgy_3q_43",
      "sampler": 0,
      "source": 1
    },
    {
      "name": "sgy_1q_19",
      "sampler": 0,
      "source": 2
    },
    {
      "name": "sgy_1q_09",
      "sampler": 0,
      "source": 3
    },
    {
      "name": "SGY_Q1_016",
      "sampler": 0,
      "source": 4
    },
    {
      "name": "sgy_3q_51",
      "sampler": 0,
      "source": 5
    },
    {
      "name": "sgy_3q_52",
      "sampler": 0,
      "source": 6
    },
    {
      "name": "sgy_2q_02",
      "sampler": 0,
      "source": 7
    },
    {
      "name": "sgy_3q_50",
      "sampler": 0,
      "source": 8
    },
    {
      "name": "sgy_3q_54",
      "sampler": 0,
      "source": 9
    }
  ]
}
