{
  "accessors": [
    {
      "name": "Object001_1_0_positions",
      "componentType": 5126,
      "count": 6060,
      "min": [
        -10.771699905395508,
        -9.083399772644043,
        0
      ],
      "max": [
        7.406700134277344,
        9.095800399780273,
        36.0547981262207
      ],
      "type": "VEC3",
      "bufferView": 0,
      "byteOffset": 0
    },
    {
      "name": "Object001_1_0_normals",
      "componentType": 5126,
      "count": 6060,
      "min": [
        -1,
        -1,
        -1
      ],
      "max": [
        1,
        1,
        1
      ],
      "type": "VEC3",
      "bufferView": 1,
      "byteOffset": 0
    },
    {
      "name": "Object001_1_0_texcoords",
      "componentType": 5126,
      "count": 6060,
      "min": [
        0,
        -0.13289999961853027
      ],
      "max": [
        1,
        1.1328999996185303
      ],
      "type": "VEC2",
      "bufferView": 2,
      "byteOffset": 0
    },
    {
      "name": "Object001_1_0_indices",
      "componentType": 5123,
      "count": 13980,
      "min": [
        0
      ],
      "max": [
        6059
      ],
      "type": "SCALAR",
      "bufferView": 3,
      "byteOffset": 0
    },
    {
      "name": "Object001_1_1_positions",
      "componentType": 5126,
      "count": 1351,
      "min": [
        -16.233699798583984,
        -14.505599975585938,
        23.538400650024414
      ],
      "max": [
        16.233699798583984,
        14.505599975585938,
        76.635498046875
      ],
      "type": "VEC3",
      "bufferView": 0,
      "byteOffset": 72720
    },
    {
      "name": "Object001_1_1_normals",
      "componentType": 5126,
      "count": 1351,
      "min": [
        -1,
        -1,
        -1
      ],
      "max": [
        1,
        1,
        1
      ],
      "type": "VEC3",
      "bufferView": 1,
      "byteOffset": 72720
    },
    {
      "name": "Object001_1_1_texcoords",
      "componentType": 5126,
      "count": 1351,
      "min": [
        0,
        0
      ],
      "max": [
        1,
        1
      ],
      "type": "VEC2",
      "bufferView": 2,
      "byteOffset": 48480
    },
    {
      "name": "Object001_1_1_indices",
      "componentType": 5123,
      "count": 4440,
      "min": [
        0
      ],
      "max": [
        1350
      ],
      "type": "SCALAR",
      "bufferView": 3,
      "byteOffset": 27960
    },
    {
      "name": "Object001_1_2_positions",
      "componentType": 5126,
      "count": 188,
      "min": [
        -15.313599586486816,
        -13.58549976348877,
        9.606300354003906
      ],
      "max": [
        15.094400405883789,
        13.585599899291992,
        69.75789642333984
      ],
      "type": "VEC3",
      "bufferView": 0,
      "byteOffset": 88932
    },
    {
      "name": "Object001_1_2_normals",
      "componentType": 5126,
      "count": 188,
      "min": [
        -1,
        -1,
        0
      ],
      "max": [
        1,
        1,
        0
      ],
      "type": "VEC3",
      "bufferView": 1,
      "byteOffset": 88932
    },
    {
      "name": "Object001_1_2_texcoords",
      "componentType": 5126,
      "count": 188,
      "min": [
        -8.69849967956543,
        0
      ],
      "max": [
        8.520999908447266,
        1
      ],
      "type": "VEC2",
      "bufferView": 2,
      "byteOffset": 59288
    },
    {
      "name": "Object001_1_2_indices",
      "componentType": 5123,
      "count": 420,
      "min": [
        0
      ],
      "max": [
        187
      ],
      "type": "SCALAR",
      "bufferView": 3,
      "byteOffset": 36840
    },
    {
      "name": "Object001_1_3_positions",
      "componentType": 5126,
      "count": 32,
      "min": [
        -9.228300094604492,
        -7.49970006942749,
        0
      ],
      "max": [
        5.771699905395508,
        7.50029993057251,
        13.64169979095459
      ],
      "type": "VEC3",
      "bufferView": 0,
      "byteOffset": 91188
    },
    {
      "name": "Object001_1_3_normals",
      "componentType": 5126,
      "count": 32,
      "min": [
        -1,
        -1,
        0
      ],
      "max": [
        1,
        1,
        0
      ],
      "type": "VEC3",
      "bufferView": 1,
      "byteOffset": 91188
    },
    {
      "name": "Object001_1_3_texcoords",
      "componentType": 5126,
      "count": 32,
      "min": [
        -2.0136001110076904,
        0
      ],
      "max": [
        3.0136001110076904,
        1
      ],
      "type": "VEC2",
      "bufferView": 2,
      "byteOffset": 60792
    },
    {
      "name": "Object001_1_3_indices",
      "componentType": 5123,
      "count": 48,
      "min": [
        0
      ],
      "max": [
        31
      ],
      "type": "SCALAR",
      "bufferView": 3,
      "byteOffset": 37680
    },
    {
      "name": "Object001_1_4_positions",
      "componentType": 5126,
      "count": 16,
      "min": [
        -8.682999610900879,
        -6.954400062561035,
        5.2621002197265625
      ],
      "max": [
        5.226399898529053,
        6.954999923706055,
        8.608099937438965
      ],
      "type": "VEC3",
      "bufferView": 0,
      "byteOffset": 91572
    },
    {
      "name": "Object001_1_4_normals",
      "componentType": 5126,
      "count": 16,
      "min": [
        -1,
        -1,
        0
      ],
      "max": [
        1,
        1,
        0
      ],
      "type": "VEC3",
      "bufferView": 1,
      "byteOffset": 91572
    },
    {
      "name": "Object001_1_4_texcoords",
      "componentType": 5126,
      "count": 16,
      "min": [
        0,
        -0.3206999897956848
      ],
      "max": [
        1,
        1.0068000555038452
      ],
      "type": "VEC2",
      "bufferView": 2,
      "byteOffset": 61048
    },
    {
      "name": "Object001_1_4_indices",
      "componentType": 5123,
      "count": 24,
      "min": [
        0
      ],
      "max": [
        15
      ],
      "type": "SCALAR",
      "bufferView": 3,
      "byteOffset": 37776
    }
  ],
  "asset": {
    "generator": "obj2gltf",
    "version": "2.0"
  },
  "buffers": [
    {
      "name": "Q16",
      "byteLength": 282528,
      "uri": "data:application/octet-stream;base64,"
    }
  ],
  "bufferViews": [
    {
      "name": "bufferView_0",
      "buffer": 0,
      "byteLength": 91764,
      "byteOffset": 0,
      "byteStride": 12,
      "target": 34962
    },
    {
      "name": "bufferView_1",
      "buffer": 0,
      "byteLength": 91764,
      "byteOffset": 91764,
      "byteStride": 12,
      "target": 34962
    },
    {
      "name": "bufferView_2",
      "buffer": 0,
      "byteLength": 61176,
      "byteOffset": 183528,
      "byteStride": 8,
      "target": 34962
    },
    {
      "name": "bufferView_3",
      "buffer": 0,
      "byteLength": 37824,
      "byteOffset": 244704,
      "target": 34963
    }
  ],
  "images": [
    {
      "name": "SGY_Q5_016",
      "uri": "SGY_Q5_016.jpg"
    },
    {
      "name": "SGY_Q5_011",
      "uri": "SGY_Q5_011.jpg"
    },
    {
      "name": "SGY_Q5_002",
      "uri": "SGY_Q5_002.png"
    },
    {
      "name": "SGY_Q5_001",
      "uri": "SGY_Q5_001.png"
    },
    {
      "name": "SGY_Q5_018",
      "uri": "SGY_Q5_018.jpg"
    }
  ],
  "materials": [
    {
      "name": "Material__48",
      "pbrMetallicRoughness": {
        "baseColorTexture": {
          "index": 0
        },
        "baseColorFactor": [
          1,
          1,
          1,
          1
        ],
        "metallicFactor": 0,
        "roughnessFactor": 0.99
      },
      "emissiveFactor": [
        0,
        0,
        0
      ],
      "alphaMode": "OPAQUE",
      "doubleSided": false
    },
    {
      "name": "Material__47",
      "pbrMetallicRoughness": {
        "baseColorTexture": {
          "index": 1
        },
        "baseColorFactor": [
          1,
          1,
          1,
          1
        ],
        "metallicFactor": 0,
        "roughnessFactor": 0.99
      },
      "emissiveFactor": [
        0,
        0,
        0
      ],
      "alphaMode": "OPAQUE",
      "doubleSided": false
    },
    {
      "name": "Material__46",
      "pbrMetallicRoughness": {
        "baseColorTexture": {
          "index": 2
        },
        "baseColorFactor": [
          1,
          1,
          1,
          1
        ],
        "metallicFactor": 0,
        "roughnessFactor": 0.99
      },
      "emissiveFactor": [
        0,
        0,
        0
      ],
      "alphaMode": "BLEND",
      "doubleSided": true
    },
    {
      "name": "Material__60",
      "pbrMetallicRoughness": {
        "baseColorTexture": {
          "index": 3
        },
        "baseColorFactor": [
          1,
          1,
          1,
          1
        ],
        "metallicFactor": 0,
        "roughnessFactor": 0.99
      },
      "emissiveFactor": [
        0,
        0,
        0
      ],
      "alphaMode": "OPAQUE",
      "doubleSided": false
    },
    {
      "name": "Material__123",
      "pbrMetallicRoughness": {
        "baseColorTexture": {
          "index": 4
        },
        "baseColorFactor": [
          1,
          1,
          1,
          1
        ],
        "metallicFactor": 0,
        "roughnessFactor": 0.99
      },
      "emissiveFactor": [
        0,
        0,
        0
      ],
      "alphaMode": "OPAQUE",
      "doubleSided": false
    }
  ],
  "meshes": [
    {
      "name": "Object001_1",
      "primitives": [
        {
          "attributes": {
            "POSITION": 0,
            "NORMAL": 1,
            "TEXCOORD_0": 2
          },
          "indices": 3,
          "material": 0,
          "mode": 4
        },
        {
          "attributes": {
            "POSITION": 4,
            "NORMAL": 5,
            "TEXCOORD_0": 6
          },
          "indices": 7,
          "material": 1,
          "mode": 4
        },
        {
          "attributes": {
            "POSITION": 8,
            "NORMAL": 9,
            "TEXCOORD_0": 10
          },
          "indices": 11,
          "material": 2,
          "mode": 4
        },
        {
          "attributes": {
            "POSITION": 12,
            "NORMAL": 13,
            "TEXCOORD_0": 14
          },
          "indices": 15,
          "material": 3,
          "mode": 4
        },
        {
          "attributes": {
            "POSITION": 16,
            "NORMAL": 17,
            "TEXCOORD_0": 18
          },
          "indices": 19,
          "material": 4,
          "mode": 4
        }
      ]
    }
  ],
  "nodes": [
    {
      "name": "Object001",
      "mesh": 0
    }
  ],
  "samplers": [
    {
      "wrapS": 10497,
      "wrapT": 10497
    }
  ],
  "scene": 0,
  "scenes": [
    {
      "nodes": [
        0
      ]
    }
  ],
  "textures": [
    {
      "name": "SGY_Q5_016",
      "sampler": 0,
      "source": 0
    },
    {
      "name": "SGY_Q5_011",
      "sampler": 0,
      "source": 1
    },
    {
      "name": "SGY_Q5_002",
      "sampler": 0,
      "source": 2
    },
    {
      "name": "SGY_Q5_001",
      "sampler": 0,
      "source": 3
    },
    {
      "name": "SGY_Q5_018",
      "sampler": 0,
      "source": 4
    }
  ]
}
