{"asset":{"version":"2.0","generator":"babylon.js glTF exporter for 3dsmax 2022 v20240312.5"},"scene":0,"scenes":[{"nodes":[0]}],"nodes":[{"mesh":0,"name":"Box006"}],"meshes":[{"primitives":[{"attributes":{"POSITION":1,"NORMAL":2,"TEXCOORD_0":3},"indices":0,"material":0},{"attributes":{"POSITION":5,"NORMAL":6,"TEXCOORD_0":7},"indices":4,"material":1}],"name":"Box006"}],"accessors":[{"bufferView":0,"componentType":5123,"count":1638,"type":"SCALAR","name":"accessorIndices"},{"bufferView":1,"componentType":5126,"count":818,"max":[8.498687,6.070366,1.131222],"min":[-8.498687,-6.070366,-6.04933462E-07],"type":"VEC3","name":"accessorPositions"},{"bufferView":1,"byteOffset":9816,"componentType":5126,"count":818,"type":"VEC3","name":"accessorNormals"},{"bufferView":2,"componentType":5126,"count":818,"type":"VEC2","name":"accessorUVs"},{"bufferView":0,"byteOffset":3276,"componentType":5123,"count":78,"type":"SCALAR","name":"accessorIndices"},{"bufferView":1,"byteOffset":19632,"componentType":5126,"count":843,"max":[8.498687,6.070366,1.131222],"min":[-8.498687,-6.070366,-6.04933462E-07],"type":"VEC3","name":"accessorPositions"},{"bufferView":1,"byteOffset":29748,"componentType":5126,"count":843,"type":"VEC3","name":"accessorNormals"},{"bufferView":2,"byteOffset":6544,"componentType":5126,"count":843,"type":"VEC2","name":"accessorUVs"}],"bufferViews":[{"buffer":0,"byteLength":3432,"name":"bufferViewScalar"},{"buffer":0,"byteOffset":3432,"byteLength":39864,"byteStride":12,"name":"bufferViewFloatVec3"},{"buffer":0,"byteOffset":43296,"byteLength":13288,"byteStride":8,"name":"bufferViewFloatVec2"}],"buffers":[{"uri":"SGY_YYFZX01.bin","byteLength":56584}],"materials":[{"pbrMetallicRoughness":{"baseColorTexture":{"index":0},"metallicFactor":0.0,"roughnessFactor":0.450053632},"name":"Material #26"},{"pbrMetallicRoughness":{"baseColorTexture":{"index":1},"metallicFactor":0.0,"roughnessFactor":0.450053632},"name":"Material #39"}],"textures":[{"sampler":0,"source":0,"name":"sgy_1q_22.jpg"},{"sampler":0,"source":1,"name":"floor_024.jpg"}],"images":[{"uri":"sgy_1q_22.jpg"},{"uri":"floor_024.jpg"}],"samplers":[{"magFilter":9729,"minFilter":9987}]}