{"asset":{"version":"2.0","generator":"babylon.js glTF exporter for 3dsmax 2022 v20240125.3"},"scene":0,"scenes":[{"nodes":[0]}],"nodes":[{"mesh":0,"translation":[0.0,1.66986474E-13,0.0],"name":"Box001"}],"meshes":[{"primitives":[{"attributes":{"POSITION":1,"NORMAL":2,"TEXCOORD_0":3},"indices":0,"material":0},{"attributes":{"POSITION":5,"NORMAL":6,"TEXCOORD_0":7},"indices":4,"material":1},{"attributes":{"POSITION":9,"NORMAL":10,"TEXCOORD_0":11},"indices":8,"material":2},{"attributes":{"POSITION":13,"NORMAL":14,"TEXCOORD_0":15},"indices":12,"material":3},{"attributes":{"POSITION":17,"NORMAL":18,"TEXCOORD_0":19},"indices":16,"material":4},{"attributes":{"POSITION":21,"NORMAL":22,"TEXCOORD_0":23},"indices":20,"material":5},{"attributes":{"POSITION":25,"NORMAL":26,"TEXCOORD_0":27},"indices":24,"material":6},{"attributes":{"POSITION":29,"NORMAL":30,"TEXCOORD_0":31},"indices":28,"material":7},{"attributes":{"POSITION":33,"NORMAL":34,"TEXCOORD_0":35},"indices":32,"material":8}],"name":"Box001"}],"accessors":[{"bufferView":0,"componentType":5123,"count":60,"type":"SCALAR","name":"accessorIndices"},{"bufferView":1,"componentType":5126,"count":32,"max":[53.5927734,44.8385849,45.4544258],"min":[-47.2150421,-13.5848751,33.1394234],"type":"VEC3","name":"accessorPositions"},{"bufferView":1,"byteOffset":384,"componentType":5126,"count":32,"type":"VEC3","name":"accessorNormals"},{"bufferView":2,"componentType":5126,"count":32,"type":"VEC2","name":"accessorUVs"},{"bufferView":0,"byteOffset":120,"componentType":5123,"count":96,"type":"SCALAR","name":"accessorIndices"},{"bufferView":1,"byteOffset":768,"componentType":5126,"count":63,"max":[39.36923,38.3047142,48.7612267],"min":[-48.0424767,-27.5648918,33.13942],"type":"VEC3","name":"accessorPositions"},{"bufferView":1,"byteOffset":1524,"componentType":5126,"count":63,"type":"VEC3","name":"accessorNormals"},{"bufferView":2,"byteOffset":256,"componentType":5126,"count":63,"type":"VEC2","name":"accessorUVs"},{"bufferView":0,"byteOffset":312,"componentType":5123,"count":333,"type":"SCALAR","name":"accessorIndices"},{"bufferView":1,"byteOffset":2280,"componentType":5126,"count":198,"max":[39.3691559,45.6783,46.29108],"min":[-56.9713669,-27.5648918,-4.4908893E-06],"type":"VEC3","name":"accessorPositions"},{"bufferView":1,"byteOffset":4656,"componentType":5126,"count":198,"type":"VEC3","name":"accessorNormals"},{"bufferView":2,"byteOffset":760,"componentType":5126,"count":198,"type":"VEC2","name":"accessorUVs"},{"bufferView":0,"byteOffset":980,"componentType":5123,"count":1125,"type":"SCALAR","name":"accessorIndices"},{"bufferView":1,"byteOffset":7032,"componentType":5126,"count":511,"max":[55.64531,45.6783,42.87212],"min":[-56.9713669,-27.56489,-4.4908893E-06],"type":"VEC3","name":"accessorPositions"},{"bufferView":1,"byteOffset":13164,"componentType":5126,"count":511,"type":"VEC3","name":"accessorNormals"},{"bufferView":2,"byteOffset":2344,"componentType":5126,"count":511,"type":"VEC2","name":"accessorUVs"},{"bufferView":0,"byteOffset":3232,"componentType":5123,"count":42,"type":"SCALAR","name":"accessorIndices"},{"bufferView":1,"byteOffset":19296,"componentType":5126,"count":20,"max":[54.4965858,45.6783,33.1394348],"min":[39.3691368,45.6782951,7.44194E-06],"type":"VEC3","name":"accessorPositions"},{"bufferView":1,"byteOffset":19536,"componentType":5126,"count":20,"type":"VEC3","name":"accessorNormals"},{"bufferView":2,"byteOffset":6432,"componentType":5126,"count":20,"type":"VEC2","name":"accessorUVs"},{"bufferView":0,"byteOffset":3316,"componentType":5123,"count":87,"type":"SCALAR","name":"accessorIndices"},{"bufferView":1,"byteOffset":19776,"componentType":5126,"count":39,"max":[54.4965858,45.6782951,49.1869736],"min":[-27.0287228,-25.93298,-2.360479E-06],"type":"VEC3","name":"accessorPositions"},{"bufferView":1,"byteOffset":20244,"componentType":5126,"count":39,"type":"VEC3","name":"accessorNormals"},{"bufferView":2,"byteOffset":6592,"componentType":5126,"count":39,"type":"VEC2","name":"accessorUVs"},{"bufferView":0,"byteOffset":3492,"componentType":5123,"count":114,"type":"SCALAR","name":"accessorIndices"},{"bufferView":1,"byteOffset":20712,"componentType":5126,"count":42,"max":[54.4965858,45.6783,27.4643612],"min":[39.36914,-14.4885635,6.093361E-06],"type":"VEC3","name":"accessorPositions"},{"bufferView":1,"byteOffset":21216,"componentType":5126,"count":42,"type":"VEC3","name":"accessorNormals"},{"bufferView":2,"byteOffset":6904,"componentType":5126,"count":42,"type":"VEC2","name":"accessorUVs"},{"bufferView":0,"byteOffset":3720,"componentType":5123,"count":1380,"type":"SCALAR","name":"accessorIndices"},{"bufferView":1,"byteOffset":21720,"componentType":5126,"count":831,"max":[61.5281029,48.65415,49.495266],"min":[-60.2019539,-31.9228058,30.4267159],"type":"VEC3","name":"accessorPositions"},{"bufferView":1,"byteOffset":31692,"componentType":5126,"count":831,"type":"VEC3","name":"accessorNormals"},{"bufferView":2,"byteOffset":7240,"componentType":5126,"count":831,"type":"VEC2","name":"accessorUVs"},{"bufferView":0,"byteOffset":6480,"componentType":5123,"count":42,"type":"SCALAR","name":"accessorIndices"},{"bufferView":1,"byteOffset":41664,"componentType":5126,"count":24,"max":[14.442214,36.9847679,46.2910957],"min":[-56.9713669,-14.4886837,-8.725929E-07],"type":"VEC3","name":"accessorPositions"},{"bufferView":1,"byteOffset":41952,"componentType":5126,"count":24,"type":"VEC3","name":"accessorNormals"},{"bufferView":2,"byteOffset":13888,"componentType":5126,"count":24,"type":"VEC2","name":"accessorUVs"}],"bufferViews":[{"buffer":0,"byteLength":6564,"name":"bufferViewScalar"},{"buffer":0,"byteOffset":6564,"byteLength":42240,"byteStride":12,"name":"bufferViewFloatVec3"},{"buffer":0,"byteOffset":48804,"byteLength":14080,"byteStride":8,"name":"bufferViewFloatVec2"}],"buffers":[{"uri":"sgy_h1.bin","byteLength":62884}],"materials":[{"pbrMetallicRoughness":{"baseColorTexture":{"index":0},"metallicFactor":0.0,"roughnessFactor":0.450053632},"name":"Material #44348"},{"pbrMetallicRoughness":{"baseColorTexture":{"index":1},"metallicFactor":0.0,"roughnessFactor":0.450053632},"name":"Material #44289"},{"pbrMetallicRoughness":{"baseColorTexture":{"index":2},"metallicFactor":0.0,"roughnessFactor":0.450053632},"name":"Material #44061"},{"pbrMetallicRoughness":{"baseColorTexture":{"index":3},"metallicFactor":0.0,"roughnessFactor":0.450053632},"name":"Material #44073"},{"pbrMetallicRoughness":{"baseColorTexture":{"index":4},"metallicFactor":0.0,"roughnessFactor":0.450053632},"name":"Material #44108"},{"pbrMetallicRoughness":{"baseColorTexture":{"index":5},"metallicFactor":0.0,"roughnessFactor":0.450053632},"name":"Material #44121"},{"pbrMetallicRoughness":{"baseColorTexture":{"index":6},"metallicFactor":0.0,"roughnessFactor":0.450053632},"name":"Material #44156"},{"pbrMetallicRoughness":{"baseColorTexture":{"index":7},"metallicFactor":0.0,"roughnessFactor":0.450053632},"name":"Material #44386"},{"pbrMetallicRoughness":{"baseColorTexture":{"index":8},"metallicFactor":0.0,"roughnessFactor":0.450053632},"name":"Material #44335"}],"textures":[{"sampler":0,"source":0,"name":"shhw_q_03.jpg"},{"sampler":0,"source":1,"name":"xgy_x_008.jpg"},{"sampler":0,"source":2,"name":"sgy_x_003.jpg"},{"sampler":0,"source":3,"name":"xgy_x_004.jpg"},{"sampler":0,"source":4,"name":"xgy_x_005.jpg"},{"sampler":0,"source":5,"name":"xgy_x_006.jpg"},{"sampler":0,"source":6,"name":"xgy_x_007.jpg"},{"sampler":0,"source":7,"name":"sgy_3q_39.jpg"},{"sampler":0,"source":8,"name":"xgy_x_009.jpg"}],"images":[{"uri":"shhw_q_03.jpg"},{"uri":"xgy_x_008.jpg"},{"uri":"sgy_x_003.jpg"},{"uri":"xgy_x_004.jpg"},{"uri":"xgy_x_005.jpg"},{"uri":"xgy_x_006.jpg"},{"uri":"xgy_x_007.jpg"},{"uri":"sgy_3q_39.jpg"},{"uri":"xgy_x_009.jpg"}],"samplers":[{"magFilter":9729,"minFilter":9987}]}