{
  "accessors": [
    {
      "name": "Box004_1_0_positions",
      "componentType": 5126,
      "count": 121,
      "min": [
        -15.138699531555176,
        -38.551998138427734,
        0
      ],
      "max": [
        17.23259925842285,
        38.551998138427734,
        19.16309928894043
      ],
      "type": "VEC3",
      "bufferView": 0,
      "byteOffset": 0
    },
    {
      "name": "Box004_1_0_normals",
      "componentType": 5126,
      "count": 121,
      "min": [
        -1,
        -1,
        -1
      ],
      "max": [
        1,
        1,
        1
      ],
      "type": "VEC3",
      "bufferView": 1,
      "byteOffset": 0
    },
    {
      "name": "Box004_1_0_texcoords",
      "componentType": 5126,
      "count": 121,
      "min": [
        -0.977400004863739,
        -5.918000221252441
      ],
      "max": [
        1.9773999452590942,
        6.918000221252441
      ],
      "type": "VEC2",
      "bufferView": 2,
      "byteOffset": 0
    },
    {
      "name": "Box004_1_0_indices",
      "componentType": 5123,
      "count": 192,
      "min": [
        0
      ],
      "max": [
        120
      ],
      "type": "SCALAR",
      "bufferView": 3,
      "byteOffset": 0
    },
    {
      "name": "Box004_1_1_positions",
      "componentType": 5126,
      "count": 108,
      "min": [
        -17.23259925842285,
        -39.18220138549805,
        0
      ],
      "max": [
        -1.148300051689148,
        39.18220138549805,
        18.332700729370117
      ],
      "type": "VEC3",
      "bufferView": 0,
      "byteOffset": 1452
    },
    {
      "name": "Box004_1_1_normals",
      "componentType": 5126,
      "count": 108,
      "min": [
        -1,
        -1,
        -1
      ],
      "max": [
        1,
        1,
        1
      ],
      "type": "VEC3",
      "bufferView": 1,
      "byteOffset": 1452
    },
    {
      "name": "Box004_1_1_texcoords",
      "componentType": 5126,
      "count": 108,
      "min": [
        -2.99429988861084,
        -1.0118999481201172
      ],
      "max": [
        3.4435999393463135,
        1.471500039100647
      ],
      "type": "VEC2",
      "bufferView": 2,
      "byteOffset": 968
    },
    {
      "name": "Box004_1_1_indices",
      "componentType": 5123,
      "count": 144,
      "min": [
        0
      ],
      "max": [
        107
      ],
      "type": "SCALAR",
      "bufferView": 3,
      "byteOffset": 384
    },
    {
      "name": "Box004_1_2_positions",
      "componentType": 5126,
      "count": 20,
      "min": [
        -15.138699531555176,
        -38.551998138427734,
        6.381100177764893
      ],
      "max": [
        -3.015899896621704,
        38.551998138427734,
        19.16309928894043
      ],
      "type": "VEC3",
      "bufferView": 0,
      "byteOffset": 2748
    },
    {
      "name": "Box004_1_2_normals",
      "componentType": 5126,
      "count": 20,
      "min": [
        -1,
        0,
        0
      ],
      "max": [
        1,
        0,
        0.0014999982668086886
      ],
      "type": "VEC3",
      "bufferView": 1,
      "byteOffset": 2748
    },
    {
      "name": "Box004_1_2_texcoords",
      "componentType": 5126,
      "count": 20,
      "min": [
        -0.10580000281333923,
        0
      ],
      "max": [
        2.163599967956543,
        1
      ],
      "type": "VEC2",
      "bufferView": 2,
      "byteOffset": 1832
    },
    {
      "name": "Box004_1_2_indices",
      "componentType": 5123,
      "count": 36,
      "min": [
        0
      ],
      "max": [
        19
      ],
      "type": "SCALAR",
      "bufferView": 3,
      "byteOffset": 672
    },
    {
      "name": "Box004_1_3_positions",
      "componentType": 5126,
      "count": 20,
      "min": [
        0.08500000089406967,
        -18.100099563598633,
        0.15189999341964722
      ],
      "max": [
        16.393800735473633,
        19.349199295043945,
        9.243499755859375
      ],
      "type": "VEC3",
      "bufferView": 0,
      "byteOffset": 2988
    },
    {
      "name": "Box004_1_3_normals",
      "componentType": 5126,
      "count": 20,
      "min": [
        -1,
        0,
        -1
      ],
      "max": [
        1,
        1,
        1
      ],
      "type": "VEC3",
      "bufferView": 1,
      "byteOffset": 2988
    },
    {
      "name": "Box004_1_3_texcoords",
      "componentType": 5126,
      "count": 20,
      "min": [
        0,
        0
      ],
      "max": [
        1,
        1
      ],
      "type": "VEC2",
      "bufferView": 2,
      "byteOffset": 1992
    },
    {
      "name": "Box004_1_3_indices",
      "componentType": 5123,
      "count": 30,
      "min": [
        0
      ],
      "max": [
        19
      ],
      "type": "SCALAR",
      "bufferView": 3,
      "byteOffset": 744
    },
    {
      "name": "Box004_1_4_positions",
      "componentType": 5126,
      "count": 36,
      "min": [
        0.2678000032901764,
        -2.2669999599456787,
        0
      ],
      "max": [
        15.76099967956543,
        27.683300018310547,
        3.2873001098632812
      ],
      "type": "VEC3",
      "bufferView": 0,
      "byteOffset": 3228
    },
    {
      "name": "Box004_1_4_normals",
      "componentType": 5126,
      "count": 36,
      "min": [
        -1,
        -1,
        0
      ],
      "max": [
        1,
        1,
        1
      ],
      "type": "VEC3",
      "bufferView": 1,
      "byteOffset": 3228
    },
    {
      "name": "Box004_1_4_texcoords",
      "componentType": 5126,
      "count": 36,
      "min": [
        -2.526400089263916,
        -0.04839999973773956
      ],
      "max": [
        3.526400089263916,
        4.357999801635742
      ],
      "type": "VEC2",
      "bufferView": 2,
      "byteOffset": 2152
    },
    {
      "name": "Box004_1_4_indices",
      "componentType": 5123,
      "count": 66,
      "min": [
        0
      ],
      "max": [
        35
      ],
      "type": "SCALAR",
      "bufferView": 3,
      "byteOffset": 804
    },
    {
      "name": "Box004_1_5_positions",
      "componentType": 5126,
      "count": 8,
      "min": [
        0.2678000032901764,
        3.723099946975708,
        0.18870000541210175
      ],
      "max": [
        15.76099967956543,
        21.693199157714844,
        3.2873001098632812
      ],
      "type": "VEC3",
      "bufferView": 0,
      "byteOffset": 3660
    },
    {
      "name": "Box004_1_5_normals",
      "componentType": 5126,
      "count": 8,
      "min": [
        0,
        0.12600378692150116,
        0.9919671416282654
      ],
      "max": [
        0,
        0.12649580836296082,
        0.9920297861099243
      ],
      "type": "VEC3",
      "bufferView": 1,
      "byteOffset": 3660
    },
    {
      "name": "Box004_1_5_texcoords",
      "componentType": 5126,
      "count": 8,
      "min": [
        0,
        -0.36320000886917114
      ],
      "max": [
        1,
        3.4767000675201416
      ],
      "type": "VEC2",
      "bufferView": 2,
      "byteOffset": 2440
    },
    {
      "name": "Box004_1_5_indices",
      "componentType": 5123,
      "count": 12,
      "min": [
        0
      ],
      "max": [
        7
      ],
      "type": "SCALAR",
      "bufferView": 3,
      "byteOffset": 936
    }
  ],
  "asset": {
    "generator": "obj2gltf",
    "version": "2.0"
  },
  "buffers": [
    {
      "name": "jz15",
      "byteLength": 10976,
      "uri": "data:application/octet-stream;base64,"
    }
  ],
  "bufferViews": [
    {
      "name": "bufferView_0",
      "buffer": 0,
      "byteLength": 3756,
      "byteOffset": 0,
      "byteStride": 12,
      "target": 34962
    },
    {
      "name": "bufferView_1",
      "buffer": 0,
      "byteLength": 3756,
      "byteOffset": 3756,
      "byteStride": 12,
      "target": 34962
    },
    {
      "name": "bufferView_2",
      "buffer": 0,
      "byteLength": 2504,
      "byteOffset": 7512,
      "byteStride": 8,
      "target": 34962
    },
    {
      "name": "bufferView_3",
      "buffer": 0,
      "byteLength": 960,
      "byteOffset": 10016,
      "target": 34963
    }
  ],
  "images": [
    {
      "name": "SGY_Q1_005",
      "uri": "SGY_Q1_005.jpg"
    },
    {
      "name": "SGY_Q1_002",
      "uri": "SGY_Q1_002.jpg"
    },
    {
      "name": "SGY_Q1_031",
      "uri": "SGY_Q1_031.jpg"
    },
    {
      "name": "SGY_Q1_023",
      "uri": "SGY_Q1_023.jpg"
    },
    {
      "name": "SGY_Q1_010",
      "uri": "SGY_Q1_010.jpg"
    },
    {
      "name": "SGY_Q1_032",
      "uri": "SGY_Q1_032.jpg"
    }
  ],
  "materials": [
    {
      "name": "Material__97",
      "pbrMetallicRoughness": {
        "baseColorTexture": {
          "index": 0
        },
        "baseColorFactor": [
          1,
          1,
          1,
          1
        ],
        "metallicFactor": 0,
        "roughnessFactor": 0.99
      },
      "emissiveFactor": [
        0,
        0,
        0
      ],
      "alphaMode": "OPAQUE",
      "doubleSided": false
    },
    {
      "name": "Material__62",
      "pbrMetallicRoughness": {
        "baseColorTexture": {
          "index": 1
        },
        "baseColorFactor": [
          1,
          1,
          1,
          1
        ],
        "metallicFactor": 0,
        "roughnessFactor": 0.99
      },
      "emissiveFactor": [
        0,
        0,
        0
      ],
      "alphaMode": "OPAQUE",
      "doubleSided": false
    },
    {
      "name": "Material__25",
      "pbrMetallicRoughness": {
        "baseColorTexture": {
          "index": 2
        },
        "baseColorFactor": [
          1,
          1,
          1,
          1
        ],
        "metallicFactor": 0,
        "roughnessFactor": 0.99
      },
      "emissiveFactor": [
        0,
        0,
        0
      ],
      "alphaMode": "OPAQUE",
      "doubleSided": false
    },
    {
      "name": "Material__141",
      "pbrMetallicRoughness": {
        "baseColorTexture": {
          "index": 3
        },
        "baseColorFactor": [
          1,
          1,
          1,
          1
        ],
        "metallicFactor": 0,
        "roughnessFactor": 0.99
      },
      "emissiveFactor": [
        0,
        0,
        0
      ],
      "alphaMode": "OPAQUE",
      "doubleSided": false
    },
    {
      "name": "Material__127",
      "pbrMetallicRoughness": {
        "baseColorTexture": {
          "index": 4
        },
        "baseColorFactor": [
          1,
          1,
          1,
          1
        ],
        "metallicFactor": 0,
        "roughnessFactor": 0.99
      },
      "emissiveFactor": [
        0,
        0,
        0
      ],
      "alphaMode": "OPAQUE",
      "doubleSided": false
    },
    {
      "name": "Material__128",
      "pbrMetallicRoughness": {
        "baseColorTexture": {
          "index": 5
        },
        "baseColorFactor": [
          1,
          1,
          1,
          1
        ],
        "metallicFactor": 0,
        "roughnessFactor": 0.99
      },
      "emissiveFactor": [
        0,
        0,
        0
      ],
      "alphaMode": "OPAQUE",
      "doubleSided": false
    }
  ],
  "meshes": [
    {
      "name": "Box004_1",
      "primitives": [
        {
          "attributes": {
            "POSITION": 0,
            "NORMAL": 1,
            "TEXCOORD_0": 2
          },
          "indices": 3,
          "material": 0,
          "mode": 4
        },
        {
          "attributes": {
            "POSITION": 4,
            "NORMAL": 5,
            "TEXCOORD_0": 6
          },
          "indices": 7,
          "material": 1,
          "mode": 4
        },
        {
          "attributes": {
            "POSITION": 8,
            "NORMAL": 9,
            "TEXCOORD_0": 10
          },
          "indices": 11,
          "material": 2,
          "mode": 4
        },
        {
          "attributes": {
            "POSITION": 12,
            "NORMAL": 13,
            "TEXCOORD_0": 14
          },
          "indices": 15,
          "material": 3,
          "mode": 4
        },
        {
          "attributes": {
            "POSITION": 16,
            "NORMAL": 17,
            "TEXCOORD_0": 18
          },
          "indices": 19,
          "material": 4,
          "mode": 4
        },
        {
          "attributes": {
            "POSITION": 20,
            "NORMAL": 21,
            "TEXCOORD_0": 22
          },
          "indices": 23,
          "material": 5,
          "mode": 4
        }
      ]
    }
  ],
  "nodes": [
    {
      "name": "Box004",
      "mesh": 0
    }
  ],
  "samplers": [
    {
      "wrapS": 10497,
      "wrapT": 10497
    }
  ],
  "scene": 0,
  "scenes": [
    {
      "nodes": [
        0
      ]
    }
  ],
  "textures": [
    {
      "name": "SGY_Q1_005",
      "sampler": 0,
      "source": 0
    },
    {
      "name": "SGY_Q1_002",
      "sampler": 0,
      "source": 1
    },
    {
      "name": "SGY_Q1_031",
      "sampler": 0,
      "source": 2
    },
    {
      "name": "SGY_Q1_023",
      "sampler": 0,
      "source": 3
    },
    {
      "name": "SGY_Q1_010",
      "sampler": 0,
      "source": 4
    },
    {
      "name": "SGY_Q1_032",
      "sampler": 0,
      "source": 5
    }
  ]
}
