{
  "accessors": [
    {
      "name": "Box023_1_0_positions",
      "componentType": 5126,
      "count": 161,
      "min": [
        -176.03829956054688,
        -35.76620101928711,
        0
      ],
      "max": [
        176.03829956054688,
        35.76620101928711,
        21.794200897216797
      ],
      "type": "VEC3",
      "bufferView": 0,
      "byteOffset": 0
    },
    {
      "name": "Box023_1_0_normals",
      "componentType": 5126,
      "count": 161,
      "min": [
        -1,
        -1,
        -1
      ],
      "max": [
        1,
        1,
        1
      ],
      "type": "VEC3",
      "bufferView": 1,
      "byteOffset": 0
    },
    {
      "name": "Box023_1_0_texcoords",
      "componentType": 5126,
      "count": 161,
      "min": [
        -9.050600051879883,
        -1.1222000122070312
      ],
      "max": [
        10.129199981689453,
        2.1222000122070312
      ],
      "type": "VEC2",
      "bufferView": 2,
      "byteOffset": 0
    },
    {
      "name": "Box023_1_0_indices",
      "componentType": 5123,
      "count": 246,
      "min": [
        0
      ],
      "max": [
        160
      ],
      "type": "SCALAR",
      "bufferView": 3,
      "byteOffset": 0
    },
    {
      "name": "Box023_1_1_positions",
      "componentType": 5126,
      "count": 280,
      "min": [
        -176.03829956054688,
        -35.76620101928711,
        0
      ],
      "max": [
        176.03829956054688,
        18.106800079345703,
        21.794200897216797
      ],
      "type": "VEC3",
      "bufferView": 0,
      "byteOffset": 1932
    },
    {
      "name": "Box023_1_1_normals",
      "componentType": 5126,
      "count": 280,
      "min": [
        -1,
        -1,
        -1
      ],
      "max": [
        1,
        1,
        1
      ],
      "type": "VEC3",
      "bufferView": 1,
      "byteOffset": 1932
    },
    {
      "name": "Box023_1_1_texcoords",
      "componentType": 5126,
      "count": 280,
      "min": [
        -1.895799994468689,
        0
      ],
      "max": [
        2.8958001136779785,
        0.9850999712944031
      ],
      "type": "VEC2",
      "bufferView": 2,
      "byteOffset": 1288
    },
    {
      "name": "Box023_1_1_indices",
      "componentType": 5123,
      "count": 453,
      "min": [
        0
      ],
      "max": [
        279
      ],
      "type": "SCALAR",
      "bufferView": 3,
      "byteOffset": 492
    },
    {
      "name": "Box023_1_2_positions",
      "componentType": 5126,
      "count": 32,
      "min": [
        -149.99180603027344,
        -34.96620178222656,
        0
      ],
      "max": [
        162.31019592285156,
        -23.674100875854492,
        3.850399971008301
      ],
      "type": "VEC3",
      "bufferView": 0,
      "byteOffset": 5292
    },
    {
      "name": "Box023_1_2_normals",
      "componentType": 5126,
      "count": 32,
      "min": [
        -1,
        -1,
        -1
      ],
      "max": [
        1,
        0,
        0
      ],
      "type": "VEC3",
      "bufferView": 1,
      "byteOffset": 5292
    },
    {
      "name": "Box023_1_2_texcoords",
      "componentType": 5126,
      "count": 32,
      "min": [
        -2.5201001167297363,
        -0.9902999997138977
      ],
      "max": [
        3.5201001167297363,
        2.04830002784729
      ],
      "type": "VEC2",
      "bufferView": 2,
      "byteOffset": 3528
    },
    {
      "name": "Box023_1_2_indices",
      "componentType": 5123,
      "count": 42,
      "min": [
        0
      ],
      "max": [
        31
      ],
      "type": "SCALAR",
      "bufferView": 3,
      "byteOffset": 1400
    },
    {
      "name": "Box023_1_3_positions",
      "componentType": 5126,
      "count": 9,
      "min": [
        -170.04139709472656,
        5.288899898529053,
        0
      ],
      "max": [
        -143.3990020751953,
        18.106800079345703,
        5.561600208282471
      ],
      "type": "VEC3",
      "bufferView": 0,
      "byteOffset": 5676
    },
    {
      "name": "Box023_1_3_normals",
      "componentType": 5126,
      "count": 9,
      "min": [
        -1,
        0,
        0
      ],
      "max": [
        0,
        1,
        0
      ],
      "type": "VEC3",
      "bufferView": 1,
      "byteOffset": 5676
    },
    {
      "name": "Box023_1_3_texcoords",
      "componentType": 5126,
      "count": 9,
      "min": [
        0.39559999108314514,
        -0.5393000245094299
      ],
      "max": [
        0.6043999791145325,
        1.5392999649047852
      ],
      "type": "VEC2",
      "bufferView": 2,
      "byteOffset": 3784
    },
    {
      "name": "Box023_1_3_indices",
      "componentType": 5123,
      "count": 15,
      "min": [
        0
      ],
      "max": [
        8
      ],
      "type": "SCALAR",
      "bufferView": 3,
      "byteOffset": 1484
    },
    {
      "name": "Box023_1_4_positions",
      "componentType": 5126,
      "count": 53,
      "min": [
        -174.58120727539062,
        -34.96620178222656,
        0
      ],
      "max": [
        170.302001953125,
        33.77920150756836,
        20.994199752807617
      ],
      "type": "VEC3",
      "bufferView": 0,
      "byteOffset": 5784
    },
    {
      "name": "Box023_1_4_normals",
      "componentType": 5126,
      "count": 53,
      "min": [
        -1,
        0,
        0
      ],
      "max": [
        1,
        0,
        0
      ],
      "type": "VEC3",
      "bufferView": 1,
      "byteOffset": 5784
    },
    {
      "name": "Box023_1_4_texcoords",
      "componentType": 5126,
      "count": 53,
      "min": [
        -8.119500160217285,
        -1.6095999479293823
      ],
      "max": [
        9.119500160217285,
        2.405600070953369
      ],
      "type": "VEC2",
      "bufferView": 2,
      "byteOffset": 3856
    },
    {
      "name": "Box023_1_4_indices",
      "componentType": 5123,
      "count": 81,
      "min": [
        0
      ],
      "max": [
        52
      ],
      "type": "SCALAR",
      "bufferView": 3,
      "byteOffset": 1516
    },
    {
      "name": "Box023_1_5_positions",
      "componentType": 5126,
      "count": 4,
      "min": [
        172.83470153808594,
        -0.04969999939203262,
        8.322999954223633
      ],
      "max": [
        172.83470153808594,
        3.538100004196167,
        10.905099868774414
      ],
      "type": "VEC3",
      "bufferView": 0,
      "byteOffset": 6420
    },
    {
      "name": "Box023_1_5_normals",
      "componentType": 5126,
      "count": 4,
      "min": [
        1,
        0,
        0
      ],
      "max": [
        1,
        0,
        0
      ],
      "type": "VEC3",
      "bufferView": 1,
      "byteOffset": 6420
    },
    {
      "name": "Box023_1_5_texcoords",
      "componentType": 5126,
      "count": 4,
      "min": [
        0,
        0
      ],
      "max": [
        1,
        1
      ],
      "type": "VEC2",
      "bufferView": 2,
      "byteOffset": 4280
    },
    {
      "name": "Box023_1_5_indices",
      "componentType": 5123,
      "count": 6,
      "min": [
        0
      ],
      "max": [
        3
      ],
      "type": "SCALAR",
      "bufferView": 3,
      "byteOffset": 1680
    },
    {
      "name": "Box023_1_6_positions",
      "componentType": 5126,
      "count": 4,
      "min": [
        172.83470153808594,
        4.431600093841553,
        8.135499954223633
      ],
      "max": [
        172.83470153808594,
        15.778800010681152,
        9.411399841308594
      ],
      "type": "VEC3",
      "bufferView": 0,
      "byteOffset": 6468
    },
    {
      "name": "Box023_1_6_normals",
      "componentType": 5126,
      "count": 4,
      "min": [
        1,
        0,
        0
      ],
      "max": [
        1,
        0,
        0
      ],
      "type": "VEC3",
      "bufferView": 1,
      "byteOffset": 6468
    },
    {
      "name": "Box023_1_6_texcoords",
      "componentType": 5126,
      "count": 4,
      "min": [
        0,
        0
      ],
      "max": [
        1,
        1
      ],
      "type": "VEC2",
      "bufferView": 2,
      "byteOffset": 4312
    },
    {
      "name": "Box023_1_6_indices",
      "componentType": 5123,
      "count": 6,
      "min": [
        0
      ],
      "max": [
        3
      ],
      "type": "SCALAR",
      "bufferView": 3,
      "byteOffset": 1692
    }
  ],
  "asset": {
    "generator": "obj2gltf",
    "version": "2.0"
  },
  "buffers": [
    {
      "name": "3_jz16",
      "byteLength": 19080,
      "uri": "data:application/octet-stream;base64,"
    }
  ],
  "bufferViews": [
    {
      "name": "bufferView_0",
      "buffer": 0,
      "byteLength": 6516,
      "byteOffset": 0,
      "byteStride": 12,
      "target": 34962
    },
    {
      "name": "bufferView_1",
      "buffer": 0,
      "byteLength": 6516,
      "byteOffset": 6516,
      "byteStride": 12,
      "target": 34962
    },
    {
      "name": "bufferView_2",
      "buffer": 0,
      "byteLength": 4344,
      "byteOffset": 13032,
      "byteStride": 8,
      "target": 34962
    },
    {
      "name": "bufferView_3",
      "buffer": 0,
      "byteLength": 1704,
      "byteOffset": 17376,
      "target": 34963
    }
  ],
  "images": [
    {
      "name": "sgy_2q_09",
      "uri": "sgy_2q_09.jpg"
    },
    {
      "name": "sgy_1q_22",
      "uri": "sgy_1q_22.jpg"
    },
    {
      "name": "sgy_1q_19",
      "uri": "sgy_1q_19.jpg"
    },
    {
      "name": "sgy_3q_30",
      "uri": "sgy_3q_30.jpg"
    },
    {
      "name": "sgy_3q_43",
      "uri": "sgy_3q_43.jpg"
    },
    {
      "name": "sgy_3q_44",
      "uri": "sgy_3q_44.png"
    },
    {
      "name": "sgy_3q_45",
      "uri": "sgy_3q_45.png"
    }
  ],
  "materials": [
    {
      "name": "Material__4957",
      "pbrMetallicRoughness": {
        "baseColorTexture": {
          "index": 0
        },
        "baseColorFactor": [
          1,
          1,
          1,
          1
        ],
        "metallicFactor": 0,
        "roughnessFactor": 0.99
      },
      "emissiveFactor": [
        0,
        0,
        0
      ],
      "alphaMode": "OPAQUE",
      "doubleSided": false
    },
    {
      "name": "Material__5004",
      "pbrMetallicRoughness": {
        "baseColorTexture": {
          "index": 1
        },
        "baseColorFactor": [
          1,
          1,
          1,
          1
        ],
        "metallicFactor": 0,
        "roughnessFactor": 0.99
      },
      "emissiveFactor": [
        0,
        0,
        0
      ],
      "alphaMode": "OPAQUE",
      "doubleSided": false
    },
    {
      "name": "Material__4931",
      "pbrMetallicRoughness": {
        "baseColorTexture": {
          "index": 2
        },
        "baseColorFactor": [
          1,
          1,
          1,
          1
        ],
        "metallicFactor": 0,
        "roughnessFactor": 0.99
      },
      "emissiveFactor": [
        0,
        0,
        0
      ],
      "alphaMode": "OPAQUE",
      "doubleSided": false
    },
    {
      "name": "Material__4944",
      "pbrMetallicRoughness": {
        "baseColorTexture": {
          "index": 3
        },
        "baseColorFactor": [
          1,
          1,
          1,
          1
        ],
        "metallicFactor": 0,
        "roughnessFactor": 0.99
      },
      "emissiveFactor": [
        0,
        0,
        0
      ],
      "alphaMode": "OPAQUE",
      "doubleSided": false
    },
    {
      "name": "Material__4908",
      "pbrMetallicRoughness": {
        "baseColorTexture": {
          "index": 4
        },
        "baseColorFactor": [
          1,
          1,
          1,
          1
        ],
        "metallicFactor": 0,
        "roughnessFactor": 0.99
      },
      "emissiveFactor": [
        0,
        0,
        0
      ],
      "alphaMode": "OPAQUE",
      "doubleSided": false
    },
    {
      "name": "Material__5082",
      "pbrMetallicRoughness": {
        "baseColorTexture": {
          "index": 5
        },
        "baseColorFactor": [
          1,
          1,
          1,
          1
        ],
        "metallicFactor": 0,
        "roughnessFactor": 0.99
      },
      "emissiveFactor": [
        0,
        0,
        0
      ],
      "alphaMode": "BLEND",
      "doubleSided": true
    },
    {
      "name": "Material__5094",
      "pbrMetallicRoughness": {
        "baseColorTexture": {
          "index": 6
        },
        "baseColorFactor": [
          1,
          1,
          1,
          1
        ],
        "metallicFactor": 0,
        "roughnessFactor": 0.99
      },
      "emissiveFactor": [
        0,
        0,
        0
      ],
      "alphaMode": "BLEND",
      "doubleSided": true
    }
  ],
  "meshes": [
    {
      "name": "Box023_1",
      "primitives": [
        {
          "attributes": {
            "POSITION": 0,
            "NORMAL": 1,
            "TEXCOORD_0": 2
          },
          "indices": 3,
          "material": 0,
          "mode": 4
        },
        {
          "attributes": {
            "POSITION": 4,
            "NORMAL": 5,
            "TEXCOORD_0": 6
          },
          "indices": 7,
          "material": 1,
          "mode": 4
        },
        {
          "attributes": {
            "POSITION": 8,
            "NORMAL": 9,
            "TEXCOORD_0": 10
          },
          "indices": 11,
          "material": 2,
          "mode": 4
        },
        {
          "attributes": {
            "POSITION": 12,
            "NORMAL": 13,
            "TEXCOORD_0": 14
          },
          "indices": 15,
          "material": 3,
          "mode": 4
        },
        {
          "attributes": {
            "POSITION": 16,
            "NORMAL": 17,
            "TEXCOORD_0": 18
          },
          "indices": 19,
          "material": 4,
          "mode": 4
        },
        {
          "attributes": {
            "POSITION": 20,
            "NORMAL": 21,
            "TEXCOORD_0": 22
          },
          "indices": 23,
          "material": 5,
          "mode": 4
        },
        {
          "attributes": {
            "POSITION": 24,
            "NORMAL": 25,
            "TEXCOORD_0": 26
          },
          "indices": 27,
          "material": 6,
          "mode": 4
        }
      ]
    }
  ],
  "nodes": [
    {
      "name": "Box023",
      "mesh": 0
    }
  ],
  "samplers": [
    {
      "wrapS": 10497,
      "wrapT": 10497
    }
  ],
  "scene": 0,
  "scenes": [
    {
      "nodes": [
        0
      ]
    }
  ],
  "textures": [
    {
      "name": "sgy_2q_09",
      "sampler": 0,
      "source": 0
    },
    {
      "name": "sgy_1q_22",
      "sampler": 0,
      "source": 1
    },
    {
      "name": "sgy_1q_19",
      "sampler": 0,
      "source": 2
    },
    {
      "name": "sgy_3q_30",
      "sampler": 0,
      "source": 3
    },
    {
      "name": "sgy_3q_43",
      "sampler": 0,
      "source": 4
    },
    {
      "name": "sgy_3q_44",
      "sampler": 0,
      "source": 5
    },
    {
      "name": "sgy_3q_45",
      "sampler": 0,
      "source": 6
    }
  ]
}
