{"asset":{"version":"2.0","generator":"babylon.js glTF exporter for 3dsmax 2022 v20240125.3"},"scene":0,"scenes":[{"nodes":[0]}],"nodes":[{"mesh":0,"rotation":[8.742278E-08,0.0,0.0,1.0],"name":"Box002"}],"meshes":[{"primitives":[{"attributes":{"POSITION":1,"NORMAL":2,"TEXCOORD_0":3},"indices":0,"material":0},{"attributes":{"POSITION":5,"NORMAL":6,"TEXCOORD_0":7},"indices":4,"material":1}],"name":"Box002"}],"accessors":[{"bufferView":0,"componentType":5123,"count":216,"type":"SCALAR","name":"accessorIndices"},{"bufferView":1,"componentType":5126,"count":144,"max":[6.58790064,0.6478374,0.8715961],"min":[-6.58790541,-0.542429864,1.49011612E-07],"type":"VEC3","name":"accessorPositions"},{"bufferView":1,"byteOffset":1728,"componentType":5126,"count":144,"type":"VEC3","name":"accessorNormals"},{"bufferView":2,"componentType":5126,"count":144,"type":"VEC2","name":"accessorUVs"},{"bufferView":0,"byteOffset":432,"componentType":5123,"count":1080,"type":"SCALAR","name":"accessorIndices"},{"bufferView":1,"byteOffset":3456,"componentType":5126,"count":648,"max":[6.576037,0.999999642,6.850039],"min":[-6.48475456,-1.00000191,0.850037932],"type":"VEC3","name":"accessorPositions"},{"bufferView":1,"byteOffset":11232,"componentType":5126,"count":648,"type":"VEC3","name":"accessorNormals"},{"bufferView":2,"byteOffset":1152,"componentType":5126,"count":648,"type":"VEC2","name":"accessorUVs"}],"bufferViews":[{"buffer":0,"byteLength":2592,"name":"bufferViewScalar"},{"buffer":0,"byteOffset":2592,"byteLength":19008,"byteStride":12,"name":"bufferViewFloatVec3"},{"buffer":0,"byteOffset":21600,"byteLength":6336,"byteStride":8,"name":"bufferViewFloatVec2"}],"buffers":[{"uri":"sgy_ydhe_01.bin","byteLength":27936}],"materials":[{"pbrMetallicRoughness":{"baseColorTexture":{"index":0},"metallicFactor":0.0,"roughnessFactor":0.450053632},"name":"Material #46351"},{"pbrMetallicRoughness":{"baseColorTexture":{"index":1},"metallicFactor":0.0,"roughnessFactor":0.450053632},"name":"Material #46350"}],"textures":[{"sampler":0,"source":0,"name":"011.jpg"},{"sampler":0,"source":1,"name":"sgy_yd_01.jpg"}],"images":[{"uri":"011.jpg"},{"uri":"sgy_yd_01.jpg"}],"samplers":[{"magFilter":9729,"minFilter":9987}]}