{
  "accessors": [
    {
      "name": "Box014_1_0_positions",
      "componentType": 5126,
      "count": 287,
      "min": [
        -22.408100128173828,
        -48.87220001220703,
        0
      ],
      "max": [
        48.332401275634766,
        1.3312000036239624,
        22.656400680541992
      ],
      "type": "VEC3",
      "bufferView": 0,
      "byteOffset": 0
    },
    {
      "name": "Box014_1_0_normals",
      "componentType": 5126,
      "count": 287,
      "min": [
        -1,
        -1,
        0
      ],
      "max": [
        1,
        1,
        1
      ],
      "type": "VEC3",
      "bufferView": 1,
      "byteOffset": 0
    },
    {
      "name": "Box014_1_0_texcoords",
      "componentType": 5126,
      "count": 287,
      "min": [
        -2.073899984359741,
        -1.1168999671936035
      ],
      "max": [
        3.073899984359741,
        4.861100196838379
      ],
      "type": "VEC2",
      "bufferView": 2,
      "byteOffset": 0
    },
    {
      "name": "Box014_1_0_indices",
      "componentType": 5123,
      "count": 450,
      "min": [
        0
      ],
      "max": [
        286
      ],
      "type": "SCALAR",
      "bufferView": 3,
      "byteOffset": 0
    },
    {
      "name": "Box014_1_1_positions",
      "componentType": 5126,
      "count": 400,
      "min": [
        -48.332401275634766,
        -43.36539840698242,
        0
      ],
      "max": [
        -20.493600845336914,
        2.929800033569336,
        29.35890007019043
      ],
      "type": "VEC3",
      "bufferView": 0,
      "byteOffset": 3444
    },
    {
      "name": "Box014_1_1_normals",
      "componentType": 5126,
      "count": 400,
      "min": [
        -1,
        -1,
        -1
      ],
      "max": [
        1,
        1,
        1
      ],
      "type": "VEC3",
      "bufferView": 1,
      "byteOffset": 3444
    },
    {
      "name": "Box014_1_1_texcoords",
      "componentType": 5126,
      "count": 400,
      "min": [
        -2.073899984359741,
        -0.8644000291824341
      ],
      "max": [
        3.073899984359741,
        2.1168999671936035
      ],
      "type": "VEC2",
      "bufferView": 2,
      "byteOffset": 2296
    },
    {
      "name": "Box014_1_1_indices",
      "componentType": 5123,
      "count": 630,
      "min": [
        0
      ],
      "max": [
        399
      ],
      "type": "SCALAR",
      "bufferView": 3,
      "byteOffset": 900
    },
    {
      "name": "Box014_1_2_positions",
      "componentType": 5126,
      "count": 124,
      "min": [
        -45.04520034790039,
        -42.8119010925293,
        0
      ],
      "max": [
        16.395700454711914,
        49.31949996948242,
        29.35890007019043
      ],
      "type": "VEC3",
      "bufferView": 0,
      "byteOffset": 8244
    },
    {
      "name": "Box014_1_2_normals",
      "componentType": 5126,
      "count": 124,
      "min": [
        -1,
        -1,
        0
      ],
      "max": [
        1,
        1,
        1
      ],
      "type": "VEC3",
      "bufferView": 1,
      "byteOffset": 8244
    },
    {
      "name": "Box014_1_2_texcoords",
      "componentType": 5126,
      "count": 124,
      "min": [
        -1.2401000261306763,
        -1.750100016593933
      ],
      "max": [
        2.27810001373291,
        3.6768999099731445
      ],
      "type": "VEC2",
      "bufferView": 2,
      "byteOffset": 5496
    },
    {
      "name": "Box014_1_2_indices",
      "componentType": 5123,
      "count": 189,
      "min": [
        0
      ],
      "max": [
        123
      ],
      "type": "SCALAR",
      "bufferView": 3,
      "byteOffset": 2160
    },
    {
      "name": "Box014_1_3_positions",
      "componentType": 5126,
      "count": 289,
      "min": [
        -22.408100128173828,
        -51.0630989074707,
        3.2504000663757324
      ],
      "max": [
        48.332401275634766,
        1.3312000036239624,
        23.629100799560547
      ],
      "type": "VEC3",
      "bufferView": 0,
      "byteOffset": 9732
    },
    {
      "name": "Box014_1_3_normals",
      "componentType": 5126,
      "count": 289,
      "min": [
        -1,
        -1,
        -1
      ],
      "max": [
        1,
        1,
        1
      ],
      "type": "VEC3",
      "bufferView": 1,
      "byteOffset": 9732
    },
    {
      "name": "Box014_1_3_texcoords",
      "componentType": 5126,
      "count": 289,
      "min": [
        -1.5824999809265137,
        -1.1168999671936035
      ],
      "max": [
        3.073899984359741,
        1.8875000476837158
      ],
      "type": "VEC2",
      "bufferView": 2,
      "byteOffset": 6488
    },
    {
      "name": "Box014_1_3_indices",
      "componentType": 5123,
      "count": 438,
      "min": [
        0
      ],
      "max": [
        288
      ],
      "type": "SCALAR",
      "bufferView": 3,
      "byteOffset": 2540
    },
    {
      "name": "Box014_1_4_positions",
      "componentType": 5126,
      "count": 32,
      "min": [
        -20.493600845336914,
        -39.40169906616211,
        4.974599838256836
      ],
      "max": [
        48.332401275634766,
        -7.851500034332275,
        23.225900650024414
      ],
      "type": "VEC3",
      "bufferView": 0,
      "byteOffset": 13200
    },
    {
      "name": "Box014_1_4_normals",
      "componentType": 5126,
      "count": 32,
      "min": [
        0,
        -1,
        0
      ],
      "max": [
        0,
        1,
        0
      ],
      "type": "VEC3",
      "bufferView": 1,
      "byteOffset": 13200
    },
    {
      "name": "Box014_1_4_texcoords",
      "componentType": 5126,
      "count": 32,
      "min": [
        -2.145400047302246,
        -0.06509999930858612
      ],
      "max": [
        2.6717000007629395,
        1.069700002670288
      ],
      "type": "VEC2",
      "bufferView": 2,
      "byteOffset": 8800
    },
    {
      "name": "Box014_1_4_indices",
      "componentType": 5123,
      "count": 48,
      "min": [
        0
      ],
      "max": [
        31
      ],
      "type": "SCALAR",
      "bufferView": 3,
      "byteOffset": 3416
    },
    {
      "name": "Box014_1_5_positions",
      "componentType": 5126,
      "count": 12,
      "min": [
        -15.04259967803955,
        -48.87220001220703,
        0
      ],
      "max": [
        45.754398345947266,
        1.3312000036239624,
        5.115799903869629
      ],
      "type": "VEC3",
      "bufferView": 0,
      "byteOffset": 13584
    },
    {
      "name": "Box014_1_5_normals",
      "componentType": 5126,
      "count": 12,
      "min": [
        0,
        -1,
        0
      ],
      "max": [
        0,
        1,
        0
      ],
      "type": "VEC3",
      "bufferView": 1,
      "byteOffset": 13584
    },
    {
      "name": "Box014_1_5_texcoords",
      "componentType": 5126,
      "count": 12,
      "min": [
        -3.321899890899658,
        0
      ],
      "max": [
        4.779399871826172,
        1
      ],
      "type": "VEC2",
      "bufferView": 2,
      "byteOffset": 9056
    },
    {
      "name": "Box014_1_5_indices",
      "componentType": 5123,
      "count": 18,
      "min": [
        0
      ],
      "max": [
        11
      ],
      "type": "SCALAR",
      "bufferView": 3,
      "byteOffset": 3512
    },
    {
      "name": "Box014_1_6_positions",
      "componentType": 5126,
      "count": 203,
      "min": [
        -47.84519958496094,
        -31.773399353027344,
        12.670299530029297
      ],
      "max": [
        -35.50680160522461,
        2.4916999340057373,
        22.43549919128418
      ],
      "type": "VEC3",
      "bufferView": 0,
      "byteOffset": 13728
    },
    {
      "name": "Box014_1_6_normals",
      "componentType": 5126,
      "count": 203,
      "min": [
        -0.7898312211036682,
        -0.6133242249488831,
        -1
      ],
      "max": [
        0.6782925724983215,
        0.7347919344902039,
        1
      ],
      "type": "VEC3",
      "bufferView": 1,
      "byteOffset": 13728
    },
    {
      "name": "Box014_1_6_texcoords",
      "componentType": 5126,
      "count": 203,
      "min": [
        -1.0618000030517578,
        -17.289400100708008
      ],
      "max": [
        2.061800003051758,
        18.289400100708008
      ],
      "type": "VEC2",
      "bufferView": 2,
      "byteOffset": 9152
    },
    {
      "name": "Box014_1_6_indices",
      "componentType": 5123,
      "count": 312,
      "min": [
        0
      ],
      "max": [
        202
      ],
      "type": "SCALAR",
      "bufferView": 3,
      "byteOffset": 3548
    },
    {
      "name": "Box014_1_7_positions",
      "componentType": 5126,
      "count": 340,
      "min": [
        -20.687999725341797,
        15.311599731445312,
        0
      ],
      "max": [
        17.595699310302734,
        51.0629997253418,
        23.38920021057129
      ],
      "type": "VEC3",
      "bufferView": 0,
      "byteOffset": 16164
    },
    {
      "name": "Box014_1_7_normals",
      "componentType": 5126,
      "count": 340,
      "min": [
        -1,
        -1,
        -1
      ],
      "max": [
        1,
        1,
        1
      ],
      "type": "VEC3",
      "bufferView": 1,
      "byteOffset": 16164
    },
    {
      "name": "Box014_1_7_texcoords",
      "componentType": 5126,
      "count": 340,
      "min": [
        -1.4177000522613525,
        -1.1936999559402466
      ],
      "max": [
        2.4177000522613525,
        2.193700075149536
      ],
      "type": "VEC2",
      "bufferView": 2,
      "byteOffset": 10776
    },
    {
      "name": "Box014_1_7_indices",
      "componentType": 5123,
      "count": 504,
      "min": [
        0
      ],
      "max": [
        339
      ],
      "type": "SCALAR",
      "bufferView": 3,
      "byteOffset": 4172
    }
  ],
  "asset": {
    "generator": "obj2gltf",
    "version": "2.0"
  },
  "buffers": [
    {
      "name": "3_jz11",
      "byteLength": 59164,
      "uri": "data:application/octet-stream;base64,"
    }
  ],
  "bufferViews": [
    {
      "name": "bufferView_0",
      "buffer": 0,
      "byteLength": 20244,
      "byteOffset": 0,
      "byteStride": 12,
      "target": 34962
    },
    {
      "name": "bufferView_1",
      "buffer": 0,
      "byteLength": 20244,
      "byteOffset": 20244,
      "byteStride": 12,
      "target": 34962
    },
    {
      "name": "bufferView_2",
      "buffer": 0,
      "byteLength": 13496,
      "byteOffset": 40488,
      "byteStride": 8,
      "target": 34962
    },
    {
      "name": "bufferView_3",
      "buffer": 0,
      "byteLength": 5180,
      "byteOffset": 53984,
      "target": 34963
    }
  ],
  "images": [
    {
      "name": "sgy_3q_14",
      "uri": "sgy_3q_14.jpg"
    },
    {
      "name": "sgy_2q_29",
      "uri": "sgy_2q_29.jpg"
    },
    {
      "name": "sgy_3q_11",
      "uri": "sgy_3q_11.jpg"
    },
    {
      "name": "sgy_3q_15",
      "uri": "sgy_3q_15.jpg"
    },
    {
      "name": "sgy_3q_16",
      "uri": "sgy_3q_16.jpg"
    },
    {
      "name": "sgy_3q_13",
      "uri": "sgy_3q_13.jpg"
    },
    {
      "name": "sgy_1q_08",
      "uri": "sgy_1q_08.jpg"
    },
    {
      "name": "sgy_2q_09",
      "uri": "sgy_2q_09.jpg"
    }
  ],
  "materials": [
    {
      "name": "Material__1633",
      "pbrMetallicRoughness": {
        "baseColorTexture": {
          "index": 0
        },
        "baseColorFactor": [
          1,
          1,
          1,
          1
        ],
        "metallicFactor": 0,
        "roughnessFactor": 0.99
      },
      "emissiveFactor": [
        0,
        0,
        0
      ],
      "alphaMode": "OPAQUE",
      "doubleSided": false
    },
    {
      "name": "Material__1507",
      "pbrMetallicRoughness": {
        "baseColorTexture": {
          "index": 1
        },
        "baseColorFactor": [
          1,
          1,
          1,
          1
        ],
        "metallicFactor": 0,
        "roughnessFactor": 0.99
      },
      "emissiveFactor": [
        0,
        0,
        0
      ],
      "alphaMode": "OPAQUE",
      "doubleSided": false
    },
    {
      "name": "Material__1385",
      "pbrMetallicRoughness": {
        "baseColorTexture": {
          "index": 2
        },
        "baseColorFactor": [
          1,
          1,
          1,
          1
        ],
        "metallicFactor": 0,
        "roughnessFactor": 0.99
      },
      "emissiveFactor": [
        0,
        0,
        0
      ],
      "alphaMode": "OPAQUE",
      "doubleSided": false
    },
    {
      "name": "Material__1690",
      "pbrMetallicRoughness": {
        "baseColorTexture": {
          "index": 3
        },
        "baseColorFactor": [
          1,
          1,
          1,
          1
        ],
        "metallicFactor": 0,
        "roughnessFactor": 0.99
      },
      "emissiveFactor": [
        0,
        0,
        0
      ],
      "alphaMode": "OPAQUE",
      "doubleSided": false
    },
    {
      "name": "Material__1702",
      "pbrMetallicRoughness": {
        "baseColorTexture": {
          "index": 4
        },
        "baseColorFactor": [
          1,
          1,
          1,
          1
        ],
        "metallicFactor": 0,
        "roughnessFactor": 0.99
      },
      "emissiveFactor": [
        0,
        0,
        0
      ],
      "alphaMode": "OPAQUE",
      "doubleSided": false
    },
    {
      "name": "Material__1621",
      "pbrMetallicRoughness": {
        "baseColorTexture": {
          "index": 5
        },
        "baseColorFactor": [
          1,
          1,
          1,
          1
        ],
        "metallicFactor": 0,
        "roughnessFactor": 0.99
      },
      "emissiveFactor": [
        0,
        0,
        0
      ],
      "alphaMode": "OPAQUE",
      "doubleSided": false
    },
    {
      "name": "Material__1519",
      "pbrMetallicRoughness": {
        "baseColorTexture": {
          "index": 6
        },
        "baseColorFactor": [
          1,
          1,
          1,
          1
        ],
        "metallicFactor": 0,
        "roughnessFactor": 0.99
      },
      "emissiveFactor": [
        0,
        0,
        0
      ],
      "alphaMode": "OPAQUE",
      "doubleSided": false
    },
    {
      "name": "Material__1494",
      "pbrMetallicRoughness": {
        "baseColorTexture": {
          "index": 7
        },
        "baseColorFactor": [
          1,
          1,
          1,
          1
        ],
        "metallicFactor": 0,
        "roughnessFactor": 0.99
      },
      "emissiveFactor": [
        0,
        0,
        0
      ],
      "alphaMode": "OPAQUE",
      "doubleSided": false
    }
  ],
  "meshes": [
    {
      "name": "Box014_1",
      "primitives": [
        {
          "attributes": {
            "POSITION": 0,
            "NORMAL": 1,
            "TEXCOORD_0": 2
          },
          "indices": 3,
          "material": 0,
          "mode": 4
        },
        {
          "attributes": {
            "POSITION": 4,
            "NORMAL": 5,
            "TEXCOORD_0": 6
          },
          "indices": 7,
          "material": 1,
          "mode": 4
        },
        {
          "attributes": {
            "POSITION": 8,
            "NORMAL": 9,
            "TEXCOORD_0": 10
          },
          "indices": 11,
          "material": 2,
          "mode": 4
        },
        {
          "attributes": {
            "POSITION": 12,
            "NORMAL": 13,
            "TEXCOORD_0": 14
          },
          "indices": 15,
          "material": 3,
          "mode": 4
        },
        {
          "attributes": {
            "POSITION": 16,
            "NORMAL": 17,
            "TEXCOORD_0": 18
          },
          "indices": 19,
          "material": 4,
          "mode": 4
        },
        {
          "attributes": {
            "POSITION": 20,
            "NORMAL": 21,
            "TEXCOORD_0": 22
          },
          "indices": 23,
          "material": 5,
          "mode": 4
        },
        {
          "attributes": {
            "POSITION": 24,
            "NORMAL": 25,
            "TEXCOORD_0": 26
          },
          "indices": 27,
          "material": 6,
          "mode": 4
        },
        {
          "attributes": {
            "POSITION": 28,
            "NORMAL": 29,
            "TEXCOORD_0": 30
          },
          "indices": 31,
          "material": 7,
          "mode": 4
        }
      ]
    }
  ],
  "nodes": [
    {
      "name": "Box014",
      "mesh": 0
    }
  ],
  "samplers": [
    {
      "wrapS": 10497,
      "wrapT": 10497
    }
  ],
  "scene": 0,
  "scenes": [
    {
      "nodes": [
        0
      ]
    }
  ],
  "textures": [
    {
      "name": "sgy_3q_14",
      "sampler": 0,
      "source": 0
    },
    {
      "name": "sgy_2q_29",
      "sampler": 0,
      "source": 1
    },
    {
      "name": "sgy_3q_11",
      "sampler": 0,
      "source": 2
    },
    {
      "name": "sgy_3q_15",
      "sampler": 0,
      "source": 3
    },
    {
      "name": "sgy_3q_16",
      "sampler": 0,
      "source": 4
    },
    {
      "name": "sgy_3q_13",
      "sampler": 0,
      "source": 5
    },
    {
      "name": "sgy_1q_08",
      "sampler": 0,
      "source": 6
    },
    {
      "name": "sgy_2q_09",
      "sampler": 0,
      "source": 7
    }
  ]
}
