{
  "accessors": [
    {
      "name": "Box005_1_0_positions",
      "componentType": 5126,
      "count": 151,
      "min": [
        -10.920299530029297,
        -26.24220085144043,
        14.673399925231934
      ],
      "max": [
        14.911999702453613,
        26.597299575805664,
        19.95669937133789
      ],
      "type": "VEC3",
      "bufferView": 0,
      "byteOffset": 0
    },
    {
      "name": "Box005_1_0_normals",
      "componentType": 5126,
      "count": 151,
      "min": [
        -1,
        -1,
        -0.9337650537490845
      ],
      "max": [
        1,
        1,
        0.9337650537490845
      ],
      "type": "VEC3",
      "bufferView": 1,
      "byteOffset": 0
    },
    {
      "name": "Box005_1_0_texcoords",
      "componentType": 5126,
      "count": 151,
      "min": [
        -0.5629000067710876,
        0
      ],
      "max": [
        2.176500082015991,
        1
      ],
      "type": "VEC2",
      "bufferView": 2,
      "byteOffset": 0
    },
    {
      "name": "Box005_1_0_indices",
      "componentType": 5123,
      "count": 240,
      "min": [
        0
      ],
      "max": [
        150
      ],
      "type": "SCALAR",
      "bufferView": 3,
      "byteOffset": 0
    },
    {
      "name": "Box005_1_1_positions",
      "componentType": 5126,
      "count": 46,
      "min": [
        -8.70740032196045,
        -24.029300689697266,
        0
      ],
      "max": [
        23.8700008392334,
        24.3843994140625,
        11.357799530029297
      ],
      "type": "VEC3",
      "bufferView": 0,
      "byteOffset": 1812
    },
    {
      "name": "Box005_1_1_normals",
      "componentType": 5126,
      "count": 46,
      "min": [
        -1,
        -1,
        -1
      ],
      "max": [
        1,
        1,
        0
      ],
      "type": "VEC3",
      "bufferView": 1,
      "byteOffset": 1812
    },
    {
      "name": "Box005_1_1_texcoords",
      "componentType": 5126,
      "count": 46,
      "min": [
        0,
        0
      ],
      "max": [
        5.235499858856201,
        1.0979000329971313
      ],
      "type": "VEC2",
      "bufferView": 2,
      "byteOffset": 1208
    },
    {
      "name": "Box005_1_1_indices",
      "componentType": 5123,
      "count": 66,
      "min": [
        0
      ],
      "max": [
        45
      ],
      "type": "SCALAR",
      "bufferView": 3,
      "byteOffset": 480
    },
    {
      "name": "Box005_1_2_positions",
      "componentType": 5126,
      "count": 50,
      "min": [
        -8.70740032196045,
        -24.029300689697266,
        6.638800144195557
      ],
      "max": [
        23.8700008392334,
        24.3843994140625,
        18.929100036621094
      ],
      "type": "VEC3",
      "bufferView": 0,
      "byteOffset": 2364
    },
    {
      "name": "Box005_1_2_normals",
      "componentType": 5126,
      "count": 50,
      "min": [
        -1,
        -1,
        0
      ],
      "max": [
        1,
        1,
        1
      ],
      "type": "VEC3",
      "bufferView": 1,
      "byteOffset": 2364
    },
    {
      "name": "Box005_1_2_texcoords",
      "componentType": 5126,
      "count": 50,
      "min": [
        0.0005000000237487257,
        -2.266200065612793
      ],
      "max": [
        6.54640007019043,
        3.266200065612793
      ],
      "type": "VEC2",
      "bufferView": 2,
      "byteOffset": 1576
    },
    {
      "name": "Box005_1_2_indices",
      "componentType": 5123,
      "count": 102,
      "min": [
        0
      ],
      "max": [
        49
      ],
      "type": "SCALAR",
      "bufferView": 3,
      "byteOffset": 612
    },
    {
      "name": "Box005_1_3_positions",
      "componentType": 5126,
      "count": 162,
      "min": [
        -12.969300270080566,
        -26.74720001220703,
        3.9237000942230225
      ],
      "max": [
        15.416899681091309,
        27.10219955444336,
        13.082300186157227
      ],
      "type": "VEC3",
      "bufferView": 0,
      "byteOffset": 2964
    },
    {
      "name": "Box005_1_3_normals",
      "componentType": 5126,
      "count": 162,
      "min": [
        -1,
        -1,
        -1
      ],
      "max": [
        1,
        1,
        1
      ],
      "type": "VEC3",
      "bufferView": 1,
      "byteOffset": 2964
    },
    {
      "name": "Box005_1_3_texcoords",
      "componentType": 5126,
      "count": 162,
      "min": [
        -13.421099662780762,
        -25.92460060119629
      ],
      "max": [
        13.421099662780762,
        27.92460060119629
      ],
      "type": "VEC2",
      "bufferView": 2,
      "byteOffset": 1976
    },
    {
      "name": "Box005_1_3_indices",
      "componentType": 5123,
      "count": 288,
      "min": [
        0
      ],
      "max": [
        161
      ],
      "type": "SCALAR",
      "bufferView": 3,
      "byteOffset": 816
    },
    {
      "name": "Box005_1_4_positions",
      "componentType": 5126,
      "count": 24,
      "min": [
        -17.588600158691406,
        -23.439800262451172,
        0
      ],
      "max": [
        -8.779500007629395,
        2.019200086593628,
        5.299900054931641
      ],
      "type": "VEC3",
      "bufferView": 0,
      "byteOffset": 4908
    },
    {
      "name": "Box005_1_4_normals",
      "componentType": 5126,
      "count": 24,
      "min": [
        -1,
        -1,
        -1
      ],
      "max": [
        1,
        1,
        1
      ],
      "type": "VEC3",
      "bufferView": 1,
      "byteOffset": 4908
    },
    {
      "name": "Box005_1_4_texcoords",
      "componentType": 5126,
      "count": 24,
      "min": [
        0,
        0
      ],
      "max": [
        1,
        1
      ],
      "type": "VEC2",
      "bufferView": 2,
      "byteOffset": 3272
    },
    {
      "name": "Box005_1_4_indices",
      "componentType": 5123,
      "count": 36,
      "min": [
        0
      ],
      "max": [
        23
      ],
      "type": "SCALAR",
      "bufferView": 3,
      "byteOffset": 1392
    }
  ],
  "asset": {
    "generator": "obj2gltf",
    "version": "2.0"
  },
  "buffers": [
    {
      "name": "2_jz01",
      "byteLength": 15320,
      "uri": "data:application/octet-stream;base64,"
    }
  ],
  "bufferViews": [
    {
      "name": "bufferView_0",
      "buffer": 0,
      "byteLength": 5196,
      "byteOffset": 0,
      "byteStride": 12,
      "target": 34962
    },
    {
      "name": "bufferView_1",
      "buffer": 0,
      "byteLength": 5196,
      "byteOffset": 5196,
      "byteStride": 12,
      "target": 34962
    },
    {
      "name": "bufferView_2",
      "buffer": 0,
      "byteLength": 3464,
      "byteOffset": 10392,
      "byteStride": 8,
      "target": 34962
    },
    {
      "name": "bufferView_3",
      "buffer": 0,
      "byteLength": 1464,
      "byteOffset": 13856,
      "target": 34963
    }
  ],
  "images": [
    {
      "name": "SGY_Q1_015",
      "uri": "SGY_Q1_015.jpg"
    },
    {
      "name": "SGY_Q1_025",
      "uri": "SGY_Q1_025.jpg"
    },
    {
      "name": "SGY_Q1_010",
      "uri": "SGY_Q1_010.jpg"
    },
    {
      "name": "SGY_Q1_018",
      "uri": "SGY_Q1_018.jpg"
    },
    {
      "name": "SGY_Q1_023",
      "uri": "SGY_Q1_023.jpg"
    }
  ],
  "materials": [
    {
      "name": "Material__255",
      "pbrMetallicRoughness": {
        "baseColorTexture": {
          "index": 0
        },
        "baseColorFactor": [
          1,
          1,
          1,
          1
        ],
        "metallicFactor": 0,
        "roughnessFactor": 0.99
      },
      "emissiveFactor": [
        0,
        0,
        0
      ],
      "alphaMode": "OPAQUE",
      "doubleSided": false
    },
    {
      "name": "Material__228",
      "pbrMetallicRoughness": {
        "baseColorTexture": {
          "index": 1
        },
        "baseColorFactor": [
          1,
          1,
          1,
          1
        ],
        "metallicFactor": 0,
        "roughnessFactor": 0.99
      },
      "emissiveFactor": [
        0,
        0,
        0
      ],
      "alphaMode": "OPAQUE",
      "doubleSided": false
    },
    {
      "name": "Material__240",
      "pbrMetallicRoughness": {
        "baseColorTexture": {
          "index": 2
        },
        "baseColorFactor": [
          1,
          1,
          1,
          1
        ],
        "metallicFactor": 0,
        "roughnessFactor": 0.99
      },
      "emissiveFactor": [
        0,
        0,
        0
      ],
      "alphaMode": "OPAQUE",
      "doubleSided": false
    },
    {
      "name": "Material__254",
      "pbrMetallicRoughness": {
        "baseColorTexture": {
          "index": 3
        },
        "baseColorFactor": [
          1,
          1,
          1,
          1
        ],
        "metallicFactor": 0,
        "roughnessFactor": 0.99
      },
      "emissiveFactor": [
        0,
        0,
        0
      ],
      "alphaMode": "OPAQUE",
      "doubleSided": false
    },
    {
      "name": "Material__320",
      "pbrMetallicRoughness": {
        "baseColorTexture": {
          "index": 4
        },
        "baseColorFactor": [
          1,
          1,
          1,
          1
        ],
        "metallicFactor": 0,
        "roughnessFactor": 0.99
      },
      "emissiveFactor": [
        0,
        0,
        0
      ],
      "alphaMode": "OPAQUE",
      "doubleSided": false
    }
  ],
  "meshes": [
    {
      "name": "Box005_1",
      "primitives": [
        {
          "attributes": {
            "POSITION": 0,
            "NORMAL": 1,
            "TEXCOORD_0": 2
          },
          "indices": 3,
          "material": 0,
          "mode": 4
        },
        {
          "attributes": {
            "POSITION": 4,
            "NORMAL": 5,
            "TEXCOORD_0": 6
          },
          "indices": 7,
          "material": 1,
          "mode": 4
        },
        {
          "attributes": {
            "POSITION": 8,
            "NORMAL": 9,
            "TEXCOORD_0": 10
          },
          "indices": 11,
          "material": 2,
          "mode": 4
        },
        {
          "attributes": {
            "POSITION": 12,
            "NORMAL": 13,
            "TEXCOORD_0": 14
          },
          "indices": 15,
          "material": 3,
          "mode": 4
        },
        {
          "attributes": {
            "POSITION": 16,
            "NORMAL": 17,
            "TEXCOORD_0": 18
          },
          "indices": 19,
          "material": 4,
          "mode": 4
        }
      ]
    }
  ],
  "nodes": [
    {
      "name": "Box005",
      "mesh": 0
    }
  ],
  "samplers": [
    {
      "wrapS": 10497,
      "wrapT": 10497
    }
  ],
  "scene": 0,
  "scenes": [
    {
      "nodes": [
        0
      ]
    }
  ],
  "textures": [
    {
      "name": "SGY_Q1_015",
      "sampler": 0,
      "source": 0
    },
    {
      "name": "SGY_Q1_025",
      "sampler": 0,
      "source": 1
    },
    {
      "name": "SGY_Q1_010",
      "sampler": 0,
      "source": 2
    },
    {
      "name": "SGY_Q1_018",
      "sampler": 0,
      "source": 3
    },
    {
      "name": "SGY_Q1_023",
      "sampler": 0,
      "source": 4
    }
  ]
}
