{
  "accessors": [
    {
      "name": "pCube14_1_0_positions",
      "componentType": 5126,
      "count": 9,
      "min": [
        -13.379700660705566,
        6.049121856689453,
        -0.000003999999989900971
      ],
      "max": [
        14.50607967376709,
        6.049127101898193,
        6.733723163604736
      ],
      "type": "VEC3",
      "bufferView": 0,
      "byteOffset": 0
    },
    {
      "name": "pCube14_1_0_normals",
      "componentType": 5126,
      "count": 9,
      "min": [
        -0.0000019999999949504854,
        1,
        0
      ],
      "max": [
        0,
        1,
        9.999999974752427e-7
      ],
      "type": "VEC3",
      "bufferView": 1,
      "byteOffset": 0
    },
    {
      "name": "pCube14_1_0_texcoords",
      "componentType": 5126,
      "count": 9,
      "min": [
        -4.043083190917969,
        1.0594539642333984
      ],
      "max": [
        3.1249840259552,
        3.0136818885803223
      ],
      "type": "VEC2",
      "bufferView": 2,
      "byteOffset": 0
    },
    {
      "name": "pCube14_1_0_indices",
      "componentType": 5123,
      "count": 15,
      "min": [
        0
      ],
      "max": [
        8
      ],
      "type": "SCALAR",
      "bufferView": 3,
      "byteOffset": 0
    },
    {
      "name": "pCube14_1_1_positions",
      "componentType": 5126,
      "count": 22,
      "min": [
        -13.89832592010498,
        -5.605706214904785,
        -0.000003999999989900971
      ],
      "max": [
        14.50607967376709,
        -2.248863935470581,
        6.733723163604736
      ],
      "type": "VEC3",
      "bufferView": 0,
      "byteOffset": 108
    },
    {
      "name": "pCube14_1_1_normals",
      "componentType": 5126,
      "count": 22,
      "min": [
        0,
        -1,
        -9.999999974752427e-7
      ],
      "max": [
        0.0000019999999949504854,
        1,
        1
      ],
      "type": "VEC3",
      "bufferView": 1,
      "byteOffset": 108
    },
    {
      "name": "pCube14_1_1_texcoords",
      "componentType": 5126,
      "count": 22,
      "min": [
        -2.9720699787139893,
        -2.9852569103240967
      ],
      "max": [
        4.144199848175049,
        1.792672038078308
      ],
      "type": "VEC2",
      "bufferView": 2,
      "byteOffset": 72
    },
    {
      "name": "pCube14_1_1_indices",
      "componentType": 5123,
      "count": 36,
      "min": [
        0
      ],
      "max": [
        21
      ],
      "type": "SCALAR",
      "bufferView": 3,
      "byteOffset": 32
    },
    {
      "name": "pCube14_1_2_positions",
      "componentType": 5126,
      "count": 34,
      "min": [
        -13.379700660705566,
        -5.605706214904785,
        -0.000003999999989900971
      ],
      "max": [
        14.50607967376709,
        6.049127101898193,
        6.733723163604736
      ],
      "type": "VEC3",
      "bufferView": 0,
      "byteOffset": 372
    },
    {
      "name": "pCube14_1_2_normals",
      "componentType": 5126,
      "count": 34,
      "min": [
        -1,
        0,
        0
      ],
      "max": [
        1,
        0,
        0
      ],
      "type": "VEC3",
      "bufferView": 1,
      "byteOffset": 372
    },
    {
      "name": "pCube14_1_2_texcoords",
      "componentType": 5126,
      "count": 34,
      "min": [
        -0.5512959957122803,
        0.07219599932432175
      ],
      "max": [
        6.855909824371338,
        4.677340030670166
      ],
      "type": "VEC2",
      "bufferView": 2,
      "byteOffset": 248
    },
    {
      "name": "pCube14_1_2_indices",
      "componentType": 5123,
      "count": 54,
      "min": [
        0
      ],
      "max": [
        33
      ],
      "type": "SCALAR",
      "bufferView": 3,
      "byteOffset": 104
    },
    {
      "name": "pCube14_1_3_positions",
      "componentType": 5126,
      "count": 105,
      "min": [
        -14.591094017028809,
        -5.776127815246582,
        0.021516000851988792
      ],
      "max": [
        14.682109832763672,
        6.219543933868408,
        6.957773208618164
      ],
      "type": "VEC3",
      "bufferView": 0,
      "byteOffset": 780
    },
    {
      "name": "pCube14_1_3_normals",
      "componentType": 5126,
      "count": 105,
      "min": [
        -1,
        -1,
        -1
      ],
      "max": [
        1,
        1,
        1
      ],
      "type": "VEC3",
      "bufferView": 1,
      "byteOffset": 780
    },
    {
      "name": "pCube14_1_3_texcoords",
      "componentType": 5126,
      "count": 105,
      "min": [
        0,
        0
      ],
      "max": [
        0.9972829818725586,
        1.0555360317230225
      ],
      "type": "VEC2",
      "bufferView": 2,
      "byteOffset": 520
    },
    {
      "name": "pCube14_1_3_indices",
      "componentType": 5123,
      "count": 198,
      "min": [
        0
      ],
      "max": [
        104
      ],
      "type": "SCALAR",
      "bufferView": 3,
      "byteOffset": 212
    },
    {
      "name": "pCube14_1_4_positions",
      "componentType": 5126,
      "count": 11,
      "min": [
        -13.379700660705566,
        -5.605706214904785,
        0.7351639866828918
      ],
      "max": [
        14.50607967376709,
        3.285167932510376,
        6.733723163604736
      ],
      "type": "VEC3",
      "bufferView": 0,
      "byteOffset": 2040
    },
    {
      "name": "pCube14_1_4_normals",
      "componentType": 5126,
      "count": 11,
      "min": [
        -1,
        0,
        0
      ],
      "max": [
        1,
        0,
        0
      ],
      "type": "VEC3",
      "bufferView": 1,
      "byteOffset": 2040
    },
    {
      "name": "pCube14_1_4_texcoords",
      "componentType": 5126,
      "count": 11,
      "min": [
        -0.11561299860477448,
        0.07219599932432175
      ],
      "max": [
        6.855909824371338,
        4.18654203414917
      ],
      "type": "VEC2",
      "bufferView": 2,
      "byteOffset": 1360
    },
    {
      "name": "pCube14_1_4_indices",
      "componentType": 5123,
      "count": 21,
      "min": [
        0
      ],
      "max": [
        10
      ],
      "type": "SCALAR",
      "bufferView": 3,
      "byteOffset": 608
    },
    {
      "name": "pCube14_1_5_positions",
      "componentType": 5126,
      "count": 4,
      "min": [
        -12.523383140563965,
        -5.605706214904785,
        -0.000003999999989900971
      ],
      "max": [
        12.986978530883789,
        -5.605700969696045,
        6.733723163604736
      ],
      "type": "VEC3",
      "bufferView": 0,
      "byteOffset": 2172
    },
    {
      "name": "pCube14_1_5_normals",
      "componentType": 5126,
      "count": 4,
      "min": [
        0,
        -1,
        0
      ],
      "max": [
        0,
        -1,
        0
      ],
      "type": "VEC3",
      "bufferView": 1,
      "byteOffset": 2172
    },
    {
      "name": "pCube14_1_5_texcoords",
      "componentType": 5126,
      "count": 4,
      "min": [
        -2.753542900085449,
        -2.9852569103240967
      ],
      "max": [
        3.756535053253174,
        -0.929302990436554
      ],
      "type": "VEC2",
      "bufferView": 2,
      "byteOffset": 1448
    },
    {
      "name": "pCube14_1_5_indices",
      "componentType": 5123,
      "count": 6,
      "min": [
        0
      ],
      "max": [
        3
      ],
      "type": "SCALAR",
      "bufferView": 3,
      "byteOffset": 652
    },
    {
      "name": "pCube14_1_6_positions",
      "componentType": 5126,
      "count": 4,
      "min": [
        -12.181782722473145,
        6.049121856689453,
        -0.000003999999989900971
      ],
      "max": [
        13.528375625610352,
        6.049127101898193,
        6.733723163604736
      ],
      "type": "VEC3",
      "bufferView": 0,
      "byteOffset": 2220
    },
    {
      "name": "pCube14_1_6_normals",
      "componentType": 5126,
      "count": 4,
      "min": [
        0,
        1,
        0
      ],
      "max": [
        0,
        1,
        0
      ],
      "type": "VEC3",
      "bufferView": 1,
      "byteOffset": 2220
    },
    {
      "name": "pCube14_1_6_texcoords",
      "componentType": 5126,
      "count": 4,
      "min": [
        -3.7917630672454834,
        1.0594539642333984
      ],
      "max": [
        2.8170580863952637,
        3.0136818885803223
      ],
      "type": "VEC2",
      "bufferView": 2,
      "byteOffset": 1480
    },
    {
      "name": "pCube14_1_6_indices",
      "componentType": 5123,
      "count": 6,
      "min": [
        0
      ],
      "max": [
        3
      ],
      "type": "SCALAR",
      "bufferView": 3,
      "byteOffset": 664
    },
    {
      "name": "pCube14_1_7_positions",
      "componentType": 5126,
      "count": 20,
      "min": [
        14.344953536987305,
        -0.22133900225162506,
        0.027205999940633774
      ],
      "max": [
        14.544258117675781,
        1.0028769969940186,
        2.197437047958374
      ],
      "type": "VEC3",
      "bufferView": 0,
      "byteOffset": 2268
    },
    {
      "name": "pCube14_1_7_normals",
      "componentType": 5126,
      "count": 20,
      "min": [
        0,
        -1,
        -1
      ],
      "max": [
        1,
        1,
        1
      ],
      "type": "VEC3",
      "bufferView": 1,
      "byteOffset": 2268
    },
    {
      "name": "pCube14_1_7_texcoords",
      "componentType": 5126,
      "count": 20,
      "min": [
        -1.107890009880066,
        -2.000520944595337
      ],
      "max": [
        0.8244140148162842,
        1
      ],
      "type": "VEC2",
      "bufferView": 2,
      "byteOffset": 1512
    },
    {
      "name": "pCube14_1_7_indices",
      "componentType": 5123,
      "count": 30,
      "min": [
        0
      ],
      "max": [
        19
      ],
      "type": "SCALAR",
      "bufferView": 3,
      "byteOffset": 676
    },
    {
      "name": "pCube14_1_8_positions",
      "componentType": 5126,
      "count": 4,
      "min": [
        -10.051037788391113,
        -6.219543933868408,
        2.0511701107025146
      ],
      "max": [
        -8.797333717346191,
        -5.181036949157715,
        2.0511701107025146
      ],
      "type": "VEC3",
      "bufferView": 0,
      "byteOffset": 2508
    },
    {
      "name": "pCube14_1_8_normals",
      "componentType": 5126,
      "count": 4,
      "min": [
        0,
        0,
        1
      ],
      "max": [
        0,
        0,
        1
      ],
      "type": "VEC3",
      "bufferView": 1,
      "byteOffset": 2508
    },
    {
      "name": "pCube14_1_8_texcoords",
      "componentType": 5126,
      "count": 4,
      "min": [
        0.375,
        0.5
      ],
      "max": [
        0.625,
        0.75
      ],
      "type": "VEC2",
      "bufferView": 2,
      "byteOffset": 1672
    },
    {
      "name": "pCube14_1_8_indices",
      "componentType": 5123,
      "count": 6,
      "min": [
        0
      ],
      "max": [
        3
      ],
      "type": "SCALAR",
      "bufferView": 3,
      "byteOffset": 736
    },
    {
      "name": "pCube14_1_9_positions",
      "componentType": 5126,
      "count": 24,
      "min": [
        -9.962618827819824,
        -5.716196060180664,
        0.034150999039411545
      ],
      "max": [
        -8.891709327697754,
        -4.159367084503174,
        1.7433370351791382
      ],
      "type": "VEC3",
      "bufferView": 0,
      "byteOffset": 2556
    },
    {
      "name": "pCube14_1_9_normals",
      "componentType": 5126,
      "count": 24,
      "min": [
        -1,
        -1,
        -1
      ],
      "max": [
        1,
        1,
        1
      ],
      "type": "VEC3",
      "bufferView": 1,
      "byteOffset": 2556
    },
    {
      "name": "pCube14_1_9_texcoords",
      "componentType": 5126,
      "count": 24,
      "min": [
        -1.107890009880066,
        -2.000520944595337
      ],
      "max": [
        0.8244140148162842,
        1
      ],
      "type": "VEC2",
      "bufferView": 2,
      "byteOffset": 1704
    },
    {
      "name": "pCube14_1_9_indices",
      "componentType": 5123,
      "count": 36,
      "min": [
        0
      ],
      "max": [
        23
      ],
      "type": "SCALAR",
      "bufferView": 3,
      "byteOffset": 748
    },
    {
      "name": "pCube14_1_10_positions",
      "componentType": 5126,
      "count": 212,
      "min": [
        -14.33925724029541,
        -2.718297004699707,
        2.215723991394043
      ],
      "max": [
        -13.322925567626953,
        -2.2391040325164795,
        2.4300520420074463
      ],
      "type": "VEC3",
      "bufferView": 0,
      "byteOffset": 2844
    },
    {
      "name": "pCube14_1_10_normals",
      "componentType": 5126,
      "count": 212,
      "min": [
        -1,
        -1,
        -1
      ],
      "max": [
        1,
        1,
        1
      ],
      "type": "VEC3",
      "bufferView": 1,
      "byteOffset": 2844
    },
    {
      "name": "pCube14_1_10_texcoords",
      "componentType": 5126,
      "count": 212,
      "min": [
        0.125,
        0.25
      ],
      "max": [
        0.625,
        1
      ],
      "type": "VEC2",
      "bufferView": 2,
      "byteOffset": 1896
    },
    {
      "name": "pCube14_1_10_indices",
      "componentType": 5123,
      "count": 324,
      "min": [
        0
      ],
      "max": [
        211
      ],
      "type": "SCALAR",
      "bufferView": 3,
      "byteOffset": 820
    },
    {
      "name": "pCube14_1_11_positions",
      "componentType": 5126,
      "count": 12,
      "min": [
        -14.682110786437988,
        -2.9289538860321045,
        2.1674671173095703
      ],
      "max": [
        -13.774574279785156,
        -1.9904589653015137,
        2.638916015625
      ],
      "type": "VEC3",
      "bufferView": 0,
      "byteOffset": 5388
    },
    {
      "name": "pCube14_1_11_normals",
      "componentType": 5126,
      "count": 12,
      "min": [
        -0.7227158546447754,
        -0.7076368927955627,
        0.6911358833312988
      ],
      "max": [
        0.7210469245910645,
        0.7123399376869202,
        0.7065598368644714
      ],
      "type": "VEC3",
      "bufferView": 1,
      "byteOffset": 5388
    },
    {
      "name": "pCube14_1_11_texcoords",
      "componentType": 5126,
      "count": 12,
      "min": [
        -0.8538879752159119,
        0.02819100022315979
      ],
      "max": [
        -0.31176599860191345,
        0.6282960176467896
      ],
      "type": "VEC2",
      "bufferView": 2,
      "byteOffset": 3592
    },
    {
      "name": "pCube14_1_11_indices",
      "componentType": 5123,
      "count": 12,
      "min": [
        0
      ],
      "max": [
        11
      ],
      "type": "SCALAR",
      "bufferView": 3,
      "byteOffset": 1468
    }
  ],
  "asset": {
    "generator": "obj2gltf",
    "version": "2.0"
  },
  "buffers": [
    {
      "name": "max",
      "byteLength": 16244,
      "uri": "data:application/octet-stream;base64,"
    }
  ],
  "bufferViews": [
    {
      "name": "bufferView_0",
      "buffer": 0,
      "byteLength": 5532,
      "byteOffset": 0,
      "byteStride": 12,
      "target": 34962
    },
    {
      "name": "bufferView_1",
      "buffer": 0,
      "byteLength": 5532,
      "byteOffset": 5532,
      "byteStride": 12,
      "target": 34962
    },
    {
      "name": "bufferView_2",
      "buffer": 0,
      "byteLength": 3688,
      "byteOffset": 11064,
      "byteStride": 8,
      "target": 34962
    },
    {
      "name": "bufferView_3",
      "buffer": 0,
      "byteLength": 1492,
      "byteOffset": 14752,
      "target": 34963
    }
  ],
  "images": [
    {
      "name": "hw_007",
      "uri": "hw_007.jpg"
    },
    {
      "name": "hw_006",
      "uri": "hw_006.jpg"
    },
    {
      "name": "hw_001",
      "uri": "hw_001.jpg"
    },
    {
      "name": "hw_008",
      "uri": "hw_008.jpg"
    },
    {
      "name": "hw_009",
      "uri": "hw_009.jpg"
    },
    {
      "name": "hw_003",
      "uri": "hw_003.jpg"
    },
    {
      "name": "hw_002",
      "uri": "hw_002.jpg"
    },
    {
      "name": "hw_005",
      "uri": "hw_005.jpg"
    },
    {
      "name": "hw_012",
      "uri": "hw_012.png"
    },
    {
      "name": "hw_004",
      "uri": "hw_004.jpg"
    },
    {
      "name": "hw_011",
      "uri": "hw_011.jpg"
    },
    {
      "name": "hw_010",
      "uri": "hw_010.jpg"
    }
  ],
  "materials": [
    {
      "name": "lambert10SG",
      "pbrMetallicRoughness": {
        "baseColorTexture": {
          "index": 0
        },
        "baseColorFactor": [
          1,
          1,
          1,
          1
        ],
        "metallicFactor": 0,
        "roughnessFactor": 1
      },
      "emissiveFactor": [
        0,
        0,
        0
      ],
      "alphaMode": "OPAQUE",
      "doubleSided": false
    },
    {
      "name": "lambert9SG",
      "pbrMetallicRoughness": {
        "baseColorTexture": {
          "index": 1
        },
        "baseColorFactor": [
          1,
          1,
          1,
          1
        ],
        "metallicFactor": 0,
        "roughnessFactor": 1
      },
      "emissiveFactor": [
        0,
        0,
        0
      ],
      "alphaMode": "OPAQUE",
      "doubleSided": false
    },
    {
      "name": "lambert5SG",
      "pbrMetallicRoughness": {
        "baseColorTexture": {
          "index": 2
        },
        "baseColorFactor": [
          1,
          1,
          1,
          1
        ],
        "metallicFactor": 0,
        "roughnessFactor": 1
      },
      "emissiveFactor": [
        0,
        0,
        0
      ],
      "alphaMode": "OPAQUE",
      "doubleSided": false
    },
    {
      "name": "lambert4SG",
      "pbrMetallicRoughness": {
        "baseColorTexture": {
          "index": 3
        },
        "baseColorFactor": [
          1,
          1,
          1,
          1
        ],
        "metallicFactor": 0,
        "roughnessFactor": 1
      },
      "emissiveFactor": [
        0,
        0,
        0
      ],
      "alphaMode": "OPAQUE",
      "doubleSided": false
    },
    {
      "name": "lambert3SG",
      "pbrMetallicRoughness": {
        "baseColorTexture": {
          "index": 4
        },
        "baseColorFactor": [
          1,
          1,
          1,
          1
        ],
        "metallicFactor": 0,
        "roughnessFactor": 1
      },
      "emissiveFactor": [
        0,
        0,
        0
      ],
      "alphaMode": "OPAQUE",
      "doubleSided": false
    },
    {
      "name": "lambert2SG",
      "pbrMetallicRoughness": {
        "baseColorTexture": {
          "index": 5
        },
        "baseColorFactor": [
          1,
          1,
          1,
          1
        ],
        "metallicFactor": 0,
        "roughnessFactor": 1
      },
      "emissiveFactor": [
        0,
        0,
        0
      ],
      "alphaMode": "OPAQUE",
      "doubleSided": false
    },
    {
      "name": "lambert6SG",
      "pbrMetallicRoughness": {
        "baseColorTexture": {
          "index": 6
        },
        "baseColorFactor": [
          1,
          1,
          1,
          1
        ],
        "metallicFactor": 0,
        "roughnessFactor": 1
      },
      "emissiveFactor": [
        0,
        0,
        0
      ],
      "alphaMode": "OPAQUE",
      "doubleSided": false
    },
    {
      "name": "lambert8SG",
      "pbrMetallicRoughness": {
        "baseColorTexture": {
          "index": 7
        },
        "baseColorFactor": [
          1,
          1,
          1,
          1
        ],
        "metallicFactor": 0,
        "roughnessFactor": 1
      },
      "emissiveFactor": [
        0,
        0,
        0
      ],
      "alphaMode": "OPAQUE",
      "doubleSided": false
    },
    {
      "name": "lambert13SG",
      "pbrMetallicRoughness": {
        "baseColorTexture": {
          "index": 8
        },
        "baseColorFactor": [
          1,
          1,
          1,
          1
        ],
        "metallicFactor": 0,
        "roughnessFactor": 1
      },
      "emissiveFactor": [
        0,
        0,
        0
      ],
      "alphaMode": "OPAQUE",
      "doubleSided": false
    },
    {
      "name": "lambert7SG",
      "pbrMetallicRoughness": {
        "baseColorTexture": {
          "index": 9
        },
        "baseColorFactor": [
          1,
          1,
          1,
          1
        ],
        "metallicFactor": 0,
        "roughnessFactor": 1
      },
      "emissiveFactor": [
        0,
        0,
        0
      ],
      "alphaMode": "OPAQUE",
      "doubleSided": false
    },
    {
      "name": "lambert12SG",
      "pbrMetallicRoughness": {
        "baseColorTexture": {
          "index": 10
        },
        "baseColorFactor": [
          1,
          1,
          1,
          1
        ],
        "metallicFactor": 0,
        "roughnessFactor": 1
      },
      "emissiveFactor": [
        0,
        0,
        0
      ],
      "alphaMode": "OPAQUE",
      "doubleSided": false
    },
    {
      "name": "lambert11SG",
      "pbrMetallicRoughness": {
        "baseColorTexture": {
          "index": 11
        },
        "baseColorFactor": [
          1,
          1,
          1,
          1
        ],
        "metallicFactor": 0,
        "roughnessFactor": 1
      },
      "emissiveFactor": [
        0,
        0,
        0
      ],
      "alphaMode": "OPAQUE",
      "doubleSided": false
    }
  ],
  "meshes": [
    {
      "name": "pCube14_1",
      "primitives": [
        {
          "attributes": {
            "POSITION": 0,
            "NORMAL": 1,
            "TEXCOORD_0": 2
          },
          "indices": 3,
          "material": 0,
          "mode": 4
        },
        {
          "attributes": {
            "POSITION": 4,
            "NORMAL": 5,
            "TEXCOORD_0": 6
          },
          "indices": 7,
          "material": 1,
          "mode": 4
        },
        {
          "attributes": {
            "POSITION": 8,
            "NORMAL": 9,
            "TEXCOORD_0": 10
          },
          "indices": 11,
          "material": 2,
          "mode": 4
        },
        {
          "attributes": {
            "POSITION": 12,
            "NORMAL": 13,
            "TEXCOORD_0": 14
          },
          "indices": 15,
          "material": 3,
          "mode": 4
        },
        {
          "attributes": {
            "POSITION": 16,
            "NORMAL": 17,
            "TEXCOORD_0": 18
          },
          "indices": 19,
          "material": 4,
          "mode": 4
        },
        {
          "attributes": {
            "POSITION": 20,
            "NORMAL": 21,
            "TEXCOORD_0": 22
          },
          "indices": 23,
          "material": 5,
          "mode": 4
        },
        {
          "attributes": {
            "POSITION": 24,
            "NORMAL": 25,
            "TEXCOORD_0": 26
          },
          "indices": 27,
          "material": 6,
          "mode": 4
        },
        {
          "attributes": {
            "POSITION": 28,
            "NORMAL": 29,
            "TEXCOORD_0": 30
          },
          "indices": 31,
          "material": 7,
          "mode": 4
        },
        {
          "attributes": {
            "POSITION": 32,
            "NORMAL": 33,
            "TEXCOORD_0": 34
          },
          "indices": 35,
          "material": 8,
          "mode": 4
        },
        {
          "attributes": {
            "POSITION": 36,
            "NORMAL": 37,
            "TEXCOORD_0": 38
          },
          "indices": 39,
          "material": 9,
          "mode": 4
        },
        {
          "attributes": {
            "POSITION": 40,
            "NORMAL": 41,
            "TEXCOORD_0": 42
          },
          "indices": 43,
          "material": 10,
          "mode": 4
        },
        {
          "attributes": {
            "POSITION": 44,
            "NORMAL": 45,
            "TEXCOORD_0": 46
          },
          "indices": 47,
          "material": 11,
          "mode": 4
        }
      ]
    }
  ],
  "nodes": [
    {
      "name": "pCube14",
      "mesh": 0
    }
  ],
  "samplers": [
    {
      "wrapS": 10497,
      "wrapT": 10497
    }
  ],
  "scene": 0,
  "scenes": [
    {
      "nodes": [
        0
      ]
    }
  ],
  "textures": [
    {
      "name": "hw_007",
      "sampler": 0,
      "source": 0
    },
    {
      "name": "hw_006",
      "sampler": 0,
      "source": 1
    },
    {
      "name": "hw_001",
      "sampler": 0,
      "source": 2
    },
    {
      "name": "hw_008",
      "sampler": 0,
      "source": 3
    },
    {
      "name": "hw_009",
      "sampler": 0,
      "source": 4
    },
    {
      "name": "hw_003",
      "sampler": 0,
      "source": 5
    },
    {
      "name": "hw_002",
      "sampler": 0,
      "source": 6
    },
    {
      "name": "hw_005",
      "sampler": 0,
      "source": 7
    },
    {
      "name": "hw_012",
      "sampler": 0,
      "source": 8
    },
    {
      "name": "hw_004",
      "sampler": 0,
      "source": 9
    },
    {
      "name": "hw_011",
      "sampler": 0,
      "source": 10
    },
    {
      "name": "hw_010",
      "sampler": 0,
      "source": 11
    }
  ]
}
