{
  "accessors": [
    {
      "name": "Box002_1_0_positions",
      "componentType": 5126,
      "count": 70,
      "min": [
        -4.206399917602539,
        -3.6486001014709473,
        0
      ],
      "max": [
        4.206399917602539,
        3.6547000408172607,
        3.3422999382019043
      ],
      "type": "VEC3",
      "bufferView": 0,
      "byteOffset": 0
    },
    {
      "name": "Box002_1_0_normals",
      "componentType": 5126,
      "count": 70,
      "min": [
        -1,
        -1,
        -0.2636081576347351
      ],
      "max": [
        1,
        1,
        0.9534314274787903
      ],
      "type": "VEC3",
      "bufferView": 1,
      "byteOffset": 0
    },
    {
      "name": "Box002_1_0_texcoords",
      "componentType": 5126,
      "count": 70,
      "min": [
        -2.4191999435424805,
        -1.9215999841690063
      ],
      "max": [
        3.4191999435424805,
        3.4191999435424805
      ],
      "type": "VEC2",
      "bufferView": 2,
      "byteOffset": 0
    },
    {
      "name": "Box002_1_0_indices",
      "componentType": 5123,
      "count": 84,
      "min": [
        0
      ],
      "max": [
        69
      ],
      "type": "SCALAR",
      "bufferView": 3,
      "byteOffset": 0
    },
    {
      "name": "Box002_1_1_positions",
      "componentType": 5126,
      "count": 8,
      "min": [
        -3.128700017929077,
        3.0069000720977783,
        0
      ],
      "max": [
        3.128700017929077,
        3.4818999767303467,
        3.131700038909912
      ],
      "type": "VEC3",
      "bufferView": 0,
      "byteOffset": 840
    },
    {
      "name": "Box002_1_1_normals",
      "componentType": 5126,
      "count": 8,
      "min": [
        0,
        -1,
        0
      ],
      "max": [
        0,
        -1,
        0
      ],
      "type": "VEC3",
      "bufferView": 1,
      "byteOffset": 840
    },
    {
      "name": "Box002_1_1_texcoords",
      "componentType": 5126,
      "count": 8,
      "min": [
        0,
        0
      ],
      "max": [
        1,
        1
      ],
      "type": "VEC2",
      "bufferView": 2,
      "byteOffset": 560
    },
    {
      "name": "Box002_1_1_indices",
      "componentType": 5123,
      "count": 12,
      "min": [
        0
      ],
      "max": [
        7
      ],
      "type": "SCALAR",
      "bufferView": 3,
      "byteOffset": 168
    },
    {
      "name": "Box002_1_2_positions",
      "componentType": 5126,
      "count": 14,
      "min": [
        -3.128700017929077,
        2.57450008392334,
        1.6359000205993652
      ],
      "max": [
        3.128700017929077,
        3.4818999767303467,
        2.387700080871582
      ],
      "type": "VEC3",
      "bufferView": 0,
      "byteOffset": 936
    },
    {
      "name": "Box002_1_2_normals",
      "componentType": 5126,
      "count": 14,
      "min": [
        0,
        -1,
        -1
      ],
      "max": [
        0,
        0,
        0.9649620056152344
      ],
      "type": "VEC3",
      "bufferView": 1,
      "byteOffset": 936
    },
    {
      "name": "Box002_1_2_texcoords",
      "componentType": 5126,
      "count": 14,
      "min": [
        0,
        0
      ],
      "max": [
        1,
        1
      ],
      "type": "VEC2",
      "bufferView": 2,
      "byteOffset": 624
    },
    {
      "name": "Box002_1_2_indices",
      "componentType": 5123,
      "count": 18,
      "min": [
        0
      ],
      "max": [
        13
      ],
      "type": "SCALAR",
      "bufferView": 3,
      "byteOffset": 192
    },
    {
      "name": "Box002_1_3_positions",
      "componentType": 5126,
      "count": 368,
      "min": [
        -4.206399917602539,
        -3.6547000408172607,
        1.375599980354309
      ],
      "max": [
        4.206399917602539,
        3.6487998962402344,
        3.50819993019104
      ],
      "type": "VEC3",
      "bufferView": 0,
      "byteOffset": 1104
    },
    {
      "name": "Box002_1_3_normals",
      "componentType": 5126,
      "count": 368,
      "min": [
        -1,
        -1,
        -1
      ],
      "max": [
        1,
        1,
        0.9807839393615723
      ],
      "type": "VEC3",
      "bufferView": 1,
      "byteOffset": 1104
    },
    {
      "name": "Box002_1_3_texcoords",
      "componentType": 5126,
      "count": 368,
      "min": [
        -0.6664999723434448,
        -0.11079999804496765
      ],
      "max": [
        1.6664999723434448,
        1.6664999723434448
      ],
      "type": "VEC2",
      "bufferView": 2,
      "byteOffset": 736
    },
    {
      "name": "Box002_1_3_indices",
      "componentType": 5123,
      "count": 660,
      "min": [
        0
      ],
      "max": [
        367
      ],
      "type": "SCALAR",
      "bufferView": 3,
      "byteOffset": 228
    }
  ],
  "asset": {
    "generator": "obj2gltf",
    "version": "2.0"
  },
  "buffers": [
    {
      "name": "Q11_01",
      "byteLength": 16268,
      "uri": "data:application/octet-stream;base64,"
    }
  ],
  "bufferViews": [
    {
      "name": "bufferView_0",
      "buffer": 0,
      "byteLength": 5520,
      "byteOffset": 0,
      "byteStride": 12,
      "target": 34962
    },
    {
      "name": "bufferView_1",
      "buffer": 0,
      "byteLength": 5520,
      "byteOffset": 5520,
      "byteStride": 12,
      "target": 34962
    },
    {
      "name": "bufferView_2",
      "buffer": 0,
      "byteLength": 3680,
      "byteOffset": 11040,
      "byteStride": 8,
      "target": 34962
    },
    {
      "name": "bufferView_3",
      "buffer": 0,
      "byteLength": 1548,
      "byteOffset": 14720,
      "target": 34963
    }
  ],
  "images": [
    {
      "name": "SGY_Q5_015",
      "uri": "SGY_Q5_015.jpg"
    },
    {
      "name": "SGY_Q5_017",
      "uri": "SGY_Q5_017.jpg"
    },
    {
      "name": "sgy_2q_04",
      "uri": "sgy_2q_04.jpg"
    },
    {
      "name": "SGY_q1_075",
      "uri": "SGY_q1_075.jpg"
    }
  ],
  "materials": [
    {
      "name": "Material__76",
      "pbrMetallicRoughness": {
        "baseColorTexture": {
          "index": 0
        },
        "baseColorFactor": [
          1,
          1,
          1,
          1
        ],
        "metallicFactor": 0,
        "roughnessFactor": 0.99
      },
      "emissiveFactor": [
        0,
        0,
        0
      ],
      "alphaMode": "OPAQUE",
      "doubleSided": false
    },
    {
      "name": "Material__123",
      "pbrMetallicRoughness": {
        "baseColorTexture": {
          "index": 1
        },
        "baseColorFactor": [
          1,
          1,
          1,
          1
        ],
        "metallicFactor": 0,
        "roughnessFactor": 0.99
      },
      "emissiveFactor": [
        0,
        0,
        0
      ],
      "alphaMode": "OPAQUE",
      "doubleSided": false
    },
    {
      "name": "Material__111",
      "pbrMetallicRoughness": {
        "baseColorTexture": {
          "index": 2
        },
        "baseColorFactor": [
          1,
          1,
          1,
          1
        ],
        "metallicFactor": 0,
        "roughnessFactor": 0.99
      },
      "emissiveFactor": [
        0,
        0,
        0
      ],
      "alphaMode": "OPAQUE",
      "doubleSided": false
    },
    {
      "name": "Material__75",
      "pbrMetallicRoughness": {
        "baseColorTexture": {
          "index": 3
        },
        "baseColorFactor": [
          1,
          1,
          1,
          1
        ],
        "metallicFactor": 0,
        "roughnessFactor": 0.99
      },
      "emissiveFactor": [
        0,
        0,
        0
      ],
      "alphaMode": "OPAQUE",
      "doubleSided": false
    }
  ],
  "meshes": [
    {
      "name": "Box002_1",
      "primitives": [
        {
          "attributes": {
            "POSITION": 0,
            "NORMAL": 1,
            "TEXCOORD_0": 2
          },
          "indices": 3,
          "material": 0,
          "mode": 4
        },
        {
          "attributes": {
            "POSITION": 4,
            "NORMAL": 5,
            "TEXCOORD_0": 6
          },
          "indices": 7,
          "material": 1,
          "mode": 4
        },
        {
          "attributes": {
            "POSITION": 8,
            "NORMAL": 9,
            "TEXCOORD_0": 10
          },
          "indices": 11,
          "material": 2,
          "mode": 4
        },
        {
          "attributes": {
            "POSITION": 12,
            "NORMAL": 13,
            "TEXCOORD_0": 14
          },
          "indices": 15,
          "material": 3,
          "mode": 4
        }
      ]
    }
  ],
  "nodes": [
    {
      "name": "Box002",
      "mesh": 0
    }
  ],
  "samplers": [
    {
      "wrapS": 10497,
      "wrapT": 10497
    }
  ],
  "scene": 0,
  "scenes": [
    {
      "nodes": [
        0
      ]
    }
  ],
  "textures": [
    {
      "name": "SGY_Q5_015",
      "sampler": 0,
      "source": 0
    },
    {
      "name": "SGY_Q5_017",
      "sampler": 0,
      "source": 1
    },
    {
      "name": "sgy_2q_04",
      "sampler": 0,
      "source": 2
    },
    {
      "name": "SGY_q1_075",
      "sampler": 0,
      "source": 3
    }
  ]
}
