{
  "accessors": [
    {
      "name": "Cone002_1_0_positions",
      "componentType": 5126,
      "count": 44,
      "min": [
        -28.76180076599121,
        -28.76180076599121,
        0
      ],
      "max": [
        28.76180076599121,
        28.76180076599121,
        17.364299774169922
      ],
      "type": "VEC3",
      "bufferView": 0,
      "byteOffset": 0
    },
    {
      "name": "Cone002_1_0_normals",
      "componentType": 5126,
      "count": 44,
      "min": [
        -0.9912226796150208,
        -0.9912226796150208,
        0.13220132887363434
      ],
      "max": [
        0.9912226796150208,
        0.9912226796150208,
        0.18790361285209656
      ],
      "type": "VEC3",
      "bufferView": 1,
      "byteOffset": 0
    },
    {
      "name": "Cone002_1_0_texcoords",
      "componentType": 5126,
      "count": 44,
      "min": [
        -4.8144001960754395,
        0.0003000000142492354
      ],
      "max": [
        7.184100151062012,
        0.9894999861717224
      ],
      "type": "VEC2",
      "bufferView": 2,
      "byteOffset": 0
    },
    {
      "name": "Cone002_1_0_indices",
      "componentType": 5123,
      "count": 120,
      "min": [
        0
      ],
      "max": [
        43
      ],
      "type": "SCALAR",
      "bufferView": 3,
      "byteOffset": 0
    },
    {
      "name": "Cone002_1_1_positions",
      "componentType": 5126,
      "count": 468,
      "min": [
        -26.445600509643555,
        -26.445600509643555,
        17.36400032043457
      ],
      "max": [
        26.445600509643555,
        26.445600509643555,
        104.63819885253906
      ],
      "type": "VEC3",
      "bufferView": 0,
      "byteOffset": 528
    },
    {
      "name": "Cone002_1_1_normals",
      "componentType": 5126,
      "count": 468,
      "min": [
        -1,
        -0.9999105334281921,
        -0.9285326600074768
      ],
      "max": [
        1,
        0.9999105334281921,
        0.9712151885032654
      ],
      "type": "VEC3",
      "bufferView": 1,
      "byteOffset": 528
    },
    {
      "name": "Cone002_1_1_texcoords",
      "componentType": 5126,
      "count": 468,
      "min": [
        -0.8416000008583069,
        -0.6031000018119812
      ],
      "max": [
        1.6087000370025635,
        1.6878999471664429
      ],
      "type": "VEC2",
      "bufferView": 2,
      "byteOffset": 352
    },
    {
      "name": "Cone002_1_1_indices",
      "componentType": 5123,
      "count": 1800,
      "min": [
        0
      ],
      "max": [
        467
      ],
      "type": "SCALAR",
      "bufferView": 3,
      "byteOffset": 240
    },
    {
      "name": "Cone002_1_2_positions",
      "componentType": 5126,
      "count": 41,
      "min": [
        -10.250399589538574,
        -10.430100440979004,
        97.22440338134766
      ],
      "max": [
        10.416600227355957,
        10.430100440979004,
        104.11109924316406
      ],
      "type": "VEC3",
      "bufferView": 0,
      "byteOffset": 6144
    },
    {
      "name": "Cone002_1_2_normals",
      "componentType": 5126,
      "count": 41,
      "min": [
        -0.5540077090263367,
        -0.5506883859634399,
        0.8320348858833313
      ],
      "max": [
        0.5547232627868652,
        0.5506883859634399,
        0.9999987483024597
      ],
      "type": "VEC3",
      "bufferView": 1,
      "byteOffset": 6144
    },
    {
      "name": "Cone002_1_2_texcoords",
      "componentType": 5126,
      "count": 41,
      "min": [
        1.5377999544143677,
        -3.0007998943328857
      ],
      "max": [
        4.651400089263916,
        -1.8150999546051025
      ],
      "type": "VEC2",
      "bufferView": 2,
      "byteOffset": 4096
    },
    {
      "name": "Cone002_1_2_indices",
      "componentType": 5123,
      "count": 60,
      "min": [
        0
      ],
      "max": [
        40
      ],
      "type": "SCALAR",
      "bufferView": 3,
      "byteOffset": 3840
    }
  ],
  "asset": {
    "generator": "obj2gltf",
    "version": "2.0"
  },
  "buffers": [
    {
      "name": "Q4",
      "byteLength": 21656,
      "uri": "data:application/octet-stream;base64,"
    }
  ],
  "bufferViews": [
    {
      "name": "bufferView_0",
      "buffer": 0,
      "byteLength": 6636,
      "byteOffset": 0,
      "byteStride": 12,
      "target": 34962
    },
    {
      "name": "bufferView_1",
      "buffer": 0,
      "byteLength": 6636,
      "byteOffset": 6636,
      "byteStride": 12,
      "target": 34962
    },
    {
      "name": "bufferView_2",
      "buffer": 0,
      "byteLength": 4424,
      "byteOffset": 13272,
      "byteStride": 8,
      "target": 34962
    },
    {
      "name": "bufferView_3",
      "buffer": 0,
      "byteLength": 3960,
      "byteOffset": 17696,
      "target": 34963
    }
  ],
  "images": [
    {
      "name": "SGY_q1_049",
      "uri": "SGY_q1_049.jpg"
    },
    {
      "name": "sgy_1q_09",
      "uri": "sgy_1q_09.jpg"
    },
    {
      "name": "SGY_q1_050",
      "uri": "SGY_q1_050.jpg"
    }
  ],
  "materials": [
    {
      "name": "Material__60",
      "pbrMetallicRoughness": {
        "baseColorTexture": {
          "index": 0
        },
        "baseColorFactor": [
          1,
          1,
          1,
          1
        ],
        "metallicFactor": 0,
        "roughnessFactor": 0.99
      },
      "emissiveFactor": [
        0,
        0,
        0
      ],
      "alphaMode": "OPAQUE",
      "doubleSided": false
    },
    {
      "name": "Material__37",
      "pbrMetallicRoughness": {
        "baseColorTexture": {
          "index": 1
        },
        "baseColorFactor": [
          1,
          1,
          1,
          1
        ],
        "metallicFactor": 0,
        "roughnessFactor": 0.99
      },
      "emissiveFactor": [
        0,
        0,
        0
      ],
      "alphaMode": "OPAQUE",
      "doubleSided": false
    },
    {
      "name": "Material__73",
      "pbrMetallicRoughness": {
        "baseColorTexture": {
          "index": 2
        },
        "baseColorFactor": [
          1,
          1,
          1,
          1
        ],
        "metallicFactor": 0,
        "roughnessFactor": 0.99
      },
      "emissiveFactor": [
        0,
        0,
        0
      ],
      "alphaMode": "OPAQUE",
      "doubleSided": false
    }
  ],
  "meshes": [
    {
      "name": "Cone002_1",
      "primitives": [
        {
          "attributes": {
            "POSITION": 0,
            "NORMAL": 1,
            "TEXCOORD_0": 2
          },
          "indices": 3,
          "material": 0,
          "mode": 4
        },
        {
          "attributes": {
            "POSITION": 4,
            "NORMAL": 5,
            "TEXCOORD_0": 6
          },
          "indices": 7,
          "material": 1,
          "mode": 4
        },
        {
          "attributes": {
            "POSITION": 8,
            "NORMAL": 9,
            "TEXCOORD_0": 10
          },
          "indices": 11,
          "material": 2,
          "mode": 4
        }
      ]
    }
  ],
  "nodes": [
    {
      "name": "Cone002",
      "mesh": 0
    }
  ],
  "samplers": [
    {
      "wrapS": 10497,
      "wrapT": 10497
    }
  ],
  "scene": 0,
  "scenes": [
    {
      "nodes": [
        0
      ]
    }
  ],
  "textures": [
    {
      "name": "SGY_q1_049",
      "sampler": 0,
      "source": 0
    },
    {
      "name": "sgy_1q_09",
      "sampler": 0,
      "source": 1
    },
    {
      "name": "SGY_q1_050",
      "sampler": 0,
      "source": 2
    }
  ]
}
