{
  "accessors": [
    {
      "name": "Box052_1_0_positions",
      "componentType": 5126,
      "count": 104,
      "min": [
        -65,
        -8.758000373840332,
        0
      ],
      "max": [
        65,
        14.241999626159668,
        19.088199615478516
      ],
      "type": "VEC3",
      "bufferView": 0,
      "byteOffset": 0
    },
    {
      "name": "Box052_1_0_normals",
      "componentType": 5126,
      "count": 104,
      "min": [
        -1,
        -1,
        0
      ],
      "max": [
        1,
        1,
        1
      ],
      "type": "VEC3",
      "bufferView": 1,
      "byteOffset": 0
    },
    {
      "name": "Box052_1_0_texcoords",
      "componentType": 5126,
      "count": 104,
      "min": [
        -0.5575000047683716,
        0
      ],
      "max": [
        1.5575000047683716,
        1
      ],
      "type": "VEC2",
      "bufferView": 2,
      "byteOffset": 0
    },
    {
      "name": "Box052_1_0_indices",
      "componentType": 5123,
      "count": 168,
      "min": [
        0
      ],
      "max": [
        103
      ],
      "type": "SCALAR",
      "bufferView": 3,
      "byteOffset": 0
    },
    {
      "name": "Box052_1_1_positions",
      "componentType": 5126,
      "count": 40,
      "min": [
        -65,
        -8.758000373840332,
        0
      ],
      "max": [
        65,
        8.241999626159668,
        6.625199794769287
      ],
      "type": "VEC3",
      "bufferView": 0,
      "byteOffset": 1248
    },
    {
      "name": "Box052_1_1_normals",
      "componentType": 5126,
      "count": 40,
      "min": [
        0,
        -1,
        0
      ],
      "max": [
        0,
        1,
        0
      ],
      "type": "VEC3",
      "bufferView": 1,
      "byteOffset": 1248
    },
    {
      "name": "Box052_1_1_texcoords",
      "componentType": 5126,
      "count": 40,
      "min": [
        -4.581299781799316,
        0
      ],
      "max": [
        5.011000156402588,
        1
      ],
      "type": "VEC2",
      "bufferView": 2,
      "byteOffset": 832
    },
    {
      "name": "Box052_1_1_indices",
      "componentType": 5123,
      "count": 72,
      "min": [
        0
      ],
      "max": [
        39
      ],
      "type": "SCALAR",
      "bufferView": 3,
      "byteOffset": 336
    },
    {
      "name": "Box052_1_2_positions",
      "componentType": 5126,
      "count": 18,
      "min": [
        -65,
        5.242000102996826,
        0
      ],
      "max": [
        65,
        14.241999626159668,
        11.611700057983398
      ],
      "type": "VEC3",
      "bufferView": 0,
      "byteOffset": 1728
    },
    {
      "name": "Box052_1_2_normals",
      "componentType": 5126,
      "count": 18,
      "min": [
        0,
        0,
        0
      ],
      "max": [
        1,
        1,
        0
      ],
      "type": "VEC3",
      "bufferView": 1,
      "byteOffset": 1728
    },
    {
      "name": "Box052_1_2_texcoords",
      "componentType": 5126,
      "count": 18,
      "min": [
        0,
        0
      ],
      "max": [
        1,
        1
      ],
      "type": "VEC2",
      "bufferView": 2,
      "byteOffset": 1152
    },
    {
      "name": "Box052_1_2_indices",
      "componentType": 5123,
      "count": 30,
      "min": [
        0
      ],
      "max": [
        17
      ],
      "type": "SCALAR",
      "bufferView": 3,
      "byteOffset": 480
    },
    {
      "name": "Box052_1_3_positions",
      "componentType": 5126,
      "count": 16,
      "min": [
        -67,
        -10.758000373840332,
        21.088199615478516
      ],
      "max": [
        67,
        4.242000102996826,
        21.088199615478516
      ],
      "type": "VEC3",
      "bufferView": 0,
      "byteOffset": 1944
    },
    {
      "name": "Box052_1_3_normals",
      "componentType": 5126,
      "count": 16,
      "min": [
        0,
        0,
        1
      ],
      "max": [
        0,
        0,
        1
      ],
      "type": "VEC3",
      "bufferView": 1,
      "byteOffset": 1944
    },
    {
      "name": "Box052_1_3_texcoords",
      "componentType": 5126,
      "count": 16,
      "min": [
        -1.931399941444397,
        0
      ],
      "max": [
        2.9314000606536865,
        1
      ],
      "type": "VEC2",
      "bufferView": 2,
      "byteOffset": 1296
    },
    {
      "name": "Box052_1_3_indices",
      "componentType": 5123,
      "count": 24,
      "min": [
        0
      ],
      "max": [
        15
      ],
      "type": "SCALAR",
      "bufferView": 3,
      "byteOffset": 540
    },
    {
      "name": "Box052_1_4_positions",
      "componentType": 5126,
      "count": 248,
      "min": [
        -61.927799224853516,
        -14.241900444030762,
        0
      ],
      "max": [
        61.187400817871094,
        11.241999626159668,
        8.972599983215332
      ],
      "type": "VEC3",
      "bufferView": 0,
      "byteOffset": 2136
    },
    {
      "name": "Box052_1_4_normals",
      "componentType": 5126,
      "count": 248,
      "min": [
        -1,
        -1,
        -1
      ],
      "max": [
        1,
        1,
        1
      ],
      "type": "VEC3",
      "bufferView": 1,
      "byteOffset": 2136
    },
    {
      "name": "Box052_1_4_texcoords",
      "componentType": 5126,
      "count": 248,
      "min": [
        0.1826000064611435,
        -2.0088000297546387
      ],
      "max": [
        0.8173999786376953,
        3.0088000297546387
      ],
      "type": "VEC2",
      "bufferView": 2,
      "byteOffset": 1424
    },
    {
      "name": "Box052_1_4_indices",
      "componentType": 5123,
      "count": 492,
      "min": [
        0
      ],
      "max": [
        247
      ],
      "type": "SCALAR",
      "bufferView": 3,
      "byteOffset": 588
    },
    {
      "name": "Box052_1_5_positions",
      "componentType": 5126,
      "count": 236,
      "min": [
        -68,
        -11.758000373840332,
        4.2947998046875
      ],
      "max": [
        68,
        5.242000102996826,
        22.088199615478516
      ],
      "type": "VEC3",
      "bufferView": 0,
      "byteOffset": 5112
    },
    {
      "name": "Box052_1_5_normals",
      "componentType": 5126,
      "count": 236,
      "min": [
        -1,
        -1,
        -1
      ],
      "max": [
        1,
        1,
        1
      ],
      "type": "VEC3",
      "bufferView": 1,
      "byteOffset": 5112
    },
    {
      "name": "Box052_1_5_texcoords",
      "componentType": 5126,
      "count": 236,
      "min": [
        -7.14300012588501,
        -1.0858999490737915
      ],
      "max": [
        8.142999649047852,
        2.2147998809814453
      ],
      "type": "VEC2",
      "bufferView": 2,
      "byteOffset": 3408
    },
    {
      "name": "Box052_1_5_indices",
      "componentType": 5123,
      "count": 456,
      "min": [
        0
      ],
      "max": [
        235
      ],
      "type": "SCALAR",
      "bufferView": 3,
      "byteOffset": 1572
    },
    {
      "name": "Box052_1_6_positions",
      "componentType": 5126,
      "count": 613,
      "min": [
        -61.601898193359375,
        -13.916099548339844,
        8.972599983215332
      ],
      "max": [
        60.86159896850586,
        -11.417099952697754,
        18.670400619506836
      ],
      "type": "VEC3",
      "bufferView": 0,
      "byteOffset": 7944
    },
    {
      "name": "Box052_1_6_normals",
      "componentType": 5126,
      "count": 613,
      "min": [
        -1,
        -1,
        -1
      ],
      "max": [
        1,
        1,
        1
      ],
      "type": "VEC3",
      "bufferView": 1,
      "byteOffset": 7944
    },
    {
      "name": "Box052_1_6_texcoords",
      "componentType": 5126,
      "count": 613,
      "min": [
        -0.00860000029206276,
        0
      ],
      "max": [
        1.0085999965667725,
        1
      ],
      "type": "VEC2",
      "bufferView": 2,
      "byteOffset": 5296
    },
    {
      "name": "Box052_1_6_indices",
      "componentType": 5123,
      "count": 1128,
      "min": [
        0
      ],
      "max": [
        612
      ],
      "type": "SCALAR",
      "bufferView": 3,
      "byteOffset": 2484
    }
  ],
  "asset": {
    "generator": "obj2gltf",
    "version": "2.0"
  },
  "buffers": [
    {
      "name": "jz13",
      "byteLength": 45540,
      "uri": "data:application/octet-stream;base64,"
    }
  ],
  "bufferViews": [
    {
      "name": "bufferView_0",
      "buffer": 0,
      "byteLength": 15300,
      "byteOffset": 0,
      "byteStride": 12,
      "target": 34962
    },
    {
      "name": "bufferView_1",
      "buffer": 0,
      "byteLength": 15300,
      "byteOffset": 15300,
      "byteStride": 12,
      "target": 34962
    },
    {
      "name": "bufferView_2",
      "buffer": 0,
      "byteLength": 10200,
      "byteOffset": 30600,
      "byteStride": 8,
      "target": 34962
    },
    {
      "name": "bufferView_3",
      "buffer": 0,
      "byteLength": 4740,
      "byteOffset": 40800,
      "target": 34963
    }
  ],
  "images": [
    {
      "name": "sgy_1q_22",
      "uri": "sgy_1q_22.jpg"
    },
    {
      "name": "sgy_1q_24",
      "uri": "sgy_1q_24.jpg"
    },
    {
      "name": "sgy_1q_21",
      "uri": "sgy_1q_21.jpg"
    },
    {
      "name": "011",
      "uri": "011.jpg"
    },
    {
      "name": "sgy_1q_08",
      "uri": "sgy_1q_08.jpg"
    },
    {
      "name": "sgy_1q_23",
      "uri": "sgy_1q_23.jpg"
    },
    {
      "name": "sgy_1q_09",
      "uri": "sgy_1q_09.jpg"
    }
  ],
  "materials": [
    {
      "name": "Material__346",
      "pbrMetallicRoughness": {
        "baseColorTexture": {
          "index": 0
        },
        "baseColorFactor": [
          1,
          1,
          1,
          1
        ],
        "metallicFactor": 0,
        "roughnessFactor": 0.99
      },
      "emissiveFactor": [
        0,
        0,
        0
      ],
      "alphaMode": "OPAQUE",
      "doubleSided": false
    },
    {
      "name": "Material__348",
      "pbrMetallicRoughness": {
        "baseColorTexture": {
          "index": 1
        },
        "baseColorFactor": [
          1,
          1,
          1,
          1
        ],
        "metallicFactor": 0,
        "roughnessFactor": 0.99
      },
      "emissiveFactor": [
        0,
        0,
        0
      ],
      "alphaMode": "OPAQUE",
      "doubleSided": false
    },
    {
      "name": "Material__345",
      "pbrMetallicRoughness": {
        "baseColorTexture": {
          "index": 2
        },
        "baseColorFactor": [
          1,
          1,
          1,
          1
        ],
        "metallicFactor": 0,
        "roughnessFactor": 0.99
      },
      "emissiveFactor": [
        0,
        0,
        0
      ],
      "alphaMode": "OPAQUE",
      "doubleSided": false
    },
    {
      "name": "Material__891",
      "pbrMetallicRoughness": {
        "baseColorTexture": {
          "index": 3
        },
        "baseColorFactor": [
          1,
          1,
          1,
          1
        ],
        "metallicFactor": 0,
        "roughnessFactor": 0.99
      },
      "emissiveFactor": [
        0,
        0,
        0
      ],
      "alphaMode": "OPAQUE",
      "doubleSided": false
    },
    {
      "name": "Material__350",
      "pbrMetallicRoughness": {
        "baseColorTexture": {
          "index": 4
        },
        "baseColorFactor": [
          1,
          1,
          1,
          1
        ],
        "metallicFactor": 0,
        "roughnessFactor": 0.99
      },
      "emissiveFactor": [
        0,
        0,
        0
      ],
      "alphaMode": "OPAQUE",
      "doubleSided": false
    },
    {
      "name": "Material__347",
      "pbrMetallicRoughness": {
        "baseColorTexture": {
          "index": 5
        },
        "baseColorFactor": [
          1,
          1,
          1,
          1
        ],
        "metallicFactor": 0,
        "roughnessFactor": 0.99
      },
      "emissiveFactor": [
        0,
        0,
        0
      ],
      "alphaMode": "OPAQUE",
      "doubleSided": false
    },
    {
      "name": "Material__299",
      "pbrMetallicRoughness": {
        "baseColorTexture": {
          "index": 6
        },
        "baseColorFactor": [
          1,
          1,
          1,
          1
        ],
        "metallicFactor": 0,
        "roughnessFactor": 0.99
      },
      "emissiveFactor": [
        0,
        0,
        0
      ],
      "alphaMode": "OPAQUE",
      "doubleSided": false
    }
  ],
  "meshes": [
    {
      "name": "Box052_1",
      "primitives": [
        {
          "attributes": {
            "POSITION": 0,
            "NORMAL": 1,
            "TEXCOORD_0": 2
          },
          "indices": 3,
          "material": 0,
          "mode": 4
        },
        {
          "attributes": {
            "POSITION": 4,
            "NORMAL": 5,
            "TEXCOORD_0": 6
          },
          "indices": 7,
          "material": 1,
          "mode": 4
        },
        {
          "attributes": {
            "POSITION": 8,
            "NORMAL": 9,
            "TEXCOORD_0": 10
          },
          "indices": 11,
          "material": 2,
          "mode": 4
        },
        {
          "attributes": {
            "POSITION": 12,
            "NORMAL": 13,
            "TEXCOORD_0": 14
          },
          "indices": 15,
          "material": 3,
          "mode": 4
        },
        {
          "attributes": {
            "POSITION": 16,
            "NORMAL": 17,
            "TEXCOORD_0": 18
          },
          "indices": 19,
          "material": 4,
          "mode": 4
        },
        {
          "attributes": {
            "POSITION": 20,
            "NORMAL": 21,
            "TEXCOORD_0": 22
          },
          "indices": 23,
          "material": 5,
          "mode": 4
        },
        {
          "attributes": {
            "POSITION": 24,
            "NORMAL": 25,
            "TEXCOORD_0": 26
          },
          "indices": 27,
          "material": 6,
          "mode": 4
        }
      ]
    }
  ],
  "nodes": [
    {
      "name": "Box052",
      "mesh": 0
    }
  ],
  "samplers": [
    {
      "wrapS": 10497,
      "wrapT": 10497
    }
  ],
  "scene": 0,
  "scenes": [
    {
      "nodes": [
        0
      ]
    }
  ],
  "textures": [
    {
      "name": "sgy_1q_22",
      "sampler": 0,
      "source": 0
    },
    {
      "name": "sgy_1q_24",
      "sampler": 0,
      "source": 1
    },
    {
      "name": "sgy_1q_21",
      "sampler": 0,
      "source": 2
    },
    {
      "name": "011",
      "sampler": 0,
      "source": 3
    },
    {
      "name": "sgy_1q_08",
      "sampler": 0,
      "source": 4
    },
    {
      "name": "sgy_1q_23",
      "sampler": 0,
      "source": 5
    },
    {
      "name": "sgy_1q_09",
      "sampler": 0,
      "source": 6
    }
  ]
}
