{
  "accessors": [
    {
      "name": "Box002_1_0_positions",
      "componentType": 5126,
      "count": 163,
      "min": [
        -10,
        -12.5,
        1.4393999576568604
      ],
      "max": [
        10,
        15.5,
        26.37820053100586
      ],
      "type": "VEC3",
      "bufferView": 0,
      "byteOffset": 0
    },
    {
      "name": "Box002_1_0_normals",
      "componentType": 5126,
      "count": 163,
      "min": [
        -1,
        -1,
        0
      ],
      "max": [
        1,
        1,
        1
      ],
      "type": "VEC3",
      "bufferView": 1,
      "byteOffset": 0
    },
    {
      "name": "Box002_1_0_texcoords",
      "componentType": 5126,
      "count": 163,
      "min": [
        -1.9088000059127808,
        -3.977099895477295
      ],
      "max": [
        2.908799886703491,
        2.908799886703491
      ],
      "type": "VEC2",
      "bufferView": 2,
      "byteOffset": 0
    },
    {
      "name": "Box002_1_0_indices",
      "componentType": 5123,
      "count": 351,
      "min": [
        0
      ],
      "max": [
        162
      ],
      "type": "SCALAR",
      "bufferView": 3,
      "byteOffset": 0
    },
    {
      "name": "Box002_1_1_positions",
      "componentType": 5126,
      "count": 27,
      "min": [
        -10,
        -12.5,
        0
      ],
      "max": [
        10,
        15.5,
        1.4393999576568604
      ],
      "type": "VEC3",
      "bufferView": 0,
      "byteOffset": 1956
    },
    {
      "name": "Box002_1_1_normals",
      "componentType": 5126,
      "count": 27,
      "min": [
        -1,
        -1,
        0
      ],
      "max": [
        1,
        1,
        0
      ],
      "type": "VEC3",
      "bufferView": 1,
      "byteOffset": 1956
    },
    {
      "name": "Box002_1_1_texcoords",
      "componentType": 5126,
      "count": 27,
      "min": [
        -1.9088000059127808,
        2.539099931716919
      ],
      "max": [
        2.908799886703491,
        2.9151999950408936
      ],
      "type": "VEC2",
      "bufferView": 2,
      "byteOffset": 1304
    },
    {
      "name": "Box002_1_1_indices",
      "componentType": 5123,
      "count": 45,
      "min": [
        0
      ],
      "max": [
        26
      ],
      "type": "SCALAR",
      "bufferView": 3,
      "byteOffset": 704
    },
    {
      "name": "Box002_1_2_positions",
      "componentType": 5126,
      "count": 43,
      "min": [
        -10,
        -12.5,
        1.4393999576568604
      ],
      "max": [
        10,
        15.5,
        26.37820053100586
      ],
      "type": "VEC3",
      "bufferView": 0,
      "byteOffset": 2280
    },
    {
      "name": "Box002_1_2_normals",
      "componentType": 5126,
      "count": 43,
      "min": [
        -1,
        -1,
        -1
      ],
      "max": [
        1,
        1,
        0
      ],
      "type": "VEC3",
      "bufferView": 1,
      "byteOffset": 2280
    },
    {
      "name": "Box002_1_2_texcoords",
      "componentType": 5126,
      "count": 43,
      "min": [
        -1.9088000059127808,
        -3.977099895477295
      ],
      "max": [
        2.7578999996185303,
        2.539099931716919
      ],
      "type": "VEC2",
      "bufferView": 2,
      "byteOffset": 1520
    },
    {
      "name": "Box002_1_2_indices",
      "componentType": 5123,
      "count": 75,
      "min": [
        0
      ],
      "max": [
        42
      ],
      "type": "SCALAR",
      "bufferView": 3,
      "byteOffset": 796
    }
  ],
  "asset": {
    "generator": "obj2gltf",
    "version": "2.0"
  },
  "buffers": [
    {
      "name": "jz02",
      "byteLength": 8404,
      "uri": "data:application/octet-stream;base64,"
    }
  ],
  "bufferViews": [
    {
      "name": "bufferView_0",
      "buffer": 0,
      "byteLength": 2796,
      "byteOffset": 0,
      "byteStride": 12,
      "target": 34962
    },
    {
      "name": "bufferView_1",
      "buffer": 0,
      "byteLength": 2796,
      "byteOffset": 2796,
      "byteStride": 12,
      "target": 34962
    },
    {
      "name": "bufferView_2",
      "buffer": 0,
      "byteLength": 1864,
      "byteOffset": 5592,
      "byteStride": 8,
      "target": 34962
    },
    {
      "name": "bufferView_3",
      "buffer": 0,
      "byteLength": 948,
      "byteOffset": 7456,
      "target": 34963
    }
  ],
  "images": [
    {
      "name": "sgy_1q_06",
      "uri": "sgy_1q_06.jpg"
    },
    {
      "name": "sgy_1q_07",
      "uri": "sgy_1q_07.jpg"
    },
    {
      "name": "sgy_1q_05",
      "uri": "sgy_1q_05.jpg"
    }
  ],
  "materials": [
    {
      "name": "Material__251",
      "pbrMetallicRoughness": {
        "baseColorTexture": {
          "index": 0
        },
        "baseColorFactor": [
          1,
          1,
          1,
          1
        ],
        "metallicFactor": 0,
        "roughnessFactor": 0.99
      },
      "emissiveFactor": [
        0,
        0,
        0
      ],
      "alphaMode": "OPAQUE",
      "doubleSided": false
    },
    {
      "name": "Material__252",
      "pbrMetallicRoughness": {
        "baseColorTexture": {
          "index": 1
        },
        "baseColorFactor": [
          1,
          1,
          1,
          1
        ],
        "metallicFactor": 0,
        "roughnessFactor": 0.99
      },
      "emissiveFactor": [
        0,
        0,
        0
      ],
      "alphaMode": "OPAQUE",
      "doubleSided": false
    },
    {
      "name": "Material__250",
      "pbrMetallicRoughness": {
        "baseColorTexture": {
          "index": 2
        },
        "baseColorFactor": [
          1,
          1,
          1,
          1
        ],
        "metallicFactor": 0,
        "roughnessFactor": 0.99
      },
      "emissiveFactor": [
        0,
        0,
        0
      ],
      "alphaMode": "OPAQUE",
      "doubleSided": false
    }
  ],
  "meshes": [
    {
      "name": "Box002_1",
      "primitives": [
        {
          "attributes": {
            "POSITION": 0,
            "NORMAL": 1,
            "TEXCOORD_0": 2
          },
          "indices": 3,
          "material": 0,
          "mode": 4
        },
        {
          "attributes": {
            "POSITION": 4,
            "NORMAL": 5,
            "TEXCOORD_0": 6
          },
          "indices": 7,
          "material": 1,
          "mode": 4
        },
        {
          "attributes": {
            "POSITION": 8,
            "NORMAL": 9,
            "TEXCOORD_0": 10
          },
          "indices": 11,
          "material": 2,
          "mode": 4
        }
      ]
    }
  ],
  "nodes": [
    {
      "name": "Box002",
      "mesh": 0
    }
  ],
  "samplers": [
    {
      "wrapS": 10497,
      "wrapT": 10497
    }
  ],
  "scene": 0,
  "scenes": [
    {
      "nodes": [
        0
      ]
    }
  ],
  "textures": [
    {
      "name": "sgy_1q_06",
      "sampler": 0,
      "source": 0
    },
    {
      "name": "sgy_1q_07",
      "sampler": 0,
      "source": 1
    },
    {
      "name": "sgy_1q_05",
      "sampler": 0,
      "source": 2
    }
  ]
}
