{
  "accessors": [
    {
      "name": "Box002_1_0_positions",
      "componentType": 5126,
      "count": 13384,
      "min": [
        -184.9210968017578,
        -6.419300079345703,
        0
      ],
      "max": [
        184.9210968017578,
        6.419300079345703,
        77.46759796142578
      ],
      "type": "VEC3",
      "bufferView": 0,
      "byteOffset": 0
    },
    {
      "name": "Box002_1_0_normals",
      "componentType": 5126,
      "count": 13384,
      "min": [
        -1,
        -1,
        -1
      ],
      "max": [
        1,
        1,
        1
      ],
      "type": "VEC3",
      "bufferView": 1,
      "byteOffset": 0
    },
    {
      "name": "Box002_1_0_texcoords",
      "componentType": 5126,
      "count": 13384,
      "min": [
        0.34779998660087585,
        0.3450999855995178
      ],
      "max": [
        0.6146000027656555,
        0.6563000082969666
      ],
      "type": "VEC2",
      "bufferView": 2,
      "byteOffset": 0
    },
    {
      "name": "Box002_1_0_indices",
      "componentType": 5123,
      "count": 33696,
      "min": [
        0
      ],
      "max": [
        13383
      ],
      "type": "SCALAR",
      "bufferView": 3,
      "byteOffset": 0
    }
  ],
  "asset": {
    "generator": "obj2gltf",
    "version": "2.0"
  },
  "buffers": [
    {
      "name": "Q10",
      "byteLength": 495680,
      "uri": "data:application/octet-stream;base64,"
    }
  ],
  "bufferViews": [
    {
      "name": "bufferView_0",
      "buffer": 0,
      "byteLength": 160608,
      "byteOffset": 0,
      "byteStride": 12,
      "target": 34962
    },
    {
      "name": "bufferView_1",
      "buffer": 0,
      "byteLength": 160608,
      "byteOffset": 160608,
      "byteStride": 12,
      "target": 34962
    },
    {
      "name": "bufferView_2",
      "buffer": 0,
      "byteLength": 107072,
      "byteOffset": 321216,
      "byteStride": 8,
      "target": 34962
    },
    {
      "name": "bufferView_3",
      "buffer": 0,
      "byteLength": 67392,
      "byteOffset": 428288,
      "target": 34963
    }
  ],
  "images": [
    {
      "name": "SGY_Q2_003",
      "uri": "SGY_Q2_003.jpg"
    }
  ],
  "materials": [
    {
      "name": "Material__46",
      "pbrMetallicRoughness": {
        "baseColorTexture": {
          "index": 0
        },
        "baseColorFactor": [
          1,
          1,
          1,
          1
        ],
        "metallicFactor": 0,
        "roughnessFactor": 0.99
      },
      "emissiveFactor": [
        0,
        0,
        0
      ],
      "alphaMode": "OPAQUE",
      "doubleSided": false
    }
  ],
  "meshes": [
    {
      "name": "Box002_1",
      "primitives": [
        {
          "attributes": {
            "POSITION": 0,
            "NORMAL": 1,
            "TEXCOORD_0": 2
          },
          "indices": 3,
          "material": 0,
          "mode": 4
        }
      ]
    }
  ],
  "nodes": [
    {
      "name": "Box002",
      "mesh": 0
    }
  ],
  "samplers": [
    {
      "wrapS": 10497,
      "wrapT": 10497
    }
  ],
  "scene": 0,
  "scenes": [
    {
      "nodes": [
        0
      ]
    }
  ],
  "textures": [
    {
      "name": "SGY_Q2_003",
      "sampler": 0,
      "source": 0
    }
  ]
}
