{
  "accessors": [
    {
      "name": "baibian_1_0_positions",
      "componentType": 5126,
      "count": 96,
      "min": [
        -5.369542121887207,
        4.883400917053223,
        -9.942712783813477
      ],
      "max": [
        5.369542121887207,
        5.2978410720825195,
        28.75126838684082
      ],
      "type": "VEC3",
      "bufferView": 0,
      "byteOffset": 0
    },
    {
      "name": "baibian_1_0_normals",
      "componentType": 5126,
      "count": 96,
      "min": [
        -1,
        -1,
        -1
      ],
      "max": [
        1,
        1,
        1
      ],
      "type": "VEC3",
      "bufferView": 1,
      "byteOffset": 0
    },
    {
      "name": "baibian_1_0_texcoords",
      "componentType": 5126,
      "count": 96,
      "min": [
        -7.274456977844238,
        0.10441499948501587
      ],
      "max": [
        8.275687217712402,
        1
      ],
      "type": "VEC2",
      "bufferView": 2,
      "byteOffset": 0
    },
    {
      "name": "baibian_1_0_indices",
      "componentType": 5123,
      "count": 204,
      "min": [
        0
      ],
      "max": [
        95
      ],
      "type": "SCALAR",
      "bufferView": 3,
      "byteOffset": 0
    },
    {
      "name": "wa1_1_0_positions",
      "componentType": 5126,
      "count": 36,
      "min": [
        -6.104578018188477,
        6.344298839569092,
        -10.328676223754883
      ],
      "max": [
        6.104578018188477,
        8.876180648803711,
        29.22281837463379
      ],
      "type": "VEC3",
      "bufferView": 0,
      "byteOffset": 1152
    },
    {
      "name": "wa1_1_0_normals",
      "componentType": 5126,
      "count": 36,
      "min": [
        -0.9237021803855896,
        -0.9237570762634277,
        -0.9999976754188538
      ],
      "max": [
        0.9237013459205627,
        0.9237570762634277,
        0.9999976754188538
      ],
      "type": "VEC3",
      "bufferView": 1,
      "byteOffset": 1152
    },
    {
      "name": "wa1_1_0_texcoords",
      "componentType": 5126,
      "count": 36,
      "min": [
        -3.675539016723633,
        1.4335559606552124
      ],
      "max": [
        4.675539016723633,
        3.091439962387085
      ],
      "type": "VEC2",
      "bufferView": 2,
      "byteOffset": 768
    },
    {
      "name": "wa1_1_0_indices",
      "componentType": 5123,
      "count": 60,
      "min": [
        0
      ],
      "max": [
        35
      ],
      "type": "SCALAR",
      "bufferView": 3,
      "byteOffset": 408
    },
    {
      "name": "polySurface81_1_0_positions",
      "componentType": 5126,
      "count": 32,
      "min": [
        -5.476720809936523,
        6.2986159324646,
        -10.153461456298828
      ],
      "max": [
        5.40385103225708,
        8.751072883605957,
        29.119117736816406
      ],
      "type": "VEC3",
      "bufferView": 0,
      "byteOffset": 1584
    },
    {
      "name": "polySurface81_1_0_normals",
      "componentType": 5126,
      "count": 32,
      "min": [
        -0.923012912273407,
        -0.9230125546455383,
        -1
      ],
      "max": [
        0.9230124354362488,
        0,
        1
      ],
      "type": "VEC3",
      "bufferView": 1,
      "byteOffset": 1584
    },
    {
      "name": "polySurface81_1_0_texcoords",
      "componentType": 5126,
      "count": 32,
      "min": [
        -6.679336071014404,
        -1.6655060052871704
      ],
      "max": [
        5.177990913391113,
        1.566851019859314
      ],
      "type": "VEC2",
      "bufferView": 2,
      "byteOffset": 1056
    },
    {
      "name": "polySurface81_1_0_indices",
      "componentType": 5123,
      "count": 48,
      "min": [
        0
      ],
      "max": [
        31
      ],
      "type": "SCALAR",
      "bufferView": 3,
      "byteOffset": 528
    },
    {
      "name": "qiang_1_0_positions",
      "componentType": 5126,
      "count": 237,
      "min": [
        -5.332131862640381,
        0.46337100863456726,
        -9.904866218566895
      ],
      "max": [
        5.332131862640381,
        8.42986011505127,
        28.745702743530273
      ],
      "type": "VEC3",
      "bufferView": 0,
      "byteOffset": 1968
    },
    {
      "name": "qiang_1_0_normals",
      "componentType": 5126,
      "count": 237,
      "min": [
        -0.000009000000318337698,
        -1,
        -1
      ],
      "max": [
        0.000003999999989900971,
        0.000003000000106112566,
        1
      ],
      "type": "VEC3",
      "bufferView": 1,
      "byteOffset": 1968
    },
    {
      "name": "qiang_1_0_texcoords",
      "componentType": 5126,
      "count": 237,
      "min": [
        -1.0061589479446411,
        -1.7767950296401978
      ],
      "max": [
        6.803802013397217,
        2.1126089096069336
      ],
      "type": "VEC2",
      "bufferView": 2,
      "byteOffset": 1312
    },
    {
      "name": "qiang_1_0_indices",
      "componentType": 5123,
      "count": 405,
      "min": [
        0
      ],
      "max": [
        236
      ],
      "type": "SCALAR",
      "bufferView": 3,
      "byteOffset": 624
    },
    {
      "name": "qiang_1_1_positions",
      "componentType": 5126,
      "count": 75,
      "min": [
        -5.332131862640381,
        0.46337100863456726,
        -9.904865264892578
      ],
      "max": [
        5.332131862640381,
        6.207091808319092,
        28.745702743530273
      ],
      "type": "VEC3",
      "bufferView": 0,
      "byteOffset": 4812
    },
    {
      "name": "qiang_1_1_normals",
      "componentType": 5126,
      "count": 75,
      "min": [
        -1,
        -9.999999974752427e-7,
        0
      ],
      "max": [
        1,
        0,
        0
      ],
      "type": "VEC3",
      "bufferView": 1,
      "byteOffset": 4812
    },
    {
      "name": "qiang_1_1_texcoords",
      "componentType": 5126,
      "count": 75,
      "min": [
        -2.9658689498901367,
        -0.14775800704956055
      ],
      "max": [
        4.1976799964904785,
        1.048341989517212
      ],
      "type": "VEC2",
      "bufferView": 2,
      "byteOffset": 3208
    },
    {
      "name": "qiang_1_1_indices",
      "componentType": 5123,
      "count": 123,
      "min": [
        0
      ],
      "max": [
        74
      ],
      "type": "SCALAR",
      "bufferView": 3,
      "byteOffset": 1436
    },
    {
      "name": "qiang_1_2_positions",
      "componentType": 5126,
      "count": 8,
      "min": [
        -3.332390069961548,
        0.46337100863456726,
        28.74570083618164
      ],
      "max": [
        0,
        4.487646102905273,
        28.745702743530273
      ],
      "type": "VEC3",
      "bufferView": 0,
      "byteOffset": 5712
    },
    {
      "name": "qiang_1_2_normals",
      "componentType": 5126,
      "count": 8,
      "min": [
        0,
        0,
        1
      ],
      "max": [
        9.999999974752427e-7,
        0,
        1
      ],
      "type": "VEC3",
      "bufferView": 1,
      "byteOffset": 5712
    },
    {
      "name": "qiang_1_2_texcoords",
      "componentType": 5126,
      "count": 8,
      "min": [
        -0.030750999227166176,
        0.09350399672985077
      ],
      "max": [
        0.7928850054740906,
        1.0861430168151855
      ],
      "type": "VEC2",
      "bufferView": 2,
      "byteOffset": 3808
    },
    {
      "name": "qiang_1_2_indices",
      "componentType": 5123,
      "count": 12,
      "min": [
        0
      ],
      "max": [
        7
      ],
      "type": "SCALAR",
      "bufferView": 3,
      "byteOffset": 1684
    },
    {
      "name": "qiang_1_3_positions",
      "componentType": 5126,
      "count": 4,
      "min": [
        0,
        0.46337100863456726,
        28.74570083618164
      ],
      "max": [
        1.5996400117874146,
        4.487646102905273,
        28.745702743530273
      ],
      "type": "VEC3",
      "bufferView": 0,
      "byteOffset": 5808
    },
    {
      "name": "qiang_1_3_normals",
      "componentType": 5126,
      "count": 4,
      "min": [
        0,
        0,
        1
      ],
      "max": [
        0,
        0,
        1
      ],
      "type": "VEC3",
      "bufferView": 1,
      "byteOffset": 5808
    },
    {
      "name": "qiang_1_3_texcoords",
      "componentType": 5126,
      "count": 4,
      "min": [
        0.27510398626327515,
        0.09140600264072418
      ],
      "max": [
        0.7420539855957031,
        1.0817710161209106
      ],
      "type": "VEC2",
      "bufferView": 2,
      "byteOffset": 3872
    },
    {
      "name": "qiang_1_3_indices",
      "componentType": 5123,
      "count": 6,
      "min": [
        0
      ],
      "max": [
        3
      ],
      "type": "SCALAR",
      "bufferView": 3,
      "byteOffset": 1708
    },
    {
      "name": "qiang_1_4_positions",
      "componentType": 5126,
      "count": 11,
      "min": [
        3.344360113143921,
        0.46337100863456726,
        28.74570083618164
      ],
      "max": [
        5.332131862640381,
        4.487637996673584,
        28.745704650878906
      ],
      "type": "VEC3",
      "bufferView": 0,
      "byteOffset": 5856
    },
    {
      "name": "qiang_1_4_normals",
      "componentType": 5126,
      "count": 11,
      "min": [
        -0.000009000000318337698,
        -9.999999974752427e-7,
        1
      ],
      "max": [
        9.999999974752427e-7,
        9.999999974752427e-7,
        1
      ],
      "type": "VEC3",
      "bufferView": 1,
      "byteOffset": 5856
    },
    {
      "name": "qiang_1_4_texcoords",
      "componentType": 5126,
      "count": 11,
      "min": [
        -0.02414100058376789,
        -0.917186975479126
      ],
      "max": [
        0.9561589956283569,
        1.9908809661865234
      ],
      "type": "VEC2",
      "bufferView": 2,
      "byteOffset": 3904
    },
    {
      "name": "qiang_1_4_indices",
      "componentType": 5123,
      "count": 15,
      "min": [
        0
      ],
      "max": [
        10
      ],
      "type": "SCALAR",
      "bufferView": 3,
      "byteOffset": 1720
    },
    {
      "name": "qiang_1_5_positions",
      "componentType": 5126,
      "count": 7,
      "min": [
        1.5996400117874146,
        0.46337100863456726,
        28.745702743530273
      ],
      "max": [
        3.344360113143921,
        4.48764181137085,
        28.745704650878906
      ],
      "type": "VEC3",
      "bufferView": 0,
      "byteOffset": 5988
    },
    {
      "name": "qiang_1_5_normals",
      "componentType": 5126,
      "count": 7,
      "min": [
        0,
        0,
        1
      ],
      "max": [
        9.999999974752427e-7,
        9.999999974752427e-7,
        1
      ],
      "type": "VEC3",
      "bufferView": 1,
      "byteOffset": 5988
    },
    {
      "name": "qiang_1_5_texcoords",
      "componentType": 5126,
      "count": 7,
      "min": [
        -0.0030060000717639923,
        0.045524001121520996
      ],
      "max": [
        1.0384949445724487,
        0.9987419843673706
      ],
      "type": "VEC2",
      "bufferView": 2,
      "byteOffset": 3992
    },
    {
      "name": "qiang_1_5_indices",
      "componentType": 5123,
      "count": 9,
      "min": [
        0
      ],
      "max": [
        6
      ],
      "type": "SCALAR",
      "bufferView": 3,
      "byteOffset": 1752
    },
    {
      "name": "qiang_1_6_positions",
      "componentType": 5126,
      "count": 4,
      "min": [
        3.344360113143921,
        0.46337100863456726,
        28.745702743530273
      ],
      "max": [
        5.104753017425537,
        3.2898030281066895,
        28.745704650878906
      ],
      "type": "VEC3",
      "bufferView": 0,
      "byteOffset": 6072
    },
    {
      "name": "qiang_1_6_normals",
      "componentType": 5126,
      "count": 4,
      "min": [
        0,
        0,
        1
      ],
      "max": [
        0,
        0,
        1
      ],
      "type": "VEC3",
      "bufferView": 1,
      "byteOffset": 6072
    },
    {
      "name": "qiang_1_6_texcoords",
      "componentType": 5126,
      "count": 4,
      "min": [
        -0.006905999965965748,
        0.0024999999441206455
      ],
      "max": [
        1.022428035736084,
        0.9818260073661804
      ],
      "type": "VEC2",
      "bufferView": 2,
      "byteOffset": 4048
    },
    {
      "name": "qiang_1_6_indices",
      "componentType": 5123,
      "count": 6,
      "min": [
        0
      ],
      "max": [
        3
      ],
      "type": "SCALAR",
      "bufferView": 3,
      "byteOffset": 1772
    },
    {
      "name": "qiang_1_7_positions",
      "componentType": 5126,
      "count": 8,
      "min": [
        -0.6357079744338989,
        5.28715181350708,
        28.74570083618164
      ],
      "max": [
        0.5938500165939331,
        7.763029098510742,
        28.745702743530273
      ],
      "type": "VEC3",
      "bufferView": 0,
      "byteOffset": 6120
    },
    {
      "name": "qiang_1_7_normals",
      "componentType": 5126,
      "count": 8,
      "min": [
        -0.000004999999873689376,
        -9.999999974752427e-7,
        1
      ],
      "max": [
        0.000003999999989900971,
        0,
        1
      ],
      "type": "VEC3",
      "bufferView": 1,
      "byteOffset": 6120
    },
    {
      "name": "qiang_1_7_texcoords",
      "componentType": 5126,
      "count": 8,
      "min": [
        0.3412669897079468,
        0.10537300258874893
      ],
      "max": [
        0.6885089874267578,
        0.9722970128059387
      ],
      "type": "VEC2",
      "bufferView": 2,
      "byteOffset": 4080
    },
    {
      "name": "qiang_1_7_indices",
      "componentType": 5123,
      "count": 12,
      "min": [
        0
      ],
      "max": [
        7
      ],
      "type": "SCALAR",
      "bufferView": 3,
      "byteOffset": 1784
    },
    {
      "name": "qiang_1_8_positions",
      "componentType": 5126,
      "count": 14,
      "min": [
        -5.332129001617432,
        0.46337100863456726,
        -8.626047134399414
      ],
      "max": [
        5.332129001617432,
        5.3535990715026855,
        -5.294097900390625
      ],
      "type": "VEC3",
      "bufferView": 0,
      "byteOffset": 6216
    },
    {
      "name": "qiang_1_8_normals",
      "componentType": 5126,
      "count": 14,
      "min": [
        -1,
        0,
        0
      ],
      "max": [
        1,
        0,
        0
      ],
      "type": "VEC3",
      "bufferView": 1,
      "byteOffset": 6216
    },
    {
      "name": "qiang_1_8_texcoords",
      "componentType": 5126,
      "count": 14,
      "min": [
        0.07933200150728226,
        0.021405000239610672
      ],
      "max": [
        0.9104660153388977,
        0.986856997013092
      ],
      "type": "VEC2",
      "bufferView": 2,
      "byteOffset": 4144
    },
    {
      "name": "qiang_1_8_indices",
      "componentType": 5123,
      "count": 24,
      "min": [
        0
      ],
      "max": [
        13
      ],
      "type": "SCALAR",
      "bufferView": 3,
      "byteOffset": 1808
    },
    {
      "name": "qiang_1_9_positions",
      "componentType": 5126,
      "count": 8,
      "min": [
        5.332129001617432,
        0.46337100863456726,
        -9.904865264892578
      ],
      "max": [
        5.332129001617432,
        4.842289924621582,
        -8.626046180725098
      ],
      "type": "VEC3",
      "bufferView": 0,
      "byteOffset": 6384
    },
    {
      "name": "qiang_1_9_normals",
      "componentType": 5126,
      "count": 8,
      "min": [
        1,
        0,
        0
      ],
      "max": [
        1,
        0,
        0
      ],
      "type": "VEC3",
      "bufferView": 1,
      "byteOffset": 6384
    },
    {
      "name": "qiang_1_9_texcoords",
      "componentType": 5126,
      "count": 8,
      "min": [
        0.8719260096549988,
        0.16670799255371094
      ],
      "max": [
        0.9965280294418335,
        0.9261689782142639
      ],
      "type": "VEC2",
      "bufferView": 2,
      "byteOffset": 4256
    },
    {
      "name": "qiang_1_9_indices",
      "componentType": 5123,
      "count": 12,
      "min": [
        0
      ],
      "max": [
        7
      ],
      "type": "SCALAR",
      "bufferView": 3,
      "byteOffset": 1856
    },
    {
      "name": "yingyeshijian1_1_0_positions",
      "componentType": 5126,
      "count": 20,
      "min": [
        -4.77594518661499,
        2.8316988945007324,
        28.548351287841797
      ],
      "max": [
        -3.775944948196411,
        3.8316988945007324,
        28.76795196533203
      ],
      "type": "VEC3",
      "bufferView": 0,
      "byteOffset": 6480
    },
    {
      "name": "yingyeshijian1_1_0_normals",
      "componentType": 5126,
      "count": 20,
      "min": [
        -1,
        -1,
        0
      ],
      "max": [
        1,
        1,
        1
      ],
      "type": "VEC3",
      "bufferView": 1,
      "byteOffset": 6480
    },
    {
      "name": "yingyeshijian1_1_0_texcoords",
      "componentType": 5126,
      "count": 20,
      "min": [
        -0.03697200119495392,
        -0.03031099960207939
      ],
      "max": [
        1.1131130456924438,
        1.0303109884262085
      ],
      "type": "VEC2",
      "bufferView": 2,
      "byteOffset": 4320
    },
    {
      "name": "yingyeshijian1_1_0_indices",
      "componentType": 5123,
      "count": 30,
      "min": [
        0
      ],
      "max": [
        19
      ],
      "type": "SCALAR",
      "bufferView": 3,
      "byteOffset": 1880
    },
    {
      "name": "zimu_1_0_positions",
      "componentType": 5126,
      "count": 972,
      "min": [
        1.7110600471496582,
        5.15340518951416,
        30.91973114013672
      ],
      "max": [
        2.8615870475769043,
        5.320476055145264,
        31.019731521606445
      ],
      "type": "VEC3",
      "bufferView": 0,
      "byteOffset": 6720
    },
    {
      "name": "zimu_1_0_normals",
      "componentType": 5126,
      "count": 972,
      "min": [
        -1,
        -1,
        -1
      ],
      "max": [
        1,
        1,
        1
      ],
      "type": "VEC3",
      "bufferView": 1,
      "byteOffset": 6720
    },
    {
      "name": "zimu_1_0_texcoords",
      "componentType": 5126,
      "count": 972,
      "min": [
        0.06774800270795822,
        0.018776999786496162
      ],
      "max": [
        0.7635890245437622,
        0.26300299167633057
      ],
      "type": "VEC2",
      "bufferView": 2,
      "byteOffset": 4480
    },
    {
      "name": "zimu_1_0_indices",
      "componentType": 5123,
      "count": 2244,
      "min": [
        0
      ],
      "max": [
        971
      ],
      "type": "SCALAR",
      "bufferView": 3,
      "byteOffset": 1940
    },
    {
      "name": "polySurface137_1_0_positions",
      "componentType": 5126,
      "count": 32,
      "min": [
        -5.450202941894531,
        6.096078872680664,
        -10.0576810836792
      ],
      "max": [
        5.399197101593018,
        8.541509628295898,
        28.844430923461914
      ],
      "type": "VEC3",
      "bufferView": 0,
      "byteOffset": 18384
    },
    {
      "name": "polySurface137_1_0_normals",
      "componentType": 5126,
      "count": 32,
      "min": [
        -0.923012912273407,
        -0.9230125546455383,
        -1
      ],
      "max": [
        0.9230124354362488,
        0,
        1
      ],
      "type": "VEC3",
      "bufferView": 1,
      "byteOffset": 18384
    },
    {
      "name": "polySurface137_1_0_texcoords",
      "componentType": 5126,
      "count": 32,
      "min": [
        -6.851180076599121,
        -1.2911139726638794
      ],
      "max": [
        5.349771022796631,
        1.943971037864685
      ],
      "type": "VEC2",
      "bufferView": 2,
      "byteOffset": 12256
    },
    {
      "name": "polySurface137_1_0_indices",
      "componentType": 5123,
      "count": 48,
      "min": [
        0
      ],
      "max": [
        31
      ],
      "type": "SCALAR",
      "bufferView": 3,
      "byteOffset": 6428
    },
    {
      "name": "polySurface96_1_0_positions",
      "componentType": 5126,
      "count": 24,
      "min": [
        -3.068571090698242,
        5.096613883972168,
        30.82331085205078
      ],
      "max": [
        1.342079997062683,
        6.46769380569458,
        31.044784545898438
      ],
      "type": "VEC3",
      "bufferView": 0,
      "byteOffset": 18768
    },
    {
      "name": "polySurface96_1_0_normals",
      "componentType": 5126,
      "count": 24,
      "min": [
        -1,
        -1,
        -1
      ],
      "max": [
        1,
        1,
        1
      ],
      "type": "VEC3",
      "bufferView": 1,
      "byteOffset": 18768
    },
    {
      "name": "polySurface96_1_0_texcoords",
      "componentType": 5126,
      "count": 24,
      "min": [
        0,
        -0.11072099953889847
      ],
      "max": [
        0.9979379773139954,
        0.9550349712371826
      ],
      "type": "VEC2",
      "bufferView": 2,
      "byteOffset": 12512
    },
    {
      "name": "polySurface96_1_0_indices",
      "componentType": 5123,
      "count": 36,
      "min": [
        0
      ],
      "max": [
        23
      ],
      "type": "SCALAR",
      "bufferView": 3,
      "byteOffset": 6524
    },
    {
      "name": "biankuai_1_0_positions",
      "componentType": 5126,
      "count": 96,
      "min": [
        -3.436065912246704,
        0.5113239884376526,
        27.61077117919922
      ],
      "max": [
        3.3631949424743652,
        5.102392196655273,
        31.49483299255371
      ],
      "type": "VEC3",
      "bufferView": 0,
      "byteOffset": 19056
    },
    {
      "name": "biankuai_1_0_normals",
      "componentType": 5126,
      "count": 96,
      "min": [
        -1,
        -1,
        -1
      ],
      "max": [
        1,
        1,
        1
      ],
      "type": "VEC3",
      "bufferView": 1,
      "byteOffset": 19056
    },
    {
      "name": "biankuai_1_0_texcoords",
      "componentType": 5126,
      "count": 96,
      "min": [
        0,
        0.07252799719572067
      ],
      "max": [
        0.9664639830589294,
        0.9519109725952148
      ],
      "type": "VEC2",
      "bufferView": 2,
      "byteOffset": 12704
    },
    {
      "name": "biankuai_1_0_indices",
      "componentType": 5123,
      "count": 144,
      "min": [
        0
      ],
      "max": [
        95
      ],
      "type": "SCALAR",
      "bufferView": 3,
      "byteOffset": 6596
    },
    {
      "name": "polySurface106_1_0_positions",
      "componentType": 5126,
      "count": 44,
      "min": [
        -3.0571930408477783,
        4.704232215881348,
        28.531631469726562
      ],
      "max": [
        2.984323024749756,
        5.104231834411621,
        31.49483299255371
      ],
      "type": "VEC3",
      "bufferView": 0,
      "byteOffset": 20208
    },
    {
      "name": "polySurface106_1_0_normals",
      "componentType": 5126,
      "count": 44,
      "min": [
        -1,
        -1,
        0
      ],
      "max": [
        1,
        1,
        1
      ],
      "type": "VEC3",
      "bufferView": 1,
      "byteOffset": 20208
    },
    {
      "name": "polySurface106_1_0_texcoords",
      "componentType": 5126,
      "count": 44,
      "min": [
        -0.018278999254107475,
        0.2514970004558563
      ],
      "max": [
        0.9124150276184082,
        0.5975499749183655
      ],
      "type": "VEC2",
      "bufferView": 2,
      "byteOffset": 13472
    },
    {
      "name": "polySurface106_1_0_indices",
      "componentType": 5123,
      "count": 102,
      "min": [
        0
      ],
      "max": [
        43
      ],
      "type": "SCALAR",
      "bufferView": 3,
      "byteOffset": 6884
    }
  ],
  "asset": {
    "generator": "obj2gltf",
    "version": "2.0"
  },
  "buffers": [
    {
      "name": "o",
      "byteLength": 62384,
      "uri": "data:application/octet-stream;base64,"
    }
  ],
  "bufferViews": [
    {
      "name": "bufferView_0",
      "buffer": 0,
      "byteLength": 20736,
      "byteOffset": 0,
      "byteStride": 12,
      "target": 34962
    },
    {
      "name": "bufferView_1",
      "buffer": 0,
      "byteLength": 20736,
      "byteOffset": 20736,
      "byteStride": 12,
      "target": 34962
    },
    {
      "name": "bufferView_2",
      "buffer": 0,
      "byteLength": 13824,
      "byteOffset": 41472,
      "byteStride": 8,
      "target": 34962
    },
    {
      "name": "bufferView_3",
      "buffer": 0,
      "byteLength": 7088,
      "byteOffset": 55296,
      "target": 34963
    }
  ],
  "materials": [
    {
      "name": "lambert33SG",
      "pbrMetallicRoughness": {
        "baseColorFactor": [
          0.5,
          0.5,
          0.5,
          1
        ],
        "metallicFactor": 0,
        "roughnessFactor": 1
      },
      "emissiveFactor": [
        0,
        0,
        0
      ],
      "alphaMode": "OPAQUE",
      "doubleSided": false
    },
    {
      "name": "lambert23SG",
      "pbrMetallicRoughness": {
        "baseColorFactor": [
          0.5,
          0.5,
          0.5,
          1
        ],
        "metallicFactor": 0,
        "roughnessFactor": 1
      },
      "emissiveFactor": [
        0,
        0,
        0
      ],
      "alphaMode": "OPAQUE",
      "doubleSided": false
    },
    {
      "name": "lambert31SG",
      "pbrMetallicRoughness": {
        "baseColorFactor": [
          0.5,
          0.5,
          0.5,
          1
        ],
        "metallicFactor": 0,
        "roughnessFactor": 1
      },
      "emissiveFactor": [
        0,
        0,
        0
      ],
      "alphaMode": "OPAQUE",
      "doubleSided": false
    },
    {
      "name": "lambert27SG",
      "pbrMetallicRoughness": {
        "baseColorFactor": [
          0.5,
          0.5,
          0.5,
          1
        ],
        "metallicFactor": 0,
        "roughnessFactor": 1
      },
      "emissiveFactor": [
        0,
        0,
        0
      ],
      "alphaMode": "OPAQUE",
      "doubleSided": false
    },
    {
      "name": "lambert24SG",
      "pbrMetallicRoughness": {
        "baseColorFactor": [
          0.5,
          0.5,
          0.5,
          1
        ],
        "metallicFactor": 0,
        "roughnessFactor": 1
      },
      "emissiveFactor": [
        0,
        0,
        0
      ],
      "alphaMode": "OPAQUE",
      "doubleSided": false
    },
    {
      "name": "lambert10SG",
      "pbrMetallicRoughness": {
        "baseColorFactor": [
          0.5,
          0.5,
          0.5,
          1
        ],
        "metallicFactor": 0,
        "roughnessFactor": 1
      },
      "emissiveFactor": [
        0,
        0,
        0
      ],
      "alphaMode": "OPAQUE",
      "doubleSided": false
    },
    {
      "name": "lambert12SG",
      "pbrMetallicRoughness": {
        "baseColorFactor": [
          0.5,
          0.5,
          0.5,
          1
        ],
        "metallicFactor": 0,
        "roughnessFactor": 1
      },
      "emissiveFactor": [
        0,
        0,
        0
      ],
      "alphaMode": "OPAQUE",
      "doubleSided": false
    },
    {
      "name": "lambert17SG",
      "pbrMetallicRoughness": {
        "baseColorFactor": [
          0.5,
          0.5,
          0.5,
          1
        ],
        "metallicFactor": 0,
        "roughnessFactor": 1
      },
      "emissiveFactor": [
        0,
        0,
        0
      ],
      "alphaMode": "OPAQUE",
      "doubleSided": false
    },
    {
      "name": "lambert13SG",
      "pbrMetallicRoughness": {
        "baseColorFactor": [
          0.5,
          0.5,
          0.5,
          1
        ],
        "metallicFactor": 0,
        "roughnessFactor": 1
      },
      "emissiveFactor": [
        0,
        0,
        0
      ],
      "alphaMode": "OPAQUE",
      "doubleSided": false
    },
    {
      "name": "lambert15SG",
      "pbrMetallicRoughness": {
        "baseColorFactor": [
          0.5,
          0.5,
          0.5,
          1
        ],
        "metallicFactor": 0,
        "roughnessFactor": 1
      },
      "emissiveFactor": [
        0,
        0,
        0
      ],
      "alphaMode": "OPAQUE",
      "doubleSided": false
    },
    {
      "name": "lambert20SG",
      "pbrMetallicRoughness": {
        "baseColorFactor": [
          0.5,
          0.5,
          0.5,
          1
        ],
        "metallicFactor": 0,
        "roughnessFactor": 1
      },
      "emissiveFactor": [
        0,
        0,
        0
      ],
      "alphaMode": "OPAQUE",
      "doubleSided": false
    },
    {
      "name": "lambert30SG",
      "pbrMetallicRoughness": {
        "baseColorFactor": [
          0.5,
          0.5,
          0.5,
          1
        ],
        "metallicFactor": 0,
        "roughnessFactor": 1
      },
      "emissiveFactor": [
        0,
        0,
        0
      ],
      "alphaMode": "OPAQUE",
      "doubleSided": false
    },
    {
      "name": "lambert28SG",
      "pbrMetallicRoughness": {
        "baseColorFactor": [
          0.5,
          0.5,
          0.5,
          1
        ],
        "metallicFactor": 0,
        "roughnessFactor": 1
      },
      "emissiveFactor": [
        0,
        0,
        0
      ],
      "alphaMode": "OPAQUE",
      "doubleSided": false
    },
    {
      "name": "lambert34SG",
      "pbrMetallicRoughness": {
        "baseColorFactor": [
          0.5,
          0.5,
          0.5,
          1
        ],
        "metallicFactor": 0,
        "roughnessFactor": 1
      },
      "emissiveFactor": [
        0,
        0,
        0
      ],
      "alphaMode": "OPAQUE",
      "doubleSided": false
    },
    {
      "name": "lambert35SG",
      "pbrMetallicRoughness": {
        "baseColorFactor": [
          0.5,
          0.5,
          0.5,
          1
        ],
        "metallicFactor": 0,
        "roughnessFactor": 1
      },
      "emissiveFactor": [
        0,
        0,
        0
      ],
      "alphaMode": "OPAQUE",
      "doubleSided": false
    },
    {
      "name": "lambert5SG",
      "pbrMetallicRoughness": {
        "baseColorFactor": [
          0.5,
          0.5,
          0.5,
          1
        ],
        "metallicFactor": 0,
        "roughnessFactor": 1
      },
      "emissiveFactor": [
        0,
        0,
        0
      ],
      "alphaMode": "OPAQUE",
      "doubleSided": false
    },
    {
      "name": "lambert9SG",
      "pbrMetallicRoughness": {
        "baseColorFactor": [
          0.5,
          0.5,
          0.5,
          1
        ],
        "metallicFactor": 0,
        "roughnessFactor": 1
      },
      "emissiveFactor": [
        0,
        0,
        0
      ],
      "alphaMode": "OPAQUE",
      "doubleSided": false
    },
    {
      "name": "lambert8SG",
      "pbrMetallicRoughness": {
        "baseColorFactor": [
          0.5,
          0.5,
          0.5,
          1
        ],
        "metallicFactor": 0,
        "roughnessFactor": 1
      },
      "emissiveFactor": [
        0,
        0,
        0
      ],
      "alphaMode": "OPAQUE",
      "doubleSided": false
    }
  ],
  "meshes": [
    {
      "name": "baibian_1",
      "primitives": [
        {
          "attributes": {
            "POSITION": 0,
            "NORMAL": 1,
            "TEXCOORD_0": 2
          },
          "indices": 3,
          "material": 0,
          "mode": 4
        }
      ]
    },
    {
      "name": "wa1_1",
      "primitives": [
        {
          "attributes": {
            "POSITION": 4,
            "NORMAL": 5,
            "TEXCOORD_0": 6
          },
          "indices": 7,
          "material": 1,
          "mode": 4
        }
      ]
    },
    {
      "name": "polySurface81_1",
      "primitives": [
        {
          "attributes": {
            "POSITION": 8,
            "NORMAL": 9,
            "TEXCOORD_0": 10
          },
          "indices": 11,
          "material": 2,
          "mode": 4
        }
      ]
    },
    {
      "name": "qiang_1",
      "primitives": [
        {
          "attributes": {
            "POSITION": 12,
            "NORMAL": 13,
            "TEXCOORD_0": 14
          },
          "indices": 15,
          "material": 3,
          "mode": 4
        },
        {
          "attributes": {
            "POSITION": 16,
            "NORMAL": 17,
            "TEXCOORD_0": 18
          },
          "indices": 19,
          "material": 4,
          "mode": 4
        },
        {
          "attributes": {
            "POSITION": 20,
            "NORMAL": 21,
            "TEXCOORD_0": 22
          },
          "indices": 23,
          "material": 5,
          "mode": 4
        },
        {
          "attributes": {
            "POSITION": 24,
            "NORMAL": 25,
            "TEXCOORD_0": 26
          },
          "indices": 27,
          "material": 6,
          "mode": 4
        },
        {
          "attributes": {
            "POSITION": 28,
            "NORMAL": 29,
            "TEXCOORD_0": 30
          },
          "indices": 31,
          "material": 7,
          "mode": 4
        },
        {
          "attributes": {
            "POSITION": 32,
            "NORMAL": 33,
            "TEXCOORD_0": 34
          },
          "indices": 35,
          "material": 8,
          "mode": 4
        },
        {
          "attributes": {
            "POSITION": 36,
            "NORMAL": 37,
            "TEXCOORD_0": 38
          },
          "indices": 39,
          "material": 9,
          "mode": 4
        },
        {
          "attributes": {
            "POSITION": 40,
            "NORMAL": 41,
            "TEXCOORD_0": 42
          },
          "indices": 43,
          "material": 10,
          "mode": 4
        },
        {
          "attributes": {
            "POSITION": 44,
            "NORMAL": 45,
            "TEXCOORD_0": 46
          },
          "indices": 47,
          "material": 11,
          "mode": 4
        },
        {
          "attributes": {
            "POSITION": 48,
            "NORMAL": 49,
            "TEXCOORD_0": 50
          },
          "indices": 51,
          "material": 12,
          "mode": 4
        }
      ]
    },
    {
      "name": "yingyeshijian1_1",
      "primitives": [
        {
          "attributes": {
            "POSITION": 52,
            "NORMAL": 53,
            "TEXCOORD_0": 54
          },
          "indices": 55,
          "material": 13,
          "mode": 4
        }
      ]
    },
    {
      "name": "zimu_1",
      "primitives": [
        {
          "attributes": {
            "POSITION": 56,
            "NORMAL": 57,
            "TEXCOORD_0": 58
          },
          "indices": 59,
          "material": 14,
          "mode": 4
        }
      ]
    },
    {
      "name": "polySurface137_1",
      "primitives": [
        {
          "attributes": {
            "POSITION": 60,
            "NORMAL": 61,
            "TEXCOORD_0": 62
          },
          "indices": 63,
          "material": 2,
          "mode": 4
        }
      ]
    },
    {
      "name": "polySurface96_1",
      "primitives": [
        {
          "attributes": {
            "POSITION": 64,
            "NORMAL": 65,
            "TEXCOORD_0": 66
          },
          "indices": 67,
          "material": 15,
          "mode": 4
        }
      ]
    },
    {
      "name": "biankuai_1",
      "primitives": [
        {
          "attributes": {
            "POSITION": 68,
            "NORMAL": 69,
            "TEXCOORD_0": 70
          },
          "indices": 71,
          "material": 16,
          "mode": 4
        }
      ]
    },
    {
      "name": "polySurface106_1",
      "primitives": [
        {
          "attributes": {
            "POSITION": 72,
            "NORMAL": 73,
            "TEXCOORD_0": 74
          },
          "indices": 75,
          "material": 17,
          "mode": 4
        }
      ]
    }
  ],
  "nodes": [
    {
      "name": "baibian",
      "mesh": 0
    },
    {
      "name": "wa1",
      "mesh": 1
    },
    {
      "name": "polySurface81",
      "mesh": 2
    },
    {
      "name": "qiang",
      "mesh": 3
    },
    {
      "name": "yingyeshijian1",
      "mesh": 4
    },
    {
      "name": "zimu",
      "mesh": 5
    },
    {
      "name": "polySurface137",
      "mesh": 6
    },
    {
      "name": "polySurface96",
      "mesh": 7
    },
    {
      "name": "biankuai",
      "mesh": 8
    },
    {
      "name": "polySurface106",
      "mesh": 9
    }
  ],
  "scene": 0,
  "scenes": [
    {
      "nodes": [
        0,
        1,
        2,
        3,
        4,
        5,
        6,
        7,
        8,
        9
      ]
    }
  ]
}
