{
  "accessors": [
    {
      "name": "qiang_1_0_positions",
      "componentType": 5126,
      "count": 235,
      "min": [
        -5.332099914550781,
        -18.162599563598633,
        0
      ],
      "max": [
        5.332099914550781,
        20.487899780273438,
        7.9664998054504395
      ],
      "type": "VEC3",
      "bufferView": 0,
      "byteOffset": 0
    },
    {
      "name": "qiang_1_0_normals",
      "componentType": 5126,
      "count": 235,
      "min": [
        0,
        -1,
        -1
      ],
      "max": [
        0,
        1,
        0
      ],
      "type": "VEC3",
      "bufferView": 1,
      "byteOffset": 0
    },
    {
      "name": "qiang_1_0_texcoords",
      "componentType": 5126,
      "count": 235,
      "min": [
        -1.0061999559402466,
        -1.7768000364303589
      ],
      "max": [
        6.803800106048584,
        2.112600088119507
      ],
      "type": "VEC2",
      "bufferView": 2,
      "byteOffset": 0
    },
    {
      "name": "qiang_1_0_indices",
      "componentType": 5123,
      "count": 405,
      "min": [
        0
      ],
      "max": [
        234
      ],
      "type": "SCALAR",
      "bufferView": 3,
      "byteOffset": 0
    },
    {
      "name": "qiang_1_1_positions",
      "componentType": 5126,
      "count": 75,
      "min": [
        -5.332099914550781,
        -18.162599563598633,
        0
      ],
      "max": [
        5.332099914550781,
        20.487899780273438,
        5.74370002746582
      ],
      "type": "VEC3",
      "bufferView": 0,
      "byteOffset": 2820
    },
    {
      "name": "qiang_1_1_normals",
      "componentType": 5126,
      "count": 75,
      "min": [
        -1,
        0,
        0
      ],
      "max": [
        1,
        0,
        0
      ],
      "type": "VEC3",
      "bufferView": 1,
      "byteOffset": 2820
    },
    {
      "name": "qiang_1_1_texcoords",
      "componentType": 5126,
      "count": 75,
      "min": [
        -2.96589994430542,
        -0.1477999985218048
      ],
      "max": [
        4.197700023651123,
        1.04830002784729
      ],
      "type": "VEC2",
      "bufferView": 2,
      "byteOffset": 1880
    },
    {
      "name": "qiang_1_1_indices",
      "componentType": 5123,
      "count": 123,
      "min": [
        0
      ],
      "max": [
        74
      ],
      "type": "SCALAR",
      "bufferView": 3,
      "byteOffset": 812
    },
    {
      "name": "qiang_1_2_positions",
      "componentType": 5126,
      "count": 8,
      "min": [
        -3.33240008354187,
        -18.162599563598633,
        0
      ],
      "max": [
        0,
        -18.162599563598633,
        4.0243000984191895
      ],
      "type": "VEC3",
      "bufferView": 0,
      "byteOffset": 3720
    },
    {
      "name": "qiang_1_2_normals",
      "componentType": 5126,
      "count": 8,
      "min": [
        0,
        -1,
        0
      ],
      "max": [
        0,
        -1,
        0
      ],
      "type": "VEC3",
      "bufferView": 1,
      "byteOffset": 3720
    },
    {
      "name": "qiang_1_2_texcoords",
      "componentType": 5126,
      "count": 8,
      "min": [
        -0.030799999833106995,
        0.09350000321865082
      ],
      "max": [
        0.792900025844574,
        1.0860999822616577
      ],
      "type": "VEC2",
      "bufferView": 2,
      "byteOffset": 2480
    },
    {
      "name": "qiang_1_2_indices",
      "componentType": 5123,
      "count": 12,
      "min": [
        0
      ],
      "max": [
        7
      ],
      "type": "SCALAR",
      "bufferView": 3,
      "byteOffset": 1060
    },
    {
      "name": "qiang_1_3_positions",
      "componentType": 5126,
      "count": 4,
      "min": [
        0,
        -18.162599563598633,
        0
      ],
      "max": [
        1.5995999574661255,
        -18.162599563598633,
        4.0243000984191895
      ],
      "type": "VEC3",
      "bufferView": 0,
      "byteOffset": 3816
    },
    {
      "name": "qiang_1_3_normals",
      "componentType": 5126,
      "count": 4,
      "min": [
        0,
        -1,
        0
      ],
      "max": [
        0,
        -1,
        0
      ],
      "type": "VEC3",
      "bufferView": 1,
      "byteOffset": 3816
    },
    {
      "name": "qiang_1_3_texcoords",
      "componentType": 5126,
      "count": 4,
      "min": [
        0.2750999927520752,
        0.09139999747276306
      ],
      "max": [
        0.7421000003814697,
        1.0817999839782715
      ],
      "type": "VEC2",
      "bufferView": 2,
      "byteOffset": 2544
    },
    {
      "name": "qiang_1_3_indices",
      "componentType": 5123,
      "count": 6,
      "min": [
        0
      ],
      "max": [
        3
      ],
      "type": "SCALAR",
      "bufferView": 3,
      "byteOffset": 1084
    },
    {
      "name": "qiang_1_4_positions",
      "componentType": 5126,
      "count": 11,
      "min": [
        3.344399929046631,
        -18.162599563598633,
        0
      ],
      "max": [
        5.332099914550781,
        -18.162599563598633,
        4.0243000984191895
      ],
      "type": "VEC3",
      "bufferView": 0,
      "byteOffset": 3864
    },
    {
      "name": "qiang_1_4_normals",
      "componentType": 5126,
      "count": 11,
      "min": [
        0,
        -1,
        0
      ],
      "max": [
        0,
        -1,
        0
      ],
      "type": "VEC3",
      "bufferView": 1,
      "byteOffset": 3864
    },
    {
      "name": "qiang_1_4_texcoords",
      "componentType": 5126,
      "count": 11,
      "min": [
        -0.02410000003874302,
        -0.9172000288963318
      ],
      "max": [
        0.9562000036239624,
        1.9909000396728516
      ],
      "type": "VEC2",
      "bufferView": 2,
      "byteOffset": 2576
    },
    {
      "name": "qiang_1_4_indices",
      "componentType": 5123,
      "count": 15,
      "min": [
        0
      ],
      "max": [
        10
      ],
      "type": "SCALAR",
      "bufferView": 3,
      "byteOffset": 1096
    },
    {
      "name": "qiang_1_5_positions",
      "componentType": 5126,
      "count": 7,
      "min": [
        1.5995999574661255,
        -18.162599563598633,
        0
      ],
      "max": [
        3.344399929046631,
        -18.162599563598633,
        4.0243000984191895
      ],
      "type": "VEC3",
      "bufferView": 0,
      "byteOffset": 3996
    },
    {
      "name": "qiang_1_5_normals",
      "componentType": 5126,
      "count": 7,
      "min": [
        0,
        -1,
        0
      ],
      "max": [
        0,
        -1,
        0
      ],
      "type": "VEC3",
      "bufferView": 1,
      "byteOffset": 3996
    },
    {
      "name": "qiang_1_5_texcoords",
      "componentType": 5126,
      "count": 7,
      "min": [
        -0.003000000026077032,
        0.045499999076128006
      ],
      "max": [
        1.0384999513626099,
        0.9987000226974487
      ],
      "type": "VEC2",
      "bufferView": 2,
      "byteOffset": 2664
    },
    {
      "name": "qiang_1_5_indices",
      "componentType": 5123,
      "count": 9,
      "min": [
        0
      ],
      "max": [
        6
      ],
      "type": "SCALAR",
      "bufferView": 3,
      "byteOffset": 1128
    },
    {
      "name": "qiang_1_6_positions",
      "componentType": 5126,
      "count": 4,
      "min": [
        3.344399929046631,
        -18.162599563598633,
        0
      ],
      "max": [
        5.104800224304199,
        -18.162599563598633,
        2.8264000415802
      ],
      "type": "VEC3",
      "bufferView": 0,
      "byteOffset": 4080
    },
    {
      "name": "qiang_1_6_normals",
      "componentType": 5126,
      "count": 4,
      "min": [
        0,
        -1,
        0
      ],
      "max": [
        0,
        -1,
        0
      ],
      "type": "VEC3",
      "bufferView": 1,
      "byteOffset": 4080
    },
    {
      "name": "qiang_1_6_texcoords",
      "componentType": 5126,
      "count": 4,
      "min": [
        -0.006899999920278788,
        0.0024999999441206455
      ],
      "max": [
        1.0224000215530396,
        0.9818000197410583
      ],
      "type": "VEC2",
      "bufferView": 2,
      "byteOffset": 2720
    },
    {
      "name": "qiang_1_6_indices",
      "componentType": 5123,
      "count": 6,
      "min": [
        0
      ],
      "max": [
        3
      ],
      "type": "SCALAR",
      "bufferView": 3,
      "byteOffset": 1148
    },
    {
      "name": "qiang_1_7_positions",
      "componentType": 5126,
      "count": 8,
      "min": [
        -0.635699987411499,
        -18.162599563598633,
        4.823800086975098
      ],
      "max": [
        0.5939000248908997,
        -18.162599563598633,
        7.299699783325195
      ],
      "type": "VEC3",
      "bufferView": 0,
      "byteOffset": 4128
    },
    {
      "name": "qiang_1_7_normals",
      "componentType": 5126,
      "count": 8,
      "min": [
        0,
        -1,
        0
      ],
      "max": [
        0,
        -1,
        0
      ],
      "type": "VEC3",
      "bufferView": 1,
      "byteOffset": 4128
    },
    {
      "name": "qiang_1_7_texcoords",
      "componentType": 5126,
      "count": 8,
      "min": [
        0.34130001068115234,
        0.10540000349283218
      ],
      "max": [
        0.6884999871253967,
        0.9722999930381775
      ],
      "type": "VEC2",
      "bufferView": 2,
      "byteOffset": 2752
    },
    {
      "name": "qiang_1_7_indices",
      "componentType": 5123,
      "count": 12,
      "min": [
        0
      ],
      "max": [
        7
      ],
      "type": "SCALAR",
      "bufferView": 3,
      "byteOffset": 1160
    },
    {
      "name": "qiang_1_8_positions",
      "componentType": 5126,
      "count": 14,
      "min": [
        -5.332099914550781,
        15.87720012664795,
        0
      ],
      "max": [
        5.332099914550781,
        19.2091007232666,
        4.890200138092041
      ],
      "type": "VEC3",
      "bufferView": 0,
      "byteOffset": 4224
    },
    {
      "name": "qiang_1_8_normals",
      "componentType": 5126,
      "count": 14,
      "min": [
        -1,
        0,
        0
      ],
      "max": [
        1,
        0,
        0
      ],
      "type": "VEC3",
      "bufferView": 1,
      "byteOffset": 4224
    },
    {
      "name": "qiang_1_8_texcoords",
      "componentType": 5126,
      "count": 14,
      "min": [
        0.07930000126361847,
        0.021400000900030136
      ],
      "max": [
        0.9104999899864197,
        0.9868999719619751
      ],
      "type": "VEC2",
      "bufferView": 2,
      "byteOffset": 2816
    },
    {
      "name": "qiang_1_8_indices",
      "componentType": 5123,
      "count": 24,
      "min": [
        0
      ],
      "max": [
        13
      ],
      "type": "SCALAR",
      "bufferView": 3,
      "byteOffset": 1184
    },
    {
      "name": "qiang_1_9_positions",
      "componentType": 5126,
      "count": 8,
      "min": [
        5.332099914550781,
        19.2091007232666,
        0
      ],
      "max": [
        5.332099914550781,
        20.487899780273438,
        4.378900051116943
      ],
      "type": "VEC3",
      "bufferView": 0,
      "byteOffset": 4392
    },
    {
      "name": "qiang_1_9_normals",
      "componentType": 5126,
      "count": 8,
      "min": [
        1,
        0,
        0
      ],
      "max": [
        1,
        0,
        0
      ],
      "type": "VEC3",
      "bufferView": 1,
      "byteOffset": 4392
    },
    {
      "name": "qiang_1_9_texcoords",
      "componentType": 5126,
      "count": 8,
      "min": [
        0.8719000220298767,
        0.16670000553131104
      ],
      "max": [
        0.9965000152587891,
        0.9261999726295471
      ],
      "type": "VEC2",
      "bufferView": 2,
      "byteOffset": 2928
    },
    {
      "name": "qiang_1_9_indices",
      "componentType": 5123,
      "count": 12,
      "min": [
        0
      ],
      "max": [
        7
      ],
      "type": "SCALAR",
      "bufferView": 3,
      "byteOffset": 1232
    },
    {
      "name": "qiang_1_10_positions",
      "componentType": 5126,
      "count": 84,
      "min": [
        -5.369500160217285,
        -18.16819953918457,
        4.420000076293945
      ],
      "max": [
        5.369500160217285,
        20.525800704956055,
        4.834499835968018
      ],
      "type": "VEC3",
      "bufferView": 0,
      "byteOffset": 4488
    },
    {
      "name": "qiang_1_10_normals",
      "componentType": 5126,
      "count": 84,
      "min": [
        -1,
        -1,
        -1
      ],
      "max": [
        1,
        1,
        1
      ],
      "type": "VEC3",
      "bufferView": 1,
      "byteOffset": 4488
    },
    {
      "name": "qiang_1_10_texcoords",
      "componentType": 5126,
      "count": 84,
      "min": [
        -7.274499893188477,
        0.10440000146627426
      ],
      "max": [
        8.275699615478516,
        1
      ],
      "type": "VEC2",
      "bufferView": 2,
      "byteOffset": 2992
    },
    {
      "name": "qiang_1_10_indices",
      "componentType": 5123,
      "count": 204,
      "min": [
        0
      ],
      "max": [
        83
      ],
      "type": "SCALAR",
      "bufferView": 3,
      "byteOffset": 1256
    },
    {
      "name": "qiang_1_11_positions",
      "componentType": 5126,
      "count": 96,
      "min": [
        -3.4361000061035156,
        -20.911800384521484,
        0.04800000041723251
      ],
      "max": [
        3.3631999492645264,
        -17.027700424194336,
        4.638999938964844
      ],
      "type": "VEC3",
      "bufferView": 0,
      "byteOffset": 5496
    },
    {
      "name": "qiang_1_11_normals",
      "componentType": 5126,
      "count": 96,
      "min": [
        -1,
        -1,
        -1
      ],
      "max": [
        1,
        1,
        1
      ],
      "type": "VEC3",
      "bufferView": 1,
      "byteOffset": 5496
    },
    {
      "name": "qiang_1_11_texcoords",
      "componentType": 5126,
      "count": 96,
      "min": [
        0,
        0.07249999791383743
      ],
      "max": [
        0.9664999842643738,
        0.9519000053405762
      ],
      "type": "VEC2",
      "bufferView": 2,
      "byteOffset": 3664
    },
    {
      "name": "qiang_1_11_indices",
      "componentType": 5123,
      "count": 144,
      "min": [
        0
      ],
      "max": [
        95
      ],
      "type": "SCALAR",
      "bufferView": 3,
      "byteOffset": 1664
    },
    {
      "name": "qiang_1_12_positions",
      "componentType": 5126,
      "count": 64,
      "min": [
        -5.4766998291015625,
        -18.535999298095703,
        5.632699966430664
      ],
      "max": [
        5.403900146484375,
        20.736499786376953,
        8.287699699401855
      ],
      "type": "VEC3",
      "bufferView": 0,
      "byteOffset": 6648
    },
    {
      "name": "qiang_1_12_normals",
      "componentType": 5126,
      "count": 64,
      "min": [
        -0.9229999780654907,
        -1,
        -0.9229999780654907
      ],
      "max": [
        0.9229999780654907,
        1,
        0
      ],
      "type": "VEC3",
      "bufferView": 1,
      "byteOffset": 6648
    },
    {
      "name": "qiang_1_12_texcoords",
      "componentType": 5126,
      "count": 64,
      "min": [
        -6.851200103759766,
        -1.6655000448226929
      ],
      "max": [
        5.349800109863281,
        1.944000005722046
      ],
      "type": "VEC2",
      "bufferView": 2,
      "byteOffset": 4432
    },
    {
      "name": "qiang_1_12_indices",
      "componentType": 5123,
      "count": 96,
      "min": [
        0
      ],
      "max": [
        63
      ],
      "type": "SCALAR",
      "bufferView": 3,
      "byteOffset": 1952
    },
    {
      "name": "qiang_1_13_positions",
      "componentType": 5126,
      "count": 24,
      "min": [
        -3.0685999393463135,
        -20.461700439453125,
        4.633200168609619
      ],
      "max": [
        1.3421000242233276,
        -20.24020004272461,
        6.004300117492676
      ],
      "type": "VEC3",
      "bufferView": 0,
      "byteOffset": 7416
    },
    {
      "name": "qiang_1_13_normals",
      "componentType": 5126,
      "count": 24,
      "min": [
        -1,
        -1,
        -1
      ],
      "max": [
        1,
        1,
        1
      ],
      "type": "VEC3",
      "bufferView": 1,
      "byteOffset": 7416
    },
    {
      "name": "qiang_1_13_texcoords",
      "componentType": 5126,
      "count": 24,
      "min": [
        0,
        -0.11069999635219574
      ],
      "max": [
        0.9979000091552734,
        0.9549999833106995
      ],
      "type": "VEC2",
      "bufferView": 2,
      "byteOffset": 4944
    },
    {
      "name": "qiang_1_13_indices",
      "componentType": 5123,
      "count": 36,
      "min": [
        0
      ],
      "max": [
        23
      ],
      "type": "SCALAR",
      "bufferView": 3,
      "byteOffset": 2144
    },
    {
      "name": "qiang_1_14_positions",
      "componentType": 5126,
      "count": 44,
      "min": [
        -3.0571999549865723,
        -20.911800384521484,
        4.240900039672852
      ],
      "max": [
        2.984299898147583,
        -17.94860076904297,
        4.640900135040283
      ],
      "type": "VEC3",
      "bufferView": 0,
      "byteOffset": 7704
    },
    {
      "name": "qiang_1_14_normals",
      "componentType": 5126,
      "count": 44,
      "min": [
        -1,
        -1,
        -1
      ],
      "max": [
        1,
        0,
        1
      ],
      "type": "VEC3",
      "bufferView": 1,
      "byteOffset": 7704
    },
    {
      "name": "qiang_1_14_texcoords",
      "componentType": 5126,
      "count": 44,
      "min": [
        -0.018300000578165054,
        0.2515000104904175
      ],
      "max": [
        0.9124000072479248,
        0.597599983215332
      ],
      "type": "VEC2",
      "bufferView": 2,
      "byteOffset": 5136
    },
    {
      "name": "qiang_1_14_indices",
      "componentType": 5123,
      "count": 102,
      "min": [
        0
      ],
      "max": [
        43
      ],
      "type": "SCALAR",
      "bufferView": 3,
      "byteOffset": 2216
    },
    {
      "name": "qiang_1_15_positions",
      "componentType": 5126,
      "count": 36,
      "min": [
        -6.104599952697754,
        -18.639699935913086,
        5.880899906158447
      ],
      "max": [
        6.104599952697754,
        20.911800384521484,
        8.412799835205078
      ],
      "type": "VEC3",
      "bufferView": 0,
      "byteOffset": 8232
    },
    {
      "name": "qiang_1_15_normals",
      "componentType": 5126,
      "count": 36,
      "min": [
        -0.9236922264099121,
        -0.9999977946281433,
        -0.9237538576126099
      ],
      "max": [
        0.9236922264099121,
        0.9999977946281433,
        0.9237538576126099
      ],
      "type": "VEC3",
      "bufferView": 1,
      "byteOffset": 8232
    },
    {
      "name": "qiang_1_15_texcoords",
      "componentType": 5126,
      "count": 36,
      "min": [
        -3.67549991607666,
        1.4335999488830566
      ],
      "max": [
        4.67549991607666,
        3.091399908065796
      ],
      "type": "VEC2",
      "bufferView": 2,
      "byteOffset": 5488
    },
    {
      "name": "qiang_1_15_indices",
      "componentType": 5123,
      "count": 60,
      "min": [
        0
      ],
      "max": [
        35
      ],
      "type": "SCALAR",
      "bufferView": 3,
      "byteOffset": 2420
    },
    {
      "name": "qiang_1_16_positions",
      "componentType": 5126,
      "count": 20,
      "min": [
        -4.775899887084961,
        -18.184900283813477,
        2.368299961090088
      ],
      "max": [
        -3.775899887084961,
        -17.965299606323242,
        3.368299961090088
      ],
      "type": "VEC3",
      "bufferView": 0,
      "byteOffset": 8664
    },
    {
      "name": "qiang_1_16_normals",
      "componentType": 5126,
      "count": 20,
      "min": [
        -1,
        -1,
        -1
      ],
      "max": [
        1,
        0,
        1
      ],
      "type": "VEC3",
      "bufferView": 1,
      "byteOffset": 8664
    },
    {
      "name": "qiang_1_16_texcoords",
      "componentType": 5126,
      "count": 20,
      "min": [
        -0.03700000047683716,
        -0.030300000682473183
      ],
      "max": [
        1.1131000518798828,
        1.0303000211715698
      ],
      "type": "VEC2",
      "bufferView": 2,
      "byteOffset": 5776
    },
    {
      "name": "qiang_1_16_indices",
      "componentType": 5123,
      "count": 30,
      "min": [
        0
      ],
      "max": [
        19
      ],
      "type": "SCALAR",
      "bufferView": 3,
      "byteOffset": 2540
    }
  ],
  "asset": {
    "generator": "obj2gltf",
    "version": "2.0"
  },
  "buffers": [
    {
      "name": "o_01",
      "byteLength": 26344,
      "uri": "data:application/octet-stream;base64,"
    }
  ],
  "bufferViews": [
    {
      "name": "bufferView_0",
      "buffer": 0,
      "byteLength": 8904,
      "byteOffset": 0,
      "byteStride": 12,
      "target": 34962
    },
    {
      "name": "bufferView_1",
      "buffer": 0,
      "byteLength": 8904,
      "byteOffset": 8904,
      "byteStride": 12,
      "target": 34962
    },
    {
      "name": "bufferView_2",
      "buffer": 0,
      "byteLength": 5936,
      "byteOffset": 17808,
      "byteStride": 8,
      "target": 34962
    },
    {
      "name": "bufferView_3",
      "buffer": 0,
      "byteLength": 2600,
      "byteOffset": 23744,
      "target": 34963
    }
  ],
  "images": [
    {
      "name": "zhuanpng",
      "uri": "zhuanpng.png"
    },
    {
      "name": "chuanghu",
      "uri": "chuanghu.png"
    },
    {
      "name": "men",
      "uri": "men.png"
    },
    {
      "name": "PAI",
      "uri": "PAI.png"
    },
    {
      "name": "yuan",
      "uri": "yuan.png"
    },
    {
      "name": "lian",
      "uri": "lian.png"
    },
    {
      "name": "FAN",
      "uri": "FAN.png"
    },
    {
      "name": "chuang",
      "uri": "chuang.png"
    },
    {
      "name": "houmen",
      "uri": "houmen.png"
    },
    {
      "name": "baitiao",
      "uri": "baitiao.png"
    },
    {
      "name": "hui",
      "uri": "hui.png"
    },
    {
      "name": "zhuant",
      "uri": "zhuant.png"
    },
    {
      "name": "zi",
      "uri": "zi.png"
    },
    {
      "name": "wa",
      "uri": "wa.png"
    },
    {
      "name": "heipai",
      "uri": "heipai.png"
    }
  ],
  "materials": [
    {
      "name": "lambert27SG",
      "pbrMetallicRoughness": {
        "baseColorTexture": {
          "index": 0
        },
        "baseColorFactor": [
          1,
          1,
          1,
          1
        ],
        "metallicFactor": 0,
        "roughnessFactor": 0.97
      },
      "emissiveFactor": [
        0,
        0,
        0
      ],
      "alphaMode": "OPAQUE",
      "doubleSided": false
    },
    {
      "name": "lambert24SG",
      "pbrMetallicRoughness": {
        "baseColorTexture": {
          "index": 1
        },
        "baseColorFactor": [
          1,
          1,
          1,
          1
        ],
        "metallicFactor": 0,
        "roughnessFactor": 0.97
      },
      "emissiveFactor": [
        0,
        0,
        0
      ],
      "alphaMode": "OPAQUE",
      "doubleSided": false
    },
    {
      "name": "lambert10SG",
      "pbrMetallicRoughness": {
        "baseColorTexture": {
          "index": 2
        },
        "baseColorFactor": [
          1,
          1,
          1,
          1
        ],
        "metallicFactor": 0,
        "roughnessFactor": 0.97
      },
      "emissiveFactor": [
        0,
        0,
        0
      ],
      "alphaMode": "OPAQUE",
      "doubleSided": false
    },
    {
      "name": "lambert12SG",
      "pbrMetallicRoughness": {
        "baseColorTexture": {
          "index": 3
        },
        "baseColorFactor": [
          1,
          1,
          1,
          1
        ],
        "metallicFactor": 0,
        "roughnessFactor": 0.97
      },
      "emissiveFactor": [
        0,
        0,
        0
      ],
      "alphaMode": "OPAQUE",
      "doubleSided": false
    },
    {
      "name": "lambert17SG",
      "pbrMetallicRoughness": {
        "baseColorTexture": {
          "index": 4
        },
        "baseColorFactor": [
          1,
          1,
          1,
          1
        ],
        "metallicFactor": 0,
        "roughnessFactor": 0.97
      },
      "emissiveFactor": [
        0,
        0,
        0
      ],
      "alphaMode": "OPAQUE",
      "doubleSided": false
    },
    {
      "name": "lambert13SG",
      "pbrMetallicRoughness": {
        "baseColorTexture": {
          "index": 5
        },
        "baseColorFactor": [
          1,
          1,
          1,
          1
        ],
        "metallicFactor": 0,
        "roughnessFactor": 0.97
      },
      "emissiveFactor": [
        0,
        0,
        0
      ],
      "alphaMode": "OPAQUE",
      "doubleSided": false
    },
    {
      "name": "lambert15SG",
      "pbrMetallicRoughness": {
        "baseColorTexture": {
          "index": 6
        },
        "baseColorFactor": [
          1,
          1,
          1,
          1
        ],
        "metallicFactor": 0,
        "roughnessFactor": 0.97
      },
      "emissiveFactor": [
        0,
        0,
        0
      ],
      "alphaMode": "OPAQUE",
      "doubleSided": false
    },
    {
      "name": "lambert20SG",
      "pbrMetallicRoughness": {
        "baseColorTexture": {
          "index": 7
        },
        "baseColorFactor": [
          1,
          1,
          1,
          1
        ],
        "metallicFactor": 0,
        "roughnessFactor": 0.97
      },
      "emissiveFactor": [
        0,
        0,
        0
      ],
      "alphaMode": "OPAQUE",
      "doubleSided": false
    },
    {
      "name": "lambert30SG",
      "pbrMetallicRoughness": {
        "baseColorTexture": {
          "index": 8
        },
        "baseColorFactor": [
          1,
          1,
          1,
          1
        ],
        "metallicFactor": 0,
        "roughnessFactor": 0.97
      },
      "emissiveFactor": [
        0,
        0,
        0
      ],
      "alphaMode": "OPAQUE",
      "doubleSided": false
    },
    {
      "name": "lambert28SG",
      "pbrMetallicRoughness": {
        "baseColorTexture": {
          "index": 8
        },
        "baseColorFactor": [
          1,
          1,
          1,
          1
        ],
        "metallicFactor": 0,
        "roughnessFactor": 0.97
      },
      "emissiveFactor": [
        0,
        0,
        0
      ],
      "alphaMode": "OPAQUE",
      "doubleSided": false
    },
    {
      "name": "lambert33SG",
      "pbrMetallicRoughness": {
        "baseColorTexture": {
          "index": 9
        },
        "baseColorFactor": [
          1,
          1,
          1,
          1
        ],
        "metallicFactor": 0,
        "roughnessFactor": 0.97
      },
      "emissiveFactor": [
        0,
        0,
        0
      ],
      "alphaMode": "OPAQUE",
      "doubleSided": false
    },
    {
      "name": "lambert9SG",
      "pbrMetallicRoughness": {
        "baseColorTexture": {
          "index": 10
        },
        "baseColorFactor": [
          1,
          1,
          1,
          1
        ],
        "metallicFactor": 0,
        "roughnessFactor": 0.97
      },
      "emissiveFactor": [
        0,
        0,
        0
      ],
      "alphaMode": "OPAQUE",
      "doubleSided": false
    },
    {
      "name": "lambert31SG",
      "pbrMetallicRoughness": {
        "baseColorTexture": {
          "index": 11
        },
        "baseColorFactor": [
          1,
          1,
          1,
          1
        ],
        "metallicFactor": 0,
        "roughnessFactor": 0.97
      },
      "emissiveFactor": [
        0,
        0,
        0
      ],
      "alphaMode": "OPAQUE",
      "doubleSided": false
    },
    {
      "name": "lambert5SG",
      "pbrMetallicRoughness": {
        "baseColorTexture": {
          "index": 12
        },
        "baseColorFactor": [
          1,
          1,
          1,
          1
        ],
        "metallicFactor": 0,
        "roughnessFactor": 0.97
      },
      "emissiveFactor": [
        0,
        0,
        0
      ],
      "alphaMode": "OPAQUE",
      "doubleSided": false
    },
    {
      "name": "lambert8SG",
      "pbrMetallicRoughness": {
        "baseColorTexture": {
          "index": 10
        },
        "baseColorFactor": [
          1,
          1,
          1,
          1
        ],
        "metallicFactor": 0,
        "roughnessFactor": 0.97
      },
      "emissiveFactor": [
        0,
        0,
        0
      ],
      "alphaMode": "OPAQUE",
      "doubleSided": false
    },
    {
      "name": "lambert23SG",
      "pbrMetallicRoughness": {
        "baseColorTexture": {
          "index": 13
        },
        "baseColorFactor": [
          1,
          1,
          1,
          1
        ],
        "metallicFactor": 0,
        "roughnessFactor": 0.97
      },
      "emissiveFactor": [
        0,
        0,
        0
      ],
      "alphaMode": "OPAQUE",
      "doubleSided": false
    },
    {
      "name": "lambert34SG",
      "pbrMetallicRoughness": {
        "baseColorTexture": {
          "index": 14
        },
        "baseColorFactor": [
          1,
          1,
          1,
          1
        ],
        "metallicFactor": 0,
        "roughnessFactor": 0.97
      },
      "emissiveFactor": [
        0,
        0,
        0
      ],
      "alphaMode": "OPAQUE",
      "doubleSided": false
    }
  ],
  "meshes": [
    {
      "name": "qiang_1",
      "primitives": [
        {
          "attributes": {
            "POSITION": 0,
            "NORMAL": 1,
            "TEXCOORD_0": 2
          },
          "indices": 3,
          "material": 0,
          "mode": 4
        },
        {
          "attributes": {
            "POSITION": 4,
            "NORMAL": 5,
            "TEXCOORD_0": 6
          },
          "indices": 7,
          "material": 1,
          "mode": 4
        },
        {
          "attributes": {
            "POSITION": 8,
            "NORMAL": 9,
            "TEXCOORD_0": 10
          },
          "indices": 11,
          "material": 2,
          "mode": 4
        },
        {
          "attributes": {
            "POSITION": 12,
            "NORMAL": 13,
            "TEXCOORD_0": 14
          },
          "indices": 15,
          "material": 3,
          "mode": 4
        },
        {
          "attributes": {
            "POSITION": 16,
            "NORMAL": 17,
            "TEXCOORD_0": 18
          },
          "indices": 19,
          "material": 4,
          "mode": 4
        },
        {
          "attributes": {
            "POSITION": 20,
            "NORMAL": 21,
            "TEXCOORD_0": 22
          },
          "indices": 23,
          "material": 5,
          "mode": 4
        },
        {
          "attributes": {
            "POSITION": 24,
            "NORMAL": 25,
            "TEXCOORD_0": 26
          },
          "indices": 27,
          "material": 6,
          "mode": 4
        },
        {
          "attributes": {
            "POSITION": 28,
            "NORMAL": 29,
            "TEXCOORD_0": 30
          },
          "indices": 31,
          "material": 7,
          "mode": 4
        },
        {
          "attributes": {
            "POSITION": 32,
            "NORMAL": 33,
            "TEXCOORD_0": 34
          },
          "indices": 35,
          "material": 8,
          "mode": 4
        },
        {
          "attributes": {
            "POSITION": 36,
            "NORMAL": 37,
            "TEXCOORD_0": 38
          },
          "indices": 39,
          "material": 9,
          "mode": 4
        },
        {
          "attributes": {
            "POSITION": 40,
            "NORMAL": 41,
            "TEXCOORD_0": 42
          },
          "indices": 43,
          "material": 10,
          "mode": 4
        },
        {
          "attributes": {
            "POSITION": 44,
            "NORMAL": 45,
            "TEXCOORD_0": 46
          },
          "indices": 47,
          "material": 11,
          "mode": 4
        },
        {
          "attributes": {
            "POSITION": 48,
            "NORMAL": 49,
            "TEXCOORD_0": 50
          },
          "indices": 51,
          "material": 12,
          "mode": 4
        },
        {
          "attributes": {
            "POSITION": 52,
            "NORMAL": 53,
            "TEXCOORD_0": 54
          },
          "indices": 55,
          "material": 13,
          "mode": 4
        },
        {
          "attributes": {
            "POSITION": 56,
            "NORMAL": 57,
            "TEXCOORD_0": 58
          },
          "indices": 59,
          "material": 14,
          "mode": 4
        },
        {
          "attributes": {
            "POSITION": 60,
            "NORMAL": 61,
            "TEXCOORD_0": 62
          },
          "indices": 63,
          "material": 15,
          "mode": 4
        },
        {
          "attributes": {
            "POSITION": 64,
            "NORMAL": 65,
            "TEXCOORD_0": 66
          },
          "indices": 67,
          "material": 16,
          "mode": 4
        }
      ]
    }
  ],
  "nodes": [
    {
      "name": "qiang",
      "mesh": 0
    }
  ],
  "samplers": [
    {
      "wrapS": 10497,
      "wrapT": 10497
    }
  ],
  "scene": 0,
  "scenes": [
    {
      "nodes": [
        0
      ]
    }
  ],
  "textures": [
    {
      "name": "zhuanpng",
      "sampler": 0,
      "source": 0
    },
    {
      "name": "chuanghu",
      "sampler": 0,
      "source": 1
    },
    {
      "name": "men",
      "sampler": 0,
      "source": 2
    },
    {
      "name": "PAI",
      "sampler": 0,
      "source": 3
    },
    {
      "name": "yuan",
      "sampler": 0,
      "source": 4
    },
    {
      "name": "lian",
      "sampler": 0,
      "source": 5
    },
    {
      "name": "FAN",
      "sampler": 0,
      "source": 6
    },
    {
      "name": "chuang",
      "sampler": 0,
      "source": 7
    },
    {
      "name": "houmen",
      "sampler": 0,
      "source": 8
    },
    {
      "name": "baitiao",
      "sampler": 0,
      "source": 9
    },
    {
      "name": "hui",
      "sampler": 0,
      "source": 10
    },
    {
      "name": "zhuant",
      "sampler": 0,
      "source": 11
    },
    {
      "name": "zi",
      "sampler": 0,
      "source": 12
    },
    {
      "name": "wa",
      "sampler": 0,
      "source": 13
    },
    {
      "name": "heipai",
      "sampler": 0,
      "source": 14
    }
  ]
}
