{
  "accessors": [
    {
      "name": "Box001_1_0_positions",
      "componentType": 5126,
      "count": 34,
      "min": [
        -10.945699691772461,
        -14.619099617004395,
        6.6768999099731445
      ],
      "max": [
        10.945699691772461,
        11.027799606323242,
        35.299598693847656
      ],
      "type": "VEC3",
      "bufferView": 0,
      "byteOffset": 0
    },
    {
      "name": "Box001_1_0_normals",
      "componentType": 5126,
      "count": 34,
      "min": [
        -1,
        -1,
        0
      ],
      "max": [
        1,
        1,
        1
      ],
      "type": "VEC3",
      "bufferView": 1,
      "byteOffset": 0
    },
    {
      "name": "Box001_1_0_texcoords",
      "componentType": 5126,
      "count": 34,
      "min": [
        -0.8162000179290771,
        -1.4486000537872314
      ],
      "max": [
        1.8162000179290771,
        2.4486000537872314
      ],
      "type": "VEC2",
      "bufferView": 2,
      "byteOffset": 0
    },
    {
      "name": "Box001_1_0_indices",
      "componentType": 5123,
      "count": 66,
      "min": [
        0
      ],
      "max": [
        33
      ],
      "type": "SCALAR",
      "bufferView": 3,
      "byteOffset": 0
    },
    {
      "name": "Box001_1_1_positions",
      "componentType": 5126,
      "count": 225,
      "min": [
        -11.371899604797363,
        -11.526300430297852,
        0
      ],
      "max": [
        11.648099899291992,
        11.434399604797363,
        35.70859909057617
      ],
      "type": "VEC3",
      "bufferView": 0,
      "byteOffset": 408
    },
    {
      "name": "Box001_1_1_normals",
      "componentType": 5126,
      "count": 225,
      "min": [
        -1,
        -1,
        -1
      ],
      "max": [
        1,
        1,
        1
      ],
      "type": "VEC3",
      "bufferView": 1,
      "byteOffset": 408
    },
    {
      "name": "Box001_1_1_texcoords",
      "componentType": 5126,
      "count": 225,
      "min": [
        0,
        0
      ],
      "max": [
        2.288599967956543,
        4.049600124359131
      ],
      "type": "VEC2",
      "bufferView": 2,
      "byteOffset": 272
    },
    {
      "name": "Box001_1_1_indices",
      "componentType": 5123,
      "count": 393,
      "min": [
        0
      ],
      "max": [
        224
      ],
      "type": "SCALAR",
      "bufferView": 3,
      "byteOffset": 132
    },
    {
      "name": "Box001_1_2_positions",
      "componentType": 5126,
      "count": 16,
      "min": [
        -6.477499961853027,
        -14.619099617004395,
        0
      ],
      "max": [
        -0.701200008392334,
        -10.669400215148926,
        6.6768999099731445
      ],
      "type": "VEC3",
      "bufferView": 0,
      "byteOffset": 3108
    },
    {
      "name": "Box001_1_2_normals",
      "componentType": 5126,
      "count": 16,
      "min": [
        -1,
        -1,
        0
      ],
      "max": [
        1,
        1,
        0
      ],
      "type": "VEC3",
      "bufferView": 1,
      "byteOffset": 3108
    },
    {
      "name": "Box001_1_2_texcoords",
      "componentType": 5126,
      "count": 16,
      "min": [
        0,
        0
      ],
      "max": [
        1,
        1
      ],
      "type": "VEC2",
      "bufferView": 2,
      "byteOffset": 2072
    },
    {
      "name": "Box001_1_2_indices",
      "componentType": 5123,
      "count": 24,
      "min": [
        0
      ],
      "max": [
        15
      ],
      "type": "SCALAR",
      "bufferView": 3,
      "byteOffset": 920
    }
  ],
  "asset": {
    "generator": "obj2gltf",
    "version": "2.0"
  },
  "buffers": [
    {
      "name": "jz17",
      "byteLength": 9768,
      "uri": "data:application/octet-stream;base64,"
    }
  ],
  "bufferViews": [
    {
      "name": "bufferView_0",
      "buffer": 0,
      "byteLength": 3300,
      "byteOffset": 0,
      "byteStride": 12,
      "target": 34962
    },
    {
      "name": "bufferView_1",
      "buffer": 0,
      "byteLength": 3300,
      "byteOffset": 3300,
      "byteStride": 12,
      "target": 34962
    },
    {
      "name": "bufferView_2",
      "buffer": 0,
      "byteLength": 2200,
      "byteOffset": 6600,
      "byteStride": 8,
      "target": 34962
    },
    {
      "name": "bufferView_3",
      "buffer": 0,
      "byteLength": 968,
      "byteOffset": 8800,
      "target": 34963
    }
  ],
  "images": [
    {
      "name": "SGY_Q1_010",
      "uri": "SGY_Q1_010.jpg"
    },
    {
      "name": "SGY_Q1_026",
      "uri": "SGY_Q1_026.jpg"
    },
    {
      "name": "SGY_Q1_001",
      "uri": "SGY_Q1_001.jpg"
    }
  ],
  "materials": [
    {
      "name": "Material__26",
      "pbrMetallicRoughness": {
        "baseColorTexture": {
          "index": 0
        },
        "baseColorFactor": [
          1,
          1,
          1,
          1
        ],
        "metallicFactor": 0,
        "roughnessFactor": 0.99
      },
      "emissiveFactor": [
        0,
        0,
        0
      ],
      "alphaMode": "OPAQUE",
      "doubleSided": false
    },
    {
      "name": "Material__25",
      "pbrMetallicRoughness": {
        "baseColorTexture": {
          "index": 1
        },
        "baseColorFactor": [
          1,
          1,
          1,
          1
        ],
        "metallicFactor": 0,
        "roughnessFactor": 0.99
      },
      "emissiveFactor": [
        0,
        0,
        0
      ],
      "alphaMode": "OPAQUE",
      "doubleSided": false
    },
    {
      "name": "Material__52",
      "pbrMetallicRoughness": {
        "baseColorTexture": {
          "index": 2
        },
        "baseColorFactor": [
          1,
          1,
          1,
          1
        ],
        "metallicFactor": 0,
        "roughnessFactor": 0.99
      },
      "emissiveFactor": [
        0,
        0,
        0
      ],
      "alphaMode": "OPAQUE",
      "doubleSided": false
    }
  ],
  "meshes": [
    {
      "name": "Box001_1",
      "primitives": [
        {
          "attributes": {
            "POSITION": 0,
            "NORMAL": 1,
            "TEXCOORD_0": 2
          },
          "indices": 3,
          "material": 0,
          "mode": 4
        },
        {
          "attributes": {
            "POSITION": 4,
            "NORMAL": 5,
            "TEXCOORD_0": 6
          },
          "indices": 7,
          "material": 1,
          "mode": 4
        },
        {
          "attributes": {
            "POSITION": 8,
            "NORMAL": 9,
            "TEXCOORD_0": 10
          },
          "indices": 11,
          "material": 2,
          "mode": 4
        }
      ]
    }
  ],
  "nodes": [
    {
      "name": "Box001",
      "mesh": 0
    }
  ],
  "samplers": [
    {
      "wrapS": 10497,
      "wrapT": 10497
    }
  ],
  "scene": 0,
  "scenes": [
    {
      "nodes": [
        0
      ]
    }
  ],
  "textures": [
    {
      "name": "SGY_Q1_010",
      "sampler": 0,
      "source": 0
    },
    {
      "name": "SGY_Q1_026",
      "sampler": 0,
      "source": 1
    },
    {
      "name": "SGY_Q1_001",
      "sampler": 0,
      "source": 2
    }
  ]
}
