{
  "accessors": [
    {
      "name": "Object001_1_0_positions",
      "componentType": 5126,
      "count": 266,
      "min": [
        -0.6577000021934509,
        -4.844900131225586,
        0
      ],
      "max": [
        0.6577000021934509,
        4.844900131225586,
        6.818399906158447
      ],
      "type": "VEC3",
      "bufferView": 0,
      "byteOffset": 0
    },
    {
      "name": "Object001_1_0_normals",
      "componentType": 5126,
      "count": 266,
      "min": [
        -1,
        -1,
        -1
      ],
      "max": [
        1,
        1,
        1
      ],
      "type": "VEC3",
      "bufferView": 1,
      "byteOffset": 0
    },
    {
      "name": "Object001_1_0_texcoords",
      "componentType": 5126,
      "count": 266,
      "min": [
        -0.5856999754905701,
        -0.5856999754905701
      ],
      "max": [
        1.5852999687194824,
        1.5857000350952148
      ],
      "type": "VEC2",
      "bufferView": 2,
      "byteOffset": 0
    },
    {
      "name": "Object001_1_0_indices",
      "componentType": 5123,
      "count": 468,
      "min": [
        0
      ],
      "max": [
        265
      ],
      "type": "SCALAR",
      "bufferView": 3,
      "byteOffset": 0
    },
    {
      "name": "Object001_1_1_positions",
      "componentType": 5126,
      "count": 10,
      "min": [
        -0.5080000162124634,
        -2.0941998958587646,
        5.2891998291015625
      ],
      "max": [
        0.4936999976634979,
        2.0934998989105225,
        5.939300060272217
      ],
      "type": "VEC3",
      "bufferView": 0,
      "byteOffset": 3192
    },
    {
      "name": "Object001_1_1_normals",
      "componentType": 5126,
      "count": 10,
      "min": [
        -1,
        0,
        0
      ],
      "max": [
        1,
        0.00009999999747378752,
        0
      ],
      "type": "VEC3",
      "bufferView": 1,
      "byteOffset": 3192
    },
    {
      "name": "Object001_1_1_texcoords",
      "componentType": 5126,
      "count": 10,
      "min": [
        -0.16670000553131104,
        0.06960000097751617
      ],
      "max": [
        1.166700005531311,
        0.998199999332428
      ],
      "type": "VEC2",
      "bufferView": 2,
      "byteOffset": 2128
    },
    {
      "name": "Object001_1_1_indices",
      "componentType": 5123,
      "count": 12,
      "min": [
        0
      ],
      "max": [
        9
      ],
      "type": "SCALAR",
      "bufferView": 3,
      "byteOffset": 936
    }
  ],
  "asset": {
    "generator": "obj2gltf",
    "version": "2.0"
  },
  "buffers": [
    {
      "name": "Q1",
      "byteLength": 9792,
      "uri": "data:application/octet-stream;base64,"
    }
  ],
  "bufferViews": [
    {
      "name": "bufferView_0",
      "buffer": 0,
      "byteLength": 3312,
      "byteOffset": 0,
      "byteStride": 12,
      "target": 34962
    },
    {
      "name": "bufferView_1",
      "buffer": 0,
      "byteLength": 3312,
      "byteOffset": 3312,
      "byteStride": 12,
      "target": 34962
    },
    {
      "name": "bufferView_2",
      "buffer": 0,
      "byteLength": 2208,
      "byteOffset": 6624,
      "byteStride": 8,
      "target": 34962
    },
    {
      "name": "bufferView_3",
      "buffer": 0,
      "byteLength": 960,
      "byteOffset": 8832,
      "target": 34963
    }
  ],
  "images": [
    {
      "name": "SGY_Q5_002",
      "uri": "SGY_Q5_002.jpg"
    },
    {
      "name": "SGY_Q5_001",
      "uri": "SGY_Q5_001.jpg"
    }
  ],
  "materials": [
    {
      "name": "Material__25",
      "pbrMetallicRoughness": {
        "baseColorTexture": {
          "index": 0
        },
        "baseColorFactor": [
          1,
          1,
          1,
          1
        ],
        "metallicFactor": 0,
        "roughnessFactor": 0.99
      },
      "emissiveFactor": [
        0,
        0,
        0
      ],
      "alphaMode": "OPAQUE",
      "doubleSided": false
    },
    {
      "name": "Material__26",
      "pbrMetallicRoughness": {
        "baseColorTexture": {
          "index": 1
        },
        "baseColorFactor": [
          1,
          1,
          1,
          1
        ],
        "metallicFactor": 0,
        "roughnessFactor": 0.99
      },
      "emissiveFactor": [
        0,
        0,
        0
      ],
      "alphaMode": "OPAQUE",
      "doubleSided": false
    }
  ],
  "meshes": [
    {
      "name": "Object001_1",
      "primitives": [
        {
          "attributes": {
            "POSITION": 0,
            "NORMAL": 1,
            "TEXCOORD_0": 2
          },
          "indices": 3,
          "material": 0,
          "mode": 4
        },
        {
          "attributes": {
            "POSITION": 4,
            "NORMAL": 5,
            "TEXCOORD_0": 6
          },
          "indices": 7,
          "material": 1,
          "mode": 4
        }
      ]
    }
  ],
  "nodes": [
    {
      "name": "Object001",
      "mesh": 0
    }
  ],
  "samplers": [
    {
      "wrapS": 10497,
      "wrapT": 10497
    }
  ],
  "scene": 0,
  "scenes": [
    {
      "nodes": [
        0
      ]
    }
  ],
  "textures": [
    {
      "name": "SGY_Q5_002",
      "sampler": 0,
      "source": 0
    },
    {
      "name": "SGY_Q5_001",
      "sampler": 0,
      "source": 1
    }
  ]
}
