{"asset":{"version":"2.0","generator":"babylon.js glTF exporter for 3dsmax 2022 v20240312.5"},"scene":0,"scenes":[{"nodes":[0]}],"nodes":[{"mesh":0,"rotation":[0.0,-8.742278E-08,0.0,1.0],"name":"Box002"}],"meshes":[{"primitives":[{"attributes":{"POSITION":1,"NORMAL":2,"TEXCOORD_0":3},"indices":0,"material":0},{"attributes":{"POSITION":5,"NORMAL":6,"TEXCOORD_0":7},"indices":4,"material":1},{"attributes":{"POSITION":9,"NORMAL":10,"TEXCOORD_0":11},"indices":8,"material":2},{"attributes":{"POSITION":13,"NORMAL":14,"TEXCOORD_0":15},"indices":12,"material":3},{"attributes":{"POSITION":17,"NORMAL":18,"TEXCOORD_0":19},"indices":16,"material":4},{"attributes":{"POSITION":21,"NORMAL":22,"TEXCOORD_0":23},"indices":20,"material":5},{"attributes":{"POSITION":25,"NORMAL":26,"TEXCOORD_0":27},"indices":24,"material":6},{"attributes":{"POSITION":29,"NORMAL":30,"TEXCOORD_0":31},"indices":28,"material":7},{"attributes":{"POSITION":33,"NORMAL":34,"TEXCOORD_0":35},"indices":32,"material":8},{"attributes":{"POSITION":37,"NORMAL":38,"TEXCOORD_0":39},"indices":36,"material":9},{"attributes":{"POSITION":41,"NORMAL":42,"TEXCOORD_0":43},"indices":40,"material":10},{"attributes":{"POSITION":45,"NORMAL":46,"TEXCOORD_0":47},"indices":44,"material":11},{"attributes":{"POSITION":49,"NORMAL":50,"TEXCOORD_0":51},"indices":48,"material":12},{"attributes":{"POSITION":53,"NORMAL":54,"TEXCOORD_0":55},"indices":52,"material":13},{"attributes":{"POSITION":57,"NORMAL":58,"TEXCOORD_0":59},"indices":56,"material":14},{"attributes":{"POSITION":61,"NORMAL":62,"TEXCOORD_0":63},"indices":60,"material":15},{"attributes":{"POSITION":65,"NORMAL":66,"TEXCOORD_0":67},"indices":64,"material":16},{"attributes":{"POSITION":69,"NORMAL":70,"TEXCOORD_0":71},"indices":68,"material":17},{"attributes":{"POSITION":73,"NORMAL":74,"TEXCOORD_0":75},"indices":72,"material":18},{"attributes":{"POSITION":77,"NORMAL":78,"TEXCOORD_0":79},"indices":76,"material":19},{"attributes":{"POSITION":81,"NORMAL":82,"TEXCOORD_0":83},"indices":80,"material":20},{"attributes":{"POSITION":85,"NORMAL":86,"TEXCOORD_0":87},"indices":84,"material":21},{"attributes":{"POSITION":89,"NORMAL":90,"TEXCOORD_0":91},"indices":88,"material":22},{"attributes":{"POSITION":93,"NORMAL":94,"TEXCOORD_0":95},"indices":92,"material":23}],"name":"Box002"}],"accessors":[{"bufferView":0,"componentType":5123,"count":84,"type":"SCALAR","name":"accessorIndices"},{"bufferView":1,"componentType":5126,"count":42,"max":[64.46872,63.80585,32.79197],"min":[-68.4743,-45.8679771,15.7680387],"type":"VEC3","name":"accessorPositions"},{"bufferView":1,"byteOffset":504,"componentType":5126,"count":42,"type":"VEC3","name":"accessorNormals"},{"bufferView":2,"componentType":5126,"count":42,"type":"VEC2","name":"accessorUVs"},{"bufferView":0,"byteOffset":168,"componentType":5123,"count":567,"type":"SCALAR","name":"accessorIndices"},{"bufferView":1,"byteOffset":1008,"componentType":5126,"count":297,"max":[69.40054,72.3295746,34.62395],"min":[-73.40613,-60.5744629,0.000198640075],"type":"VEC3","name":"accessorPositions"},{"bufferView":1,"byteOffset":4572,"componentType":5126,"count":297,"type":"VEC3","name":"accessorNormals"},{"bufferView":2,"byteOffset":336,"componentType":5126,"count":297,"type":"VEC2","name":"accessorUVs"},{"bufferView":0,"byteOffset":1304,"componentType":5123,"count":30,"type":"SCALAR","name":"accessorIndices"},{"bufferView":1,"byteOffset":8136,"componentType":5126,"count":14,"max":[52.0118561,63.8058472,32.79195],"min":[-30.4999371,-45.8679771,15.7680435],"type":"VEC3","name":"accessorPositions"},{"bufferView":1,"byteOffset":8304,"componentType":5126,"count":14,"type":"VEC3","name":"accessorNormals"},{"bufferView":2,"byteOffset":2712,"componentType":5126,"count":14,"type":"VEC2","name":"accessorUVs"},{"bufferView":0,"byteOffset":1364,"componentType":5123,"count":6,"type":"SCALAR","name":"accessorIndices"},{"bufferView":1,"byteOffset":8472,"componentType":5126,"count":4,"max":[64.46872,-45.86797,27.1520138],"min":[52.01185,-45.8679771,15.7680521],"type":"VEC3","name":"accessorPositions"},{"bufferView":1,"byteOffset":8520,"componentType":5126,"count":4,"type":"VEC3","name":"accessorNormals"},{"bufferView":2,"byteOffset":2824,"componentType":5126,"count":4,"type":"VEC2","name":"accessorUVs"},{"bufferView":0,"byteOffset":1376,"componentType":5123,"count":48,"type":"SCALAR","name":"accessorIndices"},{"bufferView":1,"byteOffset":8568,"componentType":5126,"count":32,"max":[53.6607323,70.00776,8.551433],"min":[-68.7576,-58.2526321,0.000199418908],"type":"VEC3","name":"accessorPositions"},{"bufferView":1,"byteOffset":8952,"componentType":5126,"count":32,"type":"VEC3","name":"accessorNormals"},{"bufferView":2,"byteOffset":2856,"componentType":5126,"count":32,"type":"VEC2","name":"accessorUVs"},{"bufferView":0,"byteOffset":1472,"componentType":5123,"count":432,"type":"SCALAR","name":"accessorIndices"},{"bufferView":1,"byteOffset":9336,"componentType":5126,"count":232,"max":[70.44186,78.22629,15.7899551],"min":[-68.47427,-60.8440552,-1.09094635E-05],"type":"VEC3","name":"accessorPositions"},{"bufferView":1,"byteOffset":12120,"componentType":5126,"count":232,"type":"VEC3","name":"accessorNormals"},{"bufferView":2,"byteOffset":3112,"componentType":5126,"count":232,"type":"VEC2","name":"accessorUVs"},{"bufferView":0,"byteOffset":2336,"componentType":5123,"count":36,"type":"SCALAR","name":"accessorIndices"},{"bufferView":1,"byteOffset":14904,"componentType":5126,"count":20,"max":[68.18596,67.52309,15.7680531],"min":[-68.47427,-40.26201,-1.09094635E-05],"type":"VEC3","name":"accessorPositions"},{"bufferView":1,"byteOffset":15144,"componentType":5126,"count":20,"type":"VEC3","name":"accessorNormals"},{"bufferView":2,"byteOffset":4968,"componentType":5126,"count":20,"type":"VEC2","name":"accessorUVs"},{"bufferView":0,"byteOffset":2408,"componentType":5123,"count":120,"type":"SCALAR","name":"accessorIndices"},{"bufferView":1,"byteOffset":15384,"componentType":5126,"count":80,"max":[75.26905,70.03431,13.7145071],"min":[-68.9791,-58.72457,2.25400519],"type":"VEC3","name":"accessorPositions"},{"bufferView":1,"byteOffset":16344,"componentType":5126,"count":80,"type":"VEC3","name":"accessorNormals"},{"bufferView":2,"byteOffset":5128,"componentType":5126,"count":80,"type":"VEC2","name":"accessorUVs"},{"bufferView":0,"byteOffset":2648,"componentType":5123,"count":13950,"type":"SCALAR","name":"accessorIndices"},{"bufferView":1,"byteOffset":17304,"componentType":5126,"count":5956,"max":[-49.78008,-54.63729,36.055],"min":[-67.95853,-72.81651,0.000185964469],"type":"VEC3","name":"accessorPositions"},{"bufferView":1,"byteOffset":88776,"componentType":5126,"count":5956,"type":"VEC3","name":"accessorNormals"},{"bufferView":2,"byteOffset":5768,"componentType":5126,"count":5956,"type":"VEC2","name":"accessorUVs"},{"bufferView":0,"byteOffset":30548,"componentType":5123,"count":4440,"type":"SCALAR","name":"accessorIndices"},{"bufferView":1,"byteOffset":160248,"componentType":5126,"count":1367,"max":[-44.3181229,-49.2150764,76.63572],"min":[-76.78549,-78.2262955,23.5385761],"type":"VEC3","name":"accessorPositions"},{"bufferView":1,"byteOffset":176652,"componentType":5126,"count":1367,"type":"VEC3","name":"accessorNormals"},{"bufferView":2,"byteOffset":53416,"componentType":5126,"count":1367,"type":"VEC2","name":"accessorUVs"},{"bufferView":0,"byteOffset":39428,"componentType":5123,"count":420,"type":"SCALAR","name":"accessorIndices"},{"bufferView":1,"byteOffset":193056,"componentType":5126,"count":188,"max":[-45.2381821,-50.13517,69.75811],"min":[-75.64617,-77.30624,9.606496],"type":"VEC3","name":"accessorPositions"},{"bufferView":1,"byteOffset":195312,"componentType":5126,"count":188,"type":"VEC3","name":"accessorNormals"},{"bufferView":2,"byteOffset":64352,"componentType":5126,"count":188,"type":"VEC2","name":"accessorUVs"},{"bufferView":0,"byteOffset":40268,"componentType":5123,"count":360,"type":"SCALAR","name":"accessorIndices"},{"bufferView":1,"byteOffset":197568,"componentType":5126,"count":200,"max":[0.506649,13.2448626,6.488253],"min":[-69.06453,-56.62587,0.00253379415],"type":"VEC3","name":"accessorPositions"},{"bufferView":1,"byteOffset":199968,"componentType":5126,"count":200,"type":"VEC3","name":"accessorNormals"},{"bufferView":2,"byteOffset":65856,"componentType":5126,"count":200,"type":"VEC2","name":"accessorUVs"},{"bufferView":0,"byteOffset":40988,"componentType":5123,"count":1734,"type":"SCALAR","name":"accessorIndices"},{"bufferView":1,"byteOffset":202368,"componentType":5126,"count":604,"max":[4.551506,17.1399479,54.0286827],"min":[-73.109375,-60.52094,8.793398],"type":"VEC3","name":"accessorPositions"},{"bufferView":1,"byteOffset":209616,"componentType":5126,"count":604,"type":"VEC3","name":"accessorNormals"},{"bufferView":2,"byteOffset":67456,"componentType":5126,"count":604,"type":"VEC2","name":"accessorUVs"},{"bufferView":0,"byteOffset":44456,"componentType":5123,"count":120,"type":"SCALAR","name":"accessorIndices"},{"bufferView":1,"byteOffset":216864,"componentType":5126,"count":80,"max":[-4.08083725,8.50759,33.0161171],"min":[-64.47704,-51.8886147,26.7357769],"type":"VEC3","name":"accessorPositions"},{"bufferView":1,"byteOffset":217824,"componentType":5126,"count":80,"type":"VEC3","name":"accessorNormals"},{"bufferView":2,"byteOffset":72288,"componentType":5126,"count":80,"type":"VEC2","name":"accessorUVs"},{"bufferView":0,"byteOffset":44696,"componentType":5123,"count":2310,"type":"SCALAR","name":"accessorIndices"},{"bufferView":1,"byteOffset":218784,"componentType":5126,"count":893,"max":[3.948986,16.5374279,26.7357922],"min":[-72.5068741,-59.91843,0.00253379415],"type":"VEC3","name":"accessorPositions"},{"bufferView":1,"byteOffset":229500,"componentType":5126,"count":893,"type":"VEC3","name":"accessorNormals"},{"bufferView":2,"byteOffset":72928,"componentType":5126,"count":893,"type":"VEC2","name":"accessorUVs"},{"bufferView":0,"byteOffset":49316,"componentType":5123,"count":240,"type":"SCALAR","name":"accessorIndices"},{"bufferView":1,"byteOffset":240216,"componentType":5126,"count":96,"max":[0.484869272,13.0732994,24.9359665],"min":[-69.0427246,-56.4543037,10.8374071],"type":"VEC3","name":"accessorPositions"},{"bufferView":1,"byteOffset":241368,"componentType":5126,"count":96,"type":"VEC3","name":"accessorNormals"},{"bufferView":2,"byteOffset":80072,"componentType":5126,"count":96,"type":"VEC2","name":"accessorUVs"},{"bufferView":0,"byteOffset":49796,"componentType":5123,"count":84,"type":"SCALAR","name":"accessorIndices"},{"bufferView":1,"byteOffset":242520,"componentType":5126,"count":52,"max":[-23.8110371,-62.5120354,79.12841],"min":[-45.1770058,-71.2790146,16.7591057],"type":"VEC3","name":"accessorPositions"},{"bufferView":1,"byteOffset":243144,"componentType":5126,"count":52,"type":"VEC3","name":"accessorNormals"},{"bufferView":2,"byteOffset":80840,"componentType":5126,"count":52,"type":"VEC2","name":"accessorUVs"},{"bufferView":0,"byteOffset":49964,"componentType":5123,"count":15324,"type":"SCALAR","name":"accessorIndices"},{"bufferView":1,"byteOffset":243768,"componentType":5126,"count":6617,"max":[3.70965958,16.2980862,115.596939],"min":[-72.26754,-72.49315,0.0001899684],"type":"VEC3","name":"accessorPositions"},{"bufferView":1,"byteOffset":323172,"componentType":5126,"count":6617,"type":"VEC3","name":"accessorNormals"},{"bufferView":2,"byteOffset":81256,"componentType":5126,"count":6617,"type":"VEC2","name":"accessorUVs"},{"bufferView":0,"byteOffset":80612,"componentType":5123,"count":600,"type":"SCALAR","name":"accessorIndices"},{"bufferView":1,"byteOffset":402576,"componentType":5126,"count":400,"max":[2.89061832,15.4790611,56.01757],"min":[-71.44851,-58.86007,10.452919],"type":"VEC3","name":"accessorPositions"},{"bufferView":1,"byteOffset":407376,"componentType":5126,"count":400,"type":"VEC3","name":"accessorNormals"},{"bufferView":2,"byteOffset":134192,"componentType":5126,"count":400,"type":"VEC2","name":"accessorUVs"},{"bufferView":0,"byteOffset":81812,"componentType":5123,"count":120,"type":"SCALAR","name":"accessorIndices"},{"bufferView":1,"byteOffset":412176,"componentType":5126,"count":56,"max":[-7.810938,71.19564,27.15202],"min":[-69.48835,-3.007558,13.3763647],"type":"VEC3","name":"accessorPositions"},{"bufferView":1,"byteOffset":412848,"componentType":5126,"count":56,"type":"VEC3","name":"accessorNormals"},{"bufferView":2,"byteOffset":137392,"componentType":5126,"count":56,"type":"VEC2","name":"accessorUVs"},{"bufferView":0,"byteOffset":82052,"componentType":5123,"count":6,"type":"SCALAR","name":"accessorIndices"},{"bufferView":1,"byteOffset":413520,"componentType":5126,"count":4,"max":[-68.66645,66.47449,10.424057],"min":[-68.6665039,19.3548737,0.000200209121],"type":"VEC3","name":"accessorPositions"},{"bufferView":1,"byteOffset":413568,"componentType":5126,"count":4,"type":"VEC3","name":"accessorNormals"},{"bufferView":2,"byteOffset":137840,"componentType":5126,"count":4,"type":"VEC2","name":"accessorUVs"},{"bufferView":0,"byteOffset":82064,"componentType":5123,"count":432,"type":"SCALAR","name":"accessorIndices"},{"bufferView":1,"byteOffset":413616,"componentType":5126,"count":288,"max":[76.57843,66.72825,15.7785091],"min":[70.34855,-49.6389732,0.271429658],"type":"VEC3","name":"accessorPositions"},{"bufferView":1,"byteOffset":417072,"componentType":5126,"count":288,"type":"VEC3","name":"accessorNormals"},{"bufferView":2,"byteOffset":137872,"componentType":5126,"count":288,"type":"VEC2","name":"accessorUVs"},{"bufferView":0,"byteOffset":82928,"componentType":5123,"count":984,"type":"SCALAR","name":"accessorIndices"},{"bufferView":1,"byteOffset":420528,"componentType":5126,"count":504,"max":[76.7854843,66.94325,14.4680462],"min":[70.17422,-49.8539772,0.0002099049],"type":"VEC3","name":"accessorPositions"},{"bufferView":1,"byteOffset":426576,"componentType":5126,"count":504,"type":"VEC3","name":"accessorNormals"},{"bufferView":2,"byteOffset":140176,"componentType":5126,"count":504,"type":"VEC2","name":"accessorUVs"},{"bufferView":0,"byteOffset":84896,"componentType":5123,"count":24,"type":"SCALAR","name":"accessorIndices"},{"bufferView":1,"byteOffset":432624,"componentType":5126,"count":16,"max":[64.58575,69.89073,26.8955917],"min":[-69.51499,-56.0529861,11.2544336],"type":"VEC3","name":"accessorPositions"},{"bufferView":1,"byteOffset":432816,"componentType":5126,"count":16,"type":"VEC3","name":"accessorNormals"},{"bufferView":2,"byteOffset":144208,"componentType":5126,"count":16,"type":"VEC2","name":"accessorUVs"}],"bufferViews":[{"buffer":0,"byteLength":84944,"name":"bufferViewScalar"},{"buffer":0,"byteOffset":84944,"byteLength":433008,"byteStride":12,"name":"bufferViewFloatVec3"},{"buffer":0,"byteOffset":517952,"byteLength":144336,"byteStride":8,"name":"bufferViewFloatVec2"}],"buffers":[{"uri":"SGY_HZZX_01.bin","byteLength":662288}],"materials":[{"pbrMetallicRoughness":{"baseColorTexture":{"index":0},"metallicFactor":0.0,"roughnessFactor":0.450053632},"name":"Material #534"},{"pbrMetallicRoughness":{"baseColorTexture":{"index":1},"metallicFactor":0.0,"roughnessFactor":0.450053632},"name":"Material #28"},{"pbrMetallicRoughness":{"baseColorTexture":{"index":2},"metallicFactor":0.0,"roughnessFactor":0.450053632},"name":"Material #499"},{"pbrMetallicRoughness":{"baseColorTexture":{"index":3},"metallicFactor":0.0,"roughnessFactor":0.450053632},"name":"Material #193"},{"pbrMetallicRoughness":{"baseColorTexture":{"index":4},"metallicFactor":0.0,"roughnessFactor":0.450053632},"name":"Material #616"},{"pbrMetallicRoughness":{"baseColorTexture":{"index":5},"metallicFactor":0.0,"roughnessFactor":0.450053632},"name":"Material #78"},{"pbrMetallicRoughness":{"baseColorTexture":{"index":6},"metallicFactor":0.0,"roughnessFactor":0.450053632},"name":"Material #546"},{"pbrMetallicRoughness":{"baseColorTexture":{"index":7},"metallicFactor":0.0,"roughnessFactor":0.450053632},"name":"Material #559"},{"pbrMetallicRoughness":{"baseColorTexture":{"index":8},"metallicFactor":0.0,"roughnessFactor":0.450053632},"name":"Material #48"},{"pbrMetallicRoughness":{"baseColorTexture":{"index":9},"metallicFactor":0.0,"roughnessFactor":0.450053632},"name":"Material #47"},{"pbrMetallicRoughness":{"baseColorTexture":{"index":10},"metallicFactor":0.0,"roughnessFactor":0.450053632},"name":"Material #46"},{"pbrMetallicRoughness":{"baseColorTexture":{"index":11},"metallicFactor":0.0,"roughnessFactor":0.450053632},"name":"Material #114"},{"pbrMetallicRoughness":{"baseColorTexture":{"index":12},"metallicFactor":0.0,"roughnessFactor":0.450053632},"name":"Material #53"},{"pbrMetallicRoughness":{"baseColorTexture":{"index":13},"metallicFactor":0.0,"roughnessFactor":0.450053632},"name":"Material #40"},{"pbrMetallicRoughness":{"baseColorTexture":{"index":5},"metallicFactor":0.0,"roughnessFactor":0.450053632},"name":"Material #78"},{"pbrMetallicRoughness":{"baseColorTexture":{"index":14},"metallicFactor":0.0,"roughnessFactor":0.450053632},"name":"Material #90"},{"pbrMetallicRoughness":{"baseColorTexture":{"index":15},"metallicFactor":0.0,"roughnessFactor":0.450053632},"name":"Material #194"},{"pbrMetallicRoughness":{"baseColorTexture":{"index":9},"metallicFactor":0.0,"roughnessFactor":0.450053632},"name":"Material #66"},{"pbrMetallicRoughness":{"baseColorTexture":{"index":10},"metallicFactor":0.0,"roughnessFactor":0.450053632},"name":"Material #148"},{"pbrMetallicRoughness":{"baseColorTexture":{"index":16},"metallicFactor":0.0,"roughnessFactor":0.450053632},"name":"Material #794"},{"pbrMetallicRoughness":{"baseColorTexture":{"index":17},"metallicFactor":0.0,"roughnessFactor":0.450053632},"name":"Material #751"},{"pbrMetallicRoughness":{"baseColorTexture":{"index":18},"metallicFactor":0.0,"roughnessFactor":0.450053632},"name":"Material #861"},{"pbrMetallicRoughness":{"baseColorTexture":{"index":19},"metallicFactor":0.0,"roughnessFactor":0.450053632},"name":"Material #1095"},{"pbrMetallicRoughness":{"baseColorTexture":{"index":20},"metallicFactor":0.0,"roughnessFactor":0.450053632},"name":"Material #1118"}],"textures":[{"sampler":0,"source":0,"name":"sgbq_001.jpg"},{"sampler":0,"source":1,"name":"SGY_Q5_012.jpg"},{"sampler":0,"source":2,"name":"SGY_q1_044.jpg"},{"sampler":0,"source":3,"name":"SGY_q1_177.jpg"},{"sampler":0,"source":4,"name":"SGY_q1_094.jpg"},{"sampler":0,"source":5,"name":"sgy_1q_08.jpg"},{"sampler":0,"source":6,"name":"sgy_L001.jpg"},{"sampler":0,"source":7,"name":"sgy_L001.png"},{"sampler":0,"source":8,"name":"SGY_Q5_016.jpg"},{"sampler":0,"source":9,"name":"SGY_Q5_011.jpg"},{"sampler":0,"source":10,"name":"SGY_Q5_002.png"},{"sampler":0,"source":11,"name":"SGY_q1_050.jpg"},{"sampler":0,"source":12,"name":"SGY_q1_173.jpg"},{"sampler":0,"source":13,"name":"SGY_q1_049.jpg"},{"sampler":0,"source":14,"name":"SGY_Q5_013.jpg"},{"sampler":0,"source":15,"name":"SGY_q1_058.jpg"},{"sampler":0,"source":16,"name":"sgy_L003.jpg"},{"sampler":0,"source":17,"name":"sgy_L002.jpg"},{"sampler":0,"source":18,"name":"sgy_L002.png"},{"sampler":0,"source":19,"name":"SGY_q1_157.jpg"},{"sampler":0,"source":20,"name":"sgy_L003.png"}],"images":[{"uri":"sgbq_001.jpg"},{"uri":"SGY_Q5_012.jpg"},{"uri":"SGY_q1_044.jpg"},{"uri":"SGY_q1_177.jpg"},{"uri":"SGY_q1_094.jpg"},{"uri":"sgy_1q_08.jpg"},{"uri":"sgy_L001.jpg"},{"uri":"sgy_L001.png"},{"uri":"SGY_Q5_016.jpg"},{"uri":"SGY_Q5_011.jpg"},{"uri":"SGY_Q5_002.png"},{"uri":"SGY_q1_050.jpg"},{"uri":"SGY_q1_173.jpg"},{"uri":"SGY_q1_049.jpg"},{"uri":"SGY_Q5_013.jpg"},{"uri":"SGY_q1_058.jpg"},{"uri":"sgy_L003.jpg"},{"uri":"sgy_L002.jpg"},{"uri":"sgy_L002.png"},{"uri":"SGY_q1_157.jpg"},{"uri":"sgy_L003.png"}],"samplers":[{"magFilter":9729,"minFilter":9987}]}