{
  "accessors": [
    {
      "name": "Box021_1_0_positions",
      "componentType": 5126,
      "count": 420,
      "min": [
        -9.434100151062012,
        -11.723699569702148,
        0
      ],
      "max": [
        9.309499740600586,
        11.723699569702148,
        33.10749816894531
      ],
      "type": "VEC3",
      "bufferView": 0,
      "byteOffset": 0
    },
    {
      "name": "Box021_1_0_normals",
      "componentType": 5126,
      "count": 420,
      "min": [
        -1,
        -1,
        -1
      ],
      "max": [
        1,
        1,
        1
      ],
      "type": "VEC3",
      "bufferView": 1,
      "byteOffset": 0
    },
    {
      "name": "Box021_1_0_texcoords",
      "componentType": 5126,
      "count": 420,
      "min": [
        0,
        0
      ],
      "max": [
        1,
        1
      ],
      "type": "VEC2",
      "bufferView": 2,
      "byteOffset": 0
    },
    {
      "name": "Box021_1_0_indices",
      "componentType": 5123,
      "count": 762,
      "min": [
        0
      ],
      "max": [
        419
      ],
      "type": "SCALAR",
      "bufferView": 3,
      "byteOffset": 0
    },
    {
      "name": "Box021_1_1_positions",
      "componentType": 5126,
      "count": 102,
      "min": [
        -1.024399995803833,
        -11.723699569702148,
        0
      ],
      "max": [
        9.002400398254395,
        -4.6722002029418945,
        11.703399658203125
      ],
      "type": "VEC3",
      "bufferView": 0,
      "byteOffset": 5040
    },
    {
      "name": "Box021_1_1_normals",
      "componentType": 5126,
      "count": 102,
      "min": [
        -1,
        -1,
        -0.8639275431632996
      ],
      "max": [
        1,
        1,
        0.8523237705230713
      ],
      "type": "VEC3",
      "bufferView": 1,
      "byteOffset": 5040
    },
    {
      "name": "Box021_1_1_texcoords",
      "componentType": 5126,
      "count": 102,
      "min": [
        0.0005000000237487257,
        -0.14000000059604645
      ],
      "max": [
        0.9994999766349792,
        1.1301000118255615
      ],
      "type": "VEC2",
      "bufferView": 2,
      "byteOffset": 3360
    },
    {
      "name": "Box021_1_1_indices",
      "componentType": 5123,
      "count": 186,
      "min": [
        0
      ],
      "max": [
        101
      ],
      "type": "SCALAR",
      "bufferView": 3,
      "byteOffset": 1524
    },
    {
      "name": "Box021_1_2_positions",
      "componentType": 5126,
      "count": 102,
      "min": [
        -1.024399995803833,
        4.672299861907959,
        0
      ],
      "max": [
        9.002400398254395,
        11.723699569702148,
        11.703399658203125
      ],
      "type": "VEC3",
      "bufferView": 0,
      "byteOffset": 6264
    },
    {
      "name": "Box021_1_2_normals",
      "componentType": 5126,
      "count": 102,
      "min": [
        -1,
        -1,
        -0.8639275431632996
      ],
      "max": [
        1,
        1,
        0.8523237705230713
      ],
      "type": "VEC3",
      "bufferView": 1,
      "byteOffset": 6264
    },
    {
      "name": "Box021_1_2_texcoords",
      "componentType": 5126,
      "count": 102,
      "min": [
        0.0005000000237487257,
        0.0005000000237487257
      ],
      "max": [
        0.9994999766349792,
        0.9994999766349792
      ],
      "type": "VEC2",
      "bufferView": 2,
      "byteOffset": 4176
    },
    {
      "name": "Box021_1_2_indices",
      "componentType": 5123,
      "count": 186,
      "min": [
        0
      ],
      "max": [
        101
      ],
      "type": "SCALAR",
      "bufferView": 3,
      "byteOffset": 1896
    },
    {
      "name": "Box021_1_3_positions",
      "componentType": 5126,
      "count": 228,
      "min": [
        -10.48169994354248,
        -5.882199764251709,
        11.984399795532227
      ],
      "max": [
        10.481599807739258,
        5.698999881744385,
        27.256500244140625
      ],
      "type": "VEC3",
      "bufferView": 0,
      "byteOffset": 7488
    },
    {
      "name": "Box021_1_3_normals",
      "componentType": 5126,
      "count": 228,
      "min": [
        -1,
        -1,
        -0.00019999999494757503
      ],
      "max": [
        1,
        1,
        1
      ],
      "type": "VEC3",
      "bufferView": 1,
      "byteOffset": 7488
    },
    {
      "name": "Box021_1_3_texcoords",
      "componentType": 5126,
      "count": 228,
      "min": [
        0,
        0
      ],
      "max": [
        1,
        1
      ],
      "type": "VEC2",
      "bufferView": 2,
      "byteOffset": 4992
    },
    {
      "name": "Box021_1_3_indices",
      "componentType": 5123,
      "count": 474,
      "min": [
        0
      ],
      "max": [
        227
      ],
      "type": "SCALAR",
      "bufferView": 3,
      "byteOffset": 2268
    },
    {
      "name": "Box021_1_4_positions",
      "componentType": 5126,
      "count": 164,
      "min": [
        -6.481200218200684,
        -2.093100070953369,
        11.889800071716309
      ],
      "max": [
        -1.7382999658584595,
        2.5778000354766846,
        16.21190071105957
      ],
      "type": "VEC3",
      "bufferView": 0,
      "byteOffset": 10224
    },
    {
      "name": "Box021_1_4_normals",
      "componentType": 5126,
      "count": 164,
      "min": [
        -1,
        -1,
        0
      ],
      "max": [
        1,
        1,
        1
      ],
      "type": "VEC3",
      "bufferView": 1,
      "byteOffset": 10224
    },
    {
      "name": "Box021_1_4_texcoords",
      "componentType": 5126,
      "count": 164,
      "min": [
        0.007600000128149986,
        0
      ],
      "max": [
        1.0277999639511108,
        1
      ],
      "type": "VEC2",
      "bufferView": 2,
      "byteOffset": 6816
    },
    {
      "name": "Box021_1_4_indices",
      "componentType": 5123,
      "count": 372,
      "min": [
        0
      ],
      "max": [
        163
      ],
      "type": "SCALAR",
      "bufferView": 3,
      "byteOffset": 3216
    }
  ],
  "asset": {
    "generator": "obj2gltf",
    "version": "2.0"
  },
  "buffers": [
    {
      "name": "SG_jz01",
      "byteLength": 36472,
      "uri": "data:application/octet-stream;base64,"
    }
  ],
  "bufferViews": [
    {
      "name": "bufferView_0",
      "buffer": 0,
      "byteLength": 12192,
      "byteOffset": 0,
      "byteStride": 12,
      "target": 34962
    },
    {
      "name": "bufferView_1",
      "buffer": 0,
      "byteLength": 12192,
      "byteOffset": 12192,
      "byteStride": 12,
      "target": 34962
    },
    {
      "name": "bufferView_2",
      "buffer": 0,
      "byteLength": 8128,
      "byteOffset": 24384,
      "byteStride": 8,
      "target": 34962
    },
    {
      "name": "bufferView_3",
      "buffer": 0,
      "byteLength": 3960,
      "byteOffset": 32512,
      "target": 34963
    }
  ],
  "images": [
    {
      "name": "006",
      "uri": "006.jpg"
    },
    {
      "name": "011",
      "uri": "011.jpg"
    },
    {
      "name": "008",
      "uri": "008.jpg"
    }
  ],
  "materials": [
    {
      "name": "Material__25",
      "pbrMetallicRoughness": {
        "baseColorTexture": {
          "index": 0
        },
        "baseColorFactor": [
          1,
          1,
          1,
          1
        ],
        "metallicFactor": 0,
        "roughnessFactor": 0.99
      },
      "emissiveFactor": [
        0,
        0,
        0
      ],
      "alphaMode": "OPAQUE",
      "doubleSided": false
    },
    {
      "name": "Material__27",
      "pbrMetallicRoughness": {
        "baseColorTexture": {
          "index": 1
        },
        "baseColorFactor": [
          1,
          1,
          1,
          1
        ],
        "metallicFactor": 0,
        "roughnessFactor": 0.99
      },
      "emissiveFactor": [
        0,
        0,
        0
      ],
      "alphaMode": "OPAQUE",
      "doubleSided": false
    },
    {
      "name": "Material__40",
      "pbrMetallicRoughness": {
        "baseColorTexture": {
          "index": 1
        },
        "baseColorFactor": [
          1,
          1,
          1,
          1
        ],
        "metallicFactor": 0,
        "roughnessFactor": 0.99
      },
      "emissiveFactor": [
        0,
        0,
        0
      ],
      "alphaMode": "OPAQUE",
      "doubleSided": false
    },
    {
      "name": "Material__26",
      "pbrMetallicRoughness": {
        "baseColorTexture": {
          "index": 2
        },
        "baseColorFactor": [
          1,
          1,
          1,
          1
        ],
        "metallicFactor": 0,
        "roughnessFactor": 0.99
      },
      "emissiveFactor": [
        0,
        0,
        0
      ],
      "alphaMode": "OPAQUE",
      "doubleSided": false
    },
    {
      "name": "Material__39",
      "pbrMetallicRoughness": {
        "baseColorTexture": {
          "index": 1
        },
        "baseColorFactor": [
          1,
          1,
          1,
          1
        ],
        "metallicFactor": 0,
        "roughnessFactor": 0.99
      },
      "emissiveFactor": [
        0,
        0,
        0
      ],
      "alphaMode": "OPAQUE",
      "doubleSided": false
    }
  ],
  "meshes": [
    {
      "name": "Box021_1",
      "primitives": [
        {
          "attributes": {
            "POSITION": 0,
            "NORMAL": 1,
            "TEXCOORD_0": 2
          },
          "indices": 3,
          "material": 0,
          "mode": 4
        },
        {
          "attributes": {
            "POSITION": 4,
            "NORMAL": 5,
            "TEXCOORD_0": 6
          },
          "indices": 7,
          "material": 1,
          "mode": 4
        },
        {
          "attributes": {
            "POSITION": 8,
            "NORMAL": 9,
            "TEXCOORD_0": 10
          },
          "indices": 11,
          "material": 2,
          "mode": 4
        },
        {
          "attributes": {
            "POSITION": 12,
            "NORMAL": 13,
            "TEXCOORD_0": 14
          },
          "indices": 15,
          "material": 3,
          "mode": 4
        },
        {
          "attributes": {
            "POSITION": 16,
            "NORMAL": 17,
            "TEXCOORD_0": 18
          },
          "indices": 19,
          "material": 4,
          "mode": 4
        }
      ]
    }
  ],
  "nodes": [
    {
      "name": "Box021",
      "mesh": 0
    }
  ],
  "samplers": [
    {
      "wrapS": 10497,
      "wrapT": 10497
    }
  ],
  "scene": 0,
  "scenes": [
    {
      "nodes": [
        0
      ]
    }
  ],
  "textures": [
    {
      "name": "006",
      "sampler": 0,
      "source": 0
    },
    {
      "name": "011",
      "sampler": 0,
      "source": 1
    },
    {
      "name": "008",
      "sampler": 0,
      "source": 2
    }
  ]
}
