{"asset":{"version":"2.0","generator":"babylon.js glTF exporter for 3dsmax 2022 v20240125.3"},"scene":0,"scenes":[{"nodes":[0]}],"nodes":[{"mesh":0,"name":"Box001"}],"meshes":[{"primitives":[{"attributes":{"POSITION":1,"NORMAL":2,"TEXCOORD_0":3},"indices":0,"material":0},{"attributes":{"POSITION":5,"NORMAL":6,"TEXCOORD_0":7},"indices":4,"material":1},{"attributes":{"POSITION":9,"NORMAL":10,"TEXCOORD_0":11},"indices":8,"material":2},{"attributes":{"POSITION":13,"NORMAL":14,"TEXCOORD_0":15},"indices":12,"material":3},{"attributes":{"POSITION":17,"NORMAL":18,"TEXCOORD_0":19},"indices":16,"material":4},{"attributes":{"POSITION":21,"NORMAL":22,"TEXCOORD_0":23},"indices":20,"material":5},{"attributes":{"POSITION":25,"NORMAL":26,"TEXCOORD_0":27},"indices":24,"material":6},{"attributes":{"POSITION":29,"NORMAL":30,"TEXCOORD_0":31},"indices":28,"material":7},{"attributes":{"POSITION":33,"NORMAL":34,"TEXCOORD_0":35},"indices":32,"material":8},{"attributes":{"POSITION":37,"NORMAL":38,"TEXCOORD_0":39},"indices":36,"material":9},{"attributes":{"POSITION":41,"NORMAL":42,"TEXCOORD_0":43},"indices":40,"material":10},{"attributes":{"POSITION":45,"NORMAL":46,"TEXCOORD_0":47},"indices":44,"material":11},{"attributes":{"POSITION":49,"NORMAL":50,"TEXCOORD_0":51},"indices":48,"material":12},{"attributes":{"POSITION":53,"NORMAL":54,"TEXCOORD_0":55},"indices":52,"material":13},{"attributes":{"POSITION":57,"NORMAL":58,"TEXCOORD_0":59},"indices":56,"material":14},{"attributes":{"POSITION":61,"NORMAL":62,"TEXCOORD_0":63},"indices":60,"material":15},{"attributes":{"POSITION":65,"NORMAL":66,"TEXCOORD_0":67},"indices":64,"material":16},{"attributes":{"POSITION":69,"NORMAL":70,"TEXCOORD_0":71},"indices":68,"material":17},{"attributes":{"POSITION":73,"NORMAL":74,"TEXCOORD_0":75},"indices":72,"material":18},{"attributes":{"POSITION":77,"NORMAL":78,"TEXCOORD_0":79},"indices":76,"material":19},{"attributes":{"POSITION":81,"NORMAL":82,"TEXCOORD_0":83},"indices":80,"material":20},{"attributes":{"POSITION":85,"NORMAL":86,"TEXCOORD_0":87},"indices":84,"material":21},{"attributes":{"POSITION":89,"NORMAL":90,"TEXCOORD_0":91},"indices":88,"material":22},{"attributes":{"POSITION":93,"NORMAL":94,"TEXCOORD_0":95},"indices":92,"material":23},{"attributes":{"POSITION":97,"NORMAL":98,"TEXCOORD_0":99},"indices":96,"material":24},{"attributes":{"POSITION":101,"NORMAL":102,"TEXCOORD_0":103},"indices":100,"material":25},{"attributes":{"POSITION":105,"NORMAL":106,"TEXCOORD_0":107},"indices":104,"material":26},{"attributes":{"POSITION":109,"NORMAL":110,"TEXCOORD_0":111},"indices":108,"material":27}],"name":"Box001"}],"accessors":[{"bufferView":0,"componentType":5123,"count":138,"type":"SCALAR","name":"accessorIndices"},{"bufferView":1,"componentType":5126,"count":70,"max":[33.4348221,50.01635,15.8934765],"min":[-35.7209969,-47.3136673,3.995932E-06],"type":"VEC3","name":"accessorPositions"},{"bufferView":1,"byteOffset":840,"componentType":5126,"count":70,"type":"VEC3","name":"accessorNormals"},{"bufferView":2,"componentType":5126,"count":70,"type":"VEC2","name":"accessorUVs"},{"bufferView":0,"byteOffset":276,"componentType":5123,"count":48,"type":"SCALAR","name":"accessorIndices"},{"bufferView":1,"byteOffset":1680,"componentType":5126,"count":30,"max":[-13.8979416,49.3781776,12.47491],"min":[-35.0828247,28.09183,11.8939581],"type":"VEC3","name":"accessorPositions"},{"bufferView":1,"byteOffset":2040,"componentType":5126,"count":30,"type":"VEC3","name":"accessorNormals"},{"bufferView":2,"byteOffset":560,"componentType":5126,"count":30,"type":"VEC2","name":"accessorUVs"},{"bufferView":0,"byteOffset":372,"componentType":5123,"count":441,"type":"SCALAR","name":"accessorIndices"},{"bufferView":1,"byteOffset":2400,"componentType":5126,"count":211,"max":[31.9388,50.801796,36.39343],"min":[-36.6268234,-47.1874046,5.15805674],"type":"VEC3","name":"accessorPositions"},{"bufferView":1,"byteOffset":4932,"componentType":5126,"count":211,"type":"VEC3","name":"accessorNormals"},{"bufferView":2,"byteOffset":800,"componentType":5126,"count":211,"type":"VEC2","name":"accessorUVs"},{"bufferView":0,"byteOffset":1256,"componentType":5123,"count":54,"type":"SCALAR","name":"accessorIndices"},{"bufferView":1,"byteOffset":7464,"componentType":5126,"count":30,"max":[33.06124,50.801796,19.77327],"min":[-36.6268234,-43.39546,1.26933064E-05],"type":"VEC3","name":"accessorPositions"},{"bufferView":1,"byteOffset":7824,"componentType":5126,"count":30,"type":"VEC3","name":"accessorNormals"},{"bufferView":2,"byteOffset":2488,"componentType":5126,"count":30,"type":"VEC2","name":"accessorUVs"},{"bufferView":0,"byteOffset":1364,"componentType":5123,"count":354,"type":"SCALAR","name":"accessorIndices"},{"bufferView":1,"byteOffset":8184,"componentType":5126,"count":154,"max":[-1.02536011,50.37818,16.40678],"min":[-36.0828247,16.38455,3.7150526],"type":"VEC3","name":"accessorPositions"},{"bufferView":1,"byteOffset":10032,"componentType":5126,"count":154,"type":"VEC3","name":"accessorNormals"},{"bufferView":2,"byteOffset":2728,"componentType":5126,"count":154,"type":"VEC2","name":"accessorUVs"},{"bufferView":0,"byteOffset":2072,"componentType":5123,"count":654,"type":"SCALAR","name":"accessorIndices"},{"bufferView":1,"byteOffset":11880,"componentType":5126,"count":410,"max":[36.6268044,50.60251,10.7875128],"min":[-33.0898476,-50.801796,1.11166264E-05],"type":"VEC3","name":"accessorPositions"},{"bufferView":1,"byteOffset":16800,"componentType":5126,"count":410,"type":"VEC3","name":"accessorNormals"},{"bufferView":2,"byteOffset":3960,"componentType":5126,"count":410,"type":"VEC2","name":"accessorUVs"},{"bufferView":0,"byteOffset":3380,"componentType":5123,"count":348,"type":"SCALAR","name":"accessorIndices"},{"bufferView":1,"byteOffset":21720,"componentType":5126,"count":232,"max":[21.5731354,50.120163,29.1258945],"min":[-27.3080349,-3.00913715,2.72390971E-05],"type":"VEC3","name":"accessorPositions"},{"bufferView":1,"byteOffset":24504,"componentType":5126,"count":232,"type":"VEC3","name":"accessorNormals"},{"bufferView":2,"byteOffset":7240,"componentType":5126,"count":232,"type":"VEC2","name":"accessorUVs"},{"bufferView":0,"byteOffset":4076,"componentType":5123,"count":192,"type":"SCALAR","name":"accessorIndices"},{"bufferView":1,"byteOffset":27288,"componentType":5126,"count":106,"max":[31.933876,12.7008562,31.5358982],"min":[-12.0267925,-35.9931755,27.5800838],"type":"VEC3","name":"accessorPositions"},{"bufferView":1,"byteOffset":28560,"componentType":5126,"count":106,"type":"VEC3","name":"accessorNormals"},{"bufferView":2,"byteOffset":9096,"componentType":5126,"count":106,"type":"VEC2","name":"accessorUVs"},{"bufferView":0,"byteOffset":4460,"componentType":5123,"count":258,"type":"SCALAR","name":"accessorIndices"},{"bufferView":1,"byteOffset":29832,"componentType":5126,"count":542,"max":[35.2734833,50.29348,31.5358982],"min":[-33.02317,-50.801796,1.13651113E-05],"type":"VEC3","name":"accessorPositions"},{"bufferView":1,"byteOffset":36336,"componentType":5126,"count":542,"type":"VEC3","name":"accessorNormals"},{"bufferView":2,"byteOffset":9944,"componentType":5126,"count":542,"type":"VEC2","name":"accessorUVs"},{"bufferView":0,"byteOffset":4976,"componentType":5123,"count":12,"type":"SCALAR","name":"accessorIndices"},{"bufferView":1,"byteOffset":42840,"componentType":5126,"count":8,"max":[31.9388,12.2993116,31.1971874],"min":[28.7377853,-7.19019842,30.8984165],"type":"VEC3","name":"accessorPositions"},{"bufferView":1,"byteOffset":42936,"componentType":5126,"count":8,"type":"VEC3","name":"accessorNormals"},{"bufferView":2,"byteOffset":14280,"componentType":5126,"count":8,"type":"VEC2","name":"accessorUVs"},{"bufferView":0,"byteOffset":5000,"componentType":5123,"count":306,"type":"SCALAR","name":"accessorIndices"},{"bufferView":1,"byteOffset":43032,"componentType":5126,"count":204,"max":[31.9388,16.7463818,36.39343],"min":[-31.4604149,-35.9931755,3.715052],"type":"VEC3","name":"accessorPositions"},{"bufferView":1,"byteOffset":45480,"componentType":5126,"count":204,"type":"VEC3","name":"accessorNormals"},{"bufferView":2,"byteOffset":14344,"componentType":5126,"count":204,"type":"VEC2","name":"accessorUVs"},{"bufferView":0,"byteOffset":5612,"componentType":5123,"count":606,"type":"SCALAR","name":"accessorIndices"},{"bufferView":1,"byteOffset":47928,"componentType":5126,"count":302,"max":[31.885376,10.6691446,30.985199],"min":[-31.6022949,-11.1011419,12.1219358],"type":"VEC3","name":"accessorPositions"},{"bufferView":1,"byteOffset":51552,"componentType":5126,"count":302,"type":"VEC3","name":"accessorNormals"},{"bufferView":2,"byteOffset":15976,"componentType":5126,"count":302,"type":"VEC2","name":"accessorUVs"},{"bufferView":0,"byteOffset":6824,"componentType":5123,"count":24,"type":"SCALAR","name":"accessorIndices"},{"bufferView":1,"byteOffset":55176,"componentType":5126,"count":16,"max":[-15.4072666,-17.9594612,29.5130959],"min":[-17.7044735,-22.0684032,27.5800858],"type":"VEC3","name":"accessorPositions"},{"bufferView":1,"byteOffset":55368,"componentType":5126,"count":16,"type":"VEC3","name":"accessorNormals"},{"bufferView":2,"byteOffset":18392,"componentType":5126,"count":16,"type":"VEC2","name":"accessorUVs"},{"bufferView":0,"byteOffset":6872,"componentType":5123,"count":60,"type":"SCALAR","name":"accessorIndices"},{"bufferView":1,"byteOffset":55560,"componentType":5126,"count":32,"max":[-11.3171873,-17.9594631,32.0037041],"min":[-17.7044735,-35.5592,29.3664131],"type":"VEC3","name":"accessorPositions"},{"bufferView":1,"byteOffset":55944,"componentType":5126,"count":32,"type":"VEC3","name":"accessorNormals"},{"bufferView":2,"byteOffset":18520,"componentType":5126,"count":32,"type":"VEC2","name":"accessorUVs"},{"bufferView":0,"byteOffset":6992,"componentType":5123,"count":18,"type":"SCALAR","name":"accessorIndices"},{"bufferView":1,"byteOffset":56328,"componentType":5126,"count":12,"max":[31.5372543,-3.87825513,30.6595764],"min":[-17.3546753,-33.1748924,30.4164143],"type":"VEC3","name":"accessorPositions"},{"bufferView":1,"byteOffset":56472,"componentType":5126,"count":12,"type":"VEC3","name":"accessorNormals"},{"bufferView":2,"byteOffset":18776,"componentType":5126,"count":12,"type":"VEC2","name":"accessorUVs"},{"bufferView":0,"byteOffset":7028,"componentType":5123,"count":2082,"type":"SCALAR","name":"accessorIndices"},{"bufferView":1,"byteOffset":56616,"componentType":5126,"count":1326,"max":[36.6268234,28.7621746,14.5303993],"min":[-22.3220863,-50.71915,8.556749E-06],"type":"VEC3","name":"accessorPositions"},{"bufferView":1,"byteOffset":72528,"componentType":5126,"count":1326,"type":"VEC3","name":"accessorNormals"},{"bufferView":2,"byteOffset":18872,"componentType":5126,"count":1326,"type":"VEC2","name":"accessorUVs"},{"bufferView":0,"byteOffset":11192,"componentType":5123,"count":60,"type":"SCALAR","name":"accessorIndices"},{"bufferView":1,"byteOffset":88440,"componentType":5126,"count":42,"max":[36.5974045,28.7696133,12.1784554],"min":[-22.329525,-29.576704,10.78724],"type":"VEC3","name":"accessorPositions"},{"bufferView":1,"byteOffset":88944,"componentType":5126,"count":42,"type":"VEC3","name":"accessorNormals"},{"bufferView":2,"byteOffset":29480,"componentType":5126,"count":42,"type":"VEC2","name":"accessorUVs"},{"bufferView":0,"byteOffset":11312,"componentType":5123,"count":6,"type":"SCALAR","name":"accessorIndices"},{"bufferView":1,"byteOffset":89448,"componentType":5126,"count":4,"max":[31.9424744,13.9867907,27.5800877],"min":[-17.687151,-36.22263,27.5800838],"type":"VEC3","name":"accessorPositions"},{"bufferView":1,"byteOffset":89496,"componentType":5126,"count":4,"type":"VEC3","name":"accessorNormals"},{"bufferView":2,"byteOffset":29816,"componentType":5126,"count":4,"type":"VEC2","name":"accessorUVs"},{"bufferView":0,"byteOffset":11324,"componentType":5123,"count":171,"type":"SCALAR","name":"accessorIndices"},{"bufferView":1,"byteOffset":89544,"componentType":5126,"count":74,"max":[33.4348259,23.1742268,30.0000172],"min":[-19.1794968,-47.31367,14.2967834],"type":"VEC3","name":"accessorPositions"},{"bufferView":1,"byteOffset":90432,"componentType":5126,"count":74,"type":"VEC3","name":"accessorNormals"},{"bufferView":2,"byteOffset":29848,"componentType":5126,"count":74,"type":"VEC2","name":"accessorUVs"},{"bufferView":0,"byteOffset":11668,"componentType":5123,"count":66,"type":"SCALAR","name":"accessorIndices"},{"bufferView":1,"byteOffset":91320,"componentType":5126,"count":30,"max":[33.4348259,23.1742268,14.2967939],"min":[-19.1794968,-47.31367,7.99313068],"type":"VEC3","name":"accessorPositions"},{"bufferView":1,"byteOffset":91680,"componentType":5126,"count":30,"type":"VEC3","name":"accessorNormals"},{"bufferView":2,"byteOffset":30440,"componentType":5126,"count":30,"type":"VEC2","name":"accessorUVs"},{"bufferView":0,"byteOffset":11800,"componentType":5123,"count":18,"type":"SCALAR","name":"accessorIndices"},{"bufferView":1,"byteOffset":92040,"componentType":5126,"count":12,"max":[23.8353119,-39.20285,7.993132],"min":[-19.1794968,-47.3136673,1.13651113E-05],"type":"VEC3","name":"accessorPositions"},{"bufferView":1,"byteOffset":92184,"componentType":5126,"count":12,"type":"VEC3","name":"accessorNormals"},{"bufferView":2,"byteOffset":30680,"componentType":5126,"count":12,"type":"VEC2","name":"accessorUVs"},{"bufferView":0,"byteOffset":11836,"componentType":5123,"count":6,"type":"SCALAR","name":"accessorIndices"},{"bufferView":1,"byteOffset":92328,"componentType":5126,"count":4,"max":[-31.460413,10.446146,12.12194],"min":[-31.460413,-10.8781414,1.73012122E-05],"type":"VEC3","name":"accessorPositions"},{"bufferView":1,"byteOffset":92376,"componentType":5126,"count":4,"type":"VEC3","name":"accessorNormals"},{"bufferView":2,"byteOffset":30776,"componentType":5126,"count":4,"type":"VEC2","name":"accessorUVs"},{"bufferView":0,"byteOffset":11848,"componentType":5123,"count":120,"type":"SCALAR","name":"accessorIndices"},{"bufferView":1,"byteOffset":92424,"componentType":5126,"count":60,"max":[-19.1795025,10.446146,16.9933529],"min":[-31.460413,-10.8781424,1.73012122E-05],"type":"VEC3","name":"accessorPositions"},{"bufferView":1,"byteOffset":93144,"componentType":5126,"count":60,"type":"VEC3","name":"accessorNormals"},{"bufferView":2,"byteOffset":30808,"componentType":5126,"count":60,"type":"VEC2","name":"accessorUVs"},{"bufferView":0,"byteOffset":12088,"componentType":5123,"count":18,"type":"SCALAR","name":"accessorIndices"},{"bufferView":1,"byteOffset":93864,"componentType":5126,"count":12,"max":[-19.1795044,16.7463818,12.9428444],"min":[-31.4604149,10.4461422,2.077538E-05],"type":"VEC3","name":"accessorPositions"},{"bufferView":1,"byteOffset":94008,"componentType":5126,"count":12,"type":"VEC3","name":"accessorNormals"},{"bufferView":2,"byteOffset":31288,"componentType":5126,"count":12,"type":"VEC2","name":"accessorUVs"},{"bufferView":0,"byteOffset":12124,"componentType":5123,"count":102,"type":"SCALAR","name":"accessorIndices"},{"bufferView":1,"byteOffset":94152,"componentType":5126,"count":76,"max":[-21.7967834,-10.8781366,4.797198],"min":[-28.84313,-14.1563807,4.075303],"type":"VEC3","name":"accessorPositions"},{"bufferView":1,"byteOffset":95064,"componentType":5126,"count":76,"type":"VEC3","name":"accessorNormals"},{"bufferView":2,"byteOffset":31384,"componentType":5126,"count":76,"type":"VEC2","name":"accessorUVs"},{"bufferView":0,"byteOffset":12328,"componentType":5123,"count":102,"type":"SCALAR","name":"accessorIndices"},{"bufferView":1,"byteOffset":95976,"componentType":5126,"count":68,"max":[35.8249245,22.10641,34.52243],"min":[-24.1339016,-49.9172478,1.18730095E-05],"type":"VEC3","name":"accessorPositions"},{"bufferView":1,"byteOffset":96792,"componentType":5126,"count":68,"type":"VEC3","name":"accessorNormals"},{"bufferView":2,"byteOffset":31992,"componentType":5126,"count":68,"type":"VEC2","name":"accessorUVs"},{"bufferView":0,"byteOffset":12532,"componentType":5123,"count":24,"type":"SCALAR","name":"accessorIndices"},{"bufferView":1,"byteOffset":97608,"componentType":5126,"count":16,"max":[-19.1794987,-32.4889946,34.52243],"min":[-24.1339016,-37.7149773,30.0000114],"type":"VEC3","name":"accessorPositions"},{"bufferView":1,"byteOffset":97800,"componentType":5126,"count":16,"type":"VEC3","name":"accessorNormals"},{"bufferView":2,"byteOffset":32536,"componentType":5126,"count":16,"type":"VEC2","name":"accessorUVs"},{"bufferView":0,"byteOffset":12580,"componentType":5123,"count":96,"type":"SCALAR","name":"accessorIndices"},{"bufferView":1,"byteOffset":97992,"componentType":5126,"count":64,"max":[36.62682,23.17423,13.7279644],"min":[15.5782623,-49.9172554,10.7872324],"type":"VEC3","name":"accessorPositions"},{"bufferView":1,"byteOffset":98760,"componentType":5126,"count":64,"type":"VEC3","name":"accessorNormals"},{"bufferView":2,"byteOffset":32664,"componentType":5126,"count":64,"type":"VEC2","name":"accessorUVs"}],"bufferViews":[{"buffer":0,"byteLength":12772,"name":"bufferViewScalar"},{"buffer":0,"byteOffset":12772,"byteLength":99528,"byteStride":12,"name":"bufferViewFloatVec3"},{"buffer":0,"byteOffset":112300,"byteLength":33176,"byteStride":8,"name":"bufferViewFloatVec2"}],"buffers":[{"uri":"2HG.bin","byteLength":145476}],"materials":[{"pbrMetallicRoughness":{"baseColorTexture":{"index":0},"metallicFactor":0.0,"roughnessFactor":0.450053632},"name":"Material #383"},{"pbrMetallicRoughness":{"baseColorTexture":{"index":1},"metallicFactor":0.0,"roughnessFactor":0.450053632},"name":"Material #267"},{"pbrMetallicRoughness":{"baseColorTexture":{"index":2},"metallicFactor":0.0,"roughnessFactor":0.450053632},"name":"Material #444"},{"pbrMetallicRoughness":{"baseColorTexture":{"index":3},"metallicFactor":0.0,"roughnessFactor":0.450053632},"name":"Material #420"},{"pbrMetallicRoughness":{"baseColorTexture":{"index":4},"metallicFactor":0.0,"roughnessFactor":0.450053632},"name":"Material #775"},{"pbrMetallicRoughness":{"baseColorTexture":{"index":5},"metallicFactor":0.0,"roughnessFactor":0.450053632},"name":"Material #660"},{"pbrMetallicRoughness":{"baseColorTexture":{"index":6},"metallicFactor":0.0,"roughnessFactor":0.450053632},"name":"Material #738"},{"pbrMetallicRoughness":{"baseColorTexture":{"index":7},"metallicFactor":0.0,"roughnessFactor":0.450053632},"name":"Material #1056"},{"pbrMetallicRoughness":{"baseColorTexture":{"index":8},"metallicFactor":0.0,"roughnessFactor":0.450053632},"name":"Material #591"},{"pbrMetallicRoughness":{"baseColorTexture":{"index":9},"metallicFactor":0.0,"roughnessFactor":0.450053632},"name":"Material #1124"},{"pbrMetallicRoughness":{"baseColorTexture":{"index":10},"metallicFactor":0.0,"roughnessFactor":0.450053632},"name":"Material #1137"},{"pbrMetallicRoughness":{"baseColorTexture":{"index":11},"metallicFactor":0.0,"roughnessFactor":0.450053632},"name":"Material #49"},{"pbrMetallicRoughness":{"baseColorTexture":{"index":12},"metallicFactor":0.0,"roughnessFactor":0.450053632},"name":"Material #1372"},{"pbrMetallicRoughness":{"baseColorTexture":{"index":13},"metallicFactor":0.0,"roughnessFactor":0.450053632},"name":"Material #1407"},{"pbrMetallicRoughness":{"baseColorTexture":{"index":14},"metallicFactor":0.0,"roughnessFactor":0.450053632},"name":"Material #1442"},{"pbrMetallicRoughness":{"baseColorTexture":{"index":15},"metallicFactor":0.0,"roughnessFactor":0.450053632},"name":"Material #360"},{"pbrMetallicRoughness":{"baseColorTexture":{"index":16},"metallicFactor":0.0,"roughnessFactor":0.450053632},"name":"Material #672"},{"pbrMetallicRoughness":{"baseColorTexture":{"index":17},"metallicFactor":0.0,"roughnessFactor":0.450053632},"name":"Material #1488"},{"pbrMetallicRoughness":{"baseColorTexture":{"index":18},"metallicFactor":0.0,"roughnessFactor":0.450053632},"name":"Material #268"},{"pbrMetallicRoughness":{"baseColorTexture":{"index":19},"metallicFactor":0.0,"roughnessFactor":0.450053632},"name":"Material #315"},{"pbrMetallicRoughness":{"baseColorTexture":{"index":20},"metallicFactor":0.0,"roughnessFactor":0.450053632},"name":"Material #396"},{"pbrMetallicRoughness":{"baseColorTexture":{"index":21},"metallicFactor":0.0,"roughnessFactor":0.450053632},"name":"Material #26"},{"pbrMetallicRoughness":{"baseColorTexture":{"index":22},"metallicFactor":0.0,"roughnessFactor":0.450053632},"name":"Material #96"},{"pbrMetallicRoughness":{"baseColorTexture":{"index":23},"metallicFactor":0.0,"roughnessFactor":0.450053632},"name":"Material #154"},{"pbrMetallicRoughness":{"baseColorTexture":{"index":24},"metallicFactor":0.0,"roughnessFactor":0.450053632},"name":"Material #177"},{"pbrMetallicRoughness":{"baseColorTexture":{"index":25},"metallicFactor":0.0,"roughnessFactor":0.450053632},"name":"Material #209"},{"pbrMetallicRoughness":{"baseColorTexture":{"index":26},"metallicFactor":0.0,"roughnessFactor":0.450053632},"name":"Material #221"},{"pbrMetallicRoughness":{"baseColorTexture":{"index":27},"metallicFactor":0.0,"roughnessFactor":0.450053632},"name":"Material #545"}],"textures":[{"sampler":0,"source":0,"name":"sgy_x_26.png"},{"sampler":0,"source":1,"name":"SGY_A010.jpg"},{"sampler":0,"source":2,"name":"SG_SJS08.jpg"},{"sampler":0,"source":3,"name":"SGY_A015.jpg"},{"sampler":0,"source":4,"name":"SGY_A018.jpg"},{"sampler":0,"source":5,"name":"sgy_x_31.jpg"},{"sampler":0,"source":6,"name":"SGY_A017.jpg"},{"sampler":0,"source":7,"name":"SGY_A019.jpg"},{"sampler":0,"source":8,"name":"SGY_A001.jpg"},{"sampler":0,"source":9,"name":"SDLT_B2_005.jpg"},{"sampler":0,"source":10,"name":"SGY_A020.jpg"},{"sampler":0,"source":11,"name":"SY_E10_L0010.jpg"},{"sampler":0,"source":12,"name":"SGY_A021.jpg"},{"sampler":0,"source":13,"name":"shhw_F10.jpg"},{"sampler":0,"source":14,"name":"QZRMYY_03.jpg"},{"sampler":0,"source":15,"name":"SGY_A013.jpg"},{"sampler":0,"source":16,"name":"sgy_x_28.png"},{"sampler":0,"source":17,"name":"SGY_A022.jpg"},{"sampler":0,"source":18,"name":"SGY_A011.jpg"},{"sampler":0,"source":19,"name":"SGY_A012.jpg"},{"sampler":0,"source":20,"name":"SGY_A014.jpg"},{"sampler":0,"source":21,"name":"SGY_A004.jpg"},{"sampler":0,"source":22,"name":"SGY_A005.jpg"},{"sampler":0,"source":23,"name":"SGY_A006.jpg"},{"sampler":0,"source":24,"name":"SGY_A007.jpg"},{"sampler":0,"source":25,"name":"SGY_A008.jpg"},{"sampler":0,"source":26,"name":"SGY_A009.jpg"},{"sampler":0,"source":27,"name":"SGY_A016.jpg"}],"images":[{"uri":"sgy_x_26.png"},{"uri":"SGY_A010.jpg"},{"uri":"SG_SJS08.jpg"},{"uri":"SGY_A015.jpg"},{"uri":"SGY_A018.jpg"},{"uri":"sgy_x_31.jpg"},{"uri":"SGY_A017.jpg"},{"uri":"SGY_A019.jpg"},{"uri":"SGY_A001.jpg"},{"uri":"SDLT_B2_005.jpg"},{"uri":"SGY_A020.jpg"},{"uri":"SY_E10_L0010.jpg"},{"uri":"SGY_A021.jpg"},{"uri":"shhw_F10.jpg"},{"uri":"QZRMYY_03.jpg"},{"uri":"SGY_A013.jpg"},{"uri":"sgy_x_28.png"},{"uri":"SGY_A022.jpg"},{"uri":"SGY_A011.jpg"},{"uri":"SGY_A012.jpg"},{"uri":"SGY_A014.jpg"},{"uri":"SGY_A004.jpg"},{"uri":"SGY_A005.jpg"},{"uri":"SGY_A006.jpg"},{"uri":"SGY_A007.jpg"},{"uri":"SGY_A008.jpg"},{"uri":"SGY_A009.jpg"},{"uri":"SGY_A016.jpg"}],"samplers":[{"magFilter":9729,"minFilter":9987}]}