# 3ds Max Wavefront OBJ Exporter v0.99 - (c)2007 guruware
# 创建的文件:17.07.2025 18:03:23

mtllib 手绘小品\sxh_tree_005.mtl

#
# object shu5
#

v  0.0944 -0.5619 26.2090
v  2.1322 -1.1670 -0.3402
v  2.0680 0.5954 -0.3589
v  0.9799 -2.2490 -0.3568
v  -0.7377 -2.9763 -0.3610
v  -1.8529 -1.5030 -0.3514
v  -2.1790 -0.1171 -0.3368
v  -1.4037 1.5726 -0.3610
v  0.4352 1.6452 -0.3343
v  6.6976 3.5250 7.0964
v  1.3061 0.7241 14.1226
v  1.9479 -0.7671 14.6871
v  7.2979 -2.7242 5.9391
v  0.6922 -1.9766 14.4466
v  3.6749 -7.1884 7.2139
v  -0.9265 -2.2639 14.5439
v  -2.2252 -7.3177 6.0902
v  -1.9108 -1.0478 14.1557
v  -6.8013 -4.0216 6.7719
v  -2.2384 0.4015 14.2838
v  -7.2766 1.7919 5.3692
v  -1.2938 1.6578 14.3051
v  -4.0461 6.8059 6.8492
v  0.3027 1.7837 14.3120
v  2.2903 7.3346 5.6473
v  0.7208 0.3824 13.4957
v  1.3275 -0.6307 14.0070
v  0.4270 -1.3653 13.8047
v  -0.6819 -1.6259 13.9246
v  -1.2990 -0.7153 13.5545
v  -1.5741 0.2535 13.6606
v  -0.9299 1.0942 13.6690
v  0.0960 1.1820 13.6331
v  4.8696 2.5541 11.9982
v  1.3465 0.5160 18.7354
v  1.6127 -0.8662 18.8149
v  5.2037 -1.7808 13.0349
v  0.6164 -1.8182 18.6287
v  2.5022 -5.2229 12.0511
v  -0.6663 -2.0006 18.6852
v  -1.6426 -5.5835 12.8715
v  -1.6452 -1.1509 18.6695
v  -5.1760 -3.0964 12.0052
v  -1.9023 0.1666 18.8214
v  -5.7136 0.9825 12.9765
v  -0.9667 1.1173 18.6890
v  -2.9737 4.7946 11.7018
v  0.3068 1.3613 18.7782
v  1.3377 5.0490 12.7845
v  3.5599 1.8356 17.5364
v  1.1287 0.4144 22.2454
v  1.0375 -0.6714 22.0697
v  4.2752 -1.7120 17.0222
v  0.5055 -1.5500 22.2611
v  1.9506 -4.3201 18.0653
v  -0.6269 -1.7373 22.2806
v  -1.5770 -5.0118 16.8932
v  -1.5058 -1.0194 22.2005
v  -3.8513 -2.6759 17.3592
v  -1.5678 0.0915 22.0941
v  -4.7773 0.8050 16.3696
v  -0.8914 0.9707 22.0918
v  -2.2600 3.2730 17.1397
v  0.1723 0.9830 22.0176
v  1.0417 3.9713 16.4322
v  2.2603 1.0918 21.2656
v  -0.1564 -0.3800 28.3745
v  2.1243 -0.9249 21.5605
v  1.2088 -2.8801 21.0323
v  -0.9316 -2.7655 21.5336
v  -2.7518 -1.7534 21.1260
v  -2.8242 0.4411 21.9235
v  -1.6532 2.3268 21.4502
v  0.5953 2.1658 21.7801
v  0.4401 0.0552 23.2632
v  -0.1772 -0.3583 27.3931
v  -0.0030 0.5827 23.4761
v  -1.0942 -0.0126 23.1528
v  -1.0246 -0.7697 23.2510
v  0.1959 -1.0636 23.0488
v  0.6987 -0.5828 23.4158
v  -0.7467 0.6981 23.4512
v  -0.4938 -1.2529 23.3631
v  0.7485 0.1801 18.1195
v  0.9547 -0.6489 18.2090
v  0.3032 -1.1878 18.0386
v  -0.4821 -1.3244 18.0906
v  -1.0642 -0.7856 18.0542
v  -1.2608 -0.0099 18.1782
v  -0.6607 0.5195 18.0537
v  0.1186 0.7076 18.1547
v  0.5463 0.0771 21.6123
v  0.3838 -0.5089 21.4372
v  0.1626 -1.0122 21.5840
v  -0.4043 -1.1136 21.6334
v  -0.8807 -0.7204 21.5945
v  -0.8997 -0.1312 21.5047
v  -0.5635 0.3371 21.5163
v  0.0108 0.2913 21.4373
# 99 vertices

vn 0.9964 0.0371 0.0756
vn 0.6824 -0.7278 0.0690
vn 0.3888 -0.9186 0.0713
vn -0.7945 -0.6020 0.0796
vn -0.9702 -0.2291 0.0792
vn -0.9052 0.4165 0.0845
vn -0.0405 0.9958 0.0823
vn 0.5400 0.8381 0.0766
vn 0.5829 0.4948 0.6445
vn 0.8515 -0.0153 0.5242
vn 0.5544 -0.6730 0.4896
vn 0.7045 -0.4053 0.5826
vn 0.1730 -0.7639 0.6218
vn -0.0805 -0.8500 0.5205
vn -0.7683 -0.4905 0.4113
vn -0.4247 -0.7067 0.5659
vn -0.7676 -0.2265 0.5996
vn -0.8662 0.0491 0.4972
vn -0.7051 0.5220 0.4799
vn -0.7773 0.3457 0.5256
vn -0.0664 0.8095 0.5834
vn 0.0334 0.8381 0.5445
vn 0.6706 0.5452 0.5031
vn 0.4078 0.6964 0.5905
vn -0.7176 -0.0458 0.6949
vn -0.7453 -0.1148 0.6568
vn -0.5934 0.4889 0.6394
vn -0.5469 0.4818 0.6847
vn -0.0827 0.7045 0.7049
vn -0.0918 0.7115 0.6967
vn 0.3986 0.5556 0.7297
vn 0.4013 0.5650 0.7209
vn 0.6737 0.0874 0.7339
vn 0.6933 0.1190 0.7108
vn 0.5626 -0.4349 0.7031
vn 0.5590 -0.4354 0.7056
vn 0.0548 -0.7316 0.6795
vn 0.0875 -0.7586 0.6457
vn -0.4844 -0.5763 0.6582
vn -0.4806 -0.4994 0.7208
vn 0.8448 0.1914 0.4997
vn 0.8477 0.1843 0.4975
vn 0.5668 -0.6833 0.4603
vn 0.6090 -0.6195 0.4953
vn 0.1439 -0.8614 0.4871
vn 0.1722 -0.8513 0.4957
vn -0.5731 -0.6511 0.4975
vn -0.5779 -0.6485 0.4955
vn -0.8336 -0.2211 0.5062
vn -0.8295 -0.2305 0.5087
vn -0.5923 0.6494 0.4769
vn -0.6166 0.6097 0.4980
vn -0.1967 0.8432 0.5003
vn -0.1743 0.8518 0.4941
vn 0.5578 0.6606 0.5024
vn 0.5718 0.6530 0.4966
vn 0.8964 -0.1432 0.4196
vn 0.8467 0.0948 0.5236
vn 0.7589 -0.3382 0.5565
vn 0.7255 -0.4325 0.5354
vn 0.1427 -0.8027 0.5791
vn -0.0053 -0.8541 0.5201
vn -0.5759 -0.6496 0.4964
vn -0.5689 -0.6535 0.4992
vn -0.8988 -0.0082 0.4383
vn -0.8733 -0.0965 0.4776
vn -0.7026 0.5418 0.4614
vn -0.6910 0.5634 0.4529
vn 0.0186 0.9086 0.4173
vn -0.0886 0.8839 0.4591
vn 0.3596 0.7983 0.4831
vn 0.4471 0.7660 0.4620
vn 0.9477 -0.0173 0.3186
vn 0.8246 -0.4708 0.3136
vn 0.0259 -0.9448 0.3265
vn -0.5141 -0.7901 0.3338
vn -0.9191 -0.1610 0.3596
vn -0.7414 0.5551 0.3772
vn 0.0137 0.9323 0.3615
vn 0.5818 0.7343 0.3498
vn -0.7876 -0.5903 -0.1768
vn 0.9765 0.0631 -0.2060
vn -0.6092 0.7728 -0.1778
vn 0.9093 -0.3500 -0.2252
vn -0.3354 0.9249 -0.1790
vn -0.1412 -0.9611 -0.2372
vn 0.6821 0.7007 -0.2091
vn -0.8973 -0.4054 -0.1747
vn -0.6891 -0.0914 0.7188
vn -0.6910 -0.0945 0.7166
vn -0.5366 0.4183 0.7329
vn -0.5375 0.4183 0.7322
vn -0.0619 0.6655 0.7438
vn -0.0674 0.6691 0.7401
vn 0.4412 0.5218 0.7301
vn 0.4406 0.5253 0.7279
vn 0.7087 0.0572 0.7032
vn 0.7158 0.0703 0.6947
vn 0.5631 -0.4585 0.6875
vn 0.5501 -0.4595 0.6973
vn 0.0857 -0.7047 0.7043
vn 0.0767 -0.6996 0.7104
vn -0.4244 -0.5580 0.7131
vn -0.4248 -0.5551 0.7151
vn -0.7213 -0.0512 0.6908
vn -0.6979 -0.0205 0.7159
vn -0.5455 0.4800 0.6871
vn -0.5951 0.4548 0.6626
vn -0.1127 0.7495 0.6523
vn -0.0715 0.7304 0.6792
vn 0.4111 0.5817 0.7019
vn 0.4137 0.5714 0.7087
vn 0.6649 0.1079 0.7391
vn 0.6801 0.1318 0.7212
vn 0.5262 -0.4029 0.7488
vn 0.5329 -0.4010 0.7451
vn 0.0601 -0.6539 0.7542
vn 0.0526 -0.6490 0.7590
vn -0.4705 -0.5001 0.7270
vn -0.4497 -0.5477 0.7055
# 120 vertex normals

vt 0.5545 0.9698 0.0000
vt 0.5572 0.5333 0.0000
vt 0.5544 0.5330 0.0000
vt 0.5579 0.5330 0.0000
vt 0.5575 0.5330 0.0000
vt 0.5543 0.5331 0.0000
vt 0.5519 0.5334 0.0000
vt 0.5499 0.5330 0.0000
vt 0.5514 0.5334 0.0000
vt 0.2559 0.5578 0.0000
vt 0.2552 0.7447 0.0000
vt 0.2598 0.7458 0.0000
vt 0.2754 0.5628 0.0000
vt 0.2618 0.7463 0.0000
vt 0.2834 0.5648 0.0000
vt 0.2505 0.7435 0.0000
vt 0.2363 0.5529 0.0000
vt 0.2486 0.7430 0.0000
vt 0.2283 0.5508 0.0000
vt 0.2565 0.5644 0.0000
vt 0.2569 0.7510 0.0000
vt 0.2616 0.7502 0.0000
vt 0.2759 0.5610 0.0000
vt 0.2635 0.7499 0.0000
vt 0.2840 0.5596 0.0000
vt 0.2522 0.7518 0.0000
vt 0.2370 0.5677 0.0000
vt 0.2503 0.7521 0.0000
vt 0.2289 0.5691 0.0000
vt 0.2558 0.5620 0.0000
vt 0.2549 0.7235 0.0000
vt 0.2589 0.7252 0.0000
vt 0.2727 0.5689 0.0000
vt 0.2606 0.7259 0.0000
vt 0.2797 0.5717 0.0000
vt 0.2509 0.7219 0.0000
vt 0.2390 0.5551 0.0000
vt 0.2492 0.7212 0.0000
vt 0.2320 0.5523 0.0000
vt 0.2553 0.5209 0.0000
vt 0.2564 0.9393 0.0000
vt 0.2749 0.5128 0.0000
vt 0.2830 0.5095 0.0000
vt 0.2357 0.5290 0.0000
vt 0.2276 0.5323 0.0000
vt 0.2558 0.6695 0.0000
vt 0.2473 0.6760 0.0000
vt 0.2463 0.6614 0.0000
vt 0.2558 0.6639 0.0000
vt 0.2689 0.6549 0.0000
vt 0.2643 0.6701 0.0000
vt 0.2430 0.6697 0.0000
vt 0.2645 0.6668 0.0000
# 53 texture coords

o shu5
g shu5
usemtl AllColors_Material
f 1/1/1 2/2/1 3/3/1 
f 1/1/2 4/4/2 2/2/2 
f 1/1/3 5/5/3 4/4/3 
f 1/1/4 6/6/4 5/5/4 
f 1/1/5 7/7/5 6/6/5 
f 1/1/6 8/8/6 7/7/6 
f 1/1/7 9/9/7 8/8/7 
f 1/1/8 3/3/8 9/9/8 
f 10/10/9 11/11/9 12/12/9 
f 12/12/10 13/13/10 10/10/10 
f 13/13/11 12/12/11 14/14/11 
f 14/14/12 15/15/12 13/13/12 
f 15/15/13 14/14/13 16/12/13 
f 16/12/14 17/13/14 15/15/14 
f 17/13/15 16/12/15 18/11/15 
f 18/11/16 19/10/16 17/13/16 
f 19/10/17 18/11/17 20/16/17 
f 20/16/18 21/17/18 19/10/18 
f 21/17/19 20/16/19 22/18/19 
f 22/18/20 23/19/20 21/17/20 
f 23/19/21 22/18/21 24/16/21 
f 24/16/22 25/17/22 23/19/22 
f 25/17/23 24/16/23 11/11/23 
f 11/11/24 10/10/24 25/17/24 
f 12/12/25 11/11/25 26/11/25 
f 26/11/26 27/12/26 12/12/26 
f 14/14/27 12/12/27 27/12/27 
f 27/12/28 28/14/28 14/14/28 
f 16/12/29 14/14/29 28/14/29 
f 28/14/30 29/12/30 16/12/30 
f 18/11/31 16/12/31 29/12/31 
f 29/12/32 30/11/32 18/11/32 
f 20/16/33 18/11/33 30/11/33 
f 30/11/34 31/16/34 20/16/34 
f 22/18/35 20/16/35 31/16/35 
f 31/16/36 32/18/36 22/18/36 
f 24/16/37 22/18/37 32/18/37 
f 32/18/38 33/16/38 24/16/38 
f 11/11/39 24/16/39 33/16/39 
f 33/16/40 26/11/40 11/11/40 
f 34/20/41 35/21/41 36/22/41 
f 36/22/42 37/23/42 34/20/42 
f 37/23/43 36/22/43 38/24/43 
f 38/24/44 39/25/44 37/23/44 
f 39/25/45 38/24/45 40/22/45 
f 40/22/46 41/23/46 39/25/46 
f 41/23/47 40/22/47 42/21/47 
f 42/21/48 43/20/48 41/23/48 
f 43/20/49 42/21/49 44/26/49 
f 44/26/50 45/27/50 43/20/50 
f 45/27/51 44/26/51 46/28/51 
f 46/28/52 47/29/52 45/27/52 
f 47/29/53 46/28/53 48/26/53 
f 48/26/54 49/27/54 47/29/54 
f 49/27/55 48/26/55 35/21/55 
f 35/21/56 34/20/56 49/27/56 
f 50/30/57 51/31/57 52/32/57 
f 52/32/58 53/33/58 50/30/58 
f 53/33/59 52/32/59 54/34/59 
f 54/34/60 55/35/60 53/33/60 
f 55/35/61 54/34/61 56/32/61 
f 56/32/62 57/33/62 55/35/62 
f 57/33/63 56/32/63 58/31/63 
f 58/31/64 59/30/64 57/33/64 
f 59/30/65 58/31/65 60/36/65 
f 60/36/66 61/37/66 59/30/66 
f 61/37/67 60/36/67 62/38/67 
f 62/38/68 63/39/68 61/37/68 
f 63/39/69 62/38/69 64/36/69 
f 64/36/70 65/37/70 63/39/70 
f 65/37/71 64/36/71 51/31/71 
f 51/31/72 50/30/72 65/37/72 
f 66/40/73 67/41/73 68/42/73 
f 68/42/74 67/41/74 69/43/74 
f 69/43/75 67/41/75 70/42/75 
f 70/42/76 67/41/76 71/40/76 
f 71/40/77 67/41/77 72/44/77 
f 72/44/78 67/41/78 73/45/78 
f 73/45/79 67/41/79 74/44/79 
f 74/44/80 67/41/80 66/40/80 
f 75/46/81 76/41/81 77/47/81 
f 78/48/82 76/41/82 79/49/82 
f 80/50/83 76/41/83 81/51/83 
f 82/52/84 76/41/84 78/48/84 
f 83/53/85 76/41/85 80/50/85 
f 77/47/86 76/41/86 82/52/86 
f 79/49/87 76/41/87 83/53/87 
f 81/51/88 76/41/88 75/46/88 
f 36/22/89 35/21/89 84/21/89 
f 84/21/90 85/22/90 36/22/90 
f 38/24/91 36/22/91 85/22/91 
f 85/22/92 86/24/92 38/24/92 
f 40/22/93 38/24/93 86/24/93 
f 86/24/94 87/22/94 40/22/94 
f 42/21/95 40/22/95 87/22/95 
f 87/22/96 88/21/96 42/21/96 
f 44/26/97 42/21/97 88/21/97 
f 88/21/98 89/26/98 44/26/98 
f 46/28/99 44/26/99 89/26/99 
f 89/26/100 90/28/100 46/28/100 
f 48/26/101 46/28/101 90/28/101 
f 90/28/102 91/26/102 48/26/102 
f 35/21/103 48/26/103 91/26/103 
f 91/26/104 84/21/104 35/21/104 
f 52/32/105 51/31/105 92/31/105 
f 92/31/106 93/32/106 52/32/106 
f 54/34/107 52/32/107 93/32/107 
f 93/32/108 94/34/108 54/34/108 
f 56/32/109 54/34/109 94/34/109 
f 94/34/110 95/32/110 56/32/110 
f 58/31/111 56/32/111 95/32/111 
f 95/32/112 96/31/112 58/31/112 
f 60/36/113 58/31/113 96/31/113 
f 96/31/114 97/36/114 60/36/114 
f 62/38/115 60/36/115 97/36/115 
f 97/36/116 98/38/116 62/38/116 
f 64/36/117 62/38/117 98/38/117 
f 98/38/118 99/36/118 64/36/118 
f 51/31/119 64/36/119 99/36/119 
f 99/36/120 92/31/120 51/31/120 
# 120 faces

