{
  "accessors": [
    {
      "name": "polySurface112_1_0_positions",
      "componentType": 5126,
      "count": 256,
      "min": [
        -50.442657470703125,
        -27.76363182067871,
        5.168724060058594
      ],
      "max": [
        59.628475189208984,
        103.47869873046875,
        25.46080780029297
      ],
      "type": "VEC3",
      "bufferView": 0,
      "byteOffset": 0
    },
    {
      "name": "polySurface112_1_0_normals",
      "componentType": 5126,
      "count": 256,
      "min": [
        -1,
        -1,
        -9.999999974752427e-7
      ],
      "max": [
        1,
        1,
        0
      ],
      "type": "VEC3",
      "bufferView": 1,
      "byteOffset": 0
    },
    {
      "name": "polySurface112_1_0_texcoords",
      "componentType": 5126,
      "count": 256,
      "min": [
        -2.502286911010742,
        -0.8396790027618408
      ],
      "max": [
        2.1598410606384277,
        2.1598401069641113
      ],
      "type": "VEC2",
      "bufferView": 2,
      "byteOffset": 0
    },
    {
      "name": "polySurface112_1_0_indices",
      "componentType": 5123,
      "count": 384,
      "min": [
        0
      ],
      "max": [
        255
      ],
      "type": "SCALAR",
      "bufferView": 3,
      "byteOffset": 0
    },
    {
      "name": "polySurface112_1_1_positions",
      "componentType": 5126,
      "count": 1228,
      "min": [
        -50.442657470703125,
        -27.76363182067871,
        -1.1287610530853271
      ],
      "max": [
        59.628475189208984,
        103.47869873046875,
        30.923709869384766
      ],
      "type": "VEC3",
      "bufferView": 0,
      "byteOffset": 3072
    },
    {
      "name": "polySurface112_1_1_normals",
      "componentType": 5126,
      "count": 1228,
      "min": [
        -1,
        -1,
        -1
      ],
      "max": [
        1,
        1,
        1
      ],
      "type": "VEC3",
      "bufferView": 1,
      "byteOffset": 3072
    },
    {
      "name": "polySurface112_1_1_texcoords",
      "componentType": 5126,
      "count": 1228,
      "min": [
        -2.9572179317474365,
        -1.2402859926223755
      ],
      "max": [
        1.7247480154037476,
        2.8275039196014404
      ],
      "type": "VEC2",
      "bufferView": 2,
      "byteOffset": 2048
    },
    {
      "name": "polySurface112_1_1_indices",
      "componentType": 5123,
      "count": 2310,
      "min": [
        0
      ],
      "max": [
        1227
      ],
      "type": "SCALAR",
      "bufferView": 3,
      "byteOffset": 768
    },
    {
      "name": "polySurface112_1_2_positions",
      "componentType": 5126,
      "count": 12,
      "min": [
        41.185035705566406,
        -25.45867156982422,
        0.3727090060710907
      ],
      "max": [
        58.628475189208984,
        28.77248191833496,
        10.635993957519531
      ],
      "type": "VEC3",
      "bufferView": 0,
      "byteOffset": 17808
    },
    {
      "name": "polySurface112_1_2_normals",
      "componentType": 5126,
      "count": 12,
      "min": [
        -1,
        0,
        0
      ],
      "max": [
        1,
        0,
        0
      ],
      "type": "VEC3",
      "bufferView": 1,
      "byteOffset": 17808
    },
    {
      "name": "polySurface112_1_2_texcoords",
      "componentType": 5126,
      "count": 12,
      "min": [
        0.0021180000621825457,
        0.12642699480056763
      ],
      "max": [
        3.9992620944976807,
        1.2024489641189575
      ],
      "type": "VEC2",
      "bufferView": 2,
      "byteOffset": 11872
    },
    {
      "name": "polySurface112_1_2_indices",
      "componentType": 5123,
      "count": 18,
      "min": [
        0
      ],
      "max": [
        11
      ],
      "type": "SCALAR",
      "bufferView": 3,
      "byteOffset": 5388
    },
    {
      "name": "polySurface112_1_3_positions",
      "componentType": 5126,
      "count": 8,
      "min": [
        41.185035705566406,
        11.86136245727539,
        0.3727090060710907
      ],
      "max": [
        58.628475189208984,
        28.77248191833496,
        10.635992050170898
      ],
      "type": "VEC3",
      "bufferView": 0,
      "byteOffset": 17952
    },
    {
      "name": "polySurface112_1_3_normals",
      "componentType": 5126,
      "count": 8,
      "min": [
        -1,
        0,
        0
      ],
      "max": [
        0,
        1,
        0
      ],
      "type": "VEC3",
      "bufferView": 1,
      "byteOffset": 17952
    },
    {
      "name": "polySurface112_1_3_texcoords",
      "componentType": 5126,
      "count": 8,
      "min": [
        0.11453499644994736,
        0.7328940033912659
      ],
      "max": [
        3.638608932495117,
        1.977942943572998
      ],
      "type": "VEC2",
      "bufferView": 2,
      "byteOffset": 11968
    },
    {
      "name": "polySurface112_1_3_indices",
      "componentType": 5123,
      "count": 12,
      "min": [
        0
      ],
      "max": [
        7
      ],
      "type": "SCALAR",
      "bufferView": 3,
      "byteOffset": 5424
    },
    {
      "name": "polySurface112_1_4_positions",
      "componentType": 5126,
      "count": 34,
      "min": [
        -28.4604434967041,
        -25.745405197143555,
        -0.7495309710502625
      ],
      "max": [
        58.60251998901367,
        28.72174644470215,
        2.34881591796875
      ],
      "type": "VEC3",
      "bufferView": 0,
      "byteOffset": 18048
    },
    {
      "name": "polySurface112_1_4_normals",
      "componentType": 5126,
      "count": 34,
      "min": [
        -1,
        -1,
        -0.16591404378414154
      ],
      "max": [
        1,
        1,
        0
      ],
      "type": "VEC3",
      "bufferView": 1,
      "byteOffset": 18048
    },
    {
      "name": "polySurface112_1_4_texcoords",
      "componentType": 5126,
      "count": 34,
      "min": [
        -2.7516109943389893,
        -1.7532589435577393
      ],
      "max": [
        2.4333479404449463,
        1.828205943107605
      ],
      "type": "VEC2",
      "bufferView": 2,
      "byteOffset": 12032
    },
    {
      "name": "polySurface112_1_4_indices",
      "componentType": 5123,
      "count": 54,
      "min": [
        0
      ],
      "max": [
        33
      ],
      "type": "SCALAR",
      "bufferView": 3,
      "byteOffset": 5448
    },
    {
      "name": "polySurface112_1_5_positions",
      "componentType": 5126,
      "count": 24,
      "min": [
        -28.4604434967041,
        -25.745405197143555,
        -0.9235190153121948
      ],
      "max": [
        58.60251998901367,
        28.72174644470215,
        2.34881591796875
      ],
      "type": "VEC3",
      "bufferView": 0,
      "byteOffset": 18456
    },
    {
      "name": "polySurface112_1_5_normals",
      "componentType": 5126,
      "count": 24,
      "min": [
        0,
        -0.9861401915550232,
        -0.16591598093509674
      ],
      "max": [
        0,
        0,
        1
      ],
      "type": "VEC3",
      "bufferView": 1,
      "byteOffset": 18456
    },
    {
      "name": "polySurface112_1_5_texcoords",
      "componentType": 5126,
      "count": 24,
      "min": [
        -2.8272829055786133,
        -1.8442800045013428
      ],
      "max": [
        4.117862224578857,
        2.867311954498291
      ],
      "type": "VEC2",
      "bufferView": 2,
      "byteOffset": 12304
    },
    {
      "name": "polySurface112_1_5_indices",
      "componentType": 5123,
      "count": 36,
      "min": [
        0
      ],
      "max": [
        23
      ],
      "type": "SCALAR",
      "bufferView": 3,
      "byteOffset": 5556
    },
    {
      "name": "polySurface112_1_6_positions",
      "componentType": 5126,
      "count": 54,
      "min": [
        -28.4604434967041,
        -25.745405197143555,
        -1.090975046157837
      ],
      "max": [
        58.60251998901367,
        28.72174644470215,
        2.3047211170196533
      ],
      "type": "VEC3",
      "bufferView": 0,
      "byteOffset": 18744
    },
    {
      "name": "polySurface112_1_6_normals",
      "componentType": 5126,
      "count": 54,
      "min": [
        -1,
        -1,
        -1
      ],
      "max": [
        1,
        1,
        0
      ],
      "type": "VEC3",
      "bufferView": 1,
      "byteOffset": 18744
    },
    {
      "name": "polySurface112_1_6_texcoords",
      "componentType": 5126,
      "count": 54,
      "min": [
        -0.7561010122299194,
        -0.5526319742202759
      ],
      "max": [
        2.444753885269165,
        1.6664010286331177
      ],
      "type": "VEC2",
      "bufferView": 2,
      "byteOffset": 12496
    },
    {
      "name": "polySurface112_1_6_indices",
      "componentType": 5123,
      "count": 90,
      "min": [
        0
      ],
      "max": [
        53
      ],
      "type": "SCALAR",
      "bufferView": 3,
      "byteOffset": 5628
    },
    {
      "name": "polySurface112_1_7_positions",
      "componentType": 5126,
      "count": 164,
      "min": [
        -44.47702407836914,
        5.0762200355529785,
        -0.49696600437164307
      ],
      "max": [
        -34.19859313964844,
        9.975015640258789,
        7.4542388916015625
      ],
      "type": "VEC3",
      "bufferView": 0,
      "byteOffset": 19392
    },
    {
      "name": "polySurface112_1_7_normals",
      "componentType": 5126,
      "count": 164,
      "min": [
        -0.9015207290649414,
        -0.9416567087173462,
        -1
      ],
      "max": [
        0.9015207290649414,
        0.9416567087173462,
        0
      ],
      "type": "VEC3",
      "bufferView": 1,
      "byteOffset": 19392
    },
    {
      "name": "polySurface112_1_7_texcoords",
      "componentType": 5126,
      "count": 164,
      "min": [
        0,
        0.034432001411914825
      ],
      "max": [
        2.7358601093292236,
        0.9583500027656555
      ],
      "type": "VEC2",
      "bufferView": 2,
      "byteOffset": 12928
    },
    {
      "name": "polySurface112_1_7_indices",
      "componentType": 5123,
      "count": 288,
      "min": [
        0
      ],
      "max": [
        163
      ],
      "type": "SCALAR",
      "bufferView": 3,
      "byteOffset": 5808
    },
    {
      "name": "polySurface112_1_8_positions",
      "componentType": 5126,
      "count": 132,
      "min": [
        -50.03156661987305,
        3.56181001663208,
        6.811272144317627
      ],
      "max": [
        -29.785154342651367,
        21.505523681640625,
        9.525739669799805
      ],
      "type": "VEC3",
      "bufferView": 0,
      "byteOffset": 21360
    },
    {
      "name": "polySurface112_1_8_normals",
      "componentType": 5126,
      "count": 132,
      "min": [
        -1,
        -1,
        -1
      ],
      "max": [
        1,
        1,
        1
      ],
      "type": "VEC3",
      "bufferView": 1,
      "byteOffset": 21360
    },
    {
      "name": "polySurface112_1_8_texcoords",
      "componentType": 5126,
      "count": 132,
      "min": [
        -1.9104269742965698,
        -0.5623090267181396
      ],
      "max": [
        1.0221689939498901,
        1.087581992149353
      ],
      "type": "VEC2",
      "bufferView": 2,
      "byteOffset": 14240
    },
    {
      "name": "polySurface112_1_8_indices",
      "componentType": 5123,
      "count": 216,
      "min": [
        0
      ],
      "max": [
        131
      ],
      "type": "SCALAR",
      "bufferView": 3,
      "byteOffset": 6384
    },
    {
      "name": "polySurface112_1_9_positions",
      "componentType": 5126,
      "count": 40,
      "min": [
        15.179104804992676,
        9.526037216186523,
        5.470727920532227
      ],
      "max": [
        33.26247024536133,
        19.122852325439453,
        7.490561008453369
      ],
      "type": "VEC3",
      "bufferView": 0,
      "byteOffset": 22944
    },
    {
      "name": "polySurface112_1_9_normals",
      "componentType": 5126,
      "count": 40,
      "min": [
        -1,
        -1,
        -1
      ],
      "max": [
        1,
        0.9986562132835388,
        1
      ],
      "type": "VEC3",
      "bufferView": 1,
      "byteOffset": 22944
    },
    {
      "name": "polySurface112_1_9_texcoords",
      "componentType": 5126,
      "count": 40,
      "min": [
        -3.9569530487060547,
        0.20169399678707123
      ],
      "max": [
        5.172752857208252,
        1.1959140300750732
      ],
      "type": "VEC2",
      "bufferView": 2,
      "byteOffset": 15296
    },
    {
      "name": "polySurface112_1_9_indices",
      "componentType": 5123,
      "count": 84,
      "min": [
        0
      ],
      "max": [
        39
      ],
      "type": "SCALAR",
      "bufferView": 3,
      "byteOffset": 6816
    },
    {
      "name": "polySurface112_1_10_positions",
      "componentType": 5126,
      "count": 56,
      "min": [
        -22.475852966308594,
        10.43494987487793,
        -1.0630730390548706
      ],
      "max": [
        30.704326629638672,
        36.89448547363281,
        14.960729598999023
      ],
      "type": "VEC3",
      "bufferView": 0,
      "byteOffset": 23424
    },
    {
      "name": "polySurface112_1_10_normals",
      "componentType": 5126,
      "count": 56,
      "min": [
        0,
        -1,
        0
      ],
      "max": [
        0,
        1,
        0
      ],
      "type": "VEC3",
      "bufferView": 1,
      "byteOffset": 23424
    },
    {
      "name": "polySurface112_1_10_texcoords",
      "componentType": 5126,
      "count": 56,
      "min": [
        -1.9998489618301392,
        -0.9910899996757507
      ],
      "max": [
        0.9919829964637756,
        1.085608959197998
      ],
      "type": "VEC2",
      "bufferView": 2,
      "byteOffset": 15616
    },
    {
      "name": "polySurface112_1_10_indices",
      "componentType": 5123,
      "count": 108,
      "min": [
        0
      ],
      "max": [
        55
      ],
      "type": "SCALAR",
      "bufferView": 3,
      "byteOffset": 6984
    },
    {
      "name": "polySurface112_1_11_positions",
      "componentType": 5126,
      "count": 16,
      "min": [
        -30.593143463134766,
        -27.489795684814453,
        7.765961170196533
      ],
      "max": [
        -22.038257598876953,
        15.263101577758789,
        13.411897659301758
      ],
      "type": "VEC3",
      "bufferView": 0,
      "byteOffset": 24096
    },
    {
      "name": "polySurface112_1_11_normals",
      "componentType": 5126,
      "count": 16,
      "min": [
        -1,
        0,
        0
      ],
      "max": [
        1,
        0,
        0
      ],
      "type": "VEC3",
      "bufferView": 1,
      "byteOffset": 24096
    },
    {
      "name": "polySurface112_1_11_texcoords",
      "componentType": 5126,
      "count": 16,
      "min": [
        0.0011360000353306532,
        -1.9785900115966797
      ],
      "max": [
        1.4267719984054565,
        0.9960070252418518
      ],
      "type": "VEC2",
      "bufferView": 2,
      "byteOffset": 16064
    },
    {
      "name": "polySurface112_1_11_indices",
      "componentType": 5123,
      "count": 24,
      "min": [
        0
      ],
      "max": [
        15
      ],
      "type": "SCALAR",
      "bufferView": 3,
      "byteOffset": 7200
    },
    {
      "name": "polySurface112_1_12_positions",
      "componentType": 5126,
      "count": 24,
      "min": [
        -50.442657470703125,
        8.957138061523438,
        -1.0578190088272095
      ],
      "max": [
        39.070518493652344,
        25.362953186035156,
        17.369190216064453
      ],
      "type": "VEC3",
      "bufferView": 0,
      "byteOffset": 24288
    },
    {
      "name": "polySurface112_1_12_normals",
      "componentType": 5126,
      "count": 24,
      "min": [
        -1,
        -0.22974708676338196,
        -1
      ],
      "max": [
        0,
        0.22974708676338196,
        1
      ],
      "type": "VEC3",
      "bufferView": 1,
      "byteOffset": 24288
    },
    {
      "name": "polySurface112_1_12_texcoords",
      "componentType": 5126,
      "count": 24,
      "min": [
        0,
        -0.3299199938774109
      ],
      "max": [
        0.9149600267410278,
        1
      ],
      "type": "VEC2",
      "bufferView": 2,
      "byteOffset": 16192
    },
    {
      "name": "polySurface112_1_12_indices",
      "componentType": 5123,
      "count": 36,
      "min": [
        0
      ],
      "max": [
        23
      ],
      "type": "SCALAR",
      "bufferView": 3,
      "byteOffset": 7248
    },
    {
      "name": "polySurface112_1_13_positions",
      "componentType": 5126,
      "count": 91,
      "min": [
        32.65127182006836,
        16.22265625,
        6.462107181549072
      ],
      "max": [
        34.520870208740234,
        18.09225082397461,
        18.011676788330078
      ],
      "type": "VEC3",
      "bufferView": 0,
      "byteOffset": 24576
    },
    {
      "name": "polySurface112_1_13_normals",
      "componentType": 5126,
      "count": 91,
      "min": [
        -0.9238793849945068,
        -0.9238801002502441,
        -1
      ],
      "max": [
        0.9238793849945068,
        0.9238801002502441,
        1
      ],
      "type": "VEC3",
      "bufferView": 1,
      "byteOffset": 24576
    },
    {
      "name": "polySurface112_1_13_texcoords",
      "componentType": 5126,
      "count": 91,
      "min": [
        0.34375,
        0
      ],
      "max": [
        0.65625,
        1
      ],
      "type": "VEC2",
      "bufferView": 2,
      "byteOffset": 16384
    },
    {
      "name": "polySurface112_1_13_indices",
      "componentType": 5123,
      "count": 168,
      "min": [
        0
      ],
      "max": [
        90
      ],
      "type": "SCALAR",
      "bufferView": 3,
      "byteOffset": 7320
    },
    {
      "name": "polySurface112_1_14_positions",
      "componentType": 5126,
      "count": 40,
      "min": [
        30.68283462524414,
        11.05117416381836,
        5.495636940002441
      ],
      "max": [
        39.27911376953125,
        25.80115509033203,
        7.514720916748047
      ],
      "type": "VEC3",
      "bufferView": 0,
      "byteOffset": 25668
    },
    {
      "name": "polySurface112_1_14_normals",
      "componentType": 5126,
      "count": 40,
      "min": [
        -1,
        -0.9732491970062256,
        -1
      ],
      "max": [
        1,
        0.9732504487037659,
        1
      ],
      "type": "VEC3",
      "bufferView": 1,
      "byteOffset": 25668
    },
    {
      "name": "polySurface112_1_14_texcoords",
      "componentType": 5126,
      "count": 40,
      "min": [
        -0.45378199219703674,
        -0.2573710083961487
      ],
      "max": [
        1.2700680494308472,
        1.044664978981018
      ],
      "type": "VEC2",
      "bufferView": 2,
      "byteOffset": 17112
    },
    {
      "name": "polySurface112_1_14_indices",
      "componentType": 5123,
      "count": 60,
      "min": [
        0
      ],
      "max": [
        39
      ],
      "type": "SCALAR",
      "bufferView": 3,
      "byteOffset": 7656
    },
    {
      "name": "polySurface112_1_15_positions",
      "componentType": 5126,
      "count": 8,
      "min": [
        30.908050537109375,
        11.489376068115234,
        -1.0578190088272095
      ],
      "max": [
        39.070518493652344,
        25.362953186035156,
        5.550118923187256
      ],
      "type": "VEC3",
      "bufferView": 0,
      "byteOffset": 26148
    },
    {
      "name": "polySurface112_1_15_normals",
      "componentType": 5126,
      "count": 8,
      "min": [
        0,
        -1,
        0
      ],
      "max": [
        0,
        1,
        0
      ],
      "type": "VEC3",
      "bufferView": 1,
      "byteOffset": 26148
    },
    {
      "name": "polySurface112_1_15_texcoords",
      "componentType": 5126,
      "count": 8,
      "min": [
        -0.9962530136108398,
        -1.0022059679031372
      ],
      "max": [
        1.0040919780731201,
        1.7647279500961304
      ],
      "type": "VEC2",
      "bufferView": 2,
      "byteOffset": 17432
    },
    {
      "name": "polySurface112_1_15_indices",
      "componentType": 5123,
      "count": 12,
      "min": [
        0
      ],
      "max": [
        7
      ],
      "type": "SCALAR",
      "bufferView": 3,
      "byteOffset": 7776
    },
    {
      "name": "polySurface112_1_16_positions",
      "componentType": 5126,
      "count": 56,
      "min": [
        -46.01771545410156,
        3.519773006439209,
        7.252452850341797
      ],
      "max": [
        -33.770145416259766,
        3.7112200260162354,
        8.820428848266602
      ],
      "type": "VEC3",
      "bufferView": 0,
      "byteOffset": 26244
    },
    {
      "name": "polySurface112_1_16_normals",
      "componentType": 5126,
      "count": 56,
      "min": [
        -1,
        -1,
        -1
      ],
      "max": [
        1,
        1,
        1
      ],
      "type": "VEC3",
      "bufferView": 1,
      "byteOffset": 26244
    },
    {
      "name": "polySurface112_1_16_texcoords",
      "componentType": 5126,
      "count": 56,
      "min": [
        0,
        0.22051900625228882
      ],
      "max": [
        1,
        1
      ],
      "type": "VEC2",
      "bufferView": 2,
      "byteOffset": 17496
    },
    {
      "name": "polySurface112_1_16_indices",
      "componentType": 5123,
      "count": 84,
      "min": [
        0
      ],
      "max": [
        55
      ],
      "type": "SCALAR",
      "bufferView": 3,
      "byteOffset": 7800
    },
    {
      "name": "polySurface112_1_17_positions",
      "componentType": 5126,
      "count": 528,
      "min": [
        -44.902896881103516,
        4.712699890136719,
        -1.183995008468628
      ],
      "max": [
        -33.78386688232422,
        10.33686637878418,
        -0.43214601278305054
      ],
      "type": "VEC3",
      "bufferView": 0,
      "byteOffset": 26916
    },
    {
      "name": "polySurface112_1_17_normals",
      "componentType": 5126,
      "count": 528,
      "min": [
        -0.9015217423439026,
        -0.9416562914848328,
        0
      ],
      "max": [
        0.901519775390625,
        0.9416562914848328,
        1
      ],
      "type": "VEC3",
      "bufferView": 1,
      "byteOffset": 26916
    },
    {
      "name": "polySurface112_1_17_texcoords",
      "componentType": 5126,
      "count": 528,
      "min": [
        -0.01305299997329712,
        0.06471700221300125
      ],
      "max": [
        0.9812629818916321,
        1
      ],
      "type": "VEC2",
      "bufferView": 2,
      "byteOffset": 17944
    },
    {
      "name": "polySurface112_1_17_indices",
      "componentType": 5123,
      "count": 960,
      "min": [
        0
      ],
      "max": [
        527
      ],
      "type": "SCALAR",
      "bufferView": 3,
      "byteOffset": 7968
    },
    {
      "name": "polySurface112_1_18_positions",
      "componentType": 5126,
      "count": 20,
      "min": [
        -48.28722381591797,
        11.758033752441406,
        25.460803985595703
      ],
      "max": [
        -22.003156661987305,
        11.758033752441406,
        30.923709869384766
      ],
      "type": "VEC3",
      "bufferView": 0,
      "byteOffset": 33252
    },
    {
      "name": "polySurface112_1_18_normals",
      "componentType": 5126,
      "count": 20,
      "min": [
        0,
        -1,
        0
      ],
      "max": [
        0,
        -1,
        0
      ],
      "type": "VEC3",
      "bufferView": 1,
      "byteOffset": 33252
    },
    {
      "name": "polySurface112_1_18_texcoords",
      "componentType": 5126,
      "count": 20,
      "min": [
        0.003717999905347824,
        0.0009830000344663858
      ],
      "max": [
        0.9859309792518616,
        0.9523500204086304
      ],
      "type": "VEC2",
      "bufferView": 2,
      "byteOffset": 22168
    },
    {
      "name": "polySurface112_1_18_indices",
      "componentType": 5123,
      "count": 30,
      "min": [
        0
      ],
      "max": [
        19
      ],
      "type": "SCALAR",
      "bufferView": 3,
      "byteOffset": 9888
    },
    {
      "name": "polySurface112_1_19_positions",
      "componentType": 5126,
      "count": 108,
      "min": [
        -48.28722381591797,
        11.758033752441406,
        -1.1287610530853271
      ],
      "max": [
        -22.003156661987305,
        102.47869873046875,
        7.0341620445251465
      ],
      "type": "VEC3",
      "bufferView": 0,
      "byteOffset": 33492
    },
    {
      "name": "polySurface112_1_19_normals",
      "componentType": 5126,
      "count": 108,
      "min": [
        -1,
        -1,
        0
      ],
      "max": [
        1,
        1,
        0
      ],
      "type": "VEC3",
      "bufferView": 1,
      "byteOffset": 33492
    },
    {
      "name": "polySurface112_1_19_texcoords",
      "componentType": 5126,
      "count": 108,
      "min": [
        -4.0346999168396,
        -0.050016000866889954
      ],
      "max": [
        0.8154760003089905,
        2.8275039196014404
      ],
      "type": "VEC2",
      "bufferView": 2,
      "byteOffset": 22328
    },
    {
      "name": "polySurface112_1_19_indices",
      "componentType": 5123,
      "count": 162,
      "min": [
        0
      ],
      "max": [
        107
      ],
      "type": "SCALAR",
      "bufferView": 3,
      "byteOffset": 9948
    },
    {
      "name": "polySurface112_1_20_positions",
      "componentType": 5126,
      "count": 4,
      "min": [
        -44.504730224609375,
        11.758033752441406,
        -1.1287610530853271
      ],
      "max": [
        -34.77301025390625,
        11.758033752441406,
        7.03416109085083
      ],
      "type": "VEC3",
      "bufferView": 0,
      "byteOffset": 34788
    },
    {
      "name": "polySurface112_1_20_normals",
      "componentType": 5126,
      "count": 4,
      "min": [
        0,
        -1,
        0
      ],
      "max": [
        0,
        -1,
        0
      ],
      "type": "VEC3",
      "bufferView": 1,
      "byteOffset": 34788
    },
    {
      "name": "polySurface112_1_20_texcoords",
      "componentType": 5126,
      "count": 4,
      "min": [
        0.026372000575065613,
        -0.004815000109374523
      ],
      "max": [
        0.9915069937705994,
        0.9986180067062378
      ],
      "type": "VEC2",
      "bufferView": 2,
      "byteOffset": 23192
    },
    {
      "name": "polySurface112_1_20_indices",
      "componentType": 5123,
      "count": 6,
      "min": [
        0
      ],
      "max": [
        3
      ],
      "type": "SCALAR",
      "bufferView": 3,
      "byteOffset": 10272
    },
    {
      "name": "polySurface112_1_21_positions",
      "componentType": 5126,
      "count": 120,
      "min": [
        -48.2872200012207,
        11.758033752441406,
        7.03416109085083
      ],
      "max": [
        -22.003156661987305,
        102.47869873046875,
        23.2459716796875
      ],
      "type": "VEC3",
      "bufferView": 0,
      "byteOffset": 34836
    },
    {
      "name": "polySurface112_1_21_normals",
      "componentType": 5126,
      "count": 120,
      "min": [
        -1,
        -1,
        0
      ],
      "max": [
        1,
        1,
        0
      ],
      "type": "VEC3",
      "bufferView": 1,
      "byteOffset": 34836
    },
    {
      "name": "polySurface112_1_21_texcoords",
      "componentType": 5126,
      "count": 120,
      "min": [
        -7.0335469245910645,
        -1.0267349481582642
      ],
      "max": [
        6.016324043273926,
        11.1336030960083
      ],
      "type": "VEC2",
      "bufferView": 2,
      "byteOffset": 23224
    },
    {
      "name": "polySurface112_1_21_indices",
      "componentType": 5123,
      "count": 180,
      "min": [
        0
      ],
      "max": [
        119
      ],
      "type": "SCALAR",
      "bufferView": 3,
      "byteOffset": 10284
    },
    {
      "name": "polySurface112_1_22_positions",
      "componentType": 5126,
      "count": 20,
      "min": [
        -30.942052841186523,
        11.758033752441406,
        8.435230255126953
      ],
      "max": [
        -25.578712463378906,
        102.47869873046875,
        23.2459716796875
      ],
      "type": "VEC3",
      "bufferView": 0,
      "byteOffset": 36276
    },
    {
      "name": "polySurface112_1_22_normals",
      "componentType": 5126,
      "count": 20,
      "min": [
        0,
        -1,
        0
      ],
      "max": [
        0,
        1,
        0
      ],
      "type": "VEC3",
      "bufferView": 1,
      "byteOffset": 36276
    },
    {
      "name": "polySurface112_1_22_texcoords",
      "componentType": 5126,
      "count": 20,
      "min": [
        -6.067686080932617,
        -1.01322603225708
      ],
      "max": [
        5.027390956878662,
        1.0799130201339722
      ],
      "type": "VEC2",
      "bufferView": 2,
      "byteOffset": 24184
    },
    {
      "name": "polySurface112_1_22_indices",
      "componentType": 5123,
      "count": 30,
      "min": [
        0
      ],
      "max": [
        19
      ],
      "type": "SCALAR",
      "bufferView": 3,
      "byteOffset": 10644
    },
    {
      "name": "polySurface112_1_23_positions",
      "componentType": 5126,
      "count": 24,
      "min": [
        -34.03889846801758,
        5.187335968017578,
        -1.154000997543335
      ],
      "max": [
        -32.88003921508789,
        13.088766098022461,
        0.8838580250740051
      ],
      "type": "VEC3",
      "bufferView": 0,
      "byteOffset": 36516
    },
    {
      "name": "polySurface112_1_23_normals",
      "componentType": 5126,
      "count": 24,
      "min": [
        -1,
        -1,
        -1
      ],
      "max": [
        1,
        1,
        1
      ],
      "type": "VEC3",
      "bufferView": 1,
      "byteOffset": 36516
    },
    {
      "name": "polySurface112_1_23_texcoords",
      "componentType": 5126,
      "count": 24,
      "min": [
        -0.03748700022697449,
        -0.06684400141239166
      ],
      "max": [
        1.0779340267181396,
        1.0485759973526
      ],
      "type": "VEC2",
      "bufferView": 2,
      "byteOffset": 24344
    },
    {
      "name": "polySurface112_1_23_indices",
      "componentType": 5123,
      "count": 36,
      "min": [
        0
      ],
      "max": [
        23
      ],
      "type": "SCALAR",
      "bufferView": 3,
      "byteOffset": 10704
    },
    {
      "name": "polySurface112_1_24_positions",
      "componentType": 5126,
      "count": 32,
      "min": [
        -50.267913818359375,
        9.212211608886719,
        12.508466720581055
      ],
      "max": [
        -35.412818908691406,
        18.98333740234375,
        19.894330978393555
      ],
      "type": "VEC3",
      "bufferView": 0,
      "byteOffset": 36804
    },
    {
      "name": "polySurface112_1_24_normals",
      "componentType": 5126,
      "count": 32,
      "min": [
        -1,
        -1,
        0
      ],
      "max": [
        0.9999980926513672,
        0.9999999403953552,
        0
      ],
      "type": "VEC3",
      "bufferView": 1,
      "byteOffset": 36804
    },
    {
      "name": "polySurface112_1_24_texcoords",
      "componentType": 5126,
      "count": 32,
      "min": [
        -2.8319039344787598,
        -1.9328440427780151
      ],
      "max": [
        7.1352081298828125,
        2.9089229106903076
      ],
      "type": "VEC2",
      "bufferView": 2,
      "byteOffset": 24536
    },
    {
      "name": "polySurface112_1_24_indices",
      "componentType": 5123,
      "count": 48,
      "min": [
        0
      ],
      "max": [
        31
      ],
      "type": "SCALAR",
      "bufferView": 3,
      "byteOffset": 10776
    }
  ],
  "asset": {
    "generator": "obj2gltf",
    "version": "2.0"
  },
  "buffers": [
    {
      "name": "sgy_q5_002",
      "byteLength": 110040,
      "uri": "data:application/octet-stream;base64,"
    }
  ],
  "bufferViews": [
    {
      "name": "bufferView_0",
      "buffer": 0,
      "byteLength": 37188,
      "byteOffset": 0,
      "byteStride": 12,
      "target": 34962
    },
    {
      "name": "bufferView_1",
      "buffer": 0,
      "byteLength": 37188,
      "byteOffset": 37188,
      "byteStride": 12,
      "target": 34962
    },
    {
      "name": "bufferView_2",
      "buffer": 0,
      "byteLength": 24792,
      "byteOffset": 74376,
      "byteStride": 8,
      "target": 34962
    },
    {
      "name": "bufferView_3",
      "buffer": 0,
      "byteLength": 10872,
      "byteOffset": 99168,
      "target": 34963
    }
  ],
  "images": [
    {
      "name": "sgy_q5_04",
      "uri": "sgy_q5_04.jpg"
    },
    {
      "name": "sgy_q5_19",
      "uri": "sgy_q5_19.jpg"
    },
    {
      "name": "sgy_q5_03",
      "uri": "sgy_q5_03.jpg"
    },
    {
      "name": "sgy_q5_18",
      "uri": "sgy_q5_18.jpg"
    },
    {
      "name": "sgy_q5_23",
      "uri": "sgy_q5_23.jpg"
    },
    {
      "name": "sgy_q5_26",
      "uri": "sgy_q5_26.jpg"
    },
    {
      "name": "sgy_q5_25",
      "uri": "sgy_q5_25.jpg"
    },
    {
      "name": "sgy_q5_05",
      "uri": "sgy_q5_05.jpg"
    },
    {
      "name": "sgy_q5_22",
      "uri": "sgy_q5_22.jpg"
    },
    {
      "name": "sgy_q5_20",
      "uri": "sgy_q5_20.jpg"
    },
    {
      "name": "sgy_q5_12",
      "uri": "sgy_q5_12.jpg"
    },
    {
      "name": "sgy_q5_10",
      "uri": "sgy_q5_10.jpg"
    },
    {
      "name": "sgy_q5_21",
      "uri": "sgy_q5_21.jpg"
    },
    {
      "name": "sgy_q5_14",
      "uri": "sgy_q5_14.jpg"
    },
    {
      "name": "sgy_q5_17",
      "uri": "sgy_q5_17.jpg"
    },
    {
      "name": "sgy_q5_06",
      "uri": "sgy_q5_06.jpg"
    },
    {
      "name": "sgy_q5_07",
      "uri": "sgy_q5_07.jpg"
    },
    {
      "name": "sgy_q5_01",
      "uri": "sgy_q5_01.jpg"
    },
    {
      "name": "sgy_q5_13",
      "uri": "sgy_q5_13.jpg"
    },
    {
      "name": "sgy_q5_08",
      "uri": "sgy_q5_08.jpg"
    },
    {
      "name": "sgy_q5_09",
      "uri": "sgy_q5_09.jpg"
    },
    {
      "name": "sgy_q5_15",
      "uri": "sgy_q5_15.jpg"
    },
    {
      "name": "sgy_q5_11",
      "uri": "sgy_q5_11.jpg"
    },
    {
      "name": "sgy_q5_24",
      "uri": "sgy_q5_24.png"
    }
  ],
  "materials": [
    {
      "name": "lambert4SG",
      "pbrMetallicRoughness": {
        "baseColorTexture": {
          "index": 0
        },
        "baseColorFactor": [
          1,
          1,
          1,
          1
        ],
        "metallicFactor": 0,
        "roughnessFactor": 1
      },
      "emissiveFactor": [
        0,
        0,
        0
      ],
      "alphaMode": "OPAQUE",
      "doubleSided": false
    },
    {
      "name": "lambert25SG",
      "pbrMetallicRoughness": {
        "baseColorTexture": {
          "index": 1
        },
        "baseColorFactor": [
          1,
          1,
          1,
          1
        ],
        "metallicFactor": 0,
        "roughnessFactor": 1
      },
      "emissiveFactor": [
        0,
        0,
        0
      ],
      "alphaMode": "OPAQUE",
      "doubleSided": false
    },
    {
      "name": "lambert27SG",
      "pbrMetallicRoughness": {
        "baseColorTexture": {
          "index": 2
        },
        "baseColorFactor": [
          1,
          1,
          1,
          1
        ],
        "metallicFactor": 0,
        "roughnessFactor": 1
      },
      "emissiveFactor": [
        0,
        0,
        0
      ],
      "alphaMode": "OPAQUE",
      "doubleSided": false
    },
    {
      "name": "lambert28SG",
      "pbrMetallicRoughness": {
        "baseColorTexture": {
          "index": 3
        },
        "baseColorFactor": [
          1,
          1,
          1,
          1
        ],
        "metallicFactor": 0,
        "roughnessFactor": 1
      },
      "emissiveFactor": [
        0,
        0,
        0
      ],
      "alphaMode": "OPAQUE",
      "doubleSided": false
    },
    {
      "name": "lambert20SG",
      "pbrMetallicRoughness": {
        "baseColorTexture": {
          "index": 4
        },
        "baseColorFactor": [
          1,
          1,
          1,
          1
        ],
        "metallicFactor": 0,
        "roughnessFactor": 1
      },
      "emissiveFactor": [
        0,
        0,
        0
      ],
      "alphaMode": "OPAQUE",
      "doubleSided": false
    },
    {
      "name": "lambert33SG",
      "pbrMetallicRoughness": {
        "baseColorTexture": {
          "index": 5
        },
        "baseColorFactor": [
          1,
          1,
          1,
          1
        ],
        "metallicFactor": 0,
        "roughnessFactor": 1
      },
      "emissiveFactor": [
        0,
        0,
        0
      ],
      "alphaMode": "OPAQUE",
      "doubleSided": false
    },
    {
      "name": "lambert21SG",
      "pbrMetallicRoughness": {
        "baseColorTexture": {
          "index": 6
        },
        "baseColorFactor": [
          1,
          1,
          1,
          1
        ],
        "metallicFactor": 0,
        "roughnessFactor": 1
      },
      "emissiveFactor": [
        0,
        0,
        0
      ],
      "alphaMode": "OPAQUE",
      "doubleSided": false
    },
    {
      "name": "lambert5SG",
      "pbrMetallicRoughness": {
        "baseColorTexture": {
          "index": 7
        },
        "baseColorFactor": [
          1,
          1,
          1,
          1
        ],
        "metallicFactor": 0,
        "roughnessFactor": 1
      },
      "emissiveFactor": [
        0,
        0,
        0
      ],
      "alphaMode": "OPAQUE",
      "doubleSided": false
    },
    {
      "name": "lambert17SG",
      "pbrMetallicRoughness": {
        "baseColorTexture": {
          "index": 8
        },
        "baseColorFactor": [
          1,
          1,
          1,
          1
        ],
        "metallicFactor": 0,
        "roughnessFactor": 1
      },
      "emissiveFactor": [
        0,
        0,
        0
      ],
      "alphaMode": "OPAQUE",
      "doubleSided": false
    },
    {
      "name": "lambert18SG",
      "pbrMetallicRoughness": {
        "baseColorTexture": {
          "index": 9
        },
        "baseColorFactor": [
          1,
          1,
          1,
          1
        ],
        "metallicFactor": 0,
        "roughnessFactor": 1
      },
      "emissiveFactor": [
        0,
        0,
        0
      ],
      "alphaMode": "OPAQUE",
      "doubleSided": false
    },
    {
      "name": "lambert15SG",
      "pbrMetallicRoughness": {
        "baseColorTexture": {
          "index": 10
        },
        "baseColorFactor": [
          1,
          1,
          1,
          1
        ],
        "metallicFactor": 0,
        "roughnessFactor": 1
      },
      "emissiveFactor": [
        0,
        0,
        0
      ],
      "alphaMode": "OPAQUE",
      "doubleSided": false
    },
    {
      "name": "lambert12SG",
      "pbrMetallicRoughness": {
        "baseColorTexture": {
          "index": 11
        },
        "baseColorFactor": [
          1,
          1,
          1,
          1
        ],
        "metallicFactor": 0,
        "roughnessFactor": 1
      },
      "emissiveFactor": [
        0,
        0,
        0
      ],
      "alphaMode": "OPAQUE",
      "doubleSided": false
    },
    {
      "name": "initialShadingGroup",
      "pbrMetallicRoughness": {
        "baseColorTexture": {
          "index": 1
        },
        "baseColorFactor": [
          1,
          1,
          1,
          1
        ],
        "metallicFactor": 0,
        "roughnessFactor": 1
      },
      "emissiveFactor": [
        0,
        0,
        0
      ],
      "alphaMode": "OPAQUE",
      "doubleSided": false
    },
    {
      "name": "lambert29SG",
      "pbrMetallicRoughness": {
        "baseColorTexture": {
          "index": 12
        },
        "baseColorFactor": [
          1,
          1,
          1,
          1
        ],
        "metallicFactor": 0,
        "roughnessFactor": 1
      },
      "emissiveFactor": [
        0,
        0,
        0
      ],
      "alphaMode": "OPAQUE",
      "doubleSided": false
    },
    {
      "name": "lambert22SG",
      "pbrMetallicRoughness": {
        "baseColorTexture": {
          "index": 13
        },
        "baseColorFactor": [
          1,
          1,
          1,
          1
        ],
        "metallicFactor": 0,
        "roughnessFactor": 1
      },
      "emissiveFactor": [
        0,
        0,
        0
      ],
      "alphaMode": "OPAQUE",
      "doubleSided": false
    },
    {
      "name": "lambert26SG",
      "pbrMetallicRoughness": {
        "baseColorTexture": {
          "index": 14
        },
        "baseColorFactor": [
          1,
          1,
          1,
          1
        ],
        "metallicFactor": 0,
        "roughnessFactor": 1
      },
      "emissiveFactor": [
        0,
        0,
        0
      ],
      "alphaMode": "OPAQUE",
      "doubleSided": false
    },
    {
      "name": "lambert6SG",
      "pbrMetallicRoughness": {
        "baseColorTexture": {
          "index": 15
        },
        "baseColorFactor": [
          1,
          1,
          1,
          1
        ],
        "metallicFactor": 0,
        "roughnessFactor": 1
      },
      "emissiveFactor": [
        0,
        0,
        0
      ],
      "alphaMode": "OPAQUE",
      "doubleSided": false
    },
    {
      "name": "lambert36SG",
      "pbrMetallicRoughness": {
        "baseColorTexture": {
          "index": 16
        },
        "baseColorFactor": [
          1,
          1,
          1,
          1
        ],
        "metallicFactor": 0,
        "roughnessFactor": 1
      },
      "emissiveFactor": [
        0,
        0,
        0
      ],
      "alphaMode": "OPAQUE",
      "doubleSided": false
    },
    {
      "name": "lambert2SG",
      "pbrMetallicRoughness": {
        "baseColorTexture": {
          "index": 17
        },
        "baseColorFactor": [
          1,
          1,
          1,
          1
        ],
        "metallicFactor": 0,
        "roughnessFactor": 1
      },
      "emissiveFactor": [
        0,
        0,
        0
      ],
      "alphaMode": "OPAQUE",
      "doubleSided": false
    },
    {
      "name": "lambert34SG",
      "pbrMetallicRoughness": {
        "baseColorTexture": {
          "index": 18
        },
        "baseColorFactor": [
          1,
          1,
          1,
          1
        ],
        "metallicFactor": 0,
        "roughnessFactor": 1
      },
      "emissiveFactor": [
        0,
        0,
        0
      ],
      "alphaMode": "OPAQUE",
      "doubleSided": false
    },
    {
      "name": "lambert8SG",
      "pbrMetallicRoughness": {
        "baseColorTexture": {
          "index": 19
        },
        "baseColorFactor": [
          1,
          1,
          1,
          1
        ],
        "metallicFactor": 0,
        "roughnessFactor": 1
      },
      "emissiveFactor": [
        0,
        0,
        0
      ],
      "alphaMode": "OPAQUE",
      "doubleSided": false
    },
    {
      "name": "lambert9SG",
      "pbrMetallicRoughness": {
        "baseColorTexture": {
          "index": 20
        },
        "baseColorFactor": [
          1,
          1,
          1,
          1
        ],
        "metallicFactor": 0,
        "roughnessFactor": 1
      },
      "emissiveFactor": [
        0,
        0,
        0
      ],
      "alphaMode": "OPAQUE",
      "doubleSided": false
    },
    {
      "name": "lambert24SG",
      "pbrMetallicRoughness": {
        "baseColorTexture": {
          "index": 21
        },
        "baseColorFactor": [
          1,
          1,
          1,
          1
        ],
        "metallicFactor": 0,
        "roughnessFactor": 1
      },
      "emissiveFactor": [
        0,
        0,
        0
      ],
      "alphaMode": "OPAQUE",
      "doubleSided": false
    },
    {
      "name": "lambert14SG",
      "pbrMetallicRoughness": {
        "baseColorTexture": {
          "index": 22
        },
        "baseColorFactor": [
          1,
          1,
          1,
          1
        ],
        "metallicFactor": 0,
        "roughnessFactor": 1
      },
      "emissiveFactor": [
        0,
        0,
        0
      ],
      "alphaMode": "OPAQUE",
      "doubleSided": false
    },
    {
      "name": "lambert35SG",
      "pbrMetallicRoughness": {
        "baseColorTexture": {
          "index": 23
        },
        "baseColorFactor": [
          1,
          1,
          1,
          1
        ],
        "metallicFactor": 0,
        "roughnessFactor": 1
      },
      "emissiveFactor": [
        0,
        0,
        0
      ],
      "alphaMode": "OPAQUE",
      "doubleSided": false
    }
  ],
  "meshes": [
    {
      "name": "polySurface112_1",
      "primitives": [
        {
          "attributes": {
            "POSITION": 0,
            "NORMAL": 1,
            "TEXCOORD_0": 2
          },
          "indices": 3,
          "material": 0,
          "mode": 4
        },
        {
          "attributes": {
            "POSITION": 4,
            "NORMAL": 5,
            "TEXCOORD_0": 6
          },
          "indices": 7,
          "material": 1,
          "mode": 4
        },
        {
          "attributes": {
            "POSITION": 8,
            "NORMAL": 9,
            "TEXCOORD_0": 10
          },
          "indices": 11,
          "material": 2,
          "mode": 4
        },
        {
          "attributes": {
            "POSITION": 12,
            "NORMAL": 13,
            "TEXCOORD_0": 14
          },
          "indices": 15,
          "material": 3,
          "mode": 4
        },
        {
          "attributes": {
            "POSITION": 16,
            "NORMAL": 17,
            "TEXCOORD_0": 18
          },
          "indices": 19,
          "material": 4,
          "mode": 4
        },
        {
          "attributes": {
            "POSITION": 20,
            "NORMAL": 21,
            "TEXCOORD_0": 22
          },
          "indices": 23,
          "material": 5,
          "mode": 4
        },
        {
          "attributes": {
            "POSITION": 24,
            "NORMAL": 25,
            "TEXCOORD_0": 26
          },
          "indices": 27,
          "material": 6,
          "mode": 4
        },
        {
          "attributes": {
            "POSITION": 28,
            "NORMAL": 29,
            "TEXCOORD_0": 30
          },
          "indices": 31,
          "material": 7,
          "mode": 4
        },
        {
          "attributes": {
            "POSITION": 32,
            "NORMAL": 33,
            "TEXCOORD_0": 34
          },
          "indices": 35,
          "material": 8,
          "mode": 4
        },
        {
          "attributes": {
            "POSITION": 36,
            "NORMAL": 37,
            "TEXCOORD_0": 38
          },
          "indices": 39,
          "material": 9,
          "mode": 4
        },
        {
          "attributes": {
            "POSITION": 40,
            "NORMAL": 41,
            "TEXCOORD_0": 42
          },
          "indices": 43,
          "material": 10,
          "mode": 4
        },
        {
          "attributes": {
            "POSITION": 44,
            "NORMAL": 45,
            "TEXCOORD_0": 46
          },
          "indices": 47,
          "material": 11,
          "mode": 4
        },
        {
          "attributes": {
            "POSITION": 48,
            "NORMAL": 49,
            "TEXCOORD_0": 50
          },
          "indices": 51,
          "material": 12,
          "mode": 4
        },
        {
          "attributes": {
            "POSITION": 52,
            "NORMAL": 53,
            "TEXCOORD_0": 54
          },
          "indices": 55,
          "material": 13,
          "mode": 4
        },
        {
          "attributes": {
            "POSITION": 56,
            "NORMAL": 57,
            "TEXCOORD_0": 58
          },
          "indices": 59,
          "material": 14,
          "mode": 4
        },
        {
          "attributes": {
            "POSITION": 60,
            "NORMAL": 61,
            "TEXCOORD_0": 62
          },
          "indices": 63,
          "material": 15,
          "mode": 4
        },
        {
          "attributes": {
            "POSITION": 64,
            "NORMAL": 65,
            "TEXCOORD_0": 66
          },
          "indices": 67,
          "material": 16,
          "mode": 4
        },
        {
          "attributes": {
            "POSITION": 68,
            "NORMAL": 69,
            "TEXCOORD_0": 70
          },
          "indices": 71,
          "material": 17,
          "mode": 4
        },
        {
          "attributes": {
            "POSITION": 72,
            "NORMAL": 73,
            "TEXCOORD_0": 74
          },
          "indices": 75,
          "material": 18,
          "mode": 4
        },
        {
          "attributes": {
            "POSITION": 76,
            "NORMAL": 77,
            "TEXCOORD_0": 78
          },
          "indices": 79,
          "material": 19,
          "mode": 4
        },
        {
          "attributes": {
            "POSITION": 80,
            "NORMAL": 81,
            "TEXCOORD_0": 82
          },
          "indices": 83,
          "material": 20,
          "mode": 4
        },
        {
          "attributes": {
            "POSITION": 84,
            "NORMAL": 85,
            "TEXCOORD_0": 86
          },
          "indices": 87,
          "material": 21,
          "mode": 4
        },
        {
          "attributes": {
            "POSITION": 88,
            "NORMAL": 89,
            "TEXCOORD_0": 90
          },
          "indices": 91,
          "material": 22,
          "mode": 4
        },
        {
          "attributes": {
            "POSITION": 92,
            "NORMAL": 93,
            "TEXCOORD_0": 94
          },
          "indices": 95,
          "material": 23,
          "mode": 4
        },
        {
          "attributes": {
            "POSITION": 96,
            "NORMAL": 97,
            "TEXCOORD_0": 98
          },
          "indices": 99,
          "material": 24,
          "mode": 4
        }
      ]
    }
  ],
  "nodes": [
    {
      "name": "polySurface112",
      "mesh": 0
    }
  ],
  "samplers": [
    {
      "wrapS": 10497,
      "wrapT": 10497
    }
  ],
  "scene": 0,
  "scenes": [
    {
      "nodes": [
        0
      ]
    }
  ],
  "textures": [
    {
      "name": "sgy_q5_04",
      "sampler": 0,
      "source": 0
    },
    {
      "name": "sgy_q5_19",
      "sampler": 0,
      "source": 1
    },
    {
      "name": "sgy_q5_03",
      "sampler": 0,
      "source": 2
    },
    {
      "name": "sgy_q5_18",
      "sampler": 0,
      "source": 3
    },
    {
      "name": "sgy_q5_23",
      "sampler": 0,
      "source": 4
    },
    {
      "name": "sgy_q5_26",
      "sampler": 0,
      "source": 5
    },
    {
      "name": "sgy_q5_25",
      "sampler": 0,
      "source": 6
    },
    {
      "name": "sgy_q5_05",
      "sampler": 0,
      "source": 7
    },
    {
      "name": "sgy_q5_22",
      "sampler": 0,
      "source": 8
    },
    {
      "name": "sgy_q5_20",
      "sampler": 0,
      "source": 9
    },
    {
      "name": "sgy_q5_12",
      "sampler": 0,
      "source": 10
    },
    {
      "name": "sgy_q5_10",
      "sampler": 0,
      "source": 11
    },
    {
      "name": "sgy_q5_21",
      "sampler": 0,
      "source": 12
    },
    {
      "name": "sgy_q5_14",
      "sampler": 0,
      "source": 13
    },
    {
      "name": "sgy_q5_17",
      "sampler": 0,
      "source": 14
    },
    {
      "name": "sgy_q5_06",
      "sampler": 0,
      "source": 15
    },
    {
      "name": "sgy_q5_07",
      "sampler": 0,
      "source": 16
    },
    {
      "name": "sgy_q5_01",
      "sampler": 0,
      "source": 17
    },
    {
      "name": "sgy_q5_13",
      "sampler": 0,
      "source": 18
    },
    {
      "name": "sgy_q5_08",
      "sampler": 0,
      "source": 19
    },
    {
      "name": "sgy_q5_09",
      "sampler": 0,
      "source": 20
    },
    {
      "name": "sgy_q5_15",
      "sampler": 0,
      "source": 21
    },
    {
      "name": "sgy_q5_11",
      "sampler": 0,
      "source": 22
    },
    {
      "name": "sgy_q5_24",
      "sampler": 0,
      "source": 23
    }
  ]
}
