{"asset":{"version":"2.0","generator":"babylon.js glTF exporter for 3dsmax 2022 v20240125.3"},"scene":0,"scenes":[{"nodes":[0]}],"nodes":[{"mesh":0,"name":"Box008"}],"meshes":[{"primitives":[{"attributes":{"POSITION":1,"NORMAL":2,"TEXCOORD_0":3},"indices":0,"material":0},{"attributes":{"POSITION":5,"NORMAL":6,"TEXCOORD_0":7},"indices":4,"material":1},{"attributes":{"POSITION":9,"NORMAL":10,"TEXCOORD_0":11},"indices":8,"material":2},{"attributes":{"POSITION":13,"NORMAL":14,"TEXCOORD_0":15},"indices":12,"material":3}],"name":"Box008"}],"accessors":[{"bufferView":0,"componentType":5123,"count":1239,"type":"SCALAR","name":"accessorIndices"},{"bufferView":1,"componentType":5126,"count":775,"max":[8.300969,7.130328,8.33845],"min":[-8.300968,-7.130328,-1.48747608E-06],"type":"VEC3","name":"accessorPositions"},{"bufferView":1,"byteOffset":9300,"componentType":5126,"count":775,"type":"VEC3","name":"accessorNormals"},{"bufferView":2,"componentType":5126,"count":775,"type":"VEC2","name":"accessorUVs"},{"bufferView":0,"byteOffset":2480,"componentType":5123,"count":84,"type":"SCALAR","name":"accessorIndices"},{"bufferView":1,"byteOffset":18600,"componentType":5126,"count":52,"max":[8.039025,4.06748867,4.31491137],"min":[-8.116949,-2.874202,0.3149096],"type":"VEC3","name":"accessorPositions"},{"bufferView":1,"byteOffset":19224,"componentType":5126,"count":52,"type":"VEC3","name":"accessorNormals"},{"bufferView":2,"byteOffset":6200,"componentType":5126,"count":52,"type":"VEC2","name":"accessorUVs"},{"bufferView":0,"byteOffset":2648,"componentType":5123,"count":12,"type":"SCALAR","name":"accessorIndices"},{"bufferView":1,"byteOffset":19848,"componentType":5126,"count":8,"max":[7.933069,4.16016,1.64096415],"min":[7.9298687,-2.82931781,0.515329659],"type":"VEC3","name":"accessorPositions"},{"bufferView":1,"byteOffset":19944,"componentType":5126,"count":8,"type":"VEC3","name":"accessorNormals"},{"bufferView":2,"byteOffset":6616,"componentType":5126,"count":8,"type":"VEC2","name":"accessorUVs"},{"bufferView":0,"byteOffset":2672,"componentType":5123,"count":12,"type":"SCALAR","name":"accessorIndices"},{"bufferView":1,"byteOffset":20040,"componentType":5126,"count":8,"max":[3.489451,3.12579918,4.31491137],"min":[-7.723349,-2.874202,0.3149096],"type":"VEC3","name":"accessorPositions"},{"bufferView":1,"byteOffset":20136,"componentType":5126,"count":8,"type":"VEC3","name":"accessorNormals"},{"bufferView":2,"byteOffset":6680,"componentType":5126,"count":8,"type":"VEC2","name":"accessorUVs"}],"bufferViews":[{"buffer":0,"byteLength":2696,"name":"bufferViewScalar"},{"buffer":0,"byteOffset":2696,"byteLength":20232,"byteStride":12,"name":"bufferViewFloatVec3"},{"buffer":0,"byteOffset":22928,"byteLength":6744,"byteStride":8,"name":"bufferViewFloatVec2"}],"buffers":[{"uri":"sgy_ydhj_02.bin","byteLength":29672}],"materials":[{"pbrMetallicRoughness":{"baseColorTexture":{"index":0},"metallicFactor":0.0,"roughnessFactor":0.450053632},"name":"Material #46376"},{"pbrMetallicRoughness":{"baseColorTexture":{"index":1},"metallicFactor":0.0,"roughnessFactor":0.450053632},"name":"Material #46377"},{"pbrMetallicRoughness":{"baseColorTexture":{"index":2},"metallicFactor":0.0,"roughnessFactor":0.450053632},"name":"Material #46390"},{"pbrMetallicRoughness":{"baseColorTexture":{"index":3},"metallicFactor":0.0,"roughnessFactor":0.450053632},"name":"Material #46378"}],"textures":[{"sampler":0,"source":0,"name":"sgy_yd_02.jpg"},{"sampler":0,"source":1,"name":"sgy_yd_03.jpg"},{"sampler":0,"source":2,"name":"sgy_yd_04.png"},{"sampler":0,"source":3,"name":"SY_B022.jpg"}],"images":[{"uri":"sgy_yd_02.jpg"},{"uri":"sgy_yd_03.jpg"},{"uri":"sgy_yd_04.png"},{"uri":"SY_B022.jpg"}],"samplers":[{"magFilter":9729,"minFilter":9987}]}