{"asset":{"version":"2.0","generator":"babylon.js glTF exporter for 3dsmax 2022 v20240125.3"},"scene":0,"scenes":[{"nodes":[0]}],"nodes":[{"mesh":0,"name":"object3"}],"meshes":[{"primitives":[{"attributes":{"POSITION":1,"NORMAL":2,"TEXCOORD_0":3},"indices":0,"material":0},{"attributes":{"POSITION":5,"NORMAL":6,"TEXCOORD_0":7},"indices":4,"material":1},{"attributes":{"POSITION":9,"NORMAL":10,"TEXCOORD_0":11},"indices":8,"material":2},{"attributes":{"POSITION":13,"NORMAL":14,"TEXCOORD_0":15},"indices":12,"material":3},{"attributes":{"POSITION":17,"NORMAL":18,"TEXCOORD_0":19},"indices":16,"material":4},{"attributes":{"POSITION":21,"NORMAL":22,"TEXCOORD_0":23},"indices":20,"material":5},{"attributes":{"POSITION":25,"NORMAL":26,"TEXCOORD_0":27},"indices":24,"material":6},{"attributes":{"POSITION":29,"NORMAL":30,"TEXCOORD_0":31},"indices":28,"material":7},{"attributes":{"POSITION":33,"NORMAL":34,"TEXCOORD_0":35},"indices":32,"material":8},{"attributes":{"POSITION":37,"NORMAL":38,"TEXCOORD_0":39},"indices":36,"material":9},{"attributes":{"POSITION":41,"NORMAL":42,"TEXCOORD_0":43},"indices":40,"material":10}],"name":"object3"}],"accessors":[{"bufferView":0,"componentType":5123,"count":11073,"type":"SCALAR","name":"accessorIndices"},{"bufferView":1,"componentType":5126,"count":7572,"max":[693.811157,849.581,16.3223667],"min":[-693.811157,-849.581,-0.813632965],"type":"VEC3","name":"accessorPositions"},{"bufferView":1,"byteOffset":90864,"componentType":5126,"count":7572,"type":"VEC3","name":"accessorNormals"},{"bufferView":2,"componentType":5126,"count":7572,"type":"VEC2","name":"accessorUVs"},{"bufferView":0,"byteOffset":22148,"componentType":5123,"count":11175,"type":"SCALAR","name":"accessorIndices"},{"bufferView":1,"byteOffset":181728,"componentType":5126,"count":7269,"max":[693.811157,849.581,16.3223667],"min":[-693.811157,-849.581,-0.000148860359],"type":"VEC3","name":"accessorPositions"},{"bufferView":1,"byteOffset":268956,"componentType":5126,"count":7269,"type":"VEC3","name":"accessorNormals"},{"bufferView":2,"byteOffset":60576,"componentType":5126,"count":7269,"type":"VEC2","name":"accessorUVs"},{"bufferView":0,"byteOffset":44500,"componentType":5123,"count":1245,"type":"SCALAR","name":"accessorIndices"},{"bufferView":1,"byteOffset":356184,"componentType":5126,"count":14562,"max":[693.811157,849.581,16.3223667],"min":[-693.811157,-849.581,-0.813632965],"type":"VEC3","name":"accessorPositions"},{"bufferView":1,"byteOffset":530928,"componentType":5126,"count":14562,"type":"VEC3","name":"accessorNormals"},{"bufferView":2,"byteOffset":118728,"componentType":5126,"count":14562,"type":"VEC2","name":"accessorUVs"},{"bufferView":0,"byteOffset":46992,"componentType":5123,"count":3822,"type":"SCALAR","name":"accessorIndices"},{"bufferView":1,"byteOffset":705672,"componentType":5126,"count":2553,"max":[693.6111,849.378052,11.9395533],"min":[-679.003662,-849.381,0.255876184],"type":"VEC3","name":"accessorPositions"},{"bufferView":1,"byteOffset":736308,"componentType":5126,"count":2553,"type":"VEC3","name":"accessorNormals"},{"bufferView":2,"byteOffset":235224,"componentType":5126,"count":2553,"type":"VEC2","name":"accessorUVs"},{"bufferView":0,"byteOffset":54636,"componentType":5123,"count":1308,"type":"SCALAR","name":"accessorIndices"},{"bufferView":1,"byteOffset":766944,"componentType":5126,"count":560,"max":[693.6111,849.378052,11.9624128],"min":[-693.6935,-849.381,10.1729832],"type":"VEC3","name":"accessorPositions"},{"bufferView":1,"byteOffset":773664,"componentType":5126,"count":560,"type":"VEC3","name":"accessorNormals"},{"bufferView":2,"byteOffset":255648,"componentType":5126,"count":560,"type":"VEC2","name":"accessorUVs"},{"bufferView":0,"byteOffset":57252,"componentType":5123,"count":456,"type":"SCALAR","name":"accessorIndices"},{"bufferView":1,"byteOffset":780384,"componentType":5126,"count":316,"max":[-663.9105,-132.028168,11.9624128],"min":[-693.6935,-161.740845,10.1729813],"type":"VEC3","name":"accessorPositions"},{"bufferView":1,"byteOffset":784176,"componentType":5126,"count":316,"type":"VEC3","name":"accessorNormals"},{"bufferView":2,"byteOffset":260128,"componentType":5126,"count":316,"type":"VEC2","name":"accessorUVs"},{"bufferView":0,"byteOffset":58164,"componentType":5123,"count":3252,"type":"SCALAR","name":"accessorIndices"},{"bufferView":1,"byteOffset":787968,"componentType":5126,"count":2864,"max":[-664.0282,-132.1462,11.9763165],"min":[-693.5757,-161.6228,-0.631331444],"type":"VEC3","name":"accessorPositions"},{"bufferView":1,"byteOffset":822336,"componentType":5126,"count":2864,"type":"VEC3","name":"accessorNormals"},{"bufferView":2,"byteOffset":262656,"componentType":5126,"count":2864,"type":"VEC2","name":"accessorUVs"},{"bufferView":0,"byteOffset":64668,"componentType":5123,"count":1008,"type":"SCALAR","name":"accessorIndices"},{"bufferView":1,"byteOffset":856704,"componentType":5126,"count":643,"max":[450.150574,-148.937241,10.1979265],"min":[-206.45636,-153.756058,-0.105745174],"type":"VEC3","name":"accessorPositions"},{"bufferView":1,"byteOffset":864420,"componentType":5126,"count":643,"type":"VEC3","name":"accessorNormals"},{"bufferView":2,"byteOffset":285568,"componentType":5126,"count":643,"type":"VEC2","name":"accessorUVs"},{"bufferView":0,"byteOffset":66684,"componentType":5123,"count":180,"type":"SCALAR","name":"accessorIndices"},{"bufferView":1,"byteOffset":872136,"componentType":5126,"count":120,"max":[448.565979,-148.937241,10.1979265],"min":[-204.871765,-153.756042,-0.105745174],"type":"VEC3","name":"accessorPositions"},{"bufferView":1,"byteOffset":873576,"componentType":5126,"count":120,"type":"VEC3","name":"accessorNormals"},{"bufferView":2,"byteOffset":290712,"componentType":5126,"count":120,"type":"VEC2","name":"accessorUVs"},{"bufferView":0,"byteOffset":67044,"componentType":5123,"count":99,"type":"SCALAR","name":"accessorIndices"},{"bufferView":1,"byteOffset":875016,"componentType":5126,"count":48,"max":[435.6378,-140.503235,10.1408119],"min":[-230.187088,-162.6026,10.1408081],"type":"VEC3","name":"accessorPositions"},{"bufferView":1,"byteOffset":875592,"componentType":5126,"count":48,"type":"VEC3","name":"accessorNormals"},{"bufferView":2,"byteOffset":291672,"componentType":5126,"count":48,"type":"VEC2","name":"accessorUVs"},{"bufferView":0,"byteOffset":67244,"componentType":5123,"count":108,"type":"SCALAR","name":"accessorIndices"},{"bufferView":1,"byteOffset":876168,"componentType":5126,"count":72,"max":[435.459656,-148.00412,16.4178829],"min":[-230.191483,-154.595276,16.28438],"type":"VEC3","name":"accessorPositions"},{"bufferView":1,"byteOffset":877032,"componentType":5126,"count":72,"type":"VEC3","name":"accessorNormals"},{"bufferView":2,"byteOffset":292056,"componentType":5126,"count":72,"type":"VEC2","name":"accessorUVs"}],"bufferViews":[{"buffer":0,"byteLength":67460,"name":"bufferViewScalar"},{"buffer":0,"byteOffset":67460,"byteLength":877896,"byteStride":12,"name":"bufferViewFloatVec3"},{"buffer":0,"byteOffset":945356,"byteLength":292632,"byteStride":8,"name":"bufferViewFloatVec2"}],"buffers":[{"uri":"sgy_bd_x.bin","byteLength":1237988}],"materials":[{"pbrMetallicRoughness":{"baseColorTexture":{"index":0},"metallicFactor":0.0,"roughnessFactor":0.450053632},"name":"Material #537"},{"pbrMetallicRoughness":{"baseColorTexture":{"index":1},"metallicFactor":0.0,"roughnessFactor":0.450053632},"name":"Material #536"},{"pbrMetallicRoughness":{"baseColorTexture":{"index":2},"metallicFactor":0.0,"roughnessFactor":0.450053632},"name":"Material #2481"},{"pbrMetallicRoughness":{"baseColorTexture":{"index":3},"metallicFactor":0.0,"roughnessFactor":0.450053632},"name":"Material #643"},{"pbrMetallicRoughness":{"baseColorTexture":{"index":4},"metallicFactor":0.0,"roughnessFactor":0.450053632},"name":"Material #6519"},{"pbrMetallicRoughness":{"baseColorTexture":{"index":5},"metallicFactor":0.0,"roughnessFactor":0.450053632},"name":"Material #5603"},{"pbrMetallicRoughness":{"baseColorTexture":{"index":6},"metallicFactor":0.0,"roughnessFactor":0.450053632},"name":"Material #5605"},{"pbrMetallicRoughness":{"baseColorTexture":{"index":7},"metallicFactor":0.0,"roughnessFactor":0.450053632},"name":"Material #6374"},{"pbrMetallicRoughness":{"baseColorTexture":{"index":8},"metallicFactor":0.0,"roughnessFactor":0.450053632},"name":"Material #6373"},{"pbrMetallicRoughness":{"baseColorTexture":{"index":9},"metallicFactor":0.0,"roughnessFactor":0.450053632},"name":"Material #5719"},{"pbrMetallicRoughness":{"baseColorTexture":{"index":5},"metallicFactor":0.0,"roughnessFactor":0.450053632},"name":"Material #5866"}],"textures":[{"sampler":0,"source":0,"name":"sgy_bd_002.jpg"},{"sampler":0,"source":1,"name":"sgy_bd_001.jpg"},{"sampler":0,"source":2,"name":"sgy_bd_005.jpg"},{"sampler":0,"source":3,"name":"sgy_bd_004.jpg"},{"sampler":0,"source":4,"name":"sgy_bd_08.jpg"},{"sampler":0,"source":5,"name":"cs_02.png"},{"sampler":0,"source":6,"name":"sgy_3q_15.jpg"},{"sampler":0,"source":7,"name":"sgy_bd_006.jpg"},{"sampler":0,"source":8,"name":"sgy_bd_007.png"},{"sampler":0,"source":9,"name":"sgy_1q_04.jpg"}],"images":[{"uri":"sgy_bd_002.jpg"},{"uri":"sgy_bd_001.jpg"},{"uri":"sgy_bd_005.jpg"},{"uri":"sgy_bd_004.jpg"},{"uri":"sgy_bd_08.jpg"},{"uri":"cs_02.png"},{"uri":"sgy_3q_15.jpg"},{"uri":"sgy_bd_006.jpg"},{"uri":"sgy_bd_007.png"},{"uri":"sgy_1q_04.jpg"}],"samplers":[{"magFilter":9729,"minFilter":9987}]}