{"asset":{"version":"2.0","generator":"babylon.js glTF exporter for 3dsmax 2022 v20240125.3"},"scene":0,"scenes":[{"nodes":[0]}],"nodes":[{"mesh":0,"name":"shu5"}],"meshes":[{"primitives":[{"attributes":{"POSITION":1,"NORMAL":2,"TEXCOORD_0":3},"indices":0,"material":0}],"name":"shu5"}],"accessors":[{"bufferView":0,"componentType":5123,"count":360,"type":"SCALAR","name":"accessorIndices"},{"bufferView":1,"componentType":5126,"count":360,"max":[7.297888,7.334563,28.3745155],"min":[-7.27663374,-7.31771,-0.360987544],"type":"VEC3","name":"accessorPositions"},{"bufferView":1,"byteOffset":4320,"componentType":5126,"count":360,"type":"VEC3","name":"accessorNormals"},{"bufferView":2,"componentType":5126,"count":360,"type":"VEC2","name":"accessorUVs"}],"bufferViews":[{"buffer":0,"byteLength":720,"name":"bufferViewScalar"},{"buffer":0,"byteOffset":720,"byteLength":8640,"byteStride":12,"name":"bufferViewFloatVec3"},{"buffer":0,"byteOffset":9360,"byteLength":2880,"byteStride":8,"name":"bufferViewFloatVec2"}],"buffers":[{"uri":"sxh_tree_005.bin","byteLength":12240}],"materials":[{"pbrMetallicRoughness":{"baseColorTexture":{"index":0},"metallicFactor":0.0,"roughnessFactor":0.2363239},"name":"AllColors_Material"}],"textures":[{"sampler":0,"source":0,"name":"texture_gradient.png"}],"images":[{"uri":"texture_gradient.png"}],"samplers":[{"magFilter":9729,"minFilter":9987}]}