{
  "accessors": [
    {
      "name": "ChamferBox001_1_0_positions",
      "componentType": 5126,
      "count": 397,
      "min": [
        -65.30699920654297,
        -21.95009994506836,
        0
      ],
      "max": [
        65.30699920654297,
        21.95009994506836,
        29.30900001525879
      ],
      "type": "VEC3",
      "bufferView": 0,
      "byteOffset": 0
    },
    {
      "name": "ChamferBox001_1_0_normals",
      "componentType": 5126,
      "count": 397,
      "min": [
        -1,
        -1,
        -1
      ],
      "max": [
        1,
        1,
        1
      ],
      "type": "VEC3",
      "bufferView": 1,
      "byteOffset": 0
    },
    {
      "name": "ChamferBox001_1_0_texcoords",
      "componentType": 5126,
      "count": 397,
      "min": [
        -26.62179946899414,
        -7.088699817657471
      ],
      "max": [
        27.62179946899414,
        8.088700294494629
      ],
      "type": "VEC2",
      "bufferView": 2,
      "byteOffset": 0
    },
    {
      "name": "ChamferBox001_1_0_indices",
      "componentType": 5123,
      "count": 798,
      "min": [
        0
      ],
      "max": [
        396
      ],
      "type": "SCALAR",
      "bufferView": 3,
      "byteOffset": 0
    },
    {
      "name": "ChamferBox001_1_1_positions",
      "componentType": 5126,
      "count": 4,
      "min": [
        -57.25979995727539,
        -21.350099563598633,
        24.27680015563965
      ],
      "max": [
        56.69729995727539,
        21.421600341796875,
        24.27680015563965
      ],
      "type": "VEC3",
      "bufferView": 0,
      "byteOffset": 4764
    },
    {
      "name": "ChamferBox001_1_1_normals",
      "componentType": 5126,
      "count": 4,
      "min": [
        0,
        0,
        1
      ],
      "max": [
        0,
        0,
        1
      ],
      "type": "VEC3",
      "bufferView": 1,
      "byteOffset": 4764
    },
    {
      "name": "ChamferBox001_1_1_texcoords",
      "componentType": 5126,
      "count": 4,
      "min": [
        0,
        0
      ],
      "max": [
        1,
        1
      ],
      "type": "VEC2",
      "bufferView": 2,
      "byteOffset": 3176
    },
    {
      "name": "ChamferBox001_1_1_indices",
      "componentType": 5123,
      "count": 6,
      "min": [
        0
      ],
      "max": [
        3
      ],
      "type": "SCALAR",
      "bufferView": 3,
      "byteOffset": 1596
    },
    {
      "name": "ChamferBox001_1_2_positions",
      "componentType": 5126,
      "count": 16,
      "min": [
        -57.25979995727539,
        -21.350099563598633,
        9.784299850463867
      ],
      "max": [
        56.69729995727539,
        21.421600341796875,
        22.618099212646484
      ],
      "type": "VEC3",
      "bufferView": 0,
      "byteOffset": 4812
    },
    {
      "name": "ChamferBox001_1_2_normals",
      "componentType": 5126,
      "count": 16,
      "min": [
        0,
        -1,
        0
      ],
      "max": [
        0,
        1,
        0
      ],
      "type": "VEC3",
      "bufferView": 1,
      "byteOffset": 4812
    },
    {
      "name": "ChamferBox001_1_2_texcoords",
      "componentType": 5126,
      "count": 16,
      "min": [
        -2.1614999771118164,
        -1.0253000259399414
      ],
      "max": [
        6.994200229644775,
        1.9917999505996704
      ],
      "type": "VEC2",
      "bufferView": 2,
      "byteOffset": 3208
    },
    {
      "name": "ChamferBox001_1_2_indices",
      "componentType": 5123,
      "count": 24,
      "min": [
        0
      ],
      "max": [
        15
      ],
      "type": "SCALAR",
      "bufferView": 3,
      "byteOffset": 1608
    },
    {
      "name": "ChamferBox001_1_3_positions",
      "componentType": 5126,
      "count": 588,
      "min": [
        -66.40699768066406,
        -18.101999282836914,
        7.525000095367432
      ],
      "max": [
        66.40699768066406,
        17.57349967956543,
        30.76020050048828
      ],
      "type": "VEC3",
      "bufferView": 0,
      "byteOffset": 5004
    },
    {
      "name": "ChamferBox001_1_3_normals",
      "componentType": 5126,
      "count": 588,
      "min": [
        -1,
        -1,
        -1
      ],
      "max": [
        1,
        1,
        1
      ],
      "type": "VEC3",
      "bufferView": 1,
      "byteOffset": 5004
    },
    {
      "name": "ChamferBox001_1_3_texcoords",
      "componentType": 5126,
      "count": 588,
      "min": [
        -10.073699951171875,
        -11.841699600219727
      ],
      "max": [
        11.073699951171875,
        14.74489974975586
      ],
      "type": "VEC2",
      "bufferView": 2,
      "byteOffset": 3336
    },
    {
      "name": "ChamferBox001_1_3_indices",
      "componentType": 5123,
      "count": 1176,
      "min": [
        0
      ],
      "max": [
        587
      ],
      "type": "SCALAR",
      "bufferView": 3,
      "byteOffset": 1656
    }
  ],
  "asset": {
    "generator": "obj2gltf",
    "version": "2.0"
  },
  "buffers": [
    {
      "name": "2_jz08",
      "byteLength": 36168,
      "uri": "data:application/octet-stream;base64,"
    }
  ],
  "bufferViews": [
    {
      "name": "bufferView_0",
      "buffer": 0,
      "byteLength": 12060,
      "byteOffset": 0,
      "byteStride": 12,
      "target": 34962
    },
    {
      "name": "bufferView_1",
      "buffer": 0,
      "byteLength": 12060,
      "byteOffset": 12060,
      "byteStride": 12,
      "target": 34962
    },
    {
      "name": "bufferView_2",
      "buffer": 0,
      "byteLength": 8040,
      "byteOffset": 24120,
      "byteStride": 8,
      "target": 34962
    },
    {
      "name": "bufferView_3",
      "buffer": 0,
      "byteLength": 4008,
      "byteOffset": 32160,
      "target": 34963
    }
  ],
  "images": [
    {
      "name": "sgy_2q_19",
      "uri": "sgy_2q_19.jpg"
    },
    {
      "name": "sgy_2q_41",
      "uri": "sgy_2q_41.jpg"
    },
    {
      "name": "sgy_2q_20",
      "uri": "sgy_2q_20.jpg"
    },
    {
      "name": "sgy_2q_18",
      "uri": "sgy_2q_18.jpg"
    }
  ],
  "materials": [
    {
      "name": "Material__562",
      "pbrMetallicRoughness": {
        "baseColorTexture": {
          "index": 0
        },
        "baseColorFactor": [
          1,
          1,
          1,
          1
        ],
        "metallicFactor": 0,
        "roughnessFactor": 0.99
      },
      "emissiveFactor": [
        0,
        0,
        0
      ],
      "alphaMode": "OPAQUE",
      "doubleSided": false
    },
    {
      "name": "Material__3670",
      "pbrMetallicRoughness": {
        "baseColorTexture": {
          "index": 1
        },
        "baseColorFactor": [
          1,
          1,
          1,
          1
        ],
        "metallicFactor": 0,
        "roughnessFactor": 0.99
      },
      "emissiveFactor": [
        0,
        0,
        0
      ],
      "alphaMode": "OPAQUE",
      "doubleSided": false
    },
    {
      "name": "Material__588",
      "pbrMetallicRoughness": {
        "baseColorTexture": {
          "index": 2
        },
        "baseColorFactor": [
          1,
          1,
          1,
          1
        ],
        "metallicFactor": 0,
        "roughnessFactor": 0.99
      },
      "emissiveFactor": [
        0,
        0,
        0
      ],
      "alphaMode": "OPAQUE",
      "doubleSided": false
    },
    {
      "name": "Material__550",
      "pbrMetallicRoughness": {
        "baseColorTexture": {
          "index": 3
        },
        "baseColorFactor": [
          1,
          1,
          1,
          1
        ],
        "metallicFactor": 0,
        "roughnessFactor": 0.99
      },
      "emissiveFactor": [
        0,
        0,
        0
      ],
      "alphaMode": "OPAQUE",
      "doubleSided": false
    }
  ],
  "meshes": [
    {
      "name": "ChamferBox001_1",
      "primitives": [
        {
          "attributes": {
            "POSITION": 0,
            "NORMAL": 1,
            "TEXCOORD_0": 2
          },
          "indices": 3,
          "material": 0,
          "mode": 4
        },
        {
          "attributes": {
            "POSITION": 4,
            "NORMAL": 5,
            "TEXCOORD_0": 6
          },
          "indices": 7,
          "material": 1,
          "mode": 4
        },
        {
          "attributes": {
            "POSITION": 8,
            "NORMAL": 9,
            "TEXCOORD_0": 10
          },
          "indices": 11,
          "material": 2,
          "mode": 4
        },
        {
          "attributes": {
            "POSITION": 12,
            "NORMAL": 13,
            "TEXCOORD_0": 14
          },
          "indices": 15,
          "material": 3,
          "mode": 4
        }
      ]
    }
  ],
  "nodes": [
    {
      "name": "ChamferBox001",
      "mesh": 0
    }
  ],
  "samplers": [
    {
      "wrapS": 10497,
      "wrapT": 10497
    }
  ],
  "scene": 0,
  "scenes": [
    {
      "nodes": [
        0
      ]
    }
  ],
  "textures": [
    {
      "name": "sgy_2q_19",
      "sampler": 0,
      "source": 0
    },
    {
      "name": "sgy_2q_41",
      "sampler": 0,
      "source": 1
    },
    {
      "name": "sgy_2q_20",
      "sampler": 0,
      "source": 2
    },
    {
      "name": "sgy_2q_18",
      "sampler": 0,
      "source": 3
    }
  ]
}
