{"asset":{"version":"2.0","generator":"babylon.js glTF exporter for 3dsmax 2022 v20240125.3"},"scene":0,"scenes":[{"nodes":[0]}],"nodes":[{"mesh":0,"translation":[0.0,4.76837158E-07,0.0],"name":"Cylinder001"}],"meshes":[{"primitives":[{"attributes":{"POSITION":1,"NORMAL":2,"TEXCOORD_0":3},"indices":0,"material":0},{"attributes":{"POSITION":5,"NORMAL":6,"TEXCOORD_0":7},"indices":4,"material":1},{"attributes":{"POSITION":9,"NORMAL":10,"TEXCOORD_0":11},"indices":8,"material":2},{"attributes":{"POSITION":13,"NORMAL":14,"TEXCOORD_0":15},"indices":12,"material":3}],"name":"Cylinder001"}],"accessors":[{"bufferView":0,"componentType":5123,"count":216,"type":"SCALAR","name":"accessorIndices"},{"bufferView":1,"componentType":5126,"count":104,"max":[357.40094,33.15353,183.029],"min":[-384.4684,-33.1535568,2.4129],"type":"VEC3","name":"accessorPositions"},{"bufferView":1,"byteOffset":1248,"componentType":5126,"count":104,"type":"VEC3","name":"accessorNormals"},{"bufferView":2,"componentType":5126,"count":104,"type":"VEC2","name":"accessorUVs"},{"bufferView":0,"byteOffset":432,"componentType":5123,"count":2370,"type":"SCALAR","name":"accessorIndices"},{"bufferView":1,"byteOffset":2496,"componentType":5126,"count":897,"max":[420.934326,44.5849762,191.412811],"min":[-420.934326,-44.58499,-8.83542252],"type":"VEC3","name":"accessorPositions"},{"bufferView":1,"byteOffset":13260,"componentType":5126,"count":897,"type":"VEC3","name":"accessorNormals"},{"bufferView":2,"byteOffset":832,"componentType":5126,"count":897,"type":"VEC2","name":"accessorUVs"},{"bufferView":0,"byteOffset":5172,"componentType":5123,"count":48,"type":"SCALAR","name":"accessorIndices"},{"bufferView":1,"byteOffset":24024,"componentType":5126,"count":34,"max":[420.934326,38.8532829,28.6316147],"min":[-420.934326,-38.5737457,-1.21817112],"type":"VEC3","name":"accessorPositions"},{"bufferView":1,"byteOffset":24432,"componentType":5126,"count":34,"type":"VEC3","name":"accessorNormals"},{"bufferView":2,"byteOffset":8008,"componentType":5126,"count":34,"type":"VEC2","name":"accessorUVs"},{"bufferView":0,"byteOffset":5268,"componentType":5123,"count":1020,"type":"SCALAR","name":"accessorIndices"},{"bufferView":1,"byteOffset":24840,"componentType":5126,"count":408,"max":[420.934326,35.7194481,34.26916],"min":[-420.934326,-35.7545,-1.21816635],"type":"VEC3","name":"accessorPositions"},{"bufferView":1,"byteOffset":29736,"componentType":5126,"count":408,"type":"VEC3","name":"accessorNormals"},{"bufferView":2,"byteOffset":8280,"componentType":5126,"count":408,"type":"VEC2","name":"accessorUVs"}],"bufferViews":[{"buffer":0,"byteLength":7308,"name":"bufferViewScalar"},{"buffer":0,"byteOffset":7308,"byteLength":34632,"byteStride":12,"name":"bufferViewFloatVec3"},{"buffer":0,"byteOffset":41940,"byteLength":11544,"byteStride":8,"name":"bufferViewFloatVec2"}],"buffers":[{"uri":"xsgdq_001.bin","byteLength":53484}],"materials":[{"pbrMetallicRoughness":{"baseColorTexture":{"index":0},"metallicFactor":0.0,"roughnessFactor":0.450053632},"name":"Material #43968"},{"pbrMetallicRoughness":{"baseColorTexture":{"index":1},"metallicFactor":0.0,"roughnessFactor":0.450053632},"name":"Material #43967"},{"pbrMetallicRoughness":{"baseColorTexture":{"index":2},"metallicFactor":0.0,"roughnessFactor":0.450053632},"name":"Material #43969"},{"pbrMetallicRoughness":{"baseColorTexture":{"index":3},"metallicFactor":0.0,"roughnessFactor":0.450053632},"name":"Material #44048"}],"textures":[{"sampler":0,"source":0,"name":"sgy_x_001.png"},{"sampler":0,"source":1,"name":"sgy_3q_15.jpg"},{"sampler":0,"source":2,"name":"SGY_ML01.jpg"},{"sampler":0,"source":3,"name":"sgy_x_002.png"}],"images":[{"uri":"sgy_x_001.png"},{"uri":"sgy_3q_15.jpg"},{"uri":"SGY_ML01.jpg"},{"uri":"sgy_x_002.png"}],"samplers":[{"magFilter":9729,"minFilter":9987}]}