{"asset":{"version":"2.0","generator":"babylon.js glTF exporter for 3dsmax 2022 v20240125.3"},"scene":0,"scenes":[{"nodes":[0]}],"nodes":[{"mesh":0,"name":"Box025"}],"meshes":[{"primitives":[{"attributes":{"POSITION":1,"NORMAL":2,"TEXCOORD_0":3},"indices":0,"material":0},{"attributes":{"POSITION":5,"NORMAL":6,"TEXCOORD_0":7},"indices":4,"material":1},{"attributes":{"POSITION":9,"NORMAL":10,"TEXCOORD_0":11},"indices":8,"material":2},{"attributes":{"POSITION":13,"NORMAL":14,"TEXCOORD_0":15},"indices":12,"material":3},{"attributes":{"POSITION":17,"NORMAL":18,"TEXCOORD_0":19},"indices":16,"material":4},{"attributes":{"POSITION":21,"NORMAL":22,"TEXCOORD_0":23},"indices":20,"material":5},{"attributes":{"POSITION":25,"NORMAL":26,"TEXCOORD_0":27},"indices":24,"material":6},{"attributes":{"POSITION":29,"NORMAL":30,"TEXCOORD_0":31},"indices":28,"material":7},{"attributes":{"POSITION":33,"NORMAL":34,"TEXCOORD_0":35},"indices":32,"material":8}],"name":"Box025"}],"accessors":[{"bufferView":0,"componentType":5123,"count":18,"type":"SCALAR","name":"accessorIndices"},{"bufferView":1,"componentType":5126,"count":12,"max":[19.38211,29.6555767,5.31699944],"min":[-39.823822,-29.6556416,-0.0462589748],"type":"VEC3","name":"accessorPositions"},{"bufferView":1,"byteOffset":144,"componentType":5126,"count":12,"type":"VEC3","name":"accessorNormals"},{"bufferView":2,"componentType":5126,"count":12,"type":"VEC2","name":"accessorUVs"},{"bufferView":0,"byteOffset":36,"componentType":5123,"count":18,"type":"SCALAR","name":"accessorIndices"},{"bufferView":1,"byteOffset":288,"componentType":5126,"count":8,"max":[-20.5999146,29.6555729,74.98895],"min":[-20.5999146,-6.82215738,13.3191652],"type":"VEC3","name":"accessorPositions"},{"bufferView":1,"byteOffset":384,"componentType":5126,"count":8,"type":"VEC3","name":"accessorNormals"},{"bufferView":2,"byteOffset":96,"componentType":5126,"count":8,"type":"VEC2","name":"accessorUVs"},{"bufferView":0,"byteOffset":72,"componentType":5123,"count":24,"type":"SCALAR","name":"accessorIndices"},{"bufferView":1,"byteOffset":480,"componentType":5126,"count":15,"max":[32.87152,23.9225273,74.98896],"min":[32.8714027,-6.82215738,13.3191643],"type":"VEC3","name":"accessorPositions"},{"bufferView":1,"byteOffset":660,"componentType":5126,"count":15,"type":"VEC3","name":"accessorNormals"},{"bufferView":2,"byteOffset":160,"componentType":5126,"count":15,"type":"VEC2","name":"accessorUVs"},{"bufferView":0,"byteOffset":120,"componentType":5123,"count":21,"type":"SCALAR","name":"accessorIndices"},{"bufferView":1,"byteOffset":840,"componentType":5126,"count":12,"max":[31.371521,28.1555653,72.496994],"min":[-38.323822,-28.1556511,62.1077156],"type":"VEC3","name":"accessorPositions"},{"bufferView":1,"byteOffset":984,"componentType":5126,"count":12,"type":"VEC3","name":"accessorNormals"},{"bufferView":2,"byteOffset":280,"componentType":5126,"count":12,"type":"VEC2","name":"accessorUVs"},{"bufferView":0,"byteOffset":164,"componentType":5123,"count":174,"type":"SCALAR","name":"accessorIndices"},{"bufferView":1,"byteOffset":1128,"componentType":5126,"count":88,"max":[39.8239136,29.6555767,11.077095],"min":[-39.823822,-29.6556435,-0.0462589748],"type":"VEC3","name":"accessorPositions"},{"bufferView":1,"byteOffset":2184,"componentType":5126,"count":88,"type":"VEC3","name":"accessorNormals"},{"bufferView":2,"byteOffset":376,"componentType":5126,"count":88,"type":"VEC2","name":"accessorUVs"},{"bufferView":0,"byteOffset":512,"componentType":5123,"count":150,"type":"SCALAR","name":"accessorIndices"},{"bufferView":1,"byteOffset":3240,"componentType":5126,"count":76,"max":[39.8239136,29.6555767,11.077095],"min":[-39.823822,-29.6556435,-0.0462589748],"type":"VEC3","name":"accessorPositions"},{"bufferView":1,"byteOffset":4152,"componentType":5126,"count":76,"type":"VEC3","name":"accessorNormals"},{"bufferView":2,"byteOffset":1080,"componentType":5126,"count":76,"type":"VEC2","name":"accessorUVs"},{"bufferView":0,"byteOffset":812,"componentType":5123,"count":213,"type":"SCALAR","name":"accessorIndices"},{"bufferView":1,"byteOffset":5064,"componentType":5126,"count":109,"max":[32.87152,29.6555729,74.98896],"min":[-39.823822,-29.6556435,11.0770864],"type":"VEC3","name":"accessorPositions"},{"bufferView":1,"byteOffset":6372,"componentType":5126,"count":109,"type":"VEC3","name":"accessorNormals"},{"bufferView":2,"byteOffset":1688,"componentType":5126,"count":109,"type":"VEC2","name":"accessorUVs"},{"bufferView":0,"byteOffset":1240,"componentType":5123,"count":54,"type":"SCALAR","name":"accessorIndices"},{"bufferView":1,"byteOffset":7680,"componentType":5126,"count":22,"max":[32.87152,29.6555729,74.98895],"min":[-20.5999146,-6.82215738,13.3191643],"type":"VEC3","name":"accessorPositions"},{"bufferView":1,"byteOffset":7944,"componentType":5126,"count":22,"type":"VEC3","name":"accessorNormals"},{"bufferView":2,"byteOffset":2560,"componentType":5126,"count":22,"type":"VEC2","name":"accessorUVs"},{"bufferView":0,"byteOffset":1348,"componentType":5123,"count":246,"type":"SCALAR","name":"accessorIndices"},{"bufferView":1,"byteOffset":8208,"componentType":5126,"count":140,"max":[32.87152,29.6555653,74.98896],"min":[-39.823822,-29.655653,13.3191566],"type":"VEC3","name":"accessorPositions"},{"bufferView":1,"byteOffset":9888,"componentType":5126,"count":140,"type":"VEC3","name":"accessorNormals"},{"bufferView":2,"byteOffset":2736,"componentType":5126,"count":140,"type":"VEC2","name":"accessorUVs"}],"bufferViews":[{"buffer":0,"byteLength":1840,"name":"bufferViewScalar"},{"buffer":0,"byteOffset":1840,"byteLength":11568,"byteStride":12,"name":"bufferViewFloatVec3"},{"buffer":0,"byteOffset":13408,"byteLength":3856,"byteStride":8,"name":"bufferViewFloatVec2"}],"buffers":[{"uri":"sg_034_1.bin","byteLength":17264}],"materials":[{"pbrMetallicRoughness":{"baseColorTexture":{"index":0},"metallicFactor":0.0,"roughnessFactor":0.450053632},"name":"Material #45683"},{"pbrMetallicRoughness":{"baseColorTexture":{"index":1},"metallicFactor":0.0,"roughnessFactor":0.450053632},"name":"Material #45776"},{"pbrMetallicRoughness":{"baseColorTexture":{"index":2},"metallicFactor":0.0,"roughnessFactor":0.450053632},"name":"Material #45863"},{"pbrMetallicRoughness":{"baseColorTexture":{"index":3},"metallicFactor":0.0,"roughnessFactor":0.450053632},"name":"Material #45960"},{"pbrMetallicRoughness":{"baseColorTexture":{"index":4},"metallicFactor":0.0,"roughnessFactor":0.450053632},"name":"Material #45671"},{"pbrMetallicRoughness":{"baseColorTexture":{"index":5},"metallicFactor":0.0,"roughnessFactor":0.450053632},"name":"Material #45717"},{"pbrMetallicRoughness":{"baseColorTexture":{"index":6},"metallicFactor":0.0,"roughnessFactor":0.450053632},"name":"Material #45752"},{"pbrMetallicRoughness":{"baseColorTexture":{"index":7},"metallicFactor":0.0,"roughnessFactor":0.450053632},"name":"Material #45850"},{"pbrMetallicRoughness":{"baseColorTexture":{"index":8},"metallicFactor":0.0,"roughnessFactor":0.450053632},"name":"Material #45789"}],"textures":[{"sampler":0,"source":0,"name":"SGY_H06.jpg"},{"sampler":0,"source":1,"name":"SGY_c01.jpg"},{"sampler":0,"source":2,"name":"SGY034_003.jpg"},{"sampler":0,"source":3,"name":"SGY_ML02.jpg"},{"sampler":0,"source":4,"name":"SGY_c09.jpg"},{"sampler":0,"source":5,"name":"sgy_3q_17.jpg"},{"sampler":0,"source":6,"name":"SGY_c08.jpg"},{"sampler":0,"source":7,"name":"SGY034_001.jpg"},{"sampler":0,"source":8,"name":"SGY034_002.jpg"}],"images":[{"uri":"SGY_H06.jpg"},{"uri":"SGY_c01.jpg"},{"uri":"SGY034_003.jpg"},{"uri":"SGY_ML02.jpg"},{"uri":"SGY_c09.jpg"},{"uri":"sgy_3q_17.jpg"},{"uri":"SGY_c08.jpg"},{"uri":"SGY034_001.jpg"},{"uri":"SGY034_002.jpg"}],"samplers":[{"magFilter":9729,"minFilter":9987}]}